0
SECTION
2
ENTITIES
0
3DFACE
8
Tube5
62
1.000000
10
1.815355
20
-24.309973
30
142.656967
11
4.430999
21
-25.011108
31
142.656967
12
3.318948
22
-7.657657
32
126.715446
13
-0.055854
23
-7.304035
33
127.069077
0
3DFACE
8
Tube5
62
1.000000
10
3.318948
20
-7.657657
30
126.715446
11
16.251034
21
-25.011108
31
142.656967
12
18.866678
22
-24.309973
32
142.656967
13
6.126519
23
-7.304035
33
127.069077
0
3DFACE
8
Tube2
62
2.000000
10
-0.055854
20
7.131844
30
127.069077
11
3.318948
21
7.485466
31
126.715446
12
4.430999
22
24.838919
32
142.656967
13
1.815355
23
24.137783
33
142.656967
0
3DFACE
8
Tube2
62
2.000000
10
6.126519
20
7.131844
30
127.069077
11
18.866678
21
24.137783
31
142.656967
12
16.251034
22
24.838919
32
142.656967
13
3.318948
23
7.485466
33
126.715446
0
3DFACE
8
Queue
62
3.000000
10
-11.808029
20
8.464894
30
122.393860
11
-48.507462
21
2.937681
31
122.231361
12
-48.507462
22
1.563641
32
119.354836
13
-11.808029
23
4.450969
33
113.990776
0
3DFACE
8
Queue
62
3.000000
10
-11.808029
20
4.450969
30
113.990776
11
-48.507462
21
1.563641
31
119.354836
12
-48.507462
22
-1.313207
32
119.270256
13
-11.808029
23
-3.953108
33
113.743690
0
3DFACE
8
Queue
62
3.000000
10
-11.808029
20
-3.953108
30
113.743690
11
-48.507462
21
-1.313207
31
119.270256
12
-48.507462
22
-2.816030
32
122.062195
13
-11.808029
23
-8.343227
33
121.899689
0
3DFACE
8
Queue
62
3.000000
10
-11.808029
20
-8.343227
30
121.899689
11
-48.507462
21
-2.816030
31
122.062195
12
-48.507462
22
-1.441990
32
124.938721
13
-11.808029
23
-4.329302
33
130.302795
0
3DFACE
8
Queue
62
3.000000
10
-11.808029
20
-4.329302
30
130.302795
11
-48.507462
21
-1.441990
31
124.938721
12
-48.507462
22
1.434874
32
125.023300
13
-11.808029
23
4.074759
33
130.549881
0
3DFACE
8
Queue
62
3.000000
10
-11.808029
20
4.074759
30
130.549881
11
-48.507462
21
1.434874
31
125.023300
12
-48.507462
22
2.937681
32
122.231361
13
-11.808029
23
8.464894
33
122.393860
0
3DFACE
8
Queue
62
3.000000
10
-48.507462
20
1.434874
30
125.023300
11
-48.507462
21
-1.441990
31
124.938721
12
-48.507462
22
-2.816030
32
122.062195
13
-48.507462
23
-2.816030
33
122.062195
0
3DFACE
8
Queue
62
3.000000
10
-48.507462
20
1.434874
30
125.023300
11
-48.507462
21
-2.816030
31
122.062195
12
-48.507462
22
-1.313207
32
119.270256
13
-48.507462
23
-1.313207
33
119.270256
0
3DFACE
8
Queue
62
3.000000
10
-48.507462
20
1.434874
30
125.023300
11
-48.507462
21
-1.313207
31
119.270256
12
-48.507462
22
1.563641
32
119.354836
13
-48.507462
23
1.563641
33
119.354836
0
3DFACE
8
Queue
62
3.000000
10
-48.507462
20
1.434874
30
125.023300
11
-48.507462
21
1.563641
31
119.354836
12
-48.507462
22
2.937681
32
122.231361
13
-48.507462
23
2.937681
33
122.231361
0
3DFACE
8
StabG
62
4.000000
10
-27.420885
20
-5.921685
30
122.378845
11
-47.217007
21
-15.034152
31
121.562042
12
-50.918827
22
-11.960123
32
121.556374
13
-50.918827
23
-11.960123
33
121.556374
0
3DFACE
8
StabG
62
4.000000
10
-27.420885
20
-5.921685
30
122.378845
11
-50.918827
21
-11.960123
31
121.556374
12
-50.863350
22
-5.065443
32
121.556374
13
-50.863350
23
-5.065443
33
121.556374
0
3DFACE
8
StabG
62
4.000000
10
-27.420885
20
-5.921685
30
122.378845
11
-50.863350
21
-5.065443
31
121.556374
12
-47.560192
22
-1.980592
32
121.617088
13
-47.560192
23
-1.980592
33
121.617088
0
3DFACE
8
StabD
62
5.000000
10
-47.560192
20
2.031457
30
121.650703
11
-50.863350
21
5.269896
31
121.556374
12
-50.918827
22
12.164576
32
121.556374
13
-50.918827
23
12.164576
33
121.556374
0
3DFACE
8
StabD
62
5.000000
10
-47.560192
20
2.031457
30
121.650703
11
-50.918827
21
12.164576
31
121.556374
12
-47.217007
22
15.238605
32
121.562042
13
-47.217007
23
15.238605
33
121.562042
0
3DFACE
8
StabD
62
5.000000
10
-47.560192
20
2.031457
30
121.650703
11
-47.217007
21
15.238605
31
121.562042
12
-27.420885
22
6.126138
32
122.378845
13
-27.420885
23
6.126138
33
122.378845
0
3DFACE
8
RoueG
62
6.000000
10
7.787559
20
-10.329679
30
99.584198
11
3.515083
21
-10.810922
31
97.164886
12
-1.343396
22
-10.643785
32
98.005104
13
-1.343396
23
-10.643785
33
98.005104
0
3DFACE
8
RoueG
62
6.000000
10
7.787559
20
-10.329679
30
99.584198
11
-1.343396
21
-10.643785
31
98.005104
12
-4.514542
22
-9.906496
32
101.711716
13
-4.514542
23
-9.906496
33
101.711716
0
3DFACE
8
RoueG
62
6.000000
10
7.787559
20
-10.329679
30
99.584198
11
-4.514542
21
-9.906496
31
101.711716
12
-4.514542
22
-8.944028
32
106.550346
13
-4.514542
23
-8.944028
33
106.550346
0
3DFACE
8
RoueG
62
6.000000
10
7.787559
20
-10.329679
30
99.584198
11
-4.514542
21
-8.944028
31
106.550346
12
-1.343396
22
-8.206739
32
110.256958
13
-1.343396
23
-8.206739
33
110.256958
0
3DFACE
8
RoueG
62
6.000000
10
7.787559
20
-10.329679
30
99.584198
11
-1.343396
21
-8.206739
31
110.256958
12
3.515083
22
-8.039618
32
111.097183
13
3.515083
23
-8.039618
33
111.097183
0
3DFACE
8
RoueG
62
6.000000
10
7.787559
20
-10.329679
30
99.584198
11
3.515083
21
-8.039618
31
111.097183
12
7.787559
22
-8.520844
32
108.677864
13
7.787559
23
-8.520844
33
108.677864
0
3DFACE
8
RoueG
62
6.000000
10
7.787559
20
-10.329679
30
99.584198
11
7.787559
21
-8.520844
31
108.677864
12
9.474892
22
-9.425270
32
104.131035
13
9.474892
23
-9.425270
33
104.131035
0
3DFACE
8
RoueD
62
7.000000
10
9.474892
20
10.071773
30
104.131035
11
7.787559
21
9.167347
31
108.677864
12
3.515083
22
8.686121
32
111.097183
13
3.515083
23
8.686121
33
111.097183
0
3DFACE
8
RoueD
62
7.000000
10
9.474892
20
10.071773
30
104.131035
11
3.515083
21
8.686121
31
111.097183
12
-1.343396
22
8.853243
32
110.256958
13
-1.343396
23
8.853243
33
110.256958
0
3DFACE
8
RoueD
62
7.000000
10
9.474892
20
10.071773
30
104.131035
11
-1.343396
21
8.853243
31
110.256958
12
-4.514542
22
9.590531
32
106.550346
13
-4.514542
23
9.590531
33
106.550346
0
3DFACE
8
RoueD
62
7.000000
10
9.474892
20
10.071773
30
104.131035
11
-4.514542
21
9.590531
31
106.550346
12
-4.514542
22
10.552999
32
101.711716
13
-4.514542
23
10.552999
33
101.711716
0
3DFACE
8
RoueD
62
7.000000
10
9.474892
20
10.071773
30
104.131035
11
-4.514542
21
10.552999
31
101.711716
12
-1.343396
22
11.290288
32
98.005104
13
-1.343396
23
11.290288
33
98.005104
0
3DFACE
8
RoueD
62
7.000000
10
9.474892
20
10.071773
30
104.131035
11
-1.343396
21
11.290288
31
98.005104
12
3.515083
22
11.457425
32
97.164886
13
3.515083
23
11.457425
33
97.164886
0
3DFACE
8
RoueD
62
7.000000
10
9.474892
20
10.071773
30
104.131035
11
3.515083
21
11.457425
31
97.164886
12
7.787559
22
10.976183
32
99.584198
13
7.787559
23
10.976183
33
99.584198
0
3DFACE
8
PRD
62
8.000000
10
0.921473
20
9.356809
30
102.346535
11
4.787976
21
9.335817
31
102.452049
12
-5.540192
22
6.480225
32
116.808128
13
-9.709299
23
6.369565
33
117.364449
0
3DFACE
8
PRD
62
8.000000
10
4.787976
20
9.335817
30
102.452049
11
3.705569
21
6.712598
31
115.639839
12
0.755995
22
6.712598
32
115.639839
13
2.010573
23
8.607335
33
106.114342
0
3DFACE
8
PRG
62
9.000000
10
4.787976
20
-8.689315
30
102.452049
11
2.010573
21
-7.960832
31
106.114342
12
0.755995
22
-6.066095
32
115.639839
13
3.705569
23
-6.066095
33
115.639839
0
3DFACE
8
PRG
62
9.000000
10
4.787976
20
-8.689315
30
102.452049
11
0.921473
21
-8.710290
31
102.346535
12
-9.709299
22
-5.723046
32
117.364449
13
-5.540192
23
-5.833706
33
116.808128
0
3DFACE
8
PRA
62
10.000000
10
1.498069
20
-8.415455
30
103.143120
11
3.398276
21
-8.167641
31
104.816429
12
3.398276
22
8.761341
32
104.816429
13
1.498069
23
9.009155
33
103.143120
0
3DFACE
8
Gouv
62
11.000000
10
-48.464897
20
0.285161
30
124.961151
11
-48.913059
21
0.125388
31
121.499657
12
-51.616985
22
0.285161
32
121.581680
13
-51.616985
23
0.285161
33
121.581680
0
3DFACE
8
Gouv
62
11.000000
10
-48.464897
20
0.285161
30
124.961151
11
-51.616985
21
0.285161
31
121.581680
12
-56.243172
22
0.285161
32
126.207863
13
-56.243172
23
0.285161
33
126.207863
0
3DFACE
8
Gouv
62
11.000000
10
-48.464897
20
0.285161
30
124.961151
11
-56.243172
21
0.285161
31
126.207863
12
-56.243179
22
0.285161
32
132.750290
13
-56.243179
23
0.285161
33
132.750290
0
3DFACE
8
Gouv
62
11.000000
10
-48.464897
20
0.285161
30
124.961151
11
-56.243179
21
0.285161
31
132.750290
12
-51.616993
22
0.285161
32
137.376465
13
-51.616993
23
0.285161
33
137.376465
0
3DFACE
8
Gouv
62
11.000000
10
-48.464897
20
0.285161
30
124.961151
11
-51.616993
21
0.285161
31
137.376465
12
-48.345787
22
0.285161
32
138.027145
13
-48.345787
23
0.285161
33
138.027145
0
3DFACE
8
Gouv
62
11.000000
10
-48.345787
20
0.285161
30
138.027145
11
-27.713018
21
0.285161
31
128.979919
12
-48.464897
22
0.285161
32
124.961151
13
-48.464897
23
0.285161
33
124.961151
0
3DFACE
8
Tube4
62
12.000000
10
11.049418
20
-40.892185
30
142.466003
11
15.253710
21
-40.527218
31
142.466003
12
-3.093235
22
-40.527218
32
120.344254
13
-7.297526
23
-40.892185
33
120.344254
0
3DFACE
8
Tube1
62
13.000000
10
-3.093235
20
40.393318
30
120.344254
11
-7.297526
21
40.758270
31
120.344254
12
11.049418
22
40.758270
32
142.466003
13
15.253710
23
40.393318
33
142.466003
0
3DFACE
8
Nez
62
14.000000
10
7.817942
20
4.979882
30
132.444717
11
7.817942
21
10.359972
31
122.449577
12
16.893536
22
3.282900
32
127.006203
13
16.893536
23
1.599747
33
130.133179
0
3DFACE
8
Nez
62
14.000000
10
7.817942
20
10.359972
30
122.449577
11
7.817942
21
5.440908
31
112.151634
12
16.893536
22
1.743987
32
123.784492
13
16.893536
23
3.282900
33
127.006203
0
3DFACE
8
Nez
62
14.000000
10
7.817942
20
5.440908
30
112.151634
11
7.817942
21
-4.858215
31
111.848831
12
16.893536
22
-1.478096
32
123.689758
13
16.893536
23
1.743987
33
123.784492
0
3DFACE
8
Nez
62
14.000000
10
7.817942
20
-4.858215
30
111.848831
11
7.817942
21
-10.238305
31
121.843971
12
16.893536
22
-3.161249
32
126.816734
13
16.893536
23
-1.478096
33
123.689758
0
3DFACE
8
Nez
62
14.000000
10
7.817942
20
-10.238305
30
121.843971
11
7.817942
21
-5.319257
31
132.141922
12
16.893536
22
-1.622320
32
130.038437
13
16.893536
23
-3.161249
33
126.816734
0
3DFACE
8
Nez
62
14.000000
10
7.817942
20
-5.319257
30
132.141922
11
7.817942
21
4.979882
31
132.444717
12
16.893536
22
1.599747
32
130.133179
13
16.893536
23
-1.622320
33
130.038437
0
3DFACE
8
Nez
62
14.000000
10
16.893536
20
1.599747
30
130.133179
11
16.893536
21
3.282900
31
127.006203
12
16.893536
22
1.743987
32
123.784492
13
16.893536
23
1.743987
33
123.784492
0
3DFACE
8
Nez
62
14.000000
10
16.893536
20
1.599747
30
130.133179
11
16.893536
21
1.743987
31
123.784492
12
16.893536
22
-1.478096
32
123.689758
13
16.893536
23
-1.478096
33
123.689758
0
3DFACE
8
Nez
62
14.000000
10
16.893536
20
1.599747
30
130.133179
11
16.893536
21
-1.478096
31
123.689758
12
16.893536
22
-3.161249
32
126.816734
13
16.893536
23
-3.161249
33
126.816734
0
3DFACE
8
Nez
62
14.000000
10
16.893536
20
-3.161249
30
126.816734
11
16.893536
21
-1.622320
31
130.038437
12
16.893536
22
1.599747
32
130.133179
13
16.893536
23
1.599747
33
130.133179
0
3DFACE
8
Cabine
62
15.000000
10
-11.808029
20
4.074759
30
130.549881
11
-11.808029
21
8.464894
31
122.393875
12
7.817942
22
10.359972
32
122.449593
13
7.817942
23
4.979882
33
132.444717
0
3DFACE
8
Cabine
62
15.000000
10
-11.808029
20
8.464894
30
122.393875
11
-11.808029
21
4.450969
31
113.990776
12
7.817942
22
5.440908
32
112.151642
13
7.817942
23
10.359972
33
122.449593
0
3DFACE
8
Cabine
62
15.000000
10
-11.808029
20
4.450969
30
113.990776
11
-11.808029
21
-3.953108
31
113.743690
12
7.817942
22
-4.858215
32
111.848839
13
7.817942
23
5.440908
33
112.151642
0
3DFACE
8
Cabine
62
15.000000
10
-11.808029
20
-3.953108
30
113.743690
11
-11.808029
21
-8.343227
31
121.899689
12
7.817942
22
-10.238305
32
121.843971
13
7.817942
23
-4.858215
33
111.848839
0
3DFACE
8
Cabine
62
15.000000
10
-11.808029
20
-8.343227
30
121.899689
11
-11.808029
21
-4.329302
31
130.302795
12
7.817942
22
-5.319257
32
132.141937
13
7.817942
23
-10.238305
33
121.843971
0
3DFACE
8
Cabine
62
15.000000
10
-11.808029
20
-4.329302
30
130.302795
11
-11.808029
21
4.074759
31
130.549881
12
7.817942
22
4.979882
32
132.444717
13
7.817942
23
-5.319257
33
132.141937
0
3DFACE
8
Hel1
62
16.000000
10
16.124781
20
-2.381483
30
135.555161
11
15.959908
21
-2.047421
31
140.793701
12
17.331001
22
-0.343708
32
135.083694
13
16.729593
23
0.131182
33
127.903610
0
3DFACE
8
Hel2
62
17.000000
10
16.124781
20
2.643847
30
117.135124
11
16.861876
21
1.407820
31
112.472824
12
16.729593
22
0.131182
32
124.786674
13
16.729593
23
0.131182
33
124.786674
0
3DFACE
8
AileSupG
62
18.000000
10
24.789011
20
-20.566822
30
144.092484
11
23.612711
21
-53.020786
31
144.010056
12
20.878317
22
-56.347008
32
143.696732
13
20.878317
23
-56.347008
33
143.696732
0
3DFACE
8
AileSupG
62
18.000000
10
24.789011
20
-20.566822
30
144.092484
11
20.878317
21
-56.347008
31
143.696732
12
1.129934
22
-53.020786
32
143.394104
13
1.129934
23
-53.020786
33
143.394104
0
3DFACE
8
AileSupG
62
18.000000
10
24.789011
20
-20.566822
30
144.092484
11
1.129934
21
-53.020786
31
143.394104
12
-1.828357
22
-20.590168
32
143.335846
13
-1.828357
23
-20.590168
33
143.335846
0
3DFACE
8
AileSupD
62
19.000000
10
-1.828357
20
20.433180
30
143.335846
11
1.129934
21
52.863804
31
143.394104
12
17.149227
22
57.575951
32
143.723541
13
17.149227
23
57.575951
33
143.723541
0
3DFACE
8
AileSupD
62
19.000000
10
-1.828357
20
20.433180
30
143.335846
11
17.149227
21
57.575951
31
143.723541
12
23.612711
22
52.863804
32
144.010056
13
23.612711
23
52.863804
33
144.010056
0
3DFACE
8
AileSupD
62
19.000000
10
-1.828357
20
20.433180
30
143.335846
11
23.612711
21
52.863804
31
144.010056
12
24.907907
22
20.433180
32
144.068344
13
24.907907
23
20.433180
33
144.068344
0
3DFACE
8
AileSup
62
20.000000
10
4.674921
20
13.433179
30
143.431824
11
-1.828357
21
20.433180
31
143.335846
12
24.907907
22
20.433180
32
144.068344
13
24.907907
23
20.433180
33
144.068344
0
3DFACE
8
AileSup
62
20.000000
10
4.674921
20
13.433179
30
143.431824
11
24.907907
21
20.433180
31
144.068344
12
24.789011
22
-20.566822
32
144.092484
13
24.789011
23
-20.566822
33
144.092484
0
3DFACE
8
AileSup
62
20.000000
10
24.789011
20
-20.566822
30
144.092484
11
-1.828357
21
-20.590168
31
143.335846
12
2.578828
22
-14.566821
32
143.401794
13
2.578828
23
-14.566821
33
143.401794
0
3DFACE
8
AileSup
62
20.000000
10
2.578828
20
-14.566821
30
143.401794
11
4.674921
21
13.433179
31
143.431824
12
24.789011
22
-20.566822
32
144.092484
13
24.789011
23
-20.566822
33
144.092484
0
3DFACE
8
AileG2
62
21.000000
10
7.017469
20
-31.677561
30
118.953247
11
5.722275
21
-53.020786
31
118.894981
12
-0.993422
22
-57.732933
32
118.565552
13
-0.993422
23
-57.732933
33
118.565552
0
3DFACE
8
AileG2
62
21.000000
10
7.017469
20
-31.677561
30
118.953247
11
-0.993422
21
-57.732933
31
118.565552
12
-16.760498
22
-53.020786
32
118.279022
13
-16.760498
23
-53.020786
33
118.279022
0
3DFACE
8
AileG2
62
21.000000
10
7.017469
20
-31.677561
30
118.953247
11
-16.760498
21
-53.020786
31
118.279022
12
-19.718790
22
-31.677561
32
118.220757
13
-19.718790
23
-31.677561
33
118.220757
0
3DFACE
8
AileG1
62
22.000000
10
-19.718790
20
-31.677561
30
118.220757
11
-20.490297
21
-6.562481
31
120.136200
12
7.785765
22
-8.819433
32
118.944817
13
7.017469
23
-31.677561
33
118.953247
0
3DFACE
8
AileD2
62
23.000000
10
-19.718790
20
31.520569
30
118.220757
11
-16.760498
21
52.863796
31
118.279022
12
-0.741207
22
57.575939
32
118.608452
13
-0.741207
23
57.575939
33
118.608452
0
3DFACE
8
AileD2
62
23.000000
10
-19.718790
20
31.520569
30
118.220757
11
-0.741207
21
57.575939
31
118.608452
12
5.722275
22
52.863796
32
118.894981
13
5.722275
23
52.863796
33
118.894981
0
3DFACE
8
AileD2
62
23.000000
10
-19.718790
20
31.520569
30
118.220757
11
5.722275
21
52.863796
31
118.894981
12
7.017469
22
31.520569
32
118.953247
13
7.017469
23
31.520569
33
118.953247
0
3DFACE
8
AileD1
62
24.000000
10
-20.090298
20
7.405492
30
120.136200
11
-19.718790
21
31.520569
31
118.220757
12
7.017469
22
31.520569
32
118.953247
13
7.785765
23
8.662444
33
118.944817
0
ENDSEC
0
EOF
