0
SECTION
2
ENTITIES
0
3DFACE
8
Rotor
62
1.000000
10
3.005723
20
13.490196
30
21.263397
11
5.371749
21
13.490196
31
20.629421
12
4.737776
22
13.490196
32
22.995447
13
4.737776
23
13.490196
33
22.995447
0
3DFACE
8
Canon2
62
2.000000
10
10.971749
20
10.500003
30
23.900000
11
31.471750
21
10.500002
31
23.900000
12
31.471750
22
12.109810
32
23.570578
13
10.971749
23
12.109811
33
23.570578
0
3DFACE
8
Canon2
62
2.000000
10
10.971749
20
12.109811
30
23.570578
11
31.471750
21
12.109810
31
23.570578
12
31.471750
22
11.590195
32
25.129421
13
10.971749
23
11.590196
33
25.129421
0
3DFACE
8
Canon2
62
2.000000
10
10.971749
20
11.590196
30
25.129421
11
31.471750
21
11.590195
31
25.129421
12
31.471750
22
10.500002
32
23.900000
13
10.971749
23
10.500003
33
23.900000
0
3DFACE
8
Canon1
62
3.000000
10
10.971749
20
15.600002
30
23.900000
11
31.471750
21
15.600001
31
23.900000
12
31.471750
22
17.209808
32
23.570578
13
10.971749
23
17.209810
33
23.570578
0
3DFACE
8
Canon1
62
3.000000
10
10.971749
20
17.209810
30
23.570578
11
31.471750
21
17.209808
31
23.570578
12
31.471750
22
16.690193
32
25.129421
13
10.971749
23
16.690195
33
25.129421
0
3DFACE
8
Canon1
62
3.000000
10
10.971749
20
16.690195
30
25.129421
11
31.471750
21
16.690193
31
25.129421
12
31.471750
22
15.600001
32
23.900000
13
10.971749
23
15.600002
33
23.900000
0
3DFACE
8
Canon3
62
4.000000
10
10.971749
20
10.500003
30
19.500000
11
31.471750
21
10.500002
31
19.500000
12
31.471750
22
12.109810
32
19.170576
13
10.971749
23
12.109811
33
19.170576
0
3DFACE
8
Canon3
62
4.000000
10
10.971749
20
12.109811
30
19.170576
11
31.471750
21
12.109810
31
19.170576
12
31.471750
22
11.590195
32
20.729422
13
10.971749
23
11.590196
33
20.729422
0
3DFACE
8
Canon3
62
4.000000
10
10.971749
20
11.590196
30
20.729422
11
31.471750
21
11.590195
31
20.729422
12
31.471750
22
10.500002
32
19.500000
13
10.971749
23
10.500003
33
19.500000
0
3DFACE
8
Canon4
62
5.000000
10
10.971749
20
15.900002
30
19.500000
11
31.471750
21
15.900001
31
19.500000
12
31.471750
22
17.509809
32
19.170576
13
10.971749
23
17.509809
33
19.170576
0
3DFACE
8
Canon4
62
5.000000
10
10.971749
20
17.509809
30
19.170576
11
31.471750
21
17.509809
31
19.170576
12
31.471750
22
16.990194
32
20.729422
13
10.971749
23
16.990194
33
20.729422
0
3DFACE
8
Canon4
62
5.000000
10
10.971749
20
16.990194
30
20.729422
11
31.471750
21
16.990194
31
20.729422
12
31.471750
22
15.900001
32
19.500000
13
10.971749
23
15.900002
33
19.500000
0
3DFACE
8
Carlingue
62
6.000000
10
-23.013870
20
31.928299
30
1.303553
11
-28.134510
21
31.928299
31
-9.599999
12
23.478014
22
31.928297
32
-9.599999
13
18.199734
23
31.928297
33
1.303552
0
3DFACE
8
Carlingue
62
6.000000
10
-23.013870
20
30.210308
30
5.451053
11
-25.792080
21
29.079777
31
5.496815
12
-26.833138
22
30.210308
32
2.920628
13
-23.013870
23
31.928299
33
1.303553
0
3DFACE
8
Carlingue
62
6.000000
10
-23.013870
20
31.928299
30
1.303553
11
-26.833138
21
30.210308
31
2.920628
12
-32.282009
22
30.210306
32
-9.599999
13
-28.134510
23
31.928299
33
-9.599999
0
3DFACE
8
Carlingue
62
6.000000
10
23.478014
20
31.928297
30
-9.599999
11
27.625515
21
30.210302
31
-9.599999
12
22.002525
22
30.210308
32
2.959005
13
18.199734
23
31.928297
33
1.303552
0
3DFACE
8
Carlingue
62
6.000000
10
22.002525
20
30.210308
30
2.959005
11
20.959209
21
29.072416
31
5.514436
12
18.199734
22
30.210302
32
5.451052
13
18.199734
23
31.928297
33
1.303552
0
3DFACE
8
Carlingue
62
6.000000
10
18.199734
20
31.928297
30
1.303552
11
18.199734
21
30.210302
31
5.451052
12
-23.013870
22
30.210308
32
5.451053
13
-23.013870
23
31.928299
33
1.303553
0
3DFACE
8
Carlingue
62
6.000000
10
23.577732
20
26.062805
30
3.644734
11
29.343508
21
26.062805
31
-9.599999
12
29.343508
22
2.537197
32
-9.599999
13
23.577732
23
2.537197
33
3.644734
0
3DFACE
8
Carlingue
62
6.000000
10
21.414669
20
26.062805
30
6.209456
11
20.959209
21
29.072416
31
5.514436
12
22.002525
22
30.210308
32
2.959005
13
23.577732
23
26.062805
33
3.644734
0
3DFACE
8
Carlingue
62
6.000000
10
23.577732
20
26.062805
30
3.644734
11
22.002525
21
30.210308
31
2.959005
12
27.625515
22
30.210302
32
-9.599999
13
29.343508
23
26.062805
33
-9.599999
0
3DFACE
8
Carlingue
62
6.000000
10
29.343508
20
2.537197
30
-9.599999
11
27.625513
21
-1.610302
31
-9.599999
12
22.002525
22
-1.610303
32
2.959006
13
23.577732
23
2.537197
33
3.644734
0
3DFACE
8
Carlingue
62
6.000000
10
22.002525
20
-1.610303
30
2.959006
11
20.959209
21
-0.472414
31
5.514436
12
21.414669
22
2.537197
32
6.209456
13
23.577732
23
2.537197
33
3.644734
0
3DFACE
8
Carlingue
62
6.000000
10
23.577732
20
2.537197
30
3.644734
11
21.414669
21
2.537197
31
6.209456
12
21.414669
22
26.062805
32
6.209456
13
23.577732
23
26.062805
33
3.644734
0
3DFACE
8
Carlingue
62
6.000000
10
18.199734
20
-3.328295
30
1.303552
11
23.478014
21
-3.328296
31
-9.599999
12
-28.134510
22
-3.328294
32
-9.599999
13
-23.013870
23
-3.328294
33
1.303553
0
3DFACE
8
Carlingue
62
6.000000
10
18.199734
20
-1.610302
30
5.451052
11
20.959209
21
-0.472414
31
5.514436
12
22.002525
22
-1.610303
32
2.959006
13
18.199734
23
-3.328295
33
1.303552
0
3DFACE
8
Carlingue
62
6.000000
10
18.199734
20
-3.328295
30
1.303552
11
22.002525
21
-1.610303
31
2.959006
12
27.625513
22
-1.610302
32
-9.599999
13
23.478014
23
-3.328296
33
-9.599999
0
3DFACE
8
Carlingue
62
6.000000
10
-28.134510
20
-3.328294
30
-9.599999
11
-32.282009
21
-1.610300
31
-9.599999
12
-26.833138
22
-1.610301
32
2.920628
13
-23.013870
23
-3.328294
33
1.303553
0
3DFACE
8
Carlingue
62
6.000000
10
-26.833138
20
-1.610301
30
2.920628
11
-25.792080
21
-0.479772
31
5.496815
12
-23.013870
22
-1.610301
32
5.451053
13
-23.013870
23
-3.328294
33
1.303553
0
3DFACE
8
Carlingue
62
6.000000
10
-23.013870
20
-3.328294
30
1.303553
11
-23.013870
21
-1.610301
31
5.451053
12
18.199734
22
-1.610302
32
5.451052
13
18.199734
23
-3.328295
33
1.303552
0
3DFACE
8
Carlingue
62
6.000000
10
-28.415173
20
2.537199
30
3.590459
11
-34.000004
21
2.537199
31
-9.599999
12
-34.000004
22
26.062807
32
-9.599999
13
-28.415173
23
26.062807
33
3.590459
0
3DFACE
8
Carlingue
62
6.000000
10
-26.253469
20
2.537198
30
6.193208
11
-25.792080
21
-0.479772
31
5.496815
12
-26.833138
22
-1.610301
32
2.920628
13
-28.415173
23
2.537199
33
3.590459
0
3DFACE
8
Carlingue
62
6.000000
10
-28.415173
20
2.537199
30
3.590459
11
-26.833138
21
-1.610301
31
2.920628
12
-32.282009
22
-1.610300
32
-9.599999
13
-34.000004
23
2.537199
33
-9.599999
0
3DFACE
8
Carlingue
62
6.000000
10
-34.000004
20
26.062807
30
-9.599999
11
-32.282009
21
30.210306
31
-9.599999
12
-26.833138
22
30.210308
32
2.920628
13
-28.415173
23
26.062807
33
3.590459
0
3DFACE
8
Carlingue
62
6.000000
10
-26.833138
20
30.210308
30
2.920628
11
-25.792080
21
29.079777
31
5.496815
12
-26.253469
22
26.062809
32
6.193208
13
-28.415173
23
26.062807
33
3.590459
0
3DFACE
8
Carlingue
62
6.000000
10
-28.415173
20
26.062807
30
3.590459
11
-26.253469
21
26.062809
31
6.193208
12
-26.253469
22
2.537198
32
6.193208
13
-28.415173
23
2.537199
33
3.590459
0
3DFACE
8
Carlingue
62
6.000000
10
-23.013870
20
26.062807
30
7.169046
11
18.199734
21
26.062805
31
7.169045
12
18.199734
22
2.537197
32
7.169045
13
-23.013870
23
2.537199
33
7.169046
0
3DFACE
8
Carlingue
62
6.000000
10
-26.253469
20
26.062809
30
6.193208
11
-25.792080
21
29.079777
31
5.496815
12
-23.013870
22
30.210308
32
5.451053
13
-23.013870
23
26.062807
33
7.169046
0
3DFACE
8
Carlingue
62
6.000000
10
-23.013870
20
26.062807
30
7.169046
11
-23.013870
21
30.210308
31
5.451053
12
18.199734
22
30.210302
32
5.451052
13
18.199734
23
26.062805
33
7.169045
0
3DFACE
8
Carlingue
62
6.000000
10
18.199734
20
30.210302
30
5.451052
11
20.959209
21
29.072416
31
5.514436
12
21.414669
22
26.062805
32
6.209456
13
18.199734
23
26.062805
33
7.169045
0
3DFACE
8
Carlingue
62
6.000000
10
18.199734
20
26.062805
30
7.169045
11
21.414669
21
26.062805
31
6.209456
12
21.414669
22
2.537197
32
6.209456
13
18.199734
23
2.537197
33
7.169045
0
3DFACE
8
Carlingue
62
6.000000
10
21.414669
20
2.537197
30
6.209456
11
20.959209
21
-0.472414
31
5.514436
12
18.199734
22
-1.610302
32
5.451052
13
18.199734
23
2.537197
33
7.169045
0
3DFACE
8
Carlingue
62
6.000000
10
18.199734
20
2.537197
30
7.169045
11
18.199734
21
-1.610302
31
5.451052
12
-23.013870
22
-1.610301
32
5.451053
13
-23.013870
23
2.537199
33
7.169046
0
3DFACE
8
Carlingue
62
6.000000
10
-23.013870
20
-1.610301
30
5.451053
11
-25.792080
21
-0.479772
31
5.496815
12
-26.253469
22
2.537198
32
6.193208
13
-23.013870
23
2.537199
33
7.169046
0
3DFACE
8
Carlingue
62
6.000000
10
-23.013870
20
2.537199
30
7.169046
11
-26.253469
21
2.537198
31
6.193208
12
-26.253469
22
26.062809
32
6.193208
13
-23.013870
23
26.062807
33
7.169046
0
3DFACE
8
ChenilleD
62
7.000000
10
-33.000000
20
38.928299
30
-11.599999
11
-30.000000
21
38.928299
31
-15.599999
12
26.000000
22
38.928299
32
-15.599999
13
28.000000
23
38.928299
33
-11.599999
0
3DFACE
8
ChenilleD
62
7.000000
10
24.000000
20
38.928299
30
-3.599999
11
28.000000
21
38.928299
31
-11.599999
12
28.000000
22
31.928299
32
-11.599999
13
24.000000
23
31.928299
33
-3.599999
0
3DFACE
8
ChenilleD
62
7.000000
10
28.000000
20
38.928299
30
-11.599999
11
26.000000
21
38.928299
31
-15.599999
12
26.000000
22
31.928299
32
-15.599999
13
28.000000
23
31.928299
33
-11.599999
0
3DFACE
8
ChenilleD
62
7.000000
10
-30.000000
20
38.928299
30
-15.599999
11
-33.000000
21
38.928299
31
-11.599999
12
-33.000000
22
31.928299
32
-11.599999
13
-30.000000
23
31.928299
33
-15.599999
0
3DFACE
8
ChenilleD
62
7.000000
10
-33.000000
20
38.928299
30
-11.599999
11
-29.000002
21
38.928299
31
-3.599999
12
-29.000002
22
31.928299
32
-3.599999
13
-33.000000
23
31.928299
33
-11.599999
0
3DFACE
8
ChenilleD
62
7.000000
10
-29.000002
20
38.928299
30
-3.599999
11
24.000000
21
38.928299
31
-3.599999
12
24.000000
22
31.928299
32
-3.599999
13
-29.000002
23
31.928299
33
-3.599999
0
3DFACE
8
ChenilleD
62
7.000000
10
-33.000000
20
38.928299
30
-11.599999
11
28.000000
21
38.928299
31
-11.599999
12
24.000000
22
38.928299
32
-3.599999
13
-29.000002
23
38.928299
33
-3.599999
0
3DFACE
8
ChenilleG
62
8.000000
10
28.000000
20
-10.071699
30
-11.599999
11
26.000000
21
-10.071699
31
-15.599999
12
-30.000000
22
-10.071699
32
-15.599999
13
-33.000000
23
-10.071699
33
-11.599999
0
3DFACE
8
ChenilleG
62
8.000000
10
24.000000
20
-3.071700
30
-3.599999
11
28.000000
21
-3.071700
31
-11.599999
12
28.000000
22
-10.071699
32
-11.599999
13
24.000000
23
-10.071699
33
-3.599999
0
3DFACE
8
ChenilleG
62
8.000000
10
28.000000
20
-3.071700
30
-11.599999
11
26.000000
21
-3.071700
31
-15.599999
12
26.000000
22
-10.071699
32
-15.599999
13
28.000000
23
-10.071699
33
-11.599999
0
3DFACE
8
ChenilleG
62
8.000000
10
-30.000000
20
-3.071700
30
-15.599999
11
-33.000000
21
-3.071700
31
-11.599999
12
-33.000000
22
-10.071699
32
-11.599999
13
-30.000000
23
-10.071699
33
-15.599999
0
3DFACE
8
ChenilleG
62
8.000000
10
-33.000000
20
-3.071700
30
-11.599999
11
-29.000002
21
-3.071700
31
-3.599999
12
-29.000002
22
-10.071699
32
-3.599999
13
-33.000000
23
-10.071699
33
-11.599999
0
3DFACE
8
ChenilleG
62
8.000000
10
-29.000002
20
-3.071700
30
-3.599999
11
24.000000
21
-3.071700
31
-3.599999
12
24.000000
22
-10.071699
32
-3.599999
13
-29.000002
23
-10.071699
33
-3.599999
0
3DFACE
8
ChenilleG
62
8.000000
10
-29.000002
20
-10.071699
30
-3.599999
11
24.000000
21
-10.071699
31
-3.599999
12
28.000000
22
-10.071699
32
-11.599999
13
-33.000000
23
-10.071699
33
-11.599999
0
3DFACE
8
Tourelle
62
9.000000
10
-4.620366
20
22.126209
30
25.448298
11
-6.365328
21
25.762413
31
11.488748
12
11.403852
22
25.614222
32
11.488742
13
7.708957
23
22.275105
33
27.941856
0
3DFACE
8
Tourelle
62
9.000000
10
-5.015386
20
20.971884
30
27.246166
11
-6.505405
21
20.490789
31
26.852278
12
-6.856860
22
21.137417
32
25.504616
13
-4.620366
23
22.126209
33
25.448298
0
3DFACE
8
Tourelle
62
9.000000
10
-4.620366
20
22.126209
30
25.448298
11
-6.856860
21
21.137417
31
25.504616
12
-8.601810
22
24.773615
32
11.545062
13
-6.365328
23
25.762413
33
11.488748
0
3DFACE
8
Tourelle
62
9.000000
10
-8.601810
20
24.773615
30
11.545062
11
-8.449713
21
24.626961
31
9.370624
12
-6.353303
22
25.127533
32
8.708069
13
-6.365328
23
25.762413
33
11.488748
0
3DFACE
8
Tourelle
62
9.000000
10
-6.365328
20
25.762413
30
11.488748
11
-6.353303
21
25.127533
31
8.708069
12
11.415873
22
24.979342
32
8.708065
13
11.403852
23
25.614222
33
11.488742
0
3DFACE
8
Tourelle
62
9.000000
10
11.415873
20
24.979342
30
8.708065
11
13.596443
21
24.580940
31
9.513885
12
13.656069
22
24.641682
32
11.768524
13
11.403852
23
25.614222
33
11.488742
0
3DFACE
8
Tourelle
62
9.000000
10
11.403852
20
25.614222
30
11.488742
11
13.656069
21
24.641682
31
11.768524
12
9.961123
22
21.302542
32
28.221622
13
7.708957
23
22.275105
33
27.941856
0
3DFACE
8
Tourelle
62
9.000000
10
9.961123
20
21.302542
30
28.221622
11
9.094232
21
20.772112
31
29.691996
12
7.313904
22
21.120785
32
29.739727
13
7.708957
23
22.275105
33
27.941856
0
3DFACE
8
Tourelle
62
9.000000
10
7.708957
20
22.275105
30
27.941856
11
7.313904
21
21.120785
31
29.739727
12
-5.015386
22
20.971884
32
27.246166
13
-4.620366
23
22.126209
33
25.448298
0
3DFACE
8
Tourelle
62
9.000000
10
10.976802
20
19.070860
30
27.931095
11
14.671780
21
22.409975
31
11.477990
12
14.671780
22
5.209644
32
11.477990
13
10.976802
23
8.548762
33
27.931095
0
3DFACE
8
Tourelle
62
9.000000
10
9.557648
20
19.070860
30
29.969051
11
9.094232
21
20.772112
31
29.691996
12
9.961123
22
21.302542
32
28.221622
13
10.976802
23
19.070860
33
27.931095
0
3DFACE
8
Tourelle
62
9.000000
10
10.976802
20
19.070860
30
27.931095
11
9.961123
21
21.302542
31
28.221622
12
13.656069
22
24.641682
32
11.768524
13
14.671780
23
22.409975
33
11.477990
0
3DFACE
8
Tourelle
62
9.000000
10
13.656069
20
24.641682
30
11.768524
11
13.596443
21
24.580940
31
9.513885
12
14.030912
22
22.409977
32
8.703758
13
14.671780
23
22.409975
33
11.477990
0
3DFACE
8
Tourelle
62
9.000000
10
14.671780
20
22.409975
30
11.477990
11
14.030912
21
22.409977
31
8.703758
12
14.030912
22
5.209644
32
8.703758
13
14.671780
23
5.209644
33
11.477990
0
3DFACE
8
Tourelle
62
9.000000
10
14.030912
20
5.209644
30
8.703758
11
13.596443
21
3.038680
31
9.513885
12
13.656085
22
2.977948
32
11.768518
13
14.671780
23
5.209644
33
11.477990
0
3DFACE
8
Tourelle
62
9.000000
10
14.671780
20
5.209644
30
11.477990
11
13.656085
21
2.977948
31
11.768518
12
9.961105
22
6.317065
32
28.221624
13
10.976802
23
8.548762
33
27.931095
0
3DFACE
8
Tourelle
62
9.000000
10
9.961105
20
6.317065
30
28.221624
11
9.094232
21
6.847510
31
29.691996
12
9.557644
22
8.548762
32
29.969053
13
10.976802
23
8.548762
33
27.931095
0
3DFACE
8
Tourelle
62
9.000000
10
10.976802
20
8.548762
30
27.931095
11
9.557644
21
8.548762
31
29.969053
12
9.557648
22
19.070860
32
29.969051
13
10.976802
23
19.070860
33
27.931095
0
3DFACE
8
Tourelle
62
9.000000
10
7.708910
20
5.344514
30
27.941849
11
11.403891
21
2.005398
31
11.488742
12
-6.365279
22
1.857204
32
11.488741
13
-4.620330
23
5.493412
33
25.448296
0
3DFACE
8
Tourelle
62
9.000000
10
7.313873
20
6.498837
30
29.739721
11
9.094232
21
6.847510
31
29.691996
12
9.961105
22
6.317065
32
28.221624
13
7.708910
23
5.344514
33
27.941849
0
3DFACE
8
Tourelle
62
9.000000
10
7.708910
20
5.344514
30
27.941849
11
9.961105
21
6.317065
31
28.221624
12
13.656085
22
2.977948
32
11.768518
13
11.403891
23
2.005398
33
11.488742
0
3DFACE
8
Tourelle
62
9.000000
10
13.656085
20
2.977948
30
11.768518
11
13.596443
21
3.038680
31
9.513885
12
11.415904
22
2.640278
32
8.708065
13
11.403891
23
2.005398
33
11.488742
0
3DFACE
8
Tourelle
62
9.000000
10
11.403891
20
2.005398
30
11.488742
11
11.415904
21
2.640278
31
8.708065
12
-6.353264
22
2.492085
32
8.708065
13
-6.365279
23
1.857204
33
11.488741
0
3DFACE
8
Tourelle
62
9.000000
10
-6.353264
20
2.492085
30
8.708065
11
-8.449712
21
2.992657
31
9.370624
12
-8.601793
22
2.845985
32
11.545061
13
-6.365279
23
1.857204
33
11.488741
0
3DFACE
8
Tourelle
62
9.000000
10
-6.365279
20
1.857204
30
11.488741
11
-8.601793
21
2.845985
31
11.545061
12
-6.856848
22
6.482192
32
25.504618
13
-4.620330
23
5.493412
33
25.448296
0
3DFACE
8
Tourelle
62
9.000000
10
-6.856848
20
6.482192
30
25.504618
11
-6.505406
21
7.128834
31
26.852278
12
-5.015358
22
6.647733
32
27.246168
13
-4.620330
23
5.493412
33
25.448296
0
3DFACE
8
Tourelle
62
9.000000
10
-4.620330
20
5.493412
30
25.448296
11
-5.015358
21
6.647733
31
27.246168
12
7.313873
22
6.498837
32
29.739721
13
7.708910
23
5.344514
33
27.941849
0
3DFACE
8
Tourelle
62
9.000000
10
-7.821449
20
8.697660
30
25.124990
11
-9.566393
21
5.061451
31
11.165436
12
-9.566393
22
22.558167
32
11.165437
13
-7.821448
23
18.921963
33
25.124992
0
3DFACE
8
Tourelle
62
9.000000
10
-6.969772
20
8.697660
30
26.952599
11
-6.505406
21
7.128834
31
26.852278
12
-6.856848
22
6.482192
32
25.504618
13
-7.821449
23
8.697660
33
25.124990
0
3DFACE
8
Tourelle
62
9.000000
10
-7.821449
20
8.697660
30
25.124990
11
-6.856848
21
6.482192
31
25.504618
12
-8.601793
22
2.845985
32
11.545061
13
-9.566393
23
5.061451
33
11.165436
0
3DFACE
8
Tourelle
62
9.000000
10
-8.601793
20
2.845985
30
11.545061
11
-8.449712
21
2.992657
31
9.370624
12
-8.768914
22
5.061451
32
8.582298
13
-9.566393
23
5.061451
33
11.165436
0
3DFACE
8
Tourelle
62
9.000000
10
-9.566393
20
5.061451
30
11.165436
11
-8.768914
21
5.061451
31
8.582298
12
-8.768915
22
22.558167
32
8.582298
13
-9.566393
23
22.558167
33
11.165437
0
3DFACE
8
Tourelle
62
9.000000
10
-8.768915
20
22.558167
30
8.582298
11
-8.449713
21
24.626961
31
9.370624
12
-8.601810
22
24.773615
32
11.545062
13
-9.566393
23
22.558167
33
11.165437
0
3DFACE
8
Tourelle
62
9.000000
10
-9.566393
20
22.558167
30
11.165437
11
-8.601810
21
24.773615
31
11.545062
12
-6.856860
22
21.137417
32
25.504616
13
-7.821448
23
18.921963
33
25.124992
0
3DFACE
8
Tourelle
62
9.000000
10
-6.856860
20
21.137417
30
25.504616
11
-6.505405
21
20.490789
31
26.852278
12
-6.969773
22
18.921963
32
26.952597
13
-7.821448
23
18.921963
33
25.124992
0
3DFACE
8
Tourelle
62
9.000000
10
-7.821448
20
18.921963
30
25.124992
11
-6.969773
21
18.921963
31
26.952597
12
-6.969772
22
8.697660
32
26.952599
13
-7.821449
23
8.697660
33
25.124990
0
3DFACE
8
Tourelle
62
9.000000
10
-5.211318
20
18.921963
30
27.939173
11
7.117920
21
19.070860
31
30.432726
12
7.117918
22
8.548762
32
30.432726
13
-5.211310
23
8.697660
33
27.939173
0
3DFACE
8
Tourelle
62
9.000000
10
-6.969773
20
18.921963
30
26.952597
11
-6.505405
21
20.490789
31
26.852278
12
-5.015386
22
20.971884
32
27.246166
13
-5.211318
23
18.921963
33
27.939173
0
3DFACE
8
Tourelle
62
9.000000
10
-5.211318
20
18.921963
30
27.939173
11
-5.015386
21
20.971884
31
27.246166
12
7.313904
22
21.120785
32
29.739727
13
7.117920
23
19.070860
33
30.432726
0
3DFACE
8
Tourelle
62
9.000000
10
7.313904
20
21.120785
30
29.739727
11
9.094232
21
20.772112
31
29.691996
12
9.557648
22
19.070860
32
29.969051
13
7.117920
23
19.070860
33
30.432726
0
3DFACE
8
Tourelle
62
9.000000
10
7.117920
20
19.070860
30
30.432726
11
9.557648
21
19.070860
31
29.969051
12
9.557644
22
8.548762
32
29.969053
13
7.117918
23
8.548762
33
30.432726
0
3DFACE
8
Tourelle
62
9.000000
10
9.557644
20
8.548762
30
29.969053
11
9.094232
21
6.847510
31
29.691996
12
7.313873
22
6.498837
32
29.739721
13
7.117918
23
8.548762
33
30.432726
0
3DFACE
8
Tourelle
62
9.000000
10
7.117918
20
8.548762
30
30.432726
11
7.313873
21
6.498837
31
29.739721
12
-5.015358
22
6.647733
32
27.246168
13
-5.211310
23
8.697660
33
27.939173
0
3DFACE
8
Tourelle
62
9.000000
10
-5.015358
20
6.647733
30
27.246168
11
-6.505406
21
7.128834
31
26.852278
12
-6.969772
22
8.697660
32
26.952599
13
-5.211310
23
8.697660
33
27.939173
0
3DFACE
8
Tourelle
62
9.000000
10
-5.211310
20
8.697660
30
27.939173
11
-6.969772
21
8.697660
31
26.952599
12
-6.969773
22
18.921963
32
26.952597
13
-5.211318
23
18.921963
33
27.939173
0
3DFACE
8
Tourelle
62
9.000000
10
-8.768914
20
5.061451
30
8.582298
11
-8.449712
21
2.992657
31
9.370624
12
-6.353264
22
2.492085
32
8.708065
13
-6.304639
23
5.061451
33
7.470578
0
3DFACE
8
Tourelle
62
9.000000
10
-6.304639
20
5.061451
30
7.470578
11
-6.353264
21
2.492085
31
8.708065
12
11.415904
22
2.640278
32
8.708065
13
11.464526
23
5.209644
33
7.470578
0
3DFACE
8
Tourelle
62
9.000000
10
11.415904
20
2.640278
30
8.708065
11
13.596443
21
3.038680
31
9.513885
12
14.030912
22
5.209644
32
8.703758
13
11.464526
23
5.209644
33
7.470578
0
3DFACE
8
Tourelle
62
9.000000
10
11.464526
20
5.209644
30
7.470578
11
14.030912
21
5.209644
31
8.703758
12
14.030912
22
22.409977
32
8.703758
13
11.464526
23
22.409975
33
7.470578
0
3DFACE
8
Tourelle
62
9.000000
10
14.030912
20
22.409977
30
8.703758
11
13.596443
21
24.580940
31
9.513885
12
11.415873
22
24.979342
32
8.708065
13
11.464526
23
22.409975
33
7.470578
0
3DFACE
8
Tourelle
62
9.000000
10
11.464526
20
22.409975
30
7.470578
11
11.415873
21
24.979342
31
8.708065
12
-6.353303
22
25.127533
32
8.708069
13
-6.304639
23
22.558167
33
7.470578
0
3DFACE
8
Tourelle
62
9.000000
10
-6.353303
20
25.127533
30
8.708069
11
-8.449713
21
24.626961
31
9.370624
12
-8.768915
22
22.558167
32
8.582298
13
-6.304639
23
22.558167
33
7.470578
0
3DFACE
8
Tourelle
62
9.000000
10
-6.304639
20
22.558167
30
7.470578
11
-8.768915
21
22.558167
31
8.582298
12
-8.768914
22
5.061451
32
8.582298
13
-6.304639
23
5.061451
33
7.470578
0
ENDSEC
0
EOF
