0
SECTION
2
ENTITIES
0
3DFACE
8
ContreFort5
62
1.000000
10
77.233330
20
-63.767410
30
65.013344
11
75.582634
21
-73.805435
31
0.000000
12
67.291634
22
-54.437336
32
0.000000
13
67.291634
23
-54.437336
33
0.000000
0
3DFACE
8
Nef
62
2.000000
10
-104.055603
20
-54.800667
30
0.000000
11
-106.500000
21
-64.130737
31
93.280022
12
105.500008
22
-64.130737
32
93.280022
13
103.219299
23
-54.800667
33
0.000000
0
3DFACE
8
Nef
62
2.000000
10
103.219299
20
-54.800667
30
0.000000
11
105.500008
21
-64.130737
31
93.280022
12
105.500008
22
65.895943
32
93.280022
13
103.219299
23
56.565868
33
0.000000
0
3DFACE
8
Nef
62
2.000000
10
-104.055603
20
56.565868
30
0.000000
11
103.219299
21
56.565868
31
0.000000
12
105.500008
22
65.895943
32
93.280022
13
-106.500000
23
65.895943
33
93.280022
0
3DFACE
8
Nef
62
2.000000
10
-38.659996
20
-64.130737
30
93.280022
11
-38.245239
21
0.697259
31
123.694946
12
77.233337
22
0.882603
32
124.373352
13
105.500008
23
-64.130737
33
93.280022
0
3DFACE
8
Nef
62
2.000000
10
105.500008
20
-64.130737
30
93.280022
11
77.233337
21
0.882603
31
124.373352
12
105.500008
22
65.895943
32
93.280022
13
105.500008
23
65.895943
33
93.280022
0
3DFACE
8
Nef
62
2.000000
10
105.500008
20
65.895943
30
93.280022
11
77.233337
21
0.882603
31
124.373352
12
-38.245239
22
0.697259
32
123.694946
13
-38.659996
23
65.895950
33
93.280022
0
3DFACE
8
Clocher
62
3.000000
10
-38.840729
20
-31.230448
30
109.674683
11
-103.410339
21
-31.230448
31
109.448555
12
-103.255363
22
-36.013294
32
211.208740
13
-41.904678
23
-36.013294
33
211.208740
0
3DFACE
8
Clocher
62
3.000000
10
-103.410339
20
30.168999
30
109.448555
11
-38.840729
21
30.168999
31
109.674683
12
-41.904678
22
34.951836
32
211.208740
13
-103.255363
23
34.951836
33
211.208740
0
3DFACE
8
Clocher
62
3.000000
10
-36.096375
20
0.697259
30
124.373352
11
-38.840729
21
-31.230448
31
109.674683
12
-41.904678
22
-36.013294
32
211.208740
13
-41.904678
23
-36.013294
33
211.208740
0
3DFACE
8
Clocher
62
3.000000
10
-36.096375
20
0.697259
30
124.373352
11
-41.904678
21
-36.013294
31
211.208740
12
-41.904678
22
34.951836
32
211.208740
13
-41.904678
23
34.951836
33
211.208740
0
3DFACE
8
Clocher
62
3.000000
10
-36.096375
20
0.697259
30
124.373352
11
-41.904678
21
34.951836
31
211.208740
12
-38.840729
22
30.168999
32
109.674683
13
-38.840729
23
30.168999
33
109.674683
0
3DFACE
8
Clocher
62
3.000000
10
-38.659996
20
65.895950
30
93.280022
11
-38.840729
21
30.168999
31
109.674683
12
-103.410339
22
30.168999
32
109.448555
13
-106.500000
23
65.895943
33
93.280022
0
3DFACE
8
Clocher
62
3.000000
10
-106.500000
20
-64.130737
30
93.280022
11
-103.410339
21
-31.230448
31
109.448555
12
-38.840729
22
-31.230448
32
109.674683
13
-38.659996
23
-64.130737
33
93.280022
0
3DFACE
8
Clocher
62
3.000000
10
-104.055603
20
56.565868
30
0.000000
11
-106.500000
21
65.895943
31
93.280022
12
-103.410339
22
30.168999
32
109.448555
13
-103.410339
23
30.168999
33
109.448555
0
3DFACE
8
Clocher
62
3.000000
10
-103.410339
20
30.168999
30
109.448555
11
-103.255363
21
34.951836
31
211.208740
12
-103.255363
22
-36.013294
32
211.208740
13
-103.255363
23
-36.013294
33
211.208740
0
3DFACE
8
Clocher
62
3.000000
10
-103.410339
20
30.168999
30
109.448555
11
-103.255363
21
-36.013294
31
211.208740
12
-103.410339
22
-31.230448
32
109.448555
13
-103.410339
23
-31.230448
33
109.448555
0
3DFACE
8
Clocher
62
3.000000
10
-103.410339
20
30.168999
30
109.448555
11
-103.410339
21
-31.230448
31
109.448555
12
-106.500000
22
-64.130737
32
93.280022
13
-106.500000
23
-64.130737
33
93.280022
0
3DFACE
8
Clocher
62
3.000000
10
-103.410339
20
30.168999
30
109.448555
11
-106.500000
21
-64.130737
31
93.280022
12
-104.055603
22
-54.800667
32
0.000000
13
-104.055603
23
-54.800667
33
0.000000
0
3DFACE
8
Clocher
62
3.000000
10
-103.410339
20
30.168999
30
109.448555
11
-104.055603
21
-54.800667
31
0.000000
12
-104.055603
22
56.565868
32
0.000000
13
-104.055603
23
56.565868
33
0.000000
0
3DFACE
8
Clocher
62
3.000000
10
-103.255363
20
-36.013294
30
211.208740
11
-66.700546
21
5.207405
31
283.938904
12
-41.904678
22
-36.013294
32
211.208740
13
-41.904678
23
-36.013294
33
211.208740
0
3DFACE
8
Clocher
62
3.000000
10
-41.904678
20
-36.013294
30
211.208740
11
-66.700546
21
5.207405
31
283.938904
12
-41.904678
22
34.951836
32
211.208740
13
-41.904678
23
34.951836
33
211.208740
0
3DFACE
8
Clocher
62
3.000000
10
-41.904678
20
34.951836
30
211.208740
11
-66.700546
21
5.207405
31
283.938904
12
-103.255363
22
34.951836
32
211.208740
13
-103.255363
23
34.951836
33
211.208740
0
3DFACE
8
Clocher
62
3.000000
10
-103.255363
20
34.951836
30
211.208740
11
-66.700546
21
5.207405
31
283.938904
12
-103.255363
22
-36.013294
32
211.208740
13
-103.255363
23
-36.013294
33
211.208740
0
3DFACE
8
ContreFort6
62
4.000000
10
20.309324
20
-54.437336
30
0.000000
11
29.179993
21
-63.767410
31
65.013344
12
28.600325
22
-73.805435
32
0.000000
13
28.600325
23
-73.805435
33
0.000000
0
3DFACE
8
ContreFort3
62
5.000000
10
-21.700014
20
65.895950
30
65.013344
11
-29.436653
21
56.565872
31
0.000000
12
-21.145657
22
75.933968
32
0.000000
13
-21.145657
23
75.933968
33
0.000000
0
3DFACE
8
ContreFort2
62
6.000000
10
28.600325
20
75.933968
30
0.000000
11
29.179993
21
65.895950
31
65.013344
12
20.309324
22
56.565872
32
0.000000
13
20.309324
23
56.565872
33
0.000000
0
3DFACE
8
ContreFort7
62
7.000000
10
-21.145657
20
-73.805435
30
0.000000
11
-29.436653
21
-54.437336
31
0.000000
12
-21.700014
22
-63.767410
32
65.013344
13
-21.700014
23
-63.767410
33
65.013344
0
3DFACE
8
ContreFort4
62
8.000000
10
-84.709961
20
56.565872
30
0.000000
11
-76.418961
21
75.933968
31
0.000000
12
-78.233360
22
65.895950
32
65.013344
13
-78.233360
23
65.895950
33
65.013344
0
3DFACE
8
ContreFort1
62
9.000000
10
67.291634
20
56.565872
30
0.000000
11
75.582634
21
75.933968
31
0.000000
12
77.233330
22
65.895950
32
65.013344
13
77.233330
23
65.895950
33
65.013344
0
3DFACE
8
ContreFort8
62
10.000000
10
-78.233360
20
-63.767410
30
65.013344
11
-76.418961
21
-73.805435
31
0.000000
12
-84.709961
22
-54.437336
32
0.000000
13
-84.709961
23
-54.437336
33
0.000000
0
ENDSEC
0
EOF
