0
SECTION
2
ENTITIES
0
3DFACE
8
VoletG
62
1.000000
10
-67.411034
20
-3.013915
30
16.236719
11
-63.311039
21
-3.013915
31
16.736719
12
-62.811039
22
-16.013914
32
16.736719
13
-65.311035
23
-16.213915
33
16.236719
0
3DFACE
8
VoletG
62
1.000000
10
-63.311039
20
-3.013915
30
15.736718
11
-67.411034
21
-3.013915
31
16.236719
12
-65.311035
22
-16.213915
32
16.236719
13
-62.811039
23
-16.213915
33
15.736718
0
3DFACE
8
VoletG
62
1.000000
10
-63.311039
20
-3.013915
30
16.736719
11
-67.411034
21
-3.013915
31
16.236719
12
-63.311039
22
-3.013915
32
15.736718
13
-63.311039
23
-3.013915
33
15.736718
0
3DFACE
8
VoletG
62
1.000000
10
-62.811039
20
-16.013914
30
16.736719
11
-62.811039
21
-16.213915
31
15.736718
12
-65.311035
22
-16.213915
32
16.236719
13
-65.311035
23
-16.213915
33
16.236719
0
3DFACE
8
VoletD
62
2.000000
10
-65.311035
20
17.373722
30
16.236719
11
-62.811039
21
17.173721
31
16.736719
12
-63.311039
22
4.173722
32
16.736719
13
-67.411034
23
4.173722
33
16.236719
0
3DFACE
8
VoletD
62
2.000000
10
-62.811039
20
17.373722
30
15.736718
11
-65.311035
21
17.373722
31
16.236719
12
-67.411034
22
4.173722
32
16.236719
13
-63.311039
23
4.173722
33
15.736718
0
3DFACE
8
VoletD
62
2.000000
10
-63.311039
20
4.173722
30
15.736718
11
-67.411034
21
4.173722
31
16.236719
12
-63.311039
22
4.173722
32
16.736719
13
-63.311039
23
4.173722
33
16.736719
0
3DFACE
8
VoletD
62
2.000000
10
-65.311035
20
17.373722
30
16.236719
11
-62.811039
21
17.373722
31
15.736718
12
-62.811039
22
17.173721
32
16.736719
13
-62.811039
23
17.173721
33
16.736719
0
3DFACE
8
EssieuD
62
3.000000
10
-34.062584
20
-20.583710
30
1.848740
11
-34.426388
21
-19.993710
31
1.610702
12
-31.794428
22
-19.993710
32
3.241908
13
-31.573572
23
-20.583710
33
3.391350
0
3DFACE
8
EssieuD
62
3.000000
10
-31.573572
20
-20.583710
30
3.391350
11
-31.794428
21
-19.993710
31
3.241908
12
-32.924084
22
-19.993710
32
12.002626
13
-32.641876
23
-20.583710
33
11.676248
0
3DFACE
8
EssieuD
62
3.000000
10
-32.641876
20
-20.583710
30
11.676248
11
-32.924084
21
-19.993710
31
12.002626
12
-22.532152
22
-19.993710
32
12.253405
13
-22.814362
23
-20.583710
33
11.913404
0
3DFACE
8
EssieuD
62
3.000000
10
-22.814362
20
-20.583710
30
11.913404
11
-22.532152
21
-19.993710
31
12.253405
12
-23.910242
22
-19.993710
32
3.363781
13
-24.117603
23
-20.583710
33
3.506604
0
3DFACE
8
EssieuD
62
3.000000
10
-24.117603
20
-20.583710
30
3.506604
11
-23.910242
21
-19.993710
31
3.363781
12
-21.029848
22
-19.993710
32
1.734917
13
-21.393652
23
-20.583710
33
1.966209
0
3DFACE
8
EssieuD
62
3.000000
10
-21.393652
20
-20.583710
30
1.966209
11
-21.029848
21
-19.993710
31
1.734917
12
-20.654858
22
-19.993710
32
-0.266595
13
-21.039028
23
-20.583710
33
0.073404
0
3DFACE
8
EssieuD
62
3.000000
10
-21.039028
20
-20.583710
30
0.073404
11
-20.654858
21
-19.993710
31
-0.266595
12
-34.801376
22
-19.993710
32
-0.266595
13
-34.417206
23
-20.583710
33
0.073404
0
3DFACE
8
EssieuD
62
3.000000
10
-34.417206
20
-20.583710
30
0.073404
11
-34.801376
21
-19.993710
31
-0.266595
12
-34.426388
22
-19.993710
32
1.610702
13
-34.062584
23
-20.583710
33
1.848740
0
3DFACE
8
EssieuD
62
3.000000
10
-31.573572
20
-20.583710
30
3.391350
11
-32.641876
21
-20.583710
31
11.676248
12
-22.814362
22
-20.583710
32
11.913404
13
-22.814362
23
-20.583710
33
11.913404
0
3DFACE
8
EssieuD
62
3.000000
10
-31.573572
20
-20.583710
30
3.391350
11
-22.814362
21
-20.583710
31
11.913404
12
-24.117603
22
-20.583710
32
3.506604
13
-24.117603
23
-20.583710
33
3.506604
0
3DFACE
8
EssieuD
62
3.000000
10
-31.573572
20
-20.583710
30
3.391350
11
-24.117603
21
-20.583710
31
3.506604
12
-21.393652
22
-20.583710
32
1.966209
13
-21.393652
23
-20.583710
33
1.966209
0
3DFACE
8
EssieuD
62
3.000000
10
-31.573572
20
-20.583710
30
3.391350
11
-21.393652
21
-20.583710
31
1.966209
12
-21.039028
22
-20.583710
32
0.073404
13
-21.039028
23
-20.583710
33
0.073404
0
3DFACE
8
EssieuD
62
3.000000
10
-31.573572
20
-20.583710
30
3.391350
11
-21.039028
21
-20.583710
31
0.073404
12
-34.417206
22
-20.583710
32
0.073404
13
-34.417206
23
-20.583710
33
0.073404
0
3DFACE
8
EssieuD
62
3.000000
10
-31.573572
20
-20.583710
30
3.391350
11
-34.417206
21
-20.583710
31
0.073404
12
-34.062584
22
-20.583710
32
1.848740
13
-34.062584
23
-20.583710
33
1.848740
0
3DFACE
8
EssieuD
62
3.000000
10
-34.801376
20
-19.993710
30
-0.266595
11
-20.654858
21
-19.993710
31
-0.266595
12
-21.029848
22
-19.993710
32
1.734917
13
-21.029848
23
-19.993710
33
1.734917
0
3DFACE
8
EssieuD
62
3.000000
10
-34.801376
20
-19.993710
30
-0.266595
11
-21.029848
21
-19.993710
31
1.734917
12
-23.910242
22
-19.993710
32
3.363781
13
-23.910242
23
-19.993710
33
3.363781
0
3DFACE
8
EssieuD
62
3.000000
10
-34.801376
20
-19.993710
30
-0.266595
11
-23.910242
21
-19.993710
31
3.363781
12
-22.532152
22
-19.993710
32
12.253405
13
-22.532152
23
-19.993710
33
12.253405
0
3DFACE
8
EssieuD
62
3.000000
10
-22.532152
20
-19.993710
30
12.253405
11
-32.924084
21
-19.993710
31
12.002626
12
-31.794428
22
-19.993710
32
3.241908
13
-31.794428
23
-19.993710
33
3.241908
0
3DFACE
8
EssieuD
62
3.000000
10
-31.794428
20
-19.993710
30
3.241908
11
-34.426388
21
-19.993710
31
1.610702
12
-34.801376
22
-19.993710
32
-0.266595
13
-34.801376
23
-19.993710
33
-0.266595
0
3DFACE
8
EssieuD
62
3.000000
10
-31.794428
20
-19.993710
30
3.241908
11
-34.801376
21
-19.993710
31
-0.266595
12
-22.532152
22
-19.993710
32
12.253405
13
-22.532152
23
-19.993710
33
12.253405
0
3DFACE
8
RoueD
62
4.000000
10
-29.434664
20
-18.283712
30
-2.937561
11
-29.431089
21
-19.633713
31
-2.927578
12
-26.163774
22
-19.633713
32
-2.940949
13
-26.160295
23
-18.283712
33
-2.950961
0
3DFACE
8
RoueD
62
4.000000
10
-26.160295
20
-18.283712
30
-2.950961
11
-26.163774
21
-19.633713
31
-2.940949
12
-23.652277
22
-19.633713
32
-0.851004
13
-23.643373
23
-18.283712
33
-0.856503
0
3DFACE
8
RoueD
62
4.000000
10
-23.643373
20
-18.283712
30
-0.856503
11
-23.652277
21
-19.633713
31
-0.851004
12
-23.071747
22
-19.633713
32
2.364347
13
-23.061588
23
-18.283712
33
2.365793
0
3DFACE
8
RoueD
62
4.000000
10
-23.061588
20
-18.283712
30
2.365793
11
-23.071747
21
-19.633713
31
2.364347
12
-24.693825
22
-19.633713
32
5.200607
13
-24.687168
23
-18.283712
33
5.208179
0
3DFACE
8
RoueD
62
4.000000
10
-24.687168
20
-18.283712
30
5.208179
11
-24.693825
21
-19.633713
31
5.200607
12
-27.759521
22
-19.633713
32
6.330657
13
-27.759485
23
-18.283712
33
6.340670
0
3DFACE
8
RoueD
62
4.000000
10
-27.759485
20
-18.283712
30
6.340670
11
-27.759521
21
-19.633713
31
6.330657
12
-30.834362
22
-19.633713
32
5.225735
13
-30.840969
23
-18.283712
33
5.233360
0
3DFACE
8
RoueD
62
4.000000
10
-30.840969
20
-18.283712
30
5.233360
11
-30.834362
21
-19.633713
31
5.225735
12
-32.479595
22
-19.633713
32
2.402844
13
-32.489754
23
-18.283712
33
2.404373
0
3DFACE
8
RoueD
62
4.000000
10
-32.489754
20
-18.283712
30
2.404373
11
-32.479595
21
-19.633713
31
2.402844
12
-31.925400
22
-19.633713
32
-0.817148
13
-31.934362
23
-18.283712
33
-0.822573
0
3DFACE
8
RoueD
62
4.000000
10
-31.934362
20
-18.283712
30
-0.822573
11
-31.925400
21
-19.633713
31
-0.817148
12
-29.431089
22
-19.633713
32
-2.927578
13
-29.434664
23
-18.283712
33
-2.937561
0
3DFACE
8
RoueD
62
4.000000
10
-31.925400
20
-19.633713
30
-0.817148
11
-32.479595
21
-19.633713
31
2.402844
12
-30.834362
22
-19.633713
32
5.225735
13
-30.834362
23
-19.633713
33
5.225735
0
3DFACE
8
RoueD
62
4.000000
10
-31.925400
20
-19.633713
30
-0.817148
11
-30.834362
21
-19.633713
31
5.225735
12
-27.759521
22
-19.633713
32
6.330657
13
-27.759521
23
-19.633713
33
6.330657
0
3DFACE
8
RoueD
62
4.000000
10
-31.925400
20
-19.633713
30
-0.817148
11
-27.759521
21
-19.633713
31
6.330657
12
-24.693825
22
-19.633713
32
5.200607
13
-24.693825
23
-19.633713
33
5.200607
0
3DFACE
8
RoueD
62
4.000000
10
-31.925400
20
-19.633713
30
-0.817148
11
-24.693825
21
-19.633713
31
5.200607
12
-23.071747
22
-19.633713
32
2.364347
13
-23.071747
23
-19.633713
33
2.364347
0
3DFACE
8
RoueD
62
4.000000
10
-31.925400
20
-19.633713
30
-0.817148
11
-23.071747
21
-19.633713
31
2.364347
12
-23.652277
22
-19.633713
32
-0.851004
13
-23.652277
23
-19.633713
33
-0.851004
0
3DFACE
8
RoueD
62
4.000000
10
-31.925400
20
-19.633713
30
-0.817148
11
-23.652277
21
-19.633713
31
-0.851004
12
-26.163774
22
-19.633713
32
-2.940949
13
-26.163774
23
-19.633713
33
-2.940949
0
3DFACE
8
RoueD
62
4.000000
10
-31.925400
20
-19.633713
30
-0.817148
11
-26.163774
21
-19.633713
31
-2.940949
12
-29.431089
22
-19.633713
32
-2.927578
13
-29.431089
23
-19.633713
33
-2.927578
0
3DFACE
8
RoueD
62
4.000000
10
-29.434664
20
-18.283712
30
-2.937561
11
-26.160295
21
-18.283712
31
-2.950961
12
-23.643373
22
-18.283712
32
-0.856503
13
-23.643373
23
-18.283712
33
-0.856503
0
3DFACE
8
RoueD
62
4.000000
10
-29.434664
20
-18.283712
30
-2.937561
11
-23.643373
21
-18.283712
31
-0.856503
12
-23.061588
22
-18.283712
32
2.365793
13
-23.061588
23
-18.283712
33
2.365793
0
3DFACE
8
RoueD
62
4.000000
10
-29.434664
20
-18.283712
30
-2.937561
11
-23.061588
21
-18.283712
31
2.365793
12
-24.687168
22
-18.283712
32
5.208179
13
-24.687168
23
-18.283712
33
5.208179
0
3DFACE
8
RoueD
62
4.000000
10
-29.434664
20
-18.283712
30
-2.937561
11
-24.687168
21
-18.283712
31
5.208179
12
-27.759485
22
-18.283712
32
6.340670
13
-27.759485
23
-18.283712
33
6.340670
0
3DFACE
8
RoueD
62
4.000000
10
-29.434664
20
-18.283712
30
-2.937561
11
-27.759485
21
-18.283712
31
6.340670
12
-30.840969
22
-18.283712
32
5.233360
13
-30.840969
23
-18.283712
33
5.233360
0
3DFACE
8
RoueD
62
4.000000
10
-29.434664
20
-18.283712
30
-2.937561
11
-30.840969
21
-18.283712
31
5.233360
12
-32.489754
22
-18.283712
32
2.404373
13
-32.489754
23
-18.283712
33
2.404373
0
3DFACE
8
RoueD
62
4.000000
10
-29.434664
20
-18.283712
30
-2.937561
11
-32.489754
21
-18.283712
31
2.404373
12
-31.934362
22
-18.283712
32
-0.822573
13
-31.934362
23
-18.283712
33
-0.822573
0
3DFACE
8
EssieuG
62
5.000000
10
-31.573572
20
20.116285
30
3.391350
11
-31.794428
21
19.526285
31
3.241908
12
-34.426388
22
19.526285
32
1.610702
13
-34.062584
23
20.116285
33
1.848740
0
3DFACE
8
EssieuG
62
5.000000
10
-32.641876
20
20.116285
30
11.676248
11
-32.924084
21
19.526285
31
12.002626
12
-31.794428
22
19.526285
32
3.241908
13
-31.573572
23
20.116285
33
3.391350
0
3DFACE
8
EssieuG
62
5.000000
10
-22.814362
20
20.116285
30
11.913404
11
-22.532152
21
19.526285
31
12.253405
12
-32.924084
22
19.526285
32
12.002626
13
-32.641876
23
20.116285
33
11.676248
0
3DFACE
8
EssieuG
62
5.000000
10
-24.117603
20
20.116285
30
3.506604
11
-23.910242
21
19.526285
31
3.363781
12
-22.532152
22
19.526285
32
12.253405
13
-22.814362
23
20.116285
33
11.913404
0
3DFACE
8
EssieuG
62
5.000000
10
-21.393652
20
20.116285
30
1.966209
11
-21.029848
21
19.526285
31
1.734917
12
-23.910242
22
19.526285
32
3.363781
13
-24.117603
23
20.116285
33
3.506604
0
3DFACE
8
EssieuG
62
5.000000
10
-21.039028
20
20.116285
30
0.073404
11
-20.654858
21
19.526285
31
-0.266595
12
-21.029848
22
19.526285
32
1.734917
13
-21.393652
23
20.116285
33
1.966209
0
3DFACE
8
EssieuG
62
5.000000
10
-34.417206
20
20.116285
30
0.073404
11
-34.801376
21
19.526285
31
-0.266595
12
-20.654858
22
19.526285
32
-0.266595
13
-21.039028
23
20.116285
33
0.073404
0
3DFACE
8
EssieuG
62
5.000000
10
-34.062584
20
20.116285
30
1.848740
11
-34.426388
21
19.526285
31
1.610702
12
-34.801376
22
19.526285
32
-0.266595
13
-34.417206
23
20.116285
33
0.073404
0
3DFACE
8
EssieuG
62
5.000000
10
-34.417206
20
20.116285
30
0.073404
11
-21.039028
21
20.116285
31
0.073404
12
-21.393652
22
20.116285
32
1.966209
13
-21.393652
23
20.116285
33
1.966209
0
3DFACE
8
EssieuG
62
5.000000
10
-34.417206
20
20.116285
30
0.073404
11
-21.393652
21
20.116285
31
1.966209
12
-24.117603
22
20.116285
32
3.506604
13
-24.117603
23
20.116285
33
3.506604
0
3DFACE
8
EssieuG
62
5.000000
10
-34.417206
20
20.116285
30
0.073404
11
-24.117603
21
20.116285
31
3.506604
12
-22.814362
22
20.116285
32
11.913404
13
-22.814362
23
20.116285
33
11.913404
0
3DFACE
8
EssieuG
62
5.000000
10
-22.814362
20
20.116285
30
11.913404
11
-32.641876
21
20.116285
31
11.676248
12
-31.573572
22
20.116285
32
3.391350
13
-31.573572
23
20.116285
33
3.391350
0
3DFACE
8
EssieuG
62
5.000000
10
-31.573572
20
20.116285
30
3.391350
11
-34.062584
21
20.116285
31
1.848740
12
-34.417206
22
20.116285
32
0.073404
13
-34.417206
23
20.116285
33
0.073404
0
3DFACE
8
EssieuG
62
5.000000
10
-31.573572
20
20.116285
30
3.391350
11
-34.417206
21
20.116285
31
0.073404
12
-22.814362
22
20.116285
32
11.913404
13
-22.814362
23
20.116285
33
11.913404
0
3DFACE
8
EssieuG
62
5.000000
10
-31.794428
20
19.526285
30
3.241908
11
-32.924084
21
19.526285
31
12.002626
12
-22.532152
22
19.526285
32
12.253405
13
-22.532152
23
19.526285
33
12.253405
0
3DFACE
8
EssieuG
62
5.000000
10
-31.794428
20
19.526285
30
3.241908
11
-22.532152
21
19.526285
31
12.253405
12
-23.910242
22
19.526285
32
3.363781
13
-23.910242
23
19.526285
33
3.363781
0
3DFACE
8
EssieuG
62
5.000000
10
-31.794428
20
19.526285
30
3.241908
11
-23.910242
21
19.526285
31
3.363781
12
-21.029848
22
19.526285
32
1.734917
13
-21.029848
23
19.526285
33
1.734917
0
3DFACE
8
EssieuG
62
5.000000
10
-31.794428
20
19.526285
30
3.241908
11
-21.029848
21
19.526285
31
1.734917
12
-20.654858
22
19.526285
32
-0.266595
13
-20.654858
23
19.526285
33
-0.266595
0
3DFACE
8
EssieuG
62
5.000000
10
-31.794428
20
19.526285
30
3.241908
11
-20.654858
21
19.526285
31
-0.266595
12
-34.801376
22
19.526285
32
-0.266595
13
-34.801376
23
19.526285
33
-0.266595
0
3DFACE
8
EssieuG
62
5.000000
10
-31.794428
20
19.526285
30
3.241908
11
-34.801376
21
19.526285
31
-0.266595
12
-34.426388
22
19.526285
32
1.610702
13
-34.426388
23
19.526285
33
1.610702
0
3DFACE
8
RoueG
62
6.000000
10
-26.160295
20
17.816286
30
-2.950961
11
-26.163774
21
19.166288
31
-2.940949
12
-29.431089
22
19.166288
32
-2.927578
13
-29.434664
23
17.816286
33
-2.937561
0
3DFACE
8
RoueG
62
6.000000
10
-23.643373
20
17.816286
30
-0.856503
11
-23.652277
21
19.166288
31
-0.851004
12
-26.163774
22
19.166288
32
-2.940949
13
-26.160295
23
17.816286
33
-2.950961
0
3DFACE
8
RoueG
62
6.000000
10
-23.061588
20
17.816286
30
2.365793
11
-23.071747
21
19.166288
31
2.364347
12
-23.652277
22
19.166288
32
-0.851004
13
-23.643373
23
17.816286
33
-0.856503
0
3DFACE
8
RoueG
62
6.000000
10
-24.687168
20
17.816286
30
5.208179
11
-24.693825
21
19.166288
31
5.200607
12
-23.071747
22
19.166288
32
2.364347
13
-23.061588
23
17.816286
33
2.365793
0
3DFACE
8
RoueG
62
6.000000
10
-27.759485
20
17.816286
30
6.340670
11
-27.759521
21
19.166288
31
6.330657
12
-24.693825
22
19.166288
32
5.200607
13
-24.687168
23
17.816286
33
5.208179
0
3DFACE
8
RoueG
62
6.000000
10
-30.840969
20
17.816286
30
5.233360
11
-30.834362
21
19.166288
31
5.225735
12
-27.759521
22
19.166288
32
6.330657
13
-27.759485
23
17.816286
33
6.340670
0
3DFACE
8
RoueG
62
6.000000
10
-32.489754
20
17.816286
30
2.404373
11
-32.479595
21
19.166288
31
2.402844
12
-30.834362
22
19.166288
32
5.225735
13
-30.840969
23
17.816286
33
5.233360
0
3DFACE
8
RoueG
62
6.000000
10
-31.934362
20
17.816286
30
-0.822573
11
-31.925400
21
19.166288
31
-0.817148
12
-32.479595
22
19.166288
32
2.402844
13
-32.489754
23
17.816286
33
2.404373
0
3DFACE
8
RoueG
62
6.000000
10
-29.434664
20
17.816286
30
-2.937561
11
-29.431089
21
19.166288
31
-2.927578
12
-31.925400
22
19.166288
32
-0.817148
13
-31.934362
23
17.816286
33
-0.822573
0
3DFACE
8
RoueG
62
6.000000
10
-29.431089
20
19.166288
30
-2.927578
11
-26.163774
21
19.166288
31
-2.940949
12
-23.652277
22
19.166288
32
-0.851004
13
-23.652277
23
19.166288
33
-0.851004
0
3DFACE
8
RoueG
62
6.000000
10
-29.431089
20
19.166288
30
-2.927578
11
-23.652277
21
19.166288
31
-0.851004
12
-23.071747
22
19.166288
32
2.364347
13
-23.071747
23
19.166288
33
2.364347
0
3DFACE
8
RoueG
62
6.000000
10
-29.431089
20
19.166288
30
-2.927578
11
-23.071747
21
19.166288
31
2.364347
12
-24.693825
22
19.166288
32
5.200607
13
-24.693825
23
19.166288
33
5.200607
0
3DFACE
8
RoueG
62
6.000000
10
-29.431089
20
19.166288
30
-2.927578
11
-24.693825
21
19.166288
31
5.200607
12
-27.759521
22
19.166288
32
6.330657
13
-27.759521
23
19.166288
33
6.330657
0
3DFACE
8
RoueG
62
6.000000
10
-29.431089
20
19.166288
30
-2.927578
11
-27.759521
21
19.166288
31
6.330657
12
-30.834362
22
19.166288
32
5.225735
13
-30.834362
23
19.166288
33
5.225735
0
3DFACE
8
RoueG
62
6.000000
10
-29.431089
20
19.166288
30
-2.927578
11
-30.834362
21
19.166288
31
5.225735
12
-32.479595
22
19.166288
32
2.402844
13
-32.479595
23
19.166288
33
2.402844
0
3DFACE
8
RoueG
62
6.000000
10
-29.431089
20
19.166288
30
-2.927578
11
-32.479595
21
19.166288
31
2.402844
12
-31.925400
22
19.166288
32
-0.817148
13
-31.925400
23
19.166288
33
-0.817148
0
3DFACE
8
RoueG
62
6.000000
10
-31.934362
20
17.816286
30
-0.822573
11
-32.489754
21
17.816286
31
2.404373
12
-30.840969
22
17.816286
32
5.233360
13
-30.840969
23
17.816286
33
5.233360
0
3DFACE
8
RoueG
62
6.000000
10
-31.934362
20
17.816286
30
-0.822573
11
-30.840969
21
17.816286
31
5.233360
12
-27.759485
22
17.816286
32
6.340670
13
-27.759485
23
17.816286
33
6.340670
0
3DFACE
8
RoueG
62
6.000000
10
-31.934362
20
17.816286
30
-0.822573
11
-27.759485
21
17.816286
31
6.340670
12
-24.687168
22
17.816286
32
5.208179
13
-24.687168
23
17.816286
33
5.208179
0
3DFACE
8
RoueG
62
6.000000
10
-31.934362
20
17.816286
30
-0.822573
11
-24.687168
21
17.816286
31
5.208179
12
-23.061588
22
17.816286
32
2.365793
13
-23.061588
23
17.816286
33
2.365793
0
3DFACE
8
RoueG
62
6.000000
10
-31.934362
20
17.816286
30
-0.822573
11
-23.061588
21
17.816286
31
2.365793
12
-23.643373
22
17.816286
32
-0.856503
13
-23.643373
23
17.816286
33
-0.856503
0
3DFACE
8
RoueG
62
6.000000
10
-31.934362
20
17.816286
30
-0.822573
11
-23.643373
21
17.816286
31
-0.856503
12
-26.160295
22
17.816286
32
-2.950961
13
-26.160295
23
17.816286
33
-2.950961
0
3DFACE
8
RoueG
62
6.000000
10
-31.934362
20
17.816286
30
-0.822573
11
-26.160295
21
17.816286
31
-2.950961
12
-29.434664
22
17.816286
32
-2.937561
13
-29.434664
23
17.816286
33
-2.937561
0
3DFACE
8
Canon3
62
7.000000
10
-18.459158
20
11.444121
30
13.157797
11
-18.914555
21
12.155910
31
13.839347
12
-13.688445
22
12.156331
32
13.984248
13
-13.688445
23
11.446622
33
13.166951
0
3DFACE
8
Canon3
62
7.000000
10
-18.914555
20
12.155910
30
13.839347
11
-18.679186
21
13.155439
31
13.487092
12
-13.688445
22
13.152939
32
13.561834
13
-13.688445
23
12.156331
33
13.984248
0
3DFACE
8
Canon3
62
7.000000
10
-18.679186
20
13.155439
30
13.487092
11
-18.078325
21
13.061394
31
12.587838
12
-13.688445
22
13.059167
32
12.483472
13
-13.688445
23
13.152939
33
13.561834
0
3DFACE
8
Canon3
62
7.000000
10
-18.078325
20
13.061394
30
12.587838
11
-17.942339
21
12.003741
31
12.384321
12
-13.688445
22
12.004606
32
12.239421
13
-13.688445
23
13.059167
33
12.483472
0
3DFACE
8
Canon3
62
7.000000
10
-17.942339
20
12.003741
30
12.384321
11
-18.459158
21
11.444121
31
13.157797
12
-13.688445
22
11.446622
32
13.166951
13
-13.688445
23
12.004606
33
12.239421
0
3DFACE
8
Canon3
62
7.000000
10
-13.688445
20
11.446622
30
13.166951
11
-13.688445
21
12.156331
31
13.984248
12
-13.328444
22
12.226306
32
13.558681
13
-13.328444
23
11.862797
33
13.140065
0
3DFACE
8
Canon3
62
7.000000
10
-13.688445
20
12.156331
30
13.984248
11
-13.688445
21
13.152939
31
13.561834
12
-13.328444
22
12.736763
32
13.342321
13
-13.328444
23
12.226306
33
13.558681
0
3DFACE
8
Canon3
62
7.000000
10
-13.688445
20
13.152939
30
13.561834
11
-13.688445
21
13.059167
31
12.483472
12
-13.328444
22
12.688734
32
12.789990
13
-13.328444
23
12.736763
33
13.342321
0
3DFACE
8
Canon3
62
7.000000
10
-13.688445
20
13.059167
30
12.483472
11
-13.688445
21
12.004606
31
12.239421
12
-13.328444
22
12.148594
32
12.664989
13
-13.328444
23
12.688734
33
12.789990
0
3DFACE
8
Canon3
62
7.000000
10
-13.688445
20
12.004606
30
12.239421
11
-13.688445
21
11.446622
31
13.166951
12
-13.328444
22
11.862797
32
13.140065
13
-13.328444
23
12.148594
33
12.664989
0
3DFACE
8
Canon3
62
7.000000
10
-13.328444
20
11.862797
30
13.140065
11
-13.328444
21
12.226306
31
13.558681
12
-13.328444
22
12.736763
32
13.342321
13
-13.328444
23
12.736763
33
13.342321
0
3DFACE
8
Canon3
62
7.000000
10
-13.328444
20
11.862797
30
13.140065
11
-13.328444
21
12.736763
31
13.342321
12
-13.328444
22
12.688734
32
12.789990
13
-13.328444
23
12.688734
33
12.789990
0
3DFACE
8
Canon3
62
7.000000
10
-13.328444
20
11.862797
30
13.140065
11
-13.328444
21
12.688734
31
12.789990
12
-13.328444
22
12.148594
32
12.664989
13
-13.328444
23
12.148594
33
12.664989
0
3DFACE
8
Canon4
62
8.000000
10
-19.019157
20
13.924121
30
13.157797
11
-19.474554
21
14.635910
31
13.839347
12
-14.248446
22
14.636331
32
13.984248
13
-14.248446
23
13.926621
33
13.166951
0
3DFACE
8
Canon4
62
8.000000
10
-19.474554
20
14.635910
30
13.839347
11
-19.239183
21
15.635439
31
13.487092
12
-14.248446
22
15.632938
32
13.561834
13
-14.248446
23
14.636331
33
13.984248
0
3DFACE
8
Canon4
62
8.000000
10
-19.239183
20
15.635439
30
13.487092
11
-18.638323
21
15.541393
31
12.587838
12
-14.248446
22
15.539166
32
12.483472
13
-14.248446
23
15.632938
33
13.561834
0
3DFACE
8
Canon4
62
8.000000
10
-18.638323
20
15.541393
30
12.587838
11
-18.502338
21
14.483741
31
12.384321
12
-14.248446
22
14.484606
32
12.239421
13
-14.248446
23
15.539166
33
12.483472
0
3DFACE
8
Canon4
62
8.000000
10
-18.502338
20
14.483741
30
12.384321
11
-19.019157
21
13.924121
31
13.157797
12
-14.248446
22
13.926621
32
13.166951
13
-14.248446
23
14.484606
33
12.239421
0
3DFACE
8
Canon4
62
8.000000
10
-14.248446
20
13.926621
30
13.166951
11
-14.248446
21
14.636331
31
13.984248
12
-13.888444
22
14.706306
32
13.558681
13
-13.888444
23
14.342797
33
13.140065
0
3DFACE
8
Canon4
62
8.000000
10
-14.248446
20
14.636331
30
13.984248
11
-14.248446
21
15.632938
31
13.561834
12
-13.888444
22
15.216763
32
13.342321
13
-13.888444
23
14.706306
33
13.558681
0
3DFACE
8
Canon4
62
8.000000
10
-14.248446
20
15.632938
30
13.561834
11
-14.248446
21
15.539166
31
12.483472
12
-13.888444
22
15.168734
32
12.789990
13
-13.888444
23
15.216763
33
13.342321
0
3DFACE
8
Canon4
62
8.000000
10
-14.248446
20
15.539166
30
12.483472
11
-14.248446
21
14.484606
31
12.239421
12
-13.888444
22
14.628593
32
12.664989
13
-13.888444
23
15.168734
33
12.789990
0
3DFACE
8
Canon4
62
8.000000
10
-14.248446
20
14.484606
30
12.239421
11
-14.248446
21
13.926621
31
13.166951
12
-13.888444
22
14.342797
32
13.140065
13
-13.888444
23
14.628593
33
12.664989
0
3DFACE
8
Canon4
62
8.000000
10
-13.888444
20
14.342797
30
13.140065
11
-13.888444
21
14.706306
31
13.558681
12
-13.888444
22
15.216763
32
13.342321
13
-13.888444
23
15.216763
33
13.342321
0
3DFACE
8
Canon4
62
8.000000
10
-13.888444
20
14.342797
30
13.140065
11
-13.888444
21
15.216763
31
13.342321
12
-13.888444
22
15.168734
32
12.789990
13
-13.888444
23
15.168734
33
12.789990
0
3DFACE
8
Canon4
62
8.000000
10
-13.888444
20
14.342797
30
13.140065
11
-13.888444
21
15.168734
31
12.789990
12
-13.888444
22
14.628593
32
12.664989
13
-13.888444
23
14.628593
33
12.664989
0
3DFACE
8
Canon2
62
9.000000
10
-13.688445
20
-9.938381
30
13.166951
11
-13.688445
21
-10.648089
31
13.984248
12
-18.914555
22
-10.647669
32
13.839347
13
-18.459158
23
-9.935880
33
13.157797
0
3DFACE
8
Canon2
62
9.000000
10
-13.688445
20
-10.648089
30
13.984248
11
-13.688445
21
-11.644697
31
13.561834
12
-18.679186
22
-11.647198
32
13.487092
13
-18.914555
23
-10.647669
33
13.839347
0
3DFACE
8
Canon2
62
9.000000
10
-13.688445
20
-11.644697
30
13.561834
11
-13.688445
21
-11.550926
31
12.483472
12
-18.078325
22
-11.553152
32
12.587838
13
-18.679186
23
-11.647198
33
13.487092
0
3DFACE
8
Canon2
62
9.000000
10
-13.688445
20
-11.550926
30
12.483472
11
-13.688445
21
-10.496366
31
12.239421
12
-17.942339
22
-10.495500
32
12.384321
13
-18.078325
23
-11.553152
33
12.587838
0
3DFACE
8
Canon2
62
9.000000
10
-13.688445
20
-10.496366
30
12.239421
11
-13.688445
21
-9.938381
31
13.166951
12
-18.459158
22
-9.935880
32
13.157797
13
-17.942339
23
-10.495500
33
12.384321
0
3DFACE
8
Canon2
62
9.000000
10
-13.328444
20
-10.354556
30
13.140065
11
-13.328444
21
-10.718064
31
13.558681
12
-13.688445
22
-10.648089
32
13.984248
13
-13.688445
23
-9.938381
33
13.166951
0
3DFACE
8
Canon2
62
9.000000
10
-13.328444
20
-10.718064
30
13.558681
11
-13.328444
21
-11.228522
31
13.342321
12
-13.688445
22
-11.644697
32
13.561834
13
-13.688445
23
-10.648089
33
13.984248
0
3DFACE
8
Canon2
62
9.000000
10
-13.328444
20
-11.228522
30
13.342321
11
-13.328444
21
-11.180493
31
12.789990
12
-13.688445
22
-11.550926
32
12.483472
13
-13.688445
23
-11.644697
33
13.561834
0
3DFACE
8
Canon2
62
9.000000
10
-13.328444
20
-11.180493
30
12.789990
11
-13.328444
21
-10.640352
31
12.664989
12
-13.688445
22
-10.496366
32
12.239421
13
-13.688445
23
-11.550926
33
12.483472
0
3DFACE
8
Canon2
62
9.000000
10
-13.328444
20
-10.640352
30
12.664989
11
-13.328444
21
-10.354556
31
13.140065
12
-13.688445
22
-9.938381
32
13.166951
13
-13.688445
23
-10.496366
33
12.239421
0
3DFACE
8
Canon2
62
9.000000
10
-13.328444
20
-10.640352
30
12.664989
11
-13.328444
21
-11.180493
31
12.789990
12
-13.328444
22
-11.228522
32
13.342321
13
-13.328444
23
-11.228522
33
13.342321
0
3DFACE
8
Canon2
62
9.000000
10
-13.328444
20
-10.640352
30
12.664989
11
-13.328444
21
-11.228522
31
13.342321
12
-13.328444
22
-10.718064
32
13.558681
13
-13.328444
23
-10.718064
33
13.558681
0
3DFACE
8
Canon2
62
9.000000
10
-13.328444
20
-10.640352
30
12.664989
11
-13.328444
21
-10.718064
31
13.558681
12
-13.328444
22
-10.354556
32
13.140065
13
-13.328444
23
-10.354556
33
13.140065
0
3DFACE
8
Canon1
62
10.000000
10
-14.248446
20
-12.418381
30
13.166951
11
-14.248446
21
-13.128089
31
13.984248
12
-19.474554
22
-13.127668
32
13.839347
13
-19.019157
23
-12.415880
33
13.157797
0
3DFACE
8
Canon1
62
10.000000
10
-14.248446
20
-13.128089
30
13.984248
11
-14.248446
21
-14.124697
31
13.561834
12
-19.239183
22
-14.127198
32
13.487092
13
-19.474554
23
-13.127668
33
13.839347
0
3DFACE
8
Canon1
62
10.000000
10
-14.248446
20
-14.124697
30
13.561834
11
-14.248446
21
-14.030926
31
12.483472
12
-18.638323
22
-14.033153
32
12.587838
13
-19.239183
23
-14.127198
33
13.487092
0
3DFACE
8
Canon1
62
10.000000
10
-14.248446
20
-14.030926
30
12.483472
11
-14.248446
21
-12.976365
31
12.239421
12
-18.502338
22
-12.975500
32
12.384321
13
-18.638323
23
-14.033153
33
12.587838
0
3DFACE
8
Canon1
62
10.000000
10
-14.248446
20
-12.976365
30
12.239421
11
-14.248446
21
-12.418381
31
13.166951
12
-19.019157
22
-12.415880
32
13.157797
13
-18.502338
23
-12.975500
33
12.384321
0
3DFACE
8
Canon1
62
10.000000
10
-13.888444
20
-12.834556
30
13.140065
11
-13.888444
21
-13.198065
31
13.558681
12
-14.248446
22
-13.128089
32
13.984248
13
-14.248446
23
-12.418381
33
13.166951
0
3DFACE
8
Canon1
62
10.000000
10
-13.888444
20
-13.198065
30
13.558681
11
-13.888444
21
-13.708522
31
13.342321
12
-14.248446
22
-14.124697
32
13.561834
13
-14.248446
23
-13.128089
33
13.984248
0
3DFACE
8
Canon1
62
10.000000
10
-13.888444
20
-13.708522
30
13.342321
11
-13.888444
21
-13.660493
31
12.789990
12
-14.248446
22
-14.030926
32
12.483472
13
-14.248446
23
-14.124697
33
13.561834
0
3DFACE
8
Canon1
62
10.000000
10
-13.888444
20
-13.660493
30
12.789990
11
-13.888444
21
-13.120352
31
12.664989
12
-14.248446
22
-12.976365
32
12.239421
13
-14.248446
23
-14.030926
33
12.483472
0
3DFACE
8
Canon1
62
10.000000
10
-13.888444
20
-13.120352
30
12.664989
11
-13.888444
21
-12.834556
31
13.140065
12
-14.248446
22
-12.418381
32
13.166951
13
-14.248446
23
-12.976365
33
12.239421
0
3DFACE
8
Canon1
62
10.000000
10
-13.888444
20
-13.120352
30
12.664989
11
-13.888444
21
-13.660493
31
12.789990
12
-13.888444
22
-13.708522
32
13.342321
13
-13.888444
23
-13.708522
33
13.342321
0
3DFACE
8
Canon1
62
10.000000
10
-13.888444
20
-13.120352
30
12.664989
11
-13.888444
21
-13.708522
31
13.342321
12
-13.888444
22
-13.198065
32
13.558681
13
-13.888444
23
-13.198065
33
13.558681
0
3DFACE
8
Canon1
62
10.000000
10
-13.888444
20
-13.120352
30
12.664989
11
-13.888444
21
-13.198065
31
13.558681
12
-13.888444
22
-12.834556
32
13.140065
13
-13.888444
23
-12.834556
33
13.140065
0
3DFACE
8
HBomb3
62
11.000000
10
-38.936527
20
-3.067463
30
6.052116
11
-38.936527
21
-3.067463
31
6.052116
12
-35.491379
22
-0.911197
32
6.052116
13
-35.491379
23
-1.542753
33
7.576824
0
3DFACE
8
HBomb3
62
11.000000
10
-35.491379
20
-1.542753
30
7.576824
11
-35.491379
21
-0.911197
31
6.052116
12
-27.174091
22
-0.018045
32
6.052116
13
-27.174091
23
-0.911198
33
8.208381
0
3DFACE
8
HBomb3
62
11.000000
10
-27.174091
20
-0.911198
30
8.208381
11
-27.174091
21
-0.018045
31
6.052116
12
-18.856804
22
-0.911198
32
6.052116
13
-18.856804
23
-1.542754
33
7.576830
0
3DFACE
8
HBomb3
62
11.000000
10
-18.856804
20
-1.542754
30
7.576830
11
-18.856804
21
-0.911198
31
6.052116
12
-15.411655
22
-3.067462
32
6.052116
13
-15.411655
23
-3.067462
33
6.052116
0
3DFACE
8
HBomb3
62
11.000000
10
-38.936527
20
-3.067463
30
6.052116
11
-38.936527
21
-3.067463
31
6.052116
12
-35.491379
22
-1.542753
32
7.576824
13
-35.491379
23
-3.067463
33
8.208381
0
3DFACE
8
HBomb3
62
11.000000
10
-35.491379
20
-3.067463
30
8.208381
11
-35.491379
21
-1.542753
31
7.576824
12
-27.174091
22
-0.911198
32
8.208381
13
-27.174091
23
-3.067462
33
9.101537
0
3DFACE
8
HBomb3
62
11.000000
10
-27.174091
20
-3.067462
30
9.101537
11
-27.174091
21
-0.911198
31
8.208381
12
-18.856804
22
-1.542754
32
7.576830
13
-18.856804
23
-3.067464
33
8.208386
0
3DFACE
8
HBomb3
62
11.000000
10
-18.856804
20
-3.067464
30
8.208386
11
-18.856804
21
-1.542754
31
7.576830
12
-15.411655
22
-3.067462
32
6.052116
13
-15.411655
23
-3.067462
33
6.052116
0
3DFACE
8
HBomb3
62
11.000000
10
-38.936527
20
-3.067463
30
6.052116
11
-38.936527
21
-3.067463
31
6.052116
12
-35.491379
22
-3.067463
32
8.208381
13
-35.491379
23
-4.592173
33
7.576824
0
3DFACE
8
HBomb3
62
11.000000
10
-35.491379
20
-4.592173
30
7.576824
11
-35.491379
21
-3.067463
31
8.208381
12
-27.174091
22
-3.067462
32
9.101537
13
-27.174091
23
-5.223727
33
8.208381
0
3DFACE
8
HBomb3
62
11.000000
10
-27.174091
20
-5.223727
30
8.208381
11
-27.174091
21
-3.067462
31
9.101537
12
-18.856804
22
-3.067464
32
8.208386
13
-18.856804
23
-4.592174
33
7.576830
0
3DFACE
8
HBomb3
62
11.000000
10
-18.856804
20
-4.592174
30
7.576830
11
-18.856804
21
-3.067464
31
8.208386
12
-15.411655
22
-3.067462
32
6.052116
13
-15.411655
23
-3.067462
33
6.052116
0
3DFACE
8
HBomb3
62
11.000000
10
-38.936527
20
-3.067463
30
6.052116
11
-38.936527
21
-3.067463
31
6.052116
12
-35.491379
22
-4.592173
32
7.576824
13
-35.491379
23
-5.223730
33
6.052116
0
3DFACE
8
HBomb3
62
11.000000
10
-35.491379
20
-5.223730
30
6.052116
11
-35.491379
21
-4.592173
31
7.576824
12
-27.174091
22
-5.223727
32
8.208381
13
-27.174091
23
-6.116880
33
6.052116
0
3DFACE
8
HBomb3
62
11.000000
10
-27.174091
20
-6.116880
30
6.052116
11
-27.174091
21
-5.223727
31
8.208381
12
-18.856804
22
-4.592174
32
7.576830
13
-18.856804
23
-5.223730
33
6.052116
0
3DFACE
8
HBomb3
62
11.000000
10
-18.856804
20
-5.223730
30
6.052116
11
-18.856804
21
-4.592174
31
7.576830
12
-15.411655
22
-3.067462
32
6.052116
13
-15.411655
23
-3.067462
33
6.052116
0
3DFACE
8
HBomb3
62
11.000000
10
-38.936527
20
-3.067463
30
6.052116
11
-38.936527
21
-3.067463
31
6.052116
12
-35.491379
22
-5.223730
32
6.052116
13
-35.491379
23
-4.592173
33
4.527404
0
3DFACE
8
HBomb3
62
11.000000
10
-35.491379
20
-4.592173
30
4.527404
11
-35.491379
21
-5.223730
31
6.052116
12
-27.174091
22
-6.116880
32
6.052116
13
-27.174091
23
-5.223727
33
3.895853
0
3DFACE
8
HBomb3
62
11.000000
10
-27.174091
20
-5.223727
30
3.895853
11
-27.174091
21
-6.116880
31
6.052116
12
-18.856804
22
-5.223730
32
6.052116
13
-18.856804
23
-4.592173
33
4.527409
0
3DFACE
8
HBomb3
62
11.000000
10
-18.856804
20
-4.592173
30
4.527409
11
-18.856804
21
-5.223730
31
6.052116
12
-15.411655
22
-3.067462
32
6.052116
13
-15.411655
23
-3.067462
33
6.052116
0
3DFACE
8
HBomb3
62
11.000000
10
-38.936527
20
-3.067463
30
6.052116
11
-38.936527
21
-3.067463
31
6.052116
12
-35.491379
22
-4.592173
32
4.527404
13
-35.491379
23
-3.067463
33
3.895848
0
3DFACE
8
HBomb3
62
11.000000
10
-35.491379
20
-3.067463
30
3.895848
11
-35.491379
21
-4.592173
31
4.527404
12
-27.174091
22
-5.223727
32
3.895853
13
-27.174091
23
-3.067463
33
3.002697
0
3DFACE
8
HBomb3
62
11.000000
10
-27.174091
20
-3.067463
30
3.002697
11
-27.174091
21
-5.223727
31
3.895853
12
-18.856804
22
-4.592173
32
4.527409
13
-18.856804
23
-3.067463
33
3.895853
0
3DFACE
8
HBomb3
62
11.000000
10
-18.856804
20
-3.067463
30
3.895853
11
-18.856804
21
-4.592173
31
4.527409
12
-15.411655
22
-3.067462
32
6.052116
13
-15.411655
23
-3.067462
33
6.052116
0
3DFACE
8
HBomb3
62
11.000000
10
-38.936527
20
-3.067463
30
6.052116
11
-38.936527
21
-3.067463
31
6.052116
12
-35.491379
22
-3.067463
32
3.895848
13
-35.491379
23
-1.542753
33
4.527404
0
3DFACE
8
HBomb3
62
11.000000
10
-35.491379
20
-1.542753
30
4.527404
11
-35.491379
21
-3.067463
31
3.895848
12
-27.174091
22
-3.067463
32
3.002697
13
-27.174091
23
-0.911199
33
3.895853
0
3DFACE
8
HBomb3
62
11.000000
10
-27.174091
20
-0.911199
30
3.895853
11
-27.174091
21
-3.067463
31
3.002697
12
-18.856804
22
-3.067463
32
3.895853
13
-18.856804
23
-1.542753
33
4.527409
0
3DFACE
8
HBomb3
62
11.000000
10
-18.856804
20
-1.542753
30
4.527409
11
-18.856804
21
-3.067463
31
3.895853
12
-15.411655
22
-3.067462
32
6.052116
13
-15.411655
23
-3.067462
33
6.052116
0
3DFACE
8
HBomb3
62
11.000000
10
-38.936527
20
-3.067463
30
6.052116
11
-38.936527
21
-3.067463
31
6.052116
12
-35.491379
22
-1.542753
32
4.527404
13
-35.491379
23
-0.911197
33
6.052116
0
3DFACE
8
HBomb3
62
11.000000
10
-35.491379
20
-0.911197
30
6.052116
11
-35.491379
21
-1.542753
31
4.527404
12
-27.174091
22
-0.911199
32
3.895853
13
-27.174091
23
-0.018045
33
6.052116
0
3DFACE
8
HBomb3
62
11.000000
10
-27.174091
20
-0.018045
30
6.052116
11
-27.174091
21
-0.911199
31
3.895853
12
-18.856804
22
-1.542753
32
4.527409
13
-18.856804
23
-0.911198
33
6.052116
0
3DFACE
8
HBomb3
62
11.000000
10
-18.856804
20
-0.911198
30
6.052116
11
-18.856804
21
-1.542753
31
4.527409
12
-15.411655
22
-3.067462
32
6.052116
13
-15.411655
23
-3.067462
33
6.052116
0
3DFACE
8
HBomb3A4
62
12.000000
10
-34.734459
20
-0.297656
30
5.840267
11
-40.512299
21
-0.145778
31
5.824326
12
-40.512299
22
-2.703166
32
3.193131
13
-34.734459
23
-2.722255
33
3.345694
0
3DFACE
8
HBomb3A4
62
12.000000
10
-34.734459
20
-2.722255
30
3.345694
11
-40.512299
21
-2.703166
31
3.193131
12
-40.512299
22
-5.995857
32
4.812263
13
-34.734459
23
-5.843977
33
4.880761
0
3DFACE
8
HBomb3A4
62
12.000000
10
-34.734459
20
-5.843977
30
4.880761
11
-40.512299
21
-5.995857
31
4.812263
12
-40.512299
22
-5.473464
32
8.444133
13
-34.734459
23
-5.348711
33
8.324051
0
3DFACE
8
HBomb3A4
62
12.000000
10
-34.734459
20
-5.348711
30
8.324051
11
-40.512299
21
-5.473464
31
8.444133
12
-40.512299
22
-1.857921
32
9.069627
13
-34.734459
23
-1.920900
33
8.917064
0
3DFACE
8
HBomb3A4
62
12.000000
10
-34.734459
20
-1.920900
30
8.917064
11
-40.512299
21
-1.857921
31
9.069627
12
-40.512299
22
-0.145778
32
5.824326
13
-34.734459
23
-0.297656
33
5.840267
0
3DFACE
8
HBomb3A2
62
13.000000
10
-34.734459
20
-5.396981
30
4.927250
11
-39.184570
21
-8.131001
31
2.193232
12
-40.891655
22
-5.613642
32
4.710588
13
-40.891655
23
-5.613642
33
4.710588
0
3DFACE
8
HBomb3A3
62
14.000000
10
-34.734459
20
-1.536085
30
4.985615
11
-39.184570
21
1.197937
31
2.251596
12
-40.891655
22
-1.319423
32
4.768953
13
-40.891655
23
-1.319423
33
4.768953
0
3DFACE
8
HBomb4A4
62
15.000000
10
-34.734459
20
-6.119276
30
6.146669
11
-40.512299
21
-5.967398
31
6.130728
12
-40.512299
22
-8.524785
32
3.499532
13
-34.734459
23
-8.543875
33
3.652095
0
3DFACE
8
HBomb4A4
62
15.000000
10
-34.734459
20
-8.543875
30
3.652095
11
-40.512299
21
-8.524785
31
3.499532
12
-40.512299
22
-11.817475
32
5.118664
13
-34.734459
23
-11.665597
33
5.187162
0
3DFACE
8
HBomb4A4
62
15.000000
10
-34.734459
20
-11.665597
30
5.187162
11
-40.512299
21
-11.817475
31
5.118664
12
-40.512299
22
-11.295085
32
8.750534
13
-34.734459
23
-11.170329
33
8.630452
0
3DFACE
8
HBomb4A4
62
15.000000
10
-34.734459
20
-11.170329
30
8.630452
11
-40.512299
21
-11.295085
31
8.750534
12
-40.512299
22
-7.679542
32
9.376027
13
-34.734459
23
-7.742520
33
9.223464
0
3DFACE
8
HBomb4A4
62
15.000000
10
-34.734459
20
-7.742520
30
9.223464
11
-40.512299
21
-7.679542
31
9.376027
12
-40.512299
22
-5.967398
32
6.130728
13
-34.734459
23
-6.119276
33
6.146669
0
3DFACE
8
HBomb3A1
62
16.000000
10
-34.734459
20
-3.306037
30
8.659636
11
-39.184570
21
-3.306037
31
12.526126
12
-40.891655
22
-3.306037
32
8.966040
13
-40.891655
23
-3.306037
33
8.966040
0
3DFACE
8
HBomb4
62
17.000000
10
-38.936527
20
-8.889082
30
6.358518
11
-38.936527
21
-8.889082
31
6.358518
12
-35.491379
22
-6.732816
32
6.358518
13
-35.491379
23
-7.364373
33
7.883227
0
3DFACE
8
HBomb4
62
17.000000
10
-35.491379
20
-7.364373
30
7.883227
11
-35.491379
21
-6.732816
31
6.358518
12
-27.174091
22
-5.839663
32
6.358518
13
-27.174091
23
-6.732818
33
8.514782
0
3DFACE
8
HBomb4
62
17.000000
10
-27.174091
20
-6.732818
30
8.514782
11
-27.174091
21
-5.839663
31
6.358518
12
-18.856804
22
-6.732818
32
6.358518
13
-18.856804
23
-7.364375
33
7.883232
0
3DFACE
8
HBomb4
62
17.000000
10
-18.856804
20
-7.364375
30
7.883232
11
-18.856804
21
-6.732818
31
6.358518
12
-15.411655
22
-8.889082
32
6.358518
13
-15.411655
23
-8.889082
33
6.358518
0
3DFACE
8
HBomb4
62
17.000000
10
-38.936527
20
-8.889082
30
6.358518
11
-38.936527
21
-8.889082
31
6.358518
12
-35.491379
22
-7.364373
32
7.883227
13
-35.491379
23
-8.889082
33
8.514782
0
3DFACE
8
HBomb4
62
17.000000
10
-35.491379
20
-8.889082
30
8.514782
11
-35.491379
21
-7.364373
31
7.883227
12
-27.174091
22
-6.732818
32
8.514782
13
-27.174091
23
-8.889082
33
9.407939
0
3DFACE
8
HBomb4
62
17.000000
10
-27.174091
20
-8.889082
30
9.407939
11
-27.174091
21
-6.732818
31
8.514782
12
-18.856804
22
-7.364375
32
7.883232
13
-18.856804
23
-8.889085
33
8.514788
0
3DFACE
8
HBomb4
62
17.000000
10
-18.856804
20
-8.889085
30
8.514788
11
-18.856804
21
-7.364375
31
7.883232
12
-15.411655
22
-8.889082
32
6.358518
13
-15.411655
23
-8.889082
33
6.358518
0
3DFACE
8
HBomb4
62
17.000000
10
-38.936527
20
-8.889082
30
6.358518
11
-38.936527
21
-8.889082
31
6.358518
12
-35.491379
22
-8.889082
32
8.514782
13
-35.491379
23
-10.413794
33
7.883227
0
3DFACE
8
HBomb4
62
17.000000
10
-35.491379
20
-10.413794
30
7.883227
11
-35.491379
21
-8.889082
31
8.514782
12
-27.174091
22
-8.889082
32
9.407939
13
-27.174091
23
-11.045346
33
8.514782
0
3DFACE
8
HBomb4
62
17.000000
10
-27.174091
20
-11.045346
30
8.514782
11
-27.174091
21
-8.889082
31
9.407939
12
-18.856804
22
-8.889085
32
8.514788
13
-18.856804
23
-10.413794
33
7.883232
0
3DFACE
8
HBomb4
62
17.000000
10
-18.856804
20
-10.413794
30
7.883232
11
-18.856804
21
-8.889085
31
8.514788
12
-15.411655
22
-8.889082
32
6.358518
13
-15.411655
23
-8.889082
33
6.358518
0
3DFACE
8
HBomb4
62
17.000000
10
-38.936527
20
-8.889082
30
6.358518
11
-38.936527
21
-8.889082
31
6.358518
12
-35.491379
22
-10.413794
32
7.883227
13
-35.491379
23
-11.045348
33
6.358518
0
3DFACE
8
HBomb4
62
17.000000
10
-35.491379
20
-11.045348
30
6.358518
11
-35.491379
21
-10.413794
31
7.883227
12
-27.174091
22
-11.045346
32
8.514782
13
-27.174091
23
-11.938499
33
6.358518
0
3DFACE
8
HBomb4
62
17.000000
10
-27.174091
20
-11.938499
30
6.358518
11
-27.174091
21
-11.045346
31
8.514782
12
-18.856804
22
-10.413794
32
7.883232
13
-18.856804
23
-11.045348
33
6.358518
0
3DFACE
8
HBomb4
62
17.000000
10
-18.856804
20
-11.045348
30
6.358518
11
-18.856804
21
-10.413794
31
7.883232
12
-15.411655
22
-8.889082
32
6.358518
13
-15.411655
23
-8.889082
33
6.358518
0
3DFACE
8
HBomb4
62
17.000000
10
-38.936527
20
-8.889082
30
6.358518
11
-38.936527
21
-8.889082
31
6.358518
12
-35.491379
22
-11.045348
32
6.358518
13
-35.491379
23
-10.413794
33
4.833805
0
3DFACE
8
HBomb4
62
17.000000
10
-35.491379
20
-10.413794
30
4.833805
11
-35.491379
21
-11.045348
31
6.358518
12
-27.174091
22
-11.938499
32
6.358518
13
-27.174091
23
-11.045346
33
4.202254
0
3DFACE
8
HBomb4
62
17.000000
10
-27.174091
20
-11.045346
30
4.202254
11
-27.174091
21
-11.938499
31
6.358518
12
-18.856804
22
-11.045348
32
6.358518
13
-18.856804
23
-10.413794
33
4.833810
0
3DFACE
8
HBomb4
62
17.000000
10
-18.856804
20
-10.413794
30
4.833810
11
-18.856804
21
-11.045348
31
6.358518
12
-15.411655
22
-8.889082
32
6.358518
13
-15.411655
23
-8.889082
33
6.358518
0
3DFACE
8
HBomb4
62
17.000000
10
-38.936527
20
-8.889082
30
6.358518
11
-38.936527
21
-8.889082
31
6.358518
12
-35.491379
22
-10.413794
32
4.833805
13
-35.491379
23
-8.889082
33
4.202249
0
3DFACE
8
HBomb4
62
17.000000
10
-35.491379
20
-8.889082
30
4.202249
11
-35.491379
21
-10.413794
31
4.833805
12
-27.174091
22
-11.045346
32
4.202254
13
-27.174091
23
-8.889082
33
3.309098
0
3DFACE
8
HBomb4
62
17.000000
10
-27.174091
20
-8.889082
30
3.309098
11
-27.174091
21
-11.045346
31
4.202254
12
-18.856804
22
-10.413794
32
4.833810
13
-18.856804
23
-8.889082
33
4.202254
0
3DFACE
8
HBomb4
62
17.000000
10
-18.856804
20
-8.889082
30
4.202254
11
-18.856804
21
-10.413794
31
4.833810
12
-15.411655
22
-8.889082
32
6.358518
13
-15.411655
23
-8.889082
33
6.358518
0
3DFACE
8
HBomb4
62
17.000000
10
-38.936527
20
-8.889082
30
6.358518
11
-38.936527
21
-8.889082
31
6.358518
12
-35.491379
22
-8.889082
32
4.202249
13
-35.491379
23
-7.364373
33
4.833805
0
3DFACE
8
HBomb4
62
17.000000
10
-35.491379
20
-7.364373
30
4.833805
11
-35.491379
21
-8.889082
31
4.202249
12
-27.174091
22
-8.889082
32
3.309098
13
-27.174091
23
-6.732818
33
4.202254
0
3DFACE
8
HBomb4
62
17.000000
10
-27.174091
20
-6.732818
30
4.202254
11
-27.174091
21
-8.889082
31
3.309098
12
-18.856804
22
-8.889082
32
4.202254
13
-18.856804
23
-7.364373
33
4.833810
0
3DFACE
8
HBomb4
62
17.000000
10
-18.856804
20
-7.364373
30
4.833810
11
-18.856804
21
-8.889082
31
4.202254
12
-15.411655
22
-8.889082
32
6.358518
13
-15.411655
23
-8.889082
33
6.358518
0
3DFACE
8
HBomb4
62
17.000000
10
-38.936527
20
-8.889082
30
6.358518
11
-38.936527
21
-8.889082
31
6.358518
12
-35.491379
22
-7.364373
32
4.833805
13
-35.491379
23
-6.732816
33
6.358518
0
3DFACE
8
HBomb4
62
17.000000
10
-35.491379
20
-6.732816
30
6.358518
11
-35.491379
21
-7.364373
31
4.833805
12
-27.174091
22
-6.732818
32
4.202254
13
-27.174091
23
-5.839663
33
6.358518
0
3DFACE
8
HBomb4
62
17.000000
10
-27.174091
20
-5.839663
30
6.358518
11
-27.174091
21
-6.732818
31
4.202254
12
-18.856804
22
-7.364373
32
4.833810
13
-18.856804
23
-6.732818
33
6.358518
0
3DFACE
8
HBomb4
62
17.000000
10
-18.856804
20
-6.732818
30
6.358518
11
-18.856804
21
-7.364373
31
4.833810
12
-15.411655
22
-8.889082
32
6.358518
13
-15.411655
23
-8.889082
33
6.358518
0
3DFACE
8
HBomb4A3
62
18.000000
10
-34.734459
20
-7.357705
30
5.292015
11
-39.184570
21
-4.623682
31
2.557997
12
-40.891655
22
-7.141043
32
5.075354
13
-40.891655
23
-7.141043
33
5.075354
0
3DFACE
8
HBomb4A2
62
19.000000
10
-34.734459
20
-11.218601
30
5.233651
11
-39.184570
21
-13.952622
31
2.499633
12
-40.891655
22
-11.435263
32
5.016989
13
-40.891655
23
-11.435263
33
5.016989
0
3DFACE
8
HBomb4A1
62
20.000000
10
-34.734459
20
-9.127657
30
8.966037
11
-39.184570
21
-9.127657
31
12.832527
12
-40.891655
22
-9.127657
32
9.272442
13
-40.891655
23
-9.127657
33
9.272442
0
3DFACE
8
HBomb1
62
21.000000
10
-38.936527
20
8.820460
30
6.274401
11
-38.936527
21
8.820460
31
6.274401
12
-35.491379
22
10.976727
32
6.274401
13
-35.491379
23
10.345170
33
7.799109
0
3DFACE
8
HBomb1
62
21.000000
10
-35.491379
20
10.345170
30
7.799109
11
-35.491379
21
10.976727
31
6.274401
12
-27.174091
22
11.869879
32
6.274401
13
-27.174091
23
10.976725
33
8.430666
0
3DFACE
8
HBomb1
62
21.000000
10
-27.174091
20
10.976725
30
8.430666
11
-27.174091
21
11.869879
31
6.274401
12
-18.856804
22
10.976725
32
6.274401
13
-18.856804
23
10.345168
33
7.799115
0
3DFACE
8
HBomb1
62
21.000000
10
-18.856804
20
10.345168
30
7.799115
11
-18.856804
21
10.976725
31
6.274401
12
-15.411655
22
8.820460
32
6.274401
13
-15.411655
23
8.820460
33
6.274401
0
3DFACE
8
HBomb1
62
21.000000
10
-38.936527
20
8.820460
30
6.274401
11
-38.936527
21
8.820460
31
6.274401
12
-35.491379
22
10.345170
32
7.799109
13
-35.491379
23
8.820460
33
8.430666
0
3DFACE
8
HBomb1
62
21.000000
10
-35.491379
20
8.820460
30
8.430666
11
-35.491379
21
10.345170
31
7.799109
12
-27.174091
22
10.976725
32
8.430666
13
-27.174091
23
8.820460
33
9.323822
0
3DFACE
8
HBomb1
62
21.000000
10
-27.174091
20
8.820460
30
9.323822
11
-27.174091
21
10.976725
31
8.430666
12
-18.856804
22
10.345168
32
7.799115
13
-18.856804
23
8.820457
33
8.430671
0
3DFACE
8
HBomb1
62
21.000000
10
-18.856804
20
8.820457
30
8.430671
11
-18.856804
21
10.345168
31
7.799115
12
-15.411655
22
8.820460
32
6.274401
13
-15.411655
23
8.820460
33
6.274401
0
3DFACE
8
HBomb1
62
21.000000
10
-38.936527
20
8.820460
30
6.274401
11
-38.936527
21
8.820460
31
6.274401
12
-35.491379
22
8.820460
32
8.430666
13
-35.491379
23
7.295750
33
7.799109
0
3DFACE
8
HBomb1
62
21.000000
10
-35.491379
20
7.295750
30
7.799109
11
-35.491379
21
8.820460
31
8.430666
12
-27.174091
22
8.820460
32
9.323822
13
-27.174091
23
6.664196
33
8.430666
0
3DFACE
8
HBomb1
62
21.000000
10
-27.174091
20
6.664196
30
8.430666
11
-27.174091
21
8.820460
31
9.323822
12
-18.856804
22
8.820457
32
8.430671
13
-18.856804
23
7.295747
33
7.799115
0
3DFACE
8
HBomb1
62
21.000000
10
-18.856804
20
7.295747
30
7.799115
11
-18.856804
21
8.820457
31
8.430671
12
-15.411655
22
8.820460
32
6.274401
13
-15.411655
23
8.820460
33
6.274401
0
3DFACE
8
HBomb1
62
21.000000
10
-38.936527
20
8.820460
30
6.274401
11
-38.936527
21
8.820460
31
6.274401
12
-35.491379
22
7.295750
32
7.799109
13
-35.491379
23
6.664194
33
6.274401
0
3DFACE
8
HBomb1
62
21.000000
10
-35.491379
20
6.664194
30
6.274401
11
-35.491379
21
7.295750
31
7.799109
12
-27.174091
22
6.664196
32
8.430666
13
-27.174091
23
5.771043
33
6.274401
0
3DFACE
8
HBomb1
62
21.000000
10
-27.174091
20
5.771043
30
6.274401
11
-27.174091
21
6.664196
31
8.430666
12
-18.856804
22
7.295747
32
7.799115
13
-18.856804
23
6.664194
33
6.274401
0
3DFACE
8
HBomb1
62
21.000000
10
-18.856804
20
6.664194
30
6.274401
11
-18.856804
21
7.295747
31
7.799115
12
-15.411655
22
8.820460
32
6.274401
13
-15.411655
23
8.820460
33
6.274401
0
3DFACE
8
HBomb1
62
21.000000
10
-38.936527
20
8.820460
30
6.274401
11
-38.936527
21
8.820460
31
6.274401
12
-35.491379
22
6.664194
32
6.274401
13
-35.491379
23
7.295750
33
4.749688
0
3DFACE
8
HBomb1
62
21.000000
10
-35.491379
20
7.295750
30
4.749688
11
-35.491379
21
6.664194
31
6.274401
12
-27.174091
22
5.771043
32
6.274401
13
-27.174091
23
6.664196
33
4.118138
0
3DFACE
8
HBomb1
62
21.000000
10
-27.174091
20
6.664196
30
4.118138
11
-27.174091
21
5.771043
31
6.274401
12
-18.856804
22
6.664194
32
6.274401
13
-18.856804
23
7.295750
33
4.749693
0
3DFACE
8
HBomb1
62
21.000000
10
-18.856804
20
7.295750
30
4.749693
11
-18.856804
21
6.664194
31
6.274401
12
-15.411655
22
8.820460
32
6.274401
13
-15.411655
23
8.820460
33
6.274401
0
3DFACE
8
HBomb1
62
21.000000
10
-38.936527
20
8.820460
30
6.274401
11
-38.936527
21
8.820460
31
6.274401
12
-35.491379
22
7.295750
32
4.749688
13
-35.491379
23
8.820460
33
4.118132
0
3DFACE
8
HBomb1
62
21.000000
10
-35.491379
20
8.820460
30
4.118132
11
-35.491379
21
7.295750
31
4.749688
12
-27.174091
22
6.664196
32
4.118138
13
-27.174091
23
8.820460
33
3.224981
0
3DFACE
8
HBomb1
62
21.000000
10
-27.174091
20
8.820460
30
3.224981
11
-27.174091
21
6.664196
31
4.118138
12
-18.856804
22
7.295750
32
4.749693
13
-18.856804
23
8.820460
33
4.118138
0
3DFACE
8
HBomb1
62
21.000000
10
-18.856804
20
8.820460
30
4.118138
11
-18.856804
21
7.295750
31
4.749693
12
-15.411655
22
8.820460
32
6.274401
13
-15.411655
23
8.820460
33
6.274401
0
3DFACE
8
HBomb1
62
21.000000
10
-38.936527
20
8.820460
30
6.274401
11
-38.936527
21
8.820460
31
6.274401
12
-35.491379
22
8.820460
32
4.118132
13
-35.491379
23
10.345170
33
4.749688
0
3DFACE
8
HBomb1
62
21.000000
10
-35.491379
20
10.345170
30
4.749688
11
-35.491379
21
8.820460
31
4.118132
12
-27.174091
22
8.820460
32
3.224981
13
-27.174091
23
10.976725
33
4.118138
0
3DFACE
8
HBomb1
62
21.000000
10
-27.174091
20
10.976725
30
4.118138
11
-27.174091
21
8.820460
31
3.224981
12
-18.856804
22
8.820460
32
4.118138
13
-18.856804
23
10.345170
33
4.749693
0
3DFACE
8
HBomb1
62
21.000000
10
-18.856804
20
10.345170
30
4.749693
11
-18.856804
21
8.820460
31
4.118138
12
-15.411655
22
8.820460
32
6.274401
13
-15.411655
23
8.820460
33
6.274401
0
3DFACE
8
HBomb1
62
21.000000
10
-38.936527
20
8.820460
30
6.274401
11
-38.936527
21
8.820460
31
6.274401
12
-35.491379
22
10.345170
32
4.749688
13
-35.491379
23
10.976727
33
6.274401
0
3DFACE
8
HBomb1
62
21.000000
10
-35.491379
20
10.976727
30
6.274401
11
-35.491379
21
10.345170
31
4.749688
12
-27.174091
22
10.976725
32
4.118138
13
-27.174091
23
11.869879
33
6.274401
0
3DFACE
8
HBomb1
62
21.000000
10
-27.174091
20
11.869879
30
6.274401
11
-27.174091
21
10.976725
31
4.118138
12
-18.856804
22
10.345170
32
4.749693
13
-18.856804
23
10.976725
33
6.274401
0
3DFACE
8
HBomb1
62
21.000000
10
-18.856804
20
10.976725
30
6.274401
11
-18.856804
21
10.345170
31
4.749693
12
-15.411655
22
8.820460
32
6.274401
13
-15.411655
23
8.820460
33
6.274401
0
3DFACE
8
HBomb1A4
62
22.000000
10
-34.734459
20
11.590266
30
6.062552
11
-40.512299
21
11.742145
31
6.046611
12
-40.512299
22
9.184758
32
3.415415
13
-34.734459
23
9.165667
33
3.567978
0
3DFACE
8
HBomb1A4
62
22.000000
10
-34.734459
20
9.165667
30
3.567978
11
-40.512299
21
9.184758
31
3.415415
12
-40.512299
22
5.892066
32
5.034548
13
-34.734459
23
6.043944
33
5.103045
0
3DFACE
8
HBomb1A4
62
22.000000
10
-34.734459
20
6.043944
30
5.103045
11
-40.512299
21
5.892066
31
5.034548
12
-40.512299
22
6.414459
32
8.666418
13
-34.734459
23
6.539213
33
8.546337
0
3DFACE
8
HBomb1A4
62
22.000000
10
-34.734459
20
6.539213
30
8.546337
11
-40.512299
21
6.414459
31
8.666418
12
-40.512299
22
10.030001
32
9.291911
13
-34.734459
23
9.967023
33
9.139348
0
3DFACE
8
HBomb1A4
62
22.000000
10
-34.734459
20
9.967023
30
9.139348
11
-40.512299
21
10.030001
31
9.291911
12
-40.512299
22
11.742145
32
6.046611
13
-34.734459
23
11.590266
33
6.062552
0
3DFACE
8
HBomb2A4
62
23.000000
10
-34.734459
20
6.366858
30
6.354362
11
-40.512299
21
6.518736
31
6.338421
12
-40.512299
22
3.961350
32
3.707226
13
-34.734459
23
3.942260
33
3.859789
0
3DFACE
8
HBomb2A4
62
23.000000
10
-34.734459
20
3.942260
30
3.859789
11
-40.512299
21
3.961350
31
3.707226
12
-40.512299
22
0.668658
32
5.326358
13
-34.734459
23
0.820536
33
5.394856
0
3DFACE
8
HBomb2A4
62
23.000000
10
-34.734459
20
0.820536
30
5.394856
11
-40.512299
21
0.668658
31
5.326358
12
-40.512299
22
1.191051
32
8.958228
13
-34.734459
23
1.315805
33
8.838147
0
3DFACE
8
HBomb2A4
62
23.000000
10
-34.734459
20
1.315805
30
8.838147
11
-40.512299
21
1.191051
31
8.958228
12
-40.512299
22
4.806593
32
9.583722
13
-34.734459
23
4.743614
33
9.431159
0
3DFACE
8
HBomb2A4
62
23.000000
10
-34.734459
20
4.743614
30
9.431159
11
-40.512299
21
4.806593
31
9.583722
12
-40.512299
22
6.518736
32
6.338421
13
-34.734459
23
6.366858
33
6.354362
0
3DFACE
8
HBomb2
62
24.000000
10
-38.936527
20
3.597052
30
6.566212
11
-38.936527
21
3.597052
31
6.566212
12
-35.491379
22
5.753318
32
6.566212
13
-35.491379
23
5.121762
33
8.090919
0
3DFACE
8
HBomb2
62
24.000000
10
-35.491379
20
5.121762
30
8.090919
11
-35.491379
21
5.753318
31
6.566212
12
-27.174091
22
6.646471
32
6.566212
13
-27.174091
23
5.753317
33
8.722475
0
3DFACE
8
HBomb2
62
24.000000
10
-27.174091
20
5.753317
30
8.722475
11
-27.174091
21
6.646471
31
6.566212
12
-18.856804
22
5.753317
32
6.566212
13
-18.856804
23
5.121760
33
8.090925
0
3DFACE
8
HBomb2
62
24.000000
10
-18.856804
20
5.121760
30
8.090925
11
-18.856804
21
5.753317
31
6.566212
12
-15.411655
22
3.597053
32
6.566212
13
-15.411655
23
3.597053
33
6.566212
0
3DFACE
8
HBomb2
62
24.000000
10
-38.936527
20
3.597052
30
6.566212
11
-38.936527
21
3.597052
31
6.566212
12
-35.491379
22
5.121762
32
8.090919
13
-35.491379
23
3.597052
33
8.722475
0
3DFACE
8
HBomb2
62
24.000000
10
-35.491379
20
3.597052
30
8.722475
11
-35.491379
21
5.121762
31
8.090919
12
-27.174091
22
5.753317
32
8.722475
13
-27.174091
23
3.597053
33
9.615633
0
3DFACE
8
HBomb2
62
24.000000
10
-27.174091
20
3.597053
30
9.615633
11
-27.174091
21
5.753317
31
8.722475
12
-18.856804
22
5.121760
32
8.090925
13
-18.856804
23
3.597050
33
8.722481
0
3DFACE
8
HBomb2
62
24.000000
10
-18.856804
20
3.597050
30
8.722481
11
-18.856804
21
5.121760
31
8.090925
12
-15.411655
22
3.597053
32
6.566212
13
-15.411655
23
3.597053
33
6.566212
0
3DFACE
8
HBomb2
62
24.000000
10
-38.936527
20
3.597052
30
6.566212
11
-38.936527
21
3.597052
31
6.566212
12
-35.491379
22
3.597052
32
8.722475
13
-35.491379
23
2.072341
33
8.090919
0
3DFACE
8
HBomb2
62
24.000000
10
-35.491379
20
2.072341
30
8.090919
11
-35.491379
21
3.597052
31
8.722475
12
-27.174091
22
3.597053
32
9.615633
13
-27.174091
23
1.440788
33
8.722475
0
3DFACE
8
HBomb2
62
24.000000
10
-27.174091
20
1.440788
30
8.722475
11
-27.174091
21
3.597053
31
9.615633
12
-18.856804
22
3.597050
32
8.722481
13
-18.856804
23
2.072340
33
8.090925
0
3DFACE
8
HBomb2
62
24.000000
10
-18.856804
20
2.072340
30
8.090925
11
-18.856804
21
3.597050
31
8.722481
12
-15.411655
22
3.597053
32
6.566212
13
-15.411655
23
3.597053
33
6.566212
0
3DFACE
8
HBomb2
62
24.000000
10
-38.936527
20
3.597052
30
6.566212
11
-38.936527
21
3.597052
31
6.566212
12
-35.491379
22
2.072341
32
8.090919
13
-35.491379
23
1.440786
33
6.566212
0
3DFACE
8
HBomb2
62
24.000000
10
-35.491379
20
1.440786
30
6.566212
11
-35.491379
21
2.072341
31
8.090919
12
-27.174091
22
1.440788
32
8.722475
13
-27.174091
23
0.547636
33
6.566212
0
3DFACE
8
HBomb2
62
24.000000
10
-27.174091
20
0.547636
30
6.566212
11
-27.174091
21
1.440788
31
8.722475
12
-18.856804
22
2.072340
32
8.090925
13
-18.856804
23
1.440786
33
6.566212
0
3DFACE
8
HBomb2
62
24.000000
10
-18.856804
20
1.440786
30
6.566212
11
-18.856804
21
2.072340
31
8.090925
12
-15.411655
22
3.597053
32
6.566212
13
-15.411655
23
3.597053
33
6.566212
0
3DFACE
8
HBomb2
62
24.000000
10
-38.936527
20
3.597052
30
6.566212
11
-38.936527
21
3.597052
31
6.566212
12
-35.491379
22
1.440786
32
6.566212
13
-35.491379
23
2.072341
33
5.041499
0
3DFACE
8
HBomb2
62
24.000000
10
-35.491379
20
2.072341
30
5.041499
11
-35.491379
21
1.440786
31
6.566212
12
-27.174091
22
0.547636
32
6.566212
13
-27.174091
23
1.440788
33
4.409948
0
3DFACE
8
HBomb2
62
24.000000
10
-27.174091
20
1.440788
30
4.409948
11
-27.174091
21
0.547636
31
6.566212
12
-18.856804
22
1.440786
32
6.566212
13
-18.856804
23
2.072341
33
5.041504
0
3DFACE
8
HBomb2
62
24.000000
10
-18.856804
20
2.072341
30
5.041504
11
-18.856804
21
1.440786
31
6.566212
12
-15.411655
22
3.597053
32
6.566212
13
-15.411655
23
3.597053
33
6.566212
0
3DFACE
8
HBomb2
62
24.000000
10
-38.936527
20
3.597052
30
6.566212
11
-38.936527
21
3.597052
31
6.566212
12
-35.491379
22
2.072341
32
5.041499
13
-35.491379
23
3.597052
33
4.409943
0
3DFACE
8
HBomb2
62
24.000000
10
-35.491379
20
3.597052
30
4.409943
11
-35.491379
21
2.072341
31
5.041499
12
-27.174091
22
1.440788
32
4.409948
13
-27.174091
23
3.597052
33
3.516791
0
3DFACE
8
HBomb2
62
24.000000
10
-27.174091
20
3.597052
30
3.516791
11
-27.174091
21
1.440788
31
4.409948
12
-18.856804
22
2.072341
32
5.041504
13
-18.856804
23
3.597052
33
4.409948
0
3DFACE
8
HBomb2
62
24.000000
10
-18.856804
20
3.597052
30
4.409948
11
-18.856804
21
2.072341
31
5.041504
12
-15.411655
22
3.597053
32
6.566212
13
-15.411655
23
3.597053
33
6.566212
0
3DFACE
8
HBomb2
62
24.000000
10
-38.936527
20
3.597052
30
6.566212
11
-38.936527
21
3.597052
31
6.566212
12
-35.491379
22
3.597052
32
4.409943
13
-35.491379
23
5.121762
33
5.041499
0
3DFACE
8
HBomb2
62
24.000000
10
-35.491379
20
5.121762
30
5.041499
11
-35.491379
21
3.597052
31
4.409943
12
-27.174091
22
3.597052
32
3.516791
13
-27.174091
23
5.753316
33
4.409948
0
3DFACE
8
HBomb2
62
24.000000
10
-27.174091
20
5.753316
30
4.409948
11
-27.174091
21
3.597052
31
3.516791
12
-18.856804
22
3.597052
32
4.409948
13
-18.856804
23
5.121762
33
5.041504
0
3DFACE
8
HBomb2
62
24.000000
10
-18.856804
20
5.121762
30
5.041504
11
-18.856804
21
3.597052
31
4.409948
12
-15.411655
22
3.597053
32
6.566212
13
-15.411655
23
3.597053
33
6.566212
0
3DFACE
8
HBomb2
62
24.000000
10
-38.936527
20
3.597052
30
6.566212
11
-38.936527
21
3.597052
31
6.566212
12
-35.491379
22
5.121762
32
5.041499
13
-35.491379
23
5.753318
33
6.566212
0
3DFACE
8
HBomb2
62
24.000000
10
-35.491379
20
5.753318
30
6.566212
11
-35.491379
21
5.121762
31
5.041499
12
-27.174091
22
5.753316
32
4.409948
13
-27.174091
23
6.646471
33
6.566212
0
3DFACE
8
HBomb2
62
24.000000
10
-27.174091
20
6.646471
30
6.566212
11
-27.174091
21
5.753316
31
4.409948
12
-18.856804
22
5.121762
32
5.041504
13
-18.856804
23
5.753317
33
6.566212
0
3DFACE
8
HBomb2
62
24.000000
10
-18.856804
20
5.753317
30
6.566212
11
-18.856804
21
5.121762
31
5.041504
12
-15.411655
22
3.597053
32
6.566212
13
-15.411655
23
3.597053
33
6.566212
0
3DFACE
8
HBomb1A1
62
25.000000
10
-34.734459
20
8.581886
30
8.881921
11
-39.184570
21
8.581886
31
12.748413
12
-40.891655
22
8.581886
32
9.188325
13
-40.891655
23
8.581886
33
9.188325
0
3DFACE
8
HBomb1A2
62
26.000000
10
-34.734459
20
6.490942
30
5.149534
11
-39.184570
21
3.756919
31
2.415516
12
-40.891655
22
6.274282
32
4.932872
13
-40.891655
23
6.274282
33
4.932872
0
3DFACE
8
HBomb2A3
62
27.000000
10
-34.734459
20
5.128431
30
5.499710
11
-39.184570
21
7.862451
31
2.765691
12
-40.891655
22
5.345092
32
5.283048
13
-40.891655
23
5.345092
33
5.283048
0
3DFACE
8
HBomb1A3
62
28.000000
10
-34.734459
20
10.351838
30
5.207898
11
-39.184570
21
13.085861
31
2.473881
12
-40.891655
22
10.568500
32
4.991237
13
-40.891655
23
10.568500
33
4.991237
0
3DFACE
8
HBomb2A2
62
29.000000
10
-34.734459
20
1.267535
30
5.441345
11
-39.184570
21
-1.466488
31
2.707327
12
-40.891655
22
1.050873
32
5.224683
13
-40.891655
23
1.050873
33
5.224683
0
3DFACE
8
HBomb2A1
62
30.000000
10
-34.734459
20
3.358479
30
9.173731
11
-39.184570
21
3.358479
31
13.040221
12
-40.891655
22
3.358479
32
9.480137
13
-40.891655
23
3.358479
33
9.480137
0
3DFACE
8
AileD4
62
31.000000
10
-41.930004
20
4.594121
30
12.301465
11
-35.766563
21
5.464120
31
10.149022
12
-34.176884
22
16.514120
32
11.644264
13
-39.410755
23
16.184120
33
12.068824
0
3DFACE
8
AileD4
62
31.000000
10
-35.766563
20
5.464120
30
10.149022
11
-27.160002
21
5.464120
31
9.921465
12
-27.647533
22
16.514120
32
11.521435
13
-34.176884
23
16.514120
33
11.644264
0
3DFACE
8
AileD4
62
31.000000
10
-27.160002
20
5.464120
30
9.921465
11
-20.563030
21
5.464120
31
10.451844
12
-22.642756
22
16.514120
32
11.807720
13
-27.647533
23
16.514120
33
11.521435
0
3DFACE
8
AileD4
62
31.000000
10
-20.563030
20
5.464120
30
10.451844
11
-14.060001
21
5.464120
31
11.681465
12
-17.709246
22
16.514120
32
12.471440
13
-22.642756
23
16.514120
33
11.807720
0
3DFACE
8
AileD3
62
32.000000
10
-13.970001
20
5.464120
30
11.641466
11
-18.750000
21
5.464120
31
14.681465
12
-21.368446
22
16.524120
32
14.047113
13
-17.791922
23
16.524120
33
12.428736
0
3DFACE
8
AileD3
62
32.000000
10
-18.750000
20
5.464120
30
14.681465
11
-27.370001
21
5.464120
31
15.201466
12
-27.818157
22
16.524120
32
14.323941
13
-21.368446
23
16.524120
33
14.047113
0
3DFACE
8
AileD3
62
32.000000
10
-27.370001
20
5.464120
30
15.201466
11
-36.230003
21
4.974120
31
13.201466
12
-34.838573
22
16.194120
32
13.259219
13
-27.818157
23
16.524120
33
14.323941
0
3DFACE
8
AileD3
62
32.000000
10
-36.230003
20
4.974120
30
13.201466
11
-41.959999
21
4.594121
31
12.281466
12
-39.268078
22
16.194120
32
12.088025
13
-34.838573
23
16.194120
33
13.259219
0
3DFACE
8
AileG4
62
33.000000
10
-39.410755
20
-14.965874
30
12.068824
11
-34.176884
21
-15.295875
31
11.644264
12
-35.766563
22
-4.245875
32
10.149022
13
-41.930004
23
-3.375875
33
12.301465
0
3DFACE
8
AileG4
62
33.000000
10
-34.176884
20
-15.295875
30
11.644264
11
-27.647533
21
-15.295875
31
11.521435
12
-27.160002
22
-4.245875
32
9.921465
13
-35.766563
23
-4.245875
33
10.149022
0
3DFACE
8
AileG4
62
33.000000
10
-27.647533
20
-15.295875
30
11.521435
11
-22.642756
21
-15.295875
31
11.807720
12
-20.563030
22
-4.245875
32
10.451844
13
-27.160002
23
-4.245875
33
9.921465
0
3DFACE
8
AileG4
62
33.000000
10
-22.642756
20
-15.295875
30
11.807720
11
-17.709246
21
-15.295875
31
12.471440
12
-14.060001
22
-4.245875
32
11.681465
13
-20.563030
23
-4.245875
33
10.451844
0
3DFACE
8
AileG3
62
34.000000
10
-17.791922
20
-15.305876
30
12.428736
11
-21.368446
21
-15.305876
31
14.047113
12
-18.750000
22
-4.245875
32
14.681465
13
-13.970001
23
-4.245875
33
11.641466
0
3DFACE
8
AileG3
62
34.000000
10
-21.368446
20
-15.305876
30
14.047113
11
-27.818157
21
-15.305876
31
14.323941
12
-27.370001
22
-4.245875
32
15.201466
13
-18.750000
23
-4.245875
33
14.681465
0
3DFACE
8
AileG3
62
34.000000
10
-27.818157
20
-15.305876
30
14.323941
11
-34.838573
21
-14.975877
31
13.259219
12
-36.230003
22
-3.755875
32
13.201466
13
-27.370001
23
-4.245875
33
15.201466
0
3DFACE
8
AileG3
62
34.000000
10
-34.838573
20
-14.975877
30
13.259219
11
-39.268078
21
-14.975877
31
12.088025
12
-41.959999
22
-3.375875
32
12.281466
13
-36.230003
23
-3.755875
33
13.201466
0
3DFACE
8
Cabine
62
35.000000
10
-14.120001
20
0.454122
30
8.731467
11
-35.509998
21
0.435685
31
9.651764
12
-35.509998
22
-3.178884
32
11.064829
13
-14.120001
23
-3.816594
33
10.401044
0
3DFACE
8
Cabine
62
35.000000
10
-14.120001
20
-3.816594
30
10.401044
11
-35.509998
21
-3.178884
31
11.064829
12
-35.509998
22
-4.735582
32
14.619903
13
-14.120001
23
-5.655878
33
14.601465
0
3DFACE
8
Cabine
62
35.000000
10
-14.120001
20
-5.655878
30
14.601465
11
-35.509998
21
-4.735582
31
14.619903
12
-35.509998
22
-3.322517
32
18.234472
13
-14.120001
23
-3.986300
33
18.872181
0
3DFACE
8
Cabine
62
35.000000
10
-14.120001
20
-3.986300
30
18.872181
11
-35.509998
21
-3.322517
31
18.234472
12
-35.509998
22
0.232558
32
19.791168
13
-14.120001
23
0.214121
33
20.711464
0
3DFACE
8
Cabine
62
35.000000
10
-14.120001
20
0.214121
30
20.711464
11
-35.509998
21
0.232558
31
19.791168
12
-35.509998
22
3.847127
32
18.378103
13
-14.120001
23
4.484837
33
19.041887
0
3DFACE
8
Cabine
62
35.000000
10
-14.120001
20
4.484837
30
19.041887
11
-35.509998
21
3.847127
31
18.378103
12
-35.509998
22
5.403825
32
14.823030
13
-14.120001
23
6.324120
33
14.841466
0
3DFACE
8
Cabine
62
35.000000
10
-14.120001
20
6.324120
30
14.841466
11
-35.509998
21
5.403825
31
14.823030
12
-35.509998
22
3.990760
32
11.208459
13
-14.120001
23
4.654543
33
10.570750
0
3DFACE
8
Cabine
62
35.000000
10
-14.120001
20
4.654543
30
10.570750
11
-35.509998
21
3.990760
31
11.208459
12
-35.509998
22
0.435685
32
9.651764
13
-14.120001
23
0.454122
33
8.731467
0
3DFACE
8
FuselageArriere
62
36.000000
10
-35.509998
20
0.605685
30
9.771768
11
-67.729996
21
0.523135
31
16.264954
12
-67.729996
22
-0.087835
32
16.503567
13
-35.509998
23
-2.895498
33
11.139161
0
3DFACE
8
FuselageArriere
62
36.000000
10
-35.509998
20
-2.895498
30
11.139161
11
-67.729996
21
-0.087835
31
16.503567
12
-67.729996
22
-0.351130
32
17.104313
13
-35.509998
23
-4.404315
33
14.581765
0
3DFACE
8
FuselageArriere
62
36.000000
10
-35.509998
20
-4.404315
30
14.581765
11
-67.729996
21
-0.351130
31
17.104313
12
-67.729996
22
-0.112514
32
17.715282
13
-35.509998
23
-3.036921
33
18.082947
0
3DFACE
8
FuselageArriere
62
36.000000
10
-35.509998
20
-3.036921
30
18.082947
11
-67.729996
21
-0.112514
31
17.715282
12
-67.729996
22
0.488233
32
17.978577
13
-35.509998
23
0.405682
33
19.591764
0
3DFACE
8
FuselageArriere
62
36.000000
10
-35.509998
20
0.405682
30
19.591764
11
-67.729996
21
0.488233
31
17.978577
12
-67.729996
22
1.099204
32
17.739964
13
-35.509998
23
3.906865
33
18.224373
0
3DFACE
8
FuselageArriere
62
36.000000
10
-35.509998
20
3.906865
30
18.224373
11
-67.729996
21
1.099204
31
17.739964
12
-67.729996
22
1.362498
32
17.139217
13
-35.509998
23
5.415683
33
14.781768
0
3DFACE
8
FuselageArriere
62
36.000000
10
-35.509998
20
5.415683
30
14.781768
11
-67.729996
21
1.362498
31
17.139217
12
-67.729996
22
1.123883
32
16.528248
13
-35.509998
23
4.048290
33
11.280586
0
3DFACE
8
FuselageArriere
62
36.000000
10
-35.509998
20
4.048290
30
11.280586
11
-67.729996
21
1.123883
31
16.528248
12
-67.729996
22
0.523135
32
16.264954
13
-35.509998
23
0.605685
33
9.771768
0
3DFACE
8
FuselageArriere
62
36.000000
10
-67.729996
20
1.123883
30
16.528248
11
-67.729996
21
1.362498
31
17.139217
12
-67.729996
22
1.099204
32
17.739964
13
-67.729996
23
1.099204
33
17.739964
0
3DFACE
8
FuselageArriere
62
36.000000
10
-67.729996
20
1.123883
30
16.528248
11
-67.729996
21
1.099204
31
17.739964
12
-67.729996
22
0.488233
32
17.978577
13
-67.729996
23
0.488233
33
17.978577
0
3DFACE
8
FuselageArriere
62
36.000000
10
-67.729996
20
1.123883
30
16.528248
11
-67.729996
21
0.488233
31
17.978577
12
-67.729996
22
-0.112514
32
17.715282
13
-67.729996
23
-0.112514
33
17.715282
0
3DFACE
8
FuselageArriere
62
36.000000
10
-67.729996
20
1.123883
30
16.528248
11
-67.729996
21
-0.112514
31
17.715282
12
-67.729996
22
-0.351130
32
17.104313
13
-67.729996
23
-0.351130
33
17.104313
0
3DFACE
8
FuselageArriere
62
36.000000
10
-67.729996
20
1.123883
30
16.528248
11
-67.729996
21
-0.351130
31
17.104313
12
-67.729996
22
-0.087835
32
16.503567
13
-67.729996
23
-0.087835
33
16.503567
0
3DFACE
8
FuselageArriere
62
36.000000
10
-67.729996
20
1.123883
30
16.528248
11
-67.729996
21
-0.087835
31
16.503567
12
-67.729996
22
0.523135
32
16.264954
13
-67.729996
23
0.523135
33
16.264954
0
3DFACE
8
Pale3
62
37.000000
10
1.388846
20
1.264292
30
14.397881
11
1.594822
21
3.433445
31
13.546562
12
1.723155
22
5.427006
32
12.587127
13
1.723155
23
5.427006
33
12.587127
0
3DFACE
8
Pale3
62
37.000000
10
1.388846
20
1.264292
30
14.397881
11
1.723155
21
5.427006
31
12.587127
12
1.773845
22
7.244979
32
11.519576
13
1.773845
23
7.244979
33
11.519576
0
3DFACE
8
Pale3
62
37.000000
10
1.388846
20
1.264292
30
14.397881
11
1.773845
21
7.244979
31
11.519576
12
1.746889
22
8.887362
32
10.343904
13
1.746889
23
8.887362
33
10.343904
0
3DFACE
8
Pale3
62
37.000000
10
1.388846
20
1.264292
30
14.397881
11
1.746889
21
8.887362
31
10.343904
12
1.642291
22
10.354153
32
9.060120
13
1.642291
23
10.354153
33
9.060120
0
3DFACE
8
Pale3
62
37.000000
10
1.388846
20
1.264292
30
14.397881
11
1.642291
21
10.354153
31
9.060120
12
1.499871
22
11.463788
32
7.905165
13
1.499871
23
11.463788
33
7.905165
0
3DFACE
8
Pale3
62
37.000000
10
1.388846
20
1.264292
30
14.397881
11
1.499871
21
11.463788
31
7.905165
12
1.359456
22
12.034682
32
7.116002
13
1.359456
23
12.034682
33
7.116002
0
3DFACE
8
Pale3
62
37.000000
10
1.388846
20
1.264292
30
14.397881
11
1.359456
21
12.034682
31
7.116002
12
1.221043
22
12.066853
32
6.692615
13
1.221043
23
12.066853
33
6.692615
0
3DFACE
8
Pale3
62
37.000000
10
1.388846
20
1.264292
30
14.397881
11
1.221043
21
12.066853
31
6.692615
12
1.084631
22
11.560287
32
6.635012
13
1.084631
23
11.560287
33
6.635012
0
3DFACE
8
Pale3
62
37.000000
10
1.388846
20
1.264292
30
14.397881
11
1.084631
21
11.560287
31
6.635012
12
0.950223
22
10.514995
32
6.943194
13
0.950223
23
10.514995
33
6.943194
0
3DFACE
8
Pale3
62
37.000000
10
1.388846
20
1.264292
30
14.397881
11
0.950223
21
10.514995
31
6.943194
12
0.843775
22
9.080224
32
7.592804
13
0.843775
23
9.080224
33
7.592804
0
3DFACE
8
Pale3
62
37.000000
10
1.388846
20
1.264292
30
14.397881
11
0.843775
21
9.080224
31
7.592804
12
0.791249
22
7.405245
32
8.559476
13
0.791249
23
7.405245
33
8.559476
0
3DFACE
8
Pale3
62
37.000000
10
1.388846
20
1.264292
30
14.397881
11
0.791249
21
7.405245
31
8.559476
12
0.792648
22
5.490047
32
9.843230
13
0.792648
23
5.490047
33
9.843230
0
3DFACE
8
Pale3
62
37.000000
10
1.388846
20
1.264292
30
14.397881
11
0.792648
21
5.490047
31
9.843230
12
0.847967
22
3.334641
32
11.444050
13
0.847967
23
3.334641
33
11.444050
0
3DFACE
8
Pale3
62
37.000000
10
1.388846
20
1.264292
30
14.397881
11
0.847967
21
3.334641
31
11.444050
12
0.957205
22
0.939015
32
13.361935
13
0.957205
23
0.939015
33
13.361935
0
3DFACE
8
Pale2
62
38.000000
10
1.388846
20
-0.621095
30
16.068880
11
1.594822
21
-1.118367
31
18.345432
12
1.723155
22
-1.428190
32
20.536051
13
1.723155
23
-1.428190
33
20.536051
0
3DFACE
8
Pale2
62
38.000000
10
1.388846
20
-0.621095
30
16.068880
11
1.723155
21
-1.428190
31
20.536051
12
1.773845
22
-1.550566
32
22.640739
13
1.773845
23
-1.550566
33
22.640739
0
3DFACE
8
Pale2
62
38.000000
10
1.388846
20
-0.621095
30
16.068880
11
1.773845
21
-1.550566
31
22.640739
12
1.746889
22
-1.485488
32
24.659500
13
1.746889
23
-1.485488
33
24.659500
0
3DFACE
8
Pale2
62
38.000000
10
1.388846
20
-0.621095
30
16.068880
11
1.746889
21
-1.485488
31
24.659500
12
1.642291
22
-1.232967
32
26.592325
13
1.642291
23
-1.232967
33
26.592325
0
3DFACE
8
Pale2
62
38.000000
10
1.388846
20
-0.621095
30
16.068880
11
1.642291
21
-1.232967
31
26.592325
12
1.499871
22
-0.889137
32
28.156610
13
1.499871
23
-0.889137
33
28.156610
0
3DFACE
8
Pale2
62
38.000000
10
1.388846
20
-0.621095
30
16.068880
11
1.499871
21
-0.889137
31
28.156610
12
1.359456
22
-0.550144
32
29.069727
13
1.359456
23
-0.550144
33
29.069727
0
3DFACE
8
Pale2
62
38.000000
10
1.388846
20
-0.621095
30
16.068880
11
1.359456
21
-0.550144
31
29.069727
12
1.221043
22
-0.215984
32
29.331697
13
1.221043
23
-0.215984
33
29.331697
0
3DFACE
8
Pale2
62
38.000000
10
1.388846
20
-0.621095
30
16.068880
11
1.221043
21
-0.215984
31
29.331697
12
1.084631
22
0.113342
32
28.942507
13
1.084631
23
0.113342
33
28.942507
0
3DFACE
8
Pale2
62
38.000000
10
1.388846
20
-0.621095
30
16.068880
11
1.084631
21
0.113342
31
28.942507
12
0.950223
22
0.437832
32
27.902161
13
0.950223
23
0.437832
33
27.902161
0
3DFACE
8
Pale2
62
38.000000
10
1.388846
20
-0.621095
30
16.068880
11
0.950223
21
0.437832
31
27.902161
12
0.843775
22
0.694819
32
26.348289
13
0.843775
23
0.694819
33
26.348289
0
3DFACE
8
Pale2
62
38.000000
10
1.388846
20
-0.621095
30
16.068880
11
0.843775
21
0.694819
31
26.348289
12
0.791249
22
0.821629
32
24.418541
13
0.791249
23
0.821629
33
24.418541
0
3DFACE
8
Pale2
62
38.000000
10
1.388846
20
-0.621095
30
16.068880
11
0.791249
21
0.821629
31
24.418541
12
0.792648
22
0.818253
32
22.112896
13
0.792648
23
0.818253
33
22.112896
0
3DFACE
8
Pale2
62
38.000000
10
1.388846
20
-0.621095
30
16.068880
11
0.792648
21
0.818253
31
22.112896
12
0.847967
22
0.684701
32
19.431374
13
0.847967
23
0.684701
33
19.431374
0
3DFACE
8
Pale2
62
38.000000
10
1.388846
20
-0.621095
30
16.068880
11
0.847967
21
0.684701
31
19.431374
12
0.957205
22
0.420977
32
16.373964
13
0.957205
23
0.420977
33
16.373964
0
3DFACE
8
Pale1
62
39.000000
10
1.388846
20
-0.308079
30
13.871125
11
1.594822
21
-1.924694
31
12.192873
12
1.723155
22
-3.573998
32
10.718223
13
1.723155
23
-3.573998
33
10.718223
0
3DFACE
8
Pale1
62
39.000000
10
1.388846
20
-0.308079
30
13.871125
11
1.723155
21
-3.573998
31
10.718223
12
1.773845
22
-5.255995
32
9.447168
13
1.773845
23
-5.255995
33
9.447168
0
3DFACE
8
Pale1
62
39.000000
10
1.388846
20
-0.308079
30
13.871125
11
1.773845
21
-5.255995
31
9.447168
12
1.746889
22
-6.970688
32
8.379714
13
1.746889
23
-6.970688
33
8.379714
0
3DFACE
8
Pale1
62
39.000000
10
1.388846
20
-0.308079
30
13.871125
11
1.746889
21
-6.970688
31
8.379714
12
1.642291
22
-8.718067
32
7.515860
13
1.642291
23
-8.718067
33
7.515860
0
3DFACE
8
Pale1
62
39.000000
10
1.388846
20
-0.308079
30
13.871125
11
1.642291
21
-8.718067
31
7.515860
12
1.499871
22
-10.209744
32
6.932673
13
1.499871
23
-10.209744
33
6.932673
0
3DFACE
8
Pale1
62
39.000000
10
1.388846
20
-0.308079
30
13.871125
11
1.499871
21
-10.209744
31
6.932673
12
1.359456
22
-11.157308
32
6.707235
13
1.359456
23
-11.157308
33
6.707235
0
3DFACE
8
Pale1
62
39.000000
10
1.388846
20
-0.308079
30
13.871125
11
1.359456
21
-11.157308
31
6.707235
12
1.221043
22
-11.560777
32
6.839535
13
1.221043
23
-11.560777
33
6.839535
0
3DFACE
8
Pale1
62
39.000000
10
1.388846
20
-0.308079
30
13.871125
11
1.221043
21
-11.560777
31
6.839535
12
1.084631
22
-11.420140
32
7.329585
13
1.084631
23
-11.420140
33
7.329585
0
3DFACE
8
Pale1
62
39.000000
10
1.388846
20
-0.308079
30
13.871125
11
1.084631
21
-11.420140
31
7.329585
12
0.950223
22
-10.735402
32
8.177372
13
0.950223
23
-10.735402
33
8.177372
0
3DFACE
8
Pale1
62
39.000000
10
1.388846
20
-0.308079
30
13.871125
11
0.950223
21
-10.735402
31
8.177372
12
0.843775
22
-9.586179
32
9.254333
13
0.843775
23
-9.586179
33
9.254333
0
3DFACE
8
Pale1
62
39.000000
10
1.388846
20
-0.308079
30
13.871125
11
0.843775
21
-9.586179
31
9.254333
12
0.791249
22
-8.052102
32
10.431884
13
0.791249
23
-8.052102
33
10.431884
0
3DFACE
8
Pale1
62
39.000000
10
1.388846
20
-0.308079
30
13.871125
11
0.791249
21
-8.052102
31
10.431884
12
0.792648
22
-6.133154
32
11.710023
13
0.792648
23
-6.133154
33
11.710023
0
3DFACE
8
Pale1
62
39.000000
10
1.388846
20
-0.308079
30
13.871125
11
0.792648
21
-6.133154
31
11.710023
12
0.847967
22
-3.829352
32
13.088753
13
0.847967
23
-3.829352
33
13.088753
0
3DFACE
8
Pale1
62
39.000000
10
1.388846
20
-0.308079
30
13.871125
11
0.847967
21
-3.829352
31
13.088753
12
0.957205
22
-1.140691
32
14.568081
13
0.957205
23
-1.140691
33
14.568081
0
3DFACE
8
MoyeuPale
62
40.000000
10
3.070999
20
0.301506
30
14.217760
11
3.070999
21
0.301506
31
14.217760
12
1.569889
22
2.901507
32
14.217760
13
1.569889
23
1.601506
33
11.966093
0
3DFACE
8
MoyeuPale
62
40.000000
10
3.070999
20
0.301506
30
14.217760
11
3.070999
21
0.301506
31
14.217760
12
1.569889
22
1.601506
32
11.966093
13
1.569889
23
-0.998493
33
11.966093
0
3DFACE
8
MoyeuPale
62
40.000000
10
3.070999
20
0.301506
30
14.217760
11
3.070999
21
0.301506
31
14.217760
12
1.569889
22
-0.998493
32
11.966093
13
1.569889
23
-2.298492
33
14.217760
0
3DFACE
8
MoyeuPale
62
40.000000
10
3.070999
20
0.301506
30
14.217760
11
3.070999
21
0.301506
31
14.217760
12
1.569889
22
-2.298492
32
14.217760
13
1.569889
23
-0.998493
33
16.469423
0
3DFACE
8
MoyeuPale
62
40.000000
10
3.070999
20
0.301506
30
14.217760
11
3.070999
21
0.301506
31
14.217760
12
1.569889
22
-0.998493
32
16.469423
13
1.569889
23
1.601506
33
16.469423
0
3DFACE
8
MoyeuPale
62
40.000000
10
3.070999
20
0.301506
30
14.217760
11
3.070999
21
0.301506
31
14.217760
12
1.569889
22
1.601506
32
16.469423
13
1.569889
23
2.901507
33
14.217760
0
3DFACE
8
MoyeuPale
62
40.000000
10
-0.453831
20
1.601506
30
11.966089
11
1.569889
21
1.601506
31
11.966093
12
1.569889
22
2.901507
32
14.217760
13
-0.453831
23
2.901507
33
14.217760
0
3DFACE
8
MoyeuPale
62
40.000000
10
-0.453831
20
-0.998493
30
11.966089
11
1.569889
21
-0.998493
31
11.966093
12
1.569889
22
1.601506
32
11.966093
13
-0.453831
23
1.601506
33
11.966089
0
3DFACE
8
MoyeuPale
62
40.000000
10
-0.453831
20
-2.298492
30
14.217760
11
1.569889
21
-2.298492
31
14.217760
12
1.569889
22
-0.998493
32
11.966093
13
-0.453831
23
-0.998493
33
11.966089
0
3DFACE
8
MoyeuPale
62
40.000000
10
-0.453831
20
-0.998493
30
16.469427
11
1.569889
21
-0.998493
31
16.469423
12
1.569889
22
-2.298492
32
14.217760
13
-0.453831
23
-2.298492
33
14.217760
0
3DFACE
8
MoyeuPale
62
40.000000
10
-0.453831
20
1.601506
30
16.469427
11
1.569889
21
1.601506
31
16.469423
12
1.569889
22
-0.998493
32
16.469423
13
-0.453831
23
-0.998493
33
16.469427
0
3DFACE
8
MoyeuPale
62
40.000000
10
-0.453831
20
2.901507
30
14.217760
11
1.569889
21
2.901507
31
14.217760
12
1.569889
22
1.601506
32
16.469423
13
-0.453831
23
1.601506
33
16.469427
0
3DFACE
8
CharniereGauche
62
41.000000
10
-28.282120
20
-19.759144
30
11.761363
11
-28.282120
21
-19.769144
31
11.873862
12
-28.282120
22
-19.689146
32
11.761363
13
-28.282120
23
-19.689146
33
11.761363
0
3DFACE
8
CharniereDroite
62
42.000000
10
-27.882122
20
19.773462
30
11.657850
11
-27.882122
21
19.859949
31
11.571362
12
-27.882122
22
19.699947
32
11.571362
13
-27.882122
23
19.699947
33
11.571362
0
3DFACE
8
CharnInclinG
62
43.000000
10
-34.280407
20
-23.718298
30
13.312474
11
-34.432911
21
-23.518251
31
13.312474
12
-34.183414
22
-23.486204
32
13.312474
13
-34.183414
23
-23.486204
33
13.312474
0
3DFACE
8
RoueArriere
62
44.000000
10
-58.672340
20
0.998676
30
7.450898
11
-58.672207
21
0.408676
31
7.451278
12
-57.218494
22
0.408676
32
7.445329
13
-57.218365
23
0.998676
33
7.444948
0
3DFACE
8
RoueArriere
62
44.000000
10
-57.218365
20
0.998676
30
7.444948
11
-57.218494
21
0.408676
31
7.445329
12
-56.101067
22
0.408676
32
8.375196
13
-56.100731
23
0.998676
33
8.374987
0
3DFACE
8
RoueArriere
62
44.000000
10
-56.100731
20
0.998676
30
8.374987
11
-56.101067
21
0.408676
31
8.375196
12
-55.842781
22
0.408676
32
9.805784
13
-55.842392
23
0.998676
33
9.805840
0
3DFACE
8
RoueArriere
62
44.000000
10
-55.842392
20
0.998676
30
9.805840
11
-55.842781
21
0.408676
31
9.805784
12
-56.564476
22
0.408676
32
11.067705
13
-56.564224
23
0.998676
33
11.067993
0
3DFACE
8
RoueArriere
62
44.000000
10
-56.564224
20
0.998676
30
11.067993
11
-56.564476
21
0.408676
31
11.067705
12
-57.928482
22
0.408676
32
11.570492
13
-57.928482
23
0.998676
33
11.570872
0
3DFACE
8
RoueArriere
62
44.000000
10
-57.928482
20
0.998676
30
11.570872
11
-57.928482
21
0.408676
31
11.570492
12
-59.296555
22
0.408676
32
11.078885
13
-59.296806
23
0.998676
33
11.079174
0
3DFACE
8
RoueArriere
62
44.000000
10
-59.296806
20
0.998676
30
11.079174
11
-59.296555
21
0.408676
31
11.078885
12
-60.028557
22
0.408676
32
9.822912
13
-60.028946
23
0.998676
33
9.822970
0
3DFACE
8
RoueArriere
62
44.000000
10
-60.028946
20
0.998676
30
9.822970
11
-60.028557
21
0.408676
31
9.822912
12
-59.781982
22
0.408676
32
8.390260
13
-59.782322
23
0.998676
33
8.390054
0
3DFACE
8
RoueArriere
62
44.000000
10
-59.782322
20
0.998676
30
8.390054
11
-59.781982
21
0.408676
31
8.390260
12
-58.672207
22
0.408676
32
7.451278
13
-58.672340
23
0.998676
33
7.450898
0
3DFACE
8
RoueArriere
62
44.000000
10
-59.781982
20
0.408676
30
8.390260
11
-60.028557
21
0.408676
31
9.822912
12
-59.296555
22
0.408676
32
11.078885
13
-59.296555
23
0.408676
33
11.078885
0
3DFACE
8
RoueArriere
62
44.000000
10
-59.781982
20
0.408676
30
8.390260
11
-59.296555
21
0.408676
31
11.078885
12
-57.928482
22
0.408676
32
11.570492
13
-57.928482
23
0.408676
33
11.570492
0
3DFACE
8
RoueArriere
62
44.000000
10
-59.781982
20
0.408676
30
8.390260
11
-57.928482
21
0.408676
31
11.570492
12
-56.564476
22
0.408676
32
11.067705
13
-56.564476
23
0.408676
33
11.067705
0
3DFACE
8
RoueArriere
62
44.000000
10
-59.781982
20
0.408676
30
8.390260
11
-56.564476
21
0.408676
31
11.067705
12
-55.842781
22
0.408676
32
9.805784
13
-55.842781
23
0.408676
33
9.805784
0
3DFACE
8
RoueArriere
62
44.000000
10
-59.781982
20
0.408676
30
8.390260
11
-55.842781
21
0.408676
31
9.805784
12
-56.101067
22
0.408676
32
8.375196
13
-56.101067
23
0.408676
33
8.375196
0
3DFACE
8
RoueArriere
62
44.000000
10
-59.781982
20
0.408676
30
8.390260
11
-56.101067
21
0.408676
31
8.375196
12
-57.218494
22
0.408676
32
7.445329
13
-57.218494
23
0.408676
33
7.445329
0
3DFACE
8
RoueArriere
62
44.000000
10
-59.781982
20
0.408676
30
8.390260
11
-57.218494
21
0.408676
31
7.445329
12
-58.672207
22
0.408676
32
7.451278
13
-58.672207
23
0.408676
33
7.451278
0
3DFACE
8
RoueArriere
62
44.000000
10
-58.672340
20
0.998676
30
7.450898
11
-57.218365
21
0.998676
31
7.444948
12
-56.100731
22
0.998676
32
8.374987
13
-56.100731
23
0.998676
33
8.374987
0
3DFACE
8
RoueArriere
62
44.000000
10
-58.672340
20
0.998676
30
7.450898
11
-56.100731
21
0.998676
31
8.374987
12
-55.842392
22
0.998676
32
9.805840
13
-55.842392
23
0.998676
33
9.805840
0
3DFACE
8
RoueArriere
62
44.000000
10
-58.672340
20
0.998676
30
7.450898
11
-55.842392
21
0.998676
31
9.805840
12
-56.564224
22
0.998676
32
11.067993
13
-56.564224
23
0.998676
33
11.067993
0
3DFACE
8
RoueArriere
62
44.000000
10
-58.672340
20
0.998676
30
7.450898
11
-56.564224
21
0.998676
31
11.067993
12
-57.928482
22
0.998676
32
11.570872
13
-57.928482
23
0.998676
33
11.570872
0
3DFACE
8
RoueArriere
62
44.000000
10
-58.672340
20
0.998676
30
7.450898
11
-57.928482
21
0.998676
31
11.570872
12
-59.296806
22
0.998676
32
11.079174
13
-59.296806
23
0.998676
33
11.079174
0
3DFACE
8
RoueArriere
62
44.000000
10
-58.672340
20
0.998676
30
7.450898
11
-59.296806
21
0.998676
31
11.079174
12
-60.028946
22
0.998676
32
9.822970
13
-60.028946
23
0.998676
33
9.822970
0
3DFACE
8
RoueArriere
62
44.000000
10
-58.672340
20
0.998676
30
7.450898
11
-60.028946
21
0.998676
31
9.822970
12
-59.782322
22
0.998676
32
8.390054
13
-59.782322
23
0.998676
33
8.390054
0
3DFACE
8
PiedArriere
62
45.000000
10
-54.644440
20
1.068639
30
13.480258
11
-56.615688
21
1.068639
31
10.705024
12
-56.697590
22
0.135383
32
10.814395
13
-54.694000
23
0.135383
33
13.607594
0
3DFACE
8
PiedArriere
62
45.000000
10
-54.694000
20
0.135383
30
13.607594
11
-56.697590
21
0.135383
31
10.814395
12
-57.141083
22
0.720343
32
11.406651
13
-55.372349
23
0.720343
33
13.767114
0
3DFACE
8
PiedArriere
62
45.000000
10
-55.372349
20
0.720343
30
13.767114
11
-57.141083
21
0.720343
31
11.406651
12
-56.615688
22
1.068639
32
10.705024
13
-54.644440
23
1.068639
33
13.480258
0
3DFACE
8
AileronD
62
46.000000
10
-45.879818
20
4.045380
30
15.636719
11
-45.156090
21
3.520034
31
16.236719
12
-50.519939
22
8.116426
32
16.236719
13
-50.928146
23
8.371392
33
15.636719
0
3DFACE
8
AileronD
62
46.000000
10
-50.928146
20
8.371392
30
15.636719
11
-50.519939
21
8.116426
31
16.236719
12
-55.278252
22
21.740639
32
16.236719
13
-55.406559
23
21.194176
33
15.636719
0
3DFACE
8
AileronD
62
46.000000
10
-55.406559
20
21.194176
30
15.636719
11
-55.278252
21
21.740639
31
16.236719
12
-57.940948
22
22.759548
32
16.236719
13
-57.912624
23
22.153156
33
15.636719
0
3DFACE
8
AileronD
62
46.000000
10
-57.912624
20
22.153156
30
15.636719
11
-57.940948
21
22.759548
31
16.236719
12
-64.392586
22
21.056479
32
16.236719
13
-63.984753
23
20.550264
33
15.636719
0
3DFACE
8
AileronD
62
46.000000
10
-63.984753
20
20.550264
30
15.636719
11
-64.392586
21
21.056479
31
16.236719
12
-65.311035
22
17.373722
32
16.236719
13
-64.904533
23
17.646128
33
15.636719
0
3DFACE
8
AileronD
62
46.000000
10
-64.904533
20
17.646128
30
15.636719
11
-65.311035
21
17.373722
31
16.236719
12
-62.941307
22
17.161308
32
16.236719
13
-62.675915
23
17.463694
33
15.636719
0
3DFACE
8
AileronD
62
46.000000
10
-62.675915
20
17.463694
30
15.636719
11
-62.941307
21
17.161308
31
16.236719
12
-63.376038
22
4.231268
32
16.236719
13
-62.915577
23
3.573314
33
15.636719
0
3DFACE
8
AileronD
62
46.000000
10
-62.915577
20
3.573314
30
15.636719
11
-63.376038
21
4.231268
31
16.236719
12
-67.437973
22
4.025974
32
16.236719
13
-67.114960
23
3.360684
33
15.636719
0
3DFACE
8
AileronD
62
46.000000
10
-67.114960
20
3.360684
30
15.636719
11
-67.437973
21
4.025974
31
16.236719
12
-67.763275
22
1.079902
32
16.236719
13
-67.157173
23
1.748782
33
15.636719
0
3DFACE
8
AileronD
62
46.000000
10
-67.157173
20
1.748782
30
15.636719
11
-67.763275
21
1.079902
31
16.236719
12
-45.156090
22
3.520034
32
16.236719
13
-45.879818
23
4.045380
33
15.636719
0
3DFACE
8
AileronD
62
46.000000
10
-45.156090
20
3.520034
30
16.236719
11
-46.121056
21
4.220489
31
16.836718
12
-51.064217
22
8.456381
32
16.836718
13
-50.519939
23
8.116426
33
16.236719
0
3DFACE
8
AileronD
62
46.000000
10
-50.519939
20
8.116426
30
16.236719
11
-51.064217
21
8.456381
31
16.836718
12
-55.449329
22
21.012035
32
16.836718
13
-55.278252
23
21.740639
33
16.236719
0
3DFACE
8
AileronD
62
46.000000
10
-55.278252
20
21.740639
30
16.236719
11
-55.449329
21
21.012035
31
16.836718
12
-57.903183
22
21.951025
32
16.836718
13
-57.940948
23
22.759548
33
16.236719
0
3DFACE
8
AileronD
62
46.000000
10
-57.940948
20
22.759548
30
16.236719
11
-57.903183
21
21.951025
31
16.836718
12
-63.848812
22
20.381523
32
16.836718
13
-64.392586
23
21.056479
33
16.236719
0
3DFACE
8
AileronD
62
46.000000
10
-64.392586
20
21.056479
30
16.236719
11
-63.848812
21
20.381523
31
16.836718
12
-64.749428
22
17.537895
32
16.836718
13
-65.311035
23
17.373722
33
16.236719
0
3DFACE
8
AileronD
62
46.000000
10
-65.311035
20
17.373722
30
16.236719
11
-64.749428
21
17.537895
31
16.836718
12
-62.567238
22
17.359259
32
16.836718
13
-62.941307
23
17.161308
33
16.236719
0
3DFACE
8
AileronD
62
46.000000
10
-62.941307
20
17.161308
30
16.236719
11
-62.567238
21
17.359259
31
16.836718
12
-62.801910
22
3.758258
32
16.836718
13
-63.376038
23
4.231268
33
16.236719
0
3DFACE
8
AileronD
62
46.000000
10
-63.376038
20
4.231268
30
16.236719
11
-62.801910
21
3.758258
31
16.836718
12
-66.953011
22
3.948134
32
16.836718
13
-67.437973
23
4.025974
33
16.236719
0
3DFACE
8
AileronD
62
46.000000
10
-67.437973
20
4.025974
30
16.236719
11
-66.953011
21
3.948134
31
16.836718
12
-66.955139
22
1.971738
32
16.836718
13
-67.763275
23
1.079902
33
16.236719
0
3DFACE
8
AileronD
62
46.000000
10
-67.763275
20
1.079902
30
16.236719
11
-66.955139
21
1.971738
31
16.836718
12
-46.121056
22
4.220489
32
16.836718
13
-45.156090
23
3.520034
33
16.236719
0
3DFACE
8
AileronD
62
46.000000
10
-50.928146
20
8.371392
30
15.636719
11
-55.406559
21
21.194176
31
15.636719
12
-57.912624
22
22.153156
32
15.636719
13
-57.912624
23
22.153156
33
15.636719
0
3DFACE
8
AileronD
62
46.000000
10
-50.928146
20
8.371392
30
15.636719
11
-57.912624
21
22.153156
31
15.636719
12
-63.984753
22
20.550264
32
15.636719
13
-63.984753
23
20.550264
33
15.636719
0
3DFACE
8
AileronD
62
46.000000
10
-63.984753
20
20.550264
30
15.636719
11
-64.904533
21
17.646128
31
15.636719
12
-62.675915
22
17.463694
32
15.636719
13
-62.675915
23
17.463694
33
15.636719
0
3DFACE
8
AileronD
62
46.000000
10
-62.915577
20
3.573314
30
15.636719
11
-67.114960
21
3.360684
31
15.636719
12
-67.157173
22
1.748782
32
15.636719
13
-67.157173
23
1.748782
33
15.636719
0
3DFACE
8
AileronD
62
46.000000
10
-62.915577
20
3.573314
30
15.636719
11
-67.157173
21
1.748782
31
15.636719
12
-45.879818
22
4.045380
32
15.636719
13
-45.879818
23
4.045380
33
15.636719
0
3DFACE
8
AileronD
62
46.000000
10
-62.915577
20
3.573314
30
15.636719
11
-45.879818
21
4.045380
31
15.636719
12
-50.928146
22
8.371392
32
15.636719
13
-50.928146
23
8.371392
33
15.636719
0
3DFACE
8
AileronD
62
46.000000
10
-50.928146
20
8.371392
30
15.636719
11
-63.984753
21
20.550264
31
15.636719
12
-62.675915
22
17.463694
32
15.636719
13
-62.675915
23
17.463694
33
15.636719
0
3DFACE
8
AileronD
62
46.000000
10
-62.675915
20
17.463694
30
15.636719
11
-62.915577
21
3.573314
31
15.636719
12
-50.928146
22
8.371392
32
15.636719
13
-50.928146
23
8.371392
33
15.636719
0
3DFACE
8
AileronD
62
46.000000
10
-66.955139
20
1.971738
30
16.836718
11
-66.953011
21
3.948134
31
16.836718
12
-62.801910
22
3.758258
32
16.836718
13
-62.801910
23
3.758258
33
16.836718
0
3DFACE
8
AileronD
62
46.000000
10
-62.567238
20
17.359259
30
16.836718
11
-64.749428
21
17.537895
31
16.836718
12
-63.848812
22
20.381523
32
16.836718
13
-63.848812
23
20.381523
33
16.836718
0
3DFACE
8
AileronD
62
46.000000
10
-62.567238
20
17.359259
30
16.836718
11
-63.848812
21
20.381523
31
16.836718
12
-57.903183
22
21.951025
32
16.836718
13
-57.903183
23
21.951025
33
16.836718
0
3DFACE
8
AileronD
62
46.000000
10
-62.567238
20
17.359259
30
16.836718
11
-57.903183
21
21.951025
31
16.836718
12
-55.449329
22
21.012035
32
16.836718
13
-55.449329
23
21.012035
33
16.836718
0
3DFACE
8
AileronD
62
46.000000
10
-62.567238
20
17.359259
30
16.836718
11
-55.449329
21
21.012035
31
16.836718
12
-51.064217
22
8.456381
32
16.836718
13
-51.064217
23
8.456381
33
16.836718
0
3DFACE
8
AileronD
62
46.000000
10
-62.567238
20
17.359259
30
16.836718
11
-51.064217
21
8.456381
31
16.836718
12
-46.121056
22
4.220489
32
16.836718
13
-46.121056
23
4.220489
33
16.836718
0
3DFACE
8
AileronD
62
46.000000
10
-46.121056
20
4.220489
30
16.836718
11
-66.955139
21
1.971738
31
16.836718
12
-62.801910
22
3.758258
32
16.836718
13
-62.801910
23
3.758258
33
16.836718
0
3DFACE
8
AileronD
62
46.000000
10
-62.801910
20
3.758258
30
16.836718
11
-62.567238
21
17.359259
31
16.836718
12
-46.121056
22
4.220489
32
16.836718
13
-46.121056
23
4.220489
33
16.836718
0
3DFACE
8
AileronG
62
47.000000
10
-50.928146
20
-7.211586
30
15.636719
11
-50.519939
21
-6.956620
31
16.236719
12
-45.156090
22
-2.360228
32
16.236719
13
-45.879818
23
-2.885574
33
15.636719
0
3DFACE
8
AileronG
62
47.000000
10
-55.406559
20
-20.034367
30
15.636719
11
-55.278252
21
-20.580830
31
16.236719
12
-50.519939
22
-6.956620
32
16.236719
13
-50.928146
23
-7.211586
33
15.636719
0
3DFACE
8
AileronG
62
47.000000
10
-57.912624
20
-20.993347
30
15.636719
11
-57.940948
21
-21.599739
31
16.236719
12
-55.278252
22
-20.580830
32
16.236719
13
-55.406559
23
-20.034367
33
15.636719
0
3DFACE
8
AileronG
62
47.000000
10
-63.984753
20
-19.390455
30
15.636719
11
-64.392586
21
-19.896669
31
16.236719
12
-57.940948
22
-21.599739
32
16.236719
13
-57.912624
23
-20.993347
33
15.636719
0
3DFACE
8
AileronG
62
47.000000
10
-64.904533
20
-16.486319
30
15.636719
11
-65.311035
21
-16.213915
31
16.236719
12
-64.392586
22
-19.896669
32
16.236719
13
-63.984753
23
-19.390455
33
15.636719
0
3DFACE
8
AileronG
62
47.000000
10
-62.675915
20
-16.303885
30
15.636719
11
-62.941307
21
-16.001501
31
16.236719
12
-65.311035
22
-16.213915
32
16.236719
13
-64.904533
23
-16.486319
33
15.636719
0
3DFACE
8
AileronG
62
47.000000
10
-62.915577
20
-2.413508
30
15.636719
11
-63.376038
21
-3.071462
31
16.236719
12
-62.941307
22
-16.001501
32
16.236719
13
-62.675915
23
-16.303885
33
15.636719
0
3DFACE
8
AileronG
62
47.000000
10
-67.114960
20
-2.200878
30
15.636719
11
-67.437973
21
-2.866168
31
16.236719
12
-63.376038
22
-3.071462
32
16.236719
13
-62.915577
23
-2.413508
33
15.636719
0
3DFACE
8
AileronG
62
47.000000
10
-67.157173
20
-0.588975
30
15.636719
11
-67.763275
21
0.079904
31
16.236719
12
-67.437973
22
-2.866168
32
16.236719
13
-67.114960
23
-2.200878
33
15.636719
0
3DFACE
8
AileronG
62
47.000000
10
-45.879818
20
-2.885574
30
15.636719
11
-45.156090
21
-2.360228
31
16.236719
12
-67.763275
22
0.079904
32
16.236719
13
-67.157173
23
-0.588975
33
15.636719
0
3DFACE
8
AileronG
62
47.000000
10
-50.519939
20
-6.956620
30
16.236719
11
-51.064217
21
-7.296575
31
16.836718
12
-46.121056
22
-3.060682
32
16.836718
13
-45.156090
23
-2.360228
33
16.236719
0
3DFACE
8
AileronG
62
47.000000
10
-55.278252
20
-20.580830
30
16.236719
11
-55.449329
21
-19.852226
31
16.836718
12
-51.064217
22
-7.296575
32
16.836718
13
-50.519939
23
-6.956620
33
16.236719
0
3DFACE
8
AileronG
62
47.000000
10
-57.940948
20
-21.599739
30
16.236719
11
-57.903183
21
-20.791216
31
16.836718
12
-55.449329
22
-19.852226
32
16.836718
13
-55.278252
23
-20.580830
33
16.236719
0
3DFACE
8
AileronG
62
47.000000
10
-64.392586
20
-19.896669
30
16.236719
11
-63.848812
21
-19.221714
31
16.836718
12
-57.903183
22
-20.791216
32
16.836718
13
-57.940948
23
-21.599739
33
16.236719
0
3DFACE
8
AileronG
62
47.000000
10
-65.311035
20
-16.213915
30
16.236719
11
-64.749428
21
-16.378086
31
16.836718
12
-63.848812
22
-19.221714
32
16.836718
13
-64.392586
23
-19.896669
33
16.236719
0
3DFACE
8
AileronG
62
47.000000
10
-62.941307
20
-16.001501
30
16.236719
11
-62.567238
21
-16.199450
31
16.836718
12
-64.749428
22
-16.378086
32
16.836718
13
-65.311035
23
-16.213915
33
16.236719
0
3DFACE
8
AileronG
62
47.000000
10
-63.376038
20
-3.071462
30
16.236719
11
-62.801910
21
-2.598452
31
16.836718
12
-62.567238
22
-16.199450
32
16.836718
13
-62.941307
23
-16.001501
33
16.236719
0
3DFACE
8
AileronG
62
47.000000
10
-67.437973
20
-2.866168
30
16.236719
11
-66.953011
21
-2.788328
31
16.836718
12
-62.801910
22
-2.598452
32
16.836718
13
-63.376038
23
-3.071462
33
16.236719
0
3DFACE
8
AileronG
62
47.000000
10
-67.763275
20
0.079904
30
16.236719
11
-66.955139
21
-0.811932
31
16.836718
12
-66.953011
22
-2.788328
32
16.836718
13
-67.437973
23
-2.866168
33
16.236719
0
3DFACE
8
AileronG
62
47.000000
10
-45.156090
20
-2.360228
30
16.236719
11
-46.121056
21
-3.060682
31
16.836718
12
-66.955139
22
-0.811932
32
16.836718
13
-67.763275
23
0.079904
33
16.236719
0
3DFACE
8
AileronG
62
47.000000
10
-67.157173
20
-0.588975
30
15.636719
11
-67.114960
21
-2.200878
31
15.636719
12
-62.915577
22
-2.413508
32
15.636719
13
-62.915577
23
-2.413508
33
15.636719
0
3DFACE
8
AileronG
62
47.000000
10
-62.675915
20
-16.303885
30
15.636719
11
-64.904533
21
-16.486319
31
15.636719
12
-63.984753
22
-19.390455
32
15.636719
13
-63.984753
23
-19.390455
33
15.636719
0
3DFACE
8
AileronG
62
47.000000
10
-62.675915
20
-16.303885
30
15.636719
11
-63.984753
21
-19.390455
31
15.636719
12
-57.912624
22
-20.993347
32
15.636719
13
-57.912624
23
-20.993347
33
15.636719
0
3DFACE
8
AileronG
62
47.000000
10
-62.675915
20
-16.303885
30
15.636719
11
-57.912624
21
-20.993347
31
15.636719
12
-55.406559
22
-20.034367
32
15.636719
13
-55.406559
23
-20.034367
33
15.636719
0
3DFACE
8
AileronG
62
47.000000
10
-62.675915
20
-16.303885
30
15.636719
11
-55.406559
21
-20.034367
31
15.636719
12
-50.928146
22
-7.211586
32
15.636719
13
-50.928146
23
-7.211586
33
15.636719
0
3DFACE
8
AileronG
62
47.000000
10
-62.675915
20
-16.303885
30
15.636719
11
-50.928146
21
-7.211586
31
15.636719
12
-45.879818
22
-2.885574
32
15.636719
13
-45.879818
23
-2.885574
33
15.636719
0
3DFACE
8
AileronG
62
47.000000
10
-45.879818
20
-2.885574
30
15.636719
11
-67.157173
21
-0.588975
31
15.636719
12
-62.915577
22
-2.413508
32
15.636719
13
-62.915577
23
-2.413508
33
15.636719
0
3DFACE
8
AileronG
62
47.000000
10
-62.915577
20
-2.413508
30
15.636719
11
-62.675915
21
-16.303885
31
15.636719
12
-45.879818
22
-2.885574
32
15.636719
13
-45.879818
23
-2.885574
33
15.636719
0
3DFACE
8
AileronG
62
47.000000
10
-51.064217
20
-7.296575
30
16.836718
11
-55.449329
21
-19.852226
31
16.836718
12
-57.903183
22
-20.791216
32
16.836718
13
-57.903183
23
-20.791216
33
16.836718
0
3DFACE
8
AileronG
62
47.000000
10
-51.064217
20
-7.296575
30
16.836718
11
-57.903183
21
-20.791216
31
16.836718
12
-63.848812
22
-19.221714
32
16.836718
13
-63.848812
23
-19.221714
33
16.836718
0
3DFACE
8
AileronG
62
47.000000
10
-63.848812
20
-19.221714
30
16.836718
11
-64.749428
21
-16.378086
31
16.836718
12
-62.567238
22
-16.199450
32
16.836718
13
-62.567238
23
-16.199450
33
16.836718
0
3DFACE
8
AileronG
62
47.000000
10
-62.801910
20
-2.598452
30
16.836718
11
-66.953011
21
-2.788328
31
16.836718
12
-66.955139
22
-0.811932
32
16.836718
13
-66.955139
23
-0.811932
33
16.836718
0
3DFACE
8
AileronG
62
47.000000
10
-62.801910
20
-2.598452
30
16.836718
11
-66.955139
21
-0.811932
31
16.836718
12
-46.121056
22
-3.060682
32
16.836718
13
-46.121056
23
-3.060682
33
16.836718
0
3DFACE
8
AileronG
62
47.000000
10
-62.801910
20
-2.598452
30
16.836718
11
-46.121056
21
-3.060682
31
16.836718
12
-51.064217
22
-7.296575
32
16.836718
13
-51.064217
23
-7.296575
33
16.836718
0
3DFACE
8
AileronG
62
47.000000
10
-51.064217
20
-7.296575
30
16.836718
11
-63.848812
21
-19.221714
31
16.836718
12
-62.567238
22
-16.199450
32
16.836718
13
-62.567238
23
-16.199450
33
16.836718
0
3DFACE
8
AileronG
62
47.000000
10
-62.567238
20
-16.199450
30
16.836718
11
-62.801910
21
-2.598452
31
16.836718
12
-51.064217
22
-7.296575
32
16.836718
13
-51.064217
23
-7.296575
33
16.836718
0
3DFACE
8
Gouvernail
62
48.000000
10
-66.519661
20
1.525803
30
17.712179
11
-67.919662
21
1.525803
31
32.412178
12
-69.059120
22
0.725803
32
33.041759
13
-67.623650
23
0.725803
33
16.940718
0
3DFACE
8
Gouvernail
62
48.000000
10
-67.919662
20
1.525803
30
32.412178
11
-63.619663
21
1.525803
31
35.112179
12
-64.466492
22
0.725803
32
35.883640
13
-69.059120
23
0.725803
33
33.041759
0
3DFACE
8
Gouvernail
62
48.000000
10
-63.619663
20
1.525803
30
35.112179
11
-59.019653
21
1.525803
31
33.912178
12
-58.158588
22
0.725803
32
34.477207
13
-64.466492
23
0.725803
33
35.883640
0
3DFACE
8
Gouvernail
62
48.000000
10
-59.019653
20
1.525803
30
33.912178
11
-50.019657
21
1.525803
31
21.812178
12
-48.608814
22
0.725803
32
21.525963
13
-58.158588
23
0.725803
33
34.477207
0
3DFACE
8
Gouvernail
62
48.000000
10
-50.019657
20
1.525803
30
21.812178
11
-41.219658
21
1.525803
31
19.712179
12
-38.780201
22
0.725803
32
19.018066
13
-48.608814
23
0.725803
33
21.525963
0
3DFACE
8
Gouvernail
62
48.000000
10
-41.219658
20
1.525803
30
19.712179
11
-66.519661
21
1.525803
31
17.712179
12
-67.623650
22
0.725803
32
16.940718
13
-38.780201
23
0.725803
33
19.018066
0
3DFACE
8
Gouvernail
62
48.000000
10
-67.623650
20
0.725803
30
16.940718
11
-69.059120
21
0.725803
31
33.041759
12
-68.059875
22
-0.074197
32
32.489651
13
-66.655502
23
-0.074197
33
17.617249
0
3DFACE
8
Gouvernail
62
48.000000
10
-69.059120
20
0.725803
30
33.041759
11
-64.466492
21
0.725803
31
35.883640
12
-63.723866
22
-0.074197
32
35.207108
13
-68.059875
23
-0.074197
33
32.489651
0
3DFACE
8
Gouvernail
62
48.000000
10
-64.466492
20
0.725803
30
35.883640
11
-58.158588
21
0.725803
31
34.477207
12
-59.073666
22
-0.074197
32
33.994015
13
-63.723866
23
-0.074197
33
35.207108
0
3DFACE
8
Gouvernail
62
48.000000
10
-58.158588
20
0.725803
30
34.477207
11
-48.608814
21
0.725803
31
21.525963
12
-50.006016
22
-0.074197
32
21.789263
13
-59.073666
23
-0.074197
33
33.994015
0
3DFACE
8
Gouvernail
62
48.000000
10
-48.608814
20
0.725803
30
21.525963
11
-38.780201
21
0.725803
31
19.018066
12
-41.079445
22
-0.074197
32
19.639072
13
-50.006016
23
-0.074197
33
21.789263
0
3DFACE
8
Gouvernail
62
48.000000
10
-38.780201
20
0.725803
30
19.018066
11
-67.623650
21
0.725803
31
16.940718
12
-66.655502
22
-0.074197
32
17.617249
13
-41.079445
23
-0.074197
33
19.639072
0
3DFACE
8
Gouvernail
62
48.000000
10
-66.655502
20
-0.074197
30
17.617249
11
-68.059875
21
-0.074197
31
32.489651
12
-63.723866
22
-0.074197
32
35.207108
13
-63.723866
23
-0.074197
33
35.207108
0
3DFACE
8
Gouvernail
62
48.000000
10
-66.655502
20
-0.074197
30
17.617249
11
-63.723866
21
-0.074197
31
35.207108
12
-59.073666
22
-0.074197
32
33.994015
13
-59.073666
23
-0.074197
33
33.994015
0
3DFACE
8
Gouvernail
62
48.000000
10
-66.655502
20
-0.074197
30
17.617249
11
-59.073666
21
-0.074197
31
33.994015
12
-50.006016
22
-0.074197
32
21.789263
13
-50.006016
23
-0.074197
33
21.789263
0
3DFACE
8
Gouvernail
62
48.000000
10
-66.655502
20
-0.074197
30
17.617249
11
-50.006016
21
-0.074197
31
21.789263
12
-41.079445
22
-0.074197
32
19.639072
13
-41.079445
23
-0.074197
33
19.639072
0
3DFACE
8
Gouvernail
62
48.000000
10
-50.019657
20
1.525803
30
21.812178
11
-59.019653
21
1.525803
31
33.912178
12
-63.619663
22
1.525803
32
35.112179
13
-63.619663
23
1.525803
33
35.112179
0
3DFACE
8
Gouvernail
62
48.000000
10
-50.019657
20
1.525803
30
21.812178
11
-63.619663
21
1.525803
31
35.112179
12
-67.919662
22
1.525803
32
32.412178
13
-67.919662
23
1.525803
33
32.412178
0
3DFACE
8
Gouvernail
62
48.000000
10
-50.019657
20
1.525803
30
21.812178
11
-67.919662
21
1.525803
31
32.412178
12
-66.519661
22
1.525803
32
17.712179
13
-66.519661
23
1.525803
33
17.712179
0
3DFACE
8
Gouvernail
62
48.000000
10
-50.019657
20
1.525803
30
21.812178
11
-66.519661
21
1.525803
31
17.712179
12
-41.219658
22
1.525803
32
19.712179
13
-41.219658
23
1.525803
33
19.712179
0
3DFACE
8
VolInclinG
62
49.000000
10
-33.478909
20
-33.097282
30
14.169875
11
-33.718800
21
-33.273090
31
13.564833
12
-36.607815
22
-33.275520
32
13.750651
13
-36.607815
23
-33.275520
33
13.750651
0
3DFACE
8
VolInclinG
62
49.000000
10
-36.607815
20
-33.275520
30
13.750651
11
-39.410755
21
-14.996562
31
12.250357
12
-34.838573
22
-14.988496
32
12.986444
13
-33.478909
23
-33.097282
33
14.169875
0
3DFACE
8
VolInclinG
62
49.000000
10
-34.176884
20
-15.332907
30
11.996015
11
-39.268078
21
-15.006269
31
12.262472
12
-36.469173
22
-33.352879
32
13.726016
13
-33.718800
23
-33.273090
33
13.564833
0
3DFACE
8
VolInclinG
62
49.000000
10
-34.176884
20
-15.332907
30
11.996015
11
-34.838573
21
-14.988496
31
12.986444
12
-39.268078
22
-15.006269
32
12.262472
13
-39.268078
23
-15.006269
33
12.262472
0
3DFACE
8
AileD1
62
50.000000
10
-34.176884
20
16.514120
30
11.644264
11
-27.647533
21
16.514120
31
11.521435
12
-27.788023
22
34.509483
32
13.346766
13
-33.718800
23
34.487404
33
13.468589
0
3DFACE
8
AileD1
62
50.000000
10
-27.647533
20
16.514120
30
11.521435
11
-22.642756
21
16.514120
31
11.807720
12
-23.242054
22
34.458015
32
13.630701
13
-27.788023
23
34.509483
33
13.346766
0
3DFACE
8
AileD1
62
50.000000
10
-22.642756
20
16.514120
30
11.807720
11
-17.709246
21
16.514120
31
12.471440
12
-18.760824
22
34.338768
32
14.288976
13
-23.242054
23
34.458015
33
13.630701
0
3DFACE
8
AileD1
62
50.000000
10
-36.469173
20
34.571121
30
13.726016
11
-33.718800
21
34.487404
31
13.468589
12
-32.001472
22
45.698666
32
15.013304
13
-34.371361
23
44.330311
33
15.010231
0
3DFACE
8
AileD1
62
50.000000
10
-33.718800
20
34.487404
30
13.468589
11
-27.788023
21
34.509483
31
13.346766
12
-27.998816
22
46.916050
32
15.013950
13
-32.001472
23
45.698666
33
15.013304
0
3DFACE
8
AileD1
62
50.000000
10
-27.788023
20
34.509483
30
13.346766
11
-23.242054
21
34.458015
31
13.630701
12
-24.141260
22
46.782276
32
15.012443
13
-27.998816
23
46.916050
33
15.013950
0
3DFACE
8
AileD1
62
50.000000
10
-23.242054
20
34.458015
30
13.630701
11
-18.760824
21
34.338768
31
14.288976
12
-20.838642
22
45.052197
32
15.008945
13
-24.141260
23
46.782276
33
15.012443
0
3DFACE
8
CharnInclinD
62
51.000000
10
-34.183414
20
25.454798
30
13.312474
11
-34.432911
21
25.422750
31
13.312474
12
-34.280407
22
25.222702
32
13.312474
13
-34.280407
23
25.222702
33
13.312474
0
3DFACE
8
AileD2
62
52.000000
10
-36.607815
20
34.494392
30
13.768913
11
-33.478909
21
34.326496
31
14.453773
12
-33.718800
22
34.487404
32
13.468589
13
-33.718800
23
34.487404
33
13.468589
0
3DFACE
8
AileD2
62
52.000000
10
-33.718800
20
34.487404
30
13.468589
11
-33.478909
21
34.326496
31
14.453773
12
-34.838573
22
16.194120
32
13.259219
13
-34.176884
23
16.514120
33
11.644264
0
3DFACE
8
AileD2
62
52.000000
10
-34.176884
20
16.514120
30
11.644264
11
-34.838573
21
16.194120
31
13.259219
12
-39.410755
22
16.184120
32
12.068824
13
-39.410755
23
16.184120
33
12.068824
0
3DFACE
8
AileD2
62
52.000000
10
-17.791922
20
16.524120
30
12.428736
11
-21.368446
21
16.524120
31
14.047113
12
-21.629488
22
34.273529
32
14.914497
13
-18.352192
23
34.505535
33
13.968145
0
3DFACE
8
AileD2
62
52.000000
10
-21.368446
20
16.524120
30
14.047113
11
-27.818157
21
16.524120
31
14.323941
12
-27.539585
22
34.233852
32
15.076373
13
-21.629488
23
34.273529
33
14.914497
0
3DFACE
8
AileD2
62
52.000000
10
-27.818157
20
16.524120
30
14.323941
11
-34.838566
21
16.194120
31
13.259219
12
-33.478909
22
34.326496
32
14.453773
13
-27.539585
23
34.233852
33
15.076373
0
3DFACE
8
AileD2
62
52.000000
10
-18.352192
20
34.505535
30
13.968145
11
-21.629488
21
34.273529
31
14.914497
12
-24.142521
22
46.735863
32
15.003231
13
-20.829775
23
44.904137
33
15.004708
0
3DFACE
8
AileD2
62
52.000000
10
-21.629488
20
34.273529
30
14.914497
11
-27.539585
21
34.233852
31
15.076373
12
-27.938643
22
46.970253
32
15.002978
13
-24.142521
23
46.735863
33
15.003231
0
3DFACE
8
AileD2
62
52.000000
10
-27.539585
20
34.233852
30
15.076373
11
-33.478909
21
34.326496
31
14.453773
12
-31.983360
22
45.687283
32
15.003950
13
-27.938643
23
46.970253
33
15.002978
0
3DFACE
8
AileD2
62
52.000000
10
-33.478909
20
34.326496
30
14.453773
11
-36.607815
21
34.494392
31
13.768913
12
-34.460232
22
44.297985
32
15.005019
13
-31.983360
23
45.687283
33
15.003950
0
3DFACE
8
VolInclinD
62
53.000000
10
-36.607815
20
34.480721
30
13.717772
11
-33.718800
21
34.478291
31
13.531954
12
-33.478909
22
34.302483
32
14.136996
13
-33.478909
23
34.302483
33
14.136996
0
3DFACE
8
VolInclinD
62
53.000000
10
-33.478909
20
34.302483
30
14.136996
11
-34.838573
21
16.193697
31
12.953565
12
-39.410755
22
16.201763
32
12.217478
13
-36.607815
23
34.480721
33
13.717772
0
3DFACE
8
VolInclinD
62
53.000000
10
-33.718800
20
34.478291
30
13.531954
11
-36.469173
21
34.558079
31
13.693137
12
-39.268078
22
16.211472
32
12.229593
13
-34.176884
23
16.538109
33
11.963136
0
3DFACE
8
VolInclinD
62
53.000000
10
-39.268078
20
16.211472
30
12.229593
11
-34.838573
21
16.193697
31
12.953565
12
-34.176884
22
16.538109
32
11.963136
13
-34.176884
23
16.538109
33
11.963136
0
3DFACE
8
AileG2
62
54.000000
10
-18.632193
20
-33.187283
30
13.968145
11
-21.629488
21
-33.055286
31
14.914497
12
-21.368446
22
-15.305876
32
14.047113
13
-17.791922
23
-15.305876
33
12.428736
0
3DFACE
8
AileG2
62
54.000000
10
-21.629488
20
-33.055286
30
14.914497
11
-27.539585
21
-33.015606
31
15.076373
12
-27.818157
22
-15.305876
32
14.323941
13
-21.368446
23
-15.305876
33
14.047113
0
3DFACE
8
AileG2
62
54.000000
10
-27.539585
20
-33.015606
30
15.076373
11
-33.478909
21
-33.108250
31
14.453773
12
-34.838566
22
-14.975877
32
13.259219
13
-27.818157
23
-15.305876
33
14.323941
0
3DFACE
8
AileG2
62
54.000000
10
-20.539776
20
-43.685890
30
15.006967
11
-24.132521
21
-45.547619
31
15.006377
12
-21.629488
22
-33.055286
32
14.914497
13
-18.632193
23
-33.187283
33
13.968145
0
3DFACE
8
AileG2
62
54.000000
10
-24.132521
20
-45.547619
30
15.006377
11
-28.008642
21
-45.702007
31
15.006277
12
-27.539585
22
-33.015606
32
15.076373
13
-21.629488
23
-33.055286
33
14.914497
0
3DFACE
8
AileG2
62
54.000000
10
-28.008642
20
-45.702007
30
15.006277
11
-32.013359
21
-44.499031
31
15.006664
12
-33.478909
22
-33.108250
32
14.453773
13
-27.539585
23
-33.015606
33
15.076373
0
3DFACE
8
AileG2
62
54.000000
10
-32.013359
20
-44.499031
30
15.006664
11
-34.460232
21
-43.079742
31
15.007091
12
-36.607815
22
-33.276146
32
13.768913
13
-33.478909
23
-33.108250
33
14.453773
0
3DFACE
8
AileG2
62
54.000000
10
-36.469173
20
-33.352879
30
13.726016
11
-33.718800
21
-33.269154
31
13.468589
12
-33.478909
22
-33.108250
32
14.453773
13
-33.478909
23
-33.108250
33
14.453773
0
3DFACE
8
AileG2
62
54.000000
10
-33.718800
20
-33.269154
30
13.468589
11
-34.176884
21
-15.295875
31
11.644264
12
-34.838573
22
-14.975877
32
13.259219
13
-33.478909
23
-33.108250
33
14.453773
0
3DFACE
8
AileG2
62
54.000000
10
-34.176884
20
-15.295875
30
11.644264
11
-39.410755
21
-14.965874
31
12.068824
12
-34.838573
22
-14.975877
32
13.259219
13
-34.838573
23
-14.975877
33
13.259219
0
3DFACE
8
AileG2
62
54.000000
10
-30.290535
20
-30.320280
30
14.590434
11
-26.429220
21
-30.301617
31
14.970292
12
-26.429220
22
-31.020750
32
15.005621
13
-30.310440
23
-31.079460
33
14.625767
0
3DFACE
8
AileG2
62
54.000000
10
-27.722961
20
-31.606304
30
14.906808
11
-27.722961
21
-30.707390
31
14.862647
12
-26.429220
22
-31.020750
32
15.005621
13
-26.429220
23
-31.020750
33
15.005621
0
3DFACE
8
AileG2
62
54.000000
10
-28.598717
20
-29.293327
30
14.706819
11
-28.558912
21
-27.535257
31
14.624374
12
-28.001606
22
-27.452658
32
14.675274
13
-28.001606
23
-27.452658
33
14.675274
0
3DFACE
8
AileG2
62
54.000000
10
-28.817661
20
-28.635181
30
14.652895
11
-28.001606
21
-27.452658
31
14.675274
12
-28.001608
22
-28.711142
32
14.737100
13
-28.001608
23
-28.711142
33
14.737100
0
3DFACE
8
AileG2
62
54.000000
10
-28.001608
20
-28.711142
30
14.737100
11
-28.738045
21
-27.316387
31
14.595958
12
-28.001606
22
-27.452658
32
14.675274
13
-28.001606
23
-27.452658
33
14.675274
0
3DFACE
8
AileG2
62
54.000000
10
-28.001606
20
-27.452658
30
14.675274
11
-28.738045
21
-27.316387
31
14.595958
12
-28.738047
22
-26.677156
32
14.564555
13
-28.738047
23
-26.677156
33
14.564555
0
3DFACE
8
AileG2
62
54.000000
10
-28.738047
20
-26.677156
30
14.564555
11
-26.429218
21
-26.666000
31
14.791686
12
-27.105942
22
-27.268547
32
14.754553
13
-28.738045
23
-27.316387
33
14.595958
0
3DFACE
8
AileG2
62
54.000000
10
-26.429218
20
-26.666000
30
14.791686
11
-26.429220
21
-29.222918
31
14.917298
12
-27.125847
22
-29.226284
32
14.848768
13
-27.105942
23
-27.268547
33
14.754553
0
3DFACE
8
AileG2
62
54.000000
10
-29.494387
20
-28.638451
30
14.586321
11
-28.001608
21
-28.711142
31
14.737100
12
-28.598717
22
-29.293327
32
14.706819
13
-28.598717
23
-29.293327
33
14.706819
0
3DFACE
8
AileG2
62
54.000000
10
-29.215736
20
-27.278742
30
14.547002
11
-30.310436
21
-27.264057
31
14.438329
12
-29.713326
22
-26.681871
32
14.468611
13
-29.215736
23
-26.679466
33
14.517562
0
3DFACE
8
AileG2
62
54.000000
10
-29.713326
20
-26.681871
30
14.468611
11
-29.653614
21
-29.298426
31
14.603043
12
-30.310436
22
-28.782228
32
14.512912
13
-30.310436
23
-27.264057
33
14.438329
0
3DFACE
8
AileG2
62
54.000000
10
-29.653618
20
-28.499390
30
14.563787
11
-28.598717
21
-29.293327
31
14.706819
12
-29.653614
22
-29.298426
32
14.603043
13
-29.653614
23
-29.298426
33
14.603043
0
3DFACE
8
AileG2
62
54.000000
10
-30.409954
20
-22.769960
30
14.207734
11
-30.409954
21
-21.771164
31
14.158667
12
-26.429216
22
-21.751926
32
14.550273
13
-26.429216
23
-22.750721
33
14.599340
0
3DFACE
8
AileG2
62
54.000000
10
-30.409954
20
-25.766346
30
14.354938
11
-30.409954
21
-24.767548
31
14.305870
12
-26.429216
22
-21.751926
32
14.550273
13
-26.429216
23
-22.750721
33
14.599340
0
3DFACE
8
AileG2
62
54.000000
10
-30.409954
20
-24.767548
30
14.305870
11
-26.429216
21
-24.748314
31
14.697476
12
-26.429216
22
-25.747107
32
14.746544
13
-30.409954
23
-25.766346
33
14.354938
0
3DFACE
8
AileG2
62
54.000000
10
-29.494387
20
-27.280088
30
14.519589
11
-29.653618
21
-27.460642
31
14.512757
12
-30.310436
22
-27.264057
32
14.438329
13
-30.310436
23
-27.264057
33
14.438329
0
3DFACE
8
AileG1
62
55.000000
10
-33.718800
20
-33.269154
30
13.468589
11
-27.788023
21
-33.291241
31
13.346766
12
-27.647533
22
-15.295875
32
11.521435
13
-34.176884
23
-15.295875
33
11.644264
0
3DFACE
8
AileG1
62
55.000000
10
-27.788023
20
-33.291241
30
13.346766
11
-23.242054
21
-33.239769
31
13.630701
12
-22.642756
22
-15.295875
32
11.807720
13
-27.647533
23
-15.295875
33
11.521435
0
3DFACE
8
AileG1
62
55.000000
10
-23.242054
20
-33.239769
30
13.630701
11
-18.760824
21
-33.120522
31
14.288976
12
-17.709246
22
-15.295875
32
12.471440
13
-22.642756
23
-15.295875
33
11.807720
0
3DFACE
8
AileG1
62
55.000000
10
-34.371361
20
-43.112064
30
15.009170
11
-32.001472
21
-44.480415
31
15.010395
12
-33.718800
22
-33.269154
32
13.468589
13
-36.469173
23
-33.352879
33
13.726016
0
3DFACE
8
AileG1
62
55.000000
10
-32.001472
20
-44.480415
30
15.010395
11
-27.998816
21
-45.697807
31
15.010653
12
-27.788023
22
-33.291241
32
13.346766
13
-33.718800
23
-33.269154
33
13.468589
0
3DFACE
8
AileG1
62
55.000000
10
-27.998816
20
-45.697807
30
15.010653
11
-24.141260
21
-45.564034
31
15.010051
12
-23.242054
22
-33.239769
32
13.630701
13
-27.788023
23
-33.291241
33
13.346766
0
3DFACE
8
AileG1
62
55.000000
10
-24.141260
20
-45.564034
30
15.010051
11
-20.618645
21
-43.753948
31
15.008656
12
-18.760824
22
-33.120522
32
14.288976
13
-23.242054
23
-33.239769
33
13.630701
0
3DFACE
8
PosCam
62
56.000000
10
-31.252054
20
0.192224
30
25.226692
11
-26.520004
21
0.192224
31
23.958742
12
-27.787952
22
0.192224
32
28.690794
13
-27.787952
23
0.192224
33
28.690794
0
3DFACE
8
TabBord
62
57.000000
10
-18.141830
20
-3.019510
30
18.741678
11
-18.141830
21
-3.987210
31
20.877689
12
-18.741831
22
-3.987210
32
20.877689
13
-18.741831
23
-3.019510
33
18.741678
0
3DFACE
8
TabBord
62
57.000000
10
-18.141830
20
-3.987210
30
20.877689
11
-18.141830
21
-4.349854
31
23.187687
12
-18.741831
22
-4.349854
32
23.187687
13
-18.741831
23
-3.987210
33
20.877689
0
3DFACE
8
TabBord
62
57.000000
10
-18.141830
20
-4.349854
30
23.187687
11
-18.141830
21
-4.058423
31
25.531908
12
-18.741831
22
-4.058423
32
25.531908
13
-18.741831
23
-4.349854
33
23.187687
0
3DFACE
8
TabBord
62
57.000000
10
-18.141830
20
-4.058423
30
25.531908
11
-18.141830
21
-3.019510
31
27.633703
12
-18.741831
22
-3.019510
32
27.633703
13
-18.741831
23
-4.058423
33
25.531908
0
3DFACE
8
TabBord
62
57.000000
10
-18.141830
20
-3.019510
30
27.633703
11
-18.141830
21
-1.611084
31
28.930492
12
-18.741831
22
-1.611084
32
28.930492
13
-18.741831
23
-3.019510
33
27.633703
0
3DFACE
8
TabBord
62
57.000000
10
-18.141830
20
-1.611084
30
28.930492
11
-18.141830
21
0.192225
31
29.475300
12
-18.741831
22
0.192225
32
29.475300
13
-18.741831
23
-1.611084
33
28.930492
0
3DFACE
8
TabBord
62
57.000000
10
-18.141830
20
0.192225
30
29.475300
11
-18.141830
21
1.995541
31
28.930492
12
-18.741831
22
1.995541
32
28.930492
13
-18.741831
23
0.192225
33
29.475300
0
3DFACE
8
TabBord
62
57.000000
10
-18.141830
20
1.995541
30
28.930492
11
-18.141830
21
3.403959
31
27.633703
12
-18.741831
22
3.403959
32
27.633703
13
-18.741831
23
1.995541
33
28.930492
0
3DFACE
8
TabBord
62
57.000000
10
-18.141830
20
3.403959
30
27.633703
11
-18.141830
21
4.442876
31
25.531908
12
-18.741831
22
4.442876
32
25.531908
13
-18.741831
23
3.403959
33
27.633703
0
3DFACE
8
TabBord
62
57.000000
10
-18.141830
20
4.442876
30
25.531908
11
-18.141830
21
4.734304
31
23.187687
12
-18.741831
22
4.734304
32
23.187687
13
-18.741831
23
4.442876
33
25.531908
0
3DFACE
8
TabBord
62
57.000000
10
-18.141830
20
4.734304
30
23.187687
11
-18.141830
21
4.371659
31
20.877691
12
-18.741831
22
4.371659
32
20.877691
13
-18.741831
23
4.734304
33
23.187687
0
3DFACE
8
TabBord
62
57.000000
10
-18.141830
20
4.371659
30
20.877691
11
-18.141830
21
3.403959
31
18.741678
12
-18.741831
22
3.403959
32
18.741678
13
-18.741831
23
4.371659
33
20.877691
0
3DFACE
8
TabBord
62
57.000000
10
-20.669447
20
3.649882
30
19.709253
11
-18.741831
21
3.403959
31
19.741676
12
-16.527378
22
2.863910
32
20.524719
13
-20.669447
23
3.108186
33
20.151037
0
3DFACE
8
TabBord
62
57.000000
10
-20.669447
20
3.108186
30
20.151037
11
-16.527378
21
2.863910
31
20.524719
12
-14.443490
22
2.129040
32
21.368202
13
-20.669447
23
1.715539
33
20.861662
0
3DFACE
8
TabBord
62
57.000000
10
-20.669447
20
1.715539
30
20.861662
11
-14.443490
21
2.129040
31
21.368202
12
-13.520004
22
0.192225
32
21.762590
13
-20.669447
23
0.196961
33
21.151039
0
3DFACE
8
TabBord
62
57.000000
10
-20.669447
20
0.196961
30
21.151039
11
-13.520004
21
0.192225
31
21.762590
12
-14.443488
22
-1.744591
32
21.368198
13
-20.669447
23
-1.321617
33
20.861664
0
3DFACE
8
TabBord
62
57.000000
10
-20.669447
20
-1.321617
30
20.861664
11
-14.443488
21
-1.744591
31
21.368198
12
-16.527380
22
-2.479465
32
20.524719
13
-20.669447
23
-2.714265
33
20.151037
0
3DFACE
8
TabBord
62
57.000000
10
-20.669447
20
-2.714265
30
20.151037
11
-16.527380
21
-2.479465
31
20.524719
12
-18.741831
22
-3.019510
32
19.741676
13
-20.669447
23
-3.255960
33
19.709251
0
3DFACE
8
TabBord
62
57.000000
10
-16.969446
20
-0.003039
30
21.351038
11
-16.969446
21
0.396960
31
21.351038
12
-16.969446
22
0.196961
32
22.351036
13
-16.969446
23
0.196961
33
22.351036
0
3DFACE
8
TabBord
62
57.000000
10
-16.969446
20
0.505969
30
23.181162
11
-16.969446
21
0.696954
31
22.918297
12
-16.969446
22
0.767589
32
22.941246
13
-16.969446
23
0.549625
33
23.241247
0
3DFACE
8
TabBord
62
57.000000
10
-16.969446
20
0.696954
30
22.918297
11
-16.969446
21
0.696954
31
22.593374
12
-16.969446
22
0.767589
32
22.570425
13
-16.969446
23
0.767589
33
22.941246
0
3DFACE
8
TabBord
62
57.000000
10
-16.969446
20
0.696954
30
22.593374
11
-16.969446
21
0.505969
31
22.330509
12
-16.969446
22
0.549625
32
22.270424
13
-16.969446
23
0.767589
33
22.570425
0
3DFACE
8
TabBord
62
57.000000
10
-16.969446
20
0.505969
30
22.330509
11
-16.969446
21
0.196953
31
22.230106
12
-16.969446
22
0.196953
32
22.155836
13
-16.969446
23
0.549625
33
22.270424
0
3DFACE
8
TabBord
62
57.000000
10
-16.969446
20
0.196953
30
22.230106
11
-16.969446
21
-0.112063
31
22.330511
12
-16.969446
22
-0.155719
32
22.270426
13
-16.969446
23
0.196953
33
22.155836
0
3DFACE
8
TabBord
62
57.000000
10
-16.969446
20
-0.112063
30
22.330511
11
-16.969446
21
-0.303047
31
22.593376
12
-16.969446
22
-0.373683
32
22.570427
13
-16.969446
23
-0.155719
33
22.270426
0
3DFACE
8
TabBord
62
57.000000
10
-16.969446
20
-0.303047
30
22.593376
11
-16.969446
21
-0.303047
31
22.918297
12
-16.969446
22
-0.373683
32
22.941246
13
-16.969446
23
-0.373683
33
22.570427
0
3DFACE
8
TabBord
62
57.000000
10
-16.969446
20
-0.303047
30
22.918297
11
-16.969446
21
-0.112063
31
23.181162
12
-16.969446
22
-0.155719
32
23.241247
13
-16.969446
23
-0.373683
33
22.941246
0
3DFACE
8
TabBord
62
57.000000
10
-16.969446
20
-0.112063
30
23.181162
11
-16.969446
21
0.196953
31
23.281567
12
-16.969446
22
0.196953
32
23.355839
13
-16.969446
23
-0.155719
33
23.241247
0
3DFACE
8
TabBord
62
57.000000
10
-16.969446
20
0.196953
30
23.281567
11
-16.969446
21
0.505969
31
23.181162
12
-16.969446
22
0.549625
32
23.241247
13
-16.969446
23
0.196953
33
23.355839
0
3DFACE
8
TabBord
62
57.000000
10
-16.969446
20
0.196953
30
23.055834
11
-16.969446
21
0.264123
31
23.455835
12
-16.969446
22
0.129783
32
23.455835
13
-16.969446
23
0.129783
33
23.455835
0
3DFACE
8
TabBord
62
57.000000
10
-16.969446
20
-0.103044
30
22.755836
11
-16.969446
21
-0.503047
31
22.823004
12
-16.969446
22
-0.503047
32
22.688665
13
-16.969446
23
-0.503047
33
22.688665
0
3DFACE
8
TabBord
62
57.000000
10
-16.969446
20
0.496950
30
22.755836
11
-16.969446
21
0.896953
31
22.688667
12
-16.969446
22
0.896953
32
22.823006
13
-16.969446
23
0.896953
33
22.823006
0
3DFACE
8
TabBord
62
57.000000
10
-20.669449
20
4.069120
30
18.151037
11
-20.669449
21
4.069120
31
19.151039
12
-20.669447
22
3.649882
32
19.709253
13
-20.669447
23
3.649882
33
19.709253
0
3DFACE
8
TabBord
62
57.000000
10
-20.669449
20
4.069120
30
18.151037
11
-20.669447
21
3.649882
31
19.709253
12
-20.669447
22
3.108186
32
20.151037
13
-20.669447
23
3.108186
33
20.151037
0
3DFACE
8
TabBord
62
57.000000
10
-20.669449
20
4.069120
30
18.151037
11
-20.669447
21
3.108186
31
20.151037
12
-20.669447
22
1.715539
32
20.861662
13
-20.669447
23
1.715539
33
20.861662
0
3DFACE
8
TabBord
62
57.000000
10
-20.669449
20
4.069120
30
18.151037
11
-20.669447
21
1.715539
31
20.861662
12
-20.669447
22
0.196961
32
21.151039
13
-20.669447
23
0.196961
33
21.151039
0
3DFACE
8
TabBord
62
57.000000
10
-20.669449
20
4.069120
30
18.151037
11
-20.669447
21
0.196961
31
21.151039
12
-20.669447
22
-1.321617
32
20.861664
13
-20.669447
23
-1.321617
33
20.861664
0
3DFACE
8
TabBord
62
57.000000
10
-20.669449
20
4.069120
30
18.151037
11
-20.669447
21
-1.321617
31
20.861664
12
-20.669447
22
-2.714265
32
20.151037
13
-20.669447
23
-2.714265
33
20.151037
0
3DFACE
8
TabBord
62
57.000000
10
-20.669449
20
4.069120
30
18.151037
11
-20.669447
21
-2.714265
31
20.151037
12
-20.669447
22
-3.255960
32
19.709251
13
-20.669447
23
-3.255960
33
19.709251
0
3DFACE
8
TabBord
62
57.000000
10
-20.669449
20
4.069120
30
18.151037
11
-20.669447
21
-3.255960
31
19.709251
12
-20.669447
22
-3.684670
32
19.151037
13
-20.669447
23
-3.684670
33
19.151037
0
3DFACE
8
TabBord
62
57.000000
10
-20.669449
20
4.069120
30
18.151037
11
-20.669447
21
-3.684670
31
19.151037
12
-20.669447
22
-3.684670
32
18.151035
13
-20.669447
23
-3.684670
33
18.151035
0
3DFACE
8
TabBord
62
57.000000
10
-34.541828
20
-3.019510
30
18.741678
11
-34.541828
21
-3.987210
31
20.877689
12
-35.141830
22
-3.987210
32
20.877689
13
-35.141830
23
-3.019510
33
18.741678
0
3DFACE
8
TabBord
62
57.000000
10
-34.541828
20
-3.987210
30
20.877689
11
-34.541828
21
-4.349854
31
23.187687
12
-35.141830
22
-4.349854
32
23.187687
13
-35.141830
23
-3.987210
33
20.877689
0
3DFACE
8
TabBord
62
57.000000
10
-34.541828
20
-4.349854
30
23.187687
11
-34.541828
21
-4.058423
31
25.531908
12
-35.141830
22
-4.058423
32
25.531908
13
-35.141830
23
-4.349854
33
23.187687
0
3DFACE
8
TabBord
62
57.000000
10
-34.541828
20
-4.058423
30
25.531908
11
-34.541828
21
-3.019510
31
27.633703
12
-35.141830
22
-3.019510
32
27.633703
13
-35.141830
23
-4.058423
33
25.531908
0
3DFACE
8
TabBord
62
57.000000
10
-34.541828
20
-3.019510
30
27.633703
11
-34.541828
21
-1.611084
31
28.930492
12
-35.141830
22
-1.611084
32
28.930492
13
-35.141830
23
-3.019510
33
27.633703
0
3DFACE
8
TabBord
62
57.000000
10
-34.541828
20
-1.611084
30
28.930492
11
-34.541828
21
0.192225
31
29.475300
12
-35.141830
22
0.192225
32
29.475300
13
-35.141830
23
-1.611084
33
28.930492
0
3DFACE
8
TabBord
62
57.000000
10
-34.541828
20
0.192225
30
29.475300
11
-34.541828
21
1.995541
31
28.930492
12
-35.141830
22
1.995541
32
28.930492
13
-35.141830
23
0.192225
33
29.475300
0
3DFACE
8
TabBord
62
57.000000
10
-34.541828
20
1.995541
30
28.930492
11
-34.541828
21
3.403959
31
27.633703
12
-35.141830
22
3.403959
32
27.633703
13
-35.141830
23
1.995541
33
28.930492
0
3DFACE
8
TabBord
62
57.000000
10
-34.541828
20
3.403959
30
27.633703
11
-34.541828
21
4.442876
31
25.531908
12
-35.141830
22
4.442876
32
25.531908
13
-35.141830
23
3.403959
33
27.633703
0
3DFACE
8
TabBord
62
57.000000
10
-34.541828
20
4.442876
30
25.531908
11
-34.541828
21
4.734304
31
23.187687
12
-35.141830
22
4.734304
32
23.187687
13
-35.141830
23
4.442876
33
25.531908
0
3DFACE
8
TabBord
62
57.000000
10
-34.541828
20
4.734304
30
23.187687
11
-34.541828
21
4.371659
31
20.877691
12
-35.141830
22
4.371659
32
20.877691
13
-35.141830
23
4.734304
33
23.187687
0
3DFACE
8
TabBord
62
57.000000
10
-34.541828
20
4.371659
30
20.877691
11
-34.541828
21
3.403959
31
18.741678
12
-35.141830
22
3.403959
32
18.741678
13
-35.141830
23
4.371659
33
20.877691
0
3DFACE
8
TabBord
62
57.000000
10
-18.541832
20
-3.249120
30
27.079374
11
-18.541832
21
-3.019510
31
27.633703
12
-20.432405
22
-3.807799
32
28.216867
13
-20.432405
23
-4.037409
33
27.662539
0
3DFACE
8
TabBord
62
57.000000
10
-20.432405
20
-4.037409
30
27.662539
11
-20.432405
21
-3.807799
31
28.216867
12
-22.452608
22
-4.331053
32
28.603962
13
-22.452608
23
-4.560664
33
28.049633
0
3DFACE
8
TabBord
62
57.000000
10
-22.452608
20
-4.560664
30
28.049633
11
-22.452608
21
-4.331053
31
28.603962
12
-24.560007
22
-4.578263
32
28.786842
13
-24.560007
23
-4.807873
33
28.232513
0
3DFACE
8
TabBord
62
57.000000
10
-24.560007
20
-4.807873
30
28.232513
11
-24.560007
21
-4.578263
31
28.786842
12
-28.035900
22
-4.516259
32
28.740969
13
-28.035900
23
-4.745869
33
28.186640
0
3DFACE
8
TabBord
62
57.000000
10
-28.035900
20
-4.745869
30
28.186640
11
-28.035900
21
-4.516259
31
28.740969
12
-31.439104
22
-3.993016
32
28.353886
13
-31.439104
23
-4.222626
33
27.799559
0
3DFACE
8
TabBord
62
57.000000
10
-31.439104
20
-4.222626
30
27.799559
11
-31.439104
21
-3.993016
31
28.353886
12
-34.698174
22
-3.019510
32
27.633703
13
-34.698174
23
-3.249120
33
27.079374
0
3DFACE
8
TabBord
62
57.000000
10
-20.432405
20
4.421862
30
27.662539
11
-20.432405
21
4.192248
31
28.216867
12
-18.541832
22
3.403959
32
27.633703
13
-18.541832
23
3.633569
33
27.079374
0
3DFACE
8
TabBord
62
57.000000
10
-22.452608
20
4.945117
30
28.049633
11
-22.452608
21
4.715503
31
28.603962
12
-20.432405
22
4.192248
32
28.216867
13
-20.432405
23
4.421862
33
27.662539
0
3DFACE
8
TabBord
62
57.000000
10
-24.560007
20
5.192330
30
28.232513
11
-24.560007
21
4.962713
31
28.786842
12
-22.452608
22
4.715503
32
28.603962
13
-22.452608
23
4.945117
33
28.049633
0
3DFACE
8
TabBord
62
57.000000
10
-28.035900
20
5.130319
30
28.186640
11
-28.035900
21
4.900709
31
28.740969
12
-24.560007
22
4.962713
32
28.786842
13
-24.560007
23
5.192330
33
28.232513
0
3DFACE
8
TabBord
62
57.000000
10
-31.439104
20
4.607075
30
27.799557
11
-31.439104
21
4.377461
31
28.353886
12
-28.035900
22
4.900709
32
28.740969
13
-28.035900
23
5.130319
33
28.186640
0
3DFACE
8
TabBord
62
57.000000
10
-34.698174
20
3.633569
30
27.079374
11
-34.698174
21
3.403959
31
27.633703
12
-31.439104
22
4.377461
32
28.353886
13
-31.439104
23
4.607075
33
27.799557
0
3DFACE
8
TabBord
62
57.000000
10
-37.302399
20
-2.708455
30
20.231956
11
-38.758011
21
-2.438719
31
20.479887
12
-34.298176
22
-2.269292
32
20.831450
13
-34.298176
23
-3.027707
33
19.774677
0
3DFACE
8
TabBord
62
57.000000
10
-38.758011
20
-2.438719
30
20.479887
11
-40.213623
21
-2.168980
31
20.727818
12
-34.298168
22
-1.158344
32
21.525284
13
-34.298176
23
-2.269292
33
20.831450
0
3DFACE
8
TabBord
62
57.000000
10
-40.213623
20
-2.168980
30
20.727818
11
-41.520000
21
0.192225
31
20.954224
12
-34.298176
22
0.174629
32
21.774677
13
-34.298168
23
-1.158344
33
21.525284
0
3DFACE
8
TabBord
62
57.000000
10
-41.520000
20
0.192225
30
20.954224
11
-40.213623
21
2.553429
31
20.727816
12
-34.298176
22
1.507598
32
21.525288
13
-34.298176
23
0.174629
33
21.774677
0
3DFACE
8
TabBord
62
57.000000
10
-40.213623
20
2.553429
30
20.727816
11
-38.758015
21
2.823165
31
20.479887
12
-34.298168
22
2.618546
32
20.831450
13
-34.298176
23
1.507598
33
21.525288
0
3DFACE
8
TabBord
62
57.000000
10
-38.758015
20
2.823165
30
20.479887
11
-37.302402
21
3.092904
31
20.231958
12
-34.298176
22
3.376961
32
19.774677
13
-34.298168
23
2.618546
33
20.831450
0
3DFACE
8
TabBord
62
57.000000
10
-34.298176
20
-3.019510
30
18.741676
11
-34.298176
21
-3.019510
31
19.741676
12
-34.298176
22
-2.269292
32
20.831450
13
-34.298176
23
-2.269292
33
20.831450
0
3DFACE
8
TabBord
62
57.000000
10
-34.298176
20
-3.019510
30
18.741676
11
-34.298176
21
-2.269292
31
20.831450
12
-34.298168
22
-1.158344
32
21.525284
13
-34.298168
23
-1.158344
33
21.525284
0
3DFACE
8
TabBord
62
57.000000
10
-34.298176
20
-3.019510
30
18.741676
11
-34.298168
21
-1.158344
31
21.525284
12
-34.298176
22
0.174629
32
21.774677
13
-34.298176
23
0.174629
33
21.774677
0
3DFACE
8
TabBord
62
57.000000
10
-34.298176
20
-3.019510
30
18.741676
11
-34.298176
21
0.174629
31
21.774677
12
-34.298176
22
1.507598
32
21.525288
13
-34.298176
23
1.507598
33
21.525288
0
3DFACE
8
TabBord
62
57.000000
10
-34.298176
20
-3.019510
30
18.741676
11
-34.298176
21
1.507598
31
21.525288
12
-34.298168
22
2.618546
32
20.831450
13
-34.298168
23
2.618546
33
20.831450
0
3DFACE
8
TabBord
62
57.000000
10
-34.298176
20
-3.019510
30
18.741676
11
-34.298168
21
2.618546
31
20.831450
12
-34.298176
22
3.376961
32
19.774677
13
-34.298176
23
3.376961
33
19.774677
0
3DFACE
8
TabBord
62
57.000000
10
-34.298176
20
-3.019510
30
18.741676
11
-34.298176
21
3.376961
31
19.774677
12
-34.298176
22
3.403959
32
18.741676
13
-34.298176
23
3.403959
33
18.741676
0
3DFACE
8
TabBord
62
57.000000
10
-23.069448
20
-3.684670
30
13.351036
11
-23.069447
21
4.069120
31
13.351039
12
-20.669449
22
4.069120
32
18.151037
13
-20.669447
23
-3.684670
33
18.151035
0
3DFACE
8
TabBord
62
57.000000
10
-26.069447
20
-3.684670
30
13.151035
11
-26.069443
21
4.069120
31
13.151034
12
-23.069447
22
4.069120
32
13.351039
13
-23.069448
23
-3.684670
33
13.351036
0
3DFACE
8
TabBord
62
57.000000
10
-27.269447
20
-3.684670
30
16.551037
11
-27.269444
21
4.069120
31
16.551037
12
-26.069443
22
4.069120
32
13.151034
13
-26.069447
23
-3.684670
33
13.151035
0
3DFACE
8
TabBord
62
57.000000
10
-30.669447
20
-3.684670
30
17.151037
11
-30.669445
21
4.069120
31
17.151041
12
-27.269444
22
4.069120
32
16.551037
13
-27.269447
23
-3.684670
33
16.551037
0
3DFACE
8
TabBord
62
57.000000
10
-34.269447
20
-3.133212
30
18.751036
11
-34.269444
21
3.517661
31
18.751040
12
-30.669445
22
4.069120
32
17.151041
13
-30.669447
23
-3.684670
33
17.151037
0
3DFACE
8
TabBord
62
57.000000
10
-22.671576
20
-4.137864
30
17.635538
11
-23.069448
21
-3.684670
31
13.351036
12
-20.669447
22
-3.684670
32
18.151035
13
-20.669447
23
-3.684670
33
18.151035
0
3DFACE
8
TabBord
62
57.000000
10
-24.760002
20
-4.349854
30
17.368929
11
-26.069447
21
-3.684670
31
13.151035
12
-23.069448
22
-3.684670
32
13.351036
13
-22.671576
23
-4.137864
33
17.635538
0
3DFACE
8
TabBord
62
57.000000
10
-27.269447
20
-3.684670
30
16.551037
11
-26.069447
21
-3.684670
31
13.151035
12
-24.760002
22
-4.349854
32
17.368929
13
-24.760002
23
-4.349854
33
17.368929
0
3DFACE
8
TabBord
62
57.000000
10
-28.006523
20
-4.257651
30
17.560133
11
-27.269447
21
-3.684670
31
16.551037
12
-24.760002
22
-4.349854
32
17.368929
13
-24.760002
23
-4.349854
33
17.368929
0
3DFACE
8
TabBord
62
57.000000
10
-28.006523
20
-4.257651
30
17.560133
11
-31.179388
21
-3.785963
31
18.142923
12
-30.669447
22
-3.684670
32
17.151037
13
-27.269447
23
-3.684670
33
16.551037
0
3DFACE
8
TabBord
62
57.000000
10
-30.669447
20
-3.684670
30
17.151037
11
-31.179388
21
-3.785963
31
18.142923
12
-34.269447
22
-3.133212
32
18.751036
13
-34.269447
23
-3.133212
33
18.751036
0
3DFACE
8
TabBord
62
57.000000
10
-30.669445
20
4.069120
30
17.151041
11
-34.269444
21
3.517661
31
18.751040
12
-31.179388
22
4.170412
32
18.142921
13
-31.179388
23
4.170412
33
18.142921
0
3DFACE
8
TabBord
62
57.000000
10
-28.006529
20
4.642100
30
17.560135
11
-27.269444
21
4.069120
31
16.551037
12
-30.669445
22
4.069120
32
17.151041
13
-31.179388
23
4.170412
33
18.142921
0
3DFACE
8
TabBord
62
57.000000
10
-26.069443
20
4.069120
30
13.151034
11
-27.269444
21
4.069120
31
16.551037
12
-28.006529
22
4.642100
32
17.560135
13
-24.760002
23
4.734304
33
17.368929
0
3DFACE
8
TabBord
62
57.000000
10
-26.069443
20
4.069120
30
13.151034
11
-24.760002
21
4.734304
31
17.368929
12
-22.671572
22
4.522313
32
17.635536
13
-23.069447
23
4.069120
33
13.351039
0
3DFACE
8
TabBord
62
57.000000
10
-23.069447
20
4.069120
30
13.351039
11
-22.671572
21
4.522313
31
17.635536
12
-20.669449
22
4.069120
32
18.151037
13
-20.669449
23
4.069120
33
18.151037
0
3DFACE
8
TabBord
62
57.000000
10
-34.298176
20
3.403959
30
19.741676
11
-31.179388
21
4.170412
31
19.142923
12
-31.179388
22
4.170412
32
18.142921
13
-34.298176
23
3.403959
33
18.741676
0
3DFACE
8
TabBord
62
57.000000
10
-31.179388
20
4.170412
30
19.142923
11
-28.006529
21
4.642100
31
18.560137
12
-28.006529
22
4.642100
32
17.560135
13
-31.179388
23
4.170412
33
18.142921
0
3DFACE
8
TabBord
62
57.000000
10
-28.006529
20
4.642100
30
18.560137
11
-24.760002
21
4.734304
31
18.368929
12
-24.760002
22
4.734304
32
17.368929
13
-28.006529
23
4.642100
33
17.560135
0
3DFACE
8
TabBord
62
57.000000
10
-24.760002
20
4.734304
30
18.368929
11
-22.671572
21
4.522313
31
18.635536
12
-22.671572
22
4.522313
32
17.635536
13
-24.760002
23
4.734304
33
17.368929
0
3DFACE
8
TabBord
62
57.000000
10
-22.671572
20
4.522313
30
18.635536
11
-20.669449
21
4.069120
31
19.151039
12
-20.669449
22
4.069120
32
18.151037
13
-22.671572
23
4.522313
33
17.635536
0
3DFACE
8
TabBord
62
57.000000
10
-20.669447
20
-3.684670
30
19.151037
11
-22.671576
21
-4.137864
31
18.635538
12
-22.671576
22
-4.137864
32
17.635538
13
-20.669447
23
-3.684670
33
18.151035
0
3DFACE
8
TabBord
62
57.000000
10
-22.671576
20
-4.137864
30
18.635538
11
-24.760002
21
-4.349854
31
18.368929
12
-24.760002
22
-4.349854
32
17.368929
13
-22.671576
23
-4.137864
33
17.635538
0
3DFACE
8
TabBord
62
57.000000
10
-24.760002
20
-4.349854
30
18.368929
11
-28.006523
21
-4.257651
31
18.560135
12
-28.006523
22
-4.257651
32
17.560133
13
-24.760002
23
-4.349854
33
17.368929
0
3DFACE
8
TabBord
62
57.000000
10
-28.006523
20
-4.257651
30
18.560135
11
-31.179388
21
-3.785963
31
19.142925
12
-31.179388
22
-3.785963
32
18.142923
13
-28.006523
23
-4.257651
33
17.560133
0
3DFACE
8
TabBord
62
57.000000
10
-31.179388
20
-3.785963
30
19.142925
11
-34.298176
21
-3.019510
31
19.741676
12
-34.298176
22
-3.019510
32
18.741676
13
-31.179388
23
-3.785963
33
18.142923
0
3DFACE
8
TabBord
62
57.000000
10
-20.669447
20
3.045737
30
17.391043
11
-20.669447
21
3.108186
31
20.151037
12
-20.669447
22
-2.714265
32
20.151037
13
-20.669447
23
-2.674263
33
17.391043
0
3DFACE
8
FuselageAvant
62
58.000000
10
-14.120001
20
-3.816594
30
10.401044
11
-14.120001
21
-5.655878
31
14.601465
12
-13.120001
22
-7.124292
32
14.572047
13
-13.120001
23
-4.834119
33
9.341916
0
3DFACE
8
FuselageAvant
62
58.000000
10
-14.120001
20
-5.655878
30
14.601465
11
-14.120001
21
-3.986300
31
18.872181
12
-13.120001
22
-5.045427
32
19.889706
13
-13.120001
23
-7.124292
33
14.572047
0
3DFACE
8
FuselageAvant
62
58.000000
10
-14.120001
20
-3.986300
30
18.872181
11
-14.120001
21
0.214121
31
20.711464
12
-13.120001
22
0.184704
32
21.779879
13
-13.120001
23
-5.045427
33
19.889706
0
3DFACE
8
FuselageAvant
62
58.000000
10
-14.120001
20
0.214121
30
20.711464
11
-14.120001
21
4.484837
31
19.041887
12
-13.120001
22
5.502362
32
20.101015
13
-13.120001
23
0.184704
33
21.779879
0
3DFACE
8
FuselageAvant
62
58.000000
10
-14.120001
20
4.484837
30
19.041887
11
-14.120001
21
6.324120
31
14.841466
12
-13.120001
22
7.792535
32
14.870884
13
-13.120001
23
5.502362
33
20.101015
0
3DFACE
8
FuselageAvant
62
58.000000
10
-14.120001
20
6.324120
30
14.841466
11
-14.120001
21
4.654543
31
10.570750
12
-13.120001
22
5.713671
32
9.553226
13
-13.120001
23
7.792535
33
14.870884
0
3DFACE
8
FuselageAvant
62
58.000000
10
-14.120001
20
4.654543
30
10.570750
11
-14.120001
21
0.454122
31
8.731467
12
-13.120001
22
0.483539
32
7.263053
13
-13.120001
23
5.713671
33
9.553226
0
3DFACE
8
FuselageAvant
62
58.000000
10
-14.120001
20
0.454122
30
8.731467
11
-14.120001
21
-3.816594
31
10.401044
12
-13.120001
22
-4.834119
32
9.341916
13
-13.120001
23
0.483539
33
7.263053
0
3DFACE
8
FuselageAvant
62
58.000000
10
-13.120001
20
-4.834119
30
9.341916
11
-13.120001
21
-7.124292
31
14.572047
12
-1.920001
22
-7.124292
32
14.572047
13
-1.920001
23
-4.834119
33
9.341916
0
3DFACE
8
FuselageAvant
62
58.000000
10
-13.120001
20
-7.124292
30
14.572047
11
-13.120001
21
-5.045427
31
19.889706
12
-1.920001
22
-5.045427
32
19.889706
13
-1.920001
23
-7.124292
33
14.572047
0
3DFACE
8
FuselageAvant
62
58.000000
10
-13.120001
20
-5.045427
30
19.889706
11
-13.120001
21
0.184704
31
21.779879
12
-1.920001
22
0.184704
32
21.779879
13
-1.920001
23
-5.045427
33
19.889706
0
3DFACE
8
FuselageAvant
62
58.000000
10
-13.120001
20
0.184704
30
21.779879
11
-13.120001
21
5.502362
31
20.101015
12
-1.920001
22
5.502362
32
20.101015
13
-1.920001
23
0.184704
33
21.779879
0
3DFACE
8
FuselageAvant
62
58.000000
10
-13.120001
20
5.502362
30
20.101015
11
-13.120001
21
7.792535
31
14.870884
12
-1.920001
22
7.792535
32
14.870884
13
-1.920001
23
5.502362
33
20.101015
0
3DFACE
8
FuselageAvant
62
58.000000
10
-13.120001
20
7.792535
30
14.870884
11
-13.120001
21
5.713671
31
9.553226
12
-1.920001
22
5.713671
32
9.553226
13
-1.920001
23
7.792535
33
14.870884
0
3DFACE
8
FuselageAvant
62
58.000000
10
-13.120001
20
5.713671
30
9.553226
11
-13.120001
21
0.483539
31
7.263053
12
-1.920001
22
0.483539
32
7.263053
13
-1.920001
23
5.713671
33
9.553226
0
3DFACE
8
FuselageAvant
62
58.000000
10
-13.120001
20
0.483539
30
7.263053
11
-13.120001
21
-4.834119
31
9.341916
12
-1.920001
22
-4.834119
32
9.341916
13
-1.920001
23
0.483539
33
7.263053
0
3DFACE
8
FuselageAvant
62
58.000000
10
-1.920001
20
-4.834119
30
9.341916
11
-1.920001
21
-7.124292
31
14.572047
12
-0.720001
22
-6.116399
32
14.592239
13
-0.720001
23
-4.135709
33
10.068882
0
3DFACE
8
FuselageAvant
62
58.000000
10
-1.920001
20
-7.124292
30
14.572047
11
-1.920001
21
-5.045427
31
19.889706
12
-0.720001
22
-4.318462
32
19.191296
13
-0.720001
23
-6.116399
33
14.592239
0
3DFACE
8
FuselageAvant
62
58.000000
10
-1.920001
20
-5.045427
30
19.889706
11
-1.920001
21
0.184704
31
21.779879
12
-0.720001
22
0.204895
32
21.171988
13
-0.720001
23
-4.318462
33
19.191296
0
3DFACE
8
FuselageAvant
62
58.000000
10
-1.920001
20
0.184704
30
21.779879
11
-1.920001
21
5.502362
31
20.101015
12
-0.720001
22
4.803951
32
19.374050
13
-0.720001
23
0.204895
33
21.171988
0
3DFACE
8
FuselageAvant
62
58.000000
10
-1.920001
20
5.502362
30
20.101015
11
-1.920001
21
7.792535
31
14.870884
12
-0.720001
22
6.784642
32
14.850693
13
-0.720001
23
4.803951
33
19.374050
0
3DFACE
8
FuselageAvant
62
58.000000
10
-1.920001
20
7.792535
30
14.870884
11
-1.920001
21
5.713671
31
9.553226
12
-0.720001
22
4.986705
32
10.251636
13
-0.720001
23
6.784642
33
14.850693
0
3DFACE
8
FuselageAvant
62
58.000000
10
-1.920001
20
5.713671
30
9.553226
11
-1.920001
21
0.483539
31
7.263053
12
-0.720001
22
0.463347
32
8.270946
13
-0.720001
23
4.986705
33
10.251636
0
3DFACE
8
FuselageAvant
62
58.000000
10
-1.920001
20
0.483539
30
7.263053
11
-1.920001
21
-4.834119
31
9.341916
12
-0.720001
22
-4.135709
32
10.068882
13
-0.720001
23
0.463347
33
8.270946
0
3DFACE
8
FuselageAvant
62
58.000000
10
-0.720001
20
-4.135709
30
10.068882
11
-0.720001
21
-6.116399
31
14.592239
12
-0.520001
22
-4.705347
32
14.620508
13
-0.520001
23
-3.157933
33
11.086636
0
3DFACE
8
FuselageAvant
62
58.000000
10
-0.720001
20
-6.116399
30
14.592239
11
-0.720001
21
-4.318462
31
19.191296
12
-0.520001
22
-3.300708
32
18.213520
13
-0.520001
23
-4.705347
33
14.620508
0
3DFACE
8
FuselageAvant
62
58.000000
10
-0.720001
20
-4.318462
30
19.191296
11
-0.720001
21
0.204895
31
21.171988
12
-0.520001
22
0.233163
32
19.760933
13
-0.520001
23
-3.300708
33
18.213520
0
3DFACE
8
FuselageAvant
62
58.000000
10
-0.720001
20
0.204895
30
21.171988
11
-0.720001
21
4.803951
31
19.374050
12
-0.520001
22
3.826175
32
18.356297
13
-0.520001
23
0.233163
33
19.760933
0
3DFACE
8
FuselageAvant
62
58.000000
10
-0.720001
20
4.803951
30
19.374050
11
-0.720001
21
6.784642
31
14.850693
12
-0.520001
22
5.373589
32
14.822424
13
-0.520001
23
3.826175
33
18.356297
0
3DFACE
8
FuselageAvant
62
58.000000
10
-0.720001
20
6.784642
30
14.850693
11
-0.720001
21
4.986705
31
10.251636
12
-0.520001
22
3.968951
32
11.229412
13
-0.520001
23
5.373589
33
14.822424
0
3DFACE
8
FuselageAvant
62
58.000000
10
-0.720001
20
4.986705
30
10.251636
11
-0.720001
21
0.463347
31
8.270946
12
-0.520001
22
0.435079
32
9.681998
13
-0.520001
23
3.968951
33
11.229412
0
3DFACE
8
FuselageAvant
62
58.000000
10
-0.720001
20
0.463347
30
8.270946
11
-0.720001
21
-4.135709
31
10.068882
12
-0.520001
22
-3.157933
32
11.086636
13
-0.520001
23
0.435079
33
9.681998
0
3DFACE
8
FuselageAvant
62
58.000000
10
-0.520001
20
-3.157933
30
11.086636
11
-0.520001
21
-4.705347
31
14.620508
12
-1.120001
22
-4.100612
32
14.632623
13
-1.120001
23
-2.738887
33
11.522814
0
3DFACE
8
FuselageAvant
62
58.000000
10
-0.520001
20
-4.705347
30
14.620508
11
-0.520001
21
-3.300708
31
18.213520
12
-1.120001
22
-2.864530
32
17.794474
13
-1.120001
23
-4.100612
33
14.632623
0
3DFACE
8
FuselageAvant
62
58.000000
10
-0.520001
20
-3.300708
30
18.213520
11
-0.520001
21
0.233163
31
19.760933
12
-1.120001
22
0.245278
32
19.156199
13
-1.120001
23
-2.864530
33
17.794474
0
3DFACE
8
FuselageAvant
62
58.000000
10
-0.520001
20
0.233163
30
19.760933
11
-0.520001
21
3.826175
31
18.356297
12
-1.120001
22
3.407130
32
17.920118
13
-1.120001
23
0.245278
33
19.156199
0
3DFACE
8
FuselageAvant
62
58.000000
10
-0.520001
20
3.826175
30
18.356297
11
-0.520001
21
5.373589
31
14.822424
12
-1.120001
22
4.768855
32
14.810309
13
-1.120001
23
3.407130
33
17.920118
0
3DFACE
8
FuselageAvant
62
58.000000
10
-0.520001
20
5.373589
30
14.822424
11
-0.520001
21
3.968951
31
11.229412
12
-1.120001
22
3.532773
32
11.648458
13
-1.120001
23
4.768855
33
14.810309
0
3DFACE
8
FuselageAvant
62
58.000000
10
-0.520001
20
3.968951
30
11.229412
11
-0.520001
21
0.435079
31
9.681998
12
-1.120001
22
0.422964
32
10.286733
13
-1.120001
23
3.532773
33
11.648458
0
3DFACE
8
FuselageAvant
62
58.000000
10
-0.520001
20
0.435079
30
9.681998
11
-0.520001
21
-3.157933
31
11.086636
12
-1.120001
22
-2.738887
32
11.522814
13
-1.120001
23
0.422964
33
10.286733
0
3DFACE
8
FuselageAvant
62
58.000000
10
-1.120001
20
-2.738887
30
11.522814
11
-1.120001
21
-4.100612
31
14.632623
12
-1.120001
22
-2.864530
32
17.794474
13
-1.120001
23
-2.864530
33
17.794474
0
3DFACE
8
FuselageAvant
62
58.000000
10
-1.120001
20
-2.738887
30
11.522814
11
-1.120001
21
-2.864530
31
17.794474
12
-1.120001
22
0.245278
32
19.156199
13
-1.120001
23
0.245278
33
19.156199
0
3DFACE
8
FuselageAvant
62
58.000000
10
-1.120001
20
-2.738887
30
11.522814
11
-1.120001
21
0.245278
31
19.156199
12
-1.120001
22
3.407130
32
17.920118
13
-1.120001
23
3.407130
33
17.920118
0
3DFACE
8
FuselageAvant
62
58.000000
10
-1.120001
20
-2.738887
30
11.522814
11
-1.120001
21
3.407130
31
17.920118
12
-1.120001
22
4.768855
32
14.810309
13
-1.120001
23
4.768855
33
14.810309
0
3DFACE
8
FuselageAvant
62
58.000000
10
-1.120001
20
-2.738887
30
11.522814
11
-1.120001
21
4.768855
31
14.810309
12
-1.120001
22
3.532773
32
11.648458
13
-1.120001
23
3.532773
33
11.648458
0
3DFACE
8
FuselageAvant
62
58.000000
10
-1.120001
20
-2.738887
30
11.522814
11
-1.120001
21
3.532773
31
11.648458
12
-1.120001
22
0.422964
32
10.286733
13
-1.120001
23
0.422964
33
10.286733
0
3DFACE
8
FuselageAvant
62
58.000000
10
-14.123490
20
0.189042
30
20.708200
11
-19.741829
21
4.163960
31
18.461678
12
-14.120001
22
4.484837
32
19.041887
13
-14.120001
23
4.484837
33
19.041887
0
3DFACE
8
FuselageAvant
62
58.000000
10
-19.381830
20
-3.739511
30
18.321678
11
-14.083488
21
0.195408
31
20.708195
12
-14.120001
22
-3.986300
32
18.872181
13
-14.120001
23
-3.986300
33
18.872181
0
3DFACE
8
Echapement
62
59.000000
10
-8.120001
20
-5.884654
30
12.282151
11
-8.652700
21
-6.535999
31
12.012355
12
-8.126984
22
-7.062953
32
11.269717
13
-7.186792
23
-5.699262
33
11.834576
0
3DFACE
8
Echapement
62
59.000000
10
-7.186792
20
-5.699262
30
11.834576
11
-8.126984
21
-7.062953
31
11.269717
12
-7.704973
22
-7.917135
32
11.714524
13
-6.437673
23
-5.981617
33
12.516243
0
3DFACE
8
Echapement
62
59.000000
10
-6.437673
20
-5.981617
30
12.516243
11
-7.704973
21
-7.917135
31
11.714524
12
-7.969872
22
-7.918091
32
12.732071
13
-6.907901
23
-6.341514
33
13.385110
0
3DFACE
8
Echapement
62
59.000000
10
-6.907901
20
-6.341514
30
13.385110
11
-7.969872
21
-7.918091
31
12.732071
12
-8.555600
22
-7.064506
32
12.916139
13
-7.947636
23
-6.281588
33
13.240435
0
3DFACE
8
Echapement
62
59.000000
10
-7.947636
20
-6.281588
30
13.240435
11
-8.555600
21
-7.064506
31
12.916139
12
-8.652700
22
-6.535999
32
12.012355
13
-8.120001
23
-5.884654
33
12.282151
0
3DFACE
8
Echapement
62
59.000000
10
-8.652700
20
-6.535999
30
12.012355
11
-9.843802
21
-6.693207
31
11.947238
12
-9.660785
22
-7.353244
32
11.149474
13
-8.126984
23
-7.062953
33
11.269717
0
3DFACE
8
Echapement
62
59.000000
10
-8.126984
20
-7.062953
30
11.269717
11
-9.660785
21
-7.353244
31
11.149474
12
-9.513871
22
-8.314256
32
11.550032
13
-7.704973
23
-7.917135
33
11.714524
0
3DFACE
8
Echapement
62
59.000000
10
-7.704973
20
-7.917135
30
11.714524
11
-9.513871
21
-8.314256
31
11.550032
12
-9.606090
22
-8.248154
32
12.595354
13
-7.969872
23
-7.918091
33
12.732071
0
3DFACE
8
Echapement
62
59.000000
10
-7.969872
20
-7.918091
30
12.732071
11
-9.606090
21
-8.248154
31
12.595354
12
-9.809999
22
-7.246293
32
12.840840
13
-8.555600
23
-7.064506
33
12.916139
0
3DFACE
8
Echapement
62
59.000000
10
-8.555600
20
-7.064506
30
12.916139
11
-9.809999
21
-7.246293
31
12.840840
12
-9.843802
22
-6.693207
32
11.947238
13
-8.652700
23
-6.535999
33
12.012355
0
3DFACE
8
Echapement
62
59.000000
10
-9.809999
20
-7.246293
30
12.840840
11
-9.606090
21
-8.248154
31
12.595354
12
-9.513871
22
-8.314256
32
11.550032
13
-9.513871
23
-8.314256
33
11.550032
0
3DFACE
8
Echapement
62
59.000000
10
-9.809999
20
-7.246293
30
12.840840
11
-9.513871
21
-8.314256
31
11.550032
12
-9.660785
22
-7.353244
32
11.149474
13
-9.660785
23
-7.353244
33
11.149474
0
3DFACE
8
Echapement
62
59.000000
10
-9.809999
20
-7.246293
30
12.840840
11
-9.660785
21
-7.353244
31
11.149474
12
-9.843802
22
-6.693207
32
11.947238
13
-9.843802
23
-6.693207
33
11.947238
0
3DFACE
8
Echapement
62
59.000000
10
-4.420001
20
-5.884654
30
12.282151
11
-4.952701
21
-6.535999
31
12.012355
12
-4.426984
22
-7.062953
32
11.269717
13
-3.486792
23
-5.699262
33
11.834576
0
3DFACE
8
Echapement
62
59.000000
10
-3.486792
20
-5.699262
30
11.834576
11
-4.426984
21
-7.062953
31
11.269717
12
-4.004972
22
-7.917135
32
11.714524
13
-2.737673
23
-5.981617
33
12.516243
0
3DFACE
8
Echapement
62
59.000000
10
-2.737673
20
-5.981617
30
12.516243
11
-4.004972
21
-7.917135
31
11.714524
12
-4.269873
22
-7.918091
32
12.732071
13
-3.207901
23
-6.341514
33
13.385110
0
3DFACE
8
Echapement
62
59.000000
10
-3.207901
20
-6.341514
30
13.385110
11
-4.269873
21
-7.918091
31
12.732071
12
-4.855600
22
-7.064506
32
12.916139
13
-4.247636
23
-6.281588
33
13.240435
0
3DFACE
8
Echapement
62
59.000000
10
-4.247636
20
-6.281588
30
13.240435
11
-4.855600
21
-7.064506
31
12.916139
12
-4.952701
22
-6.535999
32
12.012355
13
-4.420001
23
-5.884654
33
12.282151
0
3DFACE
8
Echapement
62
59.000000
10
-4.952701
20
-6.535999
30
12.012355
11
-6.143802
21
-6.693207
31
11.947238
12
-5.960785
22
-7.353244
32
11.149474
13
-4.426984
23
-7.062953
33
11.269717
0
3DFACE
8
Echapement
62
59.000000
10
-4.426984
20
-7.062953
30
11.269717
11
-5.960785
21
-7.353244
31
11.149474
12
-5.813871
22
-8.314256
32
11.550032
13
-4.004972
23
-7.917135
33
11.714524
0
3DFACE
8
Echapement
62
59.000000
10
-4.004972
20
-7.917135
30
11.714524
11
-5.813871
21
-8.314256
31
11.550032
12
-5.906090
22
-8.248154
32
12.595354
13
-4.269873
23
-7.918091
33
12.732071
0
3DFACE
8
Echapement
62
59.000000
10
-4.269873
20
-7.918091
30
12.732071
11
-5.906090
21
-8.248154
31
12.595354
12
-6.109999
22
-7.246293
32
12.840840
13
-4.855600
23
-7.064506
33
12.916139
0
3DFACE
8
Echapement
62
59.000000
10
-4.855600
20
-7.064506
30
12.916139
11
-6.109999
21
-7.246293
31
12.840840
12
-6.143802
22
-6.693207
32
11.947238
13
-4.952701
23
-6.535999
33
12.012355
0
3DFACE
8
Echapement
62
59.000000
10
-6.109999
20
-7.246293
30
12.840840
11
-5.906090
21
-8.248154
31
12.595354
12
-5.813871
22
-8.314256
32
11.550032
13
-5.813871
23
-8.314256
33
11.550032
0
3DFACE
8
Echapement
62
59.000000
10
-6.109999
20
-7.246293
30
12.840840
11
-5.813871
21
-8.314256
31
11.550032
12
-5.960785
22
-7.353244
32
11.149474
13
-5.960785
23
-7.353244
33
11.149474
0
3DFACE
8
Echapement
62
59.000000
10
-6.109999
20
-7.246293
30
12.840840
11
-5.960785
21
-7.353244
31
11.149474
12
-6.143802
22
-6.693207
32
11.947238
13
-6.143802
23
-6.693207
33
11.947238
0
3DFACE
8
CharnProf
62
60.000000
10
-62.694496
20
0.924441
30
16.153511
11
-62.694496
21
1.224441
31
16.326717
12
-62.694496
22
0.924440
32
16.499924
13
-62.694496
23
0.924440
33
16.499924
0
3DFACE
8
Verriere
62
61.000000
10
-13.520004
20
0.192224
30
20.762590
11
-13.520004
21
0.192224
31
20.762590
12
-18.741831
22
0.192224
32
29.475300
13
-18.741831
23
3.403960
33
27.633703
0
3DFACE
8
Verriere
62
61.000000
10
-18.741831
20
3.403960
30
27.633703
11
-18.741831
21
0.192224
31
29.475300
12
-24.760006
22
0.192224
32
32.548561
13
-24.760006
23
4.734303
33
29.944155
0
3DFACE
8
Verriere
62
61.000000
10
-24.760006
20
4.734303
30
29.944155
11
-24.760006
21
0.192224
31
32.548561
12
-34.298176
22
0.192224
32
29.475300
13
-34.298176
23
3.403960
33
27.633699
0
3DFACE
8
Verriere
62
61.000000
10
-34.298176
20
3.403960
30
27.633699
11
-34.298176
21
0.192224
31
29.475300
12
-41.520000
22
0.192224
32
19.954224
13
-41.520000
23
0.192224
33
19.954224
0
3DFACE
8
Verriere
62
61.000000
10
-13.520004
20
0.192224
30
20.762590
11
-13.520004
21
0.192224
31
20.762590
12
-18.741831
22
3.403960
32
27.633703
13
-18.741831
23
4.734304
33
23.187687
0
3DFACE
8
Verriere
62
61.000000
10
-18.741831
20
4.734304
30
23.187687
11
-18.741831
21
3.403960
31
27.633703
12
-24.760006
22
4.734303
32
29.944155
13
-24.760006
23
6.615695
33
23.656538
0
3DFACE
8
Verriere
62
61.000000
10
-24.760006
20
6.615695
30
23.656538
11
-24.760006
21
4.734303
31
29.944155
12
-34.298176
22
3.403960
32
27.633699
13
-34.298176
23
4.734304
33
23.187687
0
3DFACE
8
Verriere
62
61.000000
10
-34.298176
20
4.734304
30
23.187687
11
-34.298176
21
3.403960
31
27.633699
12
-41.520000
22
0.192224
32
19.954224
13
-41.520000
23
0.192224
33
19.954224
0
3DFACE
8
Verriere
62
61.000000
10
-13.520004
20
0.192224
30
20.762590
11
-13.520004
21
0.192224
31
20.762590
12
-18.741831
22
4.734304
32
23.187687
13
-18.741831
23
3.403959
33
18.741678
0
3DFACE
8
Verriere
62
61.000000
10
-18.741831
20
3.403959
30
18.741678
11
-18.741831
21
4.734304
31
23.187687
12
-24.760006
22
6.615695
32
23.656538
13
-24.760002
23
4.734303
33
17.368931
0
3DFACE
8
Verriere
62
61.000000
10
-24.760002
20
4.734303
30
17.368931
11
-24.760006
21
6.615695
31
23.656538
12
-34.298176
22
4.734304
32
23.187687
13
-34.298176
23
3.403959
33
18.741678
0
3DFACE
8
Verriere
62
61.000000
10
-34.298176
20
3.403959
30
18.741678
11
-34.298176
21
4.734304
31
23.187687
12
-41.520000
22
0.192224
32
19.954224
13
-41.520000
23
0.192224
33
19.954224
0
3DFACE
8
Verriere
62
61.000000
10
-13.520004
20
0.192224
30
20.762590
11
-13.520004
21
0.192224
31
20.762590
12
-18.741831
22
-3.019511
32
18.741678
13
-18.741831
23
-4.349854
33
23.187687
0
3DFACE
8
Verriere
62
61.000000
10
-18.741831
20
-4.349854
30
23.187687
11
-18.741831
21
-3.019511
31
18.741678
12
-24.760002
22
-4.349854
32
17.368931
13
-24.760006
23
-6.231246
33
23.656538
0
3DFACE
8
Verriere
62
61.000000
10
-24.760006
20
-6.231246
30
23.656538
11
-24.760002
21
-4.349854
31
17.368931
12
-34.298176
22
-3.019511
32
18.741678
13
-34.298176
23
-4.349854
33
23.187687
0
3DFACE
8
Verriere
62
61.000000
10
-34.298176
20
-4.349854
30
23.187687
11
-34.298176
21
-3.019511
31
18.741678
12
-41.520000
22
0.192224
32
19.954224
13
-41.520000
23
0.192224
33
19.954224
0
3DFACE
8
Verriere
62
61.000000
10
-13.520004
20
0.192224
30
20.762590
11
-13.520004
21
0.192224
31
20.762590
12
-18.741831
22
-4.349854
32
23.187687
13
-18.741831
23
-3.019511
33
27.633703
0
3DFACE
8
Verriere
62
61.000000
10
-18.741831
20
-3.019511
30
27.633703
11
-18.741831
21
-4.349854
31
23.187687
12
-24.760006
22
-6.231246
32
23.656538
13
-24.760006
23
-4.349854
33
29.944147
0
3DFACE
8
Verriere
62
61.000000
10
-24.760006
20
-4.349854
30
29.944147
11
-24.760006
21
-6.231246
31
23.656538
12
-34.298176
22
-4.349854
32
23.187687
13
-34.298176
23
-3.019511
33
27.633699
0
3DFACE
8
Verriere
62
61.000000
10
-34.298176
20
-3.019511
30
27.633699
11
-34.298176
21
-4.349854
31
23.187687
12
-41.520000
22
0.192224
32
19.954224
13
-41.520000
23
0.192224
33
19.954224
0
3DFACE
8
Verriere
62
61.000000
10
-13.520004
20
0.192224
30
20.762590
11
-13.520004
21
0.192224
31
20.762590
12
-18.741831
22
-3.019511
32
27.633703
13
-18.741831
23
0.192224
33
29.475300
0
3DFACE
8
Verriere
62
61.000000
10
-18.741831
20
0.192224
30
29.475300
11
-18.741831
21
-3.019511
31
27.633703
12
-24.760006
22
-4.349854
32
29.944147
13
-24.760006
23
0.192224
33
32.548561
0
3DFACE
8
Verriere
62
61.000000
10
-24.760006
20
0.192224
30
32.548561
11
-24.760006
21
-4.349854
31
29.944147
12
-34.298176
22
-3.019511
32
27.633699
13
-34.298176
23
0.192224
33
29.475300
0
3DFACE
8
Verriere
62
61.000000
10
-34.298176
20
0.192224
30
29.475300
11
-34.298176
21
-3.019511
31
27.633699
12
-41.520000
22
0.192224
32
19.954224
13
-41.520000
23
0.192224
33
19.954224
0
3DFACE
8
Verriere
62
61.000000
10
-34.298176
20
-3.019511
30
18.741678
11
-35.198174
21
-2.536680
31
19.008488
12
-35.198174
22
-3.667030
32
23.326115
13
-34.298176
23
-4.349854
33
23.187687
0
3DFACE
8
Verriere
62
61.000000
10
-34.298176
20
-4.349854
30
23.187687
11
-35.198174
21
-3.667030
31
23.326115
12
-35.198174
22
-2.536681
32
27.103743
13
-34.298176
23
-3.019511
33
27.633699
0
3DFACE
8
Verriere
62
61.000000
10
-34.298176
20
-3.019511
30
27.633699
11
-35.198174
21
-2.536681
31
27.103743
12
-35.198174
22
0.192224
32
28.668491
13
-34.298176
23
0.192224
33
29.475300
0
3DFACE
8
Verriere
62
61.000000
10
-34.298176
20
0.192224
30
29.475300
11
-35.198174
21
0.192224
31
28.668491
12
-35.198174
22
2.921130
32
27.103743
13
-34.298176
23
3.403960
33
27.633699
0
3DFACE
8
Verriere
62
61.000000
10
-34.298176
20
3.403960
30
27.633699
11
-35.198174
21
2.921130
31
27.103743
12
-35.198174
22
4.051479
32
23.326115
13
-34.298176
23
4.734304
33
23.187687
0
3DFACE
8
Verriere
62
61.000000
10
-34.298176
20
4.734304
30
23.187687
11
-35.198174
21
4.051479
31
23.326115
12
-35.198174
22
2.921129
32
19.008488
13
-34.298176
23
3.403959
33
18.741678
0
3DFACE
8
Verriere
62
61.000000
10
-18.741831
20
-3.019511
30
18.741678
11
-18.741831
21
-4.349854
31
23.187687
12
-18.061832
22
-3.870147
32
23.284937
13
-18.061832
23
-2.680306
33
19.008490
0
3DFACE
8
Verriere
62
61.000000
10
-18.741831
20
-4.349854
30
23.187687
11
-18.741831
21
-3.019511
31
27.633703
12
-18.061832
22
-2.680307
32
27.261391
13
-18.061832
23
-3.870147
33
23.284937
0
3DFACE
8
Verriere
62
61.000000
10
-18.741831
20
-3.019511
30
27.633703
11
-18.741831
21
0.192224
31
29.475300
12
-18.061832
22
0.192224
32
28.908489
13
-18.061832
23
-2.680307
33
27.261391
0
3DFACE
8
Verriere
62
61.000000
10
-18.741831
20
0.192224
30
29.475300
11
-18.741831
21
3.403960
31
27.633703
12
-18.061832
22
3.064756
32
27.261391
13
-18.061832
23
0.192224
33
28.908489
0
3DFACE
8
Verriere
62
61.000000
10
-18.741831
20
3.403960
30
27.633703
11
-18.741831
21
4.734304
31
23.187687
12
-18.061832
22
4.254597
32
23.284937
13
-18.061832
23
3.064756
33
27.261391
0
3DFACE
8
Verriere
62
61.000000
10
-18.741831
20
4.734304
30
23.187687
11
-18.741831
21
3.403959
31
18.741678
12
-18.061832
22
3.064755
32
19.008490
13
-18.061832
23
4.254597
33
23.284937
0
ENDSEC
0
EOF
