0
SECTION
2
ENTITIES
0
3DFACE
8
Nef1
62
1.000000
10
-33.064880
20
-56.826881
30
0.077431
11
-110.556404
21
-56.826889
31
0.077431
12
-113.094910
22
-66.516144
32
96.948410
13
-42.643288
23
-66.516144
33
96.948410
0
3DFACE
8
Nef1
62
1.000000
10
-113.094910
20
-66.516144
30
96.948410
11
-109.886299
21
-32.349297
31
113.739372
12
-42.830986
22
-32.349297
32
113.974213
13
-42.643288
23
-66.516144
33
96.948410
0
3DFACE
8
Nef1
62
1.000000
10
-42.643288
20
68.516136
30
96.948410
11
-113.094910
21
68.516129
31
96.948410
12
-110.556404
22
58.826878
32
0.077431
13
-33.064880
23
58.826881
33
0.077431
0
3DFACE
8
Nef1
62
1.000000
10
-42.643288
20
68.516136
30
96.948410
11
-42.830986
21
31.413818
31
113.974213
12
-109.886299
22
31.413818
32
113.739372
13
-113.094910
23
68.516129
33
96.948410
0
3DFACE
8
Clocher
62
2.000000
10
-42.830986
20
-32.349297
30
113.974213
11
-109.886299
21
-32.349297
31
113.739372
12
-109.725365
22
-37.316261
32
219.416977
13
-46.012886
23
-37.316261
33
219.416977
0
3DFACE
8
Clocher
62
2.000000
10
-109.886299
20
-32.349297
30
113.739372
11
-113.094910
21
-66.516144
31
96.948410
12
-110.556404
22
-56.826889
32
0.077431
13
-110.556404
23
-56.826889
33
0.077431
0
3DFACE
8
Clocher
62
2.000000
10
-109.886299
20
-32.349297
30
113.739372
11
-110.556404
21
-56.826889
31
0.077431
12
-110.556404
22
58.826878
32
0.077431
13
-110.556404
23
58.826878
33
0.077431
0
3DFACE
8
Clocher
62
2.000000
10
-109.886299
20
-32.349297
30
113.739372
11
-110.556404
21
58.826878
31
0.077431
12
-113.094910
22
68.516129
32
96.948410
13
-113.094910
23
68.516129
33
96.948410
0
3DFACE
8
Clocher
62
2.000000
10
-109.886299
20
-32.349297
30
113.739372
11
-113.094910
21
68.516129
31
96.948410
12
-109.886299
22
31.413818
32
113.739372
13
-109.886299
23
31.413818
33
113.739372
0
3DFACE
8
Clocher
62
2.000000
10
-109.886299
20
-32.349297
30
113.739372
11
-109.886299
21
31.413818
31
113.739372
12
-109.725365
22
36.380779
32
219.416977
13
-109.725365
23
36.380779
33
219.416977
0
3DFACE
8
Clocher
62
2.000000
10
-109.886299
20
-32.349297
30
113.739372
11
-109.725365
21
36.380779
31
219.416977
12
-109.725365
22
-37.316261
32
219.416977
13
-109.725365
23
-37.316261
33
219.416977
0
3DFACE
8
Clocher
62
2.000000
10
-109.886299
20
31.413818
30
113.739372
11
-42.830986
21
31.413818
31
113.974213
12
-46.012886
22
36.380779
32
219.416977
13
-109.725365
23
36.380779
33
219.416977
0
3DFACE
8
Clocher
62
2.000000
10
-39.980980
20
0.807519
30
129.238739
11
-42.830986
21
-32.349297
31
113.974213
12
-46.012886
22
-37.316261
32
219.416977
13
-46.012886
23
-37.316261
33
219.416977
0
3DFACE
8
Clocher
62
2.000000
10
-39.980980
20
0.807519
30
129.238739
11
-46.012886
21
-37.316261
31
219.416977
12
-46.012886
22
36.380779
32
219.416977
13
-46.012886
23
36.380779
33
219.416977
0
3DFACE
8
Clocher
62
2.000000
10
-39.980980
20
0.807519
30
129.238739
11
-46.012886
21
36.380779
31
219.416977
12
-42.830986
22
31.413818
32
113.974213
13
-42.830986
23
31.413818
33
113.974213
0
3DFACE
8
Clocher
62
2.000000
10
-109.725365
20
-37.316261
30
219.416977
11
-71.190910
21
6.254517
31
294.489136
12
-46.012886
22
-37.316261
32
219.416977
13
-46.012886
23
-37.316261
33
219.416977
0
3DFACE
8
Clocher
62
2.000000
10
-46.012886
20
-37.316261
30
219.416977
11
-71.190910
21
6.254517
31
294.489136
12
-46.012886
22
36.380779
32
219.416977
13
-46.012886
23
36.380779
33
219.416977
0
3DFACE
8
Clocher
62
2.000000
10
-109.725365
20
36.380779
30
219.416977
11
-71.190910
21
6.254517
31
294.489136
12
-109.725365
22
-37.316261
32
219.416977
13
-109.725365
23
-37.316261
33
219.416977
0
3DFACE
8
Clocher
62
2.000000
10
-109.725365
20
36.380779
30
219.416977
11
-46.012886
21
36.380779
31
219.416977
12
-72.335716
22
6.254517
32
294.489136
13
-72.335716
23
6.254517
33
294.489136
0
3DFACE
8
Clocher
62
2.000000
10
-109.886299
20
15.050628
30
61.300072
11
-109.886299
21
26.976835
31
75.108406
12
-109.886299
22
28.509014
32
93.289635
13
-109.886299
23
28.509014
33
93.289635
0
3DFACE
8
Clocher
62
2.000000
10
-109.886299
20
15.050628
30
61.300072
11
-109.886299
21
28.509014
31
93.289635
12
-109.886299
22
19.061918
32
108.899147
13
-109.886299
23
19.061918
33
108.899147
0
3DFACE
8
Clocher
62
2.000000
10
-109.886299
20
15.050628
30
61.300072
11
-109.886299
21
19.061918
31
108.899147
12
-109.886299
22
2.244010
32
115.974625
13
-109.886299
23
2.244010
33
115.974625
0
3DFACE
8
Clocher
62
2.000000
10
-109.886299
20
15.050628
30
61.300072
11
-109.886299
21
2.244010
31
115.974625
12
-109.886299
22
-15.520832
32
111.813507
13
-109.886299
23
-15.520832
33
111.813507
0
3DFACE
8
Clocher
62
2.000000
10
-109.886299
20
15.050628
30
61.300072
11
-109.886299
21
-15.520832
31
111.813507
12
-109.886299
22
-27.447041
32
98.005173
13
-109.886299
23
-27.447041
33
98.005173
0
3DFACE
8
Clocher
62
2.000000
10
-109.886299
20
15.050628
30
61.300072
11
-109.886299
21
-27.447041
31
98.005173
12
-109.886299
22
-28.979218
32
79.823952
13
-109.886299
23
-28.979218
33
79.823952
0
3DFACE
8
Clocher
62
2.000000
10
-109.886299
20
15.050628
30
61.300072
11
-109.886299
21
-28.979218
31
79.823952
12
-109.886299
22
-19.532114
32
64.214447
13
-109.886299
23
-19.532114
33
64.214447
0
3DFACE
8
Clocher
62
2.000000
10
-109.886299
20
15.050628
30
61.300072
11
-109.886299
21
-19.532114
31
64.214447
12
-109.886299
22
-2.714212
32
57.138958
13
-109.886299
23
-2.714212
33
57.138958
0
3DFACE
8
Clocher
62
2.000000
10
-109.725365
20
9.184812
30
173.828903
11
-109.725365
21
19.492722
31
173.828903
12
-109.725365
22
20.865032
32
212.195572
13
-109.725365
23
9.856964
33
212.195572
0
3DFACE
8
Clocher
62
2.000000
10
-109.725365
20
-5.438670
30
173.828903
11
-109.725365
21
4.869238
31
173.828903
12
-109.725365
22
5.248257
32
212.195572
13
-109.725365
23
-5.759810
33
212.195572
0
3DFACE
8
Clocher
62
2.000000
10
-109.725365
20
-20.254566
30
173.828903
11
-109.725365
21
-9.946659
31
173.828903
12
-109.725365
22
-10.574002
32
212.195572
13
-109.725365
23
-21.582069
33
212.195572
0
3DFACE
8
Clocher
62
2.000000
10
-85.830521
20
-36.664749
30
173.828903
11
-96.838585
21
-36.664749
31
173.828903
12
-96.838585
22
-39.106907
32
212.195572
13
-85.830521
23
-39.106903
33
212.195572
0
3DFACE
8
Clocher
62
2.000000
10
-70.213737
20
-36.664749
30
173.828903
11
-81.221817
21
-36.664749
31
173.828903
12
-81.221817
22
-39.106903
32
212.195572
13
-70.213737
23
-39.106903
33
212.195572
0
3DFACE
8
Clocher
62
2.000000
10
-54.391487
20
-36.664745
30
173.828903
11
-65.399544
21
-36.664749
31
173.828903
12
-65.399544
22
-39.106903
32
212.195572
13
-54.391487
23
-39.106903
33
212.195572
0
3DFACE
8
Clocher
62
2.000000
10
-43.999874
20
-13.217698
30
173.828903
11
-43.999874
21
-23.525608
31
173.828903
12
-43.999874
22
-25.075294
32
212.195572
13
-43.999874
23
-14.067225
33
212.195572
0
3DFACE
8
Clocher
62
2.000000
10
-43.999874
20
1.405783
30
173.828903
11
-43.999874
21
-8.902124
31
173.828903
12
-43.999874
22
-9.458518
32
212.195572
13
-43.999874
23
1.549549
33
212.195572
0
3DFACE
8
Clocher
62
2.000000
10
-43.999874
20
16.221676
30
173.828903
11
-43.999874
21
5.913772
31
173.828903
12
-43.999874
22
6.363741
32
212.195572
13
-43.999874
23
17.371805
33
212.195572
0
3DFACE
8
Clocher
62
2.000000
10
-63.227299
20
35.243202
30
173.828903
11
-52.219234
21
35.243202
31
173.828903
12
-52.219234
22
37.685364
32
212.195572
13
-63.227299
23
37.685360
33
212.195572
0
3DFACE
8
Clocher
62
2.000000
10
-78.844070
20
35.243202
30
173.828903
11
-67.835999
21
35.243202
31
173.828903
12
-67.835999
22
37.685360
32
212.195572
13
-78.844070
23
37.685360
33
212.195572
0
3DFACE
8
Clocher
62
2.000000
10
-94.666328
20
35.243198
30
173.828903
11
-83.658257
21
35.243202
31
173.828903
12
-83.658257
22
37.685360
32
212.195572
13
-94.666328
23
37.685356
33
212.195572
0
3DFACE
8
ContreFort1
62
3.000000
10
77.711533
20
68.516136
30
67.593567
11
77.711540
21
92.000008
31
58.787113
12
83.582504
22
83.193558
32
58.787113
13
83.582504
23
83.193558
33
58.787113
0
3DFACE
8
ContreFort1
62
3.000000
10
77.711533
20
68.516136
30
67.593567
11
71.840569
21
83.193558
31
58.787113
12
77.711540
22
92.000008
32
58.787113
13
77.711540
23
92.000008
33
58.787113
0
3DFACE
8
ContreFort1
62
3.000000
10
68.905090
20
68.516136
30
58.787113
11
71.840569
21
83.193558
31
58.787113
12
77.711533
22
68.516136
32
67.593567
13
77.711533
23
68.516136
33
67.593567
0
3DFACE
8
ContreFort1
62
3.000000
10
77.711533
20
68.516136
30
67.593567
11
83.582504
21
83.193558
31
58.787113
12
86.517998
22
68.516144
32
58.787113
13
86.517998
23
68.516144
33
58.787113
0
3DFACE
8
ContreFort1
62
3.000000
10
86.517998
20
68.516144
30
58.787113
11
83.582504
21
83.193558
31
58.787113
12
81.737396
22
71.397942
32
0.077431
13
84.607468
23
58.826889
33
0.077431
0
3DFACE
8
ContreFort1
62
3.000000
10
83.582504
20
83.193558
30
58.787113
11
77.711540
21
92.000008
31
58.787113
12
75.997292
22
78.940582
32
0.077431
13
81.737396
23
71.397942
33
0.077431
0
3DFACE
8
ContreFort1
62
3.000000
10
77.711540
20
92.000008
30
58.787113
11
71.840569
21
83.193558
31
58.787113
12
70.257179
22
71.397942
32
0.077431
13
75.997292
23
78.940582
33
0.077431
0
3DFACE
8
ContreFort1
62
3.000000
10
71.840569
20
83.193558
30
58.787113
11
68.905090
21
68.516136
31
58.787113
12
67.387108
22
58.826881
32
0.077431
13
70.257179
23
71.397942
33
0.077431
0
3DFACE
8
Nef3
62
4.000000
10
104.697876
20
-56.826889
30
0.077431
11
107.066399
21
-66.516144
31
96.948410
12
107.066399
22
68.516129
32
96.948410
13
104.697876
23
58.826878
33
0.077431
0
3DFACE
8
Nef3
62
4.000000
10
49.120354
20
-66.516144
30
96.948410
11
107.066399
21
-66.516144
31
96.948410
12
104.697876
22
-56.826889
32
0.077431
13
32.975197
23
-56.826889
33
0.077431
0
3DFACE
8
Nef3
62
4.000000
10
32.975197
20
58.826878
30
0.077431
11
104.697876
21
58.826878
31
0.077431
12
107.066399
22
68.516129
32
96.948410
13
49.120354
23
68.516129
33
96.948410
0
3DFACE
8
Nef2
62
5.000000
10
32.975197
20
58.826878
30
0.077431
11
49.120354
21
68.516129
31
96.948410
12
-42.643288
22
68.516136
32
96.948410
13
-33.064880
23
58.826881
33
0.077431
0
3DFACE
8
Nef2
62
5.000000
10
-33.064880
20
-56.826881
30
0.077431
11
-42.643288
21
-66.516144
31
96.948410
12
49.120354
22
-66.516144
32
96.948410
13
32.975197
23
-56.826889
33
0.077431
0
3DFACE
8
Porte
62
6.000000
10
104.697876
20
18.178207
30
0.077414
11
104.697876
21
-19.534981
31
0.077414
12
107.066399
22
-22.483881
32
55.851608
13
107.066399
23
21.548376
33
55.851608
0
3DFACE
8
Porte
62
6.000000
10
104.697876
20
46.255806
30
-0.040006
11
112.154488
21
42.484493
31
-0.040006
12
114.692993
22
49.378613
32
41.879509
13
107.066399
23
53.724976
33
42.584824
0
3DFACE
8
Porte
62
6.000000
10
112.154488
20
42.484493
30
-0.040006
11
112.154488
21
34.941856
31
-0.040006
12
114.692993
22
40.685875
32
40.468868
13
114.692993
23
49.378613
33
41.879509
0
3DFACE
8
Porte
62
6.000000
10
112.154488
20
34.941856
30
-0.040006
11
104.697876
21
31.170542
31
-0.040006
12
107.066399
22
36.339512
32
39.763554
13
114.692993
23
40.685875
33
40.468868
0
3DFACE
8
Porte
62
6.000000
10
107.066399
20
53.724976
30
42.584824
11
114.692993
21
49.378613
31
41.879509
12
114.692993
22
39.879799
32
70.050507
13
107.066399
23
43.533813
33
72.507454
0
3DFACE
8
Porte
62
6.000000
10
114.692993
20
49.378613
30
41.879509
11
114.692993
21
40.685875
31
40.468868
12
114.692993
22
32.571785
32
65.136597
13
114.692993
23
39.879799
33
70.050507
0
3DFACE
8
Porte
62
6.000000
10
114.692993
20
40.685875
30
40.468868
11
107.066399
21
36.339512
31
39.763554
12
107.066399
22
28.917780
32
62.679649
13
114.692993
23
32.571785
33
65.136597
0
3DFACE
8
Porte
62
6.000000
10
107.066399
20
43.533813
30
72.507454
11
114.692993
21
39.879799
31
70.050507
12
114.692993
22
17.205080
32
89.336182
13
107.066399
23
18.732775
33
93.465874
0
3DFACE
8
Porte
62
6.000000
10
114.692993
20
39.879799
30
70.050507
11
114.692993
21
32.571785
31
65.136597
12
114.692993
22
14.149730
32
81.076729
13
114.692993
23
17.205080
33
89.336182
0
3DFACE
8
Porte
62
6.000000
10
114.692993
20
32.571785
30
65.136597
11
107.066399
21
28.917780
31
62.679649
12
107.066399
22
12.622038
32
76.947014
13
114.692993
23
14.149730
33
81.076729
0
3DFACE
8
Porte
62
6.000000
10
107.066399
20
18.732775
30
93.465874
11
114.692993
21
17.205080
31
89.336182
12
114.692993
22
-9.020368
32
89.439049
13
107.066399
23
-10.234235
33
93.671631
0
3DFACE
8
Porte
62
6.000000
10
114.692993
20
17.205080
30
89.336182
11
114.692993
21
14.149730
31
81.076729
12
114.692993
22
-6.592569
32
80.973854
13
114.692993
23
-9.020368
33
89.439049
0
3DFACE
8
Porte
62
6.000000
10
114.692993
20
14.149730
30
81.076729
11
107.066399
21
12.622038
31
76.947014
12
107.066399
22
-5.378687
32
76.741272
13
114.692993
23
-6.592569
33
80.973854
0
3DFACE
8
Porte
62
6.000000
10
107.066399
20
-10.234235
30
93.671631
11
114.692993
21
-9.020368
31
89.439049
12
114.692993
22
-34.885681
32
73.071075
13
107.066399
23
-38.480995
33
75.613106
0
3DFACE
8
Porte
62
6.000000
10
114.692993
20
-9.020368
30
89.439049
11
114.692993
21
-6.592569
31
80.973854
12
114.692993
22
-27.695000
32
67.987007
13
114.692993
23
-34.885681
33
73.071075
0
3DFACE
8
Porte
62
6.000000
10
114.692993
20
-6.592569
30
80.973854
11
107.066399
21
-5.378687
31
76.741272
12
107.066399
22
-24.099670
32
65.444962
13
114.692993
23
-27.695000
33
67.987007
0
3DFACE
8
Porte
62
6.000000
10
107.066399
20
-38.480995
30
75.613106
11
114.692993
21
-34.885681
31
73.071075
12
114.692993
22
-41.538242
32
44.590126
13
107.066399
23
-45.915161
33
45.070625
0
3DFACE
8
Porte
62
6.000000
10
114.692993
20
-34.885681
30
73.071075
11
114.692993
21
-27.695000
31
67.987007
12
114.692993
22
-32.784378
32
43.629227
13
114.692993
23
-41.538242
33
44.590126
0
3DFACE
8
Porte
62
6.000000
10
114.692993
20
-27.695000
30
67.987007
11
107.066399
21
-24.099670
31
65.444962
12
107.066399
22
-28.407444
32
43.148739
13
114.692993
23
-32.784378
33
43.629227
0
3DFACE
8
Porte
62
6.000000
10
107.066399
20
-45.915161
30
45.070625
11
114.692993
21
-41.538242
31
44.590126
12
112.154488
22
-35.456097
32
0.077401
13
104.697876
23
-39.227402
33
0.077431
0
3DFACE
8
Porte
62
6.000000
10
114.692993
20
-41.538242
30
44.590126
11
114.692993
21
-32.784378
31
43.629227
12
112.154488
22
-27.913458
32
0.077426
13
112.154488
23
-35.456097
33
0.077401
0
3DFACE
8
Porte
62
6.000000
10
114.692993
20
-32.784378
30
43.629227
11
107.066399
21
-28.407444
31
43.148739
12
104.697876
22
-24.142145
32
0.077409
13
112.154488
23
-27.913458
33
0.077426
0
3DFACE
8
Toit
62
7.000000
10
-42.643288
20
-66.516144
30
96.948410
11
-42.212570
21
0.807519
31
128.534210
12
77.711540
22
0.999998
32
129.238739
13
107.066399
23
-66.516144
33
96.948410
0
3DFACE
8
Toit
62
7.000000
10
107.066399
20
-66.516144
30
96.948410
11
77.711540
21
0.999998
31
129.238739
12
107.066399
22
68.516129
32
96.948410
13
107.066399
23
68.516129
33
96.948410
0
3DFACE
8
Toit
62
7.000000
10
107.066399
20
68.516129
30
96.948410
11
77.711540
21
0.999998
31
129.238739
12
-42.212570
22
0.807519
32
128.534210
13
-42.643288
23
68.516136
33
96.948410
0
3DFACE
8
ContreFort2
62
8.000000
10
27.808308
20
68.516136
30
67.593567
11
27.808313
21
92.000008
31
58.787113
12
33.679283
22
83.193558
32
58.787113
13
33.679283
23
83.193558
33
58.787113
0
3DFACE
8
ContreFort2
62
8.000000
10
27.808308
20
68.516136
30
67.593567
11
21.937346
21
83.193558
31
58.787113
12
27.808313
22
92.000008
32
58.787113
13
27.808313
23
92.000008
33
58.787113
0
3DFACE
8
ContreFort2
62
8.000000
10
19.001856
20
68.516136
30
58.787113
11
21.937346
21
83.193558
31
58.787113
12
27.808308
22
68.516136
32
67.593567
13
27.808308
23
68.516136
33
67.593567
0
3DFACE
8
ContreFort2
62
8.000000
10
27.808308
20
68.516136
30
67.593567
11
33.679283
21
83.193558
31
58.787113
12
36.614765
22
68.516144
32
58.787113
13
36.614765
23
68.516144
33
58.787113
0
3DFACE
8
ContreFort2
62
8.000000
10
36.614765
20
68.516144
30
58.787113
11
33.679283
21
83.193558
31
58.787113
12
32.946438
22
71.397942
32
0.077431
13
35.816498
23
58.826889
33
0.077431
0
3DFACE
8
ContreFort2
62
8.000000
10
33.679283
20
83.193558
30
58.787113
11
27.808313
21
92.000008
31
58.787113
12
27.206320
22
78.940582
32
0.077431
13
32.946438
23
71.397942
33
0.077431
0
3DFACE
8
ContreFort2
62
8.000000
10
27.808313
20
92.000008
30
58.787113
11
21.937346
21
83.193558
31
58.787113
12
21.466206
22
71.397942
32
0.077431
13
27.206320
23
78.940582
33
0.077431
0
3DFACE
8
ContreFort2
62
8.000000
10
21.937346
20
83.193558
30
58.787113
11
19.001856
21
68.516136
31
58.787113
12
18.596146
22
58.826881
32
0.077431
13
21.466206
23
71.397942
33
0.077431
0
3DFACE
8
ContreFort8
62
9.000000
10
-77.869118
20
-81.193558
30
58.787113
11
-83.740082
21
-90.000000
31
58.787113
12
-83.740089
22
-66.516136
32
67.593567
13
-83.740089
23
-66.516136
33
67.593567
0
3DFACE
8
ContreFort8
62
9.000000
10
-83.740082
20
-90.000000
30
58.787113
11
-89.611061
21
-81.193558
31
58.787113
12
-83.740089
22
-66.516136
32
67.593567
13
-83.740089
23
-66.516136
33
67.593567
0
3DFACE
8
ContreFort8
62
9.000000
10
-83.740089
20
-66.516136
30
67.593567
11
-89.611061
21
-81.193558
31
58.787113
12
-92.546539
22
-66.516136
32
58.787113
13
-92.546539
23
-66.516136
33
58.787113
0
3DFACE
8
ContreFort8
62
9.000000
10
-74.933632
20
-66.516144
30
58.787113
11
-77.869118
21
-81.193558
31
58.787113
12
-83.740089
22
-66.516136
32
67.593567
13
-83.740089
23
-66.516136
33
67.593567
0
3DFACE
8
ContreFort8
62
9.000000
10
-73.245674
20
-56.826889
30
0.077431
11
-76.115738
21
-69.397942
31
0.077431
12
-77.869118
22
-81.193558
32
58.787113
13
-74.933632
23
-66.516144
33
58.787113
0
3DFACE
8
ContreFort8
62
9.000000
10
-76.115738
20
-69.397942
30
0.077431
11
-81.855850
21
-76.940582
31
0.077431
12
-83.740082
22
-90.000000
32
58.787113
13
-77.869118
23
-81.193558
33
58.787113
0
3DFACE
8
ContreFort8
62
9.000000
10
-81.855850
20
-76.940582
30
0.077431
11
-87.595970
21
-69.397942
31
0.077431
12
-89.611061
22
-81.193558
32
58.787113
13
-83.740082
23
-90.000000
33
58.787113
0
3DFACE
8
ContreFort8
62
9.000000
10
-87.595970
20
-69.397942
30
0.077431
11
-90.466019
21
-56.826881
31
0.077431
12
-92.546539
22
-66.516136
32
58.787113
13
-89.611061
23
-81.193558
33
58.787113
0
3DFACE
8
ContreFort3
62
10.000000
10
-25.030407
20
68.516136
30
67.593567
11
-25.030403
21
92.000008
31
58.787113
12
-19.159435
22
83.193558
32
58.787113
13
-19.159435
23
83.193558
33
58.787113
0
3DFACE
8
ContreFort3
62
10.000000
10
-25.030407
20
68.516136
30
67.593567
11
-30.901371
21
83.193558
31
58.787113
12
-25.030403
22
92.000008
32
58.787113
13
-25.030403
23
92.000008
33
58.787113
0
3DFACE
8
ContreFort3
62
10.000000
10
-33.836857
20
68.516136
30
58.787113
11
-30.901371
21
83.193558
31
58.787113
12
-25.030407
22
68.516136
32
67.593567
13
-25.030407
23
68.516136
33
67.593567
0
3DFACE
8
ContreFort3
62
10.000000
10
-25.030407
20
68.516136
30
67.593567
11
-19.159435
21
83.193558
31
58.787113
12
-16.223948
22
68.516144
32
58.787113
13
-16.223948
23
68.516144
33
58.787113
0
3DFACE
8
ContreFort3
62
10.000000
10
-16.223948
20
68.516144
30
58.787113
11
-19.159435
21
83.193558
31
58.787113
12
-18.714594
22
71.397942
32
0.077431
13
-15.844534
23
58.826889
33
0.077431
0
3DFACE
8
ContreFort3
62
10.000000
10
-19.159435
20
83.193558
30
58.787113
11
-25.030403
21
92.000008
31
58.787113
12
-24.454710
22
78.940582
32
0.077431
13
-18.714594
23
71.397942
33
0.077431
0
3DFACE
8
ContreFort3
62
10.000000
10
-25.030403
20
92.000008
30
58.787113
11
-30.901371
21
83.193558
31
58.787113
12
-30.194826
22
71.397942
32
0.077431
13
-24.454710
23
78.940582
33
0.077431
0
3DFACE
8
ContreFort3
62
10.000000
10
-30.901371
20
83.193558
30
58.787113
11
-33.836857
21
68.516136
31
58.787113
12
-33.064880
22
58.826881
32
0.077431
13
-30.194826
23
71.397942
33
0.077431
0
3DFACE
8
ContreFort7
62
11.000000
10
-19.159435
20
-81.193558
30
58.787113
11
-25.030403
21
-90.000000
31
58.787113
12
-25.030407
22
-66.516136
32
67.593567
13
-25.030407
23
-66.516136
33
67.593567
0
3DFACE
8
ContreFort7
62
11.000000
10
-25.030403
20
-90.000000
30
58.787113
11
-30.901371
21
-81.193558
31
58.787113
12
-25.030407
22
-66.516136
32
67.593567
13
-25.030407
23
-66.516136
33
67.593567
0
3DFACE
8
ContreFort7
62
11.000000
10
-25.030407
20
-66.516136
30
67.593567
11
-30.901371
21
-81.193558
31
58.787113
12
-33.836857
22
-66.516136
32
58.787113
13
-33.836857
23
-66.516136
33
58.787113
0
3DFACE
8
ContreFort7
62
11.000000
10
-16.223948
20
-66.516144
30
58.787113
11
-19.159435
21
-81.193558
31
58.787113
12
-25.030407
22
-66.516136
32
67.593567
13
-25.030407
23
-66.516136
33
67.593567
0
3DFACE
8
ContreFort7
62
11.000000
10
-15.844534
20
-56.826889
30
0.077431
11
-18.714594
21
-69.397942
31
0.077431
12
-19.159435
22
-81.193558
32
58.787113
13
-16.223948
23
-66.516144
33
58.787113
0
3DFACE
8
ContreFort7
62
11.000000
10
-18.714594
20
-69.397942
30
0.077431
11
-24.454710
21
-76.940582
31
0.077431
12
-25.030403
22
-90.000000
32
58.787113
13
-19.159435
23
-81.193558
33
58.787113
0
3DFACE
8
ContreFort7
62
11.000000
10
-24.454710
20
-76.940582
30
0.077431
11
-30.194826
21
-69.397942
31
0.077431
12
-30.901371
22
-81.193558
32
58.787113
13
-25.030403
23
-90.000000
33
58.787113
0
3DFACE
8
ContreFort7
62
11.000000
10
-30.194826
20
-69.397942
30
0.077431
11
-33.064880
21
-56.826881
31
0.077431
12
-33.836857
22
-66.516136
32
58.787113
13
-30.901371
23
-81.193558
33
58.787113
0
3DFACE
8
ContreFort6
62
12.000000
10
33.679283
20
-81.193558
30
58.787113
11
27.808313
21
-90.000000
31
58.787113
12
27.808308
22
-66.516136
32
67.593567
13
27.808308
23
-66.516136
33
67.593567
0
3DFACE
8
ContreFort6
62
12.000000
10
27.808313
20
-90.000000
30
58.787113
11
21.937346
21
-81.193558
31
58.787113
12
27.808308
22
-66.516136
32
67.593567
13
27.808308
23
-66.516136
33
67.593567
0
3DFACE
8
ContreFort6
62
12.000000
10
27.808308
20
-66.516136
30
67.593567
11
21.937346
21
-81.193558
31
58.787113
12
19.001856
22
-66.516136
32
58.787113
13
19.001856
23
-66.516136
33
58.787113
0
3DFACE
8
ContreFort6
62
12.000000
10
36.614765
20
-66.516144
30
58.787113
11
33.679283
21
-81.193558
31
58.787113
12
27.808308
22
-66.516136
32
67.593567
13
27.808308
23
-66.516136
33
67.593567
0
3DFACE
8
ContreFort6
62
12.000000
10
35.816498
20
-56.826889
30
0.077431
11
32.946438
21
-69.397942
31
0.077431
12
33.679283
22
-81.193558
32
58.787113
13
36.614765
23
-66.516144
33
58.787113
0
3DFACE
8
ContreFort6
62
12.000000
10
32.946438
20
-69.397942
30
0.077431
11
27.206320
21
-76.940582
31
0.077431
12
27.808313
22
-90.000000
32
58.787113
13
33.679283
23
-81.193558
33
58.787113
0
3DFACE
8
ContreFort6
62
12.000000
10
27.206320
20
-76.940582
30
0.077431
11
21.466206
21
-69.397942
31
0.077431
12
21.937346
22
-81.193558
32
58.787113
13
27.808313
23
-90.000000
33
58.787113
0
3DFACE
8
ContreFort6
62
12.000000
10
21.466206
20
-69.397942
30
0.077431
11
18.596146
21
-56.826881
31
0.077431
12
19.001856
22
-66.516136
32
58.787113
13
21.937346
23
-81.193558
33
58.787113
0
3DFACE
8
ContreFort5
62
13.000000
10
83.582504
20
-81.193558
30
58.787113
11
77.711540
21
-90.000000
31
58.787113
12
77.711533
22
-66.516136
32
67.593567
13
77.711533
23
-66.516136
33
67.593567
0
3DFACE
8
ContreFort5
62
13.000000
10
77.711540
20
-90.000000
30
58.787113
11
71.840569
21
-81.193558
31
58.787113
12
77.711533
22
-66.516136
32
67.593567
13
77.711533
23
-66.516136
33
67.593567
0
3DFACE
8
ContreFort5
62
13.000000
10
77.711533
20
-66.516136
30
67.593567
11
71.840569
21
-81.193558
31
58.787113
12
68.905090
22
-66.516136
32
58.787113
13
68.905090
23
-66.516136
33
58.787113
0
3DFACE
8
ContreFort5
62
13.000000
10
86.517998
20
-66.516144
30
58.787113
11
83.582504
21
-81.193558
31
58.787113
12
77.711533
22
-66.516136
32
67.593567
13
77.711533
23
-66.516136
33
67.593567
0
3DFACE
8
ContreFort5
62
13.000000
10
84.607468
20
-56.826889
30
0.077431
11
81.737396
21
-69.397942
31
0.077431
12
83.582504
22
-81.193558
32
58.787113
13
86.517998
23
-66.516144
33
58.787113
0
3DFACE
8
ContreFort5
62
13.000000
10
81.737396
20
-69.397942
30
0.077431
11
75.997292
21
-76.940582
31
0.077431
12
77.711540
22
-90.000000
32
58.787113
13
83.582504
23
-81.193558
33
58.787113
0
3DFACE
8
ContreFort5
62
13.000000
10
75.997292
20
-76.940582
30
0.077431
11
70.257179
21
-69.397942
31
0.077431
12
71.840569
22
-81.193558
32
58.787113
13
77.711540
23
-90.000000
33
58.787113
0
3DFACE
8
ContreFort5
62
13.000000
10
70.257179
20
-69.397942
30
0.077431
11
67.387108
21
-56.826881
31
0.077431
12
68.905090
22
-66.516136
32
58.787113
13
71.840569
23
-81.193558
33
58.787113
0
3DFACE
8
ContreFort4
62
14.000000
10
-83.740089
20
68.516136
30
67.593567
11
-83.740082
21
92.000008
31
58.787113
12
-77.869118
22
83.193558
32
58.787113
13
-77.869118
23
83.193558
33
58.787113
0
3DFACE
8
ContreFort4
62
14.000000
10
-83.740089
20
68.516136
30
67.593567
11
-89.611061
21
83.193558
31
58.787113
12
-83.740082
22
92.000008
32
58.787113
13
-83.740082
23
92.000008
33
58.787113
0
3DFACE
8
ContreFort4
62
14.000000
10
-92.546539
20
68.516136
30
58.787113
11
-89.611061
21
83.193558
31
58.787113
12
-83.740089
22
68.516136
32
67.593567
13
-83.740089
23
68.516136
33
67.593567
0
3DFACE
8
ContreFort4
62
14.000000
10
-83.740089
20
68.516136
30
67.593567
11
-77.869118
21
83.193558
31
58.787113
12
-74.933632
22
68.516144
32
58.787113
13
-74.933632
23
68.516144
33
58.787113
0
3DFACE
8
ContreFort4
62
14.000000
10
-74.933632
20
68.516144
30
58.787113
11
-77.869118
21
83.193558
31
58.787113
12
-76.115738
22
71.397942
32
0.077431
13
-73.245674
23
58.826889
33
0.077431
0
3DFACE
8
ContreFort4
62
14.000000
10
-77.869118
20
83.193558
30
58.787113
11
-83.740082
21
92.000008
31
58.787113
12
-81.855850
22
78.940582
32
0.077431
13
-76.115738
23
71.397942
33
0.077431
0
3DFACE
8
ContreFort4
62
14.000000
10
-83.740082
20
92.000008
30
58.787113
11
-89.611061
21
83.193558
31
58.787113
12
-87.595970
22
71.397942
32
0.077431
13
-81.855850
23
78.940582
33
0.077431
0
3DFACE
8
ContreFort4
62
14.000000
10
-89.611061
20
83.193558
30
58.787113
11
-92.546539
21
68.516136
31
58.787113
12
-90.466019
22
58.826881
32
0.077431
13
-87.595970
23
71.397942
33
0.077431
0
3DFACE
8
Girouette
62
15.000000
10
-72.335716
20
6.254517
30
294.489136
11
-71.190910
21
6.254517
31
294.489136
12
-72.335716
22
6.254515
32
300.307129
13
-72.335716
23
6.254515
33
300.307129
0
3DFACE
8
Girouette
62
15.000000
10
-65.862976
20
5.931614
30
299.702515
11
-65.862976
21
5.931614
31
300.847321
12
-77.663651
22
5.931611
32
299.702515
13
-77.663651
23
5.931611
33
299.702515
0
3DFACE
8
Girouette
62
15.000000
10
-71.763313
20
11.509032
30
300.025421
11
-71.763313
21
11.509032
31
301.170197
12
-71.763313
22
-0.291614
32
300.025421
13
-71.763313
23
-0.291614
33
300.025421
0
3DFACE
8
Girouette
62
15.000000
10
-71.763313
20
9.953225
30
306.718323
11
-71.763313
21
7.047095
31
303.812164
12
-71.763313
22
5.726129
32
301.581207
13
-71.763313
23
5.726129
33
301.581207
0
3DFACE
8
Girouette
62
15.000000
10
-71.763313
20
9.953225
30
306.718323
11
-71.763313
21
5.256451
31
312.002228
12
-71.763313
22
4.140967
32
310.886688
13
-71.763313
23
4.140967
33
310.886688
0
3DFACE
8
Girouette
62
15.000000
10
-71.763313
20
9.953225
30
306.718323
11
-71.763313
21
4.140967
31
310.886688
12
-71.763313
22
3.260322
32
306.013824
13
-71.763313
23
3.260322
33
306.013824
0
3DFACE
8
Girouette
62
15.000000
10
-71.763313
20
9.953225
30
306.718323
11
-71.763313
21
3.260322
31
306.013824
12
-71.763313
22
7.047095
32
303.812164
13
-71.763313
23
7.047095
33
303.812164
0
3DFACE
8
Girouette
62
15.000000
10
-71.763313
20
5.256451
30
312.002228
11
-71.763313
21
3.935484
31
314.203827
12
-71.763313
22
1.704515
32
310.417053
13
-71.763313
23
4.140967
33
310.886688
0
3DFACE
8
Girouette
62
15.000000
10
-71.763313
20
11.509032
30
305.602814
11
-71.763313
21
15.765486
31
308.068634
12
-71.763313
22
14.209678
32
312.060913
13
-71.763313
23
14.209678
33
312.060913
0
3DFACE
8
Girouette
62
15.000000
10
-71.763313
20
11.509032
30
305.602814
11
-71.763313
21
14.209678
31
312.060913
12
-71.763313
22
9.718388
32
313.381897
13
-71.763313
23
9.718388
33
313.381897
0
3DFACE
8
Girouette
62
15.000000
10
-71.763313
20
11.509032
30
305.602814
11
-71.763313
21
9.718388
31
313.381897
12
-71.763313
22
7.281936
32
309.800598
13
-71.763313
23
7.281936
33
309.800598
0
ENDSEC
0
EOF
