0
SECTION
2
ENTITIES
0
3DFACE
8
RoueD
62
1.000000
10
-31.925400
20
22.156914
30
-0.817148
11
-32.479595
21
22.156914
31
2.402844
12
-30.834362
22
22.156914
32
5.225735
13
-30.834362
23
22.156914
33
5.225735
0
3DFACE
8
RoueD
62
1.000000
10
-31.925400
20
22.156914
30
-0.817148
11
-30.834362
21
22.156914
31
5.225735
12
-27.759521
22
22.156914
32
6.330657
13
-27.759521
23
22.156914
33
6.330657
0
3DFACE
8
RoueD
62
1.000000
10
-31.925400
20
22.156914
30
-0.817148
11
-27.759521
21
22.156914
31
6.330657
12
-24.693825
22
22.156914
32
5.200607
13
-24.693825
23
22.156914
33
5.200607
0
3DFACE
8
RoueD
62
1.000000
10
-31.925400
20
22.156914
30
-0.817148
11
-24.693825
21
22.156914
31
5.200607
12
-23.071747
22
22.156914
32
2.364347
13
-23.071747
23
22.156914
33
2.364347
0
3DFACE
8
RoueD
62
1.000000
10
-31.925400
20
22.156914
30
-0.817148
11
-23.071747
21
22.156914
31
2.364347
12
-23.652277
22
22.156914
32
-0.851004
13
-23.652277
23
22.156914
33
-0.851004
0
3DFACE
8
RoueD
62
1.000000
10
-31.925400
20
22.156914
30
-0.817148
11
-23.652277
21
22.156914
31
-0.851004
12
-26.163774
22
22.156914
32
-2.940949
13
-26.163774
23
22.156914
33
-2.940949
0
3DFACE
8
RoueD
62
1.000000
10
-31.925400
20
22.156914
30
-0.817148
11
-26.163774
21
22.156914
31
-2.940949
12
-29.431089
22
22.156914
32
-2.927578
13
-29.431089
23
22.156914
33
-2.927578
0
3DFACE
8
EssieuD
62
2.000000
10
-31.573572
20
23.106911
30
3.391350
11
-32.641876
21
23.106911
31
11.676248
12
-22.814362
22
23.106911
32
11.913404
13
-22.814362
23
23.106911
33
11.913404
0
3DFACE
8
EssieuD
62
2.000000
10
-31.573572
20
23.106911
30
3.391350
11
-22.814362
21
23.106911
31
11.913404
12
-24.117603
22
23.106911
32
3.506604
13
-24.117603
23
23.106911
33
3.506604
0
3DFACE
8
EssieuD
62
2.000000
10
-31.573572
20
23.106911
30
3.391350
11
-24.117603
21
23.106911
31
3.506604
12
-21.393652
22
23.106911
32
1.966209
13
-21.393652
23
23.106911
33
1.966209
0
3DFACE
8
EssieuD
62
2.000000
10
-31.573572
20
23.106911
30
3.391350
11
-21.393652
21
23.106911
31
1.966209
12
-21.039028
22
23.106911
32
0.073404
13
-21.039028
23
23.106911
33
0.073404
0
3DFACE
8
EssieuD
62
2.000000
10
-31.573572
20
23.106911
30
3.391350
11
-21.039028
21
23.106911
31
0.073404
12
-34.417206
22
23.106911
32
0.073404
13
-34.417206
23
23.106911
33
0.073404
0
3DFACE
8
EssieuD
62
2.000000
10
-31.573572
20
23.106911
30
3.391350
11
-34.417206
21
23.106911
31
0.073404
12
-34.062584
22
23.106911
32
1.848740
13
-34.062584
23
23.106911
33
1.848740
0
3DFACE
8
AileD1
62
3.000000
10
-39.268078
20
17.599077
30
12.088025
11
-33.968079
21
46.299072
31
12.088025
12
-19.668079
22
46.899075
32
12.088025
13
-17.468079
23
17.799078
33
12.088025
0
3DFACE
8
Canon3
62
4.000000
10
-19.239183
20
16.650398
30
12.787092
11
-13.939184
21
16.650398
31
12.787092
12
-13.839185
22
15.050397
32
12.787092
13
-18.939184
23
14.950399
33
12.787092
0
3DFACE
8
Canon4
62
5.000000
10
-18.679186
20
14.170399
30
12.687093
11
-13.379185
21
14.170399
31
12.687093
12
-13.279184
22
12.570398
32
12.687093
13
-18.379187
23
12.470399
33
12.687093
0
3DFACE
8
AileD3
62
6.000000
10
-41.959999
20
5.899076
30
12.281466
11
-39.268078
21
17.599077
31
12.088025
12
-17.468079
22
17.799078
32
12.088025
13
-13.970001
23
6.769075
33
11.641466
0
3DFACE
8
CharniereDroite
62
7.000000
10
-28.282120
20
22.212345
30
11.761363
11
-28.282120
21
22.292345
31
11.873862
12
-28.282120
22
22.282345
32
11.761363
13
-28.282120
23
22.282345
33
11.761363
0
3DFACE
8
RoueG
62
8.000000
10
-29.431089
20
-19.633713
30
-2.927578
11
-26.163774
21
-19.633713
31
-2.940949
12
-23.652277
22
-19.633713
32
-0.851004
13
-23.652277
23
-19.633713
33
-0.851004
0
3DFACE
8
RoueG
62
8.000000
10
-29.431089
20
-19.633713
30
-2.927578
11
-23.652277
21
-19.633713
31
-0.851004
12
-23.071747
22
-19.633713
32
2.364347
13
-23.071747
23
-19.633713
33
2.364347
0
3DFACE
8
RoueG
62
8.000000
10
-29.431089
20
-19.633713
30
-2.927578
11
-23.071747
21
-19.633713
31
2.364347
12
-24.693825
22
-19.633713
32
5.200607
13
-24.693825
23
-19.633713
33
5.200607
0
3DFACE
8
RoueG
62
8.000000
10
-29.431089
20
-19.633713
30
-2.927578
11
-24.693825
21
-19.633713
31
5.200607
12
-27.759521
22
-19.633713
32
6.330657
13
-27.759521
23
-19.633713
33
6.330657
0
3DFACE
8
RoueG
62
8.000000
10
-29.431089
20
-19.633713
30
-2.927578
11
-27.759521
21
-19.633713
31
6.330657
12
-30.834362
22
-19.633713
32
5.225735
13
-30.834362
23
-19.633713
33
5.225735
0
3DFACE
8
RoueG
62
8.000000
10
-29.431089
20
-19.633713
30
-2.927578
11
-30.834362
21
-19.633713
31
5.225735
12
-32.479595
22
-19.633713
32
2.402844
13
-32.479595
23
-19.633713
33
2.402844
0
3DFACE
8
RoueG
62
8.000000
10
-29.431089
20
-19.633713
30
-2.927578
11
-32.479595
21
-19.633713
31
2.402844
12
-31.925400
22
-19.633713
32
-0.817148
13
-31.925400
23
-19.633713
33
-0.817148
0
3DFACE
8
EssieuG
62
9.000000
10
-34.417206
20
-20.583710
30
0.073404
11
-21.039028
21
-20.583710
31
0.073404
12
-21.393652
22
-20.583710
32
1.966209
13
-21.393652
23
-20.583710
33
1.966209
0
3DFACE
8
EssieuG
62
9.000000
10
-34.417206
20
-20.583710
30
0.073404
11
-21.393652
21
-20.583710
31
1.966209
12
-24.117603
22
-20.583710
32
3.506604
13
-24.117603
23
-20.583710
33
3.506604
0
3DFACE
8
EssieuG
62
9.000000
10
-34.417206
20
-20.583710
30
0.073404
11
-24.117603
21
-20.583710
31
3.506604
12
-22.814362
22
-20.583710
32
11.913404
13
-22.814362
23
-20.583710
33
11.913404
0
3DFACE
8
EssieuG
62
9.000000
10
-22.814362
20
-20.583710
30
11.913404
11
-32.641876
21
-20.583710
31
11.676248
12
-31.573572
22
-20.583710
32
3.391350
13
-31.573572
23
-20.583710
33
3.391350
0
3DFACE
8
EssieuG
62
9.000000
10
-31.573572
20
-20.583710
30
3.391350
11
-34.062584
21
-20.583710
31
1.848740
12
-34.417206
22
-20.583710
32
0.073404
13
-34.417206
23
-20.583710
33
0.073404
0
3DFACE
8
EssieuG
62
9.000000
10
-31.573572
20
-20.583710
30
3.391350
11
-34.417206
21
-20.583710
31
0.073404
12
-22.814362
22
-20.583710
32
11.913404
13
-22.814362
23
-20.583710
33
11.913404
0
3DFACE
8
AileG1
62
10.000000
10
-17.468079
20
-15.275878
30
12.088025
11
-19.668079
21
-44.375877
31
12.088025
12
-33.968079
22
-43.775875
32
12.088025
13
-39.268078
23
-15.075876
33
12.088025
0
3DFACE
8
Canon1
62
11.000000
10
-18.939184
20
-12.427197
30
12.787092
11
-13.839185
21
-12.527198
31
12.787092
12
-13.939184
22
-14.127198
32
12.787092
13
-19.239183
23
-14.127198
33
12.787092
0
3DFACE
8
Canon2
62
12.000000
10
-18.379187
20
-9.947198
30
12.687093
11
-13.279184
21
-10.047197
31
12.687093
12
-13.379185
22
-11.647198
32
12.687093
13
-18.679186
23
-11.647198
33
12.687093
0
3DFACE
8
AileG3
62
13.000000
10
-13.970001
20
-4.245875
30
11.641466
11
-17.468079
21
-15.275878
31
12.088025
12
-39.268078
22
-15.075876
32
12.088025
13
-41.959999
23
-3.375875
33
12.281466
0
3DFACE
8
CharniereGauche
62
14.000000
10
-28.282120
20
-19.759144
30
11.761363
11
-28.282120
21
-19.769144
31
11.873862
12
-28.282120
22
-19.689146
32
11.761363
13
-28.282120
23
-19.689146
33
11.761363
0
3DFACE
8
HBomb4
62
15.000000
10
-14.696165
20
-7.357704
30
6.791099
11
-14.696165
21
-7.357704
31
6.791099
12
-27.034456
22
-7.357704
32
9.590185
13
-27.034458
23
-4.088401
33
6.791099
0
3DFACE
8
HBomb4
62
15.000000
10
-27.034458
20
-4.088401
30
6.791099
11
-27.034456
21
-7.357704
31
9.590185
12
-39.372753
22
-7.357704
32
6.791100
13
-39.372753
23
-7.357704
33
6.791100
0
3DFACE
8
HBomb4
62
15.000000
10
-14.696165
20
-7.357704
30
6.791099
11
-14.696165
21
-7.357704
31
6.791099
12
-27.034458
22
-4.088401
32
6.791099
13
-27.034458
23
-7.357705
33
3.992013
0
3DFACE
8
HBomb4
62
15.000000
10
-27.034458
20
-7.357705
30
3.992013
11
-27.034458
21
-4.088401
31
6.791099
12
-39.372753
22
-7.357704
32
6.791100
13
-39.372753
23
-7.357704
33
6.791100
0
3DFACE
8
HBomb4
62
15.000000
10
-14.696165
20
-7.357704
30
6.791099
11
-14.696165
21
-7.357704
31
6.791099
12
-27.034458
22
-7.357705
32
3.992013
13
-27.034458
23
-10.627007
33
6.791099
0
3DFACE
8
HBomb4
62
15.000000
10
-27.034458
20
-10.627007
30
6.791099
11
-27.034458
21
-7.357705
31
3.992013
12
-39.372753
22
-7.357704
32
6.791100
13
-39.372753
23
-7.357704
33
6.791100
0
3DFACE
8
HBomb4
62
15.000000
10
-14.696165
20
-7.357704
30
6.791099
11
-14.696165
21
-7.357704
31
6.791099
12
-27.034458
22
-10.627007
32
6.791099
13
-27.034456
23
-7.357704
33
9.590185
0
3DFACE
8
HBomb4
62
15.000000
10
-27.034456
20
-7.357704
30
9.590185
11
-27.034458
21
-10.627007
31
6.791099
12
-39.372753
22
-7.357704
32
6.791100
13
-39.372753
23
-7.357704
33
6.791100
0
3DFACE
8
HBomb4A2
62
16.000000
10
-39.372757
20
-7.265851
30
6.649247
11
-40.672752
21
-4.649557
31
4.032952
12
-34.772755
22
-6.558745
32
5.942141
13
-34.772755
23
-6.558745
33
5.942141
0
3DFACE
8
HBomb4A3
62
17.000000
10
-39.372757
20
-7.449556
30
6.649247
11
-40.672752
21
-10.065851
31
4.032953
12
-34.772755
22
-8.156663
32
5.942141
13
-34.772755
23
-8.156663
33
5.942141
0
3DFACE
8
HBomb4A1
62
18.000000
10
-39.372757
20
-7.357704
30
6.791100
11
-40.672752
21
-7.357704
31
10.491100
12
-34.772755
22
-7.357704
32
7.791100
13
-34.772755
23
-7.357704
33
7.791100
0
3DFACE
8
HBomb3
62
19.000000
10
-14.696165
20
-0.857704
30
5.791099
11
-14.696165
21
-0.857704
31
5.791099
12
-27.034456
22
-0.857704
32
8.590185
13
-27.034458
23
2.411599
33
5.791099
0
3DFACE
8
HBomb3
62
19.000000
10
-27.034458
20
2.411599
30
5.791099
11
-27.034456
21
-0.857704
31
8.590185
12
-39.372753
22
-0.857704
32
5.791100
13
-39.372753
23
-0.857704
33
5.791100
0
3DFACE
8
HBomb3
62
19.000000
10
-14.696165
20
-0.857704
30
5.791099
11
-14.696165
21
-0.857704
31
5.791099
12
-27.034458
22
2.411599
32
5.791099
13
-27.034458
23
-0.857704
33
2.992013
0
3DFACE
8
HBomb3
62
19.000000
10
-27.034458
20
-0.857704
30
2.992013
11
-27.034458
21
2.411599
31
5.791099
12
-39.372753
22
-0.857704
32
5.791100
13
-39.372753
23
-0.857704
33
5.791100
0
3DFACE
8
HBomb3
62
19.000000
10
-14.696165
20
-0.857704
30
5.791099
11
-14.696165
21
-0.857704
31
5.791099
12
-27.034458
22
-0.857704
32
2.992013
13
-27.034458
23
-4.127007
33
5.791099
0
3DFACE
8
HBomb3
62
19.000000
10
-27.034458
20
-4.127007
30
5.791099
11
-27.034458
21
-0.857704
31
2.992013
12
-39.372753
22
-0.857704
32
5.791100
13
-39.372753
23
-0.857704
33
5.791100
0
3DFACE
8
HBomb3
62
19.000000
10
-14.696165
20
-0.857704
30
5.791099
11
-14.696165
21
-0.857704
31
5.791099
12
-27.034458
22
-4.127007
32
5.791099
13
-27.034456
23
-0.857704
33
8.590185
0
3DFACE
8
HBomb3
62
19.000000
10
-27.034456
20
-0.857704
30
8.590185
11
-27.034458
21
-4.127007
31
5.791099
12
-39.372753
22
-0.857704
32
5.791100
13
-39.372753
23
-0.857704
33
5.791100
0
3DFACE
8
HBomb3A2
62
20.000000
10
-39.372757
20
-0.765851
30
5.649247
11
-40.672752
21
1.850443
31
3.032953
12
-34.772755
22
-0.058745
32
4.942141
13
-34.772755
23
-0.058745
33
4.942141
0
3DFACE
8
HBomb3A3
62
21.000000
10
-39.372757
20
-0.949556
30
5.649247
11
-40.672752
21
-3.565852
31
3.032953
12
-34.772755
22
-1.656663
32
4.942141
13
-34.772755
23
-1.656663
33
4.942141
0
3DFACE
8
HBomb3A1
62
22.000000
10
-39.372757
20
-0.857704
30
5.791100
11
-40.672752
21
-0.857704
31
9.491100
12
-34.772755
22
-0.857704
32
6.791100
13
-34.772755
23
-0.857704
33
6.791100
0
3DFACE
8
HBomb2
62
23.000000
10
-27.034458
20
0.111602
30
5.791099
11
-27.034456
21
3.380905
31
8.590185
12
-14.696165
22
3.380905
32
5.791099
13
-14.696165
23
3.380905
33
5.791099
0
3DFACE
8
HBomb2
62
23.000000
10
-39.372753
20
3.380905
30
5.791100
11
-39.372753
21
3.380905
31
5.791100
12
-27.034456
22
3.380905
32
8.590185
13
-27.034458
23
0.111602
33
5.791099
0
3DFACE
8
HBomb2
62
23.000000
10
-27.034458
20
3.380905
30
2.992013
11
-27.034458
21
0.111602
31
5.791099
12
-14.696165
22
3.380905
32
5.791099
13
-14.696165
23
3.380905
33
5.791099
0
3DFACE
8
HBomb2
62
23.000000
10
-39.372753
20
3.380905
30
5.791100
11
-39.372753
21
3.380905
31
5.791100
12
-27.034458
22
0.111602
32
5.791099
13
-27.034458
23
3.380905
33
2.992013
0
3DFACE
8
HBomb2
62
23.000000
10
-27.034458
20
6.650208
30
5.791099
11
-27.034458
21
3.380905
31
2.992013
12
-14.696165
22
3.380905
32
5.791099
13
-14.696165
23
3.380905
33
5.791099
0
3DFACE
8
HBomb2
62
23.000000
10
-39.372753
20
3.380905
30
5.791100
11
-39.372753
21
3.380905
31
5.791100
12
-27.034458
22
3.380905
32
2.992013
13
-27.034458
23
6.650208
33
5.791099
0
3DFACE
8
HBomb2
62
23.000000
10
-27.034456
20
3.380905
30
8.590185
11
-27.034458
21
6.650208
31
5.791099
12
-14.696165
22
3.380905
32
5.791099
13
-14.696165
23
3.380905
33
5.791099
0
3DFACE
8
HBomb2
62
23.000000
10
-39.372753
20
3.380905
30
5.791100
11
-39.372753
21
3.380905
31
5.791100
12
-27.034458
22
6.650208
32
5.791099
13
-27.034456
23
3.380905
33
8.590185
0
3DFACE
8
HBomb2A3
62
24.000000
10
-34.772755
20
2.581946
30
4.942141
11
-40.672752
21
0.672757
31
3.032953
12
-39.372757
22
3.289052
32
5.649247
13
-39.372757
23
3.289052
33
5.649247
0
3DFACE
8
HBomb2A2
62
25.000000
10
-34.772755
20
4.179863
30
4.942141
11
-40.672752
21
6.089053
31
3.032953
12
-39.372757
22
3.472757
32
5.649247
13
-39.372757
23
3.472757
33
5.649247
0
3DFACE
8
HBomb2A1
62
26.000000
10
-34.772755
20
3.380905
30
6.791100
11
-40.672752
21
3.380905
31
9.491100
12
-39.372757
22
3.380905
32
5.791100
13
-39.372757
23
3.380905
33
5.791100
0
3DFACE
8
HBomb1
62
27.000000
10
-27.034458
20
6.611602
30
6.791099
11
-27.034456
21
9.880904
31
9.590185
12
-14.696165
22
9.880904
32
6.791099
13
-14.696165
23
9.880904
33
6.791099
0
3DFACE
8
HBomb1
62
27.000000
10
-39.372753
20
9.880904
30
6.791100
11
-39.372753
21
9.880904
31
6.791100
12
-27.034456
22
9.880904
32
9.590185
13
-27.034458
23
6.611602
33
6.791099
0
3DFACE
8
HBomb1
62
27.000000
10
-27.034458
20
9.880904
30
3.992013
11
-27.034458
21
6.611602
31
6.791099
12
-14.696165
22
9.880904
32
6.791099
13
-14.696165
23
9.880904
33
6.791099
0
3DFACE
8
HBomb1
62
27.000000
10
-39.372753
20
9.880904
30
6.791100
11
-39.372753
21
9.880904
31
6.791100
12
-27.034458
22
6.611602
32
6.791099
13
-27.034458
23
9.880904
33
3.992013
0
3DFACE
8
HBomb1
62
27.000000
10
-27.034458
20
13.150208
30
6.791099
11
-27.034458
21
9.880904
31
3.992013
12
-14.696165
22
9.880904
32
6.791099
13
-14.696165
23
9.880904
33
6.791099
0
3DFACE
8
HBomb1
62
27.000000
10
-39.372753
20
9.880904
30
6.791100
11
-39.372753
21
9.880904
31
6.791100
12
-27.034458
22
9.880904
32
3.992013
13
-27.034458
23
13.150208
33
6.791099
0
3DFACE
8
HBomb1
62
27.000000
10
-27.034456
20
9.880904
30
9.590185
11
-27.034458
21
13.150208
31
6.791099
12
-14.696165
22
9.880904
32
6.791099
13
-14.696165
23
9.880904
33
6.791099
0
3DFACE
8
HBomb1
62
27.000000
10
-39.372753
20
9.880904
30
6.791100
11
-39.372753
21
9.880904
31
6.791100
12
-27.034458
22
13.150208
32
6.791099
13
-27.034456
23
9.880904
33
9.590185
0
3DFACE
8
HBomb1A3
62
28.000000
10
-34.772755
20
9.081945
30
5.942141
11
-40.672752
21
7.172758
31
4.032952
12
-39.372757
22
9.789052
32
6.649247
13
-39.372757
23
9.789052
33
6.649247
0
3DFACE
8
HBomb1A2
62
29.000000
10
-34.772755
20
10.679864
30
5.942141
11
-40.672752
21
12.589052
31
4.032953
12
-39.372757
22
9.972756
32
6.649247
13
-39.372757
23
9.972756
33
6.649247
0
3DFACE
8
HBomb1A1
62
30.000000
10
-34.772755
20
9.880904
30
7.791100
11
-40.672752
21
9.880904
31
10.491100
12
-39.372757
22
9.880904
32
6.791100
13
-39.372757
23
9.880904
33
6.791100
0
3DFACE
8
FuselageArriere
62
31.000000
10
-35.509998
20
0.605685
30
9.771768
11
-67.729996
21
0.523135
31
16.264954
12
-67.729996
22
-0.087835
32
16.503567
13
-35.509998
23
-2.895498
33
11.139161
0
3DFACE
8
FuselageArriere
62
31.000000
10
-35.509998
20
-2.895498
30
11.139161
11
-67.729996
21
-0.087835
31
16.503567
12
-67.729996
22
-0.351130
32
17.104313
13
-35.509998
23
-4.404315
33
14.581765
0
3DFACE
8
FuselageArriere
62
31.000000
10
-35.509998
20
-4.404315
30
14.581765
11
-67.729996
21
-0.351130
31
17.104313
12
-67.729996
22
-0.112514
32
17.715282
13
-35.509998
23
-3.036921
33
18.082947
0
3DFACE
8
FuselageArriere
62
31.000000
10
-35.509998
20
-3.036921
30
18.082947
11
-67.729996
21
-0.112514
31
17.715282
12
-67.729996
22
0.488233
32
17.978577
13
-35.509998
23
0.405682
33
19.591764
0
3DFACE
8
FuselageArriere
62
31.000000
10
-35.509998
20
0.405682
30
19.591764
11
-67.729996
21
0.488233
31
17.978577
12
-67.729996
22
1.099204
32
17.739964
13
-35.509998
23
3.906865
33
18.224373
0
3DFACE
8
FuselageArriere
62
31.000000
10
-35.509998
20
3.906865
30
18.224373
11
-67.729996
21
1.099204
31
17.739964
12
-67.729996
22
1.362498
32
17.139217
13
-35.509998
23
5.415683
33
14.781768
0
3DFACE
8
FuselageArriere
62
31.000000
10
-35.509998
20
5.415683
30
14.781768
11
-67.729996
21
1.362498
31
17.139217
12
-67.729996
22
1.123883
32
16.528248
13
-35.509998
23
4.048290
33
11.280586
0
3DFACE
8
FuselageArriere
62
31.000000
10
-35.509998
20
4.048290
30
11.280586
11
-67.729996
21
1.123883
31
16.528248
12
-67.729996
22
0.523135
32
16.264954
13
-35.509998
23
0.605685
33
9.771768
0
3DFACE
8
FuselageArriere
62
31.000000
10
-67.729996
20
1.123883
30
16.528248
11
-67.729996
21
1.362498
31
17.139217
12
-67.729996
22
1.099204
32
17.739964
13
-67.729996
23
1.099204
33
17.739964
0
3DFACE
8
FuselageArriere
62
31.000000
10
-67.729996
20
1.123883
30
16.528248
11
-67.729996
21
1.099204
31
17.739964
12
-67.729996
22
0.488233
32
17.978577
13
-67.729996
23
0.488233
33
17.978577
0
3DFACE
8
FuselageArriere
62
31.000000
10
-67.729996
20
1.123883
30
16.528248
11
-67.729996
21
0.488233
31
17.978577
12
-67.729996
22
-0.112514
32
17.715282
13
-67.729996
23
-0.112514
33
17.715282
0
3DFACE
8
FuselageArriere
62
31.000000
10
-67.729996
20
1.123883
30
16.528248
11
-67.729996
21
-0.112514
31
17.715282
12
-67.729996
22
-0.351130
32
17.104313
13
-67.729996
23
-0.351130
33
17.104313
0
3DFACE
8
FuselageArriere
62
31.000000
10
-67.729996
20
1.123883
30
16.528248
11
-67.729996
21
-0.351130
31
17.104313
12
-67.729996
22
-0.087835
32
16.503567
13
-67.729996
23
-0.087835
33
16.503567
0
3DFACE
8
FuselageArriere
62
31.000000
10
-67.729996
20
1.123883
30
16.528248
11
-67.729996
21
-0.087835
31
16.503567
12
-67.729996
22
0.523135
32
16.264954
13
-67.729996
23
0.523135
33
16.264954
0
3DFACE
8
Pale3
62
32.000000
10
1.388846
20
1.264292
30
14.397881
11
1.594822
21
3.433445
31
13.546562
12
1.723155
22
5.427006
32
12.587127
13
1.723155
23
5.427006
33
12.587127
0
3DFACE
8
Pale3
62
32.000000
10
1.388846
20
1.264292
30
14.397881
11
1.723155
21
5.427006
31
12.587127
12
1.773845
22
7.244979
32
11.519576
13
1.773845
23
7.244979
33
11.519576
0
3DFACE
8
Pale3
62
32.000000
10
1.388846
20
1.264292
30
14.397881
11
1.773845
21
7.244979
31
11.519576
12
1.746889
22
8.887362
32
10.343904
13
1.746889
23
8.887362
33
10.343904
0
3DFACE
8
Pale3
62
32.000000
10
1.388846
20
1.264292
30
14.397881
11
1.746889
21
8.887362
31
10.343904
12
1.642291
22
10.354153
32
9.060120
13
1.642291
23
10.354153
33
9.060120
0
3DFACE
8
Pale3
62
32.000000
10
1.388846
20
1.264292
30
14.397881
11
1.642291
21
10.354153
31
9.060120
12
1.499871
22
11.463788
32
7.905165
13
1.499871
23
11.463788
33
7.905165
0
3DFACE
8
Pale3
62
32.000000
10
1.388846
20
1.264292
30
14.397881
11
1.499871
21
11.463788
31
7.905165
12
1.359456
22
12.034682
32
7.116002
13
1.359456
23
12.034682
33
7.116002
0
3DFACE
8
Pale3
62
32.000000
10
1.388846
20
1.264292
30
14.397881
11
1.359456
21
12.034682
31
7.116002
12
1.221043
22
12.066853
32
6.692615
13
1.221043
23
12.066853
33
6.692615
0
3DFACE
8
Pale3
62
32.000000
10
1.388846
20
1.264292
30
14.397881
11
1.221043
21
12.066853
31
6.692615
12
1.084631
22
11.560287
32
6.635012
13
1.084631
23
11.560287
33
6.635012
0
3DFACE
8
Pale3
62
32.000000
10
1.388846
20
1.264292
30
14.397881
11
1.084631
21
11.560287
31
6.635012
12
0.950223
22
10.514995
32
6.943194
13
0.950223
23
10.514995
33
6.943194
0
3DFACE
8
Pale3
62
32.000000
10
1.388846
20
1.264292
30
14.397881
11
0.950223
21
10.514995
31
6.943194
12
0.843775
22
9.080224
32
7.592804
13
0.843775
23
9.080224
33
7.592804
0
3DFACE
8
Pale3
62
32.000000
10
1.388846
20
1.264292
30
14.397881
11
0.843775
21
9.080224
31
7.592804
12
0.791249
22
7.405245
32
8.559476
13
0.791249
23
7.405245
33
8.559476
0
3DFACE
8
Pale3
62
32.000000
10
1.388846
20
1.264292
30
14.397881
11
0.791249
21
7.405245
31
8.559476
12
0.792648
22
5.490047
32
9.843230
13
0.792648
23
5.490047
33
9.843230
0
3DFACE
8
Pale3
62
32.000000
10
1.388846
20
1.264292
30
14.397881
11
0.792648
21
5.490047
31
9.843230
12
0.847967
22
3.334641
32
11.444050
13
0.847967
23
3.334641
33
11.444050
0
3DFACE
8
Pale3
62
32.000000
10
1.388846
20
1.264292
30
14.397881
11
0.847967
21
3.334641
31
11.444050
12
0.957205
22
0.939015
32
13.361935
13
0.957205
23
0.939015
33
13.361935
0
3DFACE
8
Pale2
62
33.000000
10
1.388846
20
-0.621095
30
16.068880
11
1.594822
21
-1.118367
31
18.345432
12
1.723155
22
-1.428190
32
20.536051
13
1.723155
23
-1.428190
33
20.536051
0
3DFACE
8
Pale2
62
33.000000
10
1.388846
20
-0.621095
30
16.068880
11
1.723155
21
-1.428190
31
20.536051
12
1.773845
22
-1.550566
32
22.640739
13
1.773845
23
-1.550566
33
22.640739
0
3DFACE
8
Pale2
62
33.000000
10
1.388846
20
-0.621095
30
16.068880
11
1.773845
21
-1.550566
31
22.640739
12
1.746889
22
-1.485488
32
24.659500
13
1.746889
23
-1.485488
33
24.659500
0
3DFACE
8
Pale2
62
33.000000
10
1.388846
20
-0.621095
30
16.068880
11
1.746889
21
-1.485488
31
24.659500
12
1.642291
22
-1.232967
32
26.592325
13
1.642291
23
-1.232967
33
26.592325
0
3DFACE
8
Pale2
62
33.000000
10
1.388846
20
-0.621095
30
16.068880
11
1.642291
21
-1.232967
31
26.592325
12
1.499871
22
-0.889137
32
28.156610
13
1.499871
23
-0.889137
33
28.156610
0
3DFACE
8
Pale2
62
33.000000
10
1.388846
20
-0.621095
30
16.068880
11
1.499871
21
-0.889137
31
28.156610
12
1.359456
22
-0.550144
32
29.069727
13
1.359456
23
-0.550144
33
29.069727
0
3DFACE
8
Pale2
62
33.000000
10
1.388846
20
-0.621095
30
16.068880
11
1.359456
21
-0.550144
31
29.069727
12
1.221043
22
-0.215984
32
29.331697
13
1.221043
23
-0.215984
33
29.331697
0
3DFACE
8
Pale2
62
33.000000
10
1.388846
20
-0.621095
30
16.068880
11
1.221043
21
-0.215984
31
29.331697
12
1.084631
22
0.113342
32
28.942507
13
1.084631
23
0.113342
33
28.942507
0
3DFACE
8
Pale2
62
33.000000
10
1.388846
20
-0.621095
30
16.068880
11
1.084631
21
0.113342
31
28.942507
12
0.950223
22
0.437832
32
27.902161
13
0.950223
23
0.437832
33
27.902161
0
3DFACE
8
Pale2
62
33.000000
10
1.388846
20
-0.621095
30
16.068880
11
0.950223
21
0.437832
31
27.902161
12
0.843775
22
0.694819
32
26.348289
13
0.843775
23
0.694819
33
26.348289
0
3DFACE
8
Pale2
62
33.000000
10
1.388846
20
-0.621095
30
16.068880
11
0.843775
21
0.694819
31
26.348289
12
0.791249
22
0.821629
32
24.418541
13
0.791249
23
0.821629
33
24.418541
0
3DFACE
8
Pale2
62
33.000000
10
1.388846
20
-0.621095
30
16.068880
11
0.791249
21
0.821629
31
24.418541
12
0.792648
22
0.818253
32
22.112896
13
0.792648
23
0.818253
33
22.112896
0
3DFACE
8
Pale2
62
33.000000
10
1.388846
20
-0.621095
30
16.068880
11
0.792648
21
0.818253
31
22.112896
12
0.847967
22
0.684701
32
19.431374
13
0.847967
23
0.684701
33
19.431374
0
3DFACE
8
Pale2
62
33.000000
10
1.388846
20
-0.621095
30
16.068880
11
0.847967
21
0.684701
31
19.431374
12
0.957205
22
0.420977
32
16.373964
13
0.957205
23
0.420977
33
16.373964
0
3DFACE
8
Pale1
62
34.000000
10
1.388846
20
-0.308079
30
13.871125
11
1.594822
21
-1.924694
31
12.192873
12
1.723155
22
-3.573998
32
10.718223
13
1.723155
23
-3.573998
33
10.718223
0
3DFACE
8
Pale1
62
34.000000
10
1.388846
20
-0.308079
30
13.871125
11
1.723155
21
-3.573998
31
10.718223
12
1.773845
22
-5.255995
32
9.447168
13
1.773845
23
-5.255995
33
9.447168
0
3DFACE
8
Pale1
62
34.000000
10
1.388846
20
-0.308079
30
13.871125
11
1.773845
21
-5.255995
31
9.447168
12
1.746889
22
-6.970688
32
8.379714
13
1.746889
23
-6.970688
33
8.379714
0
3DFACE
8
Pale1
62
34.000000
10
1.388846
20
-0.308079
30
13.871125
11
1.746889
21
-6.970688
31
8.379714
12
1.642291
22
-8.718067
32
7.515860
13
1.642291
23
-8.718067
33
7.515860
0
3DFACE
8
Pale1
62
34.000000
10
1.388846
20
-0.308079
30
13.871125
11
1.642291
21
-8.718067
31
7.515860
12
1.499871
22
-10.209744
32
6.932673
13
1.499871
23
-10.209744
33
6.932673
0
3DFACE
8
Pale1
62
34.000000
10
1.388846
20
-0.308079
30
13.871125
11
1.499871
21
-10.209744
31
6.932673
12
1.359456
22
-11.157308
32
6.707235
13
1.359456
23
-11.157308
33
6.707235
0
3DFACE
8
Pale1
62
34.000000
10
1.388846
20
-0.308079
30
13.871125
11
1.359456
21
-11.157308
31
6.707235
12
1.221043
22
-11.560777
32
6.839535
13
1.221043
23
-11.560777
33
6.839535
0
3DFACE
8
Pale1
62
34.000000
10
1.388846
20
-0.308079
30
13.871125
11
1.221043
21
-11.560777
31
6.839535
12
1.084631
22
-11.420140
32
7.329585
13
1.084631
23
-11.420140
33
7.329585
0
3DFACE
8
Pale1
62
34.000000
10
1.388846
20
-0.308079
30
13.871125
11
1.084631
21
-11.420140
31
7.329585
12
0.950223
22
-10.735402
32
8.177372
13
0.950223
23
-10.735402
33
8.177372
0
3DFACE
8
Pale1
62
34.000000
10
1.388846
20
-0.308079
30
13.871125
11
0.950223
21
-10.735402
31
8.177372
12
0.843775
22
-9.586179
32
9.254333
13
0.843775
23
-9.586179
33
9.254333
0
3DFACE
8
Pale1
62
34.000000
10
1.388846
20
-0.308079
30
13.871125
11
0.843775
21
-9.586179
31
9.254333
12
0.791249
22
-8.052102
32
10.431884
13
0.791249
23
-8.052102
33
10.431884
0
3DFACE
8
Pale1
62
34.000000
10
1.388846
20
-0.308079
30
13.871125
11
0.791249
21
-8.052102
31
10.431884
12
0.792648
22
-6.133154
32
11.710023
13
0.792648
23
-6.133154
33
11.710023
0
3DFACE
8
Pale1
62
34.000000
10
1.388846
20
-0.308079
30
13.871125
11
0.792648
21
-6.133154
31
11.710023
12
0.847967
22
-3.829352
32
13.088753
13
0.847967
23
-3.829352
33
13.088753
0
3DFACE
8
Pale1
62
34.000000
10
1.388846
20
-0.308079
30
13.871125
11
0.847967
21
-3.829352
31
13.088753
12
0.957205
22
-1.140691
32
14.568081
13
0.957205
23
-1.140691
33
14.568081
0
3DFACE
8
MoyeuPale
62
35.000000
10
3.070999
20
0.301506
30
14.217760
11
3.070999
21
0.301506
31
14.217760
12
1.569889
22
2.901507
32
14.217760
13
1.569889
23
1.601506
33
11.966093
0
3DFACE
8
MoyeuPale
62
35.000000
10
3.070999
20
0.301506
30
14.217760
11
3.070999
21
0.301506
31
14.217760
12
1.569889
22
1.601506
32
11.966093
13
1.569889
23
-0.998493
33
11.966093
0
3DFACE
8
MoyeuPale
62
35.000000
10
3.070999
20
0.301506
30
14.217760
11
3.070999
21
0.301506
31
14.217760
12
1.569889
22
-0.998493
32
11.966093
13
1.569889
23
-2.298492
33
14.217760
0
3DFACE
8
MoyeuPale
62
35.000000
10
3.070999
20
0.301506
30
14.217760
11
3.070999
21
0.301506
31
14.217760
12
1.569889
22
-2.298492
32
14.217760
13
1.569889
23
-0.998493
33
16.469423
0
3DFACE
8
MoyeuPale
62
35.000000
10
3.070999
20
0.301506
30
14.217760
11
3.070999
21
0.301506
31
14.217760
12
1.569889
22
-0.998493
32
16.469423
13
1.569889
23
1.601506
33
16.469423
0
3DFACE
8
MoyeuPale
62
35.000000
10
3.070999
20
0.301506
30
14.217760
11
3.070999
21
0.301506
31
14.217760
12
1.569889
22
1.601506
32
16.469423
13
1.569889
23
2.901507
33
14.217760
0
3DFACE
8
MoyeuPale
62
35.000000
10
-0.453831
20
1.601506
30
11.966089
11
1.569889
21
1.601506
31
11.966093
12
1.569889
22
2.901507
32
14.217760
13
-0.453831
23
2.901507
33
14.217760
0
3DFACE
8
MoyeuPale
62
35.000000
10
-0.453831
20
-0.998493
30
11.966089
11
1.569889
21
-0.998493
31
11.966093
12
1.569889
22
1.601506
32
11.966093
13
-0.453831
23
1.601506
33
11.966089
0
3DFACE
8
MoyeuPale
62
35.000000
10
-0.453831
20
-2.298492
30
14.217760
11
1.569889
21
-2.298492
31
14.217760
12
1.569889
22
-0.998493
32
11.966093
13
-0.453831
23
-0.998493
33
11.966089
0
3DFACE
8
MoyeuPale
62
35.000000
10
-0.453831
20
-0.998493
30
16.469427
11
1.569889
21
-0.998493
31
16.469423
12
1.569889
22
-2.298492
32
14.217760
13
-0.453831
23
-2.298492
33
14.217760
0
3DFACE
8
MoyeuPale
62
35.000000
10
-0.453831
20
1.601506
30
16.469427
11
1.569889
21
1.601506
31
16.469423
12
1.569889
22
-0.998493
32
16.469423
13
-0.453831
23
-0.998493
33
16.469427
0
3DFACE
8
MoyeuPale
62
35.000000
10
-0.453831
20
2.901507
30
14.217760
11
1.569889
21
2.901507
31
14.217760
12
1.569889
22
1.601506
32
16.469423
13
-0.453831
23
1.601506
33
16.469427
0
3DFACE
8
PiedArriere
62
36.000000
10
-54.644440
20
1.068639
30
13.480258
11
-56.615688
21
1.068639
31
10.705024
12
-56.697590
22
0.135383
32
10.814395
13
-54.694000
23
0.135383
33
13.607594
0
3DFACE
8
PiedArriere
62
36.000000
10
-54.694000
20
0.135383
30
13.607594
11
-56.697590
21
0.135383
31
10.814395
12
-57.141083
22
0.720343
32
11.406651
13
-55.372349
23
0.720343
33
13.767114
0
3DFACE
8
PiedArriere
62
36.000000
10
-55.372349
20
0.720343
30
13.767114
11
-57.141083
21
0.720343
31
11.406651
12
-56.615688
22
1.068639
32
10.705024
13
-54.644440
23
1.068639
33
13.480258
0
3DFACE
8
Gouvernail
62
37.000000
10
-67.623650
20
0.725803
30
16.940718
11
-69.059120
21
0.725803
31
33.041759
12
-64.466492
22
0.725803
32
35.883640
13
-64.466492
23
0.725803
33
35.883640
0
3DFACE
8
Gouvernail
62
37.000000
10
-67.623650
20
0.725803
30
16.940718
11
-64.466492
21
0.725803
31
35.883640
12
-58.158588
22
0.725803
32
34.477207
13
-58.158588
23
0.725803
33
34.477207
0
3DFACE
8
Gouvernail
62
37.000000
10
-67.623650
20
0.725803
30
16.940718
11
-58.158588
21
0.725803
31
34.477207
12
-48.608814
22
0.725803
32
21.525963
13
-48.608814
23
0.725803
33
21.525963
0
3DFACE
8
Gouvernail
62
37.000000
10
-67.623650
20
0.725803
30
16.940718
11
-48.608814
21
0.725803
31
21.525963
12
-38.780201
22
0.725803
32
19.018066
13
-38.780201
23
0.725803
33
19.018066
0
3DFACE
8
AileronG
62
38.000000
10
-50.519939
20
-6.956620
30
16.236719
11
-55.278252
21
-20.580830
31
16.236719
12
-57.940948
22
-21.599739
32
16.236719
13
-57.940948
23
-21.599739
33
16.236719
0
3DFACE
8
AileronG
62
38.000000
10
-50.519939
20
-6.956620
30
16.236719
11
-57.940948
21
-21.599739
31
16.236719
12
-64.392586
22
-19.896669
32
16.236719
13
-64.392586
23
-19.896669
33
16.236719
0
3DFACE
8
AileronG
62
38.000000
10
-50.519939
20
-6.956620
30
16.236719
11
-64.392586
21
-19.896669
31
16.236719
12
-67.729996
22
-0.351130
32
17.104313
13
-67.729996
23
-0.351130
33
17.104313
0
3DFACE
8
AileronG
62
38.000000
10
-50.519939
20
-6.956620
30
16.236719
11
-67.729996
21
-0.351130
31
17.104313
12
-45.156090
22
-2.360228
32
16.236719
13
-45.156090
23
-2.360228
33
16.236719
0
3DFACE
8
AileronD
62
39.000000
10
-50.519939
20
7.705749
30
17.104311
11
-55.278252
21
21.329958
31
17.104313
12
-57.940948
22
22.348869
32
17.104313
13
-57.940948
23
22.348869
33
17.104313
0
3DFACE
8
AileronD
62
39.000000
10
-50.519939
20
7.705749
30
17.104311
11
-57.940948
21
22.348869
31
17.104313
12
-64.392586
22
20.645798
32
17.104313
13
-64.392586
23
20.645798
33
17.104313
0
3DFACE
8
AileronD
62
39.000000
10
-50.519939
20
7.705749
30
17.104311
11
-64.392586
21
20.645798
31
17.104313
12
-67.729996
22
1.100258
32
16.236717
13
-67.729996
23
1.100258
33
16.236717
0
3DFACE
8
AileronD
62
39.000000
10
-50.519939
20
7.705749
30
17.104311
11
-67.729996
21
1.100258
31
16.236717
12
-45.156090
22
3.109357
32
17.104311
13
-45.156090
23
3.109357
33
17.104311
0
3DFACE
8
Cabine
62
40.000000
10
-14.120001
20
0.454122
30
8.731467
11
-35.509998
21
0.435685
31
9.651764
12
-35.509998
22
-3.178884
32
11.064829
13
-14.120001
23
-3.816594
33
10.401044
0
3DFACE
8
Cabine
62
40.000000
10
-14.120001
20
-3.816594
30
10.401044
11
-35.509998
21
-3.178884
31
11.064829
12
-35.509998
22
-4.735582
32
14.619903
13
-14.120001
23
-5.655878
33
14.601465
0
3DFACE
8
Cabine
62
40.000000
10
-14.120001
20
-5.655878
30
14.601465
11
-35.509998
21
-4.735582
31
14.619903
12
-35.509998
22
-3.322517
32
18.234472
13
-14.120001
23
-3.986300
33
18.872181
0
3DFACE
8
Cabine
62
40.000000
10
-14.120001
20
-3.986300
30
18.872181
11
-35.509998
21
-3.322517
31
18.234472
12
-35.509998
22
0.232558
32
19.791168
13
-14.120001
23
0.214121
33
20.711464
0
3DFACE
8
Cabine
62
40.000000
10
-14.120001
20
0.214121
30
20.711464
11
-35.509998
21
0.232558
31
19.791168
12
-35.509998
22
3.847127
32
18.378103
13
-14.120001
23
4.484837
33
19.041887
0
3DFACE
8
Cabine
62
40.000000
10
-14.120001
20
4.484837
30
19.041887
11
-35.509998
21
3.847127
31
18.378103
12
-35.509998
22
5.403825
32
14.823030
13
-14.120001
23
6.324120
33
14.841466
0
3DFACE
8
Cabine
62
40.000000
10
-14.120001
20
6.324120
30
14.841466
11
-35.509998
21
5.403825
31
14.823030
12
-35.509998
22
3.990760
32
11.208459
13
-14.120001
23
4.654543
33
10.570750
0
3DFACE
8
Cabine
62
40.000000
10
-14.120001
20
4.654543
30
10.570750
11
-35.509998
21
3.990760
31
11.208459
12
-35.509998
22
0.435685
32
9.651764
13
-14.120001
23
0.454122
33
8.731467
0
3DFACE
8
FuselageAvant
62
41.000000
10
-14.389454
20
-6.995685
30
14.574624
11
-14.389454
21
-4.952666
31
19.800589
12
-0.250547
22
-5.003295
32
19.849228
13
-0.250547
23
-7.065879
33
14.573218
0
3DFACE
8
FuselageAvant
62
41.000000
10
-14.389454
20
-4.952666
30
19.800589
11
-14.389454
21
0.187280
31
22.051270
12
-0.250547
22
0.185874
32
22.121464
13
-0.250547
23
-5.003295
33
19.849228
0
3DFACE
8
FuselageAvant
62
41.000000
10
-14.389454
20
0.187280
30
22.051270
11
-14.389454
21
5.413244
31
20.008253
12
-0.250547
22
5.461884
32
20.058884
13
-0.250547
23
0.185874
33
22.121464
0
3DFACE
8
FuselageAvant
62
41.000000
10
-14.389454
20
5.413244
30
20.008253
11
-14.389454
21
7.663927
31
14.868307
12
-0.250547
22
7.734121
32
14.869714
13
-0.250547
23
5.461884
33
20.058884
0
3DFACE
8
FuselageAvant
62
41.000000
10
-14.389454
20
7.663927
30
14.868307
11
-14.389454
21
5.620909
31
9.642344
12
-0.250547
22
5.671538
32
9.593703
13
-0.250547
23
7.734121
33
14.869714
0
3DFACE
8
FuselageAvant
62
41.000000
10
-14.389454
20
5.620909
30
9.642344
11
-14.389454
21
0.480962
31
7.391660
12
-0.250547
22
0.482369
32
7.321466
13
-0.250547
23
5.671538
33
9.593703
0
3DFACE
8
FuselageAvant
62
41.000000
10
-14.389454
20
0.480962
30
7.391660
11
-14.389454
21
-4.745001
31
9.434678
12
-0.250547
22
-4.793642
32
9.384048
13
-0.250547
23
0.482369
33
7.321466
0
3DFACE
8
FuselageAvant
62
41.000000
10
-14.389454
20
-4.745001
30
9.434678
11
-14.389454
21
-6.995685
31
14.574624
12
-0.250547
22
-7.065879
32
14.573218
13
-0.250547
23
-4.793642
33
9.384048
0
3DFACE
8
FuselageAvant
62
41.000000
10
-0.250547
20
-7.065879
30
14.573218
11
-0.250547
21
-5.003295
31
19.849228
12
-0.250547
22
0.185874
32
22.121464
13
-0.250547
23
0.185874
33
22.121464
0
3DFACE
8
FuselageAvant
62
41.000000
10
-0.250547
20
-7.065879
30
14.573218
11
-0.250547
21
0.185874
31
22.121464
12
-0.250547
22
5.461884
32
20.058884
13
-0.250547
23
5.461884
33
20.058884
0
3DFACE
8
FuselageAvant
62
41.000000
10
-0.250547
20
-7.065879
30
14.573218
11
-0.250547
21
5.461884
31
20.058884
12
-0.250547
22
7.734121
32
14.869714
13
-0.250547
23
7.734121
33
14.869714
0
3DFACE
8
FuselageAvant
62
41.000000
10
-0.250547
20
-7.065879
30
14.573218
11
-0.250547
21
7.734121
31
14.869714
12
-0.250547
22
5.671538
32
9.593703
13
-0.250547
23
5.671538
33
9.593703
0
3DFACE
8
FuselageAvant
62
41.000000
10
-0.250547
20
-7.065879
30
14.573218
11
-0.250547
21
5.671538
31
9.593703
12
-0.250547
22
0.482369
32
7.321466
13
-0.250547
23
0.482369
33
7.321466
0
3DFACE
8
FuselageAvant
62
41.000000
10
-0.250547
20
-7.065879
30
14.573218
11
-0.250547
21
0.482369
31
7.321466
12
-0.250547
22
-4.793642
32
9.384048
13
-0.250547
23
-4.793642
33
9.384048
0
3DFACE
8
RoueArriere
62
42.000000
10
-58.997593
20
0.135383
30
9.614395
11
-58.853809
21
0.135383
31
11.263433
12
-57.353809
22
0.135383
32
11.963434
13
-57.353809
23
0.135383
33
11.963434
0
3DFACE
8
RoueArriere
62
42.000000
10
-58.997593
20
0.135383
30
9.614395
11
-57.353809
21
0.135383
31
11.963434
12
-55.997589
22
0.135383
32
11.014397
13
-55.997589
23
0.135383
33
11.014397
0
3DFACE
8
RoueArriere
62
42.000000
10
-58.997593
20
0.135383
30
9.614395
11
-55.997589
21
0.135383
31
11.014397
12
-56.141373
22
0.135383
32
9.365356
13
-56.141373
23
0.135383
33
9.365356
0
3DFACE
8
RoueArriere
62
42.000000
10
-58.997593
20
0.135383
30
9.614395
11
-56.141373
21
0.135383
31
9.365356
12
-57.641373
22
0.135383
32
8.665355
13
-57.641373
23
0.135383
33
8.665355
0
3DFACE
8
Verriere
62
43.000000
10
-13.520004
20
0.192224
30
20.762590
11
-13.520004
21
0.192224
31
20.762590
12
-20.341829
22
0.192224
32
31.778187
13
-20.341829
23
3.403960
33
29.523825
0
3DFACE
8
Verriere
62
43.000000
10
-20.341829
20
3.403960
30
29.523825
11
-20.341829
21
0.192224
31
31.778187
12
-31.760006
22
0.192224
32
31.397991
13
-31.760006
23
4.734303
33
29.188396
0
3DFACE
8
Verriere
62
43.000000
10
-31.760006
20
4.734303
30
29.188396
11
-31.760006
21
0.192224
31
31.397991
12
-39.698174
22
0.192225
32
19.447145
13
-39.698174
23
0.277283
33
19.399569
0
3DFACE
8
Verriere
62
43.000000
10
-13.520004
20
0.192224
30
20.762590
11
-13.520004
21
0.192224
31
20.762590
12
-20.341829
22
3.403960
32
29.523825
13
-20.341829
23
4.734304
33
24.081305
0
3DFACE
8
Verriere
62
43.000000
10
-20.341829
20
4.734304
30
24.081305
11
-20.341829
21
3.403960
31
29.523825
12
-31.760006
22
4.734303
32
29.188396
13
-31.760006
23
6.615695
33
23.853945
0
3DFACE
8
Verriere
62
43.000000
10
-31.760006
20
6.615695
30
23.853945
11
-31.760006
21
4.734303
31
29.188396
12
-39.698174
22
0.277283
32
19.399569
13
-39.698174
23
0.312515
33
19.284700
0
3DFACE
8
Verriere
62
43.000000
10
-13.520004
20
0.192224
30
20.762590
11
-13.520004
21
0.192224
31
20.762590
12
-20.341829
22
4.734304
32
24.081305
13
-20.341829
23
3.403959
33
18.638792
0
3DFACE
8
Verriere
62
43.000000
10
-20.341829
20
3.403959
30
18.638792
11
-20.341829
21
4.734304
31
24.081305
12
-31.760006
22
6.615695
32
23.853945
13
-31.760002
23
4.734303
33
18.519499
0
3DFACE
8
Verriere
62
43.000000
10
-31.760002
20
4.734303
30
18.519499
11
-31.760006
21
6.615695
31
23.853945
12
-39.698174
22
0.312515
32
19.284700
13
-39.698174
23
0.277282
33
19.169834
0
3DFACE
8
Verriere
62
43.000000
10
-13.520004
20
0.192224
30
20.762590
11
-13.520004
21
0.192224
31
20.762590
12
-20.341829
22
-3.019511
32
18.638792
13
-20.341829
23
-4.349854
33
24.081305
0
3DFACE
8
Verriere
62
43.000000
10
-20.341829
20
-4.349854
30
24.081305
11
-20.341829
21
-3.019511
31
18.638792
12
-31.760002
22
-4.349854
32
18.519499
13
-31.760006
23
-6.231246
33
23.853945
0
3DFACE
8
Verriere
62
43.000000
10
-31.760006
20
-6.231246
30
23.853945
11
-31.760002
21
-4.349854
31
18.519499
12
-39.698174
22
0.107167
32
19.169834
13
-39.698174
23
0.071935
33
19.284700
0
3DFACE
8
Verriere
62
43.000000
10
-13.520004
20
0.192224
30
20.762590
11
-13.520004
21
0.192224
31
20.762590
12
-20.341829
22
-4.349854
32
24.081305
13
-20.341829
23
-3.019511
33
29.523825
0
3DFACE
8
Verriere
62
43.000000
10
-20.341829
20
-3.019511
30
29.523825
11
-20.341829
21
-4.349854
31
24.081305
12
-31.760006
22
-6.231246
32
23.853945
13
-31.760006
23
-4.349854
33
29.188391
0
3DFACE
8
Verriere
62
43.000000
10
-31.760006
20
-4.349854
30
29.188391
11
-31.760006
21
-6.231246
31
23.853945
12
-39.698174
22
0.071935
32
19.284700
13
-39.698174
23
0.107167
33
19.399569
0
3DFACE
8
Verriere
62
43.000000
10
-13.520004
20
0.192224
30
20.762590
11
-13.520004
21
0.192224
31
20.762590
12
-20.341829
22
-3.019511
32
29.523825
13
-20.341829
23
0.192224
33
31.778187
0
3DFACE
8
Verriere
62
43.000000
10
-20.341829
20
0.192224
30
31.778187
11
-20.341829
21
-3.019511
31
29.523825
12
-31.760006
22
-4.349854
32
29.188391
13
-31.760006
23
0.192224
33
31.397991
0
3DFACE
8
Verriere
62
43.000000
10
-31.760006
20
0.192224
30
31.397991
11
-31.760006
21
-4.349854
31
29.188391
12
-39.698174
22
0.107167
32
19.399569
13
-39.698174
23
0.192225
33
19.447145
0
ENDSEC
0
EOF
