0
SECTION
2
ENTITIES
0
3DFACE
8
Branche01
62
1.000000
10
-9.005414
20
1.090248
30
60.159435
11
-7.148235
21
3.730242
31
59.745541
12
-1.891002
22
14.479278
32
71.658966
13
-3.411307
23
13.637072
33
74.278427
0
3DFACE
8
Branche01
62
1.000000
10
-7.148235
20
3.730242
30
59.745541
11
-5.762595
21
0.821290
31
60.201603
12
-0.756702
22
12.340635
32
73.833725
13
-1.891002
23
14.479278
33
71.658966
0
3DFACE
8
Branche01
62
1.000000
10
-5.762595
20
0.821290
30
60.201603
11
-9.005414
21
1.090248
31
60.159435
12
-3.411307
22
13.637072
32
74.278427
13
-0.756702
23
12.340635
33
73.833725
0
3DFACE
8
Branche01
62
1.000000
10
-3.411307
20
13.637072
30
74.278427
11
-1.891002
21
14.479278
31
71.658966
12
14.561977
22
15.719341
32
84.441055
13
14.199800
23
12.518364
33
83.980026
0
3DFACE
8
Branche01
62
1.000000
10
-1.891002
20
14.479278
30
71.658966
11
-0.756702
21
12.340635
31
73.833725
12
14.832196
22
14.039134
32
81.602119
13
14.561977
23
15.719341
33
84.441055
0
3DFACE
8
Branche01
62
1.000000
10
-0.756702
20
12.340635
30
73.833725
11
-3.411307
21
13.637072
31
74.278427
12
14.199800
22
12.518364
32
83.980026
13
14.832196
23
14.039134
33
81.602119
0
3DFACE
8
Branche01
62
1.000000
10
14.199800
20
12.518364
30
83.980026
11
14.561977
21
15.719341
31
84.441055
12
31.210114
22
17.623089
32
80.269432
13
31.256506
23
14.603230
33
81.122116
0
3DFACE
8
Branche01
62
1.000000
10
14.561977
20
15.719341
30
84.441055
11
14.832196
21
14.039134
31
81.602119
12
31.175480
22
14.862220
32
78.557693
13
31.210114
23
17.623089
33
80.269432
0
3DFACE
8
Branche01
62
1.000000
10
14.832196
20
14.039134
30
81.602119
11
14.199800
21
12.518364
31
83.980026
12
31.256506
22
14.603230
32
81.122116
13
31.175480
23
14.862220
33
78.557693
0
3DFACE
8
Branche01
62
1.000000
10
31.256506
20
14.603230
30
81.122116
11
31.210114
21
17.623089
31
80.269432
12
52.734379
22
14.817378
32
83.640007
13
52.589581
23
13.417378
33
83.440491
0
3DFACE
8
Branche01
62
1.000000
10
31.210114
20
17.623089
30
80.269432
11
31.175480
21
14.862220
31
78.557693
12
52.842411
22
14.084244
32
82.398140
13
52.734379
23
14.817378
33
83.640007
0
3DFACE
8
Branche01
62
1.000000
10
31.175480
20
14.862220
30
78.557693
11
31.256506
21
14.603230
31
81.122116
12
52.589581
22
13.417378
32
83.440491
13
52.842411
23
14.084244
33
82.398140
0
3DFACE
8
Branche02
62
2.000000
10
-8.126192
20
0.720386
30
60.237850
11
-5.510559
21
1.828745
31
60.237850
12
-11.552387
22
0.165009
32
75.984970
13
-12.848480
23
-0.883245
33
73.890739
0
3DFACE
8
Branche02
62
2.000000
10
-5.510559
20
1.828745
30
60.237850
11
-7.778243
21
3.539768
31
60.237850
12
-13.499565
22
1.761796
32
74.696884
13
-11.552387
23
0.165009
33
75.984970
0
3DFACE
8
Branche02
62
2.000000
10
-7.778243
20
3.539768
30
60.237850
11
-8.126192
21
0.720386
31
60.237850
12
-12.848480
22
-0.883245
32
73.890739
13
-13.499565
23
1.761796
33
74.696884
0
3DFACE
8
Branche02
62
2.000000
10
-12.848480
20
-0.883245
30
73.890739
11
-11.552387
21
0.165009
31
75.984970
12
-26.019894
22
-13.627445
32
82.039307
13
-26.028006
23
-14.765337
33
79.436386
0
3DFACE
8
Branche02
62
2.000000
10
-11.552387
20
0.165009
30
75.984970
11
-13.499565
21
1.761796
31
74.696884
12
-28.362808
22
-13.494579
32
80.438339
13
-26.019894
23
-13.627445
33
82.039307
0
3DFACE
8
Branche02
62
2.000000
10
-13.499565
20
1.761796
30
74.696884
11
-12.848480
21
-0.883245
31
73.890739
12
-26.028006
22
-14.765337
32
79.436386
13
-28.362808
23
-13.494579
33
80.438339
0
3DFACE
8
Branche02
62
2.000000
10
-26.028006
20
-14.765337
30
79.436386
11
-26.019894
21
-13.627445
31
82.039307
12
-26.645008
22
-28.530542
32
90.945343
13
-26.326508
23
-28.319515
33
88.130363
0
3DFACE
8
Branche02
62
2.000000
10
-26.019894
20
-13.627445
30
82.039307
11
-28.362808
21
-13.494579
31
80.438339
12
-28.752558
22
-29.324591
32
89.213943
13
-26.645008
23
-28.530542
33
90.945343
0
3DFACE
8
Branche02
62
2.000000
10
-28.362808
20
-13.494579
30
80.438339
11
-26.028006
21
-14.765337
31
79.436386
12
-26.326508
22
-28.319515
32
88.130363
13
-28.752558
23
-29.324591
33
89.213943
0
3DFACE
8
Branche02
62
2.000000
10
-26.326508
20
-28.319515
30
88.130363
11
-26.645008
21
-28.530542
31
90.945343
12
-22.442423
22
-34.016396
32
85.374428
13
-22.776005
23
-33.548565
33
84.501266
0
3DFACE
8
Branche02
62
2.000000
10
-26.645008
20
-28.530542
30
90.945343
11
-28.752558
21
-29.324591
31
89.213943
12
-23.242424
22
-34.421509
32
84.837372
13
-22.442423
23
-34.016396
33
85.374428
0
3DFACE
8
Branche02
62
2.000000
10
-28.752558
20
-29.324591
30
89.213943
11
-26.326508
21
-28.319515
31
88.130363
12
-22.776005
22
-33.548565
32
84.501266
13
-23.242424
23
-34.421509
33
84.837372
0
3DFACE
8
Branche03
62
3.000000
10
-8.959823
20
0.385248
30
60.798729
11
-8.422039
21
3.608721
31
60.798729
12
1.645943
22
5.201771
32
70.388985
13
1.018238
23
2.315107
33
71.786491
0
3DFACE
8
Branche03
62
3.000000
10
-8.422039
20
3.608721
30
60.798729
11
-5.899321
21
1.531251
31
60.798729
12
2.364515
22
2.431656
32
68.810974
13
1.645943
23
5.201771
33
70.388985
0
3DFACE
8
Branche03
62
3.000000
10
-5.899321
20
1.531251
30
60.798729
11
-8.959823
21
0.385248
31
60.798729
12
1.018238
22
2.315107
32
71.786491
13
2.364515
23
2.431656
33
68.810974
0
3DFACE
8
Branche03
62
3.000000
10
1.018238
20
2.315107
30
71.786491
11
1.645943
21
5.201771
31
70.388985
12
18.699663
22
-8.371290
32
72.094559
13
15.925841
23
-9.256675
33
73.578430
0
3DFACE
8
Branche03
62
3.000000
10
1.645943
20
5.201771
30
70.388985
11
2.364515
21
2.431656
31
68.810974
12
15.894295
22
-8.421793
32
70.419029
13
18.699663
23
-8.371290
33
72.094559
0
3DFACE
8
Branche03
62
3.000000
10
2.364515
20
2.431656
30
68.810974
11
1.018238
21
2.315107
31
71.786491
12
15.925841
22
-9.256675
32
73.578430
13
15.894295
23
-8.421793
33
70.419029
0
3DFACE
8
Branche03
62
3.000000
10
15.925841
20
-9.256675
30
73.578430
11
18.699663
21
-8.371290
31
72.094559
12
12.783517
22
-23.323883
32
61.589828
13
10.019411
23
-22.299337
33
63.000473
0
3DFACE
8
Branche03
62
3.000000
10
18.699663
20
-8.371290
30
72.094559
11
15.894295
21
-8.421793
31
70.419029
12
10.798607
22
-21.273748
32
59.996990
13
12.783517
23
-23.323883
33
61.589828
0
3DFACE
8
Branche03
62
3.000000
10
15.894295
20
-8.421793
30
70.419029
11
15.925841
21
-9.256675
31
73.578430
12
10.019411
22
-22.299337
32
63.000473
13
10.798607
23
-21.273748
33
59.996990
0
3DFACE
8
Branche03
62
3.000000
10
10.019411
20
-22.299337
30
63.000473
11
12.783517
21
-23.323883
31
61.589828
12
14.615353
22
-43.846661
32
56.595348
13
12.154747
23
-45.391747
33
58.091351
0
3DFACE
8
Branche03
62
3.000000
10
12.783517
20
-23.323883
30
61.589828
11
10.798607
21
-21.273748
31
59.996990
12
11.948101
22
-44.690670
32
54.906109
13
14.615353
23
-43.846661
33
56.595348
0
3DFACE
8
Branche03
62
3.000000
10
10.798607
20
-21.273748
30
59.996990
11
10.019411
21
-22.299337
31
63.000473
12
12.154747
22
-45.391747
32
58.091351
13
11.948101
23
-44.690670
33
54.906109
0
3DFACE
8
Tronc0
62
4.000000
10
0.600000
20
0.800000
30
0.000000
11
-3.242820
21
0.181347
31
0.000000
12
-1.933583
22
0.181347
32
31.011820
13
1.890763
23
0.800000
33
31.388178
0
3DFACE
8
Tronc0
62
4.000000
10
-3.242820
20
0.181347
30
0.000000
11
-1.857180
21
3.818653
31
0.000000
12
-0.554604
22
3.818653
32
31.147524
13
-1.933583
23
0.181347
33
31.011820
0
3DFACE
8
Tronc0
62
4.000000
10
-1.857180
20
3.818653
30
0.000000
11
0.600000
21
0.800000
31
0.000000
12
1.890763
22
0.800000
32
31.388178
13
-0.554604
23
3.818653
33
31.147524
0
3DFACE
8
Tronc0
62
4.000000
10
1.890763
20
0.800000
30
31.388178
11
-1.933583
21
0.181347
31
31.011820
12
-8.637406
22
0.181347
32
59.601246
13
-5.805415
23
0.800000
33
62.198753
0
3DFACE
8
Tronc0
62
4.000000
10
-1.933583
20
0.181347
30
31.011820
11
-0.554604
21
3.818653
31
31.147524
12
-7.616248
22
3.818653
32
60.537846
13
-8.637406
23
0.181347
33
59.601246
0
3DFACE
8
Tronc0
62
4.000000
10
-0.554604
20
3.818653
30
31.147524
11
1.890763
21
0.800000
31
31.388178
12
-5.805415
22
0.800000
32
62.198753
13
-7.616248
23
3.818653
33
60.537846
0
3DFACE
8
Tronc0
62
4.000000
10
-3.742820
20
-0.518653
30
0.000000
11
-5.921147
21
-1.272152
31
-2.800000
12
-17.437702
22
8.314966
32
-2.800000
13
-3.713526
23
0.771507
33
0.000000
0
3DFACE
8
Tronc0
62
4.000000
10
-3.713526
20
0.771507
30
0.000000
11
-17.437702
21
8.314966
31
-2.800000
12
-3.701489
22
2.951550
32
-2.800000
13
-2.931488
23
1.798050
33
0.000000
0
3DFACE
8
Tronc0
62
4.000000
10
-2.931488
20
1.798050
30
0.000000
11
-3.701489
21
2.951550
31
-2.800000
12
-3.422394
22
18.705276
32
-2.800000
13
-1.695420
23
2.168870
33
0.000000
0
3DFACE
8
Tronc0
62
4.000000
10
-1.695420
20
2.168870
30
0.000000
11
-3.422394
21
18.705276
31
-2.800000
12
0.019719
22
3.322194
32
-2.800000
13
-0.477457
23
1.742327
33
0.000000
0
3DFACE
8
Tronc0
62
4.000000
10
-0.477457
20
1.742327
30
0.000000
11
0.019719
21
3.322194
31
-2.800000
12
12.335505
22
4.134845
32
-2.800000
13
0.257180
23
0.681347
33
0.000000
0
3DFACE
8
Tronc0
62
4.000000
10
0.257180
20
0.681347
30
0.000000
11
12.335505
21
4.134845
31
-2.800000
12
2.352061
22
-1.252272
32
-2.800000
13
0.227885
23
-0.608813
33
0.000000
0
3DFACE
8
Tronc0
62
4.000000
10
0.227885
20
-0.608813
30
0.000000
11
2.352061
21
-1.252272
31
-2.800000
12
13.815849
22
-22.388855
32
-2.800000
13
-0.554152
23
-1.635356
33
0.000000
0
3DFACE
8
Tronc0
62
4.000000
10
-0.554152
20
-1.635356
30
0.000000
11
13.815849
21
-22.388855
31
-2.800000
12
-1.563245
22
-4.842584
32
-2.800000
13
-1.790220
23
-2.006176
33
0.000000
0
3DFACE
8
Tronc0
62
4.000000
10
-1.790220
20
-2.006176
30
0.000000
11
-1.563245
21
-4.842584
31
-2.800000
12
-14.305355
22
-10.659501
32
-2.800000
13
-3.008183
23
-1.579634
33
0.000000
0
3DFACE
8
Tronc0
62
4.000000
10
-3.008183
20
-1.579634
30
0.000000
11
-14.305355
21
-10.659501
31
-2.800000
12
-5.921147
22
-1.272152
32
-2.800000
13
-3.742820
23
-0.518653
33
0.000000
0
ENDSEC
0
EOF
