0
SECTION
2
ENTITIES
0
3DFACE
8
Form0
62
1.000000
10
69.000000
20
-69.000000
30
23.885353
11
69.000000
21
-69.000000
31
0.000000
12
-69.000000
22
-69.000000
32
0.000000
13
-69.000000
23
-69.000000
33
23.885353
0
3DFACE
8
Form0
62
1.000000
10
-69.000000
20
-69.000000
30
23.885353
11
-69.000000
21
-69.000000
31
0.000000
12
-69.000000
22
69.000000
32
0.000000
13
-69.000000
23
69.000000
33
23.885353
0
3DFACE
8
Form0
62
1.000000
10
-69.000000
20
69.000000
30
23.885353
11
-69.000000
21
69.000000
31
0.000000
12
69.000000
22
69.000000
32
0.000000
13
69.000000
23
69.000000
33
23.885353
0
3DFACE
8
Form0
62
1.000000
10
69.000000
20
69.000000
30
23.885353
11
69.000000
21
69.000000
31
0.000000
12
69.000000
22
-69.000000
32
0.000000
13
69.000000
23
-69.000000
33
23.885353
0
3DFACE
8
Form0
62
1.000000
10
69.000000
20
-69.000000
30
23.885353
11
-69.000000
21
-69.000000
31
23.885353
12
-69.000000
22
69.000000
32
23.885353
13
69.000000
23
69.000000
33
23.885353
0
3DFACE
8
Form0
62
1.000000
10
69.000000
20
69.000000
30
0.000000
11
-69.000000
21
69.000000
31
0.000000
12
-69.000000
22
-69.000000
32
0.000000
13
69.000000
23
-69.000000
33
0.000000
0
3DFACE
8
Courbe1
62
2.000000
10
69.000000
20
-69.000000
30
23.885353
11
69.000000
21
-69.000000
31
86.885353
12
69.000000
22
69.000000
32
86.885353
13
69.000000
23
69.000000
33
23.885353
0
3DFACE
8
Courbe1
62
2.000000
10
69.000000
20
69.000000
30
23.885353
11
69.000000
21
69.000000
31
86.885353
12
-69.000000
22
69.000000
32
86.885353
13
-69.000000
23
69.000000
33
23.885353
0
3DFACE
8
Courbe1
62
2.000000
10
-69.000000
20
69.000000
30
23.885353
11
-69.000000
21
69.000000
31
86.885353
12
-69.000000
22
-69.000000
32
86.885353
13
-69.000000
23
-69.000000
33
23.885353
0
3DFACE
8
Courbe1
62
2.000000
10
-69.000000
20
-69.000000
30
23.885353
11
-69.000000
21
-69.000000
31
86.885353
12
69.000000
22
-69.000000
32
86.885353
13
69.000000
23
-69.000000
33
23.885353
0
3DFACE
8
Form3_0
62
3.000000
10
69.000000
20
-69.000000
30
86.885353
11
2.999997
21
-69.000008
31
123.885353
12
2.999997
22
69.000000
32
123.885353
13
69.000000
23
69.000000
33
86.885353
0
3DFACE
8
Form3_0
62
3.000000
10
69.000000
20
-69.000000
30
86.885353
11
-69.000000
21
-69.000000
31
86.885353
12
2.999997
22
-69.000008
32
123.885353
13
2.999997
23
-69.000008
33
123.885353
0
3DFACE
8
Form3_0
62
3.000000
10
-69.000000
20
-69.000000
30
86.885353
11
-69.000000
21
69.000000
31
86.885353
12
2.999997
22
69.000000
32
123.885353
13
2.999997
23
-69.000008
33
123.885353
0
3DFACE
8
Form3_0
62
3.000000
10
-69.000000
20
69.000000
30
86.885353
11
69.000000
21
69.000000
31
86.885353
12
2.999997
22
69.000000
32
123.885353
13
2.999997
23
69.000000
33
123.885353
0
3DFACE
8
Form3_1
62
4.000000
10
-0.000003
20
-69.000000
30
15.000000
11
-59.000008
21
-69.000000
31
15.000000
12
-59.000008
22
-69.000000
32
32.000004
13
-0.000003
23
-69.000000
33
32.000004
0
3DFACE
8
Form3_1
62
4.000000
10
-59.000004
20
-69.000000
30
54.000000
11
-59.000004
21
-69.000000
31
71.000008
12
-45.000000
22
-69.000000
32
71.000008
13
-45.000000
23
-69.000000
33
54.000000
0
3DFACE
8
Form3_1
62
4.000000
10
-40.000004
20
-69.000000
30
54.000000
11
-40.000004
21
-69.000000
31
71.000000
12
-26.000006
22
-69.000000
32
71.000000
13
-26.000006
23
-69.000000
33
54.000000
0
3DFACE
8
Form3_1
62
4.000000
10
-10.000004
20
-69.000000
30
54.000000
11
-10.000004
21
-69.000000
31
71.000008
12
-1.000004
22
-69.000000
32
71.000008
13
-1.000004
23
-69.000000
33
54.000000
0
3DFACE
8
Form3_1
62
4.000000
10
29.999998
20
-69.000000
30
54.000000
11
29.999998
21
-69.000000
31
71.000000
12
43.999996
22
-69.000000
32
71.000000
13
43.999996
23
-69.000000
33
54.000000
0
3DFACE
8
Form3_1
62
4.000000
10
47.000000
20
-69.000000
30
54.000000
11
47.000000
21
-69.000000
31
71.000008
12
62.000000
22
-69.000000
32
71.000008
13
62.000000
23
-69.000000
33
54.000000
0
3DFACE
8
Form3_1
62
4.000000
10
39.000000
20
-69.000000
30
0.000000
11
20.000000
21
-69.000000
31
0.000000
12
20.000000
22
-69.000000
32
29.999998
13
39.000000
23
-69.000000
33
29.999998
0
3DFACE
8
Form3_2
62
5.000000
10
-0.000003
20
70.000015
30
15.000000
11
-59.000008
21
70.000015
31
15.000000
12
-59.000008
22
70.000015
32
32.000004
13
-0.000003
23
70.000015
33
32.000004
0
3DFACE
8
Form3_2
62
5.000000
10
-59.000004
20
70.000015
30
54.000000
11
-59.000004
21
70.000015
31
71.000008
12
-45.000000
22
70.000015
32
71.000008
13
-45.000000
23
70.000015
33
54.000000
0
3DFACE
8
Form3_2
62
5.000000
10
-40.000004
20
70.000015
30
54.000000
11
-40.000004
21
70.000015
31
71.000000
12
-26.000006
22
70.000015
32
71.000000
13
-26.000006
23
70.000015
33
54.000000
0
3DFACE
8
Form3_2
62
5.000000
10
-10.000004
20
70.000015
30
54.000000
11
-10.000004
21
70.000015
31
71.000008
12
-1.000004
22
70.000015
32
71.000008
13
-1.000004
23
70.000015
33
54.000000
0
3DFACE
8
Form3_2
62
5.000000
10
29.999998
20
70.000015
30
54.000000
11
29.999998
21
70.000015
31
71.000000
12
43.999996
22
70.000015
32
71.000000
13
43.999996
23
70.000015
33
54.000000
0
3DFACE
8
Form3_2
62
5.000000
10
47.000000
20
70.000015
30
54.000000
11
47.000000
21
70.000015
31
71.000008
12
62.000000
22
70.000015
32
71.000008
13
62.000000
23
70.000015
33
54.000000
0
3DFACE
8
Form3_2
62
5.000000
10
39.000000
20
70.000015
30
0.000000
11
20.000000
21
70.000015
31
0.000000
12
20.000000
22
70.000015
32
29.999998
13
39.000000
23
70.000015
33
29.999998
0
3DFACE
8
Form8
62
6.000000
10
-69.000000
20
66.000000
30
18.000000
11
-69.000000
21
66.000000
31
37.000004
12
-69.000000
22
10.000006
32
37.000004
13
-69.000000
23
10.000006
33
18.000000
0
3DFACE
8
Form8
62
6.000000
10
-69.000000
20
7.000002
30
19.000000
11
-69.000000
21
7.000002
31
37.000004
12
-69.000000
22
-5.999998
32
37.000004
13
-69.000000
23
-5.999998
33
19.000000
0
3DFACE
8
Form8
62
6.000000
10
-69.000000
20
-7.999998
30
19.000000
11
-69.000000
21
-7.999998
31
37.000004
12
-69.000000
22
-67.000008
32
37.000004
13
-69.000000
23
-67.000008
33
19.000000
0
ENDSEC
0
EOF
