0
SECTION
2
ENTITIES
0
3DFACE
8
Camion
62
1.000000
10
24.819996
20
-0.000000
30
-1.299999
11
28.019997
21
-0.000000
31
-1.299999
12
28.020000
22
28.700001
32
-1.300001
13
24.820000
23
28.700001
33
-1.300001
0
3DFACE
8
Camion
62
1.000000
10
28.019997
20
-0.000000
30
-1.299999
11
28.019997
21
-0.000000
31
10.700000
12
28.020000
22
28.700001
32
10.700000
13
28.020000
23
28.700001
33
-1.300001
0
3DFACE
8
Camion
62
1.000000
10
28.019997
20
-0.000000
30
10.700000
11
24.119997
21
-0.000000
31
21.699999
12
24.120001
22
28.700001
32
21.700001
13
28.020000
23
28.700001
33
10.700000
0
3DFACE
8
Camion
62
1.000000
10
24.119997
20
-0.000000
30
21.699999
11
13.819997
21
-0.000000
31
21.900000
12
13.819999
22
28.700001
32
21.900002
13
24.120001
23
28.700001
33
21.700001
0
3DFACE
8
Camion
62
1.000000
10
13.819997
20
-0.000000
30
21.900000
11
13.819997
21
-0.000000
31
26.299999
12
13.819999
22
28.700001
32
26.300001
13
13.819999
23
28.700001
33
21.900002
0
3DFACE
8
Camion
62
1.000000
10
13.819997
20
-0.000000
30
26.299999
11
-34.279999
21
-0.000000
31
26.299999
12
-34.280003
22
28.700001
32
26.300001
13
13.819999
23
28.700001
33
26.300001
0
3DFACE
8
Camion
62
1.000000
10
-34.279999
20
-0.000000
30
26.299999
11
-34.080002
21
-0.000000
31
-0.700000
12
-34.080006
22
28.700001
32
-0.700002
13
-34.280003
23
28.700001
33
26.300001
0
3DFACE
8
Camion
62
1.000000
10
-34.080002
20
-0.000000
30
-0.700000
11
-30.480001
21
-0.000000
31
-0.600000
12
-30.480005
22
28.700001
32
-0.600002
13
-34.080006
23
28.700001
33
-0.700002
0
3DFACE
8
Camion
62
1.000000
10
-30.480001
20
-0.000000
30
-0.600000
11
-28.480001
21
-0.000000
31
4.000000
12
-28.480005
22
28.700001
32
3.999999
13
-30.480005
23
28.700001
33
-0.600002
0
3DFACE
8
Camion
62
1.000000
10
-28.480001
20
-0.000000
30
4.000000
11
-12.580004
21
-0.000000
31
4.000000
12
-12.580005
22
28.700001
32
3.999999
13
-28.480005
23
28.700001
33
3.999999
0
3DFACE
8
Camion
62
1.000000
10
-12.580004
20
-0.000000
30
4.000000
11
-10.780003
21
-0.000000
31
-1.100000
12
-10.780004
22
28.700001
32
-1.100002
13
-12.580005
23
28.700001
33
3.999999
0
3DFACE
8
Camion
62
1.000000
10
-10.780003
20
-0.000000
30
-1.100000
11
15.019996
21
-0.000000
31
-1.100000
12
15.019998
22
28.700001
32
-1.100002
13
-10.780004
23
28.700001
33
-1.100002
0
3DFACE
8
Camion
62
1.000000
10
15.019996
20
-0.000000
30
-1.100000
11
16.419996
21
-0.000000
31
2.800000
12
16.419998
22
28.700001
32
2.799999
13
15.019998
23
28.700001
33
-1.100002
0
3DFACE
8
Camion
62
1.000000
10
16.419996
20
-0.000000
30
2.800000
11
23.619997
21
-0.000000
31
2.900000
12
23.620001
22
28.700001
32
2.899999
13
16.419998
23
28.700001
33
2.799999
0
3DFACE
8
Camion
62
1.000000
10
23.619997
20
-0.000000
30
2.900000
11
24.819996
21
-0.000000
31
-1.299999
12
24.820000
22
28.700001
32
-1.300001
13
23.620001
23
28.700001
33
2.899999
0
3DFACE
8
Camion
62
1.000000
10
24.820000
20
28.700001
30
-1.300001
11
28.020000
21
28.700001
31
-1.300001
12
28.020000
22
28.700001
32
10.700000
13
28.020000
23
28.700001
33
10.700000
0
3DFACE
8
Camion
62
1.000000
10
24.820000
20
28.700001
30
-1.300001
11
28.020000
21
28.700001
31
10.700000
12
24.120001
22
28.700001
32
21.700001
13
24.120001
23
28.700001
33
21.700001
0
3DFACE
8
Camion
62
1.000000
10
13.819999
20
28.700001
30
21.900002
11
13.819999
21
28.700001
31
26.300001
12
-34.280003
22
28.700001
32
26.300001
13
-34.280003
23
28.700001
33
26.300001
0
3DFACE
8
Camion
62
1.000000
10
-34.280003
20
28.700001
30
26.300001
11
-34.080006
21
28.700001
31
-0.700002
12
-30.480005
22
28.700001
32
-0.600002
13
-30.480005
23
28.700001
33
-0.600002
0
3DFACE
8
Camion
62
1.000000
10
-34.280003
20
28.700001
30
26.300001
11
-30.480005
21
28.700001
31
-0.600002
12
-28.480005
22
28.700001
32
3.999999
13
-28.480005
23
28.700001
33
3.999999
0
3DFACE
8
Camion
62
1.000000
10
-34.280003
20
28.700001
30
26.300001
11
-28.480005
21
28.700001
31
3.999999
12
-12.580005
22
28.700001
32
3.999999
13
-12.580005
23
28.700001
33
3.999999
0
3DFACE
8
Camion
62
1.000000
10
-12.580005
20
28.700001
30
3.999999
11
-10.780004
21
28.700001
31
-1.100002
12
15.019998
22
28.700001
32
-1.100002
13
15.019998
23
28.700001
33
-1.100002
0
3DFACE
8
Camion
62
1.000000
10
-12.580005
20
28.700001
30
3.999999
11
15.019998
21
28.700001
31
-1.100002
12
16.419998
22
28.700001
32
2.799999
13
16.419998
23
28.700001
33
2.799999
0
3DFACE
8
Camion
62
1.000000
10
-12.580005
20
28.700001
30
3.999999
11
16.419998
21
28.700001
31
2.799999
12
23.620001
22
28.700001
32
2.899999
13
23.620001
23
28.700001
33
2.899999
0
3DFACE
8
Camion
62
1.000000
10
23.620001
20
28.700001
30
2.899999
11
24.820000
21
28.700001
31
-1.300001
12
24.120001
22
28.700001
32
21.700001
13
24.120001
23
28.700001
33
21.700001
0
3DFACE
8
Camion
62
1.000000
10
13.819999
20
28.700001
30
21.900002
11
-34.280003
21
28.700001
31
26.300001
12
-12.580005
22
28.700001
32
3.999999
13
-12.580005
23
28.700001
33
3.999999
0
3DFACE
8
Camion
62
1.000000
10
13.819999
20
28.700001
30
21.900002
11
-12.580005
21
28.700001
31
3.999999
12
23.620001
22
28.700001
32
2.899999
13
23.620001
23
28.700001
33
2.899999
0
3DFACE
8
Camion
62
1.000000
10
13.819999
20
28.700001
30
21.900002
11
23.620001
21
28.700001
31
2.899999
12
24.120001
22
28.700001
32
21.700001
13
24.120001
23
28.700001
33
21.700001
0
3DFACE
8
Camion
62
1.000000
10
16.419996
20
-0.000000
30
2.800000
11
15.019996
21
-0.000000
31
-1.100000
12
-10.780003
22
-0.000000
32
-1.100000
13
-10.780003
23
-0.000000
33
-1.100000
0
3DFACE
8
Camion
62
1.000000
10
16.419996
20
-0.000000
30
2.800000
11
-10.780003
21
-0.000000
31
-1.100000
12
-12.580004
22
-0.000000
32
4.000000
13
-12.580004
23
-0.000000
33
4.000000
0
3DFACE
8
Camion
62
1.000000
10
-28.480001
20
-0.000000
30
4.000000
11
-30.480001
21
-0.000000
31
-0.600000
12
-34.080002
22
-0.000000
32
-0.700000
13
-34.080002
23
-0.000000
33
-0.700000
0
3DFACE
8
Camion
62
1.000000
10
-28.480001
20
-0.000000
30
4.000000
11
-34.080002
21
-0.000000
31
-0.700000
12
-34.279999
22
-0.000000
32
26.299999
13
-34.279999
23
-0.000000
33
26.299999
0
3DFACE
8
Camion
62
1.000000
10
-28.480001
20
-0.000000
30
4.000000
11
-34.279999
21
-0.000000
31
26.299999
12
13.819997
22
-0.000000
32
26.299999
13
13.819997
23
-0.000000
33
26.299999
0
3DFACE
8
Camion
62
1.000000
10
-28.480001
20
-0.000000
30
4.000000
11
13.819997
21
-0.000000
31
26.299999
12
13.819997
22
-0.000000
32
21.900000
13
13.819997
23
-0.000000
33
21.900000
0
3DFACE
8
Camion
62
1.000000
10
-28.480001
20
-0.000000
30
4.000000
11
13.819997
21
-0.000000
31
21.900000
12
24.119997
22
-0.000000
32
21.699999
13
24.119997
23
-0.000000
33
21.699999
0
3DFACE
8
Camion
62
1.000000
10
-28.480001
20
-0.000000
30
4.000000
11
24.119997
21
-0.000000
31
21.699999
12
28.019997
22
-0.000000
32
10.700000
13
28.019997
23
-0.000000
33
10.700000
0
3DFACE
8
Camion
62
1.000000
10
28.019997
20
-0.000000
30
10.700000
11
28.019997
21
-0.000000
31
-1.299999
12
24.819996
22
-0.000000
32
-1.299999
13
24.819996
23
-0.000000
33
-1.299999
0
3DFACE
8
Camion
62
1.000000
10
28.019997
20
-0.000000
30
10.700000
11
24.819996
21
-0.000000
31
-1.299999
12
23.619997
22
-0.000000
32
2.900000
13
23.619997
23
-0.000000
33
2.900000
0
3DFACE
8
Camion
62
1.000000
10
28.019997
20
-0.000000
30
10.700000
11
23.619997
21
-0.000000
31
2.900000
12
16.419996
22
-0.000000
32
2.800000
13
16.419996
23
-0.000000
33
2.800000
0
3DFACE
8
Camion
62
1.000000
10
-12.580004
20
-0.000000
30
4.000000
11
-28.480001
21
-0.000000
31
4.000000
12
28.019997
22
-0.000000
32
10.700000
13
28.019997
23
-0.000000
33
10.700000
0
3DFACE
8
Camion
62
1.000000
10
-12.580004
20
-0.000000
30
4.000000
11
28.019997
21
-0.000000
31
10.700000
12
16.419996
22
-0.000000
32
2.800000
13
16.419996
23
-0.000000
33
2.800000
0
3DFACE
8
Roues
62
2.000000
10
-22.752285
20
29.000000
30
-6.746185
11
-26.360682
21
29.000000
31
-7.346726
12
-29.080002
22
29.000000
32
-4.899999
13
-29.080002
23
29.000000
33
-4.899999
0
3DFACE
8
Roues
62
2.000000
10
-22.752285
20
29.000000
30
-6.746185
11
-29.080002
21
29.000000
31
-4.899999
12
-28.862543
22
29.000000
32
-1.248440
13
-28.862543
23
29.000000
33
-1.248440
0
3DFACE
8
Roues
62
2.000000
10
-22.752285
20
29.000000
30
-6.746185
11
-28.862543
21
29.000000
31
-1.248440
12
-25.872055
22
29.000000
32
0.858253
13
-25.872055
23
29.000000
33
0.858253
0
3DFACE
8
Roues
62
2.000000
10
-22.752285
20
29.000000
30
-6.746185
11
-25.872055
21
29.000000
31
0.858253
12
-22.360437
22
29.000000
32
-0.166302
13
-22.360437
23
29.000000
33
-0.166302
0
3DFACE
8
Roues
62
2.000000
10
-22.752285
20
29.000000
30
-6.746185
11
-22.360437
21
29.000000
31
-0.166302
12
-20.972008
22
29.000000
32
-3.550596
13
-20.972008
23
29.000000
33
-3.550596
0
3DFACE
8
Roues
62
2.000000
10
-13.652285
20
29.000000
30
-6.746185
11
-17.260681
21
29.000000
31
-7.346726
12
-19.980001
22
29.000000
32
-4.899999
13
-19.980001
23
29.000000
33
-4.899999
0
3DFACE
8
Roues
62
2.000000
10
-13.652285
20
29.000000
30
-6.746185
11
-19.980001
21
29.000000
31
-4.899999
12
-19.762543
22
29.000000
32
-1.248440
13
-19.762543
23
29.000000
33
-1.248440
0
3DFACE
8
Roues
62
2.000000
10
-13.652285
20
29.000000
30
-6.746185
11
-19.762543
21
29.000000
31
-1.248440
12
-16.772055
22
29.000000
32
0.858253
13
-16.772055
23
29.000000
33
0.858253
0
3DFACE
8
Roues
62
2.000000
10
-13.652285
20
29.000000
30
-6.746185
11
-16.772055
21
29.000000
31
0.858253
12
-13.260437
22
29.000000
32
-0.166302
13
-13.260437
23
29.000000
33
-0.166302
0
3DFACE
8
Roues
62
2.000000
10
-13.652285
20
29.000000
30
-6.746185
11
-13.260437
21
29.000000
31
-0.166302
12
-11.872008
22
29.000000
32
-3.550596
13
-11.872008
23
29.000000
33
-3.550596
0
3DFACE
8
Roues
62
2.000000
10
22.447714
20
29.000000
30
-6.746185
11
18.839317
21
29.000000
31
-7.346726
12
16.119997
22
29.000000
32
-4.899999
13
16.119997
23
29.000000
33
-4.899999
0
3DFACE
8
Roues
62
2.000000
10
22.447714
20
29.000000
30
-6.746185
11
16.119997
21
29.000000
31
-4.899999
12
16.337456
22
29.000000
32
-1.248440
13
16.337456
23
29.000000
33
-1.248440
0
3DFACE
8
Roues
62
2.000000
10
22.447714
20
29.000000
30
-6.746185
11
16.337456
21
29.000000
31
-1.248440
12
19.327944
22
29.000000
32
0.858253
13
19.327944
23
29.000000
33
0.858253
0
3DFACE
8
Roues
62
2.000000
10
22.447714
20
29.000000
30
-6.746185
11
19.327944
21
29.000000
31
0.858253
12
22.839561
22
29.000000
32
-0.166302
13
22.839561
23
29.000000
33
-0.166302
0
3DFACE
8
Roues
62
2.000000
10
22.447714
20
29.000000
30
-6.746185
11
22.839561
21
29.000000
31
-0.166302
12
24.227989
22
29.000000
32
-3.550596
13
24.227989
23
29.000000
33
-3.550596
0
3DFACE
8
Roues
62
2.000000
10
-22.752285
20
-0.000000
30
-6.746185
11
-26.360682
21
-0.000000
31
-7.346726
12
-29.080002
22
-0.000000
32
-4.899999
13
-29.080002
23
-0.000000
33
-4.899999
0
3DFACE
8
Roues
62
2.000000
10
-22.752285
20
-0.000000
30
-6.746185
11
-29.080002
21
-0.000000
31
-4.899999
12
-28.862543
22
-0.000000
32
-1.248440
13
-28.862543
23
-0.000000
33
-1.248440
0
3DFACE
8
Roues
62
2.000000
10
-22.752285
20
-0.000000
30
-6.746185
11
-28.862543
21
-0.000000
31
-1.248440
12
-25.872055
22
-0.000000
32
0.858253
13
-25.872055
23
-0.000000
33
0.858253
0
3DFACE
8
Roues
62
2.000000
10
-22.752285
20
-0.000000
30
-6.746185
11
-25.872055
21
-0.000000
31
0.858253
12
-22.360437
22
-0.000000
32
-0.166302
13
-22.360437
23
-0.000000
33
-0.166302
0
3DFACE
8
Roues
62
2.000000
10
-22.752285
20
-0.000000
30
-6.746185
11
-22.360437
21
-0.000000
31
-0.166302
12
-20.972008
22
-0.000000
32
-3.550596
13
-20.972008
23
-0.000000
33
-3.550596
0
3DFACE
8
Roues
62
2.000000
10
-13.652285
20
-0.000000
30
-6.746185
11
-17.260681
21
-0.000000
31
-7.346726
12
-19.980001
22
-0.000000
32
-4.899999
13
-19.980001
23
-0.000000
33
-4.899999
0
3DFACE
8
Roues
62
2.000000
10
-13.652285
20
-0.000000
30
-6.746185
11
-19.980001
21
-0.000000
31
-4.899999
12
-19.762543
22
-0.000000
32
-1.248440
13
-19.762543
23
-0.000000
33
-1.248440
0
3DFACE
8
Roues
62
2.000000
10
-13.652285
20
-0.000000
30
-6.746185
11
-19.762543
21
-0.000000
31
-1.248440
12
-16.772055
22
-0.000000
32
0.858253
13
-16.772055
23
-0.000000
33
0.858253
0
3DFACE
8
Roues
62
2.000000
10
-13.652285
20
-0.000000
30
-6.746185
11
-16.772055
21
-0.000000
31
0.858253
12
-13.260437
22
-0.000000
32
-0.166302
13
-13.260437
23
-0.000000
33
-0.166302
0
3DFACE
8
Roues
62
2.000000
10
-13.652285
20
-0.000000
30
-6.746185
11
-13.260437
21
-0.000000
31
-0.166302
12
-11.872008
22
-0.000000
32
-3.550596
13
-11.872008
23
-0.000000
33
-3.550596
0
3DFACE
8
Roues
62
2.000000
10
22.447714
20
-0.000000
30
-6.746185
11
18.839317
21
-0.000000
31
-7.346726
12
16.119997
22
-0.000000
32
-4.899999
13
16.119997
23
-0.000000
33
-4.899999
0
3DFACE
8
Roues
62
2.000000
10
22.447714
20
-0.000000
30
-6.746185
11
16.119997
21
-0.000000
31
-4.899999
12
16.337456
22
-0.000000
32
-1.248440
13
16.337456
23
-0.000000
33
-1.248440
0
3DFACE
8
Roues
62
2.000000
10
22.447714
20
-0.000000
30
-6.746185
11
16.337456
21
-0.000000
31
-1.248440
12
19.327944
22
-0.000000
32
0.858253
13
19.327944
23
-0.000000
33
0.858253
0
3DFACE
8
Roues
62
2.000000
10
22.447714
20
-0.000000
30
-6.746185
11
19.327944
21
-0.000000
31
0.858253
12
22.839561
22
-0.000000
32
-0.166302
13
22.839561
23
-0.000000
33
-0.166302
0
3DFACE
8
Roues
62
2.000000
10
22.447714
20
-0.000000
30
-6.746185
11
22.839561
21
-0.000000
31
-0.166302
12
24.227989
22
-0.000000
32
-3.550596
13
24.227989
23
-0.000000
33
-3.550596
0
3DFACE
8
Phare2
62
3.000000
10
29.387857
20
24.000000
30
3.700000
11
29.387857
21
24.000000
31
3.700000
12
29.119492
22
26.828426
32
3.700000
13
29.119492
23
25.999998
33
1.700000
0
3DFACE
8
Phare2
62
3.000000
10
29.119492
20
25.999998
30
1.700000
11
29.119492
21
26.828426
31
3.700000
12
28.471601
22
28.000000
32
3.700000
13
28.471601
23
26.828426
33
0.871574
0
3DFACE
8
Phare2
62
3.000000
10
28.471601
20
26.828426
30
0.871574
11
28.471601
21
28.000000
31
3.700000
12
27.823709
22
26.828426
32
3.700000
13
27.823709
23
25.999998
33
1.699999
0
3DFACE
8
Phare2
62
3.000000
10
29.387857
20
24.000000
30
3.700000
11
29.387857
21
24.000000
31
3.700000
12
29.119492
22
25.999998
32
1.700000
13
29.119492
23
24.000000
33
0.871574
0
3DFACE
8
Phare2
62
3.000000
10
29.119492
20
24.000000
30
0.871574
11
29.119492
21
25.999998
31
1.700000
12
28.471601
22
26.828426
32
0.871574
13
28.471601
23
24.000000
33
-0.300000
0
3DFACE
8
Phare2
62
3.000000
10
28.471601
20
24.000000
30
-0.300000
11
28.471601
21
26.828426
31
0.871574
12
27.823709
22
25.999998
32
1.699999
13
27.823709
23
24.000000
33
0.871573
0
3DFACE
8
Phare2
62
3.000000
10
29.387857
20
24.000000
30
3.700000
11
29.387857
21
24.000000
31
3.700000
12
29.119492
22
24.000000
32
0.871574
13
29.119492
23
22.000000
33
1.700000
0
3DFACE
8
Phare2
62
3.000000
10
29.119492
20
22.000000
30
1.700000
11
29.119492
21
24.000000
31
0.871574
12
28.471601
22
24.000000
32
-0.300000
13
28.471601
23
21.171572
33
0.871572
0
3DFACE
8
Phare2
62
3.000000
10
28.471601
20
21.171572
30
0.871572
11
28.471601
21
24.000000
31
-0.300000
12
27.823709
22
24.000000
32
0.871573
13
27.823709
23
22.000000
33
1.699999
0
3DFACE
8
Phare2
62
3.000000
10
29.387857
20
24.000000
30
3.700000
11
29.387857
21
24.000000
31
3.700000
12
29.119492
22
22.000000
32
1.700000
13
29.119492
23
21.171572
33
3.700000
0
3DFACE
8
Phare2
62
3.000000
10
29.119492
20
21.171572
30
3.700000
11
29.119492
21
22.000000
31
1.700000
12
28.471601
22
21.171572
32
0.871572
13
28.471601
23
19.999998
33
3.699998
0
3DFACE
8
Phare2
62
3.000000
10
28.471601
20
19.999998
30
3.699998
11
28.471601
21
21.171572
31
0.871572
12
27.823709
22
22.000000
32
1.699999
13
27.823709
23
21.171572
33
3.700000
0
3DFACE
8
Phare2
62
3.000000
10
29.387857
20
24.000000
30
3.700000
11
29.387857
21
24.000000
31
3.700000
12
29.119492
22
21.171572
32
3.700000
13
29.119492
23
22.000000
33
5.700000
0
3DFACE
8
Phare2
62
3.000000
10
29.119492
20
22.000000
30
5.700000
11
29.119492
21
21.171572
31
3.700000
12
28.471601
22
19.999998
32
3.699998
13
28.471601
23
21.171570
33
6.528426
0
3DFACE
8
Phare2
62
3.000000
10
28.471601
20
21.171570
30
6.528426
11
28.471601
21
19.999998
31
3.699998
12
27.823709
22
21.171572
32
3.700000
13
27.823709
23
22.000000
33
5.700000
0
3DFACE
8
Phare2
62
3.000000
10
29.387857
20
24.000000
30
3.700000
11
29.387857
21
24.000000
31
3.700000
12
29.119492
22
22.000000
32
5.700000
13
29.119492
23
24.000000
33
6.528426
0
3DFACE
8
Phare2
62
3.000000
10
29.119492
20
24.000000
30
6.528426
11
29.119492
21
22.000000
31
5.700000
12
28.471601
22
21.171570
32
6.528426
13
28.471601
23
23.999996
33
7.700000
0
3DFACE
8
Phare2
62
3.000000
10
28.471601
20
23.999996
30
7.700000
11
28.471601
21
21.171570
31
6.528426
12
27.823709
22
22.000000
32
5.700000
13
27.823709
23
24.000000
33
6.528426
0
3DFACE
8
Phare2
62
3.000000
10
29.387857
20
24.000000
30
3.700000
11
29.387857
21
24.000000
31
3.700000
12
29.119492
22
24.000000
32
6.528426
13
29.119492
23
25.999998
33
5.699998
0
3DFACE
8
Phare2
62
3.000000
10
29.119492
20
25.999998
30
5.699998
11
29.119492
21
24.000000
31
6.528426
12
28.471601
22
23.999996
32
7.700000
13
28.471601
23
26.828424
33
6.528428
0
3DFACE
8
Phare2
62
3.000000
10
28.471601
20
26.828424
30
6.528428
11
28.471601
21
23.999996
31
7.700000
12
27.823709
22
24.000000
32
6.528426
13
27.823709
23
25.999998
33
5.699998
0
3DFACE
8
Phare2
62
3.000000
10
29.387857
20
24.000000
30
3.700000
11
29.387857
21
24.000000
31
3.700000
12
29.119492
22
25.999998
32
5.699998
13
29.119492
23
26.828426
33
3.700000
0
3DFACE
8
Phare2
62
3.000000
10
29.119492
20
26.828426
30
3.700000
11
29.119492
21
25.999998
31
5.699998
12
28.471601
22
26.828424
32
6.528428
13
28.471601
23
28.000000
33
3.700000
0
3DFACE
8
Phare2
62
3.000000
10
28.471601
20
28.000000
30
3.700000
11
28.471601
21
26.828424
31
6.528428
12
27.823709
22
25.999998
32
5.699998
13
27.823709
23
26.828426
33
3.700000
0
3DFACE
8
Phare1
62
4.000000
10
29.387857
20
5.000000
30
3.700000
11
29.387857
21
5.000000
31
3.700000
12
29.119492
22
7.828427
32
3.700000
13
29.119492
23
7.000000
33
1.700000
0
3DFACE
8
Phare1
62
4.000000
10
29.119492
20
7.000000
30
1.700000
11
29.119492
21
7.828427
31
3.700000
12
28.471601
22
9.000000
32
3.700000
13
28.471601
23
7.828427
33
0.871574
0
3DFACE
8
Phare1
62
4.000000
10
28.471601
20
7.828427
30
0.871574
11
28.471601
21
9.000000
31
3.700000
12
27.823709
22
7.828427
32
3.700000
13
27.823709
23
7.000000
33
1.699999
0
3DFACE
8
Phare1
62
4.000000
10
29.387857
20
5.000000
30
3.700000
11
29.387857
21
5.000000
31
3.700000
12
29.119492
22
7.000000
32
1.700000
13
29.119492
23
5.000000
33
0.871574
0
3DFACE
8
Phare1
62
4.000000
10
29.119492
20
5.000000
30
0.871574
11
29.119492
21
7.000000
31
1.700000
12
28.471601
22
7.828427
32
0.871574
13
28.471601
23
5.000000
33
-0.300000
0
3DFACE
8
Phare1
62
4.000000
10
28.471601
20
5.000000
30
-0.300000
11
28.471601
21
7.828427
31
0.871574
12
27.823709
22
7.000000
32
1.699999
13
27.823709
23
5.000000
33
0.871573
0
3DFACE
8
Phare1
62
4.000000
10
29.387857
20
5.000000
30
3.700000
11
29.387857
21
5.000000
31
3.700000
12
29.119492
22
5.000000
32
0.871574
13
29.119492
23
3.000000
33
1.700000
0
3DFACE
8
Phare1
62
4.000000
10
29.119492
20
3.000000
30
1.700000
11
29.119492
21
5.000000
31
0.871574
12
28.471601
22
5.000000
32
-0.300000
13
28.471601
23
2.171573
33
0.871572
0
3DFACE
8
Phare1
62
4.000000
10
28.471601
20
2.171573
30
0.871572
11
28.471601
21
5.000000
31
-0.300000
12
27.823709
22
5.000000
32
0.871573
13
27.823709
23
3.000000
33
1.699999
0
3DFACE
8
Phare1
62
4.000000
10
29.387857
20
5.000000
30
3.700000
11
29.387857
21
5.000000
31
3.700000
12
29.119492
22
3.000000
32
1.700000
13
29.119492
23
2.171573
33
3.700000
0
3DFACE
8
Phare1
62
4.000000
10
29.119492
20
2.171573
30
3.700000
11
29.119492
21
3.000000
31
1.700000
12
28.471601
22
2.171573
32
0.871572
13
28.471601
23
1.000000
33
3.699998
0
3DFACE
8
Phare1
62
4.000000
10
28.471601
20
1.000000
30
3.699998
11
28.471601
21
2.171573
31
0.871572
12
27.823709
22
3.000000
32
1.699999
13
27.823709
23
2.171573
33
3.700000
0
3DFACE
8
Phare1
62
4.000000
10
29.387857
20
5.000000
30
3.700000
11
29.387857
21
5.000000
31
3.700000
12
29.119492
22
2.171573
32
3.700000
13
29.119492
23
3.000000
33
5.700000
0
3DFACE
8
Phare1
62
4.000000
10
29.119492
20
3.000000
30
5.700000
11
29.119492
21
2.171573
31
3.700000
12
28.471601
22
1.000000
32
3.699998
13
28.471601
23
2.171571
33
6.528426
0
3DFACE
8
Phare1
62
4.000000
10
28.471601
20
2.171571
30
6.528426
11
28.471601
21
1.000000
31
3.699998
12
27.823709
22
2.171573
32
3.700000
13
27.823709
23
3.000000
33
5.700000
0
3DFACE
8
Phare1
62
4.000000
10
29.387857
20
5.000000
30
3.700000
11
29.387857
21
5.000000
31
3.700000
12
29.119492
22
3.000000
32
5.700000
13
29.119492
23
5.000000
33
6.528426
0
3DFACE
8
Phare1
62
4.000000
10
29.119492
20
5.000000
30
6.528426
11
29.119492
21
3.000000
31
5.700000
12
28.471601
22
2.171571
32
6.528426
13
28.471601
23
4.999998
33
7.700000
0
3DFACE
8
Phare1
62
4.000000
10
28.471601
20
4.999998
30
7.700000
11
28.471601
21
2.171571
31
6.528426
12
27.823709
22
3.000000
32
5.700000
13
27.823709
23
5.000000
33
6.528426
0
3DFACE
8
Phare1
62
4.000000
10
29.387857
20
5.000000
30
3.700000
11
29.387857
21
5.000000
31
3.700000
12
29.119492
22
5.000000
32
6.528426
13
29.119492
23
7.000000
33
5.699998
0
3DFACE
8
Phare1
62
4.000000
10
29.119492
20
7.000000
30
5.699998
11
29.119492
21
5.000000
31
6.528426
12
28.471601
22
4.999998
32
7.700000
13
28.471601
23
7.828426
33
6.528428
0
3DFACE
8
Phare1
62
4.000000
10
28.471601
20
7.828426
30
6.528428
11
28.471601
21
4.999998
31
7.700000
12
27.823709
22
5.000000
32
6.528426
13
27.823709
23
7.000000
33
5.699998
0
3DFACE
8
Phare1
62
4.000000
10
29.387857
20
5.000000
30
3.700000
11
29.387857
21
5.000000
31
3.700000
12
29.119492
22
7.000000
32
5.699998
13
29.119492
23
7.828427
33
3.700000
0
3DFACE
8
Phare1
62
4.000000
10
29.119492
20
7.828427
30
3.700000
11
29.119492
21
7.000000
31
5.699998
12
28.471601
22
7.828426
32
6.528428
13
28.471601
23
9.000000
33
3.700000
0
3DFACE
8
Phare1
62
4.000000
10
28.471601
20
9.000000
30
3.700000
11
28.471601
21
7.828426
31
6.528428
12
27.823709
22
7.000000
32
5.699998
13
27.823709
23
7.828427
33
3.700000
0
ENDSEC
0
EOF
