0
SECTION
2
ENTITIES
0
3DFACE
8
Rouesnette
62
1.000000
10
-13.652285
20
29.000000
30
-6.746185
11
-17.260681
21
29.000000
31
-7.346726
12
-19.980001
22
29.000000
32
-4.899999
13
-19.980001
23
29.000000
33
-4.899999
0
3DFACE
8
Rouesnette
62
1.000000
10
-13.652285
20
29.000000
30
-6.746185
11
-19.980001
21
29.000000
31
-4.899999
12
-19.762543
22
29.000000
32
-1.248440
13
-19.762543
23
29.000000
33
-1.248440
0
3DFACE
8
Rouesnette
62
1.000000
10
-13.652285
20
29.000000
30
-6.746185
11
-19.762543
21
29.000000
31
-1.248440
12
-16.772055
22
29.000000
32
0.858253
13
-16.772055
23
29.000000
33
0.858253
0
3DFACE
8
Rouesnette
62
1.000000
10
-13.652285
20
29.000000
30
-6.746185
11
-16.772055
21
29.000000
31
0.858253
12
-13.260437
22
29.000000
32
-0.166302
13
-13.260437
23
29.000000
33
-0.166302
0
3DFACE
8
Rouesnette
62
1.000000
10
-13.652285
20
29.000000
30
-6.746185
11
-13.260437
21
29.000000
31
-0.166302
12
-11.872008
22
29.000000
32
-3.550596
13
-11.872008
23
29.000000
33
-3.550596
0
3DFACE
8
Rouesnette
62
1.000000
10
22.447714
20
29.000000
30
-6.746185
11
18.839317
21
29.000000
31
-7.346726
12
16.119997
22
29.000000
32
-4.899999
13
16.119997
23
29.000000
33
-4.899999
0
3DFACE
8
Rouesnette
62
1.000000
10
22.447714
20
29.000000
30
-6.746185
11
16.119997
21
29.000000
31
-4.899999
12
16.337456
22
29.000000
32
-1.248440
13
16.337456
23
29.000000
33
-1.248440
0
3DFACE
8
Rouesnette
62
1.000000
10
22.447714
20
29.000000
30
-6.746185
11
16.337456
21
29.000000
31
-1.248440
12
19.327944
22
29.000000
32
0.858253
13
19.327944
23
29.000000
33
0.858253
0
3DFACE
8
Rouesnette
62
1.000000
10
22.447714
20
29.000000
30
-6.746185
11
19.327944
21
29.000000
31
0.858253
12
22.839561
22
29.000000
32
-0.166302
13
22.839561
23
29.000000
33
-0.166302
0
3DFACE
8
Rouesnette
62
1.000000
10
22.447714
20
29.000000
30
-6.746185
11
22.839561
21
29.000000
31
-0.166302
12
24.227989
22
29.000000
32
-3.550596
13
24.227989
23
29.000000
33
-3.550596
0
3DFACE
8
Rouesnette
62
1.000000
10
22.447714
20
-0.000000
30
-6.746185
11
18.839317
21
-0.000000
31
-7.346726
12
16.119997
22
-0.000000
32
-4.899999
13
16.119997
23
-0.000000
33
-4.899999
0
3DFACE
8
Rouesnette
62
1.000000
10
22.447714
20
-0.000000
30
-6.746185
11
16.119997
21
-0.000000
31
-4.899999
12
16.337456
22
-0.000000
32
-1.248440
13
16.337456
23
-0.000000
33
-1.248440
0
3DFACE
8
Rouesnette
62
1.000000
10
22.447714
20
-0.000000
30
-6.746185
11
16.337456
21
-0.000000
31
-1.248440
12
19.327944
22
-0.000000
32
0.858253
13
19.327944
23
-0.000000
33
0.858253
0
3DFACE
8
Rouesnette
62
1.000000
10
22.447714
20
-0.000000
30
-6.746185
11
19.327944
21
-0.000000
31
0.858253
12
22.839561
22
-0.000000
32
-0.166302
13
22.839561
23
-0.000000
33
-0.166302
0
3DFACE
8
Rouesnette
62
1.000000
10
22.447714
20
-0.000000
30
-6.746185
11
22.839561
21
-0.000000
31
-0.166302
12
24.227989
22
-0.000000
32
-3.550596
13
24.227989
23
-0.000000
33
-3.550596
0
3DFACE
8
Rouesnette
62
1.000000
10
-13.652285
20
-0.000000
30
-6.746185
11
-17.260681
21
-0.000000
31
-7.346726
12
-19.980001
22
-0.000000
32
-4.899999
13
-19.980001
23
-0.000000
33
-4.899999
0
3DFACE
8
Rouesnette
62
1.000000
10
-13.652285
20
-0.000000
30
-6.746185
11
-19.980001
21
-0.000000
31
-4.899999
12
-19.762543
22
-0.000000
32
-1.248440
13
-19.762543
23
-0.000000
33
-1.248440
0
3DFACE
8
Rouesnette
62
1.000000
10
-13.652285
20
-0.000000
30
-6.746185
11
-19.762543
21
-0.000000
31
-1.248440
12
-16.772055
22
-0.000000
32
0.858253
13
-16.772055
23
-0.000000
33
0.858253
0
3DFACE
8
Rouesnette
62
1.000000
10
-13.652285
20
-0.000000
30
-6.746185
11
-16.772055
21
-0.000000
31
0.858253
12
-13.260437
22
-0.000000
32
-0.166302
13
-13.260437
23
-0.000000
33
-0.166302
0
3DFACE
8
Rouesnette
62
1.000000
10
-13.652285
20
-0.000000
30
-6.746185
11
-13.260437
21
-0.000000
31
-0.166302
12
-11.872008
22
-0.000000
32
-3.550596
13
-11.872008
23
-0.000000
33
-3.550596
0
3DFACE
8
Camionnette
62
2.000000
10
24.039562
20
29.299999
30
-0.022201
11
24.039562
21
-0.000000
31
-0.022201
12
29.039560
22
-0.000000
32
1.882805
13
29.039560
23
29.299999
33
1.882805
0
3DFACE
8
Camionnette
62
2.000000
10
29.239563
20
29.299999
30
2.055986
11
29.239563
21
-0.000000
31
2.055986
12
29.339561
22
-0.000000
32
13.659207
13
29.339561
23
29.299999
33
13.659207
0
3DFACE
8
Camionnette
62
2.000000
10
29.339561
20
29.299999
30
13.659207
11
29.339561
21
-0.000000
31
13.659207
12
22.039562
22
-0.000000
32
16.776489
13
22.039562
23
29.299999
33
16.776489
0
3DFACE
8
Camionnette
62
2.000000
10
22.039562
20
29.299999
30
16.776489
11
22.039562
21
-0.000000
31
16.776489
12
18.539562
22
1.600000
32
27.167433
13
18.539562
23
27.399998
33
27.167433
0
3DFACE
8
Camionnette
62
2.000000
10
18.539562
20
27.399998
30
27.167433
11
18.539562
21
1.600000
31
27.167433
12
7.939562
22
1.600000
32
27.860165
13
7.939562
23
27.399998
33
27.860165
0
3DFACE
8
Camionnette
62
2.000000
10
7.639563
20
-0.000000
30
10.368742
11
7.639563
21
29.299999
31
10.368742
12
7.939562
22
27.399998
32
27.860165
13
7.939562
23
1.600000
33
27.860165
0
3DFACE
8
Camionnette
62
2.000000
10
7.639563
20
-0.000000
30
10.368742
11
-24.560436
21
-0.000000
31
10.368742
12
-24.560436
22
29.299999
32
10.368742
13
7.639563
23
29.299999
33
10.368742
0
3DFACE
8
Camionnette
62
2.000000
10
-24.560436
20
-0.000000
30
10.368742
11
-24.560436
21
-0.000000
31
-2.793119
12
-24.560436
22
29.299999
32
-2.793119
13
-24.560436
23
29.299999
33
10.368742
0
3DFACE
8
Camionnette
62
2.000000
10
-24.560436
20
29.299999
30
-2.793119
11
-24.560436
21
-0.000000
31
-2.793119
12
-20.560438
22
-0.000000
32
-2.793119
13
-20.560438
23
29.299999
33
-2.793119
0
3DFACE
8
Camionnette
62
2.000000
10
15.339561
20
29.299999
30
-2.966302
11
-10.660439
21
29.299999
31
-2.966302
12
-10.660439
22
-0.000000
32
-2.966302
13
15.339561
23
-0.000000
33
-2.966302
0
3DFACE
8
Camionnette
62
2.000000
10
29.239563
20
-0.000000
30
2.055986
11
24.039562
21
-0.000000
31
-0.022201
12
22.839561
22
-0.000000
32
4.307359
13
22.839561
23
-0.000000
33
4.307359
0
3DFACE
8
Camionnette
62
2.000000
10
17.039560
20
-0.000000
30
4.307359
11
15.339561
21
-0.000000
31
-2.966302
12
7.639563
22
-0.000000
32
10.368742
13
7.639563
23
-0.000000
33
10.368742
0
3DFACE
8
Camionnette
62
2.000000
10
17.039560
20
-0.000000
30
4.307359
11
7.639563
21
-0.000000
31
10.368742
12
7.939562
22
1.600000
32
27.860165
13
7.939562
23
1.600000
33
27.860165
0
3DFACE
8
Camionnette
62
2.000000
10
17.039560
20
-0.000000
30
4.307359
11
7.939562
21
1.600000
31
27.860165
12
18.539562
22
1.600000
32
27.167433
13
18.539562
23
1.600000
33
27.167433
0
3DFACE
8
Camionnette
62
2.000000
10
17.039560
20
-0.000000
30
4.307359
11
18.539562
21
1.600000
31
27.167433
12
22.039562
22
-0.000000
32
16.776489
13
22.039562
23
-0.000000
33
16.776489
0
3DFACE
8
Camionnette
62
2.000000
10
17.039560
20
-0.000000
30
4.307359
11
22.039562
21
-0.000000
31
16.776489
12
29.339561
22
-0.000000
32
13.659207
13
29.339561
23
-0.000000
33
13.659207
0
3DFACE
8
Camionnette
62
2.000000
10
29.339561
20
-0.000000
30
13.659207
11
29.239563
21
-0.000000
31
2.055986
12
22.839561
22
-0.000000
32
4.307359
13
22.839561
23
-0.000000
33
4.307359
0
3DFACE
8
Camionnette
62
2.000000
10
22.839561
20
-0.000000
30
4.307359
11
17.039560
21
-0.000000
31
4.307359
12
29.339561
22
-0.000000
32
13.659207
13
29.339561
23
-0.000000
33
13.659207
0
3DFACE
8
Camionnette
62
2.000000
10
15.339561
20
-0.000000
30
-2.966302
11
-10.660439
21
-0.000000
31
-2.966302
12
-13.160438
22
-0.000000
32
4.307359
13
-13.160438
23
-0.000000
33
4.307359
0
3DFACE
8
Camionnette
62
2.000000
10
-19.260439
20
-0.000000
30
4.307359
11
-20.560438
21
-0.000000
31
-2.793119
12
-24.560436
22
-0.000000
32
-2.793119
13
-24.560436
23
-0.000000
33
-2.793119
0
3DFACE
8
Camionnette
62
2.000000
10
-19.260439
20
-0.000000
30
4.307359
11
-24.560436
21
-0.000000
31
-2.793119
12
-24.560436
22
-0.000000
32
10.368742
13
-24.560436
23
-0.000000
33
10.368742
0
3DFACE
8
Camionnette
62
2.000000
10
-19.260439
20
-0.000000
30
4.307359
11
-24.560436
21
-0.000000
31
10.368742
12
7.639563
22
-0.000000
32
10.368742
13
7.639563
23
-0.000000
33
10.368742
0
3DFACE
8
Camionnette
62
2.000000
10
7.639563
20
-0.000000
30
10.368742
11
15.339561
21
-0.000000
31
-2.966302
12
-13.160438
22
-0.000000
32
4.307359
13
-13.160438
23
-0.000000
33
4.307359
0
3DFACE
8
Camionnette
62
2.000000
10
-13.160438
20
-0.000000
30
4.307359
11
-19.260439
21
-0.000000
31
4.307359
12
7.639563
22
-0.000000
32
10.368742
13
7.639563
23
-0.000000
33
10.368742
0
3DFACE
8
Camionnette
62
2.000000
10
7.639563
20
29.299999
30
10.368742
11
15.339561
21
29.299999
31
-2.966302
12
17.039560
22
29.299999
32
4.307359
13
17.039560
23
29.299999
33
4.307359
0
3DFACE
8
Camionnette
62
2.000000
10
7.639563
20
29.299999
30
10.368742
11
17.039560
21
29.299999
31
4.307359
12
22.839561
22
29.299999
32
4.307359
13
22.839561
23
29.299999
33
4.307359
0
3DFACE
8
Camionnette
62
2.000000
10
22.839561
20
29.299999
30
4.307359
11
24.039562
21
29.299999
31
-0.022201
12
29.239563
22
29.299999
32
2.055986
13
29.239563
23
29.299999
33
2.055986
0
3DFACE
8
Camionnette
62
2.000000
10
22.839561
20
29.299999
30
4.307359
11
29.239563
21
29.299999
31
2.055986
12
29.339561
22
29.299999
32
13.659207
13
29.339561
23
29.299999
33
13.659207
0
3DFACE
8
Camionnette
62
2.000000
10
22.839561
20
29.299999
30
4.307359
11
29.339561
21
29.299999
31
13.659207
12
22.039562
22
29.299999
32
16.776489
13
22.039562
23
29.299999
33
16.776489
0
3DFACE
8
Camionnette
62
2.000000
10
22.839561
20
29.299999
30
4.307359
11
22.039562
21
29.299999
31
16.776489
12
18.539562
22
27.399998
32
27.167433
13
18.539562
23
27.399998
33
27.167433
0
3DFACE
8
Camionnette
62
2.000000
10
22.839561
20
29.299999
30
4.307359
11
18.539562
21
27.399998
31
27.167433
12
7.939562
22
27.399998
32
27.860165
13
7.939562
23
27.399998
33
27.860165
0
3DFACE
8
Camionnette
62
2.000000
10
22.839561
20
29.299999
30
4.307359
11
7.939562
21
27.399998
31
27.860165
12
7.639563
22
29.299999
32
10.368742
13
7.639563
23
29.299999
33
10.368742
0
3DFACE
8
Camionnette
62
2.000000
10
-24.560436
20
29.299999
30
-2.793119
11
-20.560438
21
29.299999
31
-2.793119
12
-19.260439
22
29.299999
32
4.307359
13
-19.260439
23
29.299999
33
4.307359
0
3DFACE
8
Camionnette
62
2.000000
10
-13.160438
20
29.299999
30
4.307359
11
-10.660439
21
29.299999
31
-2.966302
12
15.339561
22
29.299999
32
-2.966302
13
15.339561
23
29.299999
33
-2.966302
0
3DFACE
8
Camionnette
62
2.000000
10
-13.160438
20
29.299999
30
4.307359
11
15.339561
21
29.299999
31
-2.966302
12
7.639563
22
29.299999
32
10.368742
13
7.639563
23
29.299999
33
10.368742
0
3DFACE
8
Camionnette
62
2.000000
10
-13.160438
20
29.299999
30
4.307359
11
7.639563
21
29.299999
31
10.368742
12
-24.560436
22
29.299999
32
10.368742
13
-24.560436
23
29.299999
33
10.368742
0
3DFACE
8
Camionnette
62
2.000000
10
-24.560436
20
29.299999
30
10.368742
11
-24.560436
21
29.299999
31
-2.793119
12
-19.260439
22
29.299999
32
4.307359
13
-19.260439
23
29.299999
33
4.307359
0
3DFACE
8
Camionnette
62
2.000000
10
-19.260439
20
29.299999
30
4.307359
11
-13.160438
21
29.299999
31
4.307359
12
-24.560436
22
29.299999
32
10.368742
13
-24.560436
23
29.299999
33
10.368742
0
3DFACE
8
Pharenette1
62
3.000000
10
30.734285
20
4.000000
30
6.055986
11
30.734285
21
4.000000
31
6.055986
12
30.237804
22
6.598076
32
6.055986
13
30.237804
23
5.299038
33
3.805986
0
3DFACE
8
Pharenette1
62
3.000000
10
30.237804
20
5.299038
30
3.805986
11
30.237804
21
6.598076
31
6.055986
12
29.244839
22
6.598076
32
6.055986
13
29.244839
23
5.299038
33
3.805986
0
3DFACE
8
Pharenette1
62
3.000000
10
30.734285
20
4.000000
30
6.055986
11
30.734285
21
4.000000
31
6.055986
12
30.237804
22
5.299038
32
3.805986
13
30.237804
23
2.700962
33
3.805986
0
3DFACE
8
Pharenette1
62
3.000000
10
30.237804
20
2.700962
30
3.805986
11
30.237804
21
5.299038
31
3.805986
12
29.244839
22
5.299038
32
3.805986
13
29.244839
23
2.700962
33
3.805986
0
3DFACE
8
Pharenette1
62
3.000000
10
30.734285
20
4.000000
30
6.055986
11
30.734285
21
4.000000
31
6.055986
12
30.237804
22
2.700962
32
3.805986
13
30.237804
23
1.401923
33
6.055986
0
3DFACE
8
Pharenette1
62
3.000000
10
30.237804
20
1.401923
30
6.055986
11
30.237804
21
2.700962
31
3.805986
12
29.244839
22
2.700962
32
3.805986
13
29.244839
23
1.401923
33
6.055986
0
3DFACE
8
Pharenette1
62
3.000000
10
30.734285
20
4.000000
30
6.055986
11
30.734285
21
4.000000
31
6.055986
12
30.237804
22
1.401923
32
6.055986
13
30.237804
23
2.700962
33
8.305986
0
3DFACE
8
Pharenette1
62
3.000000
10
30.237804
20
2.700962
30
8.305986
11
30.237804
21
1.401923
31
6.055986
12
29.244839
22
1.401923
32
6.055986
13
29.244839
23
2.700962
33
8.305987
0
3DFACE
8
Pharenette1
62
3.000000
10
30.734285
20
4.000000
30
6.055986
11
30.734285
21
4.000000
31
6.055986
12
30.237804
22
2.700962
32
8.305986
13
30.237804
23
5.299038
33
8.305986
0
3DFACE
8
Pharenette1
62
3.000000
10
30.237804
20
5.299038
30
8.305986
11
30.237804
21
2.700962
31
8.305986
12
29.244839
22
2.700962
32
8.305987
13
29.244839
23
5.299038
33
8.305987
0
3DFACE
8
Pharenette1
62
3.000000
10
30.734285
20
4.000000
30
6.055986
11
30.734285
21
4.000000
31
6.055986
12
30.237804
22
5.299038
32
8.305986
13
30.237804
23
6.598076
33
6.055986
0
3DFACE
8
Pharenette1
62
3.000000
10
30.237804
20
6.598076
30
6.055986
11
30.237804
21
5.299038
31
8.305986
12
29.244839
22
5.299038
32
8.305987
13
29.244839
23
6.598076
33
6.055986
0
3DFACE
8
Pharenette2
62
4.000000
10
30.734285
20
25.680000
30
6.055986
11
30.734285
21
25.680000
31
6.055986
12
30.237804
22
28.278076
32
6.055986
13
30.237804
23
26.979040
33
3.805986
0
3DFACE
8
Pharenette2
62
4.000000
10
30.237804
20
26.979040
30
3.805986
11
30.237804
21
28.278076
31
6.055986
12
29.244839
22
28.278076
32
6.055986
13
29.244839
23
26.979040
33
3.805986
0
3DFACE
8
Pharenette2
62
4.000000
10
30.734285
20
25.680000
30
6.055986
11
30.734285
21
25.680000
31
6.055986
12
30.237804
22
26.979040
32
3.805986
13
30.237804
23
24.380962
33
3.805986
0
3DFACE
8
Pharenette2
62
4.000000
10
30.237804
20
24.380962
30
3.805986
11
30.237804
21
26.979040
31
3.805986
12
29.244839
22
26.979040
32
3.805986
13
29.244839
23
24.380962
33
3.805986
0
3DFACE
8
Pharenette2
62
4.000000
10
30.734285
20
25.680000
30
6.055986
11
30.734285
21
25.680000
31
6.055986
12
30.237804
22
24.380962
32
3.805986
13
30.237804
23
23.081924
33
6.055986
0
3DFACE
8
Pharenette2
62
4.000000
10
30.237804
20
23.081924
30
6.055986
11
30.237804
21
24.380962
31
3.805986
12
29.244839
22
24.380962
32
3.805986
13
29.244839
23
23.081924
33
6.055986
0
3DFACE
8
Pharenette2
62
4.000000
10
30.734285
20
25.680000
30
6.055986
11
30.734285
21
25.680000
31
6.055986
12
30.237804
22
23.081924
32
6.055986
13
30.237804
23
24.380962
33
8.305986
0
3DFACE
8
Pharenette2
62
4.000000
10
30.237804
20
24.380962
30
8.305986
11
30.237804
21
23.081924
31
6.055986
12
29.244839
22
23.081924
32
6.055986
13
29.244839
23
24.380962
33
8.305987
0
3DFACE
8
Pharenette2
62
4.000000
10
30.734285
20
25.680000
30
6.055986
11
30.734285
21
25.680000
31
6.055986
12
30.237804
22
24.380962
32
8.305986
13
30.237804
23
26.979040
33
8.305986
0
3DFACE
8
Pharenette2
62
4.000000
10
30.237804
20
26.979040
30
8.305986
11
30.237804
21
24.380962
31
8.305986
12
29.244839
22
24.380962
32
8.305987
13
29.244839
23
26.979040
33
8.305987
0
3DFACE
8
Pharenette2
62
4.000000
10
30.734285
20
25.680000
30
6.055986
11
30.734285
21
25.680000
31
6.055986
12
30.237804
22
26.979040
32
8.305986
13
30.237804
23
28.278076
33
6.055986
0
3DFACE
8
Pharenette2
62
4.000000
10
30.237804
20
28.278076
30
6.055986
11
30.237804
21
26.979040
31
8.305986
12
29.244839
22
26.979040
32
8.305987
13
29.244839
23
28.278076
33
6.055986
0
ENDSEC
0
EOF
