0
SECTION
2
ENTITIES
0
3DFACE
8
HB1
62
1.000000
10
9.447763
20
-17.539999
30
5.123735
11
9.447763
21
-17.539999
31
5.123735
12
-3.052237
22
-17.539999
32
2.523735
13
9.447763
23
-14.939999
33
2.523735
0
3DFACE
8
HB1
62
1.000000
10
9.447763
20
-14.939999
30
2.523735
11
-3.052237
21
-17.539999
31
2.523735
12
9.447763
22
-17.539999
32
-0.076265
13
9.447763
23
-17.539999
33
-0.076265
0
3DFACE
8
HB1
62
1.000000
10
9.447763
20
-17.539999
30
5.123735
11
9.447763
21
-17.539999
31
5.123735
12
9.447763
22
-14.939999
32
2.523735
13
12.947763
23
-17.539999
33
2.523735
0
3DFACE
8
HB1
62
1.000000
10
12.947763
20
-17.539999
30
2.523735
11
9.447763
21
-14.939999
31
2.523735
12
9.447763
22
-17.539999
32
-0.076265
13
9.447763
23
-17.539999
33
-0.076265
0
3DFACE
8
HB1
62
1.000000
10
9.447763
20
-17.539999
30
5.123735
11
9.447763
21
-17.539999
31
5.123735
12
12.947763
22
-17.539999
32
2.523735
13
9.447763
23
-20.139999
33
2.523735
0
3DFACE
8
HB1
62
1.000000
10
9.447763
20
-20.139999
30
2.523735
11
12.947763
21
-17.539999
31
2.523735
12
9.447763
22
-17.539999
32
-0.076265
13
9.447763
23
-17.539999
33
-0.076265
0
3DFACE
8
HB1
62
1.000000
10
9.447763
20
-17.539999
30
5.123735
11
9.447763
21
-17.539999
31
5.123735
12
9.447763
22
-20.139999
32
2.523735
13
-3.052237
23
-17.539999
33
2.523735
0
3DFACE
8
HB1
62
1.000000
10
-3.052237
20
-17.539999
30
2.523735
11
9.447763
21
-20.139999
31
2.523735
12
9.447763
22
-17.539999
32
-0.076265
13
9.447763
23
-17.539999
33
-0.076265
0
3DFACE
8
HB2
62
2.000000
10
9.447763
20
-12.440000
30
5.123735
11
9.447763
21
-12.440000
31
5.123735
12
-3.052237
22
-12.440000
32
2.523735
13
9.447763
23
-9.839999
33
2.523735
0
3DFACE
8
HB2
62
2.000000
10
9.447763
20
-9.839999
30
2.523735
11
-3.052237
21
-12.440000
31
2.523735
12
9.447763
22
-12.440000
32
-0.076265
13
9.447763
23
-12.440000
33
-0.076265
0
3DFACE
8
HB2
62
2.000000
10
9.447763
20
-12.440000
30
5.123735
11
9.447763
21
-12.440000
31
5.123735
12
9.447763
22
-9.839999
32
2.523735
13
12.947763
23
-12.440000
33
2.523735
0
3DFACE
8
HB2
62
2.000000
10
12.947763
20
-12.440000
30
2.523735
11
9.447763
21
-9.839999
31
2.523735
12
9.447763
22
-12.440000
32
-0.076265
13
9.447763
23
-12.440000
33
-0.076265
0
3DFACE
8
HB2
62
2.000000
10
9.447763
20
-12.440000
30
5.123735
11
9.447763
21
-12.440000
31
5.123735
12
12.947763
22
-12.440000
32
2.523735
13
9.447763
23
-15.040000
33
2.523735
0
3DFACE
8
HB2
62
2.000000
10
9.447763
20
-15.040000
30
2.523735
11
12.947763
21
-12.440000
31
2.523735
12
9.447763
22
-12.440000
32
-0.076265
13
9.447763
23
-12.440000
33
-0.076265
0
3DFACE
8
HB2
62
2.000000
10
9.447763
20
-12.440000
30
5.123735
11
9.447763
21
-12.440000
31
5.123735
12
9.447763
22
-15.040000
32
2.523735
13
-3.052237
23
-12.440000
33
2.523735
0
3DFACE
8
HB2
62
2.000000
10
-3.052237
20
-12.440000
30
2.523735
11
9.447763
21
-15.040000
31
2.523735
12
9.447763
22
-12.440000
32
-0.076265
13
9.447763
23
-12.440000
33
-0.076265
0
3DFACE
8
HB3
62
3.000000
10
9.447763
20
11.060000
30
5.123735
11
9.447763
21
11.060000
31
5.123735
12
-3.052237
22
11.060000
32
2.523735
13
9.447763
23
13.660001
33
2.523735
0
3DFACE
8
HB3
62
3.000000
10
9.447763
20
13.660001
30
2.523735
11
-3.052237
21
11.060000
31
2.523735
12
9.447763
22
11.060000
32
-0.076265
13
9.447763
23
11.060000
33
-0.076265
0
3DFACE
8
HB3
62
3.000000
10
9.447763
20
11.060000
30
5.123735
11
9.447763
21
11.060000
31
5.123735
12
9.447763
22
13.660001
32
2.523735
13
12.947763
23
11.060000
33
2.523735
0
3DFACE
8
HB3
62
3.000000
10
12.947763
20
11.060000
30
2.523735
11
9.447763
21
13.660001
31
2.523735
12
9.447763
22
11.060000
32
-0.076265
13
9.447763
23
11.060000
33
-0.076265
0
3DFACE
8
HB3
62
3.000000
10
9.447763
20
11.060000
30
5.123735
11
9.447763
21
11.060000
31
5.123735
12
12.947763
22
11.060000
32
2.523735
13
9.447763
23
8.460000
33
2.523735
0
3DFACE
8
HB3
62
3.000000
10
9.447763
20
8.460000
30
2.523735
11
12.947763
21
11.060000
31
2.523735
12
9.447763
22
11.060000
32
-0.076265
13
9.447763
23
11.060000
33
-0.076265
0
3DFACE
8
HB3
62
3.000000
10
9.447763
20
11.060000
30
5.123735
11
9.447763
21
11.060000
31
5.123735
12
9.447763
22
8.460000
32
2.523735
13
-3.052237
23
11.060000
33
2.523735
0
3DFACE
8
HB3
62
3.000000
10
-3.052237
20
11.060000
30
2.523735
11
9.447763
21
8.460000
31
2.523735
12
9.447763
22
11.060000
32
-0.076265
13
9.447763
23
11.060000
33
-0.076265
0
3DFACE
8
HB4
62
4.000000
10
9.447763
20
16.660000
30
5.123735
11
9.447763
21
16.660000
31
5.123735
12
-3.052237
22
16.660000
32
2.523735
13
9.447763
23
19.260000
33
2.523735
0
3DFACE
8
HB4
62
4.000000
10
9.447763
20
19.260000
30
2.523735
11
-3.052237
21
16.660000
31
2.523735
12
9.447763
22
16.660000
32
-0.076265
13
9.447763
23
16.660000
33
-0.076265
0
3DFACE
8
HB4
62
4.000000
10
9.447763
20
16.660000
30
5.123735
11
9.447763
21
16.660000
31
5.123735
12
9.447763
22
19.260000
32
2.523735
13
12.947763
23
16.660000
33
2.523735
0
3DFACE
8
HB4
62
4.000000
10
12.947763
20
16.660000
30
2.523735
11
9.447763
21
19.260000
31
2.523735
12
9.447763
22
16.660000
32
-0.076265
13
9.447763
23
16.660000
33
-0.076265
0
3DFACE
8
HB4
62
4.000000
10
9.447763
20
16.660000
30
5.123735
11
9.447763
21
16.660000
31
5.123735
12
12.947763
22
16.660000
32
2.523735
13
9.447763
23
14.060000
33
2.523735
0
3DFACE
8
HB4
62
4.000000
10
9.447763
20
14.060000
30
2.523735
11
12.947763
21
16.660000
31
2.523735
12
9.447763
22
16.660000
32
-0.076265
13
9.447763
23
16.660000
33
-0.076265
0
3DFACE
8
HB4
62
4.000000
10
9.447763
20
16.660000
30
5.123735
11
9.447763
21
16.660000
31
5.123735
12
9.447763
22
14.060000
32
2.523735
13
-3.052237
23
16.660000
33
2.523735
0
3DFACE
8
HB4
62
4.000000
10
-3.052237
20
16.660000
30
2.523735
11
9.447763
21
14.060000
31
2.523735
12
9.447763
22
16.660000
32
-0.076265
13
9.447763
23
16.660000
33
-0.076265
0
3DFACE
8
PaleG2
62
5.000000
10
23.599184
20
-41.484798
30
9.133378
11
23.466755
21
-42.150555
31
14.412579
12
23.422195
22
-42.374569
32
18.522177
13
23.422195
23
-42.374569
33
18.522177
0
3DFACE
8
PaleG2
62
5.000000
10
23.599184
20
-41.484798
30
9.133378
11
23.422195
21
-42.374569
31
18.522177
12
23.465506
22
-42.156834
32
21.462179
13
23.465506
23
-42.156834
33
21.462179
0
3DFACE
8
PaleG2
62
5.000000
10
23.599184
20
-41.484798
30
9.133378
11
23.465506
21
-42.156834
31
21.462179
12
24.153471
22
-38.698196
32
21.487780
13
24.153471
23
-38.698196
33
21.487780
0
3DFACE
8
PaleG2
62
5.000000
10
23.599184
20
-41.484798
30
9.133378
11
24.153471
21
-38.698196
31
21.487780
12
24.181173
22
-38.558922
32
18.531778
13
24.181173
23
-38.558922
33
18.531778
0
3DFACE
8
PaleG2
62
5.000000
10
23.599184
20
-41.484798
30
9.133378
11
24.181173
21
-38.558922
31
18.531778
12
24.114765
22
-38.892780
32
14.386978
13
24.114765
23
-38.892780
33
14.386978
0
3DFACE
8
PaleG2
62
5.000000
10
23.599184
20
-41.484798
30
9.133378
11
24.114765
21
-38.892780
31
14.386978
12
23.954245
22
-39.699772
32
9.053379
13
23.954245
23
-39.699772
33
9.053379
0
3DFACE
8
PaleG2
62
5.000000
10
23.465506
20
-42.156834
30
21.462179
11
23.596684
21
-41.497353
31
23.232578
12
24.031654
22
-39.310593
32
23.254978
13
24.153471
23
-38.698196
33
21.487780
0
3DFACE
8
PaleG2
62
5.000000
10
23.596684
20
-41.497353
30
23.232578
11
23.815733
21
-40.396126
31
23.833378
12
24.031654
22
-39.310593
32
23.254978
13
24.031654
23
-39.310593
33
23.254978
0
3DFACE
8
MoyeuG
62
6.000000
10
25.681684
20
-41.991951
30
9.540586
11
25.681684
21
-41.991951
31
6.340588
12
22.481686
22
-41.991951
32
6.340588
13
22.481686
23
-41.991951
33
9.540586
0
3DFACE
8
MoyeuG
62
6.000000
10
22.481686
20
-41.991951
30
9.540586
11
22.481686
21
-41.991951
31
6.340588
12
22.481686
22
-38.791954
32
6.340588
13
22.481686
23
-38.791954
33
9.540586
0
3DFACE
8
MoyeuG
62
6.000000
10
22.481686
20
-38.791954
30
9.540586
11
22.481686
21
-38.791954
31
6.340588
12
25.681684
22
-38.791954
32
6.340588
13
25.681684
23
-38.791954
33
9.540586
0
3DFACE
8
MoyeuG
62
6.000000
10
25.681684
20
-38.791954
30
9.540586
11
25.681684
21
-38.791954
31
6.340588
12
25.681684
22
-41.991951
32
6.340588
13
25.681684
23
-41.991951
33
9.540586
0
3DFACE
8
MoyeuG
62
6.000000
10
25.681684
20
-41.991951
30
9.540586
11
22.481686
21
-41.991951
31
9.540586
12
22.481686
22
-38.791954
32
9.540586
13
25.681684
23
-38.791954
33
9.540586
0
3DFACE
8
MoyeuG
62
6.000000
10
25.681684
20
-38.791954
30
6.340588
11
22.481686
21
-38.791954
31
6.340588
12
22.481686
22
-41.991951
32
6.340588
13
25.681684
23
-41.991951
33
6.340588
0
3DFACE
8
PaleG3
62
7.000000
10
23.599184
20
-40.803101
30
6.418119
11
23.466755
21
-44.822720
31
2.931595
12
23.422195
22
-48.115273
32
0.462160
13
23.422195
23
-48.115273
33
0.462160
0
3DFACE
8
PaleG3
62
7.000000
10
23.599184
20
-40.803101
30
6.418119
11
23.422195
21
-48.115273
31
0.462160
12
23.465506
22
-50.680759
32
-0.990173
13
23.465506
23
-50.680759
33
-0.990173
0
3DFACE
8
PaleG3
62
7.000000
10
23.599184
20
-40.803101
30
6.418119
11
23.465506
21
-50.680759
31
-0.990173
12
24.153471
22
-52.623562
32
1.871356
13
24.153471
23
-52.623562
33
1.871356
0
3DFACE
8
PaleG3
62
7.000000
10
23.599184
20
-40.803101
30
6.418119
11
24.153471
21
-52.623562
31
1.871356
12
24.181173
22
-50.243111
32
3.629421
13
24.181173
23
-50.243111
33
3.629421
0
3DFACE
8
PaleG3
62
7.000000
10
23.599184
20
-40.803101
30
6.418119
11
24.181173
21
-50.243111
31
3.629421
12
24.114765
22
-46.611355
32
5.654558
13
24.114765
23
-46.611355
33
5.654558
0
3DFACE
8
PaleG3
62
7.000000
10
23.599184
20
-40.803101
30
6.418119
11
24.114765
21
-46.611355
31
5.654558
12
23.954245
22
-41.728294
32
7.946760
13
23.954245
23
-41.728294
33
7.946760
0
3DFACE
8
PaleG3
62
7.000000
10
23.465506
20
-50.680759
30
-0.990173
11
23.596684
21
-52.519180
31
-1.425418
12
24.031654
22
-53.752708
32
0.380363
13
24.153471
23
-52.623562
33
1.871356
0
3DFACE
8
PaleG3
62
7.000000
10
23.596684
20
-52.519180
30
-1.425418
11
23.815733
21
-53.630535
31
-0.843571
12
24.031654
22
-53.752708
32
0.380363
13
24.031654
23
-53.752708
33
0.380363
0
3DFACE
8
PaleG1
62
8.000000
10
23.599184
20
-38.979191
30
7.991074
11
23.466755
21
-34.219818
31
5.611665
12
23.422195
22
-30.678354
32
3.514759
13
23.422195
23
-30.678354
33
3.514759
0
3DFACE
8
PaleG1
62
8.000000
10
23.599184
20
-38.979191
30
7.991074
11
23.422195
21
-30.678354
31
3.514759
12
23.465506
22
-28.354803
32
1.700339
13
23.465506
23
-28.354803
33
1.700339
0
3DFACE
8
PaleG1
62
8.000000
10
23.599184
20
-38.979191
30
7.991074
11
23.465506
21
-28.354803
31
1.700339
12
24.153471
22
-30.255032
32
-1.189635
13
24.153471
23
-30.255032
33
-1.189635
0
3DFACE
8
PaleG1
62
8.000000
10
23.599184
20
-38.979191
30
7.991074
11
24.153471
21
-30.255032
31
-1.189635
12
24.181173
22
-32.790230
32
0.336829
13
24.181173
23
-32.790230
33
0.336829
0
3DFACE
8
PaleG1
62
8.000000
10
23.599184
20
-38.979191
30
7.991074
11
24.181173
21
-32.790230
31
0.336829
12
24.114765
22
-36.051025
32
2.917149
13
24.114765
23
-36.051025
33
2.917149
0
3DFACE
8
PaleG1
62
8.000000
10
23.599184
20
-38.979191
30
7.991074
11
24.114765
21
-36.051025
31
2.917149
12
23.954245
22
-40.037415
32
6.551325
13
23.954245
23
-40.037415
33
6.551325
0
3DFACE
8
PaleG1
62
8.000000
10
23.465506
20
-28.354803
30
1.700339
11
23.596684
21
-27.249157
31
0.168421
12
24.031654
22
-28.445429
32
-1.662248
13
24.153471
23
-30.255032
33
-1.189635
0
3DFACE
8
PaleG1
62
8.000000
10
23.596684
20
-27.249157
30
0.168421
11
23.815733
21
-27.361416
31
-1.081001
12
24.031654
22
-28.445429
32
-1.662248
13
24.031654
23
-28.445429
33
-1.662248
0
3DFACE
8
MoteurG
62
9.000000
10
20.781685
20
-46.814938
30
3.273952
11
-14.218315
21
-43.887177
31
8.127850
12
-14.218315
22
-44.700062
32
8.305231
13
20.781685
23
-46.488590
33
11.580082
0
3DFACE
8
MoteurG
62
9.000000
10
20.781685
20
-46.488590
30
11.580082
11
-14.218315
21
-44.700062
31
8.305231
12
-14.218315
22
-40.051624
32
7.387812
13
20.781685
23
-38.488140
33
13.836440
0
3DFACE
8
MoteurG
62
9.000000
10
20.781685
20
-38.488140
30
13.836440
11
-14.218315
21
-40.051624
31
7.387812
12
-14.218315
22
-36.365845
32
6.643432
13
20.781685
23
-33.869946
33
6.924815
0
3DFACE
8
MoteurG
62
9.000000
10
20.781685
20
-33.869946
30
6.924815
11
-14.218315
21
-36.365845
31
6.643432
12
-14.218315
22
-38.736351
32
7.100802
13
20.781685
23
-39.016190
33
0.396839
0
3DFACE
8
MoteurG
62
9.000000
10
20.781685
20
-39.016190
30
0.396839
11
-14.218315
21
-38.736351
31
7.100802
12
-14.218315
22
-43.887177
32
8.127850
13
20.781685
23
-46.814938
33
3.273952
0
3DFACE
8
MoteurG
62
9.000000
10
20.781685
20
-46.814938
30
3.273952
11
20.781685
21
-46.488590
31
11.580082
12
20.781685
22
-38.488140
32
13.836440
13
20.781685
23
-38.488140
33
13.836440
0
3DFACE
8
MoteurG
62
9.000000
10
20.781685
20
-46.814938
30
3.273952
11
20.781685
21
-38.488140
31
13.836440
12
20.781685
22
-33.869946
32
6.924815
13
20.781685
23
-33.869946
33
6.924815
0
3DFACE
8
MoteurG
62
9.000000
10
20.781685
20
-46.814938
30
3.273952
11
20.781685
21
-33.869946
31
6.924815
12
20.781685
22
-39.016190
32
0.396839
13
20.781685
23
-39.016190
33
0.396839
0
3DFACE
8
RoueG
62
10.000000
10
-8.818732
20
-27.560001
30
-5.960435
11
-8.177577
21
-27.560001
31
-1.249924
12
-3.777578
22
-27.560001
32
0.550077
13
-3.777578
23
-27.560001
33
0.550077
0
3DFACE
8
RoueG
62
10.000000
10
-8.818732
20
-27.560001
30
-5.960435
11
-3.777578
21
-27.560001
31
0.550077
12
-0.018732
22
-27.560001
32
-2.360435
13
-0.018732
23
-27.560001
33
-2.360435
0
3DFACE
8
RoueG
62
10.000000
10
-8.818732
20
-27.560001
30
-5.960435
11
-0.018732
21
-27.560001
31
-2.360435
12
-0.659886
22
-27.560001
32
-7.070947
13
-0.659886
23
-27.560001
33
-7.070947
0
3DFACE
8
RoueG
62
10.000000
10
-8.818732
20
-27.560001
30
-5.960435
11
-0.659886
21
-27.560001
31
-7.070947
12
-5.059886
22
-27.560001
32
-8.870948
13
-5.059886
23
-27.560001
33
-8.870948
0
3DFACE
8
EssieuG
62
11.000000
10
-5.564897
20
-28.918936
30
-0.445419
11
-1.884447
21
-28.918936
31
-4.432571
12
-5.559594
22
-28.918936
32
-6.449727
13
-5.559594
23
-28.918936
33
-6.449727
0
3DFACE
8
EssieuG
62
11.000000
10
-5.564897
20
-28.918936
30
-0.445419
11
-5.559594
21
-28.918936
31
-6.449727
12
-9.862143
22
-28.918936
32
-4.044655
13
-9.862143
23
-28.918936
33
-4.044655
0
3DFACE
8
EssieuG
62
11.000000
10
-5.564897
20
-28.918936
30
-0.445419
11
-9.862143
21
-28.918936
31
-4.044655
12
-10.431267
22
-28.918936
32
6.036260
13
-10.431267
23
-28.918936
33
6.036260
0
3DFACE
8
EssieuG
62
11.000000
10
-5.564897
20
-28.918936
30
-0.445419
11
-10.431267
21
-28.918936
31
6.036260
12
-6.873500
22
-28.918936
32
5.974919
13
-6.873500
23
-28.918936
33
5.974919
0
3DFACE
8
CharniereG_0
62
12.000000
10
-11.105405
20
-28.074333
30
5.889799
11
-10.892903
21
-28.074333
31
5.912487
12
-10.979506
22
-28.074333
32
5.717111
13
-10.979506
23
-28.074333
33
5.717111
0
3DFACE
8
AileG4
62
13.000000
10
14.056147
20
-47.980431
30
8.467817
11
11.056147
21
-66.980431
31
8.467817
12
-5.943853
22
-67.980431
32
8.467817
13
-13.943853
23
-44.980431
33
8.467817
0
3DFACE
8
AileG1
62
14.000000
10
20.167746
20
-7.260001
30
6.800000
11
14.167747
21
-33.260002
31
6.800000
12
-13.832253
22
-36.259998
32
6.800000
13
-13.832253
23
-36.259998
33
6.800000
0
3DFACE
8
AileG1
62
14.000000
10
20.167746
20
-7.260001
30
6.800000
11
-13.832253
21
-36.259998
31
6.800000
12
-14.832253
22
-20.260000
32
6.800000
13
-14.832253
23
-20.260000
33
6.800000
0
3DFACE
8
AileG1
62
14.000000
10
20.167746
20
-7.260001
30
6.800000
11
-14.832253
21
-20.260000
31
6.800000
12
-24.832254
22
-6.260001
32
6.800000
13
-24.832254
23
-6.260001
33
6.800000
0
3DFACE
8
GouvG
62
15.000000
10
-40.875706
20
-23.479145
30
10.112987
11
-61.920311
21
-23.479145
31
10.112986
12
-60.041328
22
-19.203999
32
25.341555
13
-42.378895
23
-19.203999
33
25.341555
0
3DFACE
8
GouvG
62
15.000000
10
-40.875706
20
-23.479145
30
10.112987
11
-42.003101
21
-22.143158
31
3.541557
12
-60.041328
22
-22.143158
32
3.541557
13
-61.920311
23
-23.479145
33
10.112986
0
3DFACE
8
PaleD1
62
16.000000
10
23.954245
20
38.679771
30
9.053379
11
24.114765
21
37.872780
31
14.386978
12
24.181173
22
37.538921
32
18.531778
13
24.181173
23
37.538921
33
18.531778
0
3DFACE
8
PaleD1
62
16.000000
10
23.954245
20
38.679771
30
9.053379
11
24.181173
21
37.538921
31
18.531778
12
24.153471
22
37.678196
32
21.487780
13
24.153471
23
37.678196
33
21.487780
0
3DFACE
8
PaleD1
62
16.000000
10
23.954245
20
38.679771
30
9.053379
11
24.153471
21
37.678196
31
21.487780
12
23.465506
22
41.136833
32
21.462179
13
23.465506
23
41.136833
33
21.462179
0
3DFACE
8
PaleD1
62
16.000000
10
23.954245
20
38.679771
30
9.053379
11
23.465506
21
41.136833
31
21.462179
12
23.422195
22
41.354568
32
18.522177
13
23.422195
23
41.354568
33
18.522177
0
3DFACE
8
PaleD1
62
16.000000
10
23.954245
20
38.679771
30
9.053379
11
23.422195
21
41.354568
31
18.522177
12
23.466755
22
41.130554
32
14.412579
13
23.466755
23
41.130554
33
14.412579
0
3DFACE
8
PaleD1
62
16.000000
10
23.954245
20
38.679771
30
9.053379
11
23.466755
21
41.130554
31
14.412579
12
23.599184
22
40.464798
32
9.133378
13
23.599184
23
40.464798
33
9.133378
0
3DFACE
8
PaleD1
62
16.000000
10
24.153471
20
37.678196
30
21.487780
11
24.031654
21
38.290592
31
23.254978
12
23.596684
22
40.477352
32
23.232578
13
23.465506
23
41.136833
33
21.462179
0
3DFACE
8
PaleD1
62
16.000000
10
24.031654
20
38.290592
30
23.254978
11
23.815733
21
39.376129
31
23.833378
12
23.596684
22
40.477352
32
23.232578
13
23.596684
23
40.477352
33
23.232578
0
3DFACE
8
MoyeuD
62
17.000000
10
22.481686
20
40.971954
30
9.540586
11
22.481686
21
40.971954
31
6.340588
12
25.681684
22
40.971954
32
6.340588
13
25.681684
23
40.971954
33
9.540586
0
3DFACE
8
MoyeuD
62
17.000000
10
22.481686
20
37.771954
30
9.540586
11
22.481686
21
37.771954
31
6.340588
12
22.481686
22
40.971954
32
6.340588
13
22.481686
23
40.971954
33
9.540586
0
3DFACE
8
MoyeuD
62
17.000000
10
25.681684
20
37.771954
30
9.540586
11
25.681684
21
37.771954
31
6.340588
12
22.481686
22
37.771954
32
6.340588
13
22.481686
23
37.771954
33
9.540586
0
3DFACE
8
MoyeuD
62
17.000000
10
25.681684
20
40.971954
30
9.540586
11
25.681684
21
40.971954
31
6.340588
12
25.681684
22
37.771954
32
6.340588
13
25.681684
23
37.771954
33
9.540586
0
3DFACE
8
MoyeuD
62
17.000000
10
25.681684
20
37.771954
30
9.540586
11
22.481686
21
37.771954
31
9.540586
12
22.481686
22
40.971954
32
9.540586
13
25.681684
23
40.971954
33
9.540586
0
3DFACE
8
MoyeuD
62
17.000000
10
25.681684
20
40.971954
30
6.340588
11
22.481686
21
40.971954
31
6.340588
12
22.481686
22
37.771954
32
6.340588
13
25.681684
23
37.771954
33
6.340588
0
3DFACE
8
PaleD2
62
18.000000
10
23.954245
20
40.708294
30
7.946760
11
24.114765
21
45.591358
31
5.654558
12
24.181173
22
49.223110
32
3.629421
13
24.181173
23
49.223110
33
3.629421
0
3DFACE
8
PaleD2
62
18.000000
10
23.954245
20
40.708294
30
7.946760
11
24.181173
21
49.223110
31
3.629421
12
24.153471
22
51.603565
32
1.871356
13
24.153471
23
51.603565
33
1.871356
0
3DFACE
8
PaleD2
62
18.000000
10
23.954245
20
40.708294
30
7.946760
11
24.153471
21
51.603565
31
1.871356
12
23.465506
22
49.660759
32
-0.990173
13
23.465506
23
49.660759
33
-0.990173
0
3DFACE
8
PaleD2
62
18.000000
10
23.954245
20
40.708294
30
7.946760
11
23.465506
21
49.660759
31
-0.990173
12
23.422195
22
47.095272
32
0.462160
13
23.422195
23
47.095272
33
0.462160
0
3DFACE
8
PaleD2
62
18.000000
10
23.954245
20
40.708294
30
7.946760
11
23.422195
21
47.095272
31
0.462160
12
23.466755
22
43.802723
32
2.931595
13
23.466755
23
43.802723
33
2.931595
0
3DFACE
8
PaleD2
62
18.000000
10
23.954245
20
40.708294
30
7.946760
11
23.466755
21
43.802723
31
2.931595
12
23.599184
22
39.783104
32
6.418119
13
23.599184
23
39.783104
33
6.418119
0
3DFACE
8
PaleD2
62
18.000000
10
24.153471
20
51.603565
30
1.871356
11
24.031654
21
52.732708
31
0.380363
12
23.596684
22
51.499184
32
-1.425418
13
23.465506
23
49.660759
33
-0.990173
0
3DFACE
8
PaleD2
62
18.000000
10
24.031654
20
52.732708
30
0.380363
11
23.815733
21
52.610538
31
-0.843571
12
23.596684
22
51.499184
32
-1.425418
13
23.596684
23
51.499184
33
-1.425418
0
3DFACE
8
PaleD3
62
19.000000
10
23.954245
20
39.017414
30
6.551325
11
24.114765
21
35.031025
31
2.917149
12
24.181173
22
31.770231
32
0.336829
13
24.181173
23
31.770231
33
0.336829
0
3DFACE
8
PaleD3
62
19.000000
10
23.954245
20
39.017414
30
6.551325
11
24.181173
21
31.770231
31
0.336829
12
24.153471
22
29.235031
32
-1.189635
13
24.153471
23
29.235031
33
-1.189635
0
3DFACE
8
PaleD3
62
19.000000
10
23.954245
20
39.017414
30
6.551325
11
24.153471
21
29.235031
31
-1.189635
12
23.465506
22
27.334803
32
1.700339
13
23.465506
23
27.334803
33
1.700339
0
3DFACE
8
PaleD3
62
19.000000
10
23.954245
20
39.017414
30
6.551325
11
23.465506
21
27.334803
31
1.700339
12
23.422195
22
29.658354
32
3.514759
13
23.422195
23
29.658354
33
3.514759
0
3DFACE
8
PaleD3
62
19.000000
10
23.954245
20
39.017414
30
6.551325
11
23.422195
21
29.658354
31
3.514759
12
23.466755
22
33.199818
32
5.611665
13
23.466755
23
33.199818
33
5.611665
0
3DFACE
8
PaleD3
62
19.000000
10
23.954245
20
39.017414
30
6.551325
11
23.466755
21
33.199818
31
5.611665
12
23.599184
22
37.959190
32
7.991074
13
23.599184
23
37.959190
33
7.991074
0
3DFACE
8
PaleD3
62
19.000000
10
24.153471
20
29.235031
30
-1.189635
11
24.031654
21
27.425428
31
-1.662248
12
23.596684
22
26.229156
32
0.168421
13
23.465506
23
27.334803
33
1.700339
0
3DFACE
8
PaleD3
62
19.000000
10
24.031654
20
27.425428
30
-1.662248
11
23.815733
21
26.341415
31
-1.081001
12
23.596684
22
26.229156
32
0.168421
13
23.596684
23
26.229156
33
0.168421
0
3DFACE
8
MoteurD
62
20.000000
10
20.781685
20
45.468590
30
11.580082
11
-14.218315
21
43.680061
31
8.305231
12
-14.218315
22
42.867180
32
8.127850
13
20.781685
23
45.794937
33
3.273952
0
3DFACE
8
MoteurD
62
20.000000
10
20.781685
20
37.468140
30
13.836440
11
-14.218315
21
39.031624
31
7.387812
12
-14.218315
22
43.680061
32
8.305231
13
20.781685
23
45.468590
33
11.580082
0
3DFACE
8
MoteurD
62
20.000000
10
20.781685
20
32.849945
30
6.924815
11
-14.218315
21
35.345848
31
6.643432
12
-14.218315
22
39.031624
32
7.387812
13
20.781685
23
37.468140
33
13.836440
0
3DFACE
8
MoteurD
62
20.000000
10
20.781685
20
37.996189
30
0.396839
11
-14.218315
21
37.716354
31
7.100802
12
-14.218315
22
35.345848
32
6.643432
13
20.781685
23
32.849945
33
6.924815
0
3DFACE
8
MoteurD
62
20.000000
10
20.781685
20
45.794937
30
3.273952
11
-14.218315
21
42.867180
31
8.127850
12
-14.218315
22
37.716354
32
7.100802
13
20.781685
23
37.996189
33
0.396839
0
3DFACE
8
MoteurD
62
20.000000
10
20.781685
20
37.996189
30
0.396839
11
20.781685
21
32.849945
31
6.924815
12
20.781685
22
37.468140
32
13.836440
13
20.781685
23
37.468140
33
13.836440
0
3DFACE
8
MoteurD
62
20.000000
10
20.781685
20
37.996189
30
0.396839
11
20.781685
21
37.468140
31
13.836440
12
20.781685
22
45.468590
32
11.580082
13
20.781685
23
45.468590
33
11.580082
0
3DFACE
8
MoteurD
62
20.000000
10
20.781685
20
37.996189
30
0.396839
11
20.781685
21
45.468590
31
11.580082
12
20.781685
22
45.794937
32
3.273952
13
20.781685
23
45.794937
33
3.273952
0
3DFACE
8
RoueD
62
21.000000
10
-5.059886
20
26.540003
30
-8.870948
11
-0.659886
21
26.540003
31
-7.070947
12
-0.018732
22
26.540003
32
-2.360435
13
-0.018732
23
26.540003
33
-2.360435
0
3DFACE
8
RoueD
62
21.000000
10
-5.059886
20
26.540003
30
-8.870948
11
-0.018732
21
26.540003
31
-2.360435
12
-3.777578
22
26.540003
32
0.550077
13
-3.777578
23
26.540003
33
0.550077
0
3DFACE
8
RoueD
62
21.000000
10
-5.059886
20
26.540003
30
-8.870948
11
-3.777578
21
26.540003
31
0.550077
12
-8.177577
22
26.540003
32
-1.249924
13
-8.177577
23
26.540003
33
-1.249924
0
3DFACE
8
RoueD
62
21.000000
10
-5.059886
20
26.540003
30
-8.870948
11
-8.177577
21
26.540003
31
-1.249924
12
-8.818732
22
26.540003
32
-5.960435
13
-8.818732
23
26.540003
33
-5.960435
0
3DFACE
8
EssieuD
62
22.000000
10
-10.431267
20
27.898937
30
6.036260
11
-9.862143
21
27.898937
31
-4.044655
12
-5.559594
22
27.898937
32
-6.449727
13
-5.559594
23
27.898937
33
-6.449727
0
3DFACE
8
EssieuD
62
22.000000
10
-5.559594
20
27.898937
30
-6.449727
11
-1.884447
21
27.898937
31
-4.432571
12
-5.564897
22
27.898937
32
-0.445419
13
-5.564897
23
27.898937
33
-0.445419
0
3DFACE
8
EssieuD
62
22.000000
10
-5.559594
20
27.898937
30
-6.449727
11
-5.564897
21
27.898937
31
-0.445419
12
-6.873500
22
27.898937
32
5.974919
13
-6.873500
23
27.898937
33
5.974919
0
3DFACE
8
EssieuD
62
22.000000
10
-5.559594
20
27.898937
30
-6.449727
11
-6.873500
21
27.898937
31
5.974919
12
-10.431267
22
27.898937
32
6.036260
13
-10.431267
23
27.898937
33
6.036260
0
3DFACE
8
CharniereG_1
62
23.000000
10
-10.979506
20
27.054333
30
5.717111
11
-10.892903
21
27.054333
31
5.912487
12
-11.105405
22
27.054333
32
5.889799
13
-11.105405
23
27.054333
33
5.889799
0
3DFACE
8
AileD4
62
24.000000
10
-13.943853
20
43.960430
30
8.467817
11
-5.943853
21
66.960434
31
8.467817
12
11.056147
22
65.960434
32
8.467817
13
14.056147
23
46.960430
33
8.467817
0
3DFACE
8
AileD1
62
25.000000
10
-14.832253
20
19.240000
30
6.800000
11
-13.832253
21
35.240002
31
6.800000
12
14.167747
22
32.240002
32
6.800000
13
14.167747
23
32.240002
33
6.800000
0
3DFACE
8
AileD1
62
25.000000
10
-14.832253
20
19.240000
30
6.800000
11
14.167747
21
32.240002
31
6.800000
12
20.167746
22
6.240001
32
6.800000
13
20.167746
23
6.240001
33
6.800000
0
3DFACE
8
AileD1
62
25.000000
10
-14.832253
20
19.240000
30
6.800000
11
20.167746
21
6.240001
31
6.800000
12
-24.832254
22
5.240001
32
6.800000
13
-24.832254
23
5.240001
33
6.800000
0
3DFACE
8
GouvD
62
26.000000
10
-42.378895
20
18.183998
30
25.341555
11
-60.041328
21
18.183998
31
25.341555
12
-61.920311
22
22.459145
32
10.112986
13
-40.875706
23
22.459145
33
10.112987
0
3DFACE
8
GouvD
62
26.000000
10
-61.920311
20
22.459145
30
10.112986
11
-60.041328
21
21.123158
31
3.541557
12
-42.003101
22
21.123158
32
3.541557
13
-40.875706
23
22.459145
33
10.112987
0
3DFACE
8
CharniereA
62
27.000000
10
19.653061
20
0.260000
30
4.139383
11
19.877880
21
0.260000
31
4.026109
12
19.667372
22
0.260000
32
3.888047
13
19.667372
23
0.260000
33
3.888047
0
3DFACE
8
RoueAvant
62
28.000000
10
20.367777
20
-0.440000
30
-9.166151
11
22.977190
21
-0.440000
31
-7.574596
12
22.269886
22
-0.440000
32
-4.601077
13
22.269886
23
-0.440000
33
-4.601077
0
3DFACE
8
RoueAvant
62
28.000000
10
20.367777
20
-0.440000
30
-9.166151
11
22.269886
21
-0.440000
31
-4.601077
12
19.223333
22
-0.440000
32
-4.354895
13
19.223333
23
-0.440000
33
-4.354895
0
3DFACE
8
RoueAvant
62
28.000000
10
20.367777
20
-0.440000
30
-9.166151
11
19.223333
21
-0.440000
31
-4.354895
12
18.047762
22
-0.440000
32
-7.176265
13
18.047762
23
-0.440000
33
-7.176265
0
3DFACE
8
EssieuAvant
62
29.000000
10
20.120378
20
0.606077
30
3.345047
11
19.680571
21
0.260000
31
3.345047
12
19.680571
22
0.260000
32
-5.834953
13
20.120378
23
0.606077
33
-5.834953
0
3DFACE
8
Canon1
62
30.000000
10
32.599998
20
-2.062712
30
11.772321
11
32.599998
21
-1.354388
31
11.300107
12
29.000000
22
-1.181399
32
11.062594
13
29.000000
23
-2.322668
33
11.823440
0
3DFACE
8
Canon4
62
31.000000
10
32.599998
20
1.137288
30
11.772321
11
32.599998
21
1.845612
31
11.300107
12
29.000000
22
2.018600
32
11.062594
13
29.000000
23
0.877332
33
11.823440
0
3DFACE
8
Canon3
62
32.000000
10
32.599998
20
1.137288
30
8.972322
11
32.599998
21
1.845612
31
8.500107
12
29.000000
22
2.018600
32
8.262594
13
29.000000
23
0.877332
33
9.023439
0
3DFACE
8
Canon2
62
33.000000
10
32.599998
20
-1.862712
30
8.972322
11
32.599998
21
-1.154388
31
8.500107
12
29.000000
22
-0.981400
32
8.262594
13
29.000000
23
-2.122668
33
9.023439
0
3DFACE
8
Verriere
62
34.000000
10
13.199997
20
0.000001
30
17.306335
11
4.799998
21
3.411932
31
25.485514
12
4.799998
22
5.909637
32
14.193037
13
4.799998
23
5.909637
33
14.193037
0
3DFACE
8
Verriere
62
34.000000
10
4.799998
20
5.909637
30
14.193037
11
4.799998
21
3.411932
31
25.485514
12
-12.000000
22
2.835942
32
24.546930
13
-12.000000
23
4.911993
33
15.335746
0
3DFACE
8
Verriere
62
34.000000
10
-12.000000
20
4.911993
30
15.335746
11
-12.000000
21
2.835942
31
24.546930
12
-22.619997
22
0.000001
32
17.167498
13
-22.619997
23
0.000001
33
17.167498
0
3DFACE
8
Verriere
62
34.000000
10
13.199997
20
0.000001
30
17.306335
11
4.799998
21
-3.411929
31
25.485514
12
4.799998
22
3.411932
32
25.485514
13
4.799998
23
3.411932
33
25.485514
0
3DFACE
8
Verriere
62
34.000000
10
4.799998
20
3.411932
30
25.485514
11
4.799998
21
-3.411929
31
25.485514
12
-12.000000
22
-2.835939
32
24.546930
13
-12.000000
23
2.835942
33
24.546930
0
3DFACE
8
Verriere
62
34.000000
10
-12.000000
20
2.835942
30
24.546930
11
-12.000000
21
-2.835939
31
24.546930
12
-22.619997
22
0.000001
32
17.167498
13
-22.619997
23
0.000001
33
17.167498
0
3DFACE
8
Verriere
62
34.000000
10
13.199997
20
0.000001
30
17.306335
11
4.799998
21
-5.909636
31
14.193037
12
4.799998
22
-3.411929
32
25.485514
13
4.799998
23
-3.411929
33
25.485514
0
3DFACE
8
Verriere
62
34.000000
10
4.799998
20
-3.411929
30
25.485514
11
4.799998
21
-5.909636
31
14.193037
12
-12.000000
22
-4.911992
32
15.335746
13
-12.000000
23
-2.835939
33
24.546930
0
3DFACE
8
Verriere
62
34.000000
10
-12.000000
20
-2.835939
30
24.546930
11
-12.000000
21
-4.911992
31
15.335746
12
-22.619997
22
0.000001
32
17.167498
13
-22.619997
23
0.000001
33
17.167498
0
3DFACE
8
FuselageAvant
62
35.000000
10
6.400001
20
-0.400000
30
17.200001
11
6.400001
21
5.935382
31
13.773206
12
26.000000
22
5.682920
32
13.617944
13
26.000000
23
-0.391770
33
16.903730
0
3DFACE
8
FuselageAvant
62
35.000000
10
6.400001
20
5.935382
30
13.773206
11
6.400001
21
6.135382
31
6.573207
12
26.000000
22
5.874691
32
6.714215
13
26.000000
23
5.682920
33
13.617944
0
3DFACE
8
FuselageAvant
62
35.000000
10
6.400001
20
6.135382
30
6.573207
11
6.400001
21
0.000000
31
2.800002
12
26.000000
22
-0.008229
32
3.096272
13
26.000000
23
5.874691
33
6.714215
0
3DFACE
8
FuselageAvant
62
35.000000
10
6.400001
20
0.000000
30
2.800002
11
6.400001
21
-6.335382
31
6.226796
12
26.000000
22
-6.082920
32
6.382059
13
26.000000
23
-0.008229
33
3.096272
0
3DFACE
8
FuselageAvant
62
35.000000
10
6.400001
20
-6.335382
30
6.226796
11
6.400001
21
-6.535382
31
13.426795
12
26.000000
22
-6.274690
32
13.285787
13
26.000000
23
-6.082920
33
6.382059
0
3DFACE
8
FuselageAvant
62
35.000000
10
6.400001
20
-6.535382
30
13.426795
11
6.400001
21
-0.400000
31
17.200001
12
26.000000
22
-0.391770
32
16.903730
13
26.000000
23
-6.274690
33
13.285787
0
3DFACE
8
FuselageAvant
62
35.000000
10
26.000000
20
-0.391770
30
16.903730
11
26.000000
21
5.682920
31
13.617944
12
29.799999
22
-0.103157
32
10.059559
13
29.799999
23
-0.203157
33
10.113648
0
3DFACE
8
FuselageAvant
62
35.000000
10
26.000000
20
5.682920
30
13.617944
11
26.000000
21
5.874691
31
6.714215
12
29.799999
22
-0.100000
32
9.945911
13
29.799999
23
-0.103157
33
10.059559
0
3DFACE
8
FuselageAvant
62
35.000000
10
26.000000
20
5.874691
30
6.714215
11
26.000000
21
-0.008229
31
3.096272
12
29.799999
22
-0.196843
32
9.886353
13
29.799999
23
-0.100000
33
9.945911
0
3DFACE
8
FuselageAvant
62
35.000000
10
26.000000
20
-0.008229
30
3.096272
11
26.000000
21
-6.082920
31
6.382059
12
29.799999
22
-0.296843
32
9.940444
13
29.799999
23
-0.196843
33
9.886353
0
3DFACE
8
FuselageAvant
62
35.000000
10
26.000000
20
-6.082920
30
6.382059
11
26.000000
21
-6.274690
31
13.285787
12
29.799999
22
-0.300000
32
10.054090
13
29.799999
23
-0.296843
33
9.940444
0
3DFACE
8
FuselageAvant
62
35.000000
10
26.000000
20
-6.274690
30
13.285787
11
26.000000
21
-0.391770
31
16.903730
12
29.799999
22
-0.203157
32
10.113648
13
29.799999
23
-0.300000
33
10.054090
0
3DFACE
8
Cabine
62
36.000000
10
6.400001
20
6.135382
30
6.573207
11
-29.399998
21
5.428021
31
6.955817
12
-29.399998
22
5.250351
32
13.351917
13
6.400001
23
5.935382
33
13.773206
0
3DFACE
8
Cabine
62
36.000000
10
6.400001
20
0.000000
30
2.800002
11
-29.399998
21
-0.022330
31
3.603900
12
-29.399998
22
5.428021
32
6.955817
13
6.400001
23
6.135382
33
6.573207
0
3DFACE
8
Cabine
62
36.000000
10
6.400001
20
-6.335382
30
6.226796
11
-29.399998
21
-5.650351
31
6.648084
12
-29.399998
22
-0.022330
32
3.603900
13
6.400001
23
0.000000
33
2.800002
0
3DFACE
8
Cabine
62
36.000000
10
6.400001
20
-6.535382
30
13.426795
11
-29.399998
21
-5.828021
31
13.044185
12
-29.399998
22
-5.650351
32
6.648084
13
6.400001
23
-6.335382
33
6.226796
0
3DFACE
8
Cabine
62
36.000000
10
6.400001
20
-0.400000
30
17.200001
11
-29.399998
21
-0.377669
31
16.396101
12
-29.399998
22
-5.828021
32
13.044185
13
6.400001
23
-6.535382
33
13.426795
0
3DFACE
8
Cabine
62
36.000000
10
6.400001
20
5.935382
30
13.773206
11
-29.399998
21
5.250351
31
13.351917
12
-29.399998
22
-0.377669
32
16.396101
13
6.400001
23
-0.400000
33
17.200001
0
3DFACE
8
Cabine
62
36.000000
10
-29.399998
20
5.428021
30
6.955817
11
-36.599998
21
2.033341
31
10.004952
12
-36.599998
22
1.962838
32
9.994549
13
-29.399998
23
5.250351
33
13.351917
0
3DFACE
8
Cabine
62
36.000000
10
-29.399998
20
-0.022330
30
3.603900
11
-36.599998
21
-0.129496
31
10.010405
12
-36.599998
22
2.033341
32
10.004952
13
-29.399998
23
5.428021
33
6.955817
0
3DFACE
8
Cabine
62
36.000000
10
-29.399998
20
-5.650351
30
6.648084
11
-36.599998
21
-2.362837
31
10.005453
12
-36.599998
22
-0.129496
32
10.010405
13
-29.399998
23
-0.022330
33
3.603900
0
3DFACE
8
Cabine
62
36.000000
10
-29.399998
20
-5.828021
30
13.044185
11
-36.599998
21
-2.433341
31
9.995049
12
-36.599998
22
-2.362837
32
10.005453
13
-29.399998
23
-5.650351
33
6.648084
0
3DFACE
8
Cabine
62
36.000000
10
-29.399998
20
-0.377669
30
16.396101
11
-36.599998
21
-0.270504
31
9.989597
12
-36.599998
22
-2.433341
32
9.995049
13
-29.399998
23
-5.828021
33
13.044185
0
3DFACE
8
Cabine
62
36.000000
10
-29.399998
20
5.250351
30
13.351917
11
-36.599998
21
1.962838
31
9.994549
12
-36.599998
22
-0.270504
32
9.989597
13
-29.399998
23
-0.377669
33
16.396101
0
3DFACE
8
Queue
62
37.000000
10
-61.119179
20
21.613544
30
10.141558
11
-43.919174
21
21.613543
31
10.141558
12
-36.199997
22
3.332906
32
10.000000
13
-36.199997
23
3.332906
33
10.000000
0
3DFACE
8
Queue
62
37.000000
10
-61.119179
20
21.613544
30
10.141558
11
-36.199997
21
3.332906
31
10.000000
12
-36.119175
22
-3.486457
32
10.141558
13
-36.119175
23
-3.486457
33
10.141558
0
3DFACE
8
Queue
62
37.000000
10
-61.119179
20
21.613544
30
10.141558
11
-36.119175
21
-3.486457
31
10.141558
12
-43.119175
22
-23.486458
32
10.141558
13
-43.119175
23
-23.486458
33
10.141558
0
3DFACE
8
Queue
62
37.000000
10
-61.119179
20
21.613544
30
10.141558
11
-43.119175
21
-23.486458
31
10.141558
12
-61.119175
22
-23.486456
32
10.141558
13
-61.119175
23
-23.486456
33
10.141558
0
ENDSEC
0
EOF
