0
SECTION
2
ENTITIES
0
3DFACE
8
InclinH
62
1.000000
10
-97.745186
20
-1.409902
30
177.671707
11
-107.211868
21
-1.409902
31
176.756012
12
-107.395126
22
0.337363
32
178.730698
13
-97.047806
23
0.337363
33
179.731613
0
3DFACE
8
InclinH
62
1.000000
10
-107.211868
20
-1.409902
30
176.756012
11
-111.377350
21
-1.409902
31
169.862946
12
-111.948120
22
0.337363
32
171.196411
13
-107.395126
23
0.337363
33
178.730698
0
3DFACE
8
InclinH
62
1.000000
10
-111.377350
20
-1.409902
30
169.862946
11
-112.738464
21
-1.409902
31
165.841309
12
-113.435844
22
0.337363
32
166.054001
13
-111.948120
23
0.337363
33
171.196411
0
3DFACE
8
InclinH
62
1.000000
10
-112.738464
20
-1.409902
30
165.841309
11
-112.453674
21
-1.409902
31
148.664017
12
-113.124550
22
0.337363
32
147.649200
13
-113.435844
23
0.337363
33
166.054001
0
3DFACE
8
InclinH
62
1.000000
10
-112.453674
20
-1.409902
30
148.664017
11
-111.283005
21
-1.409902
31
136.648285
12
-111.844994
22
0.337363
32
134.515717
13
-113.124550
23
0.337363
33
147.649200
0
3DFACE
8
InclinH
62
1.000000
10
-111.283005
20
-1.409902
30
136.648285
11
-109.305107
21
-1.409902
31
135.641953
12
-109.683083
22
0.337363
32
133.415756
13
-111.844994
23
0.337363
33
134.515717
0
3DFACE
8
InclinH
62
1.000000
10
-109.305107
20
-1.409902
30
135.641953
11
-105.735435
21
-1.409902
31
136.315063
12
-105.781349
22
0.337363
32
134.151505
13
-109.683083
23
0.337363
33
133.415756
0
3DFACE
8
InclinH
62
1.000000
10
-105.735435
20
-1.409902
30
136.315063
11
-103.444771
21
-1.409902
31
144.719040
12
-103.277596
22
0.337363
32
143.337250
13
-105.781349
23
0.337363
33
134.151505
0
3DFACE
8
InclinH
62
1.000000
10
-103.444771
20
-1.409902
30
144.719040
11
-97.923409
21
-1.409902
31
145.539520
12
-97.242607
22
0.337363
32
144.234070
13
-103.277596
23
0.337363
33
143.337250
0
3DFACE
8
InclinH
62
1.000000
10
-97.047806
20
0.337363
30
179.731613
11
-107.395126
21
0.337363
31
178.730698
12
-107.241325
22
2.084629
32
177.073395
13
-97.633095
23
2.084629
33
178.002777
0
3DFACE
8
InclinH
62
1.000000
10
-107.395126
20
0.337363
30
178.730698
11
-111.948120
21
0.337363
31
171.196411
12
-111.469093
22
2.084629
32
170.077271
13
-107.241325
23
2.084629
33
177.073395
0
3DFACE
8
InclinH
62
1.000000
10
-111.948120
20
0.337363
30
171.196411
11
-113.435844
21
0.337363
31
166.054001
12
-112.850563
22
2.084629
32
165.875473
13
-111.469093
23
2.084629
33
170.077271
0
3DFACE
8
InclinH
62
1.000000
10
-113.435844
20
0.337363
30
166.054001
11
-113.124550
21
0.337363
31
147.649200
12
-112.561508
22
2.084629
32
148.500900
13
-112.850563
23
2.084629
33
165.875473
0
3DFACE
8
InclinH
62
1.000000
10
-113.124550
20
0.337363
30
147.649200
11
-111.844994
21
0.337363
31
134.515717
12
-111.373344
22
2.084629
32
136.305527
13
-112.561508
23
2.084629
33
148.500900
0
3DFACE
8
InclinH
62
1.000000
10
-111.844994
20
0.337363
30
134.515717
11
-109.683083
21
0.337363
31
133.415756
12
-109.365845
22
2.084629
32
135.284134
13
-111.373344
23
2.084629
33
136.305527
0
3DFACE
8
InclinH
62
1.000000
10
-109.683083
20
0.337363
30
133.415756
11
-105.781349
21
0.337363
31
134.151505
12
-105.742813
22
2.084629
32
135.967331
13
-109.365845
23
2.084629
33
135.284134
0
3DFACE
8
InclinH
62
1.000000
10
-105.781349
20
0.337363
30
134.151505
11
-103.277596
21
0.337363
31
143.337250
12
-103.417900
22
2.084629
32
144.496948
13
-105.742813
23
2.084629
33
135.967331
0
3DFACE
8
InclinH
62
1.000000
10
-103.277596
20
0.337363
30
143.337250
11
-97.242607
21
0.337363
31
144.234070
12
-97.813980
22
2.084629
32
145.329681
13
-103.417900
23
2.084629
33
144.496948
0
3DFACE
8
InclinH
62
1.000000
10
-97.633095
20
2.084629
30
178.002777
11
-107.241325
21
2.084629
31
177.073395
12
-111.469093
22
2.084629
32
170.077271
13
-111.469093
23
2.084629
33
170.077271
0
3DFACE
8
InclinH
62
1.000000
10
-97.633095
20
2.084629
30
178.002777
11
-111.469093
21
2.084629
31
170.077271
12
-112.850563
22
2.084629
32
165.875473
13
-112.850563
23
2.084629
33
165.875473
0
3DFACE
8
InclinH
62
1.000000
10
-97.633095
20
2.084629
30
178.002777
11
-112.850563
21
2.084629
31
165.875473
12
-112.561508
22
2.084629
32
148.500900
13
-112.561508
23
2.084629
33
148.500900
0
3DFACE
8
InclinH
62
1.000000
10
-97.633095
20
2.084629
30
178.002777
11
-112.561508
21
2.084629
31
148.500900
12
-111.373344
22
2.084629
32
136.305527
13
-111.373344
23
2.084629
33
136.305527
0
3DFACE
8
InclinH
62
1.000000
10
-97.633095
20
2.084629
30
178.002777
11
-111.373344
21
2.084629
31
136.305527
12
-109.365845
22
2.084629
32
135.284134
13
-109.365845
23
2.084629
33
135.284134
0
3DFACE
8
InclinH
62
1.000000
10
-97.633095
20
2.084629
30
178.002777
11
-109.365845
21
2.084629
31
135.284134
12
-105.742813
22
2.084629
32
135.967331
13
-105.742813
23
2.084629
33
135.967331
0
3DFACE
8
InclinH
62
1.000000
10
-97.633095
20
2.084629
30
178.002777
11
-105.742813
21
2.084629
31
135.967331
12
-103.417900
22
2.084629
32
144.496948
13
-103.417900
23
2.084629
33
144.496948
0
3DFACE
8
InclinH
62
1.000000
10
-97.633095
20
2.084629
30
178.002777
11
-103.417900
21
2.084629
31
144.496948
12
-97.813980
22
2.084629
32
145.329681
13
-97.813980
23
2.084629
33
145.329681
0
3DFACE
8
InclinH
62
1.000000
10
-112.453674
20
-1.409902
30
148.664017
11
-112.738464
21
-1.409902
31
165.841309
12
-111.377350
22
-1.409902
32
169.862946
13
-111.377350
23
-1.409902
33
169.862946
0
3DFACE
8
InclinH
62
1.000000
10
-112.453674
20
-1.409902
30
148.664017
11
-111.377350
21
-1.409902
31
169.862946
12
-107.211868
22
-1.409902
32
176.756012
13
-107.211868
23
-1.409902
33
176.756012
0
3DFACE
8
InclinH
62
1.000000
10
-112.453674
20
-1.409902
30
148.664017
11
-107.211868
21
-1.409902
31
176.756012
12
-97.745186
22
-1.409902
32
177.671707
13
-97.745186
23
-1.409902
33
177.671707
0
3DFACE
8
InclinH
62
1.000000
10
-112.453674
20
-1.409902
30
148.664017
11
-97.745186
21
-1.409902
31
177.671707
12
-97.923409
22
-1.409902
32
145.539520
13
-97.923409
23
-1.409902
33
145.539520
0
3DFACE
8
InclinH
62
1.000000
10
-112.453674
20
-1.409902
30
148.664017
11
-97.923409
21
-1.409902
31
145.539520
12
-103.444771
22
-1.409902
32
144.719040
13
-103.444771
23
-1.409902
33
144.719040
0
3DFACE
8
InclinH
62
1.000000
10
-112.453674
20
-1.409902
30
148.664017
11
-103.444771
21
-1.409902
31
144.719040
12
-105.735435
22
-1.409902
32
136.315063
13
-105.735435
23
-1.409902
33
136.315063
0
3DFACE
8
InclinH
62
1.000000
10
-112.453674
20
-1.409902
30
148.664017
11
-105.735435
21
-1.409902
31
136.315063
12
-109.305107
22
-1.409902
32
135.641953
13
-109.305107
23
-1.409902
33
135.641953
0
3DFACE
8
InclinH
62
1.000000
10
-112.453674
20
-1.409902
30
148.664017
11
-109.305107
21
-1.409902
31
135.641953
12
-111.283005
22
-1.409902
32
136.648285
13
-111.283005
23
-1.409902
33
136.648285
0
3DFACE
8
GouvH
62
2.000000
10
-24.060555
20
-1.584629
30
168.891556
11
-25.318588
21
-1.584629
31
173.609161
12
-15.990479
22
0.162637
32
176.954956
13
-14.396465
23
0.162637
33
170.977417
0
3DFACE
8
GouvH
62
2.000000
10
-25.318588
20
-1.584629
30
173.609161
11
-52.995274
21
-1.584629
31
175.036469
12
-51.058720
22
0.162637
32
179.528931
13
-15.990479
23
0.162637
33
176.954956
0
3DFACE
8
GouvH
62
2.000000
10
-52.995274
20
-1.584629
30
175.036469
11
-95.348991
21
-1.584629
31
175.435730
12
-97.734703
22
0.162637
32
179.732956
13
-51.058720
23
0.162637
33
179.528931
0
3DFACE
8
GouvH
62
2.000000
10
-95.348991
20
-1.584629
30
175.435730
11
-96.432297
21
-1.584629
31
149.322159
12
-97.709518
22
0.162637
32
145.832230
13
-97.734703
23
0.162637
33
179.732956
0
3DFACE
8
GouvH
62
2.000000
10
-96.432297
20
-1.584629
30
149.322159
11
-87.451355
21
-1.584629
31
141.075073
12
-94.716919
22
0.162637
32
135.732056
13
-97.709518
23
0.162637
33
145.832230
0
3DFACE
8
GouvH
62
2.000000
10
-87.451355
20
-1.584629
30
141.075073
11
-78.016113
21
-1.584629
31
141.913757
12
-82.761833
22
0.162637
32
136.794739
13
-94.716919
23
0.162637
33
135.732056
0
3DFACE
8
GouvH
62
2.000000
10
-78.016113
20
-1.584629
30
141.913757
11
-44.014328
21
-1.584629
31
165.397018
12
-39.679256
22
0.162637
32
166.549622
13
-82.761833
23
0.162637
33
136.794739
0
3DFACE
8
GouvH
62
2.000000
10
-44.014328
20
-1.584629
30
165.397018
11
-24.130447
21
-1.584629
31
169.031326
12
-14.485025
22
0.162637
32
171.154526
13
-39.679256
23
0.162637
33
166.549622
0
3DFACE
8
GouvH
62
2.000000
10
-14.396465
20
0.162637
30
170.977417
11
-15.990479
21
0.162637
31
176.954956
12
-24.841614
22
1.909902
32
173.780228
13
-23.566401
23
1.909902
33
168.998215
0
3DFACE
8
GouvH
62
2.000000
10
-15.990479
20
0.162637
30
176.954956
11
-51.058720
21
0.162637
31
179.528931
12
-52.896252
22
1.909902
32
175.266190
13
-24.841614
23
1.909902
33
173.780228
0
3DFACE
8
GouvH
62
2.000000
10
-51.058720
20
0.162637
30
179.528931
11
-97.734703
21
0.162637
31
179.732956
12
-95.828354
22
1.909902
32
175.688538
13
-52.896252
23
1.909902
33
175.266190
0
3DFACE
8
GouvH
62
2.000000
10
-97.734703
20
0.162637
30
179.732956
11
-97.709518
21
0.162637
31
145.832230
12
-96.926445
22
1.909902
32
149.161575
13
-95.828354
23
1.909902
33
175.688538
0
3DFACE
8
GouvH
62
2.000000
10
-97.709518
20
0.162637
30
145.832230
11
-94.716919
21
0.162637
31
135.732056
12
-87.822861
22
1.909902
32
140.801865
13
-96.926445
23
1.909902
33
149.161575
0
3DFACE
8
GouvH
62
2.000000
10
-94.716919
20
0.162637
30
135.732056
11
-82.761833
21
0.162637
31
136.794739
12
-78.258781
22
1.909902
32
141.652023
13
-87.822861
23
1.909902
33
140.801865
0
3DFACE
8
GouvH
62
2.000000
10
-82.761833
20
0.162637
30
136.794739
11
-39.679256
21
0.162637
31
166.549622
12
-43.792664
22
1.909902
32
165.455948
13
-78.258781
23
1.909902
33
141.652023
0
3DFACE
8
GouvH
62
2.000000
10
-39.679256
20
0.162637
30
166.549622
11
-14.485025
21
0.162637
31
171.154526
12
-23.637249
22
1.909902
32
169.139893
13
-43.792664
23
1.909902
33
165.455948
0
3DFACE
8
GouvH
62
2.000000
10
-78.016113
20
-1.584629
30
141.913757
11
-87.451355
21
-1.584629
31
141.075073
12
-96.432297
22
-1.584629
32
149.322159
13
-96.432297
23
-1.584629
33
149.322159
0
3DFACE
8
GouvH
62
2.000000
10
-78.016113
20
-1.584629
30
141.913757
11
-96.432297
21
-1.584629
31
149.322159
12
-95.348991
22
-1.584629
32
175.435730
13
-95.348991
23
-1.584629
33
175.435730
0
3DFACE
8
GouvH
62
2.000000
10
-78.016113
20
-1.584629
30
141.913757
11
-95.348991
21
-1.584629
31
175.435730
12
-52.995274
22
-1.584629
32
175.036469
13
-52.995274
23
-1.584629
33
175.036469
0
3DFACE
8
GouvH
62
2.000000
10
-52.995274
20
-1.584629
30
175.036469
11
-25.318588
21
-1.584629
31
173.609161
12
-24.130447
22
-1.584629
32
169.031326
13
-24.130447
23
-1.584629
33
169.031326
0
3DFACE
8
GouvH
62
2.000000
10
-52.995274
20
-1.584629
30
175.036469
11
-24.130447
21
-1.584629
31
169.031326
12
-43.664501
22
-1.584629
32
165.389511
13
-43.664501
23
-1.584629
33
165.389511
0
3DFACE
8
GouvH
62
2.000000
10
-52.995274
20
-1.584629
30
175.036469
11
-43.664501
21
-1.584629
31
165.389511
12
-78.016113
22
-1.584629
32
141.913757
13
-78.016113
23
-1.584629
33
141.913757
0
3DFACE
8
GouvH
62
2.000000
10
-43.792664
20
1.909902
30
165.455948
11
-23.566401
21
1.909902
31
168.998215
12
-24.841614
22
1.909902
32
173.780228
13
-24.841614
23
1.909902
33
173.780228
0
3DFACE
8
GouvH
62
2.000000
10
-43.792664
20
1.909902
30
165.455948
11
-24.841614
21
1.909902
31
173.780228
12
-52.896252
22
1.909902
32
175.266190
13
-52.896252
23
1.909902
33
175.266190
0
3DFACE
8
GouvH
62
2.000000
10
-43.792664
20
1.909902
30
165.455948
11
-52.896252
21
1.909902
31
175.266190
12
-95.828354
22
1.909902
32
175.688538
13
-95.828354
23
1.909902
33
175.688538
0
3DFACE
8
GouvH
62
2.000000
10
-43.792664
20
1.909902
30
165.455948
11
-95.828354
21
1.909902
31
175.688538
12
-96.926445
22
1.909902
32
149.161575
13
-96.926445
23
1.909902
33
149.161575
0
3DFACE
8
GouvH
62
2.000000
10
-43.792664
20
1.909902
30
165.455948
11
-96.926445
21
1.909902
31
149.161575
12
-87.822861
22
1.909902
32
140.801865
13
-87.822861
23
1.909902
33
140.801865
0
3DFACE
8
GouvH
62
2.000000
10
-43.792664
20
1.909902
30
165.455948
11
-87.822861
21
1.909902
31
140.801865
12
-78.258781
22
1.909902
32
141.652023
13
-78.258781
23
1.909902
33
141.652023
0
3DFACE
8
InclinG
62
3.000000
10
-100.297714
20
-67.580132
30
104.603363
11
-110.645035
21
-66.666496
31
104.603363
12
-110.461777
22
-64.863907
32
106.350624
13
-100.995102
23
-65.699783
33
106.350624
0
3DFACE
8
InclinG
62
3.000000
10
-110.645035
20
-66.666496
30
104.603363
11
-115.198021
21
-59.788910
31
104.603363
12
-114.627258
22
-58.571655
32
106.350624
13
-110.461777
23
-64.863907
33
106.350624
0
3DFACE
8
InclinG
62
3.000000
10
-115.198021
20
-59.788910
30
104.603363
11
-116.685745
21
-47.452812
31
104.603371
12
-115.988380
22
-47.285458
32
106.350624
13
-114.627258
23
-58.571655
33
106.350624
0
3DFACE
8
InclinG
62
3.000000
10
-116.685745
20
-47.452812
30
104.603371
11
-116.374458
21
-30.045288
31
104.603371
12
-115.703575
22
-30.773388
32
106.350624
13
-115.988380
23
-47.285458
33
106.350624
0
3DFACE
8
InclinG
62
3.000000
10
-116.374458
20
-30.045288
30
104.603371
11
-115.094894
21
-20.622274
31
104.603371
12
-114.532906
22
-22.152355
32
106.350632
13
-115.703575
23
-30.773388
33
106.350624
0
3DFACE
8
InclinG
62
3.000000
10
-115.094894
20
-20.622274
30
104.603371
11
-112.932991
21
-19.833084
31
104.603371
12
-112.555008
22
-21.430330
32
106.350632
13
-114.532906
23
-22.152355
33
106.350632
0
3DFACE
8
InclinG
62
3.000000
10
-112.932991
20
-19.833084
30
104.603371
11
-109.031258
21
-20.360962
31
104.603371
12
-108.985336
22
-21.913275
32
106.350632
13
-112.555008
23
-21.430330
33
106.350632
0
3DFACE
8
InclinG
62
3.000000
10
-109.031258
20
-20.360962
30
104.603371
11
-106.527496
21
-26.951550
31
104.603371
12
-106.694679
22
-27.942955
32
106.350632
13
-108.985336
23
-21.913275
33
106.350632
0
3DFACE
8
InclinG
62
3.000000
10
-106.527496
20
-26.951550
30
104.603371
11
-100.492516
21
-27.594986
31
104.603371
12
-101.173317
22
-28.531633
32
106.350624
13
-106.694679
23
-27.942955
33
106.350632
0
3DFACE
8
InclinG
62
3.000000
10
-100.883003
20
-66.002007
30
102.856102
11
-110.491234
21
-65.153633
31
102.856102
12
-110.645035
22
-66.666496
32
104.603363
13
-100.297714
23
-67.580132
33
104.603363
0
3DFACE
8
InclinG
62
3.000000
10
-110.491234
20
-65.153633
30
102.856102
11
-114.719002
21
-58.767296
31
102.856102
12
-115.198021
22
-59.788910
32
104.603363
13
-110.645035
23
-66.666496
33
104.603363
0
3DFACE
8
InclinG
62
3.000000
10
-114.719002
20
-58.767296
30
102.856102
11
-116.100464
21
-47.312336
31
102.856102
12
-116.685745
22
-47.452812
32
104.603371
13
-115.198021
23
-59.788910
33
104.603363
0
3DFACE
8
InclinG
62
3.000000
10
-116.100464
20
-47.312336
30
102.856102
11
-115.811409
21
-30.656357
31
102.856102
12
-116.374458
22
-30.045288
32
104.603371
13
-116.685745
23
-47.452812
33
104.603371
0
3DFACE
8
InclinG
62
3.000000
10
-115.811409
20
-30.656357
30
102.856102
11
-114.623253
21
-21.906422
31
102.856102
12
-115.094894
22
-20.622274
32
104.603371
13
-116.374458
23
-30.045288
33
104.603371
0
3DFACE
8
InclinG
62
3.000000
10
-114.623253
20
-21.906422
30
102.856102
11
-112.615746
21
-21.173605
31
102.856102
12
-112.932991
22
-19.833084
32
104.603371
13
-115.094894
23
-20.622274
33
104.603371
0
3DFACE
8
InclinG
62
3.000000
10
-112.615746
20
-21.173605
30
102.856102
11
-108.992729
21
-21.663782
31
102.856102
12
-109.031258
22
-20.360962
32
104.603371
13
-112.932991
23
-19.833084
33
104.603371
0
3DFACE
8
InclinG
62
3.000000
10
-108.992729
20
-21.663782
30
102.856102
11
-106.667816
21
-27.783602
31
102.856102
12
-106.527496
22
-26.951550
32
104.603371
13
-109.031258
23
-20.360962
33
104.603371
0
3DFACE
8
InclinG
62
3.000000
10
-106.667816
20
-27.783602
30
102.856102
11
-101.063896
21
-28.381077
31
102.856102
12
-100.492516
22
-27.594986
32
104.603371
13
-106.527496
23
-26.951550
33
104.603371
0
3DFACE
8
InclinG
62
3.000000
10
-106.667816
20
-27.783602
30
102.856102
11
-108.992729
21
-21.663782
31
102.856102
12
-112.615746
22
-21.173605
32
102.856102
13
-112.615746
23
-21.173605
33
102.856102
0
3DFACE
8
InclinG
62
3.000000
10
-106.667816
20
-27.783602
30
102.856102
11
-112.615746
21
-21.173605
31
102.856102
12
-114.623253
22
-21.906422
32
102.856102
13
-114.623253
23
-21.906422
33
102.856102
0
3DFACE
8
InclinG
62
3.000000
10
-106.667816
20
-27.783602
30
102.856102
11
-114.623253
21
-21.906422
31
102.856102
12
-115.811409
22
-30.656357
32
102.856102
13
-115.811409
23
-30.656357
33
102.856102
0
3DFACE
8
InclinG
62
3.000000
10
-106.667816
20
-27.783602
30
102.856102
11
-115.811409
21
-30.656357
31
102.856102
12
-116.100464
22
-47.312336
32
102.856102
13
-116.100464
23
-47.312336
33
102.856102
0
3DFACE
8
InclinG
62
3.000000
10
-106.667816
20
-27.783602
30
102.856102
11
-116.100464
21
-47.312336
31
102.856102
12
-114.719002
22
-58.767296
32
102.856102
13
-114.719002
23
-58.767296
33
102.856102
0
3DFACE
8
InclinG
62
3.000000
10
-106.667816
20
-27.783602
30
102.856102
11
-114.719002
21
-58.767296
31
102.856102
12
-110.491234
22
-65.153633
32
102.856102
13
-110.491234
23
-65.153633
33
102.856102
0
3DFACE
8
InclinG
62
3.000000
10
-106.667816
20
-27.783602
30
102.856102
11
-110.491234
21
-65.153633
31
102.856102
12
-100.883003
22
-66.002007
32
102.856102
13
-100.883003
23
-66.002007
33
102.856102
0
3DFACE
8
InclinG
62
3.000000
10
-106.667816
20
-27.783602
30
102.856102
11
-100.883003
21
-66.002007
31
102.856102
12
-101.063896
22
-28.381077
32
102.856102
13
-101.063896
23
-28.381077
33
102.856102
0
3DFACE
8
InclinG
62
3.000000
10
-114.532906
20
-22.152355
30
106.350632
11
-112.555008
21
-21.430330
31
106.350632
12
-108.985336
22
-21.913275
32
106.350632
13
-108.985336
23
-21.913275
33
106.350632
0
3DFACE
8
InclinG
62
3.000000
10
-114.532906
20
-22.152355
30
106.350632
11
-108.985336
21
-21.913275
31
106.350632
12
-106.694679
22
-27.942955
32
106.350632
13
-106.694679
23
-27.942955
33
106.350632
0
3DFACE
8
InclinG
62
3.000000
10
-106.694679
20
-27.942955
30
106.350632
11
-101.173317
21
-28.531633
31
106.350624
12
-100.995102
22
-65.699783
32
106.350624
13
-100.995102
23
-65.699783
33
106.350624
0
3DFACE
8
InclinG
62
3.000000
10
-106.694679
20
-27.942955
30
106.350632
11
-100.995102
21
-65.699783
31
106.350624
12
-110.461777
22
-64.863907
32
106.350624
13
-110.461777
23
-64.863907
33
106.350624
0
3DFACE
8
InclinG
62
3.000000
10
-106.694679
20
-27.942955
30
106.350632
11
-110.461777
21
-64.863907
31
106.350624
12
-114.627258
22
-58.571655
32
106.350624
13
-114.627258
23
-58.571655
33
106.350624
0
3DFACE
8
InclinG
62
3.000000
10
-106.694679
20
-27.942955
30
106.350632
11
-114.627258
21
-58.571655
31
106.350624
12
-115.988380
22
-47.285458
32
106.350624
13
-115.988380
23
-47.285458
33
106.350624
0
3DFACE
8
InclinG
62
3.000000
10
-106.694679
20
-27.942955
30
106.350632
11
-115.988380
21
-47.285458
31
106.350624
12
-115.703575
22
-30.773388
32
106.350624
13
-115.703575
23
-30.773388
33
106.350624
0
3DFACE
8
InclinG
62
3.000000
10
-106.694679
20
-27.942955
30
106.350632
11
-115.703575
21
-30.773388
31
106.350624
12
-114.532906
22
-22.152355
32
106.350632
13
-114.532906
23
-22.152355
33
106.350632
0
3DFACE
8
GouvG
62
4.000000
10
-17.646378
20
-46.782791
30
104.778091
11
-19.240391
21
-51.071548
31
104.778091
12
-28.568501
22
-48.671009
32
106.525360
13
-27.310467
23
-45.286221
33
106.525360
0
3DFACE
8
GouvG
62
4.000000
10
-19.240391
20
-51.071548
30
104.778091
11
-54.308636
21
-65.740723
31
104.778091
12
-56.245182
22
-61.740135
32
106.525360
13
-28.568501
23
-48.671009
33
106.525360
0
3DFACE
8
GouvG
62
4.000000
10
-54.308636
20
-65.740723
30
104.778091
11
-100.984612
21
-67.581345
31
104.778091
12
-98.598907
22
-63.658703
32
106.525360
13
-56.245182
23
-61.740135
33
106.525360
0
3DFACE
8
GouvG
62
4.000000
10
-100.984612
20
-67.581345
30
104.778091
11
-100.959427
21
-28.741646
31
104.778091
12
-99.682213
22
-31.245592
32
106.525360
13
-98.598907
23
-63.658703
33
106.525360
0
3DFACE
8
GouvG
62
4.000000
10
-100.959427
20
-28.741646
30
104.778091
11
-97.966835
21
-21.494976
31
104.778091
12
-90.701263
22
-25.328478
32
106.525360
13
-99.682213
23
-31.245592
33
106.525360
0
3DFACE
8
GouvG
62
4.000000
10
-97.966835
20
-21.494976
30
104.778091
11
-86.011749
21
-22.257429
31
104.778091
12
-81.266029
22
-25.930225
32
106.525360
13
-90.701263
23
-25.328478
33
106.525360
0
3DFACE
8
GouvG
62
4.000000
10
-86.011749
20
-22.257429
30
104.778091
11
-42.929165
21
-43.605927
31
104.778091
12
-47.264244
22
-42.778961
32
106.525360
13
-81.266029
23
-25.930225
33
106.525360
0
3DFACE
8
GouvG
62
4.000000
10
-42.929165
20
-43.605927
30
104.778091
11
-17.734938
21
-46.909863
31
104.778091
12
-27.380360
22
-45.386501
32
106.525360
13
-47.264244
23
-42.778961
33
106.525360
0
3DFACE
8
GouvG
62
4.000000
10
-26.816313
20
-45.362747
30
103.030823
11
-28.091526
21
-48.793747
31
103.030823
12
-19.240391
22
-51.071548
32
104.778091
13
-17.646378
23
-46.782791
33
104.778091
0
3DFACE
8
GouvG
62
4.000000
10
-28.091526
20
-48.793747
30
103.030823
11
-56.146168
21
-61.944698
31
103.030823
12
-54.308636
22
-65.740723
32
104.778091
13
-19.240391
23
-51.071548
33
104.778091
0
3DFACE
8
GouvG
62
4.000000
10
-56.146168
20
-61.944698
30
103.030823
11
-99.078270
21
-63.889477
31
103.030823
12
-100.984612
22
-67.581345
32
104.778091
13
-54.308636
23
-65.740723
33
104.778091
0
3DFACE
8
GouvG
62
4.000000
10
-99.078270
20
-63.889477
30
103.030823
11
-100.176369
21
-31.130375
31
103.030830
12
-100.959427
22
-28.741646
32
104.778091
13
-100.984612
23
-67.581345
33
104.778091
0
3DFACE
8
GouvG
62
4.000000
10
-100.176369
20
-31.130375
30
103.030830
11
-91.072784
21
-25.132458
31
103.030830
12
-97.966835
22
-21.494976
32
104.778091
13
-100.959427
23
-28.741646
33
104.778091
0
3DFACE
8
GouvG
62
4.000000
10
-91.072784
20
-25.132458
30
103.030830
11
-81.508690
21
-25.742420
31
103.030830
12
-86.011749
22
-22.257429
32
104.778091
13
-97.966835
23
-21.494976
33
104.778091
0
3DFACE
8
GouvG
62
4.000000
10
-81.508690
20
-25.742420
30
103.030830
11
-47.042576
21
-42.821243
31
103.030823
12
-42.929165
22
-43.605927
32
104.778091
13
-86.011749
23
-22.257429
33
104.778091
0
3DFACE
8
GouvG
62
4.000000
10
-47.042576
20
-42.821243
30
103.030823
11
-26.887161
21
-45.464397
31
103.030823
12
-17.734938
22
-46.909863
32
104.778091
13
-42.929165
23
-43.605927
33
104.778091
0
3DFACE
8
GouvG
62
4.000000
10
-46.914413
20
-42.773586
30
106.525360
11
-27.380360
21
-45.386501
31
106.525360
12
-28.568501
22
-48.671009
32
106.525360
13
-28.568501
23
-48.671009
33
106.525360
0
3DFACE
8
GouvG
62
4.000000
10
-46.914413
20
-42.773586
30
106.525360
11
-28.568501
21
-48.671009
31
106.525360
12
-56.245182
22
-61.740135
32
106.525360
13
-56.245182
23
-61.740135
33
106.525360
0
3DFACE
8
GouvG
62
4.000000
10
-46.914413
20
-42.773586
30
106.525360
11
-56.245182
21
-61.740135
31
106.525360
12
-98.598907
22
-63.658703
32
106.525360
13
-98.598907
23
-63.658703
33
106.525360
0
3DFACE
8
GouvG
62
4.000000
10
-46.914413
20
-42.773586
30
106.525360
11
-98.598907
21
-63.658703
31
106.525360
12
-99.682213
22
-31.245592
32
106.525360
13
-99.682213
23
-31.245592
33
106.525360
0
3DFACE
8
GouvG
62
4.000000
10
-46.914413
20
-42.773586
30
106.525360
11
-99.682213
21
-31.245592
31
106.525360
12
-90.701263
22
-25.328478
32
106.525360
13
-90.701263
23
-25.328478
33
106.525360
0
3DFACE
8
GouvG
62
4.000000
10
-46.914413
20
-42.773586
30
106.525360
11
-90.701263
21
-25.328478
31
106.525360
12
-81.266029
22
-25.930225
32
106.525360
13
-81.266029
23
-25.930225
33
106.525360
0
3DFACE
8
GouvG
62
4.000000
10
-81.508690
20
-25.742420
30
103.030830
11
-91.072784
21
-25.132458
31
103.030830
12
-100.176369
22
-31.130375
32
103.030830
13
-100.176369
23
-31.130375
33
103.030830
0
3DFACE
8
GouvG
62
4.000000
10
-81.508690
20
-25.742420
30
103.030830
11
-100.176369
21
-31.130375
31
103.030830
12
-99.078270
22
-63.889477
32
103.030823
13
-99.078270
23
-63.889477
33
103.030823
0
3DFACE
8
GouvG
62
4.000000
10
-81.508690
20
-25.742420
30
103.030830
11
-99.078270
21
-63.889477
31
103.030823
12
-56.146168
22
-61.944698
32
103.030823
13
-56.146168
23
-61.944698
33
103.030823
0
3DFACE
8
GouvG
62
4.000000
10
-56.146168
20
-61.944698
30
103.030823
11
-28.091526
21
-48.793747
31
103.030823
12
-26.816313
22
-45.362747
32
103.030823
13
-26.816313
23
-45.362747
33
103.030823
0
3DFACE
8
GouvG
62
4.000000
10
-56.146168
20
-61.944698
30
103.030823
11
-26.816313
21
-45.362747
31
103.030823
12
-47.042576
22
-42.821243
32
103.030823
13
-47.042576
23
-42.821243
33
103.030823
0
3DFACE
8
GouvG
62
4.000000
10
-56.146168
20
-61.944698
30
103.030823
11
-47.042576
21
-42.821243
31
103.030823
12
-81.508690
22
-25.742420
32
103.030830
13
-81.508690
23
-25.742420
33
103.030830
0
3DFACE
8
InclinB
62
5.000000
10
-97.047806
20
0.337363
30
31.117550
11
-107.395126
21
0.337363
31
32.118420
12
-107.211868
22
-1.409902
32
34.093151
13
-97.745186
23
-1.409902
33
33.177456
0
3DFACE
8
InclinB
62
5.000000
10
-107.395126
20
0.337363
30
32.118420
11
-111.948120
21
0.337363
31
39.652737
12
-111.377350
22
-1.409902
32
40.986244
13
-107.211868
23
-1.409902
33
34.093151
0
3DFACE
8
InclinB
62
5.000000
10
-111.948120
20
0.337363
30
39.652737
11
-113.435844
21
0.337363
31
53.166775
12
-112.738464
22
-1.409902
32
53.350109
13
-111.377350
23
-1.409902
33
40.986244
0
3DFACE
8
InclinB
62
5.000000
10
-113.435844
20
0.337363
30
53.166775
11
-113.124550
21
0.337363
31
63.199947
12
-112.453674
22
-1.409902
32
62.185146
13
-112.738464
23
-1.409902
33
53.350109
0
3DFACE
8
InclinB
62
5.000000
10
-113.124550
20
0.337363
30
63.199947
11
-111.844994
21
0.337363
31
76.333458
12
-111.283005
22
-1.409902
32
74.200874
13
-112.453674
23
-1.409902
33
62.185146
0
3DFACE
8
InclinB
62
5.000000
10
-111.844994
20
0.337363
30
76.333458
11
-109.683083
21
0.337363
31
77.433403
12
-109.305107
22
-1.409902
32
75.207214
13
-111.283005
23
-1.409902
33
74.200874
0
3DFACE
8
InclinB
62
5.000000
10
-109.683083
20
0.337363
30
77.433403
11
-105.781349
21
0.337363
31
76.697662
12
-105.735435
22
-1.409902
32
74.534096
13
-109.305107
23
-1.409902
33
75.207214
0
3DFACE
8
InclinB
62
5.000000
10
-105.781349
20
0.337363
30
76.697662
11
-103.277596
21
0.337363
31
67.511909
12
-103.444771
22
-1.409902
32
66.130112
13
-105.735435
23
-1.409902
33
74.534096
0
3DFACE
8
InclinB
62
5.000000
10
-103.277596
20
0.337363
30
67.511909
11
-97.242607
21
0.337363
31
66.615105
12
-97.923409
22
-1.409902
32
65.309631
13
-103.444771
23
-1.409902
33
66.130112
0
3DFACE
8
InclinB
62
5.000000
10
-97.633095
20
2.084629
30
32.846371
11
-107.241325
21
2.084629
31
33.775745
12
-107.395126
22
0.337363
32
32.118420
13
-97.047806
23
0.337363
33
31.117550
0
3DFACE
8
InclinB
62
5.000000
10
-107.241325
20
2.084629
30
33.775745
11
-111.469093
21
2.084629
31
40.771896
12
-111.948120
22
0.337363
32
39.652737
13
-107.395126
23
0.337363
33
32.118420
0
3DFACE
8
InclinB
62
5.000000
10
-111.469093
20
2.084629
30
40.771896
11
-112.850563
21
2.084629
31
53.320656
12
-113.435844
22
0.337363
32
53.166775
13
-111.948120
23
0.337363
33
39.652737
0
3DFACE
8
InclinB
62
5.000000
10
-112.850563
20
2.084629
30
53.320656
11
-112.561508
21
2.084629
31
62.348255
12
-113.124550
22
0.337363
32
63.199947
13
-113.435844
23
0.337363
33
53.166775
0
3DFACE
8
InclinB
62
5.000000
10
-112.561508
20
2.084629
30
62.348255
11
-111.373344
21
2.084629
31
74.543640
12
-111.844994
22
0.337363
32
76.333458
13
-113.124550
23
0.337363
33
63.199947
0
3DFACE
8
InclinB
62
5.000000
10
-111.373344
20
2.084629
30
74.543640
11
-109.365845
21
2.084629
31
75.565033
12
-109.683083
22
0.337363
32
77.433403
13
-111.844994
23
0.337363
33
76.333458
0
3DFACE
8
InclinB
62
5.000000
10
-109.365845
20
2.084629
30
75.565033
11
-105.742813
21
2.084629
31
74.881844
12
-105.781349
22
0.337363
32
76.697662
13
-109.683083
23
0.337363
33
77.433403
0
3DFACE
8
InclinB
62
5.000000
10
-105.742813
20
2.084629
30
74.881844
11
-103.417900
21
2.084629
31
66.352211
12
-103.277596
22
0.337363
32
67.511909
13
-105.781349
23
0.337363
33
76.697662
0
3DFACE
8
InclinB
62
5.000000
10
-103.417900
20
2.084629
30
66.352211
11
-97.813980
21
2.084629
31
65.519470
12
-97.242607
22
0.337363
32
66.615105
13
-103.277596
23
0.337363
33
67.511909
0
3DFACE
8
InclinB
62
5.000000
10
-103.417900
20
2.084629
30
66.352211
11
-105.742813
21
2.084629
31
74.881844
12
-109.365845
22
2.084629
32
75.565033
13
-109.365845
23
2.084629
33
75.565033
0
3DFACE
8
InclinB
62
5.000000
10
-103.417900
20
2.084629
30
66.352211
11
-109.365845
21
2.084629
31
75.565033
12
-111.373344
22
2.084629
32
74.543640
13
-111.373344
23
2.084629
33
74.543640
0
3DFACE
8
InclinB
62
5.000000
10
-103.417900
20
2.084629
30
66.352211
11
-111.373344
21
2.084629
31
74.543640
12
-112.561508
22
2.084629
32
62.348255
13
-112.561508
23
2.084629
33
62.348255
0
3DFACE
8
InclinB
62
5.000000
10
-103.417900
20
2.084629
30
66.352211
11
-112.561508
21
2.084629
31
62.348255
12
-112.850563
22
2.084629
32
53.320656
13
-112.850563
23
2.084629
33
53.320656
0
3DFACE
8
InclinB
62
5.000000
10
-103.417900
20
2.084629
30
66.352211
11
-112.850563
21
2.084629
31
53.320656
12
-111.469093
22
2.084629
32
40.771896
13
-111.469093
23
2.084629
33
40.771896
0
3DFACE
8
InclinB
62
5.000000
10
-103.417900
20
2.084629
30
66.352211
11
-111.469093
21
2.084629
31
40.771896
12
-107.241325
22
2.084629
32
33.775745
13
-107.241325
23
2.084629
33
33.775745
0
3DFACE
8
InclinB
62
5.000000
10
-103.417900
20
2.084629
30
66.352211
11
-107.241325
21
2.084629
31
33.775745
12
-97.633095
22
2.084629
32
32.846371
13
-97.633095
23
2.084629
33
32.846371
0
3DFACE
8
InclinB
62
5.000000
10
-103.417900
20
2.084629
30
66.352211
11
-97.633095
21
2.084629
31
32.846371
12
-97.813980
22
2.084629
32
65.519470
13
-97.813980
23
2.084629
33
65.519470
0
3DFACE
8
InclinB
62
5.000000
10
-111.283005
20
-1.409902
30
74.200874
11
-109.305107
21
-1.409902
31
75.207214
12
-105.735435
22
-1.409902
32
74.534096
13
-105.735435
23
-1.409902
33
74.534096
0
3DFACE
8
InclinB
62
5.000000
10
-111.283005
20
-1.409902
30
74.200874
11
-105.735435
21
-1.409902
31
74.534096
12
-103.444771
22
-1.409902
32
66.130112
13
-103.444771
23
-1.409902
33
66.130112
0
3DFACE
8
InclinB
62
5.000000
10
-103.444771
20
-1.409902
30
66.130112
11
-97.923409
21
-1.409902
31
65.309631
12
-97.745186
22
-1.409902
32
33.177456
13
-97.745186
23
-1.409902
33
33.177456
0
3DFACE
8
InclinB
62
5.000000
10
-103.444771
20
-1.409902
30
66.130112
11
-97.745186
21
-1.409902
31
33.177456
12
-107.211868
22
-1.409902
32
34.093151
13
-107.211868
23
-1.409902
33
34.093151
0
3DFACE
8
InclinB
62
5.000000
10
-103.444771
20
-1.409902
30
66.130112
11
-107.211868
21
-1.409902
31
34.093151
12
-111.377350
22
-1.409902
32
40.986244
13
-111.377350
23
-1.409902
33
40.986244
0
3DFACE
8
InclinB
62
5.000000
10
-103.444771
20
-1.409902
30
66.130112
11
-111.377350
21
-1.409902
31
40.986244
12
-112.738464
22
-1.409902
32
53.350109
13
-112.738464
23
-1.409902
33
53.350109
0
3DFACE
8
InclinB
62
5.000000
10
-103.444771
20
-1.409902
30
66.130112
11
-112.738464
21
-1.409902
31
53.350109
12
-112.453674
22
-1.409902
32
62.185146
13
-112.453674
23
-1.409902
33
62.185146
0
3DFACE
8
InclinB
62
5.000000
10
-103.444771
20
-1.409902
30
66.130112
11
-112.453674
21
-1.409902
31
62.185146
12
-111.283005
22
-1.409902
32
74.200874
13
-111.283005
23
-1.409902
33
74.200874
0
3DFACE
8
GouvB
62
6.000000
10
-14.396465
20
0.162637
30
39.871735
11
-15.990479
21
0.162637
31
33.894203
12
-25.318588
22
-1.584629
32
37.239998
13
-24.060555
23
-1.584629
33
41.957615
0
3DFACE
8
GouvB
62
6.000000
10
-15.990479
20
0.162637
30
33.894203
11
-51.058720
21
0.162637
31
31.320221
12
-52.995274
22
-1.584629
32
35.812695
13
-25.318588
23
-1.584629
33
37.239998
0
3DFACE
8
GouvB
62
6.000000
10
-51.058720
20
0.162637
30
31.320221
11
-97.734703
21
0.162637
31
31.116209
12
-95.348991
22
-1.584629
32
35.413429
13
-52.995274
23
-1.584629
33
35.812695
0
3DFACE
8
GouvB
62
6.000000
10
-97.734703
20
0.162637
30
31.116209
11
-97.709518
21
0.162637
31
65.016930
12
-96.432297
22
-1.584629
32
61.526997
13
-95.348991
23
-1.584629
33
35.413429
0
3DFACE
8
GouvB
62
6.000000
10
-97.709518
20
0.162637
30
65.016930
11
-94.716919
21
0.162637
31
75.117104
12
-87.451355
22
-1.584629
32
69.774094
13
-96.432297
23
-1.584629
33
61.526997
0
3DFACE
8
GouvB
62
6.000000
10
-94.716919
20
0.162637
30
75.117104
11
-82.761833
21
0.162637
31
74.054428
12
-78.016113
22
-1.584629
32
68.935402
13
-87.451355
23
-1.584629
33
69.774094
0
3DFACE
8
GouvB
62
6.000000
10
-82.761833
20
0.162637
30
74.054428
11
-39.679256
21
0.162637
31
44.299549
12
-44.014328
22
-1.584629
32
45.452145
13
-78.016113
23
-1.584629
33
68.935402
0
3DFACE
8
GouvB
62
6.000000
10
-39.679256
20
0.162637
30
44.299549
11
-14.485025
21
0.162637
31
39.694633
12
-24.130447
22
-1.584629
32
41.817841
13
-44.014328
23
-1.584629
33
45.452145
0
3DFACE
8
GouvB
62
6.000000
10
-23.566401
20
1.909902
30
41.850952
11
-24.841614
21
1.909902
31
37.068928
12
-15.990479
22
0.162637
32
33.894203
13
-14.396465
23
0.162637
33
39.871735
0
3DFACE
8
GouvB
62
6.000000
10
-24.841614
20
1.909902
30
37.068928
11
-52.896252
21
1.909902
31
35.582970
12
-51.058720
22
0.162637
32
31.320221
13
-15.990479
23
0.162637
33
33.894203
0
3DFACE
8
GouvB
62
6.000000
10
-52.896252
20
1.909902
30
35.582970
11
-95.828354
21
1.909902
31
35.160625
12
-97.734703
22
0.162637
32
31.116209
13
-51.058720
23
0.162637
33
31.320221
0
3DFACE
8
GouvB
62
6.000000
10
-95.828354
20
1.909902
30
35.160625
11
-96.926445
21
1.909902
31
61.687588
12
-97.709518
22
0.162637
32
65.016930
13
-97.734703
23
0.162637
33
31.116209
0
3DFACE
8
GouvB
62
6.000000
10
-96.926445
20
1.909902
30
61.687588
11
-87.822861
21
1.909902
31
70.047295
12
-94.716919
22
0.162637
32
75.117104
13
-97.709518
23
0.162637
33
65.016930
0
3DFACE
8
GouvB
62
6.000000
10
-87.822861
20
1.909902
30
70.047295
11
-78.258781
21
1.909902
31
69.197151
12
-82.761833
22
0.162637
32
74.054428
13
-94.716919
23
0.162637
33
75.117104
0
3DFACE
8
GouvB
62
6.000000
10
-78.258781
20
1.909902
30
69.197151
11
-43.792664
21
1.909902
31
45.393219
12
-39.679256
22
0.162637
32
44.299549
13
-82.761833
23
0.162637
33
74.054428
0
3DFACE
8
GouvB
62
6.000000
10
-43.792664
20
1.909902
30
45.393219
11
-23.637249
21
1.909902
31
41.709270
12
-14.485025
22
0.162637
32
39.694633
13
-39.679256
23
0.162637
33
44.299549
0
3DFACE
8
GouvB
62
6.000000
10
-43.664501
20
-1.584629
30
45.459648
11
-24.130447
21
-1.584629
31
41.817841
12
-25.318588
22
-1.584629
32
37.239998
13
-25.318588
23
-1.584629
33
37.239998
0
3DFACE
8
GouvB
62
6.000000
10
-43.664501
20
-1.584629
30
45.459648
11
-25.318588
21
-1.584629
31
37.239998
12
-52.995274
22
-1.584629
32
35.812695
13
-52.995274
23
-1.584629
33
35.812695
0
3DFACE
8
GouvB
62
6.000000
10
-43.664501
20
-1.584629
30
45.459648
11
-52.995274
21
-1.584629
31
35.812695
12
-95.348991
22
-1.584629
32
35.413429
13
-95.348991
23
-1.584629
33
35.413429
0
3DFACE
8
GouvB
62
6.000000
10
-43.664501
20
-1.584629
30
45.459648
11
-95.348991
21
-1.584629
31
35.413429
12
-96.432297
22
-1.584629
32
61.526997
13
-96.432297
23
-1.584629
33
61.526997
0
3DFACE
8
GouvB
62
6.000000
10
-43.664501
20
-1.584629
30
45.459648
11
-96.432297
21
-1.584629
31
61.526997
12
-87.451355
22
-1.584629
32
69.774094
13
-87.451355
23
-1.584629
33
69.774094
0
3DFACE
8
GouvB
62
6.000000
10
-43.664501
20
-1.584629
30
45.459648
11
-87.451355
21
-1.584629
31
69.774094
12
-78.016113
22
-1.584629
32
68.935402
13
-78.016113
23
-1.584629
33
68.935402
0
3DFACE
8
GouvB
62
6.000000
10
-78.258781
20
1.909902
30
69.197151
11
-87.822861
21
1.909902
31
70.047295
12
-96.926445
22
1.909902
32
61.687588
13
-96.926445
23
1.909902
33
61.687588
0
3DFACE
8
GouvB
62
6.000000
10
-78.258781
20
1.909902
30
69.197151
11
-96.926445
21
1.909902
31
61.687588
12
-95.828354
22
1.909902
32
35.160625
13
-95.828354
23
1.909902
33
35.160625
0
3DFACE
8
GouvB
62
6.000000
10
-78.258781
20
1.909902
30
69.197151
11
-95.828354
21
1.909902
31
35.160625
12
-52.896252
22
1.909902
32
35.582970
13
-52.896252
23
1.909902
33
35.582970
0
3DFACE
8
GouvB
62
6.000000
10
-52.896252
20
1.909902
30
35.582970
11
-24.841614
21
1.909902
31
37.068928
12
-23.566401
22
1.909902
32
41.850952
13
-23.566401
23
1.909902
33
41.850952
0
3DFACE
8
GouvB
62
6.000000
10
-52.896252
20
1.909902
30
35.582970
11
-23.566401
21
1.909902
31
41.850952
12
-43.792664
22
1.909902
32
45.393219
13
-43.792664
23
1.909902
33
45.393219
0
3DFACE
8
GouvB
62
6.000000
10
-52.896252
20
1.909902
30
35.582970
11
-43.792664
21
1.909902
31
45.393219
12
-78.258781
22
1.909902
32
69.197151
13
-78.258781
23
1.909902
33
69.197151
0
3DFACE
8
InclinD
62
7.000000
10
-100.995102
20
66.199768
30
106.350639
11
-110.461777
21
65.363899
31
106.350639
12
-110.645035
22
67.166496
32
104.603378
13
-100.297714
23
68.080116
33
104.603378
0
3DFACE
8
InclinD
62
7.000000
10
-110.461777
20
65.363899
30
106.350639
11
-114.627258
21
59.071644
31
106.350639
12
-115.198021
22
60.288898
32
104.603378
13
-110.645035
23
67.166496
33
104.603378
0
3DFACE
8
InclinD
62
7.000000
10
-114.627258
20
59.071644
30
106.350639
11
-115.988380
21
47.785450
31
106.350639
12
-116.685745
22
47.952808
32
104.603378
13
-115.198021
23
60.288898
33
104.603378
0
3DFACE
8
InclinD
62
7.000000
10
-115.988380
20
47.785450
30
106.350639
11
-115.703575
21
31.273384
31
106.350632
12
-116.374458
22
30.545286
32
104.603378
13
-116.685745
23
47.952808
33
104.603378
0
3DFACE
8
InclinD
62
7.000000
10
-115.703575
20
31.273384
30
106.350632
11
-114.532906
21
22.652353
31
106.350632
12
-115.094894
22
21.122272
32
104.603378
13
-116.374458
23
30.545286
33
104.603378
0
3DFACE
8
InclinD
62
7.000000
10
-114.532906
20
22.652353
30
106.350632
11
-112.555008
21
21.930328
31
106.350632
12
-112.932991
22
20.333082
32
104.603378
13
-115.094894
23
21.122272
33
104.603378
0
3DFACE
8
InclinD
62
7.000000
10
-112.555008
20
21.930328
30
106.350632
11
-108.985336
21
22.413275
31
106.350632
12
-109.031258
22
20.860962
32
104.603378
13
-112.932991
23
20.333082
33
104.603378
0
3DFACE
8
InclinD
62
7.000000
10
-108.985336
20
22.413275
30
106.350632
11
-106.694679
21
28.442951
31
106.350632
12
-106.527496
22
27.451544
32
104.603378
13
-109.031258
23
20.860962
33
104.603378
0
3DFACE
8
InclinD
62
7.000000
10
-106.694679
20
28.442951
30
106.350632
11
-101.173317
21
29.031630
31
106.350632
12
-100.492516
22
28.094980
32
104.603378
13
-106.527496
23
27.451544
33
104.603378
0
3DFACE
8
InclinD
62
7.000000
10
-100.297714
20
68.080116
30
104.603378
11
-110.645035
21
67.166496
31
104.603378
12
-110.491234
22
65.653633
32
102.856110
13
-100.883003
23
66.501991
33
102.856110
0
3DFACE
8
InclinD
62
7.000000
10
-110.645035
20
67.166496
30
104.603378
11
-115.198021
21
60.288898
31
104.603378
12
-114.719002
22
59.267296
32
102.856110
13
-110.491234
23
65.653633
33
102.856110
0
3DFACE
8
InclinD
62
7.000000
10
-115.198021
20
60.288898
30
104.603378
11
-116.685745
21
47.952808
31
104.603378
12
-116.100464
22
47.812336
32
102.856110
13
-114.719002
23
59.267296
33
102.856110
0
3DFACE
8
InclinD
62
7.000000
10
-116.685745
20
47.952808
30
104.603378
11
-116.374458
21
30.545286
31
104.603378
12
-115.811409
22
31.156355
32
102.856110
13
-116.100464
23
47.812336
33
102.856110
0
3DFACE
8
InclinD
62
7.000000
10
-116.374458
20
30.545286
30
104.603378
11
-115.094894
21
21.122272
31
104.603378
12
-114.623253
22
22.406424
32
102.856110
13
-115.811409
23
31.156355
33
102.856110
0
3DFACE
8
InclinD
62
7.000000
10
-115.094894
20
21.122272
30
104.603378
11
-112.932991
21
20.333082
31
104.603378
12
-112.615746
22
21.673599
32
102.856110
13
-114.623253
23
22.406424
33
102.856110
0
3DFACE
8
InclinD
62
7.000000
10
-112.932991
20
20.333082
30
104.603378
11
-109.031258
21
20.860962
31
104.603378
12
-108.992729
22
22.163780
32
102.856110
13
-112.615746
23
21.673599
33
102.856110
0
3DFACE
8
InclinD
62
7.000000
10
-109.031258
20
20.860962
30
104.603378
11
-106.527496
21
27.451544
31
104.603378
12
-106.667816
22
28.283600
32
102.856110
13
-108.992729
23
22.163780
33
102.856110
0
3DFACE
8
InclinD
62
7.000000
10
-106.527496
20
27.451544
30
104.603378
11
-100.492516
21
28.094980
31
104.603378
12
-101.063896
22
28.881077
32
102.856110
13
-106.667816
23
28.283600
33
102.856110
0
3DFACE
8
InclinD
62
7.000000
10
-100.883003
20
66.501991
30
102.856110
11
-110.491234
21
65.653633
31
102.856110
12
-114.719002
22
59.267296
32
102.856110
13
-114.719002
23
59.267296
33
102.856110
0
3DFACE
8
InclinD
62
7.000000
10
-100.883003
20
66.501991
30
102.856110
11
-114.719002
21
59.267296
31
102.856110
12
-116.100464
22
47.812336
32
102.856110
13
-116.100464
23
47.812336
33
102.856110
0
3DFACE
8
InclinD
62
7.000000
10
-100.883003
20
66.501991
30
102.856110
11
-116.100464
21
47.812336
31
102.856110
12
-115.811409
22
31.156355
32
102.856110
13
-115.811409
23
31.156355
33
102.856110
0
3DFACE
8
InclinD
62
7.000000
10
-100.883003
20
66.501991
30
102.856110
11
-115.811409
21
31.156355
31
102.856110
12
-114.623253
22
22.406424
32
102.856110
13
-114.623253
23
22.406424
33
102.856110
0
3DFACE
8
InclinD
62
7.000000
10
-100.883003
20
66.501991
30
102.856110
11
-114.623253
21
22.406424
31
102.856110
12
-112.615746
22
21.673599
32
102.856110
13
-112.615746
23
21.673599
33
102.856110
0
3DFACE
8
InclinD
62
7.000000
10
-100.883003
20
66.501991
30
102.856110
11
-112.615746
21
21.673599
31
102.856110
12
-108.992729
22
22.163780
32
102.856110
13
-108.992729
23
22.163780
33
102.856110
0
3DFACE
8
InclinD
62
7.000000
10
-100.883003
20
66.501991
30
102.856110
11
-108.992729
21
22.163780
31
102.856110
12
-106.667816
22
28.283600
32
102.856110
13
-106.667816
23
28.283600
33
102.856110
0
3DFACE
8
InclinD
62
7.000000
10
-100.883003
20
66.501991
30
102.856110
11
-106.667816
21
28.283600
31
102.856110
12
-101.063896
22
28.881077
32
102.856110
13
-101.063896
23
28.881077
33
102.856110
0
3DFACE
8
InclinD
62
7.000000
10
-115.703575
20
31.273384
30
106.350632
11
-115.988380
21
47.785450
31
106.350639
12
-114.627258
22
59.071644
32
106.350639
13
-114.627258
23
59.071644
33
106.350639
0
3DFACE
8
InclinD
62
7.000000
10
-115.703575
20
31.273384
30
106.350632
11
-114.627258
21
59.071644
31
106.350639
12
-110.461777
22
65.363899
32
106.350639
13
-110.461777
23
65.363899
33
106.350639
0
3DFACE
8
InclinD
62
7.000000
10
-115.703575
20
31.273384
30
106.350632
11
-110.461777
21
65.363899
31
106.350639
12
-100.995102
22
66.199768
32
106.350639
13
-100.995102
23
66.199768
33
106.350639
0
3DFACE
8
InclinD
62
7.000000
10
-115.703575
20
31.273384
30
106.350632
11
-100.995102
21
66.199768
31
106.350639
12
-101.173317
22
29.031630
32
106.350632
13
-101.173317
23
29.031630
33
106.350632
0
3DFACE
8
InclinD
62
7.000000
10
-115.703575
20
31.273384
30
106.350632
11
-101.173317
21
29.031630
31
106.350632
12
-106.694679
22
28.442951
32
106.350632
13
-106.694679
23
28.442951
33
106.350632
0
3DFACE
8
InclinD
62
7.000000
10
-115.703575
20
31.273384
30
106.350632
11
-106.694679
21
28.442951
31
106.350632
12
-108.985336
22
22.413275
32
106.350632
13
-108.985336
23
22.413275
33
106.350632
0
3DFACE
8
InclinD
62
7.000000
10
-115.703575
20
31.273384
30
106.350632
11
-108.985336
21
22.413275
31
106.350632
12
-112.555008
22
21.930328
32
106.350632
13
-112.555008
23
21.930328
33
106.350632
0
3DFACE
8
InclinD
62
7.000000
10
-115.703575
20
31.273384
30
106.350632
11
-112.555008
21
21.930328
31
106.350632
12
-114.532906
22
22.652353
32
106.350632
13
-114.532906
23
22.652353
33
106.350632
0
3DFACE
8
GouvD
62
8.000000
10
-27.310467
20
45.786213
30
106.525368
11
-28.568501
21
49.171001
31
106.525368
12
-19.240391
22
51.571545
32
104.778099
13
-17.646378
23
47.282784
33
104.778099
0
3DFACE
8
GouvD
62
8.000000
10
-28.568501
20
49.171001
30
106.525368
11
-56.245182
21
62.240135
31
106.525368
12
-54.308636
22
66.240723
32
104.778099
13
-19.240391
23
51.571545
33
104.778099
0
3DFACE
8
GouvD
62
8.000000
10
-56.245182
20
62.240135
30
106.525368
11
-98.598907
21
64.158707
31
106.525368
12
-100.984612
22
68.081345
32
104.778099
13
-54.308636
23
66.240723
33
104.778099
0
3DFACE
8
GouvD
62
8.000000
10
-98.598907
20
64.158707
30
106.525368
11
-99.682213
21
31.745592
31
106.525368
12
-100.959427
22
29.241642
32
104.778091
13
-100.984612
23
68.081345
33
104.778099
0
3DFACE
8
GouvD
62
8.000000
10
-99.682213
20
31.745592
30
106.525368
11
-90.701263
21
25.828476
31
106.525368
12
-97.966835
22
21.994978
32
104.778091
13
-100.959427
23
29.241642
33
104.778091
0
3DFACE
8
GouvD
62
8.000000
10
-90.701263
20
25.828476
30
106.525368
11
-81.266029
21
26.430223
31
106.525368
12
-86.011749
22
22.757427
32
104.778091
13
-97.966835
23
21.994978
33
104.778091
0
3DFACE
8
GouvD
62
8.000000
10
-81.266029
20
26.430223
30
106.525368
11
-47.264244
21
43.278954
31
106.525368
12
-42.929165
22
44.105919
32
104.778091
13
-86.011749
23
22.757427
33
104.778091
0
3DFACE
8
GouvD
62
8.000000
10
-47.264244
20
43.278954
30
106.525368
11
-27.380360
21
45.886494
31
106.525368
12
-17.734938
22
47.409855
32
104.778099
13
-42.929165
23
44.105919
33
104.778091
0
3DFACE
8
GouvD
62
8.000000
10
-17.646378
20
47.282784
30
104.778099
11
-19.240391
21
51.571545
31
104.778099
12
-28.091526
22
49.293739
32
103.030838
13
-26.816313
23
45.862736
33
103.030838
0
3DFACE
8
GouvD
62
8.000000
10
-19.240391
20
51.571545
30
104.778099
11
-54.308636
21
66.240723
31
104.778099
12
-56.146168
22
62.444698
32
103.030838
13
-28.091526
23
49.293739
33
103.030838
0
3DFACE
8
GouvD
62
8.000000
10
-54.308636
20
66.240723
30
104.778099
11
-100.984612
21
68.081345
31
104.778099
12
-99.078270
22
64.389465
32
103.030838
13
-56.146168
23
62.444698
33
103.030838
0
3DFACE
8
GouvD
62
8.000000
10
-100.984612
20
68.081345
30
104.778099
11
-100.959427
21
29.241642
31
104.778091
12
-100.176369
22
31.630373
32
103.030838
13
-99.078270
23
64.389465
33
103.030838
0
3DFACE
8
GouvD
62
8.000000
10
-100.959427
20
29.241642
30
104.778091
11
-97.966835
21
21.994978
31
104.778091
12
-91.072784
22
25.632458
32
103.030830
13
-100.176369
23
31.630373
33
103.030838
0
3DFACE
8
GouvD
62
8.000000
10
-97.966835
20
21.994978
30
104.778091
11
-86.011749
21
22.757427
31
104.778091
12
-81.508690
22
26.242424
32
103.030830
13
-91.072784
23
25.632458
33
103.030830
0
3DFACE
8
GouvD
62
8.000000
10
-86.011749
20
22.757427
30
104.778091
11
-42.929165
21
44.105919
31
104.778091
12
-47.042576
22
43.321236
32
103.030838
13
-81.508690
23
26.242424
33
103.030830
0
3DFACE
8
GouvD
62
8.000000
10
-42.929165
20
44.105919
30
104.778091
11
-17.734938
21
47.409855
31
104.778099
12
-26.887161
22
45.964394
32
103.030838
13
-47.042576
23
43.321236
33
103.030838
0
3DFACE
8
GouvD
62
8.000000
10
-81.266029
20
26.430223
30
106.525368
11
-90.701263
21
25.828476
31
106.525368
12
-99.682213
22
31.745592
32
106.525368
13
-99.682213
23
31.745592
33
106.525368
0
3DFACE
8
GouvD
62
8.000000
10
-81.266029
20
26.430223
30
106.525368
11
-99.682213
21
31.745592
31
106.525368
12
-98.598907
22
64.158707
32
106.525368
13
-98.598907
23
64.158707
33
106.525368
0
3DFACE
8
GouvD
62
8.000000
10
-81.266029
20
26.430223
30
106.525368
11
-98.598907
21
64.158707
31
106.525368
12
-56.245182
22
62.240135
32
106.525368
13
-56.245182
23
62.240135
33
106.525368
0
3DFACE
8
GouvD
62
8.000000
10
-56.245182
20
62.240135
30
106.525368
11
-28.568501
21
49.171001
31
106.525368
12
-27.380360
22
45.886494
32
106.525368
13
-27.380360
23
45.886494
33
106.525368
0
3DFACE
8
GouvD
62
8.000000
10
-56.245182
20
62.240135
30
106.525368
11
-27.380360
21
45.886494
31
106.525368
12
-46.914413
22
43.273579
32
106.525368
13
-46.914413
23
43.273579
33
106.525368
0
3DFACE
8
GouvD
62
8.000000
10
-56.245182
20
62.240135
30
106.525368
11
-46.914413
21
43.273579
31
106.525368
12
-81.266029
22
26.430223
32
106.525368
13
-81.266029
23
26.430223
33
106.525368
0
3DFACE
8
GouvD
62
8.000000
10
-47.042576
20
43.321236
30
103.030838
11
-26.816313
21
45.862736
31
103.030838
12
-28.091526
22
49.293739
32
103.030838
13
-28.091526
23
49.293739
33
103.030838
0
3DFACE
8
GouvD
62
8.000000
10
-47.042576
20
43.321236
30
103.030838
11
-28.091526
21
49.293739
31
103.030838
12
-56.146168
22
62.444698
32
103.030838
13
-56.146168
23
62.444698
33
103.030838
0
3DFACE
8
GouvD
62
8.000000
10
-47.042576
20
43.321236
30
103.030838
11
-56.146168
21
62.444698
31
103.030838
12
-99.078270
22
64.389465
32
103.030838
13
-99.078270
23
64.389465
33
103.030838
0
3DFACE
8
GouvD
62
8.000000
10
-47.042576
20
43.321236
30
103.030838
11
-99.078270
21
64.389465
31
103.030838
12
-100.176369
22
31.630373
32
103.030838
13
-100.176369
23
31.630373
33
103.030838
0
3DFACE
8
GouvD
62
8.000000
10
-47.042576
20
43.321236
30
103.030838
11
-100.176369
21
31.630373
31
103.030838
12
-91.072784
22
25.632458
32
103.030830
13
-91.072784
23
25.632458
33
103.030830
0
3DFACE
8
GouvD
62
8.000000
10
-47.042576
20
43.321236
30
103.030838
11
-91.072784
21
25.632458
31
103.030830
12
-81.508690
22
26.242424
32
103.030830
13
-81.508690
23
26.242424
33
103.030830
0
3DFACE
8
HelD
62
9.000000
10
-36.343357
20
19.038868
30
3.168506
11
-36.343357
21
13.884583
31
-2.479959
12
-36.343357
22
11.652846
32
-9.793725
13
-36.343357
23
11.652846
33
-9.793725
0
3DFACE
8
HelD
62
9.000000
10
-36.343357
20
19.038868
30
3.168506
11
-36.343357
21
11.652846
31
-9.793725
12
-36.343357
22
12.311226
32
-13.363742
13
-36.343357
23
12.311226
33
-13.363742
0
3DFACE
8
HelD
62
9.000000
10
-36.343357
20
19.038868
30
3.168506
11
-36.343357
21
12.311226
31
-13.363742
12
-36.343357
22
14.245293
32
-16.494949
13
-36.343357
23
14.245293
33
-16.494949
0
3DFACE
8
HelD
62
9.000000
10
-36.343357
20
19.038868
30
3.168506
11
-36.343357
21
14.245293
31
-16.494949
12
-36.343357
22
15.823050
32
-17.981537
13
-36.343357
23
15.823050
33
-17.981537
0
3DFACE
8
HelD
62
9.000000
10
-36.343357
20
19.038868
30
3.168506
11
-36.343357
21
15.823050
31
-17.981537
12
-36.343357
22
17.767103
32
-18.940657
13
-36.343357
23
17.767103
33
-18.940657
0
3DFACE
8
HelD
62
9.000000
10
-36.343357
20
19.038868
30
3.168506
11
-36.343357
21
17.767103
31
-18.940657
12
-36.343357
22
20.310637
32
-10.282864
13
-36.343357
23
20.310637
33
-10.282864
0
3DFACE
8
HelD
62
9.000000
10
-36.343357
20
17.767103
30
-18.940657
11
-38.006432
21
19.625841
31
-16.496513
12
-38.006432
22
22.071545
32
-9.670864
13
-36.343357
23
20.310637
33
-10.282864
0
3DFACE
8
HelD
62
9.000000
10
-36.343357
20
20.310637
30
-10.282864
11
-38.006432
21
22.071545
31
-9.670864
12
-38.006432
22
20.946518
32
0.877873
13
-36.343357
23
19.283442
33
3.021764
0
3DFACE
8
HelD
62
9.000000
10
-36.343357
20
18.960232
30
4.325825
11
-36.343357
21
24.114519
31
9.974289
12
-36.343357
22
26.346256
32
17.288054
13
-36.343357
23
26.346256
33
17.288054
0
3DFACE
8
HelD
62
9.000000
10
-36.343357
20
18.960232
30
4.325825
11
-36.343357
21
26.346256
31
17.288054
12
-36.343357
22
25.687878
32
20.858074
13
-36.343357
23
25.687878
33
20.858074
0
3DFACE
8
HelD
62
9.000000
10
-36.343357
20
18.960232
30
4.325825
11
-36.343357
21
25.687878
31
20.858074
12
-36.343357
22
23.753807
32
23.989285
13
-36.343357
23
23.753807
33
23.989285
0
3DFACE
8
HelD
62
9.000000
10
-36.343357
20
18.960232
30
4.325825
11
-36.343357
21
23.753807
31
23.989285
12
-36.343357
22
22.176054
32
25.475870
13
-36.343357
23
22.176054
33
25.475870
0
3DFACE
8
HelD
62
9.000000
10
-36.343357
20
18.960232
30
4.325825
11
-36.343357
21
22.176054
31
25.475870
12
-36.343357
22
20.231995
32
26.434986
13
-36.343357
23
20.231995
33
26.434986
0
3DFACE
8
HelD
62
9.000000
10
-36.343357
20
18.960232
30
4.325825
11
-36.343357
21
20.231995
31
26.434986
12
-36.343357
22
17.688465
32
17.777195
13
-36.343357
23
17.688465
33
17.777195
0
3DFACE
8
HelD
62
9.000000
10
-36.343357
20
20.231995
30
26.434986
11
-38.006432
21
18.373260
31
23.990849
12
-38.006432
22
15.927557
32
17.165192
13
-36.343357
23
17.688465
33
17.777195
0
3DFACE
8
HelD
62
9.000000
10
-36.343357
20
17.688465
30
17.777195
11
-38.006432
21
15.927557
31
17.165192
12
-38.006432
22
17.052582
32
6.616457
13
-36.343357
23
18.715660
33
4.472567
0
3DFACE
8
HelD
62
9.000000
10
-36.343357
20
18.029579
30
3.561104
11
-36.343357
21
12.381115
31
8.715389
12
-36.343357
22
5.067350
32
10.947128
13
-36.343357
23
5.067350
33
10.947128
0
3DFACE
8
HelD
62
9.000000
10
-36.343357
20
18.029579
30
3.561104
11
-36.343357
21
5.067350
31
10.947128
12
-36.343357
22
1.497333
32
10.288748
13
-36.343357
23
1.497333
33
10.288748
0
3DFACE
8
HelD
62
9.000000
10
-36.343357
20
18.029579
30
3.561104
11
-36.343357
21
1.497333
31
10.288748
12
-36.343357
22
-1.633875
32
8.354683
13
-36.343357
23
-1.633875
33
8.354683
0
3DFACE
8
HelD
62
9.000000
10
-36.343357
20
18.029579
30
3.561104
11
-36.343357
21
-1.633875
31
8.354683
12
-36.343357
22
-3.120462
32
6.776924
13
-36.343357
23
-3.120462
33
6.776924
0
3DFACE
8
HelD
62
9.000000
10
-36.343357
20
18.029579
30
3.561104
11
-36.343357
21
-3.120462
31
6.776924
12
-36.343357
22
-4.079582
32
4.832870
13
-36.343357
23
-4.079582
33
4.832870
0
3DFACE
8
HelD
62
9.000000
10
-36.343357
20
18.029579
30
3.561104
11
-36.343357
21
-4.079582
31
4.832870
12
-36.343357
22
4.578208
32
2.289337
13
-36.343357
23
4.578208
33
2.289337
0
3DFACE
8
HelD
62
9.000000
10
-36.343357
20
-4.079582
30
4.832870
11
-38.006432
21
-1.635441
31
2.974134
12
-38.006432
22
5.190212
32
0.528430
13
-36.343357
23
4.578208
33
2.289337
0
3DFACE
8
HelD
62
9.000000
10
-36.343357
20
4.578208
30
2.289337
11
-38.006432
21
5.190212
31
0.528430
12
-38.006432
22
15.738948
32
1.653454
13
-36.343357
23
17.882839
33
3.316533
0
3DFACE
8
HelD
62
9.000000
10
-36.343357
20
19.186899
30
3.639742
11
-36.343357
21
24.835361
31
-1.514545
12
-36.343357
22
32.149132
32
-3.746284
13
-36.343357
23
32.149132
33
-3.746284
0
3DFACE
8
HelD
62
9.000000
10
-36.343357
20
19.186899
30
3.639742
11
-36.343357
21
32.149132
31
-3.746284
12
-36.343357
22
35.719151
32
-3.087902
13
-36.343357
23
35.719151
33
-3.087902
0
3DFACE
8
HelD
62
9.000000
10
-36.343357
20
19.186899
30
3.639742
11
-36.343357
21
35.719151
31
-3.087902
12
-36.343357
22
38.850357
32
-1.153836
13
-36.343357
23
38.850357
33
-1.153836
0
3DFACE
8
HelD
62
9.000000
10
-36.343357
20
19.186899
30
3.639742
11
-36.343357
21
38.850357
31
-1.153836
12
-36.343357
22
40.336941
32
0.423922
13
-36.343357
23
40.336941
33
0.423922
0
3DFACE
8
HelD
62
9.000000
10
-36.343357
20
19.186899
30
3.639742
11
-36.343357
21
40.336941
31
0.423922
12
-36.343357
22
41.296059
32
2.367977
13
-36.343357
23
41.296059
33
2.367977
0
3DFACE
8
HelD
62
9.000000
10
-36.343357
20
19.186899
30
3.639742
11
-36.343357
21
41.296059
31
2.367977
12
-36.343357
22
32.638271
32
4.911510
13
-36.343357
23
32.638271
33
4.911510
0
3DFACE
8
HelD
62
9.000000
10
-36.343357
20
41.296059
30
2.367977
11
-38.006432
21
38.851913
31
4.226711
12
-38.006432
22
32.026268
32
6.672416
13
-36.343357
23
32.638271
33
4.911510
0
3DFACE
8
HelD
62
9.000000
10
-36.343357
20
32.638271
30
4.911510
11
-38.006432
21
32.026268
31
6.672416
12
-38.006432
22
21.477531
32
5.547392
13
-36.343357
23
19.333641
33
3.884313
0
3DFACE
8
HelG
62
10.000000
10
-36.343357
20
-18.426296
30
3.037667
11
-36.343357
21
-25.349810
31
-0.208375
12
-36.343357
22
-30.210524
32
-6.111364
13
-36.343357
23
-30.210524
33
-6.111364
0
3DFACE
8
HelG
62
10.000000
10
-36.343357
20
-18.426296
30
3.037667
11
-36.343357
21
-30.210524
31
-6.111364
12
-36.343357
22
-30.968445
32
-9.661583
13
-36.343357
23
-30.968445
33
-9.661583
0
3DFACE
8
HelG
62
10.000000
10
-36.343357
20
-18.426296
30
3.037667
11
-36.343357
21
-30.968445
31
-9.661583
12
-36.343357
22
-30.379862
32
-13.294575
13
-36.343357
23
-30.379862
33
-13.294575
0
3DFACE
8
HelG
62
10.000000
10
-36.343357
20
-18.426296
30
3.037667
11
-36.343357
21
-30.379862
31
-13.294575
12
-36.343357
22
-29.491096
32
-15.271785
13
-36.343357
23
-29.491096
33
-15.271785
0
3DFACE
8
HelG
62
10.000000
10
-36.343357
20
-18.426296
30
3.037667
11
-36.343357
21
-29.491096
31
-15.271785
12
-36.343357
22
-28.062065
32
-16.901850
13
-36.343357
23
-28.062065
33
-16.901850
0
3DFACE
8
HelG
62
10.000000
10
-36.343357
20
-18.426296
30
3.037667
11
-36.343357
21
-28.062065
31
-16.901850
12
-36.343357
22
-22.398954
32
-9.876463
13
-36.343357
23
-22.398954
33
-9.876463
0
3DFACE
8
HelG
62
10.000000
10
-36.343357
20
-28.062065
30
-16.901850
11
-38.006432
21
-25.409485
31
-15.355065
12
-38.006432
22
-20.537884
32
-9.984918
13
-36.343357
23
-22.398954
33
-9.876463
0
3DFACE
8
HelG
62
10.000000
10
-36.343357
20
-22.398954
30
-9.876463
11
-38.006432
21
-20.537884
31
-9.984918
12
-38.006432
22
-17.540445
32
0.191374
13
-36.343357
23
-18.256498
33
2.808501
0
3DFACE
8
HelG
62
10.000000
10
-36.343357
20
-18.056063
30
4.136984
11
-36.343357
21
-11.132549
31
7.383024
12
-36.343357
22
-6.271834
32
13.286014
13
-36.343357
23
-6.271834
33
13.286014
0
3DFACE
8
HelG
62
10.000000
10
-36.343357
20
-18.056063
30
4.136984
11
-36.343357
21
-6.271834
31
13.286014
12
-36.343357
22
-5.513912
32
16.836231
13
-36.343357
23
-5.513912
33
16.836231
0
3DFACE
8
HelG
62
10.000000
10
-36.343357
20
-18.056063
30
4.136984
11
-36.343357
21
-5.513912
31
16.836231
12
-36.343357
22
-6.102494
32
20.469229
13
-36.343357
23
-6.102494
33
20.469229
0
3DFACE
8
HelG
62
10.000000
10
-36.343357
20
-18.056063
30
4.136984
11
-36.343357
21
-6.102494
31
20.469229
12
-36.343357
22
-6.991260
32
22.446436
13
-36.343357
23
-6.991260
33
22.446436
0
3DFACE
8
HelG
62
10.000000
10
-36.343357
20
-18.056063
30
4.136984
11
-36.343357
21
-6.991260
31
22.446436
12
-36.343357
22
-8.420294
32
24.076504
13
-36.343357
23
-8.420294
33
24.076504
0
3DFACE
8
HelG
62
10.000000
10
-36.343357
20
-18.056063
30
4.136984
11
-36.343357
21
-8.420294
31
24.076504
12
-36.343357
22
-14.083405
32
17.051115
13
-36.343357
23
-14.083405
33
17.051115
0
3DFACE
8
HelG
62
10.000000
10
-36.343357
20
-8.420294
30
24.076504
11
-38.006432
21
-11.072873
31
22.529720
12
-38.006432
22
-15.944475
32
17.159567
13
-36.343357
23
-14.083405
33
17.051115
0
3DFACE
8
HelG
62
10.000000
10
-36.343357
20
-14.083405
30
17.051115
11
-38.006432
21
-15.944475
31
17.159567
12
-38.006432
22
-18.941914
32
6.983278
13
-36.343357
23
-18.225861
33
4.366150
0
3DFACE
8
HelG
62
10.000000
10
-36.343357
20
-19.208519
30
3.786619
11
-36.343357
21
-22.454557
31
10.710131
12
-36.343357
22
-28.357546
32
15.570848
13
-36.343357
23
-28.357546
33
15.570848
0
3DFACE
8
HelG
62
10.000000
10
-36.343357
20
-19.208519
30
3.786619
11
-36.343357
21
-28.357546
31
15.570848
12
-36.343357
22
-31.907764
32
16.328770
13
-36.343357
23
-31.907764
33
16.328770
0
3DFACE
8
HelG
62
10.000000
10
-36.343357
20
-19.208519
30
3.786619
11
-36.343357
21
-31.907764
31
16.328770
12
-36.343357
22
-35.540760
32
15.740186
13
-36.343357
23
-35.540760
33
15.740186
0
3DFACE
8
HelG
62
10.000000
10
-36.343357
20
-19.208519
30
3.786619
11
-36.343357
21
-35.540760
31
15.740186
12
-36.343357
22
-37.517971
32
14.851418
13
-36.343357
23
-37.517971
33
14.851418
0
3DFACE
8
HelG
62
10.000000
10
-36.343357
20
-19.208519
30
3.786619
11
-36.343357
21
-37.517971
31
14.851418
12
-36.343357
22
-39.148037
32
13.422386
13
-36.343357
23
-39.148037
33
13.422386
0
3DFACE
8
HelG
62
10.000000
10
-36.343357
20
-19.208519
30
3.786619
11
-36.343357
21
-39.148037
31
13.422386
12
-36.343357
22
-32.122650
32
7.759277
13
-36.343357
23
-32.122650
33
7.759277
0
3DFACE
8
HelG
62
10.000000
10
-36.343357
20
-39.148037
30
13.422386
11
-38.006432
21
-37.601254
31
10.769808
12
-38.006432
22
-32.231102
32
5.898207
13
-36.343357
23
-32.122650
33
7.759277
0
3DFACE
8
HelG
62
10.000000
10
-36.343357
20
-32.122650
30
7.759277
11
-38.006432
21
-32.231102
31
5.898207
12
-38.006432
22
-22.054811
32
2.900767
13
-36.343357
23
-19.437683
33
3.616821
0
3DFACE
8
HelG
62
10.000000
10
-36.343357
20
-18.109201
30
3.416384
11
-36.343357
21
-14.863159
31
-3.507131
12
-36.343357
22
-8.960171
32
-8.367846
13
-36.343357
23
-8.960171
33
-8.367846
0
3DFACE
8
HelG
62
10.000000
10
-36.343357
20
-18.109201
30
3.416384
11
-36.343357
21
-8.960171
31
-8.367846
12
-36.343357
22
-5.409953
32
-9.125768
13
-36.343357
23
-5.409953
33
-9.125768
0
3DFACE
8
HelG
62
10.000000
10
-36.343357
20
-18.109201
30
3.416384
11
-36.343357
21
-5.409953
31
-9.125768
12
-36.343357
22
-1.776957
32
-8.537187
13
-36.343357
23
-1.776957
33
-8.537187
0
3DFACE
8
HelG
62
10.000000
10
-36.343357
20
-18.109201
30
3.416384
11
-36.343357
21
-1.776957
31
-8.537187
12
-36.343357
22
0.200251
32
-7.648419
13
-36.343357
23
0.200251
33
-7.648419
0
3DFACE
8
HelG
62
10.000000
10
-36.343357
20
-18.109201
30
3.416384
11
-36.343357
21
0.200251
31
-7.648419
12
-36.343357
22
1.830317
32
-6.219386
13
-36.343357
23
1.830317
33
-6.219386
0
3DFACE
8
HelG
62
10.000000
10
-36.343357
20
-18.109201
30
3.416384
11
-36.343357
21
1.830317
31
-6.219386
12
-36.343357
22
-5.195070
32
-0.556274
13
-36.343357
23
-5.195070
33
-0.556274
0
3DFACE
8
HelG
62
10.000000
10
-36.343357
20
1.830317
30
-6.219386
11
-38.006432
21
0.283534
31
-3.566805
12
-38.006432
22
-5.086617
32
1.304796
13
-36.343357
23
-5.195070
33
-0.556274
0
3DFACE
8
HelG
62
10.000000
10
-36.343357
20
-5.195070
30
-0.556274
11
-38.006432
21
-5.086617
31
1.304796
12
-38.006432
22
-15.262908
32
4.302236
13
-36.343357
23
-17.880035
33
3.586182
0
3DFACE
8
CharnCan4
62
11.000000
10
23.937742
20
9.779840
30
18.406532
11
24.205257
21
9.779840
31
19.120981
12
24.690231
22
9.779840
32
18.532082
13
24.690231
23
9.779840
33
18.532082
0
3DFACE
8
CharnCan5
62
12.000000
10
6.837742
20
9.779840
30
18.406532
11
7.105257
21
9.779840
31
19.120981
12
7.590231
22
9.779840
32
18.532082
13
7.590231
23
9.779840
33
18.532082
0
3DFACE
8
CharnCan6
62
13.000000
10
-10.162257
20
9.779840
30
18.406532
11
-9.894743
21
9.779840
31
19.120981
12
-9.409769
22
9.779840
32
18.532082
13
-9.409769
23
9.779840
33
18.532082
0
3DFACE
8
CharnCan1
62
14.000000
10
23.937742
20
-9.100160
30
18.406532
11
24.205257
21
-9.100160
31
19.120981
12
24.690231
22
-9.100160
32
18.532082
13
24.690231
23
-9.100160
33
18.532082
0
3DFACE
8
CharnCan2
62
15.000000
10
6.837742
20
-9.100160
30
18.406532
11
7.105257
21
-9.100160
31
19.120981
12
7.590231
22
-9.100160
32
18.532082
13
7.590231
23
-9.100160
33
18.532082
0
3DFACE
8
CharnCan3
62
16.000000
10
-10.162257
20
-9.100160
30
18.406532
11
-9.894743
21
-9.100160
31
19.120981
12
-9.409769
22
-9.100160
32
18.532082
13
-9.409769
23
-9.100160
33
18.532082
0
3DFACE
8
FinBallon
62
17.000000
10
-47.664501
20
21.754232
30
157.300415
11
-47.664501
21
-0.186817
31
165.389511
12
-84.195511
22
-0.186817
32
139.870743
13
-84.195511
23
12.480851
33
135.200500
0
3DFACE
8
FinBallon
62
17.000000
10
-84.195511
20
12.480851
30
135.200500
11
-84.195511
21
-0.186817
31
139.870743
12
-97.566788
22
-0.186817
32
105.011497
13
-97.566788
23
-0.186817
33
105.011497
0
3DFACE
8
FinBallon
62
17.000000
10
-47.664501
20
37.816193
30
135.200500
11
-47.664501
21
21.754232
31
157.300415
12
-84.195511
22
12.480851
32
135.200500
13
-84.195511
23
21.754229
33
122.441132
0
3DFACE
8
FinBallon
62
17.000000
10
-84.195511
20
21.754229
30
122.441132
11
-84.195511
21
12.480851
31
135.200500
12
-97.566788
22
-0.186817
32
105.011497
13
-97.566788
23
-0.186817
33
105.011497
0
3DFACE
8
FinBallon
62
17.000000
10
-47.664501
20
43.695278
30
105.011513
11
-47.664501
21
37.816193
31
135.200500
12
-84.195511
22
21.754229
32
122.441132
13
-84.195511
23
25.148520
33
105.011513
0
3DFACE
8
FinBallon
62
17.000000
10
-84.195511
20
25.148520
30
105.011513
11
-84.195511
21
21.754229
31
122.441132
12
-97.566788
22
-0.186817
32
105.011497
13
-97.566788
23
-0.186817
33
105.011497
0
3DFACE
8
FinBallon
62
17.000000
10
-47.664501
20
37.816193
30
74.822510
11
-47.664501
21
43.695278
31
105.011513
12
-84.195511
22
25.148520
32
105.011513
13
-84.195511
23
21.754227
33
87.581871
0
3DFACE
8
FinBallon
62
17.000000
10
-84.195511
20
21.754227
30
87.581871
11
-84.195511
21
25.148520
31
105.011513
12
-97.566788
22
-0.186817
32
105.011497
13
-97.566788
23
-0.186817
33
105.011497
0
3DFACE
8
FinBallon
62
17.000000
10
-47.664501
20
21.754230
30
52.722626
11
-47.664501
21
37.816193
31
74.822510
12
-84.195511
22
21.754227
32
87.581871
13
-84.195511
23
12.480849
33
74.822510
0
3DFACE
8
FinBallon
62
17.000000
10
-84.195511
20
12.480849
30
74.822510
11
-84.195511
21
21.754227
31
87.581871
12
-97.566788
22
-0.186817
32
105.011497
13
-97.566788
23
-0.186817
33
105.011497
0
3DFACE
8
FinBallon
62
17.000000
10
-47.664501
20
-0.186817
30
44.633511
11
-47.664501
21
21.754230
31
52.722626
12
-84.195511
22
12.480849
32
74.822510
13
-84.195511
23
-0.186818
33
70.152260
0
3DFACE
8
FinBallon
62
17.000000
10
-84.195511
20
-0.186818
30
70.152260
11
-84.195511
21
12.480849
31
74.822510
12
-97.566788
22
-0.186817
32
105.011497
13
-97.566788
23
-0.186817
33
105.011497
0
3DFACE
8
FinBallon
62
17.000000
10
-47.664501
20
-22.127863
30
52.722626
11
-47.664501
21
-0.186817
31
44.633511
12
-84.195511
22
-0.186818
32
70.152260
13
-84.195511
23
-12.854486
33
74.822510
0
3DFACE
8
FinBallon
62
17.000000
10
-84.195511
20
-12.854486
30
74.822510
11
-84.195511
21
-0.186818
31
70.152260
12
-97.566788
22
-0.186817
32
105.011497
13
-97.566788
23
-0.186817
33
105.011497
0
3DFACE
8
FinBallon
62
17.000000
10
-47.664501
20
-38.189823
30
74.822510
11
-47.664501
21
-22.127863
31
52.722626
12
-84.195511
22
-12.854486
32
74.822510
13
-84.195511
23
-22.127861
33
87.581879
0
3DFACE
8
FinBallon
62
17.000000
10
-84.195511
20
-22.127861
30
87.581879
11
-84.195511
21
-12.854486
31
74.822510
12
-97.566788
22
-0.186817
32
105.011497
13
-97.566788
23
-0.186817
33
105.011497
0
3DFACE
8
FinBallon
62
17.000000
10
-47.664501
20
-44.068909
30
105.011513
11
-47.664501
21
-38.189823
31
74.822510
12
-84.195511
22
-22.127861
32
87.581879
13
-84.195511
23
-25.522150
33
105.011513
0
3DFACE
8
FinBallon
62
17.000000
10
-84.195511
20
-25.522150
30
105.011513
11
-84.195511
21
-22.127861
31
87.581879
12
-97.566788
22
-0.186817
32
105.011497
13
-97.566788
23
-0.186817
33
105.011497
0
3DFACE
8
FinBallon
62
17.000000
10
-47.664501
20
-38.189823
30
135.200500
11
-47.664501
21
-44.068909
31
105.011513
12
-84.195511
22
-25.522150
32
105.011513
13
-84.195511
23
-22.127857
33
122.441132
0
3DFACE
8
FinBallon
62
17.000000
10
-84.195511
20
-22.127857
30
122.441132
11
-84.195511
21
-25.522150
31
105.011513
12
-97.566788
22
-0.186817
32
105.011497
13
-97.566788
23
-0.186817
33
105.011497
0
3DFACE
8
FinBallon
62
17.000000
10
-47.664501
20
-22.127863
30
157.300385
11
-47.664501
21
-38.189823
31
135.200500
12
-84.195511
22
-22.127857
32
122.441132
13
-84.195511
23
-12.854480
33
135.200500
0
3DFACE
8
FinBallon
62
17.000000
10
-84.195511
20
-12.854480
30
135.200500
11
-84.195511
21
-22.127857
31
122.441132
12
-97.566788
22
-0.186817
32
105.011497
13
-97.566788
23
-0.186817
33
105.011497
0
3DFACE
8
FinBallon
62
17.000000
10
-47.664501
20
-0.186817
30
165.389511
11
-47.664501
21
-22.127863
31
157.300385
12
-84.195511
22
-12.854480
32
135.200500
13
-84.195511
23
-0.186817
33
139.870743
0
3DFACE
8
FinBallon
62
17.000000
10
-84.195511
20
-0.186817
30
139.870743
11
-84.195511
21
-12.854480
31
135.200500
12
-97.566788
22
-0.186817
32
105.011497
13
-97.566788
23
-0.186817
33
105.011497
0
3DFACE
8
DebBallon
62
18.000000
10
97.671127
20
12.480851
30
135.200531
11
97.671127
21
-0.186817
31
139.870773
12
61.140114
22
-0.186817
32
165.389542
13
61.140114
23
21.754232
33
157.300446
0
3DFACE
8
DebBallon
62
18.000000
10
111.042404
20
-0.186817
30
105.011528
11
111.042404
21
-0.186817
31
105.011528
12
97.671127
22
-0.186817
32
139.870773
13
97.671127
23
12.480851
33
135.200531
0
3DFACE
8
DebBallon
62
18.000000
10
97.671127
20
21.754229
30
122.441162
11
97.671127
21
12.480851
31
135.200531
12
61.140114
22
21.754232
32
157.300446
13
61.140114
23
37.816193
33
135.200531
0
3DFACE
8
DebBallon
62
18.000000
10
111.042404
20
-0.186817
30
105.011528
11
111.042404
21
-0.186817
31
105.011528
12
97.671127
22
12.480851
32
135.200531
13
97.671127
23
21.754229
33
122.441162
0
3DFACE
8
DebBallon
62
18.000000
10
97.671127
20
25.148520
30
105.011543
11
97.671127
21
21.754229
31
122.441162
12
61.140114
22
37.816193
32
135.200531
13
61.140114
23
43.695278
33
105.011543
0
3DFACE
8
DebBallon
62
18.000000
10
111.042404
20
-0.186817
30
105.011528
11
111.042404
21
-0.186817
31
105.011528
12
97.671127
22
21.754229
32
122.441162
13
97.671127
23
25.148520
33
105.011543
0
3DFACE
8
DebBallon
62
18.000000
10
97.671127
20
21.754227
30
87.581902
11
97.671127
21
25.148520
31
105.011543
12
61.140114
22
43.695278
32
105.011543
13
61.140114
23
37.816193
33
74.822540
0
3DFACE
8
DebBallon
62
18.000000
10
111.042404
20
-0.186817
30
105.011528
11
111.042404
21
-0.186817
31
105.011528
12
97.671127
22
25.148520
32
105.011543
13
97.671127
23
21.754227
33
87.581902
0
3DFACE
8
DebBallon
62
18.000000
10
97.671127
20
12.480849
30
74.822540
11
97.671127
21
21.754227
31
87.581902
12
61.140114
22
37.816193
32
74.822540
13
61.140114
23
21.754230
33
52.722656
0
3DFACE
8
DebBallon
62
18.000000
10
111.042404
20
-0.186817
30
105.011528
11
111.042404
21
-0.186817
31
105.011528
12
97.671127
22
21.754227
32
87.581902
13
97.671127
23
12.480849
33
74.822540
0
3DFACE
8
DebBallon
62
18.000000
10
97.671127
20
-0.186818
30
70.152290
11
97.671127
21
12.480849
31
74.822540
12
61.140114
22
21.754230
32
52.722656
13
61.140114
23
-0.186817
33
44.633545
0
3DFACE
8
DebBallon
62
18.000000
10
111.042404
20
-0.186817
30
105.011528
11
111.042404
21
-0.186817
31
105.011528
12
97.671127
22
12.480849
32
74.822540
13
97.671127
23
-0.186818
33
70.152290
0
3DFACE
8
DebBallon
62
18.000000
10
97.671127
20
-12.854486
30
74.822540
11
97.671127
21
-0.186818
31
70.152290
12
61.140114
22
-0.186817
32
44.633545
13
61.140114
23
-22.127863
33
52.722656
0
3DFACE
8
DebBallon
62
18.000000
10
111.042404
20
-0.186817
30
105.011528
11
111.042404
21
-0.186817
31
105.011528
12
97.671127
22
-0.186818
32
70.152290
13
97.671127
23
-12.854486
33
74.822540
0
3DFACE
8
DebBallon
62
18.000000
10
97.671127
20
-22.127861
30
87.581909
11
97.671127
21
-12.854486
31
74.822540
12
61.140114
22
-22.127863
32
52.722656
13
61.140114
23
-38.189823
33
74.822540
0
3DFACE
8
DebBallon
62
18.000000
10
111.042404
20
-0.186817
30
105.011528
11
111.042404
21
-0.186817
31
105.011528
12
97.671127
22
-12.854486
32
74.822540
13
97.671127
23
-22.127861
33
87.581909
0
3DFACE
8
DebBallon
62
18.000000
10
97.671127
20
-25.522150
30
105.011543
11
97.671127
21
-22.127861
31
87.581909
12
61.140114
22
-38.189823
32
74.822540
13
61.140114
23
-44.068909
33
105.011543
0
3DFACE
8
DebBallon
62
18.000000
10
111.042404
20
-0.186817
30
105.011528
11
111.042404
21
-0.186817
31
105.011528
12
97.671127
22
-22.127861
32
87.581909
13
97.671127
23
-25.522150
33
105.011543
0
3DFACE
8
DebBallon
62
18.000000
10
97.671127
20
-22.127857
30
122.441162
11
97.671127
21
-25.522150
31
105.011543
12
61.140114
22
-44.068909
32
105.011543
13
61.140114
23
-38.189823
33
135.200531
0
3DFACE
8
DebBallon
62
18.000000
10
111.042404
20
-0.186817
30
105.011528
11
111.042404
21
-0.186817
31
105.011528
12
97.671127
22
-25.522150
32
105.011543
13
97.671127
23
-22.127857
33
122.441162
0
3DFACE
8
DebBallon
62
18.000000
10
97.671127
20
-12.854480
30
135.200531
11
97.671127
21
-22.127857
31
122.441162
12
61.140114
22
-38.189823
32
135.200531
13
61.140114
23
-22.127863
33
157.300415
0
3DFACE
8
DebBallon
62
18.000000
10
111.042404
20
-0.186817
30
105.011528
11
111.042404
21
-0.186817
31
105.011528
12
97.671127
22
-22.127857
32
122.441162
13
97.671127
23
-12.854480
33
135.200531
0
3DFACE
8
DebBallon
62
18.000000
10
97.671127
20
-0.186817
30
139.870773
11
97.671127
21
-12.854480
31
135.200531
12
61.140114
22
-22.127863
32
157.300415
13
61.140114
23
-0.186817
33
165.389542
0
3DFACE
8
DebBallon
62
18.000000
10
111.042404
20
-0.186817
30
105.011528
11
111.042404
21
-0.186817
31
105.011528
12
97.671127
22
-12.854480
32
135.200531
13
97.671127
23
-0.186817
33
139.870773
0
3DFACE
8
Arc1
62
19.000000
10
61.140114
20
21.754238
30
157.300430
11
59.140118
21
23.433838
31
161.303177
12
59.140118
22
40.725357
32
137.511505
13
61.140114
23
37.816208
33
135.200516
0
3DFACE
8
Arc1
62
19.000000
10
61.140114
20
37.816208
30
135.200516
11
59.140118
21
40.725357
31
137.511505
12
59.140118
22
47.054493
32
105.011520
13
61.140121
23
43.695293
33
105.011520
0
3DFACE
8
Arc1
62
19.000000
10
61.140121
20
43.695293
30
105.011520
11
59.140118
21
47.054493
31
105.011520
12
59.140118
22
40.725357
32
72.511520
13
61.140129
23
37.816208
33
74.822502
0
3DFACE
8
Arc1
62
19.000000
10
61.140129
20
37.816208
30
74.822502
11
59.140118
21
40.725357
31
72.511520
12
59.140118
22
23.433838
32
48.719872
13
61.140133
23
21.754238
33
52.722610
0
3DFACE
8
Arc1
62
19.000000
10
61.140133
20
21.754238
30
52.722610
11
59.140118
21
23.433838
31
48.719872
12
59.140118
22
-0.186816
32
40.011524
13
61.140133
23
-0.186816
33
44.633488
0
3DFACE
8
Arc1
62
19.000000
10
61.140133
20
-0.186816
30
44.633488
11
59.140118
21
-0.186816
31
40.011524
12
59.140118
22
-23.807468
32
48.719872
13
61.140133
23
-22.127871
33
52.722610
0
3DFACE
8
Arc1
62
19.000000
10
61.140133
20
-22.127871
30
52.722610
11
59.140118
21
-23.807468
31
48.719872
12
59.140118
22
-41.098984
32
72.511528
13
61.140129
23
-38.189835
33
74.822510
0
3DFACE
8
Arc1
62
19.000000
10
61.140129
20
-38.189835
30
74.822510
11
59.140118
21
-41.098984
31
72.511528
12
59.140118
22
-47.428120
32
105.011520
13
61.140121
23
-44.068924
33
105.011520
0
3DFACE
8
Arc1
62
19.000000
10
61.140121
20
-44.068924
30
105.011520
11
59.140118
21
-47.428120
31
105.011520
12
59.140118
22
-41.098984
32
137.511505
13
61.140114
23
-38.189835
33
135.200516
0
3DFACE
8
Arc1
62
19.000000
10
61.140114
20
-38.189835
30
135.200516
11
59.140118
21
-41.098984
31
137.511505
12
59.140118
22
-23.807467
32
161.303177
13
61.140114
23
-22.127869
33
157.300430
0
3DFACE
8
Arc1
62
19.000000
10
61.140114
20
-22.127869
30
157.300430
11
59.140118
21
-23.807467
31
161.303177
12
59.140118
22
-0.186817
32
170.011520
13
61.140114
23
-0.186817
33
165.389542
0
3DFACE
8
Arc1
62
19.000000
10
61.140114
20
-0.186817
30
165.389542
11
59.140118
21
-0.186817
31
170.011520
12
59.140118
22
23.433838
32
161.303177
13
61.140114
23
21.754238
33
157.300430
0
3DFACE
8
Arc1
62
19.000000
10
59.140118
20
23.433838
30
161.303177
11
56.140121
21
21.980263
31
157.839081
12
56.140121
22
38.207691
32
135.511505
13
59.140118
23
40.725357
33
137.511505
0
3DFACE
8
Arc1
62
19.000000
10
59.140118
20
40.725357
30
137.511505
11
56.140121
21
38.207691
31
135.511505
12
56.140121
22
44.147343
32
105.011520
13
59.140118
23
47.054493
33
105.011520
0
3DFACE
8
Arc1
62
19.000000
10
59.140118
20
47.054493
30
105.011520
11
56.140121
21
44.147343
31
105.011520
12
56.140121
22
38.207691
32
74.511513
13
59.140118
23
40.725357
33
72.511520
0
3DFACE
8
Arc1
62
19.000000
10
59.140118
20
40.725357
30
72.511520
11
56.140121
21
38.207691
31
74.511513
12
56.140121
22
21.980263
32
52.183964
13
59.140118
23
23.433838
33
48.719872
0
3DFACE
8
Arc1
62
19.000000
10
59.140118
20
23.433838
30
48.719872
11
56.140121
21
21.980263
31
52.183964
12
56.140121
22
-0.186816
32
44.011513
13
59.140118
23
-0.186816
33
40.011524
0
3DFACE
8
Arc1
62
19.000000
10
59.140118
20
-0.186816
30
40.011524
11
56.140121
21
-0.186816
31
44.011513
12
56.140121
22
-22.353895
32
52.183964
13
59.140118
23
-23.807468
33
48.719872
0
3DFACE
8
Arc1
62
19.000000
10
59.140118
20
-23.807468
30
48.719872
11
56.140121
21
-22.353895
31
52.183964
12
56.140121
22
-38.581318
32
74.511520
13
59.140118
23
-41.098984
33
72.511528
0
3DFACE
8
Arc1
62
19.000000
10
59.140118
20
-41.098984
30
72.511528
11
56.140121
21
-38.581318
31
74.511520
12
56.140121
22
-44.520973
32
105.011520
13
59.140118
23
-47.428120
33
105.011520
0
3DFACE
8
Arc1
62
19.000000
10
59.140118
20
-47.428120
30
105.011520
11
56.140121
21
-44.520973
31
105.011520
12
56.140121
22
-38.581318
32
135.511505
13
59.140118
23
-41.098984
33
137.511505
0
3DFACE
8
Arc1
62
19.000000
10
59.140118
20
-41.098984
30
137.511505
11
56.140121
21
-38.581318
31
135.511505
12
56.140121
22
-22.353893
32
157.839081
13
59.140118
23
-23.807467
33
161.303177
0
3DFACE
8
Arc1
62
19.000000
10
59.140118
20
-23.807467
30
161.303177
11
56.140121
21
-22.353893
31
157.839081
12
56.140121
22
-0.186817
32
166.011520
13
59.140118
23
-0.186817
33
170.011520
0
3DFACE
8
Arc1
62
19.000000
10
59.140118
20
-0.186817
30
170.011520
11
56.140121
21
-0.186817
31
166.011520
12
56.140121
22
21.980263
32
157.839081
13
59.140118
23
23.433838
33
161.303177
0
3DFACE
8
MoyD
62
20.000000
10
-26.315971
20
19.227531
30
3.377349
11
-36.343357
21
19.227531
31
3.377349
12
-36.343357
22
17.905210
32
3.324111
13
-26.315971
23
17.905210
33
3.324111
0
3DFACE
8
MoyD
62
20.000000
10
-26.315971
20
17.905210
30
3.324111
11
-36.343357
21
17.905210
31
3.324111
12
-36.343357
22
18.520267
32
4.495894
13
-26.315971
23
18.520267
33
4.495894
0
3DFACE
8
MoyD
62
20.000000
10
-26.315971
20
18.520267
30
4.495894
11
-36.343357
21
18.520267
31
4.495894
12
-36.343357
22
19.227531
32
3.377349
13
-26.315971
23
19.227531
33
3.377349
0
3DFACE
8
MoyD
62
20.000000
10
-36.343357
20
18.520267
30
4.495894
11
-36.343357
21
17.905210
31
3.324111
12
-36.343357
22
19.227531
32
3.377349
13
-36.343357
23
19.227531
33
3.377349
0
3DFACE
8
MoyG
62
21.000000
10
-26.315971
20
-18.172075
30
3.158414
11
-36.343357
21
-18.172075
31
3.158414
12
-36.343357
22
-19.414116
32
3.615260
13
-26.315971
23
-19.414116
33
3.615260
0
3DFACE
8
MoyG
62
21.000000
10
-26.315971
20
-19.414116
30
3.615260
11
-36.343357
21
-19.414116
31
3.615260
12
-36.343357
22
-18.397455
32
4.462476
13
-26.315971
23
-18.397455
33
4.462476
0
3DFACE
8
MoyG
62
21.000000
10
-26.315971
20
-18.397455
30
4.462476
11
-36.343357
21
-18.397455
31
4.462476
12
-36.343357
22
-18.172075
32
3.158414
13
-26.315971
23
-18.172075
33
3.158414
0
3DFACE
8
MoyG
62
21.000000
10
-36.343357
20
-18.397455
30
4.462476
11
-36.343357
21
-19.414116
31
3.615260
12
-36.343357
22
-18.172075
32
3.158414
13
-36.343357
23
-18.172075
33
3.158414
0
3DFACE
8
CharnH
62
22.000000
10
-97.745888
20
0.162637
30
168.665802
11
-97.770340
21
0.162637
31
168.667358
12
-97.756836
22
0.162637
32
168.689316
13
-97.756836
23
0.162637
33
168.689316
0
3DFACE
8
CharnD
62
23.000000
10
-100.995796
20
50.007748
30
104.778091
11
-101.020256
21
50.008984
31
104.778091
12
-101.006752
22
50.026257
32
104.778091
13
-101.006752
23
50.026257
33
104.778091
0
3DFACE
8
Tige
62
24.000000
10
-26.315971
20
18.513483
30
3.109501
11
-26.315971
21
-19.101440
31
3.109501
12
-24.896181
22
-19.101440
32
3.365893
13
-24.896181
23
18.513483
33
3.365893
0
3DFACE
8
Tige
62
24.000000
10
-24.896181
20
18.513483
30
3.365893
11
-24.896181
21
-19.101440
31
3.365893
12
-25.828117
22
-19.101440
32
4.467271
13
-25.828117
23
18.513483
33
4.467271
0
3DFACE
8
Tige
62
24.000000
10
-25.828117
20
18.513483
30
4.467271
11
-25.828117
21
-19.101440
31
4.467271
12
-26.315971
22
-19.101440
32
3.109501
13
-26.315971
23
18.513483
33
3.109501
0
3DFACE
8
Tige
62
24.000000
10
-25.828117
20
-19.101440
30
4.467271
11
-24.896181
21
-19.101440
31
3.365893
12
-26.315971
22
-19.101440
32
3.109501
13
-26.315971
23
-19.101440
33
3.109501
0
3DFACE
8
Tige
62
24.000000
10
-26.315971
20
18.513483
30
3.109501
11
-24.896181
21
18.513483
31
3.365893
12
-25.828117
22
18.513483
32
4.467271
13
-25.828117
23
18.513483
33
4.467271
0
3DFACE
8
Cabine
62
25.000000
10
29.337742
20
10.693601
30
15.640505
11
29.931812
21
10.693601
31
21.553335
12
-12.493933
22
8.100269
32
20.649307
13
-12.493933
23
10.693601
33
15.640505
0
3DFACE
8
Cabine
62
25.000000
10
29.337742
20
5.009903
30
9.636837
11
32.574696
21
4.599138
31
12.385204
12
37.924431
22
7.120206
32
15.640505
13
29.337742
23
10.693601
33
15.640505
0
3DFACE
8
Cabine
62
25.000000
10
29.337742
20
10.693601
30
15.640505
11
37.924431
21
7.120206
31
15.640505
12
38.518497
22
9.087279
32
21.553335
13
29.931812
23
10.693601
33
21.553335
0
3DFACE
8
Cabine
62
25.000000
10
38.518497
20
9.087279
30
21.553335
11
42.499165
21
8.375693
31
36.414761
12
29.931812
22
9.087280
32
27.557005
13
29.931812
23
10.693601
33
21.553335
0
3DFACE
8
Cabine
62
25.000000
10
29.931812
20
10.693601
30
21.553335
11
29.931812
21
9.087280
31
27.557005
12
-12.493933
22
6.876813
32
24.624651
13
-12.493933
23
8.100269
33
20.649307
0
3DFACE
8
Cabine
62
25.000000
10
-12.493933
20
6.876813
30
24.624651
11
-21.531815
21
6.334832
31
27.669279
12
-21.080616
22
6.876813
32
20.649307
13
-12.493933
23
8.100269
33
20.649307
0
3DFACE
8
Cabine
62
25.000000
10
-12.493933
20
8.100269
30
20.649307
11
-21.080616
21
6.876813
31
20.649307
12
-21.080616
22
9.087279
32
15.640505
13
-12.493933
23
10.693601
33
15.640505
0
3DFACE
8
Cabine
62
25.000000
10
-21.080616
20
9.087279
30
15.640505
11
-24.676889
21
8.375692
31
3.365033
12
-12.493933
22
9.087279
32
9.636837
13
-12.493933
23
10.693601
33
15.640505
0
3DFACE
8
Cabine
62
25.000000
10
-12.493933
20
10.693601
30
15.640505
11
-12.493933
21
9.087279
31
9.636837
12
29.337742
22
5.009903
32
9.636837
13
29.337742
23
10.693601
33
15.640505
0
3DFACE
8
Cabine
62
25.000000
10
-24.637428
20
5.209374
30
15.640505
11
-24.637428
21
3.923201
31
20.649307
12
-24.637428
22
-4.296833
32
20.649309
13
-24.637428
23
-5.583007
33
15.640506
0
3DFACE
8
Cabine
62
25.000000
10
-21.080620
20
5.209374
30
8.343861
11
-24.676889
21
8.375692
31
3.365033
12
-21.080616
22
9.087279
32
15.640505
13
-24.637428
23
5.209374
33
15.640505
0
3DFACE
8
Cabine
62
25.000000
10
-24.637428
20
5.209374
30
15.640505
11
-21.080616
21
9.087279
31
15.640505
12
-21.080616
22
6.876813
32
20.649307
13
-24.637428
23
3.923201
33
20.649307
0
3DFACE
8
Cabine
62
25.000000
10
-21.080616
20
6.876813
30
20.649307
11
-21.531815
21
6.334832
31
27.669279
12
-21.080620
22
3.923201
32
24.624651
13
-24.637428
23
3.923201
33
20.649307
0
3DFACE
8
Cabine
62
25.000000
10
-24.637428
20
3.923201
30
20.649307
11
-21.080620
21
3.923201
31
24.624651
12
-21.080620
22
-4.296833
32
24.624651
13
-24.637428
23
-4.296833
33
20.649309
0
3DFACE
8
Cabine
62
25.000000
10
-21.080620
20
-4.296833
30
24.624651
11
-21.531815
21
-6.708464
31
27.669279
12
-21.080620
22
-7.250446
32
20.649309
13
-24.637428
23
-4.296833
33
20.649309
0
3DFACE
8
Cabine
62
25.000000
10
-24.637428
20
-4.296833
30
20.649309
11
-21.080620
21
-7.250446
31
20.649309
12
-21.080620
22
-9.460913
32
15.640506
13
-24.637428
23
-5.583007
33
15.640506
0
3DFACE
8
Cabine
62
25.000000
10
-21.080620
20
-9.460913
30
15.640506
11
-24.676889
21
-8.749327
31
3.365035
12
-21.080620
22
-5.583008
32
8.343861
13
-24.637428
23
-5.583007
33
15.640506
0
3DFACE
8
Cabine
62
25.000000
10
-24.637428
20
-5.583007
30
15.640506
11
-21.080620
21
-5.583008
31
8.343861
12
-21.080620
22
5.209374
32
8.343861
13
-24.637428
23
5.209374
33
15.640505
0
3DFACE
8
Cabine
62
25.000000
10
-12.493933
20
-11.067233
30
15.640506
11
-12.493933
21
-8.473904
31
20.649309
12
29.931812
22
-11.067233
32
21.553337
13
29.337742
23
-9.100160
33
15.640506
0
3DFACE
8
Cabine
62
25.000000
10
-12.493933
20
-9.460913
30
9.636837
11
-24.676889
21
-8.749327
31
3.365035
12
-21.080620
22
-9.460913
32
15.640506
13
-12.493933
23
-11.067233
33
15.640506
0
3DFACE
8
Cabine
62
25.000000
10
-12.493933
20
-11.067233
30
15.640506
11
-21.080620
21
-9.460913
31
15.640506
12
-21.080620
22
-7.250446
32
20.649309
13
-12.493933
23
-8.473904
33
20.649309
0
3DFACE
8
Cabine
62
25.000000
10
-21.080620
20
-7.250446
30
20.649309
11
-21.531815
21
-6.708464
31
27.669279
12
-12.493933
22
-7.250446
32
24.624651
13
-12.493933
23
-8.473904
33
20.649309
0
3DFACE
8
Cabine
62
25.000000
10
-12.493933
20
-8.473904
30
20.649309
11
-12.493933
21
-7.250446
31
24.624651
12
29.931812
22
-9.460912
32
27.557007
13
29.931812
23
-11.067233
33
21.553337
0
3DFACE
8
Cabine
62
25.000000
10
29.931812
20
-9.460912
30
27.557007
11
42.499165
21
-8.749326
31
36.414761
12
38.518497
22
-9.460913
32
21.553337
13
29.931812
23
-11.067233
33
21.553337
0
3DFACE
8
Cabine
62
25.000000
10
29.931812
20
-11.067233
30
21.553337
11
38.518497
21
-9.460913
31
21.553337
12
37.924431
22
-7.807392
32
15.640506
13
29.337742
23
-9.100160
33
15.640506
0
3DFACE
8
Cabine
62
25.000000
10
37.924431
20
-7.807392
30
15.640506
11
32.574696
21
-5.286325
31
12.385205
12
29.337742
22
-5.697090
32
9.636837
13
29.337742
23
-9.100160
33
15.640506
0
3DFACE
8
Cabine
62
25.000000
10
29.337742
20
-9.100160
30
15.640506
11
29.337742
21
-5.697090
31
9.636837
12
-12.493933
22
-9.460913
32
9.636837
13
-12.493933
23
-11.067233
33
15.640506
0
3DFACE
8
Cabine
62
25.000000
10
41.481236
20
-4.686450
30
15.640506
11
42.075321
21
-5.583006
31
21.553335
12
42.075321
22
5.209374
32
21.553335
13
41.481236
23
3.999264
33
15.640506
0
3DFACE
8
Cabine
62
25.000000
10
36.911015
20
-3.458559
30
6.567943
11
32.574696
21
-5.286325
31
12.385205
12
37.924431
22
-7.807392
32
15.640506
13
41.481236
23
-4.686450
33
15.640506
0
3DFACE
8
Cabine
62
25.000000
10
41.481236
20
-4.686450
30
15.640506
11
37.924431
21
-7.807392
31
15.640506
12
38.518497
22
-9.460913
32
21.553337
13
42.075321
23
-5.583006
33
21.553335
0
3DFACE
8
Cabine
62
25.000000
10
38.518497
20
-9.460913
30
21.553337
11
42.499165
21
-8.749326
31
36.414761
12
40.824886
22
-5.583006
32
31.645605
13
42.075321
23
-5.583006
33
21.553335
0
3DFACE
8
Cabine
62
25.000000
10
42.075321
20
-5.583006
30
21.553335
11
40.824886
21
-5.583006
31
31.645605
12
40.824886
22
5.209375
32
31.645605
13
42.075321
23
5.209374
33
21.553335
0
3DFACE
8
Cabine
62
25.000000
10
40.824886
20
5.209375
30
31.645605
11
42.499165
21
8.375693
31
36.414761
12
38.518497
22
9.087279
32
21.553335
13
42.075321
23
5.209374
33
21.553335
0
3DFACE
8
Cabine
62
25.000000
10
42.075321
20
5.209374
30
21.553335
11
38.518497
21
9.087279
31
21.553335
12
37.924431
22
7.120206
32
15.640505
13
41.481236
23
3.999264
33
15.640506
0
3DFACE
8
Cabine
62
25.000000
10
37.924431
20
7.120206
30
15.640505
11
32.574696
21
4.599138
31
12.385204
12
36.911015
22
2.771372
32
6.567943
13
41.481236
23
3.999264
33
15.640506
0
3DFACE
8
Cabine
62
25.000000
10
41.481236
20
3.999264
30
15.640506
11
36.911015
21
2.771372
31
6.567943
12
36.911015
22
-3.458559
32
6.567943
13
41.481236
23
-4.686450
33
15.640506
0
3DFACE
8
Cabine
62
25.000000
10
29.337742
20
2.771372
30
7.149975
11
-12.493933
21
5.209373
31
7.149974
12
-12.493933
22
-5.583007
32
7.149975
13
29.337742
23
-3.458558
33
7.149975
0
3DFACE
8
Cabine
62
25.000000
10
36.911015
20
2.771372
30
6.567943
11
32.574696
21
4.599138
31
12.385204
12
29.337742
22
5.009903
32
9.636837
13
29.337742
23
2.771372
33
7.149975
0
3DFACE
8
Cabine
62
25.000000
10
29.337742
20
2.771372
30
7.149975
11
29.337742
21
5.009903
31
9.636837
12
-12.493933
22
9.087279
32
9.636837
13
-12.493933
23
5.209373
33
7.149974
0
3DFACE
8
Cabine
62
25.000000
10
-12.493933
20
9.087279
30
9.636837
11
-24.676889
21
8.375692
31
3.365033
12
-21.080620
22
5.209374
32
8.343861
13
-12.493933
23
5.209373
33
7.149974
0
3DFACE
8
Cabine
62
25.000000
10
-12.493933
20
5.209373
30
7.149974
11
-21.080620
21
5.209374
31
8.343861
12
-21.080620
22
-5.583008
32
8.343861
13
-12.493933
23
-5.583007
33
7.149975
0
3DFACE
8
Cabine
62
25.000000
10
-21.080620
20
-5.583008
30
8.343861
11
-24.676889
21
-8.749327
31
3.365035
12
-12.493933
22
-9.460913
32
9.636837
13
-12.493933
23
-5.583007
33
7.149975
0
3DFACE
8
Cabine
62
25.000000
10
-12.493933
20
-5.583007
30
7.149975
11
-12.493933
21
-9.460913
31
9.636837
12
29.337742
22
-5.697090
32
9.636837
13
29.337742
23
-3.458558
33
7.149975
0
3DFACE
8
Cabine
62
25.000000
10
29.337742
20
-5.697090
30
9.636837
11
32.574696
21
-5.286325
31
12.385205
12
36.911015
22
-3.458559
32
6.567943
13
29.337742
23
-3.458558
33
7.149975
0
3DFACE
8
Cabine
62
25.000000
10
29.337742
20
-3.458558
30
7.149975
11
36.911015
21
-3.458559
31
6.567943
12
36.911015
22
2.771372
32
6.567943
13
29.337742
23
2.771372
33
7.149975
0
3DFACE
8
Cabine
62
25.000000
10
29.931812
20
-5.583006
30
30.043867
11
-12.493933
21
-4.296833
31
26.271330
12
-12.493933
22
3.923201
32
26.271330
13
29.931812
23
5.209375
33
30.043867
0
3DFACE
8
Cabine
62
25.000000
10
40.824886
20
-5.583006
30
31.645605
11
42.499165
21
-8.749326
31
36.414761
12
29.931812
22
-9.460912
32
27.557007
13
29.931812
23
-5.583006
33
30.043867
0
3DFACE
8
Cabine
62
25.000000
10
29.931812
20
-5.583006
30
30.043867
11
29.931812
21
-9.460912
31
27.557007
12
-12.493933
22
-7.250446
32
24.624651
13
-12.493933
23
-4.296833
33
26.271330
0
3DFACE
8
Cabine
62
25.000000
10
-12.493933
20
-7.250446
30
24.624651
11
-21.531815
21
-6.708464
31
27.669279
12
-21.080620
22
-4.296833
32
24.624651
13
-12.493933
23
-4.296833
33
26.271330
0
3DFACE
8
Cabine
62
25.000000
10
-12.493933
20
-4.296833
30
26.271330
11
-21.080620
21
-4.296833
31
24.624651
12
-21.080620
22
3.923201
32
24.624651
13
-12.493933
23
3.923201
33
26.271330
0
3DFACE
8
Cabine
62
25.000000
10
-21.080620
20
3.923201
30
24.624651
11
-21.531815
21
6.334832
31
27.669279
12
-12.493933
22
6.876813
32
24.624651
13
-12.493933
23
3.923201
33
26.271330
0
3DFACE
8
Cabine
62
25.000000
10
-12.493933
20
3.923201
30
26.271330
11
-12.493933
21
6.876813
31
24.624651
12
29.931812
22
9.087280
32
27.557005
13
29.931812
23
5.209375
33
30.043867
0
3DFACE
8
Cabine
62
25.000000
10
29.931812
20
9.087280
30
27.557005
11
42.499165
21
8.375693
31
36.414761
12
40.824886
22
5.209375
32
31.645605
13
29.931812
23
5.209375
33
30.043867
0
3DFACE
8
Cabine
62
25.000000
10
29.931812
20
5.209375
30
30.043867
11
40.824886
21
5.209375
31
31.645605
12
40.824886
22
-5.583006
32
31.645605
13
29.931812
23
-5.583006
33
30.043867
0
3DFACE
8
Ballon
62
26.000000
10
56.140118
20
21.754238
30
157.300430
11
56.140118
21
-0.186817
31
165.389542
12
6.237798
22
-0.186817
32
174.730026
13
6.237800
23
25.148529
33
165.389526
0
3DFACE
8
Ballon
62
26.000000
10
6.237800
20
25.148529
30
165.389526
11
6.237798
21
-0.186817
31
174.730026
12
-43.664501
22
-0.186817
32
165.389511
13
-43.664501
23
21.754232
33
157.300415
0
3DFACE
8
Ballon
62
26.000000
10
56.140118
20
37.816208
30
135.200516
11
56.140118
21
21.754238
31
157.300430
12
6.237800
22
25.148529
32
165.389526
13
6.237804
23
43.695286
33
139.870758
0
3DFACE
8
Ballon
62
26.000000
10
6.237804
20
43.695286
30
139.870758
11
6.237800
21
25.148529
31
165.389526
12
-43.664501
22
21.754232
32
157.300415
13
-43.664497
23
37.816193
33
135.200500
0
3DFACE
8
Ballon
62
26.000000
10
56.140125
20
43.695293
30
105.011520
11
56.140118
21
37.816208
31
135.200516
12
6.237804
22
43.695286
32
139.870758
13
6.237810
23
50.483871
33
105.011513
0
3DFACE
8
Ballon
62
26.000000
10
6.237810
20
50.483871
30
105.011513
11
6.237804
21
43.695286
31
139.870758
12
-43.664497
22
37.816193
32
135.200500
13
-43.664490
23
43.695278
33
105.011513
0
3DFACE
8
Ballon
62
26.000000
10
56.140133
20
37.816208
30
74.822502
11
56.140125
21
43.695293
31
105.011520
12
6.237810
22
50.483871
32
105.011513
13
6.237816
23
43.695286
33
70.152252
0
3DFACE
8
Ballon
62
26.000000
10
6.237816
20
43.695286
30
70.152252
11
6.237810
21
50.483871
31
105.011513
12
-43.664490
22
43.695278
32
105.011513
13
-43.664486
23
37.816193
33
74.822510
0
3DFACE
8
Ballon
62
26.000000
10
56.140137
20
21.754238
30
52.722610
11
56.140133
21
37.816208
31
74.822502
12
6.237816
22
43.695286
32
70.152252
13
6.237820
23
25.148527
33
44.633495
0
3DFACE
8
Ballon
62
26.000000
10
6.237820
20
25.148527
30
44.633495
11
6.237816
21
43.695286
31
70.152252
12
-43.664486
22
37.816193
32
74.822510
13
-43.664482
23
21.754230
33
52.722626
0
3DFACE
8
Ballon
62
26.000000
10
56.140137
20
-0.186816
30
44.633488
11
56.140137
21
21.754238
31
52.722610
12
6.237820
22
25.148527
32
44.633495
13
6.237822
23
-0.186817
33
35.292988
0
3DFACE
8
Ballon
62
26.000000
10
6.237822
20
-0.186817
30
35.292988
11
6.237820
21
25.148527
31
44.633495
12
-43.664482
22
21.754230
32
52.722626
13
-43.664482
23
-0.186817
33
44.633511
0
3DFACE
8
Ballon
62
26.000000
10
56.140137
20
-22.127871
30
52.722610
11
56.140137
21
-0.186816
31
44.633488
12
6.237822
22
-0.186817
32
35.292988
13
6.237820
23
-25.522160
33
44.633499
0
3DFACE
8
Ballon
62
26.000000
10
6.237820
20
-25.522160
30
44.633499
11
6.237822
21
-0.186817
31
35.292988
12
-43.664482
22
-0.186817
32
44.633511
13
-43.664482
23
-22.127863
33
52.722626
0
3DFACE
8
Ballon
62
26.000000
10
56.140133
20
-38.189835
30
74.822510
11
56.140137
21
-22.127871
31
52.722610
12
6.237820
22
-25.522160
32
44.633499
13
6.237816
23
-44.068920
33
70.152260
0
3DFACE
8
Ballon
62
26.000000
10
6.237816
20
-44.068920
30
70.152260
11
6.237820
21
-25.522160
31
44.633499
12
-43.664482
22
-22.127863
32
52.722626
13
-43.664486
23
-38.189823
33
74.822510
0
3DFACE
8
Ballon
62
26.000000
10
56.140125
20
-44.068924
30
105.011520
11
56.140133
21
-38.189835
31
74.822510
12
6.237816
22
-44.068920
32
70.152260
13
6.237810
23
-50.857502
33
105.011520
0
3DFACE
8
Ballon
62
26.000000
10
6.237810
20
-50.857502
30
105.011520
11
6.237816
21
-44.068920
31
70.152260
12
-43.664486
22
-38.189823
32
74.822510
13
-43.664490
23
-44.068909
33
105.011513
0
3DFACE
8
Ballon
62
26.000000
10
56.140118
20
-38.189835
30
135.200516
11
56.140125
21
-44.068924
31
105.011520
12
6.237810
22
-50.857502
32
105.011520
13
6.237804
23
-44.068916
33
139.870758
0
3DFACE
8
Ballon
62
26.000000
10
6.237804
20
-44.068916
30
139.870758
11
6.237810
21
-50.857502
31
105.011520
12
-43.664490
22
-44.068909
32
105.011513
13
-43.664497
23
-38.189823
33
135.200500
0
3DFACE
8
Ballon
62
26.000000
10
56.140118
20
-22.127869
30
157.300430
11
56.140118
21
-38.189835
31
135.200516
12
6.237804
22
-44.068916
32
139.870758
13
6.237800
23
-25.522156
33
165.389511
0
3DFACE
8
Ballon
62
26.000000
10
6.237800
20
-25.522156
30
165.389511
11
6.237804
21
-44.068916
31
139.870758
12
-43.664497
22
-38.189823
32
135.200500
13
-43.664501
23
-22.127863
33
157.300385
0
3DFACE
8
Ballon
62
26.000000
10
56.140118
20
-0.186817
30
165.389542
11
56.140118
21
-22.127869
31
157.300430
12
6.237800
22
-25.522156
32
165.389511
13
6.237798
23
-0.186817
33
174.730026
0
3DFACE
8
Ballon
62
26.000000
10
6.237798
20
-0.186817
30
174.730026
11
6.237800
21
-25.522156
31
165.389511
12
-43.664501
22
-22.127863
32
157.300385
13
-43.664501
23
-0.186817
33
165.389511
0
3DFACE
8
Arc2
62
27.000000
10
-47.664501
20
-0.186817
30
165.389511
11
-45.664501
21
-0.186817
31
168.011505
12
-45.664501
22
-23.080681
32
159.571091
13
-47.664501
23
-22.127863
33
157.300385
0
3DFACE
8
Arc2
62
27.000000
10
-47.664501
20
-22.127863
30
157.300385
11
-45.664501
21
-23.080681
31
159.571091
12
-45.664501
22
-39.840153
32
136.511490
13
-47.664501
23
-38.189823
33
135.200500
0
3DFACE
8
Arc2
62
27.000000
10
-47.664501
20
-38.189823
30
135.200500
11
-45.664501
21
-39.840153
31
136.511490
12
-45.664501
22
-45.974541
32
105.011513
13
-47.664501
23
-44.068909
33
105.011513
0
3DFACE
8
Arc2
62
27.000000
10
-47.664501
20
-44.068909
30
105.011513
11
-45.664501
21
-45.974541
31
105.011513
12
-45.664501
22
-39.840153
32
73.511513
13
-47.664501
23
-38.189823
33
74.822510
0
3DFACE
8
Arc2
62
27.000000
10
-47.664501
20
-38.189823
30
74.822510
11
-45.664501
21
-39.840153
31
73.511513
12
-45.664501
22
-23.080681
32
50.451916
13
-47.664501
23
-22.127863
33
52.722626
0
3DFACE
8
Arc2
62
27.000000
10
-47.664501
20
-22.127863
30
52.722626
11
-45.664501
21
-23.080681
31
50.451916
12
-45.664501
22
-0.186817
32
42.011520
13
-47.664501
23
-0.186817
33
44.633511
0
3DFACE
8
Arc2
62
27.000000
10
-47.664501
20
-0.186817
30
44.633511
11
-45.664501
21
-0.186817
31
42.011520
12
-45.664501
22
22.707048
32
50.451916
13
-47.664501
23
21.754230
33
52.722626
0
3DFACE
8
Arc2
62
27.000000
10
-47.664501
20
21.754230
30
52.722626
11
-45.664501
21
22.707048
31
50.451916
12
-45.664501
22
39.466522
32
73.511513
13
-47.664501
23
37.816193
33
74.822510
0
3DFACE
8
Arc2
62
27.000000
10
-47.664501
20
37.816193
30
74.822510
11
-45.664501
21
39.466522
31
73.511513
12
-45.664501
22
45.600914
32
105.011513
13
-47.664501
23
43.695278
33
105.011513
0
3DFACE
8
Arc2
62
27.000000
10
-47.664501
20
43.695278
30
105.011513
11
-45.664501
21
45.600914
31
105.011513
12
-45.664501
22
39.466522
32
136.511490
13
-47.664501
23
37.816193
33
135.200500
0
3DFACE
8
Arc2
62
27.000000
10
-47.664501
20
37.816193
30
135.200500
11
-45.664501
21
39.466522
31
136.511490
12
-45.664501
22
22.707050
32
159.571121
13
-47.664501
23
21.754232
33
157.300415
0
3DFACE
8
Arc2
62
27.000000
10
-47.664501
20
21.754232
30
157.300415
11
-45.664501
21
22.707050
31
159.571121
12
-45.664501
22
-0.186817
32
168.011505
13
-47.664501
23
-0.186817
33
165.389511
0
3DFACE
8
Arc2
62
27.000000
10
-45.664501
20
-0.186817
30
168.011505
11
-43.664501
21
-0.186817
31
165.674179
12
-43.664501
22
-22.717285
32
157.546906
13
-45.664501
23
-23.080681
33
159.571091
0
3DFACE
8
Arc2
62
27.000000
10
-45.664501
20
-23.080681
30
159.571091
11
-43.664501
21
-22.717285
31
157.546906
12
-43.664501
22
-39.210735
32
135.342834
13
-45.664501
23
-39.840153
33
136.511490
0
3DFACE
8
Arc2
62
27.000000
10
-45.664501
20
-39.840153
30
136.511490
11
-43.664501
21
-39.210735
31
135.342834
12
-43.664501
22
-45.247753
32
105.011513
13
-45.664501
23
-45.974541
33
105.011513
0
3DFACE
8
Arc2
62
27.000000
10
-45.664501
20
-45.974541
30
105.011513
11
-43.664501
21
-45.247753
31
105.011513
12
-43.664501
22
-39.210735
32
74.680176
13
-45.664501
23
-39.840153
33
73.511513
0
3DFACE
8
Arc2
62
27.000000
10
-45.664501
20
-39.840153
30
73.511513
11
-43.664501
21
-39.210735
31
74.680176
12
-43.664501
22
-22.717285
32
52.476105
13
-45.664501
23
-23.080681
33
50.451916
0
3DFACE
8
Arc2
62
27.000000
10
-45.664501
20
-23.080681
30
50.451916
11
-43.664501
21
-22.717285
31
52.476105
12
-43.664501
22
-0.186817
32
44.348850
13
-45.664501
23
-0.186817
33
42.011520
0
3DFACE
8
Arc2
62
27.000000
10
-45.664501
20
-0.186817
30
42.011520
11
-43.664501
21
-0.186817
31
44.348850
12
-43.664501
22
22.343653
32
52.476105
13
-45.664501
23
22.707048
33
50.451916
0
3DFACE
8
Arc2
62
27.000000
10
-45.664501
20
22.707048
30
50.451916
11
-43.664501
21
22.343653
31
52.476105
12
-43.664501
22
38.837101
32
74.680176
13
-45.664501
23
39.466522
33
73.511513
0
3DFACE
8
Arc2
62
27.000000
10
-45.664501
20
39.466522
30
73.511513
11
-43.664501
21
38.837101
31
74.680176
12
-43.664501
22
44.874126
32
105.011513
13
-45.664501
23
45.600914
33
105.011513
0
3DFACE
8
Arc2
62
27.000000
10
-45.664501
20
45.600914
30
105.011513
11
-43.664501
21
44.874126
31
105.011513
12
-43.664501
22
38.837101
32
135.342834
13
-45.664501
23
39.466522
33
136.511490
0
3DFACE
8
Arc2
62
27.000000
10
-45.664501
20
39.466522
30
136.511490
11
-43.664501
21
38.837101
31
135.342834
12
-43.664501
22
22.343655
32
157.546936
13
-45.664501
23
22.707050
33
159.571121
0
3DFACE
8
Arc2
62
27.000000
10
-45.664501
20
22.707050
30
159.571121
11
-43.664501
21
22.343655
31
157.546936
12
-43.664501
22
-0.186817
32
165.674179
13
-45.664501
23
-0.186817
33
168.011505
0
3DFACE
8
Canon1
62
28.000000
10
23.937742
20
-9.700160
30
18.640505
11
33.937744
21
-9.700158
31
18.640505
12
33.937744
22
-8.200156
32
17.774479
13
23.937742
23
-8.200158
33
17.774479
0
3DFACE
8
Canon1
62
28.000000
10
23.937742
20
-8.200158
30
17.774479
11
33.937744
21
-8.200156
31
17.774479
12
33.937744
22
-8.200156
32
19.506533
13
23.937742
23
-8.200158
33
19.506533
0
3DFACE
8
Canon1
62
28.000000
10
23.937742
20
-8.200158
30
19.506533
11
33.937744
21
-8.200156
31
19.506533
12
33.937744
22
-9.700158
32
18.640505
13
23.937742
23
-9.700160
33
18.640505
0
3DFACE
8
Canon1
62
28.000000
10
33.937744
20
-8.200156
30
19.506533
11
33.937744
21
-8.200156
31
17.774479
12
33.937744
22
-9.700158
32
18.640505
13
33.937744
23
-9.700158
33
18.640505
0
3DFACE
8
Canon2
62
29.000000
10
6.837742
20
-9.600162
30
18.640505
11
16.837742
21
-9.600163
31
18.640505
12
16.837744
22
-8.100161
32
17.774479
13
6.837742
23
-8.100160
33
17.774479
0
3DFACE
8
Canon2
62
29.000000
10
6.837742
20
-8.100160
30
17.774479
11
16.837744
21
-8.100161
31
17.774479
12
16.837744
22
-8.100161
32
19.506533
13
6.837742
23
-8.100160
33
19.506533
0
3DFACE
8
Canon2
62
29.000000
10
6.837742
20
-8.100160
30
19.506533
11
16.837744
21
-8.100161
31
19.506533
12
16.837742
22
-9.600163
32
18.640505
13
6.837742
23
-9.600162
33
18.640505
0
3DFACE
8
Canon2
62
29.000000
10
16.837744
20
-8.100161
30
19.506533
11
16.837744
21
-8.100161
31
17.774479
12
16.837742
22
-9.600163
32
18.640505
13
16.837742
23
-9.600163
33
18.640505
0
3DFACE
8
Canon3
62
30.000000
10
-10.162257
20
-9.600163
30
18.640505
11
-0.162258
21
-9.600165
31
18.640505
12
-0.162257
22
-8.100163
32
17.774479
13
-10.162257
23
-8.100161
33
17.774479
0
3DFACE
8
Canon3
62
30.000000
10
-10.162257
20
-8.100161
30
17.774479
11
-0.162257
21
-8.100163
31
17.774479
12
-0.162257
22
-8.100163
32
19.506533
13
-10.162257
23
-8.100161
33
19.506533
0
3DFACE
8
Canon3
62
30.000000
10
-10.162257
20
-8.100161
30
19.506533
11
-0.162257
21
-8.100163
31
19.506533
12
-0.162258
22
-9.600165
32
18.640505
13
-10.162257
23
-9.600163
33
18.640505
0
3DFACE
8
Canon3
62
30.000000
10
-0.162257
20
-8.100163
30
19.506533
11
-0.162257
21
-8.100163
31
17.774479
12
-0.162258
22
-9.600165
32
18.640505
13
-0.162258
23
-9.600165
33
18.640505
0
3DFACE
8
Canon4
62
31.000000
10
24.433987
20
9.256083
30
17.774479
11
34.433987
21
9.256083
31
17.774479
12
34.433987
22
10.756083
32
18.640505
13
24.433989
23
10.756083
33
18.640505
0
3DFACE
8
Canon4
62
31.000000
10
24.433987
20
9.256083
30
19.506533
11
34.433987
21
9.256083
31
19.506533
12
34.433987
22
9.256083
32
17.774479
13
24.433987
23
9.256083
33
17.774479
0
3DFACE
8
Canon4
62
31.000000
10
24.433989
20
10.756083
30
18.640505
11
34.433987
21
10.756083
31
18.640505
12
34.433987
22
9.256083
32
19.506533
13
24.433987
23
9.256083
33
19.506533
0
3DFACE
8
Canon4
62
31.000000
10
34.433987
20
10.756083
30
18.640505
11
34.433987
21
9.256083
31
17.774479
12
34.433987
22
9.256083
32
19.506533
13
34.433987
23
9.256083
33
19.506533
0
3DFACE
8
Canon5
62
32.000000
10
6.957744
20
8.779840
30
17.774479
11
16.957743
21
8.779839
31
17.774479
12
16.957745
22
10.279840
32
18.640505
13
6.957744
23
10.279840
33
18.640505
0
3DFACE
8
Canon5
62
32.000000
10
6.957744
20
8.779840
30
19.506533
11
16.957743
21
8.779839
31
19.506533
12
16.957743
22
8.779839
32
17.774479
13
6.957744
23
8.779840
33
17.774479
0
3DFACE
8
Canon5
62
32.000000
10
6.957744
20
10.279840
30
18.640505
11
16.957745
21
10.279840
31
18.640505
12
16.957743
22
8.779839
32
19.506533
13
6.957744
23
8.779840
33
19.506533
0
3DFACE
8
Canon5
62
32.000000
10
16.957745
20
10.279840
30
18.640505
11
16.957743
21
8.779839
31
17.774479
12
16.957743
22
8.779839
32
19.506533
13
16.957743
23
8.779839
33
19.506533
0
3DFACE
8
Canon6
62
33.000000
10
-10.042256
20
8.779840
30
17.774479
11
-0.042257
21
8.779840
31
17.774479
12
-0.042257
22
10.279841
32
18.640505
13
-10.042256
23
10.279841
33
18.640505
0
3DFACE
8
Canon6
62
33.000000
10
-10.042256
20
8.779840
30
19.506533
11
-0.042257
21
8.779840
31
19.506533
12
-0.042257
22
8.779840
32
17.774479
13
-10.042256
23
8.779840
33
17.774479
0
3DFACE
8
Canon6
62
33.000000
10
-10.042256
20
10.279841
30
18.640505
11
-0.042257
21
10.279841
31
18.640505
12
-0.042257
22
8.779840
32
19.506533
13
-10.042256
23
8.779840
33
19.506533
0
3DFACE
8
Canon6
62
33.000000
10
-0.042257
20
10.279841
30
18.640505
11
-0.042257
21
8.779840
31
17.774479
12
-0.042257
22
8.779840
32
19.506533
13
-0.042257
23
8.779840
33
19.506533
0
ENDSEC
0
EOF
