0
SECTION
2
ENTITIES
0
3DFACE
8
Hangar2
62
1.000000
10
164.478638
20
-378.407684
30
-19.754217
11
164.478638
21
-666.591980
31
-19.754217
12
174.117325
22
-666.591980
32
4.432477
13
174.117325
23
-378.407684
33
4.432477
0
3DFACE
8
Hangar2
62
1.000000
10
174.117325
20
-378.407684
30
4.432477
11
174.117325
21
-666.591980
31
4.432477
12
168.877594
22
-666.591980
32
26.179024
13
168.877594
23
-378.407684
33
26.179024
0
3DFACE
8
Hangar2
62
1.000000
10
168.877594
20
-378.407684
30
26.179024
11
168.877594
21
-666.591980
31
26.179024
12
153.997086
22
-666.591980
32
43.383518
13
153.997086
23
-378.407684
33
43.383518
0
3DFACE
8
Hangar2
62
1.000000
10
153.997086
20
-378.407684
30
43.383518
11
153.997086
21
-666.591980
31
43.383518
12
109.307220
22
-666.591980
32
54.383064
13
109.307220
23
-378.407684
33
54.383064
0
3DFACE
8
Hangar2
62
1.000000
10
109.307220
20
-378.407684
30
54.383064
11
109.307220
21
-666.591980
31
54.383064
12
31.430578
22
-666.591980
32
58.114506
13
31.430578
23
-378.407684
33
58.114506
0
3DFACE
8
Hangar2
62
1.000000
10
31.430578
20
-378.407684
30
58.114506
11
31.430578
21
-666.591980
31
58.114506
12
-46.334320
22
-666.591980
32
54.217190
13
-46.334320
23
-378.407684
33
54.217190
0
3DFACE
8
Hangar2
62
1.000000
10
-46.334320
20
-378.407684
30
54.217190
11
-46.334320
21
-666.591980
31
54.217190
12
-90.823105
22
-666.591980
32
43.067795
13
-90.823105
23
-378.407684
33
43.067795
0
3DFACE
8
Hangar2
62
1.000000
10
-90.823105
20
-378.407684
30
43.067795
11
-90.823105
21
-666.591980
31
43.067795
12
-105.448723
22
-666.591980
32
25.743969
13
-105.448723
23
-378.407684
33
25.743969
0
3DFACE
8
Hangar2
62
1.000000
10
-105.448723
20
-378.407684
30
25.743969
11
-105.448723
21
-666.591980
31
25.743969
12
-110.405136
22
-666.591980
32
3.920148
13
-110.405136
23
-378.407684
33
3.920148
0
3DFACE
8
Hangar2
62
1.000000
10
-110.405136
20
-378.407684
30
3.920148
11
-110.405136
21
-666.591980
31
3.920148
12
-100.488472
22
-666.591980
32
-20.294304
13
-100.488472
23
-378.407684
33
-20.294304
0
3DFACE
8
Hangar2
62
1.000000
10
-100.488472
20
-666.591980
30
-20.294304
11
-110.405136
21
-666.591980
31
3.920148
12
-105.448723
22
-666.591980
32
25.743969
13
-105.448723
23
-666.591980
33
25.743969
0
3DFACE
8
Hangar2
62
1.000000
10
-100.488472
20
-666.591980
30
-20.294304
11
-105.448723
21
-666.591980
31
25.743969
12
-90.823105
22
-666.591980
32
43.067795
13
-90.823105
23
-666.591980
33
43.067795
0
3DFACE
8
Hangar2
62
1.000000
10
-100.488472
20
-666.591980
30
-20.294304
11
-90.823105
21
-666.591980
31
43.067795
12
-46.334320
22
-666.591980
32
54.217190
13
-46.334320
23
-666.591980
33
54.217190
0
3DFACE
8
Hangar2
62
1.000000
10
-100.488472
20
-666.591980
30
-20.294304
11
-46.334320
21
-666.591980
31
54.217190
12
31.430578
22
-666.591980
32
58.114506
13
31.430578
23
-666.591980
33
58.114506
0
3DFACE
8
Hangar2
62
1.000000
10
-100.488472
20
-666.591980
30
-20.294304
11
31.430578
21
-666.591980
31
58.114506
12
109.307220
22
-666.591980
32
54.383064
13
109.307220
23
-666.591980
33
54.383064
0
3DFACE
8
Hangar2
62
1.000000
10
-100.488472
20
-666.591980
30
-20.294304
11
109.307220
21
-666.591980
31
54.383064
12
153.997086
22
-666.591980
32
43.383518
13
153.997086
23
-666.591980
33
43.383518
0
3DFACE
8
Hangar2
62
1.000000
10
-100.488472
20
-666.591980
30
-20.294304
11
153.997086
21
-666.591980
31
43.383518
12
168.877594
22
-666.591980
32
26.179024
13
168.877594
23
-666.591980
33
26.179024
0
3DFACE
8
Hangar2
62
1.000000
10
-100.488472
20
-666.591980
30
-20.294304
11
168.877594
21
-666.591980
31
26.179024
12
174.117325
22
-666.591980
32
4.432477
13
174.117325
23
-666.591980
33
4.432477
0
3DFACE
8
Hangar2
62
1.000000
10
-100.488472
20
-666.591980
30
-20.294304
11
174.117325
21
-666.591980
31
4.432477
12
164.478638
22
-666.591980
32
-19.754217
13
164.478638
23
-666.591980
33
-19.754217
0
3DFACE
8
Hangar2
62
1.000000
10
164.478638
20
-378.407684
30
-19.754217
11
174.117325
21
-378.407684
31
4.432477
12
168.877594
22
-378.407684
32
26.179024
13
168.877594
23
-378.407684
33
26.179024
0
3DFACE
8
Hangar2
62
1.000000
10
164.478638
20
-378.407684
30
-19.754217
11
168.877594
21
-378.407684
31
26.179024
12
153.997086
22
-378.407684
32
43.383518
13
153.997086
23
-378.407684
33
43.383518
0
3DFACE
8
Hangar2
62
1.000000
10
164.478638
20
-378.407684
30
-19.754217
11
153.997086
21
-378.407684
31
43.383518
12
109.307220
22
-378.407684
32
54.383064
13
109.307220
23
-378.407684
33
54.383064
0
3DFACE
8
Hangar2
62
1.000000
10
164.478638
20
-378.407684
30
-19.754217
11
109.307220
21
-378.407684
31
54.383064
12
31.430578
22
-378.407684
32
58.114506
13
31.430578
23
-378.407684
33
58.114506
0
3DFACE
8
Hangar2
62
1.000000
10
164.478638
20
-378.407684
30
-19.754217
11
31.430578
21
-378.407684
31
58.114506
12
-46.334320
22
-378.407684
32
54.217190
13
-46.334320
23
-378.407684
33
54.217190
0
3DFACE
8
Hangar2
62
1.000000
10
164.478638
20
-378.407684
30
-19.754217
11
-46.334320
21
-378.407684
31
54.217190
12
-90.823105
22
-378.407684
32
43.067795
13
-90.823105
23
-378.407684
33
43.067795
0
3DFACE
8
Hangar2
62
1.000000
10
164.478638
20
-378.407684
30
-19.754217
11
-90.823105
21
-378.407684
31
43.067795
12
-105.448723
22
-378.407684
32
25.743969
13
-105.448723
23
-378.407684
33
25.743969
0
3DFACE
8
Hangar2
62
1.000000
10
164.478638
20
-378.407684
30
-19.754217
11
-105.448723
21
-378.407684
31
25.743969
12
-110.405136
22
-378.407684
32
3.920148
13
-110.405136
23
-378.407684
33
3.920148
0
3DFACE
8
Hangar2
62
1.000000
10
164.478638
20
-378.407684
30
-19.754217
11
-110.405136
21
-378.407684
31
3.920148
12
-100.488472
22
-378.407684
32
-20.294304
13
-100.488472
23
-378.407684
33
-20.294304
0
3DFACE
8
Hangar2
62
1.000000
10
69.478645
20
-382.407684
30
-19.754217
11
69.478645
21
-382.407684
31
10.245784
12
54.478645
22
-382.407684
32
10.245784
13
54.478645
23
-382.407684
33
-19.754217
0
3DFACE
8
Hangar2
62
1.000000
10
-9.066187
20
-382.407684
30
3.743966
11
-11.566186
21
-382.407684
31
1.243966
12
-14.066188
22
-382.407684
32
-1.256034
13
-14.066188
23
-382.407684
33
-1.256034
0
3DFACE
8
Hangar2
62
1.000000
10
-22.415077
20
-382.407684
30
0.560078
11
-24.066191
21
-382.407684
31
3.743966
12
-30.060719
22
-382.407684
32
3.743970
13
-30.060719
23
-382.407684
33
3.743970
0
3DFACE
8
Hangar2
62
1.000000
10
-22.415077
20
-382.407684
30
0.560078
11
-30.060719
21
-382.407684
31
3.743970
12
-29.066183
22
-382.407684
32
-1.256031
13
-29.066183
23
-382.407684
33
-1.256031
0
3DFACE
8
Hangar2
62
1.000000
10
-22.415077
20
-382.407684
30
0.560078
11
-29.066183
21
-382.407684
31
-1.256031
12
-27.063454
22
-382.407684
32
-4.253301
13
-27.063454
23
-382.407684
33
-4.253301
0
3DFACE
8
Hangar2
62
1.000000
10
-22.415077
20
-382.407684
30
0.560078
11
-27.063454
21
-382.407684
31
-4.253301
12
-24.066183
22
-382.407684
32
-6.256031
13
-24.066183
23
-382.407684
33
-6.256031
0
3DFACE
8
Hangar2
62
1.000000
10
-22.415077
20
-382.407684
30
0.560078
11
-24.066183
21
-382.407684
31
-6.256031
12
-16.566183
22
-382.407684
32
-7.747837
13
-16.566183
23
-382.407684
33
-7.747837
0
3DFACE
8
Hangar2
62
1.000000
10
-16.566183
20
-382.407684
30
-7.747837
11
-9.066183
21
-382.407684
31
-6.256031
12
-6.068913
22
-382.407684
32
-4.253301
13
-6.068913
23
-382.407684
33
-4.253301
0
3DFACE
8
Hangar2
62
1.000000
10
-16.566183
20
-382.407684
30
-7.747837
11
-6.068913
21
-382.407684
31
-4.253301
12
-4.066182
22
-382.407684
32
-1.256031
13
-4.066182
23
-382.407684
33
-1.256031
0
3DFACE
8
Hangar2
62
1.000000
10
-16.566183
20
-382.407684
30
-7.747837
11
-4.066182
21
-382.407684
31
-1.256031
12
-3.299795
22
-382.407684
32
1.326471
13
-3.299795
23
-382.407684
33
1.326471
0
3DFACE
8
Hangar2
62
1.000000
10
-16.566183
20
-382.407684
30
-7.747837
11
-3.299795
21
-382.407684
31
1.326471
12
-4.066182
22
-382.407684
32
3.743969
13
-4.066182
23
-382.407684
33
3.743969
0
3DFACE
8
Hangar2
62
1.000000
10
-16.566183
20
-382.407684
30
-7.747837
11
-4.066182
21
-382.407684
31
3.743969
12
-6.483678
22
-382.407684
32
4.510358
13
-6.483678
23
-382.407684
33
4.510358
0
3DFACE
8
Hangar2
62
1.000000
10
-16.566183
20
-382.407684
30
-7.747837
11
-6.483678
21
-382.407684
31
4.510358
12
-9.066187
22
-382.407684
32
3.743966
13
-9.066187
23
-382.407684
33
3.743966
0
3DFACE
8
Hangar2
62
1.000000
10
-16.566183
20
-382.407684
30
-7.747837
11
-9.066187
21
-382.407684
31
3.743966
12
-14.066188
22
-382.407684
32
-1.256034
13
-14.066188
23
-382.407684
33
-1.256034
0
3DFACE
8
Hangar2
62
1.000000
10
-19.066189
20
-382.407684
30
-1.256034
11
-22.415077
21
-382.407684
31
0.560078
12
-16.566183
22
-382.407684
32
-7.747837
13
-16.566183
23
-382.407684
33
-7.747837
0
3DFACE
8
Hangar2
62
1.000000
10
-16.566183
20
-382.407684
30
-7.747837
11
-14.066188
21
-382.407684
31
-1.256034
12
-16.566187
22
-382.407684
32
-1.753303
13
-16.566187
23
-382.407684
33
-1.753303
0
3DFACE
8
Hangar2
62
1.000000
10
-16.566187
20
-382.407684
30
-1.753303
11
-19.066189
21
-382.407684
31
-1.256034
12
-16.566183
22
-382.407684
32
-7.747837
13
-16.566183
23
-382.407684
33
-7.747837
0
3DFACE
8
Hangar2
62
1.000000
10
-19.066189
20
-382.407684
30
8.743966
11
-9.066191
21
-382.407684
31
8.743966
12
-10.717296
22
-382.407684
32
15.560081
13
-10.717296
23
-382.407684
33
15.560081
0
3DFACE
8
Hangar2
62
1.000000
10
-19.066189
20
-382.407684
30
8.743966
11
-10.717296
21
-382.407684
31
15.560081
12
-14.066184
22
-382.407684
32
13.743969
13
-14.066184
23
-382.407684
33
13.743969
0
3DFACE
8
Hangar2
62
1.000000
10
-19.066189
20
-382.407684
30
8.743966
11
-14.066184
21
-382.407684
31
13.743969
12
-24.066183
22
-382.407684
32
13.743969
13
-24.066183
23
-382.407684
33
13.743969
0
3DFACE
8
Hangar2
62
1.000000
10
-19.066189
20
-382.407684
30
8.743966
11
-24.066183
21
-382.407684
31
13.743969
12
-27.063454
22
-382.407684
32
11.741238
13
-27.063454
23
-382.407684
33
11.741238
0
3DFACE
8
Hangar2
62
1.000000
10
-19.066189
20
-382.407684
30
8.743966
11
-27.063454
21
-382.407684
31
11.741238
12
-29.066183
22
-382.407684
32
8.743969
13
-29.066183
23
-382.407684
33
8.743969
0
3DFACE
8
Hangar2
62
1.000000
10
-19.066189
20
-382.407684
30
8.743966
11
-29.066183
21
-382.407684
31
8.743969
12
-30.060719
22
-382.407684
32
3.743970
13
-30.060719
23
-382.407684
33
3.743970
0
3DFACE
8
Hangar2
62
1.000000
10
-30.060719
20
-382.407684
30
3.743970
11
-24.066191
21
-382.407684
31
3.743966
12
-22.415077
22
-382.407684
32
6.927853
13
-22.415077
23
-382.407684
33
6.927853
0
3DFACE
8
Hangar2
62
1.000000
10
-22.415077
20
-382.407684
30
6.927853
11
-19.066189
21
-382.407684
31
8.743966
12
-30.060719
22
-382.407684
32
3.743970
13
-30.060719
23
-382.407684
33
3.743970
0
3DFACE
8
Hangar2
62
1.000000
10
-9.066191
20
-382.407684
30
8.743966
11
-6.068920
21
-382.407684
31
10.746696
12
-4.066190
22
-382.407684
32
13.743966
13
-4.066190
23
-382.407684
33
13.743966
0
3DFACE
8
Hangar2
62
1.000000
10
-9.066191
20
-382.407684
30
8.743966
11
-4.066190
21
-382.407684
31
13.743966
12
-3.071654
22
-382.407684
32
18.743965
13
-3.071654
23
-382.407684
33
18.743965
0
3DFACE
8
Hangar2
62
1.000000
10
-9.066191
20
-382.407684
30
8.743966
11
-3.071654
21
-382.407684
31
18.743965
12
-4.066190
22
-382.407684
32
23.743965
13
-4.066190
23
-382.407684
33
23.743965
0
3DFACE
8
Hangar2
62
1.000000
10
-4.066190
20
-382.407684
30
23.743965
11
-10.717288
21
-382.407684
31
21.927855
12
-9.066183
22
-382.407684
32
18.743969
13
-9.066183
23
-382.407684
33
18.743969
0
3DFACE
8
Hangar2
62
1.000000
10
-4.066190
20
-382.407684
30
23.743965
11
-9.066183
21
-382.407684
31
18.743969
12
-10.717296
22
-382.407684
32
15.560081
13
-10.717296
23
-382.407684
33
15.560081
0
3DFACE
8
Hangar2
62
1.000000
10
-4.066190
20
-382.407684
30
23.743965
11
-10.717296
21
-382.407684
31
15.560081
12
-9.066191
22
-382.407684
32
8.743966
13
-9.066191
23
-382.407684
33
8.743966
0
3DFACE
8
Hangar2
62
1.000000
10
-4.066190
20
-382.407684
30
23.743965
11
-6.068920
21
-382.407684
31
26.741236
12
-9.066187
22
-382.407684
32
28.743967
13
-9.066187
23
-382.407684
33
28.743967
0
3DFACE
8
Hangar2
62
1.000000
10
-4.066190
20
-382.407684
30
23.743965
11
-9.066187
21
-382.407684
31
28.743967
12
-16.566187
22
-382.407684
32
30.235773
13
-16.566187
23
-382.407684
33
30.235773
0
3DFACE
8
Hangar2
62
1.000000
10
-4.066190
20
-382.407684
30
23.743965
11
-16.566187
21
-382.407684
31
30.235773
12
-24.066187
22
-382.407684
32
28.743967
13
-24.066187
23
-382.407684
33
28.743967
0
3DFACE
8
Hangar2
62
1.000000
10
-24.066187
20
-382.407684
30
28.743967
11
-19.066185
21
-382.407684
31
23.743969
12
-16.566183
22
-382.407684
32
24.241241
13
-16.566183
23
-382.407684
33
24.241241
0
3DFACE
8
Hangar2
62
1.000000
10
-24.066187
20
-382.407684
30
28.743967
11
-16.566183
21
-382.407684
31
24.241241
12
-14.066184
22
-382.407684
32
23.743969
13
-14.066184
23
-382.407684
33
23.743969
0
3DFACE
8
Hangar2
62
1.000000
10
-14.066184
20
-382.407684
30
23.743969
11
-10.717288
21
-382.407684
31
21.927855
12
-4.066190
22
-382.407684
32
23.743965
13
-4.066190
23
-382.407684
33
23.743965
0
3DFACE
8
Hangar2
62
1.000000
10
-14.066184
20
-382.407684
30
23.743969
11
-4.066190
21
-382.407684
31
23.743965
12
-24.066187
22
-382.407684
32
28.743967
13
-24.066187
23
-382.407684
33
28.743967
0
3DFACE
8
Hangar2
62
1.000000
10
-19.066185
20
-382.407684
30
23.743969
11
-24.066187
21
-382.407684
31
28.743967
12
-27.063454
22
-382.407684
32
26.741238
13
-27.063454
23
-382.407684
33
26.741238
0
3DFACE
8
Hangar2
62
1.000000
10
-19.066185
20
-382.407684
30
23.743969
11
-27.063454
21
-382.407684
31
26.741238
12
-29.066187
22
-382.407684
32
23.743967
13
-29.066187
23
-382.407684
33
23.743967
0
3DFACE
8
Hangar2
62
1.000000
10
-19.066185
20
-382.407684
30
23.743969
11
-29.066187
21
-382.407684
31
23.743967
12
-29.832575
22
-382.407684
32
21.161467
13
-29.832575
23
-382.407684
33
21.161467
0
3DFACE
8
Hangar2
62
1.000000
10
-19.066185
20
-382.407684
30
23.743969
11
-29.832575
21
-382.407684
31
21.161467
12
-29.066187
22
-382.407684
32
18.743969
13
-29.066187
23
-382.407684
33
18.743969
0
3DFACE
8
Hangar2
62
1.000000
10
-19.066185
20
-382.407684
30
23.743969
11
-29.066187
21
-382.407684
31
18.743969
12
-26.648687
22
-382.407684
32
17.977579
13
-26.648687
23
-382.407684
33
17.977579
0
3DFACE
8
Hangar2
62
1.000000
10
-19.066185
20
-382.407684
30
23.743969
11
-26.648687
21
-382.407684
31
17.977579
12
-24.066187
22
-382.407684
32
18.743969
13
-24.066187
23
-382.407684
33
18.743969
0
3DFACE
8
Hangar2
62
1.000000
10
-45.367542
20
-382.407654
30
10.347084
11
-44.753902
21
-382.407715
31
12.140856
12
-45.060722
22
-382.407684
32
13.743970
13
-45.060722
23
-382.407684
33
13.743970
0
3DFACE
8
Hangar2
62
1.000000
10
-45.367542
20
-382.407654
30
10.347084
11
-45.060722
21
-382.407684
31
13.743970
12
-46.663834
22
-382.407654
32
14.664425
13
-46.663834
23
-382.407654
33
14.664425
0
3DFACE
8
Hangar2
62
1.000000
10
-45.367542
20
-382.407654
30
10.347084
11
-46.663834
21
-382.407654
31
14.664425
12
-48.457607
22
-382.407715
32
14.664422
13
-48.457607
23
-382.407715
33
14.664422
0
3DFACE
8
Hangar2
62
1.000000
10
-45.367542
20
-382.407654
30
10.347084
11
-48.457607
21
-382.407715
31
14.664422
12
-50.060722
22
-382.407684
32
13.743970
13
-50.060722
23
-382.407684
33
13.743970
0
3DFACE
8
Hangar2
62
1.000000
10
-45.367542
20
-382.407654
30
10.347084
11
-50.060722
21
-382.407684
31
13.743970
12
-50.367538
22
-382.407654
32
12.140856
13
-50.367538
23
-382.407654
33
12.140856
0
3DFACE
8
Hangar2
62
1.000000
10
-45.367542
20
-382.407654
30
10.347084
11
-50.367538
21
-382.407654
31
12.140856
12
-49.753906
22
-382.407715
32
10.347083
13
-49.753906
23
-382.407715
33
10.347083
0
3DFACE
8
Hangar2
62
1.000000
10
-45.367542
20
-382.407654
30
10.347084
11
-49.753906
21
-382.407715
31
10.347083
12
-50.060722
22
-382.407684
32
8.743970
13
-50.060722
23
-382.407684
33
8.743970
0
3DFACE
8
Hangar2
62
1.000000
10
-45.367542
20
-382.407654
30
10.347084
11
-50.060722
21
-382.407684
31
8.743970
12
-50.060722
22
-382.407684
32
3.743970
13
-50.060722
23
-382.407684
33
3.743970
0
3DFACE
8
Hangar2
62
1.000000
10
-45.367542
20
-382.407654
30
10.347084
11
-50.060722
21
-382.407684
31
3.743970
12
-49.447086
22
-382.407654
32
0.537741
13
-49.447086
23
-382.407654
33
0.537741
0
3DFACE
8
Hangar2
62
1.000000
10
-45.367542
20
-382.407654
30
10.347084
11
-49.447086
21
-382.407654
31
0.537741
12
-50.674358
22
-382.407715
32
-3.049802
13
-50.674358
23
-382.407715
33
-3.049802
0
3DFACE
8
Hangar2
62
1.000000
10
-45.367542
20
-382.407654
30
10.347084
11
-50.674358
21
-382.407715
31
-3.049802
12
-50.060722
22
-382.407684
32
-6.256030
13
-50.060722
23
-382.407684
33
-6.256030
0
3DFACE
8
Hangar2
62
1.000000
10
-45.367542
20
-382.407654
30
10.347084
11
-50.060722
21
-382.407684
31
-6.256030
12
-48.457607
22
-382.407654
32
-7.176485
13
-48.457607
23
-382.407654
33
-7.176485
0
3DFACE
8
Hangar2
62
1.000000
10
-45.367542
20
-382.407654
30
10.347084
11
-48.457607
21
-382.407654
31
-7.176485
12
-46.663837
22
-382.407715
32
-7.176484
13
-46.663837
23
-382.407715
33
-7.176484
0
3DFACE
8
Hangar2
62
1.000000
10
-46.663837
20
-382.407715
30
-7.176484
11
-45.060722
21
-382.407684
31
-6.256030
12
-44.447086
22
-382.407654
32
-3.049802
13
-44.447086
23
-382.407654
33
-3.049802
0
3DFACE
8
Hangar2
62
1.000000
10
-46.663837
20
-382.407715
30
-7.176484
11
-44.447086
21
-382.407654
31
-3.049802
12
-45.674358
22
-382.407715
32
0.537741
13
-45.674358
23
-382.407715
33
0.537741
0
3DFACE
8
Hangar2
62
1.000000
10
-45.674358
20
-382.407715
30
0.537741
11
-45.060726
21
-382.407684
31
3.743970
12
-45.060722
22
-382.407684
32
8.743970
13
-45.060722
23
-382.407684
33
8.743970
0
3DFACE
8
Hangar2
62
1.000000
10
-45.674358
20
-382.407715
30
0.537741
11
-45.060722
21
-382.407684
31
8.743970
12
-45.367542
22
-382.407654
32
10.347084
13
-45.367542
23
-382.407654
33
10.347084
0
3DFACE
8
Hangar2
62
1.000000
10
-45.367542
20
-382.407654
30
10.347084
11
-46.663837
21
-382.407715
31
-7.176484
12
-45.674358
22
-382.407715
32
0.537741
13
-45.674358
23
-382.407715
33
0.537741
0
3DFACE
8
Hangar2
62
1.000000
10
-51.663837
20
-382.407654
30
8.437153
11
-53.457611
21
-382.407715
31
9.050787
12
-55.060726
22
-382.407684
32
8.743970
13
-55.060726
23
-382.407684
33
8.743970
0
3DFACE
8
Hangar2
62
1.000000
10
-51.663837
20
-382.407654
30
8.437153
11
-55.060726
21
-382.407684
31
8.743970
12
-55.981178
22
-382.407654
32
7.140856
13
-55.981178
23
-382.407654
33
7.140856
0
3DFACE
8
Hangar2
62
1.000000
10
-51.663837
20
-382.407654
30
8.437153
11
-55.981178
21
-382.407654
31
7.140856
12
-55.981178
22
-382.407715
32
5.347084
13
-55.981178
23
-382.407715
33
5.347084
0
3DFACE
8
Hangar2
62
1.000000
10
-51.663837
20
-382.407654
30
8.437153
11
-55.981178
21
-382.407715
31
5.347084
12
-55.060726
22
-382.407684
32
3.743970
13
-55.060726
23
-382.407684
33
3.743970
0
3DFACE
8
Hangar2
62
1.000000
10
-51.663837
20
-382.407654
30
8.437153
11
-55.060726
21
-382.407684
31
3.743970
12
-53.457607
22
-382.407654
32
3.437152
13
-53.457607
23
-382.407654
33
3.437152
0
3DFACE
8
Hangar2
62
1.000000
10
-51.663837
20
-382.407654
30
8.437153
11
-53.457607
21
-382.407654
31
3.437152
12
-51.663837
22
-382.407715
32
4.050787
13
-51.663837
23
-382.407715
33
4.050787
0
3DFACE
8
Hangar2
62
1.000000
10
-51.663837
20
-382.407654
30
8.437153
11
-51.663837
21
-382.407715
31
4.050787
12
-50.060722
22
-382.407684
32
3.743970
13
-50.060722
23
-382.407684
33
3.743970
0
3DFACE
8
Hangar2
62
1.000000
10
-51.663837
20
-382.407654
30
8.437153
11
-50.060722
21
-382.407684
31
3.743970
12
-50.060722
22
-382.407684
32
8.743970
13
-50.060722
23
-382.407684
33
8.743970
0
3DFACE
8
Hangar2
62
1.000000
10
-41.854500
20
-382.407654
30
4.357607
11
-38.266960
21
-382.407715
31
3.130335
12
-35.060730
22
-382.407684
32
3.743970
13
-35.060730
23
-382.407684
33
3.743970
0
3DFACE
8
Hangar2
62
1.000000
10
-41.854500
20
-382.407654
30
4.357607
11
-35.060730
21
-382.407684
31
3.743970
12
-33.714035
22
-382.407654
32
6.827925
13
-33.714035
23
-382.407654
33
6.827925
0
3DFACE
8
Hangar2
62
1.000000
10
-41.854500
20
-382.407654
30
4.357607
11
-33.714035
21
-382.407654
31
6.827925
12
-34.208252
22
-382.407715
32
10.293195
13
-34.208252
23
-382.407715
33
10.293195
0
3DFACE
8
Hangar2
62
1.000000
10
-34.208252
20
-382.407715
30
10.293195
11
-39.634487
21
-382.407654
31
12.018582
12
-39.387383
22
-382.407715
32
10.285947
13
-39.387383
23
-382.407715
33
10.285947
0
3DFACE
8
Hangar2
62
1.000000
10
-34.208252
20
-382.407715
30
10.293195
11
-39.387383
21
-382.407715
31
10.285947
12
-40.060726
22
-382.407684
32
8.743970
13
-40.060726
23
-382.407684
33
8.743970
0
3DFACE
8
Hangar2
62
1.000000
10
-34.208252
20
-382.407715
30
10.293195
11
-40.060726
21
-382.407684
31
8.743970
12
-41.663837
22
-382.407654
32
7.823518
13
-41.663837
23
-382.407654
33
7.823518
0
3DFACE
8
Hangar2
62
1.000000
10
-43.457611
20
-382.407715
30
7.823516
11
-45.060722
21
-382.407684
31
8.743970
12
-45.060726
22
-382.407684
32
3.743970
13
-45.060726
23
-382.407684
33
3.743970
0
3DFACE
8
Hangar2
62
1.000000
10
-43.457611
20
-382.407715
30
7.823516
11
-45.060726
21
-382.407684
31
3.743970
12
-41.854500
22
-382.407654
32
4.357607
13
-41.854500
23
-382.407654
33
4.357607
0
3DFACE
8
Hangar2
62
1.000000
10
-41.854500
20
-382.407654
30
4.357607
11
-34.208252
21
-382.407715
31
10.293195
12
-41.663837
22
-382.407654
32
7.823518
13
-41.663837
23
-382.407654
33
7.823518
0
3DFACE
8
Hangar2
62
1.000000
10
-41.854500
20
-382.407654
30
4.357607
11
-41.663837
21
-382.407654
31
7.823518
12
-43.457611
22
-382.407715
32
7.823516
13
-43.457611
23
-382.407715
33
7.823516
0
3DFACE
8
Hangar2
62
1.000000
10
-35.060730
20
-382.407684
30
13.743970
11
-35.685535
21
-382.407654
31
19.203838
12
-36.854992
22
-382.407715
32
24.506313
13
-36.854992
23
-382.407715
33
24.506313
0
3DFACE
8
Hangar2
62
1.000000
10
-35.060730
20
-382.407684
30
13.743970
11
-36.854992
21
-382.407715
31
24.506313
12
-40.060726
22
-382.407684
32
28.743971
13
-40.060726
23
-382.407684
33
28.743971
0
3DFACE
8
Hangar2
62
1.000000
10
-35.060730
20
-382.407684
30
13.743970
11
-40.060726
21
-382.407684
31
28.743971
12
-41.747246
22
-382.407654
32
29.601406
13
-41.747246
23
-382.407654
33
29.601406
0
3DFACE
8
Hangar2
62
1.000000
10
-35.060730
20
-382.407684
30
13.743970
11
-41.747246
21
-382.407654
31
29.601406
12
-43.549583
22
-382.407715
32
29.741472
13
-43.549583
23
-382.407715
33
29.741472
0
3DFACE
8
Hangar2
62
1.000000
10
-35.060730
20
-382.407684
30
13.743970
11
-43.549583
21
-382.407715
31
29.741472
12
-45.060722
22
-382.407684
32
28.743971
13
-45.060722
23
-382.407684
33
28.743971
0
3DFACE
8
Hangar2
62
1.000000
10
-35.060730
20
-382.407684
30
13.743970
11
-45.060722
21
-382.407684
31
28.743971
12
-45.681782
22
-382.407654
32
23.620445
13
-45.681782
23
-382.407654
33
23.620445
0
3DFACE
8
Hangar2
62
1.000000
10
-35.060730
20
-382.407684
30
13.743970
11
-45.681782
21
-382.407654
31
23.620445
12
-42.598934
22
-382.407715
32
18.760900
13
-42.598934
23
-382.407715
33
18.760900
0
3DFACE
8
Hangar2
62
1.000000
10
-35.060730
20
-382.407684
30
13.743970
11
-42.598934
21
-382.407715
31
18.760900
12
-40.060726
22
-382.407684
32
13.743969
13
-40.060726
23
-382.407684
33
13.743969
0
3DFACE
8
Hangar2
62
1.000000
10
-35.060730
20
-382.407684
30
13.743970
11
-40.060726
21
-382.407684
31
13.743969
12
-39.634487
22
-382.407654
32
12.018582
13
-39.634487
23
-382.407654
33
12.018582
0
3DFACE
8
Hangar2
62
1.000000
10
-35.060730
20
-382.407684
30
13.743970
11
-39.634487
21
-382.407654
31
12.018582
12
-34.208252
22
-382.407715
32
10.293195
13
-34.208252
23
-382.407715
33
10.293195
0
3DFACE
8
Hangar1
62
2.000000
10
-250.521362
20
-378.407684
30
-19.754217
11
-250.521362
21
-666.591980
31
-19.754217
12
-240.882675
22
-666.591980
32
4.432477
13
-240.882675
23
-378.407684
33
4.432477
0
3DFACE
8
Hangar1
62
2.000000
10
-240.882675
20
-378.407684
30
4.432477
11
-240.882675
21
-666.591980
31
4.432477
12
-246.122406
22
-666.591980
32
26.179024
13
-246.122406
23
-378.407684
33
26.179024
0
3DFACE
8
Hangar1
62
2.000000
10
-246.122406
20
-378.407684
30
26.179024
11
-246.122406
21
-666.591980
31
26.179024
12
-261.002930
22
-666.591980
32
43.383518
13
-261.002930
23
-378.407684
33
43.383518
0
3DFACE
8
Hangar1
62
2.000000
10
-261.002930
20
-378.407684
30
43.383518
11
-261.002930
21
-666.591980
31
43.383518
12
-305.692780
22
-666.591980
32
54.383064
13
-305.692780
23
-378.407684
33
54.383064
0
3DFACE
8
Hangar1
62
2.000000
10
-305.692780
20
-378.407684
30
54.383064
11
-305.692780
21
-666.591980
31
54.383064
12
-383.569427
22
-666.591980
32
58.114506
13
-383.569427
23
-378.407684
33
58.114506
0
3DFACE
8
Hangar1
62
2.000000
10
-383.569427
20
-378.407684
30
58.114506
11
-383.569427
21
-666.591980
31
58.114506
12
-461.334320
22
-666.591980
32
54.217190
13
-461.334320
23
-378.407684
33
54.217190
0
3DFACE
8
Hangar1
62
2.000000
10
-461.334320
20
-378.407684
30
54.217190
11
-461.334320
21
-666.591980
31
54.217190
12
-505.823120
22
-666.591980
32
43.067795
13
-505.823120
23
-378.407684
33
43.067795
0
3DFACE
8
Hangar1
62
2.000000
10
-505.823120
20
-378.407684
30
43.067795
11
-505.823120
21
-666.591980
31
43.067795
12
-520.448730
22
-666.591980
32
25.743969
13
-520.448730
23
-378.407684
33
25.743969
0
3DFACE
8
Hangar1
62
2.000000
10
-520.448730
20
-378.407684
30
25.743969
11
-520.448730
21
-666.591980
31
25.743969
12
-525.405090
22
-666.591980
32
3.920148
13
-525.405090
23
-378.407684
33
3.920148
0
3DFACE
8
Hangar1
62
2.000000
10
-525.405090
20
-378.407684
30
3.920148
11
-525.405090
21
-666.591980
31
3.920148
12
-515.488464
22
-666.591980
32
-20.294304
13
-515.488464
23
-378.407684
33
-20.294304
0
3DFACE
8
Hangar1
62
2.000000
10
-515.488464
20
-666.591980
30
-20.294304
11
-525.405090
21
-666.591980
31
3.920148
12
-520.448730
22
-666.591980
32
25.743969
13
-520.448730
23
-666.591980
33
25.743969
0
3DFACE
8
Hangar1
62
2.000000
10
-515.488464
20
-666.591980
30
-20.294304
11
-520.448730
21
-666.591980
31
25.743969
12
-505.823120
22
-666.591980
32
43.067795
13
-505.823120
23
-666.591980
33
43.067795
0
3DFACE
8
Hangar1
62
2.000000
10
-515.488464
20
-666.591980
30
-20.294304
11
-505.823120
21
-666.591980
31
43.067795
12
-461.334320
22
-666.591980
32
54.217190
13
-461.334320
23
-666.591980
33
54.217190
0
3DFACE
8
Hangar1
62
2.000000
10
-515.488464
20
-666.591980
30
-20.294304
11
-461.334320
21
-666.591980
31
54.217190
12
-383.569427
22
-666.591980
32
58.114506
13
-383.569427
23
-666.591980
33
58.114506
0
3DFACE
8
Hangar1
62
2.000000
10
-515.488464
20
-666.591980
30
-20.294304
11
-383.569427
21
-666.591980
31
58.114506
12
-305.692780
22
-666.591980
32
54.383064
13
-305.692780
23
-666.591980
33
54.383064
0
3DFACE
8
Hangar1
62
2.000000
10
-515.488464
20
-666.591980
30
-20.294304
11
-305.692780
21
-666.591980
31
54.383064
12
-261.002930
22
-666.591980
32
43.383518
13
-261.002930
23
-666.591980
33
43.383518
0
3DFACE
8
Hangar1
62
2.000000
10
-515.488464
20
-666.591980
30
-20.294304
11
-261.002930
21
-666.591980
31
43.383518
12
-246.122406
22
-666.591980
32
26.179024
13
-246.122406
23
-666.591980
33
26.179024
0
3DFACE
8
Hangar1
62
2.000000
10
-515.488464
20
-666.591980
30
-20.294304
11
-246.122406
21
-666.591980
31
26.179024
12
-240.882675
22
-666.591980
32
4.432477
13
-240.882675
23
-666.591980
33
4.432477
0
3DFACE
8
Hangar1
62
2.000000
10
-515.488464
20
-666.591980
30
-20.294304
11
-240.882675
21
-666.591980
31
4.432477
12
-250.521362
22
-666.591980
32
-19.754217
13
-250.521362
23
-666.591980
33
-19.754217
0
3DFACE
8
Hangar1
62
2.000000
10
-250.521362
20
-378.407684
30
-19.754217
11
-240.882675
21
-378.407684
31
4.432477
12
-246.122406
22
-378.407684
32
26.179024
13
-246.122406
23
-378.407684
33
26.179024
0
3DFACE
8
Hangar1
62
2.000000
10
-250.521362
20
-378.407684
30
-19.754217
11
-246.122406
21
-378.407684
31
26.179024
12
-261.002930
22
-378.407684
32
43.383518
13
-261.002930
23
-378.407684
33
43.383518
0
3DFACE
8
Hangar1
62
2.000000
10
-250.521362
20
-378.407684
30
-19.754217
11
-261.002930
21
-378.407684
31
43.383518
12
-305.692780
22
-378.407684
32
54.383064
13
-305.692780
23
-378.407684
33
54.383064
0
3DFACE
8
Hangar1
62
2.000000
10
-250.521362
20
-378.407684
30
-19.754217
11
-305.692780
21
-378.407684
31
54.383064
12
-383.569427
22
-378.407684
32
58.114506
13
-383.569427
23
-378.407684
33
58.114506
0
3DFACE
8
Hangar1
62
2.000000
10
-250.521362
20
-378.407684
30
-19.754217
11
-383.569427
21
-378.407684
31
58.114506
12
-461.334320
22
-378.407684
32
54.217190
13
-461.334320
23
-378.407684
33
54.217190
0
3DFACE
8
Hangar1
62
2.000000
10
-250.521362
20
-378.407684
30
-19.754217
11
-461.334320
21
-378.407684
31
54.217190
12
-505.823120
22
-378.407684
32
43.067795
13
-505.823120
23
-378.407684
33
43.067795
0
3DFACE
8
Hangar1
62
2.000000
10
-250.521362
20
-378.407684
30
-19.754217
11
-505.823120
21
-378.407684
31
43.067795
12
-520.448730
22
-378.407684
32
25.743969
13
-520.448730
23
-378.407684
33
25.743969
0
3DFACE
8
Hangar1
62
2.000000
10
-250.521362
20
-378.407684
30
-19.754217
11
-520.448730
21
-378.407684
31
25.743969
12
-525.405090
22
-378.407684
32
3.920148
13
-525.405090
23
-378.407684
33
3.920148
0
3DFACE
8
Hangar1
62
2.000000
10
-250.521362
20
-378.407684
30
-19.754217
11
-525.405090
21
-378.407684
31
3.920148
12
-515.488464
22
-378.407684
32
-20.294304
13
-515.488464
23
-378.407684
33
-20.294304
0
3DFACE
8
Hangar1
62
2.000000
10
-465.521393
20
-382.407684
30
-19.754217
11
-465.521393
21
-382.407684
31
10.245784
12
-480.521362
22
-382.407684
32
10.245784
13
-480.521362
23
-382.407684
33
-19.754217
0
3DFACE
8
Light10
62
3.000000
10
1816.000000
20
-26.999809
30
-21.274643
11
1821.134033
21
-22.035704
31
-21.274643
12
1822.866089
22
-28.963886
32
-21.274643
13
1822.866089
23
-28.963886
33
-21.274643
0
3DFACE
8
Light1
62
4.000000
10
1518.000122
20
-26.999809
30
-21.274643
11
1523.134033
21
-22.035704
31
-21.274643
12
1524.866211
22
-28.963886
32
-21.274643
13
1524.866211
23
-28.963886
33
-21.274643
0
3DFACE
8
Light4
62
5.000000
10
1616.000122
20
-26.999809
30
-21.274643
11
1621.134033
21
-22.035704
31
-21.274643
12
1622.866211
22
-28.963886
32
-21.274643
13
1622.866211
23
-28.963886
33
-21.274643
0
3DFACE
8
Light7
62
6.000000
10
1716.000122
20
-26.999809
30
-21.274643
11
1721.134033
21
-22.035704
31
-21.274643
12
1722.866089
22
-28.963886
32
-21.274643
13
1722.866089
23
-28.963886
33
-21.274643
0
3DFACE
8
Light11
62
7.000000
10
1816.000000
20
-132.999817
30
-21.274643
11
1821.134033
21
-128.035706
31
-21.274643
12
1822.866089
22
-134.963898
32
-21.274643
13
1822.866089
23
-134.963898
33
-21.274643
0
3DFACE
8
Light2
62
8.000000
10
1518.000122
20
-132.999817
30
-21.274643
11
1523.134033
21
-128.035706
31
-21.274643
12
1524.866211
22
-134.963898
32
-21.274643
13
1524.866211
23
-134.963898
33
-21.274643
0
3DFACE
8
Light5
62
9.000000
10
1616.000122
20
-132.999817
30
-21.274643
11
1621.134033
21
-128.035706
31
-21.274643
12
1622.866211
22
-134.963898
32
-21.274643
13
1622.866211
23
-134.963898
33
-21.274643
0
3DFACE
8
Light8
62
10.000000
10
1716.000122
20
-132.999817
30
-21.274643
11
1721.134033
21
-128.035706
31
-21.274643
12
1722.866089
22
-134.963898
32
-21.274643
13
1722.866089
23
-134.963898
33
-21.274643
0
3DFACE
8
Light12
62
11.000000
10
1816.000000
20
-239.999817
30
-21.274643
11
1821.134033
21
-235.035706
31
-21.274643
12
1822.866089
22
-241.963898
32
-21.274643
13
1822.866089
23
-241.963898
33
-21.274643
0
3DFACE
8
Light3
62
12.000000
10
1518.000122
20
-239.999817
30
-21.274643
11
1523.134033
21
-235.035706
31
-21.274643
12
1524.866211
22
-241.963898
32
-21.274643
13
1524.866211
23
-241.963898
33
-21.274643
0
3DFACE
8
Light6
62
13.000000
10
1616.000122
20
-239.999817
30
-21.274643
11
1621.134033
21
-235.035706
31
-21.274643
12
1622.866211
22
-241.963898
32
-21.274643
13
1622.866211
23
-241.963898
33
-21.274643
0
3DFACE
8
Mark13
62
14.000000
10
813.000244
20
-125.999847
30
-21.274643
11
872.000183
21
-125.999847
31
-21.274643
12
872.000183
22
-132.999802
32
-21.274643
13
813.000244
23
-132.999802
33
-21.274643
0
3DFACE
8
Mark12
62
15.000000
10
593.000183
20
-125.999847
30
-21.274643
11
652.000122
21
-125.999847
31
-21.274643
12
652.000122
22
-132.999802
32
-21.274643
13
593.000183
23
-132.999802
33
-21.274643
0
3DFACE
8
Mark6
62
16.000000
10
399.000214
20
-125.999847
30
-21.274643
11
458.000122
21
-125.999847
31
-21.274643
12
458.000122
22
-132.999802
32
-21.274643
13
399.000214
23
-132.999802
33
-21.274643
0
3DFACE
8
Mark5
62
17.000000
10
199.000198
20
-125.999847
30
-21.274643
11
258.000122
21
-125.999847
31
-21.274643
12
258.000122
22
-132.999802
32
-21.274643
13
199.000198
23
-132.999802
33
-21.274643
0
3DFACE
8
Mark4
62
18.000000
10
0.000186
20
-125.999847
30
-21.274643
11
59.000118
21
-125.999847
31
-21.274643
12
59.000118
22
-132.999802
32
-21.274643
13
0.000186
23
-132.999802
33
-21.274643
0
3DFACE
8
Mark3
62
19.000000
10
-196.999817
20
-125.999847
30
-21.274643
11
-137.999893
21
-125.999847
31
-21.274643
12
-137.999893
22
-132.999802
32
-21.274643
13
-196.999817
23
-132.999802
33
-21.274643
0
3DFACE
8
Mark2
62
20.000000
10
-396.999817
20
-125.999847
30
-21.274643
11
-337.999908
21
-125.999847
31
-21.274643
12
-337.999908
22
-132.999802
32
-21.274643
13
-396.999817
23
-132.999802
33
-21.274643
0
3DFACE
8
Mark1
62
21.000000
10
-599.999817
20
-125.999847
30
-21.274643
11
-540.999878
21
-125.999847
31
-21.274643
12
-540.999878
22
-132.999802
32
-21.274643
13
-599.999817
23
-132.999802
33
-21.274643
0
3DFACE
8
Mark11
62
22.000000
10
-755.552307
20
-80.999847
30
-21.274643
11
-675.447449
21
-80.999847
31
-21.274643
12
-675.447449
22
-87.999817
32
-21.274643
13
-755.552307
23
-87.999817
33
-21.274643
0
3DFACE
8
Mark10
62
23.000000
10
-755.552307
20
-100.999847
30
-21.274643
11
-675.447449
21
-100.999847
31
-21.274643
12
-675.447449
22
-107.999817
32
-21.274643
13
-755.552307
23
-107.999817
33
-21.274643
0
3DFACE
8
Mark9
62
24.000000
10
-755.552307
20
-125.999855
30
-21.274643
11
-675.447449
21
-125.999855
31
-21.274643
12
-675.447449
22
-132.999817
32
-21.274643
13
-755.552307
23
-132.999817
33
-21.274643
0
3DFACE
8
Mark8
62
25.000000
10
-755.552307
20
-150.999847
30
-21.274643
11
-675.447449
21
-150.999847
31
-21.274643
12
-675.447449
22
-157.999817
32
-21.274643
13
-755.552307
23
-157.999817
33
-21.274643
0
3DFACE
8
Mark7
62
26.000000
10
-755.552307
20
-175.999847
30
-21.274643
11
-675.447449
21
-175.999847
31
-21.274643
12
-675.447449
22
-182.999802
32
-21.274643
13
-755.552307
23
-182.999802
33
-21.274643
0
3DFACE
8
Repere1
62
27.000000
10
1337.000244
20
-190.999817
30
-17.000002
11
1337.000244
21
-200.999817
31
-17.000002
12
1337.000244
22
-200.999817
32
-4.000001
13
1337.000244
23
-190.999817
33
-4.000001
0
3DFACE
8
Repere2
62
28.000000
10
1337.000244
20
-29.999805
30
-17.000002
11
1337.000244
21
-39.999813
31
-17.000002
12
1337.000244
22
-39.999813
32
-4.000001
13
1337.000244
23
-29.999805
33
-4.000001
0
3DFACE
8
Huit
62
29.000000
10
1237.000244
20
-124.999809
30
-21.274643
11
1257.000244
21
-124.999809
31
-21.274643
12
1267.000244
22
-134.999802
32
-21.274643
13
1227.000244
23
-134.999786
33
-21.274643
0
3DFACE
8
Huit
62
29.000000
10
1267.000244
20
-134.999802
30
-21.274643
11
1267.000244
21
-154.999817
31
-21.274643
12
1257.000244
22
-164.999802
32
-21.274643
13
1257.000122
23
-134.999802
33
-21.274643
0
3DFACE
8
Huit
62
29.000000
10
1257.000244
20
-164.999802
30
-21.274643
11
1237.000244
21
-164.999802
31
-21.274643
12
1227.000244
22
-154.999802
32
-21.274643
13
1257.000122
23
-154.999817
33
-21.274643
0
3DFACE
8
Huit
62
29.000000
10
1237.000122
20
-134.999802
30
-21.274643
11
1237.000122
21
-154.999817
31
-21.274643
12
1217.000244
22
-154.999802
32
-21.274643
13
1217.000244
23
-134.999786
33
-21.274643
0
3DFACE
8
Huit
62
29.000000
10
1197.000122
20
-134.999786
30
-21.274643
11
1207.000244
21
-124.999809
31
-21.274643
12
1217.000244
22
-124.999809
32
-21.274643
13
1227.000244
23
-134.999786
33
-21.274643
0
3DFACE
8
Huit
62
29.000000
10
1217.000244
20
-164.999802
30
-21.274643
11
1207.000244
21
-164.999802
31
-21.274643
12
1197.000122
22
-154.999802
32
-21.274643
13
1197.000122
23
-154.999802
33
-21.274643
0
3DFACE
8
Huit
62
29.000000
10
1217.000244
20
-164.999802
30
-21.274643
11
1197.000122
21
-154.999802
31
-21.274643
12
1207.000244
22
-154.999802
32
-21.274643
13
1207.000244
23
-154.999802
33
-21.274643
0
3DFACE
8
Huit
62
29.000000
10
1217.000244
20
-164.999802
30
-21.274643
11
1207.000244
21
-154.999802
31
-21.274643
12
1227.000244
22
-154.999802
32
-21.274643
13
1227.000244
23
-154.999802
33
-21.274643
0
3DFACE
8
Huit
62
29.000000
10
1197.000122
20
-134.999786
30
-21.274643
11
1207.000244
21
-134.999786
31
-21.274643
12
1207.000244
22
-154.999802
32
-21.274643
13
1197.000122
23
-154.999802
33
-21.274643
0
3DFACE
8
Un
62
30.000000
10
1217.000244
20
-94.999802
30
-21.274643
11
1217.000244
21
-104.999809
31
-21.274643
12
1197.000122
22
-114.999802
32
-21.274643
13
1197.000122
23
-104.999809
33
-21.274643
0
3DFACE
8
Un
62
30.000000
10
1267.000122
20
-104.999809
30
-21.274643
11
1267.000122
21
-114.999802
31
-21.274643
12
1197.000122
22
-114.999802
32
-21.274643
13
1217.000244
23
-104.999809
33
-21.274643
0
3DFACE
8
PiedMancheAAir
62
31.000000
10
310.695709
20
143.973465
30
-21.274643
11
309.758209
21
143.676636
31
-21.274643
12
309.758209
22
143.676636
32
17.125357
13
310.695709
23
143.973465
33
17.125357
0
3DFACE
8
PiedMancheAAir
62
31.000000
10
309.758209
20
143.676636
30
-21.274643
11
309.994720
21
144.723679
31
-21.274643
12
309.994720
22
144.723679
32
17.125357
13
309.758209
23
143.676636
33
17.125357
0
3DFACE
8
PiedMancheAAir
62
31.000000
10
309.994720
20
144.723679
30
-21.274643
11
310.695709
21
143.973465
31
-21.274643
12
310.695709
22
143.973465
32
17.125357
13
309.994720
23
144.723679
33
17.125357
0
3DFACE
8
MancheAAir
62
32.000000
10
309.994720
20
144.723679
30
17.125357
11
304.594696
21
144.723679
31
17.747099
12
304.594696
22
142.420517
32
18.856249
13
309.994720
23
141.909088
33
18.480793
0
3DFACE
8
MancheAAir
62
32.000000
10
309.994720
20
141.909088
30
18.480793
11
304.594696
21
142.420517
31
18.856249
12
304.594696
22
141.851669
32
21.348480
13
309.994720
23
141.213943
33
21.526426
0
3DFACE
8
MancheAAir
62
32.000000
10
309.994720
20
141.213943
30
21.526426
11
304.594696
21
141.851669
31
21.348480
12
304.594696
22
143.445511
32
23.347095
13
309.994720
23
143.161697
33
23.968840
0
3DFACE
8
MancheAAir
62
32.000000
10
309.994720
20
143.161697
30
23.968840
11
304.594696
21
143.445511
31
23.347095
12
304.594696
22
146.001846
32
23.347097
13
309.994720
23
146.285660
33
23.968842
0
3DFACE
8
MancheAAir
62
32.000000
10
309.994720
20
146.285660
30
23.968842
11
304.594696
21
146.001846
31
23.347097
12
304.594696
22
147.595688
32
21.348480
13
309.994720
23
148.233414
33
21.526428
0
3DFACE
8
MancheAAir
62
32.000000
10
309.994720
20
148.233414
30
21.526428
11
304.594696
21
147.595688
31
21.348480
12
304.594696
22
147.026840
32
18.856247
13
309.994720
23
147.538269
33
18.480791
0
3DFACE
8
MancheAAir
62
32.000000
10
309.994720
20
147.538269
30
18.480791
11
304.594696
21
147.026840
31
18.856247
12
304.594696
22
144.723679
32
17.747099
13
309.994720
23
144.723679
33
17.125357
0
3DFACE
8
MancheAAir
62
32.000000
10
304.594696
20
144.723679
30
17.747099
11
298.594727
21
144.723679
31
18.347099
12
298.594727
22
142.914047
32
19.218573
13
304.594696
23
142.420517
33
18.856249
0
3DFACE
8
MancheAAir
62
32.000000
10
304.594696
20
142.420517
30
18.856249
11
298.594727
21
142.914047
31
19.218573
12
298.594727
22
142.467102
32
21.176756
13
304.594696
23
141.851669
33
21.348480
0
3DFACE
8
MancheAAir
62
32.000000
10
304.594696
20
141.851669
30
21.348480
11
298.594727
21
142.467102
31
21.176756
12
298.594727
22
143.719391
32
22.747095
13
304.594696
23
143.445511
33
23.347095
0
3DFACE
8
MancheAAir
62
32.000000
10
304.594696
20
143.445511
30
23.347095
11
298.594727
21
143.719391
31
22.747095
12
298.594727
22
145.727951
32
22.747099
13
304.594696
23
146.001846
33
23.347097
0
3DFACE
8
MancheAAir
62
32.000000
10
304.594696
20
146.001846
30
23.347097
11
298.594727
21
145.727951
31
22.747099
12
298.594727
22
146.980255
32
21.176756
13
304.594696
23
147.595688
33
21.348480
0
3DFACE
8
MancheAAir
62
32.000000
10
304.594696
20
147.595688
30
21.348480
11
298.594727
21
146.980255
31
21.176756
12
298.594727
22
146.533310
32
19.218571
13
304.594696
23
147.026840
33
18.856247
0
3DFACE
8
MancheAAir
62
32.000000
10
304.594696
20
147.026840
30
18.856247
11
298.594727
21
146.533310
31
19.218571
12
298.594727
22
144.723679
32
18.347099
13
304.594696
23
144.723679
33
17.747099
0
3DFACE
8
MancheAAir
62
32.000000
10
298.594727
20
144.723679
30
18.347099
11
292.594727
21
144.723679
31
19.347097
12
292.594727
22
143.736603
32
19.822447
13
298.594727
23
142.914047
33
19.218573
0
3DFACE
8
MancheAAir
62
32.000000
10
298.594727
20
142.914047
30
19.218573
11
292.594727
21
143.736603
31
19.822447
12
292.594727
22
143.492828
32
20.890549
13
298.594727
23
142.467102
33
21.176756
0
3DFACE
8
MancheAAir
62
32.000000
10
298.594727
20
142.467102
30
21.176756
11
292.594727
21
143.492828
31
20.890549
12
292.594727
22
144.175888
32
21.747097
13
298.594727
23
143.719391
33
22.747095
0
3DFACE
8
MancheAAir
62
32.000000
10
298.594727
20
143.719391
30
22.747095
11
292.594727
21
144.175888
31
21.747097
12
292.594727
22
145.271469
32
21.747099
13
298.594727
23
145.727951
33
22.747099
0
3DFACE
8
MancheAAir
62
32.000000
10
298.594727
20
145.727951
30
22.747099
11
292.594727
21
145.271469
31
21.747099
12
292.594727
22
145.954529
32
20.890549
13
298.594727
23
146.980255
33
21.176756
0
3DFACE
8
MancheAAir
62
32.000000
10
298.594727
20
146.980255
30
21.176756
11
292.594727
21
145.954529
31
20.890549
12
292.594727
22
145.710754
32
19.822447
13
298.594727
23
146.533310
33
19.218571
0
3DFACE
8
MancheAAir
62
32.000000
10
298.594727
20
146.533310
30
19.218571
11
292.594727
21
145.710754
31
19.822447
12
292.594727
22
144.723679
32
19.347097
13
298.594727
23
144.723679
33
18.347099
0
3DFACE
8
Mark14
62
33.000000
10
989.000244
20
-125.999847
30
-21.274643
11
1048.000122
21
-125.999847
31
-21.274643
12
1048.000122
22
-132.999802
32
-21.274643
13
989.000244
23
-132.999802
33
-21.274643
0
3DFACE
8
Light9
62
34.000000
10
1716.000122
20
-239.999817
30
-21.274643
11
1721.134033
21
-235.035706
31
-21.274643
12
1722.866089
22
-241.963898
32
-21.274643
13
1722.866089
23
-241.963898
33
-21.274643
0
3DFACE
8
Light13
62
35.000000
10
1923.000000
20
-132.999817
30
-21.274643
11
1928.133911
21
-128.035706
31
-21.274643
12
1929.866089
22
-134.963898
32
-21.274643
13
1929.866089
23
-134.963898
33
-21.274643
0
3DFACE
8
Light14
62
36.000000
10
2029.000000
20
-132.999817
30
-21.274643
11
2034.133911
21
-128.035706
31
-21.274643
12
2035.866089
22
-134.963898
32
-21.274643
13
2035.866089
23
-134.963898
33
-21.274643
0
ENDSEC
0
EOF
