0
SECTION
2
ENTITIES
0
3DFACE
8
Tour2
62
1.000000
10
25.461773
20
-6.483675
30
154.389938
11
17.010078
21
-19.879305
31
154.389938
12
42.903816
22
-51.972637
32
173.113205
13
66.623093
23
-14.378457
33
173.113205
0
3DFACE
8
Tour2
62
1.000000
10
17.010078
20
-19.879305
30
154.389938
11
1.925161
21
-24.708303
31
154.389938
12
0.568727
22
-65.525002
32
173.113205
13
42.903816
23
-51.972637
33
173.113205
0
3DFACE
8
Tour2
62
1.000000
10
1.925161
20
-24.708303
30
154.389938
11
-12.734577
21
-18.711138
31
154.389938
12
-40.573120
22
-48.694233
32
173.113205
13
0.568727
23
-65.525002
33
173.113205
0
3DFACE
8
Tour2
62
1.000000
10
-12.734577
20
-18.711138
30
154.389938
11
-20.109686
21
-4.693939
31
154.389938
12
-61.271000
22
-9.355651
32
173.113205
13
-40.573120
23
-48.694233
33
173.113205
0
3DFACE
8
Tour2
62
1.000000
10
-20.109686
20
-4.693939
30
154.389938
11
-16.749262
21
10.784485
31
154.389938
12
-51.840137
22
34.083794
32
173.113205
13
-61.271000
23
-9.355651
33
173.113205
0
3DFACE
8
Tour2
62
1.000000
10
-16.749262
20
10.784485
30
154.389938
11
-4.225691
21
20.481606
31
154.389938
12
-16.693342
22
61.298302
32
173.113205
13
-51.840137
23
34.083794
33
173.113205
0
3DFACE
8
Tour2
62
1.000000
10
-4.225691
20
20.481606
30
154.389938
11
11.601103
21
19.860033
31
154.389938
12
27.723789
22
59.553886
32
173.113205
13
-16.693342
23
61.298302
33
173.113205
0
3DFACE
8
Tour2
62
1.000000
10
11.601103
20
19.860033
30
154.389938
11
23.325602
21
9.210615
31
154.389938
12
60.628025
22
29.666809
32
173.113205
13
27.723789
23
59.553886
33
173.113205
0
3DFACE
8
Tour2
62
1.000000
10
23.325602
20
9.210615
30
154.389938
11
25.461773
21
-6.483675
31
154.389938
12
66.623093
22
-14.378457
32
173.113205
13
60.628025
23
29.666809
33
173.113205
0
3DFACE
8
Tour2
62
1.000000
10
66.623093
20
-14.378457
30
173.113205
11
42.903816
21
-51.972637
31
173.113205
12
50.302021
22
-61.142166
32
201.198120
13
78.383469
23
-16.634109
33
201.198120
0
3DFACE
8
Tour2
62
1.000000
10
42.903816
20
-51.972637
30
173.113205
11
0.568727
21
-65.525002
31
173.113205
12
0.181174
22
-77.186913
32
201.198120
13
50.302021
23
-61.142166
33
201.198120
0
3DFACE
8
Tour2
62
1.000000
10
0.568727
20
-65.525002
30
173.113205
11
-40.573120
21
-48.694233
31
173.113205
12
-48.526993
22
-57.260834
32
201.198120
13
0.181174
23
-77.186913
33
201.198120
0
3DFACE
8
Tour2
62
1.000000
10
-40.573120
20
-48.694233
30
173.113205
11
-61.271000
21
-9.355651
31
173.113205
12
-73.031380
22
-10.687568
32
201.198120
13
-48.526993
23
-57.260834
33
201.198120
0
3DFACE
8
Tour2
62
1.000000
10
-61.271000
20
-9.355651
30
173.113205
11
-51.840137
21
34.083794
31
173.113205
12
-61.866108
22
40.740742
32
201.198120
13
-73.031380
23
-10.687568
33
201.198120
0
3DFACE
8
Tour2
62
1.000000
10
-51.840137
20
34.083794
30
173.113205
11
-16.693342
21
61.298302
31
173.113205
12
-20.255529
22
72.960213
32
201.198120
13
-61.866108
23
40.740742
33
201.198120
0
3DFACE
8
Tour2
62
1.000000
10
-16.693342
20
61.298302
30
173.113205
11
27.723789
21
59.553886
31
173.113205
12
32.330273
22
70.894989
32
201.198120
13
-20.255529
23
72.960213
33
201.198120
0
3DFACE
8
Tour2
62
1.000000
10
27.723789
20
59.553886
30
173.113205
11
60.628025
21
29.666809
31
173.113205
12
71.285866
22
35.511436
32
201.198120
13
32.330273
23
70.894989
33
201.198120
0
3DFACE
8
Tour2
62
1.000000
10
60.628025
20
29.666809
30
173.113205
11
66.623093
21
-14.378457
31
173.113205
12
78.383469
22
-16.634109
32
201.198120
13
71.285866
23
35.511436
33
201.198120
0
3DFACE
8
Tour2
62
1.000000
10
78.383469
20
-16.634109
30
201.198120
11
50.302021
21
-61.142166
31
201.198120
12
27.182615
22
-32.487400
32
211.999985
13
41.632294
23
-9.585196
33
211.999985
0
3DFACE
8
Tour2
62
1.000000
10
50.302021
20
-61.142166
30
201.198120
11
0.181174
21
-77.186913
31
201.198120
12
1.392276
22
-40.743431
32
211.999985
13
27.182615
23
-32.487400
33
211.999985
0
3DFACE
8
Tour2
62
1.000000
10
0.181174
20
-77.186913
30
201.198120
11
-48.526993
21
-57.260834
31
201.198120
12
-23.671148
22
-30.490211
32
211.999985
13
1.392276
23
-40.743431
33
211.999985
0
3DFACE
8
Tour2
62
1.000000
10
-48.526993
20
-57.260834
30
201.198120
11
-73.031380
21
-10.687568
31
201.198120
12
-36.280205
22
-6.525326
32
211.999985
13
-23.671148
23
-30.490211
33
211.999985
0
3DFACE
8
Tour2
62
1.000000
10
-73.031380
20
-10.687568
30
201.198120
11
-61.866108
21
40.740742
31
201.198120
12
-30.534964
22
19.937784
32
211.999985
13
-36.280205
23
-6.525326
33
211.999985
0
3DFACE
8
Tour2
62
1.000000
10
-61.866108
20
40.740742
30
201.198120
11
-20.255529
21
72.960213
31
201.198120
12
-9.123697
22
36.516735
32
211.999985
13
-30.534964
23
19.937784
33
211.999985
0
3DFACE
8
Tour2
62
1.000000
10
-20.255529
20
72.960213
30
201.198120
11
32.330273
21
70.894989
31
201.198120
12
17.935017
22
35.454048
32
211.999985
13
-9.123697
23
36.516735
33
211.999985
0
3DFACE
8
Tour2
62
1.000000
10
32.330273
20
70.894989
30
201.198120
11
71.285866
21
35.511436
31
201.198120
12
37.980125
22
17.246977
32
211.999985
13
17.935017
23
35.454048
33
211.999985
0
3DFACE
8
Tour2
62
1.000000
10
71.285866
20
35.511436
30
201.198120
11
78.383469
21
-16.634109
31
201.198120
12
41.632294
22
-9.585196
32
211.999985
13
37.980125
23
17.246977
33
211.999985
0
3DFACE
8
Tour2
62
1.000000
10
41.632294
20
-9.585196
30
211.999985
11
27.182615
21
-32.487400
31
211.999985
12
1.392276
22
-40.743431
32
211.999985
13
1.392276
23
-40.743431
33
211.999985
0
3DFACE
8
Tour2
62
1.000000
10
41.632294
20
-9.585196
30
211.999985
11
1.392276
21
-40.743431
31
211.999985
12
-23.671148
22
-30.490211
32
211.999985
13
-23.671148
23
-30.490211
33
211.999985
0
3DFACE
8
Tour2
62
1.000000
10
41.632294
20
-9.585196
30
211.999985
11
-23.671148
21
-30.490211
31
211.999985
12
-36.280205
22
-6.525326
32
211.999985
13
-36.280205
23
-6.525326
33
211.999985
0
3DFACE
8
Tour2
62
1.000000
10
41.632294
20
-9.585196
30
211.999985
11
-36.280205
21
-6.525326
31
211.999985
12
-30.534964
22
19.937784
32
211.999985
13
-30.534964
23
19.937784
33
211.999985
0
3DFACE
8
Tour2
62
1.000000
10
41.632294
20
-9.585196
30
211.999985
11
-30.534964
21
19.937784
31
211.999985
12
-9.123697
22
36.516735
32
211.999985
13
-9.123697
23
36.516735
33
211.999985
0
3DFACE
8
Tour2
62
1.000000
10
41.632294
20
-9.585196
30
211.999985
11
-9.123697
21
36.516735
31
211.999985
12
17.935017
22
35.454048
32
211.999985
13
17.935017
23
35.454048
33
211.999985
0
3DFACE
8
Tour2
62
1.000000
10
41.632294
20
-9.585196
30
211.999985
11
17.935017
21
35.454048
31
211.999985
12
37.980125
22
17.246977
32
211.999985
13
37.980125
23
17.246977
33
211.999985
0
3DFACE
8
Tour1
62
2.000000
10
33.206078
20
14.628946
30
-17.000002
11
36.364368
21
-8.574804
31
-17.000002
12
27.666843
22
-6.906610
32
1.003144
13
25.323946
23
10.306483
33
1.003144
0
3DFACE
8
Tour1
62
2.000000
10
36.364368
20
-8.574804
30
-17.000002
11
23.868679
21
-28.380020
31
-17.000002
12
18.397243
22
-21.598589
32
1.003144
13
27.666843
23
-6.906610
33
1.003144
0
3DFACE
8
Tour1
62
2.000000
10
23.868679
20
-28.380020
30
-17.000002
11
1.565876
21
-35.519619
31
-17.000002
12
1.852495
22
-26.894915
32
1.003144
13
18.397243
23
-21.598589
33
1.003144
0
3DFACE
8
Tour1
62
2.000000
10
1.565876
20
-35.519619
30
-17.000002
11
-20.108307
21
-26.652906
31
-17.000002
12
-21.225925
22
-20.317373
32
14.003144
13
1.852495
23
-26.894915
33
1.003144
0
3DFACE
8
Tour1
62
2.000000
10
-20.108307
20
-26.652906
30
-17.000002
11
-31.012283
21
-5.928709
31
-17.000002
12
-32.314754
22
-4.943674
32
18.003143
13
-21.225925
23
-20.317373
33
14.003144
0
3DFACE
8
Tour1
62
2.000000
10
-31.012283
20
-5.928709
30
-17.000002
11
-26.043953
21
16.955885
31
-17.000002
12
-28.629133
22
12.032661
32
18.003143
13
-32.314754
23
-4.943674
33
18.003143
0
3DFACE
8
Tour1
62
2.000000
10
-26.043953
20
16.955885
30
-17.000002
11
-7.528056
21
31.292921
31
-17.000004
12
-11.893600
22
22.668215
32
14.003142
13
-28.629133
23
12.032661
33
18.003143
0
3DFACE
8
Tour1
62
2.000000
10
-7.528056
20
31.292921
30
-17.000004
11
15.871599
21
30.373938
31
-17.000002
12
12.464819
22
21.986492
32
1.003144
13
-11.893600
23
22.668215
33
14.003142
0
3DFACE
8
Tour1
62
2.000000
10
15.871599
20
30.373938
30
-17.000002
11
33.206078
21
14.628946
31
-17.000002
12
25.323946
22
10.306483
32
1.003144
13
12.464819
23
21.986492
33
1.003144
0
3DFACE
8
Tour1
62
2.000000
10
25.323946
20
10.306483
30
1.003144
11
27.666843
21
-6.906610
31
1.003144
12
21.051630
22
-5.637805
32
99.660385
13
19.328911
23
7.018880
33
99.660385
0
3DFACE
8
Tour1
62
2.000000
10
27.666843
20
-6.906610
30
1.003144
11
18.397243
21
-21.598589
31
1.003144
12
14.235747
22
-16.440729
32
99.660385
13
21.051630
23
-5.637805
33
99.660385
0
3DFACE
8
Tour1
62
2.000000
10
18.397243
20
-21.598589
30
1.003144
11
1.852495
21
-26.894915
31
1.003144
12
2.070493
22
-20.335087
32
99.660385
13
14.235747
23
-16.440729
33
99.660385
0
3DFACE
8
Tour1
62
2.000000
10
1.852495
20
-26.894915
30
1.003144
11
-21.225925
21
-20.317373
31
14.003144
12
-9.751876
22
-15.498661
32
99.660385
13
2.070493
23
-20.335087
33
99.660385
0
3DFACE
8
Tour1
62
2.000000
10
-21.225925
20
-20.317373
30
14.003144
11
-32.314754
21
-4.943674
31
18.003143
12
-15.699543
22
-4.194470
32
99.660385
13
-9.751876
23
-15.498661
33
99.660385
0
3DFACE
8
Tour1
62
2.000000
10
-32.314754
20
-4.943674
30
18.003143
11
-28.629133
21
12.032661
31
18.003143
12
-12.989524
22
8.288129
32
99.660385
13
-15.699543
23
-4.194470
33
99.660385
0
3DFACE
8
Tour1
62
2.000000
10
-28.629133
20
12.032661
30
18.003143
11
-11.893600
21
22.668215
31
14.003142
12
-2.889871
22
16.108387
32
99.660385
13
-12.989524
23
8.288129
33
99.660385
0
3DFACE
8
Tour1
62
2.000000
10
-11.893600
20
22.668215
30
14.003142
11
12.464819
21
21.986492
31
1.003144
12
9.873672
22
15.607120
32
99.660385
13
-2.889871
23
16.108387
33
99.660385
0
3DFACE
8
Tour1
62
2.000000
10
12.464819
20
21.986492
30
1.003144
11
25.323946
21
10.306483
31
1.003144
12
19.328911
22
7.018880
32
99.660385
13
9.873672
23
15.607120
33
99.660385
0
3DFACE
8
Tour1
62
2.000000
10
19.328911
20
7.018880
30
99.660385
11
21.051630
21
-5.637805
31
99.660385
12
25.461773
22
-6.483675
32
154.389938
13
23.325602
23
9.210615
33
154.389938
0
3DFACE
8
Tour1
62
2.000000
10
21.051630
20
-5.637805
30
99.660385
11
14.235747
21
-16.440729
31
99.660385
12
17.010078
22
-19.879305
32
154.389938
13
25.461773
23
-6.483675
33
154.389938
0
3DFACE
8
Tour1
62
2.000000
10
14.235747
20
-16.440729
30
99.660385
11
2.070493
21
-20.335087
31
99.660385
12
1.925161
22
-24.708303
32
154.389938
13
17.010078
23
-19.879305
33
154.389938
0
3DFACE
8
Tour1
62
2.000000
10
2.070493
20
-20.335087
30
99.660385
11
-9.751876
21
-15.498661
31
99.660385
12
-12.734577
22
-18.711138
32
154.389938
13
1.925161
23
-24.708303
33
154.389938
0
3DFACE
8
Tour1
62
2.000000
10
-9.751876
20
-15.498661
30
99.660385
11
-15.699543
21
-4.194470
31
99.660385
12
-20.109686
22
-4.693939
32
154.389938
13
-12.734577
23
-18.711138
33
154.389938
0
3DFACE
8
Tour1
62
2.000000
10
-15.699543
20
-4.194470
30
99.660385
11
-12.989524
21
8.288129
31
99.660385
12
-16.749262
22
10.784485
32
154.389938
13
-20.109686
23
-4.693939
33
154.389938
0
3DFACE
8
Tour1
62
2.000000
10
-12.989524
20
8.288129
30
99.660385
11
-2.889871
21
16.108387
31
99.660385
12
-4.225691
22
20.481606
32
154.389938
13
-16.749262
23
10.784485
33
154.389938
0
3DFACE
8
Tour1
62
2.000000
10
-2.889871
20
16.108387
30
99.660385
11
9.873672
21
15.607120
31
99.660385
12
11.601103
22
19.860033
32
154.389938
13
-4.225691
23
20.481606
33
154.389938
0
3DFACE
8
Tour1
62
2.000000
10
9.873672
20
15.607120
30
99.660385
11
19.328911
21
7.018880
31
99.660385
12
23.325602
22
9.210615
32
154.389938
13
11.601103
23
19.860033
33
154.389938
0
3DFACE
8
Tour1
62
2.000000
10
-31.012283
20
-5.928709
30
-17.000002
11
-29.012283
21
13.071291
31
-17.000002
12
-29.012283
22
13.071291
32
17.000002
13
-32.314754
23
-4.943674
33
18.003143
0
ENDSEC
0
EOF
