0
SECTION
2
ENTITIES
0
3DFACE
8
PateD
62
1.000000
10
5.644701
20
5.566936
30
2.740427
11
6.644700
21
5.906931
31
2.740427
12
7.741515
22
5.910736
32
1.140427
13
5.555441
23
5.167481
33
1.140427
0
3DFACE
8
PateD
62
1.000000
10
6.644700
20
5.906931
30
2.740427
11
5.638331
21
6.240510
31
2.740427
12
5.541515
22
6.639966
32
1.140427
13
7.741515
23
5.910736
33
1.140427
0
3DFACE
8
PateD
62
1.000000
10
5.638331
20
6.240510
30
2.740427
11
5.644701
21
5.566936
31
2.740427
12
5.555441
22
5.167481
32
1.140427
13
5.541515
23
6.639966
33
1.140427
0
3DFACE
8
PateD
62
1.000000
10
5.644701
20
5.566936
30
5.740426
11
6.644700
21
5.906931
31
5.740426
12
6.644700
22
5.906931
32
2.740427
13
5.644701
23
5.566936
33
2.740427
0
3DFACE
8
PateD
62
1.000000
10
6.644700
20
5.906931
30
5.740426
11
5.638331
21
6.240510
31
5.740426
12
5.638331
22
6.240510
32
2.740427
13
6.644700
23
5.906931
33
2.740427
0
3DFACE
8
PateD
62
1.000000
10
5.638331
20
6.240510
30
5.740426
11
5.644701
21
5.566936
31
5.740426
12
5.644701
22
5.566936
32
2.740427
13
5.638331
23
6.240510
33
2.740427
0
3DFACE
8
PateD
62
1.000000
10
4.951071
20
4.023425
30
12.240425
11
7.951070
21
5.913346
31
10.940426
12
6.644700
22
5.906931
32
5.740426
13
5.644701
23
5.566936
33
5.740426
0
3DFACE
8
PateD
62
1.000000
10
7.951070
20
5.913346
30
10.940426
11
5.631961
21
6.131142
31
14.140425
12
5.638331
22
6.240510
32
5.740426
13
6.644700
23
5.906931
33
5.740426
0
3DFACE
8
PateD
62
1.000000
10
5.631961
20
6.131142
30
14.140425
11
4.951071
21
4.023425
31
12.240425
12
5.644701
22
5.566936
32
5.740426
13
5.638331
23
6.240510
33
5.740426
0
3DFACE
8
PateG
62
2.000000
10
5.555441
20
-5.559017
30
1.140427
11
7.741515
21
-6.302272
31
1.140427
12
6.644700
22
-6.298467
32
2.740427
13
5.644701
23
-5.958473
33
2.740427
0
3DFACE
8
PateG
62
2.000000
10
7.741515
20
-6.302272
30
1.140427
11
5.541515
21
-7.031502
31
1.140427
12
5.638331
22
-6.632047
32
2.740427
13
6.644700
23
-6.298467
33
2.740427
0
3DFACE
8
PateG
62
2.000000
10
5.541515
20
-7.031502
30
1.140427
11
5.555441
21
-5.559017
31
1.140427
12
5.644701
22
-5.958473
32
2.740427
13
5.638331
23
-6.632047
33
2.740427
0
3DFACE
8
PateG
62
2.000000
10
5.644701
20
-5.958473
30
2.740427
11
6.644700
21
-6.298467
31
2.740427
12
6.644700
22
-6.298467
32
5.740426
13
5.644701
23
-5.958473
33
5.740426
0
3DFACE
8
PateG
62
2.000000
10
6.644700
20
-6.298467
30
2.740427
11
5.638331
21
-6.632047
31
2.740427
12
5.638331
22
-6.632047
32
5.740426
13
6.644700
23
-6.298467
33
5.740426
0
3DFACE
8
PateG
62
2.000000
10
5.638331
20
-6.632047
30
2.740427
11
5.644701
21
-5.958473
31
2.740427
12
5.644701
22
-5.958473
32
5.740426
13
5.638331
23
-6.632047
33
5.740426
0
3DFACE
8
PateG
62
2.000000
10
5.644701
20
-5.958473
30
5.740426
11
6.644700
21
-6.298467
31
5.740426
12
7.951070
22
-6.304882
32
10.940426
13
4.951071
23
-4.414961
33
12.240425
0
3DFACE
8
PateG
62
2.000000
10
6.644700
20
-6.298467
30
5.740426
11
5.638331
21
-6.632047
31
5.740426
12
5.631961
22
-6.522678
32
14.140425
13
7.951070
23
-6.304882
33
10.940426
0
3DFACE
8
PateG
62
2.000000
10
5.638331
20
-6.632047
30
5.740426
11
5.644701
21
-5.958473
31
5.740426
12
4.951071
22
-4.414961
32
12.240425
13
5.631961
23
-6.522678
33
14.140425
0
3DFACE
8
RomsteackD
62
3.000000
10
-11.355298
20
4.697000
30
2.740427
11
-10.355299
21
5.036994
31
2.740427
12
-9.258484
22
5.040799
32
1.140427
13
-11.444558
23
4.297544
33
1.140427
0
3DFACE
8
RomsteackD
62
3.000000
10
-10.355299
20
5.036994
30
2.740427
11
-11.361668
21
5.370574
31
2.740427
12
-11.458484
22
5.770029
32
1.140427
13
-9.258484
23
5.040799
33
1.140427
0
3DFACE
8
RomsteackD
62
3.000000
10
-11.361668
20
5.370574
30
2.740427
11
-11.355298
21
4.697000
31
2.740427
12
-11.444558
22
4.297544
32
1.140427
13
-11.458484
23
5.770029
33
1.140427
0
3DFACE
8
RomsteackD
62
3.000000
10
-11.355298
20
4.697000
30
6.840426
11
-10.355299
21
5.036994
31
6.840426
12
-10.355299
22
5.036994
32
2.740427
13
-11.355298
23
4.697000
33
2.740427
0
3DFACE
8
RomsteackD
62
3.000000
10
-10.355299
20
5.036994
30
6.840426
11
-11.361668
21
5.370574
31
6.840426
12
-11.361668
22
5.370574
32
2.740427
13
-10.355299
23
5.036994
33
2.740427
0
3DFACE
8
RomsteackD
62
3.000000
10
-11.361668
20
5.370574
30
6.840426
11
-11.355298
21
4.697000
31
6.840426
12
-11.355298
22
4.697000
32
2.740427
13
-11.361668
23
5.370574
33
2.740427
0
3DFACE
8
RomsteackD
62
3.000000
10
-12.348928
20
3.153488
30
14.840425
11
-9.348929
21
5.043409
31
13.540426
12
-10.355299
22
5.036994
32
6.840426
13
-11.355298
23
4.697000
33
6.840426
0
3DFACE
8
RomsteackD
62
3.000000
10
-9.348929
20
5.043409
30
13.540426
11
-13.268038
21
5.261206
31
18.940426
12
-11.361668
22
5.370574
32
6.840426
13
-10.355299
23
5.036994
33
6.840426
0
3DFACE
8
RomsteackD
62
3.000000
10
-13.268038
20
5.261206
30
18.940426
11
-12.348928
21
3.153488
31
14.840425
12
-11.355298
22
4.697000
32
6.840426
13
-11.361668
23
5.370574
33
6.840426
0
3DFACE
8
Lait
62
4.000000
10
-7.180815
20
1.657722
30
10.882705
11
-8.680815
21
2.397030
31
10.882705
12
-8.680815
22
3.442569
32
8.761385
13
-6.559495
23
2.397030
33
8.761385
0
3DFACE
8
Lait
62
4.000000
10
-6.559495
20
2.397030
30
8.761385
11
-8.680815
21
3.442569
31
8.761385
12
-8.680815
22
2.397030
32
6.640065
13
-7.180815
23
1.657722
33
6.640065
0
3DFACE
8
Lait
62
4.000000
10
-7.180815
20
1.657722
30
6.640065
11
-8.680815
21
2.397030
31
6.640065
12
-8.680815
22
-0.127125
32
6.361385
13
-8.680815
23
-0.127125
33
6.361385
0
3DFACE
8
Lait
62
4.000000
10
-5.680816
20
-0.127125
30
8.761385
11
-6.559495
21
2.397030
31
8.761385
12
-7.180815
22
1.657722
32
6.640065
13
-6.559495
23
-0.127125
33
6.640065
0
3DFACE
8
Lait
62
4.000000
10
-6.559495
20
-0.127125
30
6.640065
11
-7.180815
21
1.657722
31
6.640065
12
-8.680815
22
-0.127125
32
6.361385
13
-8.680815
23
-0.127125
33
6.361385
0
3DFACE
8
Lait
62
4.000000
10
-6.559495
20
-2.651279
30
8.761385
11
-5.680816
21
-0.127125
31
8.761385
12
-6.559495
22
-0.127125
32
6.640065
13
-7.180816
23
-1.911972
33
6.640065
0
3DFACE
8
Lait
62
4.000000
10
-7.180816
20
-1.911972
30
6.640065
11
-6.559495
21
-0.127125
31
6.640065
12
-8.680815
22
-0.127125
32
6.361385
13
-8.680815
23
-0.127125
33
6.361385
0
3DFACE
8
Lait
62
4.000000
10
-8.680815
20
-2.651279
30
10.882705
11
-7.180815
21
-1.911971
31
10.882705
12
-6.559495
22
-2.651279
32
8.761385
13
-8.680815
23
-3.696818
33
8.761385
0
3DFACE
8
Lait
62
4.000000
10
-8.680815
20
-3.696818
30
8.761385
11
-6.559495
21
-2.651279
31
8.761385
12
-7.180816
22
-1.911972
32
6.640065
13
-8.680816
23
-2.651279
33
6.640065
0
3DFACE
8
Lait
62
4.000000
10
-8.680816
20
-2.651279
30
6.640065
11
-7.180816
21
-1.911972
31
6.640065
12
-8.680815
22
-0.127125
32
6.361385
13
-8.680815
23
-0.127125
33
6.361385
0
3DFACE
8
Lait
62
4.000000
10
-10.180816
20
-2.625911
30
12.982705
11
-8.680815
21
-2.651279
31
10.882705
12
-8.680815
22
-3.696818
32
8.761385
13
-10.802135
23
-2.651279
33
8.761385
0
3DFACE
8
Lait
62
4.000000
10
-10.802135
20
-2.651279
30
8.761385
11
-8.680815
21
-3.696818
31
8.761385
12
-8.680816
22
-2.651279
32
6.640065
13
-10.180816
23
-1.911971
33
6.640065
0
3DFACE
8
Lait
62
4.000000
10
-10.180816
20
-1.911971
30
6.640065
11
-8.680816
21
-2.651279
31
6.640065
12
-8.680815
22
-0.127125
32
6.361385
13
-8.680815
23
-0.127125
33
6.361385
0
3DFACE
8
Lait
62
4.000000
10
-10.802136
20
-0.127125
30
13.182705
11
-10.180816
21
-2.625911
31
12.982705
12
-10.802135
22
-2.651279
32
8.761385
13
-11.680815
23
-0.127125
33
8.761385
0
3DFACE
8
Lait
62
4.000000
10
-11.680815
20
-0.127125
30
8.761385
11
-10.802135
21
-2.651279
31
8.761385
12
-10.180816
22
-1.911971
32
6.640065
13
-10.802135
23
-0.127124
33
6.640065
0
3DFACE
8
Lait
62
4.000000
10
-10.802135
20
-0.127124
30
6.640065
11
-10.180816
21
-1.911971
31
6.640065
12
-8.680815
22
-0.127125
32
6.361385
13
-8.680815
23
-0.127125
33
6.361385
0
3DFACE
8
Lait
62
4.000000
10
-10.180816
20
2.014692
30
12.882705
11
-10.802136
21
-0.127125
31
13.182705
12
-11.680815
22
-0.127125
32
8.761385
13
-10.802136
23
2.397029
33
8.761385
0
3DFACE
8
Lait
62
4.000000
10
-10.802136
20
2.397029
30
8.761385
11
-11.680815
21
-0.127125
31
8.761385
12
-10.802135
22
-0.127124
32
6.640065
13
-10.180815
23
1.657722
33
6.640065
0
3DFACE
8
Lait
62
4.000000
10
-10.180815
20
1.657722
30
6.640065
11
-10.802135
21
-0.127124
31
6.640065
12
-8.680815
22
-0.127125
32
6.361385
13
-8.680815
23
-0.127125
33
6.361385
0
3DFACE
8
Lait
62
4.000000
10
-8.680815
20
2.397030
30
10.882705
11
-10.180816
21
2.014692
31
12.882705
12
-10.802136
22
2.397029
32
8.761385
13
-8.680815
23
3.442569
33
8.761385
0
3DFACE
8
Lait
62
4.000000
10
-8.680815
20
3.442569
30
8.761385
11
-10.802136
21
2.397029
31
8.761385
12
-10.180815
22
1.657722
32
6.640065
13
-8.680815
23
2.397030
33
6.640065
0
3DFACE
8
Lait
62
4.000000
10
-8.680815
20
2.397030
30
6.640065
11
-10.180815
21
1.657722
31
6.640065
12
-8.680815
22
-0.127125
32
6.361385
13
-8.680815
23
-0.127125
33
6.361385
0
3DFACE
8
RomsteackG
62
5.000000
10
-11.444558
20
-4.515094
30
1.140427
11
-9.258484
21
-5.258348
31
1.140427
12
-10.355299
22
-5.254543
32
2.740427
13
-11.355298
23
-4.914549
33
2.740427
0
3DFACE
8
RomsteackG
62
5.000000
10
-9.258484
20
-5.258348
30
1.140427
11
-11.458484
21
-5.987578
31
1.140427
12
-11.361668
22
-5.588122
32
2.740427
13
-10.355299
23
-5.254543
33
2.740427
0
3DFACE
8
RomsteackG
62
5.000000
10
-11.458484
20
-5.987578
30
1.140427
11
-11.444558
21
-4.515094
31
1.140427
12
-11.355298
22
-4.914549
32
2.740427
13
-11.361668
23
-5.588122
33
2.740427
0
3DFACE
8
RomsteackG
62
5.000000
10
-11.355298
20
-4.914549
30
2.740427
11
-10.355299
21
-5.254543
31
2.740427
12
-10.355299
22
-5.254543
32
6.840426
13
-11.355298
23
-4.914549
33
6.840426
0
3DFACE
8
RomsteackG
62
5.000000
10
-10.355299
20
-5.254543
30
2.740427
11
-11.361668
21
-5.588122
31
2.740427
12
-11.361668
22
-5.588122
32
6.840426
13
-10.355299
23
-5.254543
33
6.840426
0
3DFACE
8
RomsteackG
62
5.000000
10
-11.361668
20
-5.588122
30
2.740427
11
-11.355298
21
-4.914549
31
2.740427
12
-11.355298
22
-4.914549
32
6.840426
13
-11.361668
23
-5.588122
33
6.840426
0
3DFACE
8
RomsteackG
62
5.000000
10
-11.355298
20
-4.914549
30
6.840426
11
-10.355299
21
-5.254543
31
6.840426
12
-9.348929
22
-5.260958
32
13.540426
13
-12.348928
23
-3.371037
33
14.840425
0
3DFACE
8
RomsteackG
62
5.000000
10
-10.355299
20
-5.254543
30
6.840426
11
-11.361668
21
-5.588122
31
6.840426
12
-12.968038
22
-5.478755
32
18.640427
13
-9.348929
23
-5.260958
33
13.540426
0
3DFACE
8
RomsteackG
62
5.000000
10
-11.361668
20
-5.588122
30
6.840426
11
-11.355298
21
-4.914549
31
6.840426
12
-12.348928
22
-3.371037
32
14.840425
13
-12.968038
23
-5.478755
33
18.640427
0
3DFACE
8
Queue
62
6.000000
10
-13.839942
20
0.356492
30
19.760010
11
-14.190465
21
0.128626
31
6.360009
12
-13.419805
22
-0.117969
32
6.360009
13
-12.570328
23
-0.049758
33
19.760010
0
3DFACE
8
Queue
62
6.000000
10
-12.570328
20
-0.049758
30
19.760010
11
-13.419805
21
-0.117969
31
6.360009
12
-14.050621
22
-0.575278
32
6.360009
13
-13.609558
23
-0.803144
33
19.760010
0
3DFACE
8
Queue
62
6.000000
10
-13.609558
20
-0.803144
30
19.760010
11
-14.050621
21
-0.575278
31
6.360009
12
-14.190465
22
0.128626
32
6.360009
13
-13.839942
23
0.356492
33
19.760010
0
3DFACE
8
Queue
62
6.000000
10
-14.190465
20
0.128626
30
6.360009
11
-14.383130
21
0.304602
31
3.660009
12
-13.227140
22
-0.065291
32
3.660009
13
-13.419805
23
-0.117969
33
6.360009
0
3DFACE
8
Queue
62
6.000000
10
-13.419805
20
-0.117969
30
6.360009
11
-13.227140
21
-0.065291
31
3.660009
12
-14.173364
22
-0.751254
32
3.660009
13
-14.050621
23
-0.575278
33
6.360009
0
3DFACE
8
Queue
62
6.000000
10
-14.050621
20
-0.575278
30
6.360009
11
-14.173364
21
-0.751254
31
3.660009
12
-14.383130
22
0.304602
32
3.660009
13
-14.190465
23
0.128626
33
6.360009
0
3DFACE
8
Queue
62
6.000000
10
-14.383130
20
0.304602
30
3.660009
11
-14.190465
21
0.128626
31
3.160009
12
-13.419805
22
-0.117969
32
3.160009
13
-13.227140
23
-0.065291
33
3.660009
0
3DFACE
8
Queue
62
6.000000
10
-13.227140
20
-0.065291
30
3.660009
11
-13.419805
21
-0.117969
31
3.160009
12
-14.050621
22
-0.575278
32
3.160009
13
-14.173364
23
-0.751254
33
3.660009
0
3DFACE
8
Queue
62
6.000000
10
-14.173364
20
-0.751254
30
3.660009
11
-14.050621
21
-0.575278
31
3.160009
12
-14.190465
22
0.128626
32
3.160009
13
-14.383130
23
0.304602
33
3.660009
0
3DFACE
8
OreilleD
62
7.000000
10
18.066372
20
2.396618
30
22.717304
11
17.266373
21
2.396618
31
23.617302
12
18.266371
22
2.396618
32
25.217302
13
19.066372
23
2.396618
33
22.917303
0
3DFACE
8
OreilleG
62
8.000000
10
18.066372
20
-2.214047
30
22.717304
11
17.266373
21
-2.214047
31
23.617302
12
18.266371
22
-2.214047
32
25.217302
13
19.066372
23
-2.214047
33
22.917303
0
3DFACE
8
Cou
62
9.000000
10
14.333002
20
0.127125
30
14.568083
11
10.846253
21
-3.153290
31
21.044416
12
17.520884
22
-1.904835
32
22.699688
13
18.723133
23
0.127125
33
16.317305
0
3DFACE
8
Cou
62
9.000000
10
10.846253
20
-3.153290
30
21.044416
11
10.846253
21
3.207540
31
21.044416
12
17.520884
22
2.159086
32
22.699688
13
17.520884
23
-1.904835
33
22.699688
0
3DFACE
8
Cou
62
9.000000
10
10.846253
20
3.207540
30
21.044416
11
14.333002
21
0.127125
31
14.568083
12
18.723133
22
0.127125
32
16.317305
13
17.520884
23
2.159086
33
22.699688
0
3DFACE
8
Tete
62
10.000000
10
22.676327
20
-2.214047
30
20.417305
11
25.484016
21
-1.578780
31
18.417305
12
20.526381
22
-2.835826
32
18.728451
13
20.336348
23
-2.299249
33
22.681416
0
3DFACE
8
Tete
62
10.000000
10
25.484016
20
-1.578780
30
18.417305
11
25.106306
21
-1.514047
31
16.717304
12
23.656317
22
-2.299250
32
17.053190
13
20.526381
23
-2.835826
33
18.728451
0
3DFACE
8
Tete
62
10.000000
10
20.336348
20
-2.299249
30
22.681416
11
20.526381
21
-2.835826
31
18.728451
12
18.568661
22
-1.678781
32
16.817301
13
17.366373
23
-2.214047
33
22.617304
0
3DFACE
8
Tete
62
10.000000
10
20.526381
20
-2.835826
30
18.728451
11
23.656317
21
-2.299250
31
17.053190
12
23.116323
22
-1.214047
32
16.417305
13
18.568661
23
-1.678781
33
16.817301
0
3DFACE
8
Tete
62
10.000000
10
17.366373
20
-2.214047
30
22.617304
11
18.568661
21
-1.678781
31
16.817301
12
18.024332
22
-0.056549
32
16.684435
13
16.822039
23
0.127125
33
23.222124
0
3DFACE
8
Tete
62
10.000000
10
18.568661
20
-1.678781
30
16.817301
11
23.116323
21
-1.214047
31
16.417305
12
22.571991
22
0.127125
32
15.312485
13
18.024332
23
-0.056549
33
16.684435
0
3DFACE
8
Tete
62
10.000000
10
16.822039
20
0.127125
30
23.222124
11
18.024332
21
-0.056549
31
16.684435
12
18.568661
22
1.933031
32
16.917303
13
17.366373
23
2.468297
33
22.617304
0
3DFACE
8
Tete
62
10.000000
10
18.024332
20
-0.056549
30
16.684435
11
22.571991
21
0.127125
31
15.312485
12
23.116323
22
1.368297
32
16.217304
13
18.568661
23
1.933031
33
16.917303
0
3DFACE
8
Tete
62
10.000000
10
17.366373
20
2.468297
30
22.617304
11
18.568661
21
1.933031
31
16.917303
12
20.146336
22
3.090076
32
18.728453
13
20.336348
23
2.553500
33
22.681416
0
3DFACE
8
Tete
62
10.000000
10
18.568661
20
1.933031
30
16.917303
11
23.116323
21
1.368297
31
16.217304
12
23.656317
22
2.553500
32
17.053190
13
20.146336
23
3.090076
33
18.728453
0
3DFACE
8
Tete
62
10.000000
10
20.336348
20
2.553500
30
22.681416
11
20.146336
21
3.090076
31
18.728453
12
25.344006
22
1.933031
32
18.417301
13
22.676327
23
2.468297
33
20.417305
0
3DFACE
8
Tete
62
10.000000
10
20.146336
20
3.090076
30
18.728453
11
23.656317
21
2.553500
31
17.053190
12
25.106306
22
1.668297
32
16.717304
13
25.344006
23
1.933031
33
18.417301
0
3DFACE
8
Tete
62
10.000000
10
22.676327
20
2.468297
30
20.417305
11
25.344006
21
1.933031
31
18.417301
12
25.888350
22
0.310801
32
18.984432
13
22.760660
23
0.127125
33
20.942123
0
3DFACE
8
Tete
62
10.000000
10
25.344006
20
1.933031
30
18.417301
11
25.106306
21
1.668297
31
16.717304
12
25.650640
22
0.127125
32
16.312485
13
25.888350
23
0.310801
33
18.984432
0
3DFACE
8
Tete
62
10.000000
10
22.760660
20
0.127125
30
20.942123
11
25.888350
21
0.310801
31
18.984432
12
25.484016
22
-1.578780
32
18.417305
13
22.676327
23
-2.214047
33
20.417305
0
3DFACE
8
Tete
62
10.000000
10
25.888350
20
0.310801
30
18.984432
11
25.650640
21
0.127125
31
16.312485
12
25.106306
22
-1.514047
32
16.717304
13
25.484016
23
-1.578780
33
18.417305
0
3DFACE
8
Tete
62
10.000000
10
22.676327
20
-2.214047
30
20.417305
11
20.336348
21
-2.299249
31
22.681416
12
20.486759
22
-0.056552
32
23.286242
13
22.760660
23
0.127125
33
20.942123
0
3DFACE
8
Tete
62
10.000000
10
20.336348
20
-2.299249
30
22.681416
11
17.366373
21
-2.214047
31
22.617304
12
16.822039
22
0.127125
32
23.222124
13
20.486759
23
-0.056552
33
23.286242
0
3DFACE
8
Tete
62
10.000000
10
22.760660
20
0.127125
30
20.942123
11
20.486759
21
-0.056552
31
23.286242
12
20.336348
22
2.553500
32
22.681416
13
22.676327
23
2.468297
33
20.417305
0
3DFACE
8
Tete
62
10.000000
10
20.486759
20
-0.056552
30
23.286242
11
16.822039
21
0.127125
31
23.222124
12
17.366373
22
2.468297
32
22.617304
13
20.336348
23
2.553500
33
22.681416
0
3DFACE
8
Tete
62
10.000000
10
25.106306
20
1.668297
30
16.717304
11
23.656317
21
2.553500
31
17.053190
12
23.806730
22
0.310800
32
16.448374
13
25.650640
23
0.127125
33
16.312485
0
3DFACE
8
Tete
62
10.000000
10
23.656317
20
2.553500
30
17.053190
11
23.116323
21
1.368297
31
16.217304
12
22.571991
22
0.127125
32
15.312485
13
23.806730
23
0.310800
33
16.448374
0
3DFACE
8
Tete
62
10.000000
10
25.650640
20
0.127125
30
16.312485
11
23.806730
21
0.310800
31
16.448374
12
23.656317
22
-2.299250
32
17.053190
13
25.106306
23
-1.514047
33
16.717304
0
3DFACE
8
Tete
62
10.000000
10
23.806730
20
0.310800
30
16.448374
11
22.571991
21
0.127125
31
15.312485
12
23.116323
22
-1.214047
32
16.417305
13
23.656317
23
-2.299250
33
17.053190
0
3DFACE
8
CorneD
62
11.000000
10
17.986374
20
3.408297
30
22.317301
11
17.986374
21
4.728297
31
23.177299
12
17.986374
22
4.328297
32
21.957302
13
17.986374
23
4.328297
33
21.957302
0
3DFACE
8
CorneD
62
11.000000
10
17.986374
20
3.408297
30
22.317301
11
17.986374
21
4.328297
31
21.957302
12
17.986374
22
2.468297
32
21.497303
13
17.986374
23
2.468297
33
21.497303
0
3DFACE
8
CorneD
62
11.000000
10
17.986374
20
3.408297
30
22.317301
11
17.986374
21
2.468297
31
21.497303
12
17.986374
22
2.468297
32
22.617302
13
17.986374
23
2.468297
33
22.617302
0
3DFACE
8
CorneG
62
12.000000
10
17.986374
20
-3.271703
30
22.317301
11
17.986374
21
-4.591703
31
23.177299
12
17.986374
22
-4.191703
32
21.957302
13
17.986374
23
-4.191703
33
21.957302
0
3DFACE
8
CorneG
62
12.000000
10
17.986374
20
-3.271703
30
22.317301
11
17.986374
21
-4.191703
31
21.957302
12
17.986374
22
-2.331703
32
21.497303
13
17.986374
23
-2.331703
33
21.497303
0
3DFACE
8
CorneG
62
12.000000
10
17.986374
20
-3.271703
30
22.317301
11
17.986374
21
-2.331703
31
21.497303
12
17.986374
22
-2.331703
32
22.617302
13
17.986374
23
-2.331703
33
22.617302
0
3DFACE
8
Bidoche
62
13.000000
10
11.235053
20
-3.658751
30
20.702713
11
13.794174
21
-4.660458
31
14.940423
12
5.653902
22
-6.686390
32
16.103445
13
4.987348
23
-5.684683
33
20.225197
0
3DFACE
8
Bidoche
62
13.000000
10
13.794174
20
-4.660458
30
14.940423
11
11.594175
21
-4.660459
31
12.353337
12
5.653903
22
-6.686389
32
11.283807
13
5.653902
23
-6.686390
33
16.103445
0
3DFACE
8
Bidoche
62
13.000000
10
11.594175
20
-4.660459
30
12.353337
11
9.935053
21
-3.658751
31
9.291048
12
5.887347
22
-5.684677
32
9.868559
13
5.653903
23
-6.686389
33
11.283807
0
3DFACE
8
Bidoche
62
13.000000
10
4.987348
20
-5.684683
30
20.225197
11
5.653902
21
-6.686390
31
16.103445
12
-3.284502
22
-6.874395
32
16.103449
13
-3.187347
23
-5.844522
33
20.225193
0
3DFACE
8
Bidoche
62
13.000000
10
5.653902
20
-6.686390
30
16.103445
11
5.653903
21
-6.686389
31
11.283807
12
-3.284502
22
-6.874395
32
11.283807
13
-3.284502
23
-6.874395
33
16.103449
0
3DFACE
8
Bidoche
62
13.000000
10
5.653903
20
-6.686389
30
11.283807
11
5.887347
21
-5.684677
31
9.868559
12
-3.187348
22
-5.844517
32
9.668559
13
-3.284502
23
-6.874395
33
11.283807
0
3DFACE
8
Bidoche
62
13.000000
10
-3.187347
20
-5.844522
30
20.225193
11
-3.284502
21
-6.874395
31
16.103449
12
-13.294175
22
-5.237105
32
18.940426
13
-11.835052
23
-4.111455
33
21.002712
0
3DFACE
8
Bidoche
62
13.000000
10
-3.284502
20
-6.874395
30
16.103449
11
-3.284502
21
-6.874395
31
11.283807
12
-9.794173
22
-5.237105
32
13.153337
13
-13.294175
23
-5.237105
33
18.940426
0
3DFACE
8
Bidoche
62
13.000000
10
-3.284502
20
-6.874395
30
11.283807
11
-3.187348
21
-5.844517
31
9.668559
12
-6.335052
22
-3.761627
32
8.891049
13
-9.794173
23
-5.237105
33
13.153337
0
3DFACE
8
Bidoche
62
13.000000
10
-11.835052
20
-4.111455
30
21.002712
11
-13.294175
21
-5.237105
31
18.940426
12
-14.139943
22
-2.079331
32
19.360008
13
-12.680818
23
-1.432030
33
21.732372
0
3DFACE
8
Bidoche
62
13.000000
10
-13.294175
20
-5.237105
30
18.940426
11
-9.794173
21
-5.237105
31
13.153337
12
-10.639944
22
-2.079330
32
13.092170
13
-14.139943
23
-2.079331
33
19.360008
0
3DFACE
8
Bidoche
62
13.000000
10
-9.794173
20
-5.237105
30
13.153337
11
-6.335052
21
-3.761627
31
8.891049
12
-7.180815
22
-1.432030
32
8.161385
13
-10.639944
23
-2.079330
33
13.092170
0
3DFACE
8
Bidoche
62
13.000000
10
-12.680818
20
-1.432030
30
21.732372
11
-14.139943
21
-2.079331
31
19.360008
12
-14.139945
22
1.526385
32
19.360008
13
-12.680817
23
1.432030
33
21.732370
0
3DFACE
8
Bidoche
62
13.000000
10
-14.139943
20
-2.079331
30
19.360008
11
-10.639944
21
-2.079330
31
13.092170
12
-10.639944
22
1.526385
32
13.092171
13
-14.139945
23
1.526385
33
19.360008
0
3DFACE
8
Bidoche
62
13.000000
10
-10.639944
20
-2.079330
30
13.092170
11
-7.180815
21
-1.432030
31
8.161385
12
-7.180815
22
1.432030
32
8.161386
13
-10.639944
23
1.526385
33
13.092171
0
3DFACE
8
Bidoche
62
13.000000
10
-12.680817
20
1.432030
30
21.732370
11
-14.139945
21
1.526385
31
19.360008
12
-13.294175
22
5.237105
32
18.940426
13
-11.835052
23
4.111455
33
21.002712
0
3DFACE
8
Bidoche
62
13.000000
10
-14.139945
20
1.526385
30
19.360008
11
-10.639944
21
1.526385
31
13.092171
12
-9.794173
22
5.237105
32
13.153337
13
-13.294175
23
5.237105
33
18.940426
0
3DFACE
8
Bidoche
62
13.000000
10
-10.639944
20
1.526385
30
13.092171
11
-7.180815
21
1.432030
31
8.161386
12
-6.335052
22
3.761627
32
8.891049
13
-9.794173
23
5.237105
33
13.153337
0
3DFACE
8
Bidoche
62
13.000000
10
-11.835052
20
4.111455
30
21.002712
11
-13.294175
21
5.237105
31
18.940426
12
-3.853891
22
6.874395
32
16.103445
13
-3.187348
23
5.844523
33
20.225197
0
3DFACE
8
Bidoche
62
13.000000
10
-13.294175
20
5.237105
30
18.940426
11
-9.794173
21
5.237105
31
13.153337
12
-3.853891
22
6.874394
32
11.283808
13
-3.853891
23
6.874395
33
16.103445
0
3DFACE
8
Bidoche
62
13.000000
10
-9.794173
20
5.237105
30
13.153337
11
-6.335052
21
3.761627
31
8.891049
12
-3.187347
22
5.844516
32
9.668559
13
-3.853891
23
6.874394
33
11.283808
0
3DFACE
8
Bidoche
62
13.000000
10
-3.187348
20
5.844523
30
20.225197
11
-3.853891
21
6.874395
31
16.103445
12
5.084514
22
6.686390
32
16.103449
13
4.987347
23
5.684683
33
20.225193
0
3DFACE
8
Bidoche
62
13.000000
10
-3.853891
20
6.874395
30
16.103445
11
-3.853891
21
6.874394
31
11.283808
12
5.084514
22
6.686390
32
11.283807
13
5.084514
23
6.686390
33
16.103449
0
3DFACE
8
Bidoche
62
13.000000
10
-3.853891
20
6.874394
30
11.283808
11
-3.187347
21
5.844516
31
9.668559
12
5.887348
22
5.684677
32
9.868560
13
5.084514
23
6.686390
33
11.283807
0
3DFACE
8
Bidoche
62
13.000000
10
4.987347
20
5.684683
30
20.225193
11
5.084514
21
6.686390
31
16.103449
12
13.794175
22
4.660459
32
14.940425
13
11.235053
23
3.658751
33
20.702713
0
3DFACE
8
Bidoche
62
13.000000
10
5.084514
20
6.686390
30
16.103449
11
5.084514
21
6.686390
31
11.283807
12
11.594174
22
4.660458
32
12.353337
13
13.794175
23
4.660459
33
14.940425
0
3DFACE
8
Bidoche
62
13.000000
10
5.084514
20
6.686390
30
11.283807
11
5.887348
21
5.684677
31
9.868560
12
9.935053
22
3.658751
32
9.291048
13
11.594174
23
4.660458
33
12.353337
0
3DFACE
8
Bidoche
62
13.000000
10
11.235053
20
3.658751
30
20.702713
11
13.794175
21
4.660459
31
14.940425
12
14.639942
22
1.850382
32
15.360014
13
12.080819
23
1.274352
33
21.432373
0
3DFACE
8
Bidoche
62
13.000000
10
13.794175
20
4.660459
30
14.940425
11
11.594174
21
4.660458
31
12.353337
12
12.439942
22
1.850382
32
12.292174
13
14.639942
23
1.850382
33
15.360014
0
3DFACE
8
Bidoche
62
13.000000
10
11.594174
20
4.660458
30
12.353337
11
9.935053
21
3.658751
31
9.291048
12
10.780815
22
1.274352
32
8.561383
13
12.439942
23
1.850382
33
12.292174
0
3DFACE
8
Bidoche
62
13.000000
10
12.080819
20
1.274352
30
21.432373
11
14.639942
21
1.850382
31
15.360014
12
14.639944
22
-1.358316
32
15.360012
13
12.080818
23
-1.274352
33
21.432371
0
3DFACE
8
Bidoche
62
13.000000
10
14.639942
20
1.850382
30
15.360014
11
12.439942
21
1.850382
31
12.292174
12
12.439943
22
-1.358316
32
12.292174
13
14.639944
23
-1.358316
33
15.360012
0
3DFACE
8
Bidoche
62
13.000000
10
12.439942
20
1.850382
30
12.292174
11
10.780815
21
1.274352
31
8.561383
12
10.780815
22
-1.274352
32
8.561384
13
12.439943
23
-1.358316
33
12.292174
0
3DFACE
8
Bidoche
62
13.000000
10
12.080818
20
-1.274352
30
21.432371
11
14.639944
21
-1.358316
31
15.360012
12
13.794174
22
-4.660458
32
14.940423
13
11.235053
23
-3.658751
33
20.702713
0
3DFACE
8
Bidoche
62
13.000000
10
14.639944
20
-1.358316
30
15.360012
11
12.439943
21
-1.358316
31
12.292174
12
11.594175
22
-4.660459
32
12.353337
13
13.794174
23
-4.660458
33
14.940423
0
3DFACE
8
Bidoche
62
13.000000
10
12.439943
20
-1.358316
30
12.292174
11
10.780815
21
-1.274352
31
8.561384
12
9.935053
22
-3.658751
32
9.291048
13
11.594175
23
-4.660459
33
12.353337
0
3DFACE
8
Bidoche
62
13.000000
10
11.235053
20
-3.658751
30
20.702713
11
4.987348
21
-5.684683
31
20.225197
12
5.473696
22
-2.439361
32
20.954859
13
12.080818
23
-1.274352
33
21.432371
0
3DFACE
8
Bidoche
62
13.000000
10
4.987348
20
-5.684683
30
20.225197
11
-3.187347
21
-5.844522
31
20.225193
12
-3.258247
22
-2.507950
32
20.954863
13
5.473696
23
-2.439361
33
20.954859
0
3DFACE
8
Bidoche
62
13.000000
10
-3.187347
20
-5.844522
30
20.225193
11
-11.835052
21
-4.111455
31
21.002712
12
-12.680818
22
-1.432030
32
21.732372
13
-3.258247
23
-2.507950
33
20.954863
0
3DFACE
8
Bidoche
62
13.000000
10
12.080818
20
-1.274352
30
21.432371
11
5.473696
21
-2.439361
31
20.954859
12
5.473697
22
1.444168
32
20.954863
13
12.080819
23
1.274352
33
21.432373
0
3DFACE
8
Bidoche
62
13.000000
10
5.473696
20
-2.439361
30
20.954859
11
-3.258247
21
-2.507950
31
20.954863
12
-3.258248
22
1.484775
32
20.954863
13
5.473697
23
1.444168
33
20.954863
0
3DFACE
8
Bidoche
62
13.000000
10
-3.258247
20
-2.507950
30
20.954863
11
-12.680818
21
-1.432030
31
21.732372
12
-12.680817
22
1.432030
32
21.732370
13
-3.258248
23
1.484775
33
20.954863
0
3DFACE
8
Bidoche
62
13.000000
10
12.080819
20
1.274352
30
21.432373
11
5.473697
21
1.444168
31
20.954863
12
4.987347
22
5.684683
32
20.225193
13
11.235053
23
3.658751
33
20.702713
0
3DFACE
8
Bidoche
62
13.000000
10
5.473697
20
1.444168
30
20.954863
11
-3.258248
21
1.484775
31
20.954863
12
-3.187348
22
5.844523
32
20.225197
13
4.987347
23
5.684683
33
20.225193
0
3DFACE
8
Bidoche
62
13.000000
10
-3.258248
20
1.484775
30
20.954863
11
-12.680817
21
1.432030
31
21.732370
12
-11.835052
22
4.111455
32
21.002712
13
-3.187348
23
5.844523
33
20.225197
0
3DFACE
8
Bidoche
62
13.000000
10
9.935053
20
3.658751
30
9.291048
11
5.887348
21
5.684677
31
9.868560
12
6.373703
22
2.439358
32
9.138896
13
10.780815
23
1.274352
33
8.561383
0
3DFACE
8
Bidoche
62
13.000000
10
5.887348
20
5.684677
30
9.868560
11
-3.187347
21
5.844516
31
9.668559
12
-3.258238
22
2.507947
32
8.938896
13
6.373703
23
2.439358
33
9.138896
0
3DFACE
8
Bidoche
62
13.000000
10
-3.187347
20
5.844516
30
9.668559
11
-6.335052
21
3.761627
31
8.891049
12
-7.180815
22
1.432030
32
8.161386
13
-3.258238
23
2.507947
33
8.938896
0
3DFACE
8
Bidoche
62
13.000000
10
10.780815
20
1.274352
30
8.561383
11
6.373703
21
2.439358
31
9.138896
12
6.373703
22
-1.444166
32
9.138897
13
10.780815
23
-1.274352
33
8.561384
0
3DFACE
8
Bidoche
62
13.000000
10
6.373703
20
2.439358
30
9.138896
11
-3.258238
21
2.507947
31
8.938896
12
-3.258239
22
-1.484772
32
8.938897
13
6.373703
23
-1.444166
33
9.138897
0
3DFACE
8
Bidoche
62
13.000000
10
-3.258238
20
2.507947
30
8.938896
11
-7.180815
21
1.432030
31
8.161386
12
-7.180815
22
-1.432030
32
8.161385
13
-3.258239
23
-1.484772
33
8.938897
0
3DFACE
8
Bidoche
62
13.000000
10
10.780815
20
-1.274352
30
8.561384
11
6.373703
21
-1.444166
31
9.138897
12
5.887347
22
-5.684677
32
9.868559
13
9.935053
23
-3.658751
33
9.291048
0
3DFACE
8
Bidoche
62
13.000000
10
6.373703
20
-1.444166
30
9.138897
11
-3.258239
21
-1.484772
31
8.938897
12
-3.187348
22
-5.844517
32
9.668559
13
5.887347
23
-5.684677
33
9.868559
0
3DFACE
8
Bidoche
62
13.000000
10
-3.258239
20
-1.484772
30
8.938897
11
-7.180815
21
-1.432030
31
8.161385
12
-6.335052
22
-3.761627
32
8.891049
13
-3.187348
23
-5.844517
33
9.668559
0
ENDSEC
0
EOF
