0
SECTION
2
ENTITIES
0
3DFACE
8
Cockpit
62
1.000000
10
16.885000
20
3.174958
30
20.616192
11
16.568674
21
2.808328
31
20.616192
12
16.568674
22
2.918701
32
25.802532
13
16.885000
23
3.236624
33
26.017653
0
3DFACE
8
Cockpit
62
1.000000
10
16.568674
20
2.808328
30
20.616192
11
16.409328
21
3.265589
31
20.616192
12
16.409328
22
3.315215
32
26.070847
13
16.568674
23
2.918701
33
25.802532
0
3DFACE
8
Cockpit
62
1.000000
10
16.409328
20
3.265589
30
20.616192
11
16.885000
21
3.174958
31
20.616192
12
16.885000
22
3.236624
32
26.017653
13
16.409328
23
3.315215
33
26.070847
0
3DFACE
8
Cockpit
62
1.000000
10
16.885000
20
3.236624
30
26.017653
11
16.568674
21
2.918701
31
25.802532
12
16.568674
22
-0.034857
32
27.750385
13
16.885000
23
-0.044765
33
28.182158
0
3DFACE
8
Cockpit
62
1.000000
10
16.568674
20
2.918701
30
25.802532
11
16.409328
21
3.315215
31
26.070847
12
16.409328
22
-0.047227
32
28.288916
13
16.568674
23
-0.034857
33
27.750385
0
3DFACE
8
Cockpit
62
1.000000
10
16.409328
20
3.315215
30
26.070847
11
16.885000
21
3.236624
31
26.017653
12
16.885000
22
-0.044765
32
28.182158
13
16.409328
23
-0.047227
33
28.288916
0
3DFACE
8
Cockpit
62
1.000000
10
16.885000
20
-0.044765
30
28.182158
11
16.568674
21
-0.034857
31
27.750385
12
16.568674
22
-2.949998
32
25.568527
13
16.885000
23
-3.269167
33
25.781055
0
3DFACE
8
Cockpit
62
1.000000
10
16.568674
20
-0.034857
30
27.750385
11
16.409328
21
-0.047227
31
28.288916
12
16.409328
22
-3.348088
32
25.833588
13
16.568674
23
-2.949998
33
25.568527
0
3DFACE
8
Cockpit
62
1.000000
10
16.409328
20
-0.047227
30
28.288916
11
16.885000
21
-0.044765
31
28.182158
12
16.885000
22
-3.269167
32
25.781055
13
16.409328
23
-3.348088
33
25.833588
0
3DFACE
8
Cockpit
62
1.000000
10
16.885000
20
-3.269167
30
25.781055
11
16.568674
21
-2.949998
31
25.568527
12
16.568674
22
-3.020466
32
20.459324
13
16.885000
23
-3.386994
33
20.469055
0
3DFACE
8
Cockpit
62
1.000000
10
16.568674
20
-2.949998
30
25.568527
11
16.409328
21
-3.348088
31
25.833588
12
16.409328
22
-3.477618
32
20.471449
13
16.568674
23
-3.020466
33
20.459324
0
3DFACE
8
Cockpit
62
1.000000
10
16.409328
20
-3.348088
30
25.833588
11
16.885000
21
-3.269167
31
25.781055
12
16.885000
22
-3.386994
32
20.469055
13
16.409328
23
-3.477618
33
20.471449
0
3DFACE
8
Cockpit
62
1.000000
10
16.390303
20
-2.917731
30
25.679218
11
16.421890
21
-3.490525
31
25.797575
12
18.763548
22
-2.566525
32
23.883400
13
18.658251
23
-1.993731
33
23.883400
0
3DFACE
8
Cockpit
62
1.000000
10
16.421890
20
-3.490525
30
25.797575
11
16.554905
21
-3.112937
31
26.295914
12
19.206953
22
-2.188937
32
23.883400
13
18.763548
23
-2.566525
33
23.883400
0
3DFACE
8
Cockpit
62
1.000000
10
16.554905
20
-3.112937
30
26.295914
11
16.390303
21
-2.917731
31
25.679218
12
18.658251
22
-1.993731
32
23.883400
13
19.206953
23
-2.188937
33
23.883400
0
3DFACE
8
Cockpit
62
1.000000
10
9.615718
20
-3.115731
30
25.513584
11
9.613752
21
-3.688525
31
25.637636
12
16.421890
22
-3.490525
32
25.797575
13
16.390303
23
-2.917731
33
25.679218
0
3DFACE
8
Cockpit
62
1.000000
10
9.613752
20
-3.688525
30
25.637636
11
9.605486
21
-3.310937
31
26.159945
12
16.554905
22
-3.112937
32
26.295914
13
16.421890
23
-3.490525
33
25.797575
0
3DFACE
8
Cockpit
62
1.000000
10
9.605486
20
-3.310937
30
26.159945
11
9.615718
21
-3.115731
31
25.513584
12
16.390303
22
-2.917731
32
25.679218
13
16.554905
23
-3.112937
33
26.295914
0
3DFACE
8
Cockpit
62
1.000000
10
17.633083
20
0.111991
30
27.190752
11
16.423584
21
0.111991
31
27.971447
12
16.437809
22
-0.324376
32
28.035324
13
17.633083
23
-0.324376
33
27.256796
0
3DFACE
8
Cockpit
62
1.000000
10
17.633083
20
-0.324376
30
27.256796
11
16.437809
21
-0.324376
31
28.035324
12
16.526583
22
-0.057644
32
28.434031
13
17.633083
23
-0.057644
33
27.669003
0
3DFACE
8
Cockpit
62
1.000000
10
17.633083
20
-0.057644
30
27.669003
11
16.526583
21
-0.057644
31
28.434031
12
16.423584
22
0.111991
32
27.971447
13
17.633083
23
0.111991
33
27.190752
0
3DFACE
8
Cockpit
62
1.000000
10
16.423584
20
0.111991
30
27.971447
11
9.484748
21
0.111991
31
27.981689
12
9.514675
22
-0.324376
32
28.037521
13
16.437809
23
-0.324376
33
28.035324
0
3DFACE
8
Cockpit
62
1.000000
10
16.437809
20
-0.324376
30
28.035324
11
9.514675
21
-0.324376
31
28.037521
12
9.701419
22
-0.057644
32
28.386087
13
16.526583
23
-0.057644
33
28.434031
0
3DFACE
8
Cockpit
62
1.000000
10
16.526583
20
-0.057644
30
28.434031
11
9.701419
21
-0.057644
31
28.386087
12
9.484748
22
0.111991
32
27.981689
13
16.423584
23
0.111991
33
27.971447
0
3DFACE
8
Cockpit
62
1.000000
10
20.713001
20
2.523203
30
21.631954
11
20.461634
21
1.850075
31
21.631954
12
19.451328
22
2.137279
32
23.893688
13
18.933214
23
2.627411
33
23.996483
0
3DFACE
8
Cockpit
62
1.000000
10
20.461634
20
1.850075
30
21.631954
11
20.004370
21
2.404330
31
21.631954
12
18.770252
22
1.972270
32
23.706676
13
19.451328
23
2.137279
33
23.893688
0
3DFACE
8
Cockpit
62
1.000000
10
20.004370
20
2.404330
30
21.631954
11
20.713001
21
2.523203
31
21.631954
12
18.933214
22
2.627411
32
23.996483
13
18.770252
23
1.972270
33
23.706676
0
3DFACE
8
Cockpit
62
1.000000
10
18.933214
20
2.627411
30
23.996483
11
19.451328
21
2.137279
31
23.893688
12
17.997997
22
0.072953
32
27.681643
13
17.349083
23
-0.106009
33
27.977749
0
3DFACE
8
Cockpit
62
1.000000
10
19.451328
20
2.137279
30
23.893688
11
18.770252
21
1.972270
31
23.706676
12
17.461195
22
-0.065205
32
27.142988
13
17.997997
23
0.072953
33
27.681643
0
3DFACE
8
Cockpit
62
1.000000
10
18.770252
20
1.972270
30
23.706676
11
18.933214
21
2.627411
31
23.996483
12
17.349083
22
-0.106009
32
27.977749
13
17.461195
23
-0.065205
33
27.142988
0
3DFACE
8
Cockpit
62
1.000000
10
17.349083
20
-0.106009
30
27.977749
11
17.997997
21
0.072953
31
27.681643
12
19.185249
22
-2.469100
32
23.941467
13
18.512119
23
-2.707761
33
24.034416
0
3DFACE
8
Cockpit
62
1.000000
10
17.997997
20
0.072953
30
27.681643
11
17.461195
21
-0.065205
31
27.142988
12
18.630993
22
-2.034955
32
23.772409
13
19.185249
23
-2.469100
33
23.941467
0
3DFACE
8
Cockpit
62
1.000000
10
17.461195
20
-0.065205
30
27.142988
11
17.349083
21
-0.106009
31
27.977749
12
18.512119
22
-2.707761
32
24.034416
13
18.630993
23
-2.034955
33
23.772409
0
3DFACE
8
Cockpit
62
1.000000
10
18.512119
20
-2.707761
30
24.034416
11
19.185249
21
-2.469100
31
23.941467
12
20.695250
22
-2.452292
32
21.590530
13
20.022121
23
-2.703640
33
21.587219
0
3DFACE
8
Cockpit
62
1.000000
10
19.185249
20
-2.469100
30
23.941467
11
18.630993
21
-2.034955
31
23.772409
12
20.140993
22
-1.995076
32
21.596571
13
20.695250
23
-2.452292
33
21.590530
0
3DFACE
8
Cockpit
62
1.000000
10
18.630993
20
-2.034955
30
23.772409
11
18.512119
21
-2.707761
31
24.034416
12
20.022121
22
-2.703640
32
21.587219
13
20.140993
23
-1.995076
33
21.596571
0
3DFACE
8
Cockpit
62
1.000000
10
18.658251
20
1.916270
30
23.883400
11
18.763548
21
2.489064
31
23.883400
12
16.421890
22
3.413064
32
25.797575
13
16.390303
23
2.840270
33
25.679218
0
3DFACE
8
Cockpit
62
1.000000
10
18.763548
20
2.489064
30
23.883400
11
19.206953
21
2.111476
31
23.883400
12
16.554905
22
3.035476
32
26.295914
13
16.421890
23
3.413064
33
25.797575
0
3DFACE
8
Cockpit
62
1.000000
10
19.206953
20
2.111476
30
23.883400
11
18.658251
21
1.916270
31
23.883400
12
16.390303
22
2.840270
32
25.679218
13
16.554905
23
3.035476
33
26.295914
0
3DFACE
8
Cockpit
62
1.000000
10
16.390303
20
2.840270
30
25.679218
11
16.421890
21
3.413064
31
25.797575
12
9.613752
22
3.611063
32
25.637636
13
9.615718
23
3.038270
33
25.513584
0
3DFACE
8
Cockpit
62
1.000000
10
16.421890
20
3.413064
30
25.797575
11
16.554905
21
3.035476
31
26.295914
12
9.605486
22
3.233476
32
26.159945
13
9.613752
23
3.611063
33
25.637636
0
3DFACE
8
Cockpit
62
1.000000
10
16.554905
20
3.035476
30
26.295914
11
16.390303
21
2.840270
31
25.679218
12
9.615718
22
3.038270
32
25.513584
13
9.605486
23
3.233476
33
26.159945
0
3DFACE
8
Verriere
62
2.000000
10
20.401001
20
-2.389680
30
22.119616
11
19.163000
21
-2.435722
31
24.099375
12
17.657001
22
-0.078388
32
27.606871
13
17.657001
23
-0.078388
33
27.606871
0
3DFACE
8
Verriere
62
2.000000
10
20.401001
20
-2.389680
30
22.119616
11
17.657001
21
-0.078388
31
27.606871
12
19.163000
22
2.278736
32
24.098753
13
19.163000
23
2.278736
33
24.098753
0
3DFACE
8
Verriere
62
2.000000
10
20.401001
20
-2.389680
30
22.119616
11
19.163000
21
2.278736
31
24.098753
12
20.401001
22
2.231203
32
22.027811
13
20.401001
23
2.231203
33
22.027811
0
3DFACE
8
Verriere
62
2.000000
10
-5.356999
20
2.078635
30
22.345367
11
-1.308999
21
2.256805
31
25.672611
12
1.299001
22
-0.078391
32
27.456617
13
1.299001
23
-0.078391
33
27.456617
0
3DFACE
8
Verriere
62
2.000000
10
-5.356999
20
2.078635
30
22.345367
11
1.299001
21
-0.078391
31
27.456617
12
-1.308999
22
-2.413796
32
25.673220
13
-1.308999
23
-2.413796
33
25.673220
0
3DFACE
8
Verriere
62
2.000000
10
-5.356999
20
2.078635
30
22.345367
11
-1.308999
21
-2.413796
31
25.673220
12
-5.356999
22
-1.996086
32
22.551098
13
-5.356999
23
-1.996086
33
22.551098
0
3DFACE
8
Verriere
62
2.000000
10
20.401001
20
-2.368654
30
22.028561
11
16.549002
21
-3.318409
31
21.013075
12
16.549002
22
-3.313639
32
26.167477
13
19.163000
23
-2.435722
33
24.099375
0
3DFACE
8
Verriere
62
2.000000
10
19.163000
20
-2.435722
30
24.099375
11
16.549002
21
-3.313639
31
26.167477
12
16.549002
22
-0.078262
32
28.497751
13
17.657001
23
-0.078388
33
27.606871
0
3DFACE
8
Verriere
62
2.000000
10
17.657001
20
-0.078388
30
27.606871
11
16.549002
21
-0.078262
31
28.497751
12
16.549002
22
3.156825
32
26.166628
13
19.163000
23
2.278736
33
24.098753
0
3DFACE
8
Verriere
62
2.000000
10
19.163000
20
2.278736
30
24.098753
11
16.549002
21
3.156825
31
26.166628
12
16.549002
22
3.080958
32
21.012047
13
20.401001
23
2.231203
33
22.027811
0
3DFACE
8
Verriere
62
2.000000
10
16.549002
20
-3.318409
30
21.013075
11
9.649001
21
-3.415867
31
20.920036
12
9.649001
22
-3.394071
32
26.202597
13
16.549002
23
-3.313639
33
26.167477
0
3DFACE
8
Verriere
62
2.000000
10
16.549002
20
-3.313639
30
26.167477
11
9.649001
21
-3.394071
31
26.202597
12
9.649001
22
-0.078251
32
28.590815
13
16.549002
23
-0.078262
33
28.497751
0
3DFACE
8
Verriere
62
2.000000
10
16.549002
20
-0.078262
30
28.497751
11
9.649001
21
-0.078251
31
28.590815
12
9.649001
22
3.237273
32
26.201731
13
16.549002
23
3.156825
33
26.166628
0
3DFACE
8
Verriere
62
2.000000
10
16.549002
20
3.156825
30
26.166628
11
9.649001
21
3.237273
31
26.201731
12
9.649001
22
3.178416
32
20.918985
13
16.549002
23
3.080958
33
21.012047
0
3DFACE
8
Verriere
62
2.000000
10
9.649001
20
-3.415867
30
20.920036
11
-5.356999
21
-1.996086
31
22.551098
12
-1.308999
22
-2.413796
32
25.673220
13
9.649001
23
-3.394071
33
26.202597
0
3DFACE
8
Verriere
62
2.000000
10
9.649001
20
-3.394071
30
26.202597
11
-1.308999
21
-2.413796
31
25.673220
12
1.299001
22
-0.078391
32
27.456617
13
9.649001
23
-0.078251
33
28.590815
0
3DFACE
8
Verriere
62
2.000000
10
9.649001
20
-0.078251
30
28.590815
11
1.299001
21
-0.078391
31
27.456617
12
-1.308999
22
2.256805
32
25.672611
13
9.649001
23
3.237273
33
26.201731
0
3DFACE
8
Verriere
62
2.000000
10
9.649001
20
3.237273
30
26.201731
11
-1.308999
21
2.256805
31
25.672611
12
-5.356999
22
2.078635
32
22.345367
13
9.649001
23
3.178416
33
20.918985
0
3DFACE
8
RoueDroite
62
3.000000
10
6.581002
20
15.234597
30
6.954058
11
7.924141
21
15.234597
31
5.925000
12
7.924141
22
16.414597
32
5.925000
13
6.581002
23
16.414597
33
6.954058
0
3DFACE
8
RoueDroite
62
3.000000
10
7.924141
20
15.234597
30
5.925000
11
9.566124
21
15.234597
31
6.333501
12
9.566124
22
16.414597
32
6.333501
13
7.924141
23
16.414597
33
5.925000
0
3DFACE
8
RoueDroite
62
3.000000
10
9.566124
20
15.234597
30
6.333501
11
10.270505
21
15.234597
31
7.871953
12
10.270505
22
16.414597
32
7.871953
13
9.566124
23
16.414597
33
6.333501
0
3DFACE
8
RoueDroite
62
3.000000
10
10.270505
20
15.234597
30
7.871953
11
9.506869
21
15.234597
31
9.381867
12
9.506869
22
16.414597
32
9.381867
13
10.270505
23
16.414597
33
7.871953
0
3DFACE
8
RoueDroite
62
3.000000
10
9.506869
20
15.234597
30
9.381867
11
7.850252
21
15.234597
31
9.726250
12
7.850252
22
16.414597
32
9.726250
13
9.506869
23
16.414597
33
9.381867
0
3DFACE
8
RoueDroite
62
3.000000
10
7.850252
20
15.234597
30
9.726250
11
6.548119
21
15.234597
31
8.645773
12
6.548119
22
16.414597
32
8.645773
13
7.850252
23
16.414597
33
9.726250
0
3DFACE
8
RoueDroite
62
3.000000
10
6.548119
20
15.234597
30
8.645773
11
6.581002
21
15.234597
31
6.954058
12
6.581002
22
16.414597
32
6.954058
13
6.548119
23
16.414597
33
8.645773
0
3DFACE
8
RoueDroite
62
3.000000
10
6.548119
20
15.234597
30
8.645773
11
7.850252
21
15.234597
31
9.726250
12
9.506869
22
15.234597
32
9.381867
13
9.506869
23
15.234597
33
9.381867
0
3DFACE
8
RoueDroite
62
3.000000
10
6.548119
20
15.234597
30
8.645773
11
9.506869
21
15.234597
31
9.381867
12
10.270505
22
15.234597
32
7.871953
13
10.270505
23
15.234597
33
7.871953
0
3DFACE
8
RoueDroite
62
3.000000
10
6.548119
20
15.234597
30
8.645773
11
10.270505
21
15.234597
31
7.871953
12
9.566124
22
15.234597
32
6.333501
13
9.566124
23
15.234597
33
6.333501
0
3DFACE
8
RoueDroite
62
3.000000
10
6.548119
20
15.234597
30
8.645773
11
9.566124
21
15.234597
31
6.333501
12
7.924141
22
15.234597
32
5.925000
13
7.924141
23
15.234597
33
5.925000
0
3DFACE
8
RoueDroite
62
3.000000
10
6.548119
20
15.234597
30
8.645773
11
7.924141
21
15.234597
31
5.925000
12
6.581002
22
15.234597
32
6.954058
13
6.581002
23
15.234597
33
6.954058
0
3DFACE
8
RoueDroite
62
3.000000
10
6.581002
20
16.414597
30
6.954058
11
7.924141
21
16.414597
31
5.925000
12
9.566124
22
16.414597
32
6.333501
13
9.566124
23
16.414597
33
6.333501
0
3DFACE
8
RoueDroite
62
3.000000
10
6.581002
20
16.414597
30
6.954058
11
9.566124
21
16.414597
31
6.333501
12
10.270505
22
16.414597
32
7.871953
13
10.270505
23
16.414597
33
7.871953
0
3DFACE
8
RoueDroite
62
3.000000
10
6.581002
20
16.414597
30
6.954058
11
10.270505
21
16.414597
31
7.871953
12
9.506869
22
16.414597
32
9.381867
13
9.506869
23
16.414597
33
9.381867
0
3DFACE
8
RoueDroite
62
3.000000
10
6.581002
20
16.414597
30
6.954058
11
9.506869
21
16.414597
31
9.381867
12
7.850252
22
16.414597
32
9.726250
13
7.850252
23
16.414597
33
9.726250
0
3DFACE
8
RoueDroite
62
3.000000
10
6.581002
20
16.414597
30
6.954058
11
7.850252
21
16.414597
31
9.726250
12
6.548119
22
16.414597
32
8.645773
13
6.548119
23
16.414597
33
8.645773
0
3DFACE
8
RoueGauche
62
4.000000
10
6.581002
20
-15.965402
30
6.954058
11
7.924141
21
-15.965402
31
5.925000
12
7.924141
22
-14.785401
32
5.925000
13
6.581002
23
-14.785401
33
6.954058
0
3DFACE
8
RoueGauche
62
4.000000
10
7.924141
20
-15.965402
30
5.925000
11
9.566124
21
-15.965402
31
6.333501
12
9.566124
22
-14.785401
32
6.333501
13
7.924141
23
-14.785401
33
5.925000
0
3DFACE
8
RoueGauche
62
4.000000
10
9.566124
20
-15.965402
30
6.333501
11
10.270505
21
-15.965402
31
7.871953
12
10.270505
22
-14.785401
32
7.871953
13
9.566124
23
-14.785401
33
6.333501
0
3DFACE
8
RoueGauche
62
4.000000
10
10.270505
20
-15.965402
30
7.871953
11
9.506869
21
-15.965402
31
9.381867
12
9.506869
22
-14.785401
32
9.381867
13
10.270505
23
-14.785401
33
7.871953
0
3DFACE
8
RoueGauche
62
4.000000
10
9.506869
20
-15.965402
30
9.381867
11
7.850252
21
-15.965402
31
9.726250
12
7.850252
22
-14.785401
32
9.726250
13
9.506869
23
-14.785401
33
9.381867
0
3DFACE
8
RoueGauche
62
4.000000
10
7.850252
20
-15.965402
30
9.726250
11
6.548119
21
-15.965402
31
8.645773
12
6.548119
22
-14.785401
32
8.645773
13
7.850252
23
-14.785401
33
9.726250
0
3DFACE
8
RoueGauche
62
4.000000
10
6.548119
20
-15.965402
30
8.645773
11
6.581002
21
-15.965402
31
6.954058
12
6.581002
22
-14.785401
32
6.954058
13
6.548119
23
-14.785401
33
8.645773
0
3DFACE
8
RoueGauche
62
4.000000
10
6.581002
20
-14.785401
30
6.954058
11
7.924141
21
-14.785401
31
5.925000
12
9.566124
22
-14.785401
32
6.333501
13
9.566124
23
-14.785401
33
6.333501
0
3DFACE
8
RoueGauche
62
4.000000
10
6.581002
20
-14.785401
30
6.954058
11
9.566124
21
-14.785401
31
6.333501
12
10.270505
22
-14.785401
32
7.871953
13
10.270505
23
-14.785401
33
7.871953
0
3DFACE
8
RoueGauche
62
4.000000
10
6.581002
20
-14.785401
30
6.954058
11
10.270505
21
-14.785401
31
7.871953
12
9.506869
22
-14.785401
32
9.381867
13
9.506869
23
-14.785401
33
9.381867
0
3DFACE
8
RoueGauche
62
4.000000
10
6.581002
20
-14.785401
30
6.954058
11
9.506869
21
-14.785401
31
9.381867
12
7.850252
22
-14.785401
32
9.726250
13
7.850252
23
-14.785401
33
9.726250
0
3DFACE
8
RoueGauche
62
4.000000
10
6.581002
20
-14.785401
30
6.954058
11
7.850252
21
-14.785401
31
9.726250
12
6.548119
22
-14.785401
32
8.645773
13
6.548119
23
-14.785401
33
8.645773
0
3DFACE
8
RoueGauche
62
4.000000
10
6.548119
20
-15.965402
30
8.645773
11
7.850252
21
-15.965402
31
9.726250
12
9.506869
22
-15.965402
32
9.381867
13
9.506869
23
-15.965402
33
9.381867
0
3DFACE
8
RoueGauche
62
4.000000
10
6.548119
20
-15.965402
30
8.645773
11
9.506869
21
-15.965402
31
9.381867
12
10.270505
22
-15.965402
32
7.871953
13
10.270505
23
-15.965402
33
7.871953
0
3DFACE
8
RoueGauche
62
4.000000
10
6.548119
20
-15.965402
30
8.645773
11
10.270505
21
-15.965402
31
7.871953
12
9.566124
22
-15.965402
32
6.333501
13
9.566124
23
-15.965402
33
6.333501
0
3DFACE
8
RoueGauche
62
4.000000
10
6.548119
20
-15.965402
30
8.645773
11
9.566124
21
-15.965402
31
6.333501
12
7.924141
22
-15.965402
32
5.925000
13
7.924141
23
-15.965402
33
5.925000
0
3DFACE
8
RoueGauche
62
4.000000
10
6.548119
20
-15.965402
30
8.645773
11
7.924141
21
-15.965402
31
5.925000
12
6.581002
22
-15.965402
32
6.954058
13
6.581002
23
-15.965402
33
6.954058
0
3DFACE
8
LBomb14
62
5.000000
10
13.609337
20
4.914248
30
14.457169
11
13.609337
21
5.829274
31
14.985460
12
15.070389
22
5.829274
32
13.928880
13
15.070389
23
5.829274
33
13.928880
0
3DFACE
8
LBomb14
62
5.000000
10
9.941165
20
4.914248
30
14.457169
11
9.941165
21
5.829274
31
14.985460
12
13.609337
22
5.829274
32
14.985460
13
13.609337
23
4.914248
33
14.457169
0
3DFACE
8
LBomb14
62
5.000000
10
8.811699
20
5.815830
30
13.928880
11
8.811699
21
5.815830
31
13.928880
12
9.941165
22
5.829274
32
14.985460
13
9.941165
23
4.914248
33
14.457169
0
3DFACE
8
LBomb14
62
5.000000
10
13.609337
20
4.914248
30
13.400590
11
13.609337
21
4.914248
31
14.457169
12
15.070389
22
5.829274
32
13.928880
13
15.070389
23
5.829274
33
13.928880
0
3DFACE
8
LBomb14
62
5.000000
10
9.941165
20
4.914248
30
13.400590
11
9.941165
21
4.914248
31
14.457169
12
13.609337
22
4.914248
32
14.457169
13
13.609337
23
4.914248
33
13.400590
0
3DFACE
8
LBomb14
62
5.000000
10
8.811699
20
5.815830
30
13.928880
11
8.811699
21
5.815830
31
13.928880
12
9.941165
22
4.914248
32
14.457169
13
9.941165
23
4.914248
33
13.400590
0
3DFACE
8
LBomb14
62
5.000000
10
13.609337
20
5.829275
30
12.872298
11
13.609337
21
4.914248
31
13.400590
12
15.070389
22
5.829274
32
13.928880
13
15.070389
23
5.829274
33
13.928880
0
3DFACE
8
LBomb14
62
5.000000
10
9.941165
20
5.829275
30
12.872298
11
9.941165
21
4.914248
31
13.400590
12
13.609337
22
4.914248
32
13.400590
13
13.609337
23
5.829275
33
12.872298
0
3DFACE
8
LBomb14
62
5.000000
10
8.811699
20
5.815830
30
13.928880
11
8.811699
21
5.815830
31
13.928880
12
9.941165
22
4.914248
32
13.400590
13
9.941165
23
5.829275
33
12.872298
0
3DFACE
8
LBomb14
62
5.000000
10
13.609337
20
6.744299
30
13.400590
11
13.609337
21
5.829275
31
12.872298
12
15.070389
22
5.829274
32
13.928880
13
15.070389
23
5.829274
33
13.928880
0
3DFACE
8
LBomb14
62
5.000000
10
9.941165
20
6.744299
30
13.400590
11
9.941165
21
5.829275
31
12.872298
12
13.609337
22
5.829275
32
12.872298
13
13.609337
23
6.744299
33
13.400590
0
3DFACE
8
LBomb14
62
5.000000
10
8.811699
20
5.815830
30
13.928880
11
8.811699
21
5.815830
31
13.928880
12
9.941165
22
5.829275
32
12.872298
13
9.941165
23
6.744299
33
13.400590
0
3DFACE
8
LBomb14
62
5.000000
10
13.609337
20
6.744299
30
14.457169
11
13.609337
21
6.744299
31
13.400590
12
15.070389
22
5.829274
32
13.928880
13
15.070389
23
5.829274
33
13.928880
0
3DFACE
8
LBomb14
62
5.000000
10
9.941165
20
6.744299
30
14.457169
11
9.941165
21
6.744299
31
13.400590
12
13.609337
22
6.744299
32
13.400590
13
13.609337
23
6.744299
33
14.457169
0
3DFACE
8
LBomb14
62
5.000000
10
8.811699
20
5.815830
30
13.928880
11
8.811699
21
5.815830
31
13.928880
12
9.941165
22
6.744299
32
13.400590
13
9.941165
23
6.744299
33
14.457169
0
3DFACE
8
LBomb14
62
5.000000
10
13.609337
20
5.829274
30
14.985460
11
13.609337
21
6.744299
31
14.457169
12
15.070389
22
5.829274
32
13.928880
13
15.070389
23
5.829274
33
13.928880
0
3DFACE
8
LBomb14
62
5.000000
10
9.941165
20
5.829274
30
14.985460
11
9.941165
21
6.744299
31
14.457169
12
13.609337
22
6.744299
32
14.457169
13
13.609337
23
5.829274
33
14.985460
0
3DFACE
8
LBomb14
62
5.000000
10
8.811699
20
5.815830
30
13.928880
11
8.811699
21
5.815830
31
13.928880
12
9.941165
22
6.744299
32
14.457169
13
9.941165
23
5.829274
33
14.985460
0
3DFACE
8
LBomb13
62
6.000000
10
3.329336
20
3.094248
30
13.497169
11
3.329336
21
4.009274
31
14.025461
12
4.790389
22
4.009274
32
12.968880
13
4.790389
23
4.009274
33
12.968880
0
3DFACE
8
LBomb13
62
6.000000
10
-0.338836
20
3.094248
30
13.497169
11
-0.338836
21
4.009274
31
14.025461
12
3.329336
22
4.009274
32
14.025461
13
3.329336
23
3.094248
33
13.497169
0
3DFACE
8
LBomb13
62
6.000000
10
-1.468302
20
3.995830
30
12.968880
11
-1.468302
21
3.995830
31
12.968880
12
-0.338836
22
4.009274
32
14.025461
13
-0.338836
23
3.094248
33
13.497169
0
3DFACE
8
LBomb13
62
6.000000
10
3.329336
20
3.094248
30
12.440591
11
3.329336
21
3.094248
31
13.497169
12
4.790389
22
4.009274
32
12.968880
13
4.790389
23
4.009274
33
12.968880
0
3DFACE
8
LBomb13
62
6.000000
10
-0.338836
20
3.094248
30
12.440591
11
-0.338836
21
3.094248
31
13.497169
12
3.329336
22
3.094248
32
13.497169
13
3.329336
23
3.094248
33
12.440591
0
3DFACE
8
LBomb13
62
6.000000
10
-1.468302
20
3.995830
30
12.968880
11
-1.468302
21
3.995830
31
12.968880
12
-0.338836
22
3.094248
32
13.497169
13
-0.338836
23
3.094248
33
12.440591
0
3DFACE
8
LBomb13
62
6.000000
10
3.329336
20
4.009274
30
11.912299
11
3.329336
21
3.094248
31
12.440591
12
4.790389
22
4.009274
32
12.968880
13
4.790389
23
4.009274
33
12.968880
0
3DFACE
8
LBomb13
62
6.000000
10
-0.338836
20
4.009274
30
11.912299
11
-0.338836
21
3.094248
31
12.440591
12
3.329336
22
3.094248
32
12.440591
13
3.329336
23
4.009274
33
11.912299
0
3DFACE
8
LBomb13
62
6.000000
10
-1.468302
20
3.995830
30
12.968880
11
-1.468302
21
3.995830
31
12.968880
12
-0.338836
22
3.094248
32
12.440591
13
-0.338836
23
4.009274
33
11.912299
0
3DFACE
8
LBomb13
62
6.000000
10
3.329336
20
4.924299
30
12.440591
11
3.329336
21
4.009274
31
11.912299
12
4.790389
22
4.009274
32
12.968880
13
4.790389
23
4.009274
33
12.968880
0
3DFACE
8
LBomb13
62
6.000000
10
-0.338836
20
4.924299
30
12.440591
11
-0.338836
21
4.009274
31
11.912299
12
3.329336
22
4.009274
32
11.912299
13
3.329336
23
4.924299
33
12.440591
0
3DFACE
8
LBomb13
62
6.000000
10
-1.468302
20
3.995830
30
12.968880
11
-1.468302
21
3.995830
31
12.968880
12
-0.338836
22
4.009274
32
11.912299
13
-0.338836
23
4.924299
33
12.440591
0
3DFACE
8
LBomb13
62
6.000000
10
3.329336
20
4.924299
30
13.497169
11
3.329336
21
4.924299
31
12.440591
12
4.790389
22
4.009274
32
12.968880
13
4.790389
23
4.009274
33
12.968880
0
3DFACE
8
LBomb13
62
6.000000
10
-0.338836
20
4.924299
30
13.497169
11
-0.338836
21
4.924299
31
12.440591
12
3.329336
22
4.924299
32
12.440591
13
3.329336
23
4.924299
33
13.497169
0
3DFACE
8
LBomb13
62
6.000000
10
-1.468302
20
3.995830
30
12.968880
11
-1.468302
21
3.995830
31
12.968880
12
-0.338836
22
4.924299
32
12.440591
13
-0.338836
23
4.924299
33
13.497169
0
3DFACE
8
LBomb13
62
6.000000
10
3.329336
20
4.009274
30
14.025461
11
3.329336
21
4.924299
31
13.497169
12
4.790389
22
4.009274
32
12.968880
13
4.790389
23
4.009274
33
12.968880
0
3DFACE
8
LBomb13
62
6.000000
10
-0.338836
20
4.009274
30
14.025461
11
-0.338836
21
4.924299
31
13.497169
12
3.329336
22
4.924299
32
13.497169
13
3.329336
23
4.009274
33
14.025461
0
3DFACE
8
LBomb13
62
6.000000
10
-1.468302
20
3.995830
30
12.968880
11
-1.468302
21
3.995830
31
12.968880
12
-0.338836
22
4.924299
32
13.497169
13
-0.338836
23
4.009274
33
14.025461
0
3DFACE
8
LBomb12
62
7.000000
10
6.609336
20
5.334248
30
14.297170
11
6.609336
21
6.249274
31
14.825461
12
8.070389
22
6.249274
32
13.768881
13
8.070389
23
6.249274
33
13.768881
0
3DFACE
8
LBomb12
62
7.000000
10
2.941164
20
5.334248
30
14.297170
11
2.941164
21
6.249274
31
14.825461
12
6.609336
22
6.249274
32
14.825461
13
6.609336
23
5.334248
33
14.297170
0
3DFACE
8
LBomb12
62
7.000000
10
1.811698
20
6.235830
30
13.768881
11
1.811698
21
6.235830
31
13.768881
12
2.941164
22
6.249274
32
14.825461
13
2.941164
23
5.334248
33
14.297170
0
3DFACE
8
LBomb12
62
7.000000
10
6.609336
20
5.334248
30
13.240591
11
6.609336
21
5.334248
31
14.297170
12
8.070389
22
6.249274
32
13.768881
13
8.070389
23
6.249274
33
13.768881
0
3DFACE
8
LBomb12
62
7.000000
10
2.941164
20
5.334248
30
13.240591
11
2.941164
21
5.334248
31
14.297170
12
6.609336
22
5.334248
32
14.297170
13
6.609336
23
5.334248
33
13.240591
0
3DFACE
8
LBomb12
62
7.000000
10
1.811698
20
6.235830
30
13.768881
11
1.811698
21
6.235830
31
13.768881
12
2.941164
22
5.334248
32
14.297170
13
2.941164
23
5.334248
33
13.240591
0
3DFACE
8
LBomb12
62
7.000000
10
6.609336
20
6.249275
30
12.712299
11
6.609336
21
5.334248
31
13.240591
12
8.070389
22
6.249274
32
13.768881
13
8.070389
23
6.249274
33
13.768881
0
3DFACE
8
LBomb12
62
7.000000
10
2.941164
20
6.249275
30
12.712299
11
2.941164
21
5.334248
31
13.240591
12
6.609336
22
5.334248
32
13.240591
13
6.609336
23
6.249275
33
12.712299
0
3DFACE
8
LBomb12
62
7.000000
10
1.811698
20
6.235830
30
13.768881
11
1.811698
21
6.235830
31
13.768881
12
2.941164
22
5.334248
32
13.240591
13
2.941164
23
6.249275
33
12.712299
0
3DFACE
8
LBomb12
62
7.000000
10
6.609336
20
7.164299
30
13.240591
11
6.609336
21
6.249275
31
12.712299
12
8.070389
22
6.249274
32
13.768881
13
8.070389
23
6.249274
33
13.768881
0
3DFACE
8
LBomb12
62
7.000000
10
2.941164
20
7.164299
30
13.240591
11
2.941164
21
6.249275
31
12.712299
12
6.609336
22
6.249275
32
12.712299
13
6.609336
23
7.164299
33
13.240591
0
3DFACE
8
LBomb12
62
7.000000
10
1.811698
20
6.235830
30
13.768881
11
1.811698
21
6.235830
31
13.768881
12
2.941164
22
6.249275
32
12.712299
13
2.941164
23
7.164299
33
13.240591
0
3DFACE
8
LBomb12
62
7.000000
10
6.609336
20
7.164299
30
14.297170
11
6.609336
21
7.164299
31
13.240591
12
8.070389
22
6.249274
32
13.768881
13
8.070389
23
6.249274
33
13.768881
0
3DFACE
8
LBomb12
62
7.000000
10
2.941164
20
7.164299
30
14.297170
11
2.941164
21
7.164299
31
13.240591
12
6.609336
22
7.164299
32
13.240591
13
6.609336
23
7.164299
33
14.297170
0
3DFACE
8
LBomb12
62
7.000000
10
1.811698
20
6.235830
30
13.768881
11
1.811698
21
6.235830
31
13.768881
12
2.941164
22
7.164299
32
13.240591
13
2.941164
23
7.164299
33
14.297170
0
3DFACE
8
LBomb12
62
7.000000
10
6.609336
20
6.249274
30
14.825461
11
6.609336
21
7.164299
31
14.297170
12
8.070389
22
6.249274
32
13.768881
13
8.070389
23
6.249274
33
13.768881
0
3DFACE
8
LBomb12
62
7.000000
10
2.941164
20
6.249274
30
14.825461
11
2.941164
21
7.164299
31
14.297170
12
6.609336
22
7.164299
32
14.297170
13
6.609336
23
6.249274
33
14.825461
0
3DFACE
8
LBomb12
62
7.000000
10
1.811698
20
6.235830
30
13.768881
11
1.811698
21
6.235830
31
13.768881
12
2.941164
22
7.164299
32
14.297170
13
2.941164
23
6.249274
33
14.825461
0
3DFACE
8
LBomb11
62
8.000000
10
-3.370663
20
3.094248
30
13.497169
11
-3.370663
21
4.009274
31
14.025461
12
-1.909611
22
4.009274
32
12.968880
13
-1.909611
23
4.009274
33
12.968880
0
3DFACE
8
LBomb11
62
8.000000
10
-7.038836
20
3.094248
30
13.497169
11
-7.038836
21
4.009274
31
14.025461
12
-3.370663
22
4.009274
32
14.025461
13
-3.370663
23
3.094248
33
13.497169
0
3DFACE
8
LBomb11
62
8.000000
10
-8.168302
20
3.995830
30
12.968880
11
-8.168302
21
3.995830
31
12.968880
12
-7.038836
22
4.009274
32
14.025461
13
-7.038836
23
3.094248
33
13.497169
0
3DFACE
8
LBomb11
62
8.000000
10
-3.370663
20
3.094248
30
12.440591
11
-3.370663
21
3.094248
31
13.497169
12
-1.909611
22
4.009274
32
12.968880
13
-1.909611
23
4.009274
33
12.968880
0
3DFACE
8
LBomb11
62
8.000000
10
-7.038836
20
3.094248
30
12.440591
11
-7.038836
21
3.094248
31
13.497169
12
-3.370663
22
3.094248
32
13.497169
13
-3.370663
23
3.094248
33
12.440591
0
3DFACE
8
LBomb11
62
8.000000
10
-8.168302
20
3.995830
30
12.968880
11
-8.168302
21
3.995830
31
12.968880
12
-7.038836
22
3.094248
32
13.497169
13
-7.038836
23
3.094248
33
12.440591
0
3DFACE
8
LBomb11
62
8.000000
10
-3.370663
20
4.009274
30
11.912299
11
-3.370663
21
3.094248
31
12.440591
12
-1.909611
22
4.009274
32
12.968880
13
-1.909611
23
4.009274
33
12.968880
0
3DFACE
8
LBomb11
62
8.000000
10
-7.038836
20
4.009274
30
11.912299
11
-7.038836
21
3.094248
31
12.440591
12
-3.370663
22
3.094248
32
12.440591
13
-3.370663
23
4.009274
33
11.912299
0
3DFACE
8
LBomb11
62
8.000000
10
-8.168302
20
3.995830
30
12.968880
11
-8.168302
21
3.995830
31
12.968880
12
-7.038836
22
3.094248
32
12.440591
13
-7.038836
23
4.009274
33
11.912299
0
3DFACE
8
LBomb11
62
8.000000
10
-3.370663
20
4.924299
30
12.440591
11
-3.370663
21
4.009274
31
11.912299
12
-1.909611
22
4.009274
32
12.968880
13
-1.909611
23
4.009274
33
12.968880
0
3DFACE
8
LBomb11
62
8.000000
10
-7.038836
20
4.924299
30
12.440591
11
-7.038836
21
4.009274
31
11.912299
12
-3.370663
22
4.009274
32
11.912299
13
-3.370663
23
4.924299
33
12.440591
0
3DFACE
8
LBomb11
62
8.000000
10
-8.168302
20
3.995830
30
12.968880
11
-8.168302
21
3.995830
31
12.968880
12
-7.038836
22
4.009274
32
11.912299
13
-7.038836
23
4.924299
33
12.440591
0
3DFACE
8
LBomb11
62
8.000000
10
-3.370663
20
4.924299
30
13.497169
11
-3.370663
21
4.924299
31
12.440591
12
-1.909611
22
4.009274
32
12.968880
13
-1.909611
23
4.009274
33
12.968880
0
3DFACE
8
LBomb11
62
8.000000
10
-7.038836
20
4.924299
30
13.497169
11
-7.038836
21
4.924299
31
12.440591
12
-3.370663
22
4.924299
32
12.440591
13
-3.370663
23
4.924299
33
13.497169
0
3DFACE
8
LBomb11
62
8.000000
10
-8.168302
20
3.995830
30
12.968880
11
-8.168302
21
3.995830
31
12.968880
12
-7.038836
22
4.924299
32
12.440591
13
-7.038836
23
4.924299
33
13.497169
0
3DFACE
8
LBomb11
62
8.000000
10
-3.370663
20
4.009274
30
14.025461
11
-3.370663
21
4.924299
31
13.497169
12
-1.909611
22
4.009274
32
12.968880
13
-1.909611
23
4.009274
33
12.968880
0
3DFACE
8
LBomb11
62
8.000000
10
-7.038836
20
4.009274
30
14.025461
11
-7.038836
21
4.924299
31
13.497169
12
-3.370663
22
4.924299
32
13.497169
13
-3.370663
23
4.009274
33
14.025461
0
3DFACE
8
LBomb11
62
8.000000
10
-8.168302
20
3.995830
30
12.968880
11
-8.168302
21
3.995830
31
12.968880
12
-7.038836
22
4.924299
32
13.497169
13
-7.038836
23
4.009274
33
14.025461
0
3DFACE
8
LBomb10
62
9.000000
10
-0.170664
20
5.334248
30
14.297170
11
-0.170664
21
6.249274
31
14.825461
12
1.290389
22
6.249274
32
13.768881
13
1.290389
23
6.249274
33
13.768881
0
3DFACE
8
LBomb10
62
9.000000
10
-3.838836
20
5.334248
30
14.297170
11
-3.838836
21
6.249274
31
14.825461
12
-0.170664
22
6.249274
32
14.825461
13
-0.170664
23
5.334248
33
14.297170
0
3DFACE
8
LBomb10
62
9.000000
10
-4.968302
20
6.235830
30
13.768881
11
-4.968302
21
6.235830
31
13.768881
12
-3.838836
22
6.249274
32
14.825461
13
-3.838836
23
5.334248
33
14.297170
0
3DFACE
8
LBomb10
62
9.000000
10
-0.170664
20
5.334248
30
13.240591
11
-0.170664
21
5.334248
31
14.297170
12
1.290389
22
6.249274
32
13.768881
13
1.290389
23
6.249274
33
13.768881
0
3DFACE
8
LBomb10
62
9.000000
10
-3.838836
20
5.334248
30
13.240591
11
-3.838836
21
5.334248
31
14.297170
12
-0.170664
22
5.334248
32
14.297170
13
-0.170664
23
5.334248
33
13.240591
0
3DFACE
8
LBomb10
62
9.000000
10
-4.968302
20
6.235830
30
13.768881
11
-4.968302
21
6.235830
31
13.768881
12
-3.838836
22
5.334248
32
14.297170
13
-3.838836
23
5.334248
33
13.240591
0
3DFACE
8
LBomb10
62
9.000000
10
-0.170664
20
6.249275
30
12.712299
11
-0.170664
21
5.334248
31
13.240591
12
1.290389
22
6.249274
32
13.768881
13
1.290389
23
6.249274
33
13.768881
0
3DFACE
8
LBomb10
62
9.000000
10
-3.838836
20
6.249275
30
12.712299
11
-3.838836
21
5.334248
31
13.240591
12
-0.170664
22
5.334248
32
13.240591
13
-0.170664
23
6.249275
33
12.712299
0
3DFACE
8
LBomb10
62
9.000000
10
-4.968302
20
6.235830
30
13.768881
11
-4.968302
21
6.235830
31
13.768881
12
-3.838836
22
5.334248
32
13.240591
13
-3.838836
23
6.249275
33
12.712299
0
3DFACE
8
LBomb10
62
9.000000
10
-0.170664
20
7.164299
30
13.240591
11
-0.170664
21
6.249275
31
12.712299
12
1.290389
22
6.249274
32
13.768881
13
1.290389
23
6.249274
33
13.768881
0
3DFACE
8
LBomb10
62
9.000000
10
-3.838836
20
7.164299
30
13.240591
11
-3.838836
21
6.249275
31
12.712299
12
-0.170664
22
6.249275
32
12.712299
13
-0.170664
23
7.164299
33
13.240591
0
3DFACE
8
LBomb10
62
9.000000
10
-4.968302
20
6.235830
30
13.768881
11
-4.968302
21
6.235830
31
13.768881
12
-3.838836
22
6.249275
32
12.712299
13
-3.838836
23
7.164299
33
13.240591
0
3DFACE
8
LBomb10
62
9.000000
10
-0.170664
20
7.164299
30
14.297170
11
-0.170664
21
7.164299
31
13.240591
12
1.290389
22
6.249274
32
13.768881
13
1.290389
23
6.249274
33
13.768881
0
3DFACE
8
LBomb10
62
9.000000
10
-3.838836
20
7.164299
30
14.297170
11
-3.838836
21
7.164299
31
13.240591
12
-0.170664
22
7.164299
32
13.240591
13
-0.170664
23
7.164299
33
14.297170
0
3DFACE
8
LBomb10
62
9.000000
10
-4.968302
20
6.235830
30
13.768881
11
-4.968302
21
6.235830
31
13.768881
12
-3.838836
22
7.164299
32
13.240591
13
-3.838836
23
7.164299
33
14.297170
0
3DFACE
8
LBomb10
62
9.000000
10
-0.170664
20
6.249274
30
14.825461
11
-0.170664
21
7.164299
31
14.297170
12
1.290389
22
6.249274
32
13.768881
13
1.290389
23
6.249274
33
13.768881
0
3DFACE
8
LBomb10
62
9.000000
10
-3.838836
20
6.249274
30
14.825461
11
-3.838836
21
7.164299
31
14.297170
12
-0.170664
22
7.164299
32
14.297170
13
-0.170664
23
6.249274
33
14.825461
0
3DFACE
8
LBomb10
62
9.000000
10
-4.968302
20
6.235830
30
13.768881
11
-4.968302
21
6.235830
31
13.768881
12
-3.838836
22
7.164299
32
14.297170
13
-3.838836
23
6.249274
33
14.825461
0
3DFACE
8
LBomb9
62
10.000000
10
9.789336
20
3.094248
30
13.497169
11
9.789336
21
4.009274
31
14.025461
12
11.250389
22
4.009274
32
12.968880
13
11.250389
23
4.009274
33
12.968880
0
3DFACE
8
LBomb9
62
10.000000
10
6.121164
20
3.094248
30
13.497169
11
6.121164
21
4.009274
31
14.025461
12
9.789336
22
4.009274
32
14.025461
13
9.789336
23
3.094248
33
13.497169
0
3DFACE
8
LBomb9
62
10.000000
10
4.991698
20
3.995830
30
12.968880
11
4.991698
21
3.995830
31
12.968880
12
6.121164
22
4.009274
32
14.025461
13
6.121164
23
3.094248
33
13.497169
0
3DFACE
8
LBomb9
62
10.000000
10
9.789336
20
3.094248
30
12.440591
11
9.789336
21
3.094248
31
13.497169
12
11.250389
22
4.009274
32
12.968880
13
11.250389
23
4.009274
33
12.968880
0
3DFACE
8
LBomb9
62
10.000000
10
6.121164
20
3.094248
30
12.440591
11
6.121164
21
3.094248
31
13.497169
12
9.789336
22
3.094248
32
13.497169
13
9.789336
23
3.094248
33
12.440591
0
3DFACE
8
LBomb9
62
10.000000
10
4.991698
20
3.995830
30
12.968880
11
4.991698
21
3.995830
31
12.968880
12
6.121164
22
3.094248
32
13.497169
13
6.121164
23
3.094248
33
12.440591
0
3DFACE
8
LBomb9
62
10.000000
10
9.789336
20
4.009274
30
11.912299
11
9.789336
21
3.094248
31
12.440591
12
11.250389
22
4.009274
32
12.968880
13
11.250389
23
4.009274
33
12.968880
0
3DFACE
8
LBomb9
62
10.000000
10
6.121164
20
4.009274
30
11.912299
11
6.121164
21
3.094248
31
12.440591
12
9.789336
22
3.094248
32
12.440591
13
9.789336
23
4.009274
33
11.912299
0
3DFACE
8
LBomb9
62
10.000000
10
4.991698
20
3.995830
30
12.968880
11
4.991698
21
3.995830
31
12.968880
12
6.121164
22
3.094248
32
12.440591
13
6.121164
23
4.009274
33
11.912299
0
3DFACE
8
LBomb9
62
10.000000
10
9.789336
20
4.924299
30
12.440591
11
9.789336
21
4.009274
31
11.912299
12
11.250389
22
4.009274
32
12.968880
13
11.250389
23
4.009274
33
12.968880
0
3DFACE
8
LBomb9
62
10.000000
10
6.121164
20
4.924299
30
12.440591
11
6.121164
21
4.009274
31
11.912299
12
9.789336
22
4.009274
32
11.912299
13
9.789336
23
4.924299
33
12.440591
0
3DFACE
8
LBomb9
62
10.000000
10
4.991698
20
3.995830
30
12.968880
11
4.991698
21
3.995830
31
12.968880
12
6.121164
22
4.009274
32
11.912299
13
6.121164
23
4.924299
33
12.440591
0
3DFACE
8
LBomb9
62
10.000000
10
9.789336
20
4.924299
30
13.497169
11
9.789336
21
4.924299
31
12.440591
12
11.250389
22
4.009274
32
12.968880
13
11.250389
23
4.009274
33
12.968880
0
3DFACE
8
LBomb9
62
10.000000
10
6.121164
20
4.924299
30
13.497169
11
6.121164
21
4.924299
31
12.440591
12
9.789336
22
4.924299
32
12.440591
13
9.789336
23
4.924299
33
13.497169
0
3DFACE
8
LBomb9
62
10.000000
10
4.991698
20
3.995830
30
12.968880
11
4.991698
21
3.995830
31
12.968880
12
6.121164
22
4.924299
32
12.440591
13
6.121164
23
4.924299
33
13.497169
0
3DFACE
8
LBomb9
62
10.000000
10
9.789336
20
4.009274
30
14.025461
11
9.789336
21
4.924299
31
13.497169
12
11.250389
22
4.009274
32
12.968880
13
11.250389
23
4.009274
33
12.968880
0
3DFACE
8
LBomb9
62
10.000000
10
6.121164
20
4.009274
30
14.025461
11
6.121164
21
4.924299
31
13.497169
12
9.789336
22
4.924299
32
13.497169
13
9.789336
23
4.009274
33
14.025461
0
3DFACE
8
LBomb9
62
10.000000
10
4.991698
20
3.995830
30
12.968880
11
4.991698
21
3.995830
31
12.968880
12
6.121164
22
4.924299
32
13.497169
13
6.121164
23
4.009274
33
14.025461
0
3DFACE
8
LBomb8
62
11.000000
10
16.289337
20
3.094248
30
13.497169
11
16.289337
21
4.009274
31
14.025461
12
17.750389
22
4.009274
32
12.968880
13
17.750389
23
4.009274
33
12.968880
0
3DFACE
8
LBomb8
62
11.000000
10
12.621163
20
3.094248
30
13.497169
11
12.621163
21
4.009274
31
14.025461
12
16.289337
22
4.009274
32
14.025461
13
16.289337
23
3.094248
33
13.497169
0
3DFACE
8
LBomb8
62
11.000000
10
11.491697
20
3.995830
30
12.968880
11
11.491697
21
3.995830
31
12.968880
12
12.621163
22
4.009274
32
14.025461
13
12.621163
23
3.094248
33
13.497169
0
3DFACE
8
LBomb8
62
11.000000
10
16.289337
20
3.094248
30
12.440591
11
16.289337
21
3.094248
31
13.497169
12
17.750389
22
4.009274
32
12.968880
13
17.750389
23
4.009274
33
12.968880
0
3DFACE
8
LBomb8
62
11.000000
10
12.621163
20
3.094248
30
12.440591
11
12.621163
21
3.094248
31
13.497169
12
16.289337
22
3.094248
32
13.497169
13
16.289337
23
3.094248
33
12.440591
0
3DFACE
8
LBomb8
62
11.000000
10
11.491697
20
3.995830
30
12.968880
11
11.491697
21
3.995830
31
12.968880
12
12.621163
22
3.094248
32
13.497169
13
12.621163
23
3.094248
33
12.440591
0
3DFACE
8
LBomb8
62
11.000000
10
16.289337
20
4.009274
30
11.912299
11
16.289337
21
3.094248
31
12.440591
12
17.750389
22
4.009274
32
12.968880
13
17.750389
23
4.009274
33
12.968880
0
3DFACE
8
LBomb8
62
11.000000
10
12.621163
20
4.009274
30
11.912299
11
12.621163
21
3.094248
31
12.440591
12
16.289337
22
3.094248
32
12.440591
13
16.289337
23
4.009274
33
11.912299
0
3DFACE
8
LBomb8
62
11.000000
10
11.491697
20
3.995830
30
12.968880
11
11.491697
21
3.995830
31
12.968880
12
12.621163
22
3.094248
32
12.440591
13
12.621163
23
4.009274
33
11.912299
0
3DFACE
8
LBomb8
62
11.000000
10
16.289337
20
4.924299
30
12.440591
11
16.289337
21
4.009274
31
11.912299
12
17.750389
22
4.009274
32
12.968880
13
17.750389
23
4.009274
33
12.968880
0
3DFACE
8
LBomb8
62
11.000000
10
12.621163
20
4.924299
30
12.440591
11
12.621163
21
4.009274
31
11.912299
12
16.289337
22
4.009274
32
11.912299
13
16.289337
23
4.924299
33
12.440591
0
3DFACE
8
LBomb8
62
11.000000
10
11.491697
20
3.995830
30
12.968880
11
11.491697
21
3.995830
31
12.968880
12
12.621163
22
4.009274
32
11.912299
13
12.621163
23
4.924299
33
12.440591
0
3DFACE
8
LBomb8
62
11.000000
10
16.289337
20
4.924299
30
13.497169
11
16.289337
21
4.924299
31
12.440591
12
17.750389
22
4.009274
32
12.968880
13
17.750389
23
4.009274
33
12.968880
0
3DFACE
8
LBomb8
62
11.000000
10
12.621163
20
4.924299
30
13.497169
11
12.621163
21
4.924299
31
12.440591
12
16.289337
22
4.924299
32
12.440591
13
16.289337
23
4.924299
33
13.497169
0
3DFACE
8
LBomb8
62
11.000000
10
11.491697
20
3.995830
30
12.968880
11
11.491697
21
3.995830
31
12.968880
12
12.621163
22
4.924299
32
12.440591
13
12.621163
23
4.924299
33
13.497169
0
3DFACE
8
LBomb8
62
11.000000
10
16.289337
20
4.009274
30
14.025461
11
16.289337
21
4.924299
31
13.497169
12
17.750389
22
4.009274
32
12.968880
13
17.750389
23
4.009274
33
12.968880
0
3DFACE
8
LBomb8
62
11.000000
10
12.621163
20
4.009274
30
14.025461
11
12.621163
21
4.924299
31
13.497169
12
16.289337
22
4.924299
32
13.497169
13
16.289337
23
4.009274
33
14.025461
0
3DFACE
8
LBomb8
62
11.000000
10
11.491697
20
3.995830
30
12.968880
11
11.491697
21
3.995830
31
12.968880
12
12.621163
22
4.924299
32
13.497169
13
12.621163
23
4.009274
33
14.025461
0
3DFACE
8
LBomb7
62
12.000000
10
15.070389
20
-6.740777
30
13.928880
11
15.070389
21
-6.740777
31
13.928880
12
13.609337
22
-6.740777
32
14.985460
13
13.609337
23
-5.825751
33
14.457169
0
3DFACE
8
LBomb7
62
12.000000
10
13.609337
20
-5.825751
30
14.457169
11
13.609337
21
-6.740777
31
14.985460
12
9.941165
22
-6.740777
32
14.985460
13
9.941165
23
-5.825751
33
14.457169
0
3DFACE
8
LBomb7
62
12.000000
10
9.941165
20
-5.825751
30
14.457169
11
9.941165
21
-6.740777
31
14.985460
12
8.811699
22
-6.727333
32
13.928880
13
8.811699
23
-6.727333
33
13.928880
0
3DFACE
8
LBomb7
62
12.000000
10
15.070389
20
-6.740777
30
13.928880
11
15.070389
21
-6.740777
31
13.928880
12
13.609337
22
-5.825751
32
14.457169
13
13.609337
23
-5.825751
33
13.400590
0
3DFACE
8
LBomb7
62
12.000000
10
13.609337
20
-5.825751
30
13.400590
11
13.609337
21
-5.825751
31
14.457169
12
9.941165
22
-5.825751
32
14.457169
13
9.941165
23
-5.825751
33
13.400590
0
3DFACE
8
LBomb7
62
12.000000
10
9.941165
20
-5.825751
30
13.400590
11
9.941165
21
-5.825751
31
14.457169
12
8.811699
22
-6.727333
32
13.928880
13
8.811699
23
-6.727333
33
13.928880
0
3DFACE
8
LBomb7
62
12.000000
10
15.070389
20
-6.740777
30
13.928880
11
15.070389
21
-6.740777
31
13.928880
12
13.609337
22
-5.825751
32
13.400590
13
13.609337
23
-6.740778
33
12.872298
0
3DFACE
8
LBomb7
62
12.000000
10
13.609337
20
-6.740778
30
12.872298
11
13.609337
21
-5.825751
31
13.400590
12
9.941165
22
-5.825751
32
13.400590
13
9.941165
23
-6.740778
33
12.872298
0
3DFACE
8
LBomb7
62
12.000000
10
9.941165
20
-6.740778
30
12.872298
11
9.941165
21
-5.825751
31
13.400590
12
8.811699
22
-6.727333
32
13.928880
13
8.811699
23
-6.727333
33
13.928880
0
3DFACE
8
LBomb7
62
12.000000
10
15.070389
20
-6.740777
30
13.928880
11
15.070389
21
-6.740777
31
13.928880
12
13.609337
22
-6.740778
32
12.872298
13
13.609337
23
-7.655803
33
13.400590
0
3DFACE
8
LBomb7
62
12.000000
10
13.609337
20
-7.655803
30
13.400590
11
13.609337
21
-6.740778
31
12.872298
12
9.941165
22
-6.740778
32
12.872298
13
9.941165
23
-7.655803
33
13.400590
0
3DFACE
8
LBomb7
62
12.000000
10
9.941165
20
-7.655803
30
13.400590
11
9.941165
21
-6.740778
31
12.872298
12
8.811699
22
-6.727333
32
13.928880
13
8.811699
23
-6.727333
33
13.928880
0
3DFACE
8
LBomb7
62
12.000000
10
15.070389
20
-6.740777
30
13.928880
11
15.070389
21
-6.740777
31
13.928880
12
13.609337
22
-7.655803
32
13.400590
13
13.609337
23
-7.655803
33
14.457169
0
3DFACE
8
LBomb7
62
12.000000
10
13.609337
20
-7.655803
30
14.457169
11
13.609337
21
-7.655803
31
13.400590
12
9.941165
22
-7.655803
32
13.400590
13
9.941165
23
-7.655803
33
14.457169
0
3DFACE
8
LBomb7
62
12.000000
10
9.941165
20
-7.655803
30
14.457169
11
9.941165
21
-7.655803
31
13.400590
12
8.811699
22
-6.727333
32
13.928880
13
8.811699
23
-6.727333
33
13.928880
0
3DFACE
8
LBomb7
62
12.000000
10
15.070389
20
-6.740777
30
13.928880
11
15.070389
21
-6.740777
31
13.928880
12
13.609337
22
-7.655803
32
14.457169
13
13.609337
23
-6.740777
33
14.985460
0
3DFACE
8
LBomb7
62
12.000000
10
13.609337
20
-6.740777
30
14.985460
11
13.609337
21
-7.655803
31
14.457169
12
9.941165
22
-7.655803
32
14.457169
13
9.941165
23
-6.740777
33
14.985460
0
3DFACE
8
LBomb7
62
12.000000
10
9.941165
20
-6.740777
30
14.985460
11
9.941165
21
-7.655803
31
14.457169
12
8.811699
22
-6.727333
32
13.928880
13
8.811699
23
-6.727333
33
13.928880
0
3DFACE
8
LBomb6
62
13.000000
10
4.790389
20
-4.920777
30
12.968880
11
4.790389
21
-4.920777
31
12.968880
12
3.329336
22
-4.920777
32
14.025461
13
3.329336
23
-4.005752
33
13.497169
0
3DFACE
8
LBomb6
62
13.000000
10
3.329336
20
-4.005752
30
13.497169
11
3.329336
21
-4.920777
31
14.025461
12
-0.338836
22
-4.920777
32
14.025461
13
-0.338836
23
-4.005752
33
13.497169
0
3DFACE
8
LBomb6
62
13.000000
10
-0.338836
20
-4.005752
30
13.497169
11
-0.338836
21
-4.920777
31
14.025461
12
-1.468302
22
-4.907333
32
12.968880
13
-1.468302
23
-4.907333
33
12.968880
0
3DFACE
8
LBomb6
62
13.000000
10
4.790389
20
-4.920777
30
12.968880
11
4.790389
21
-4.920777
31
12.968880
12
3.329336
22
-4.005752
32
13.497169
13
3.329336
23
-4.005752
33
12.440591
0
3DFACE
8
LBomb6
62
13.000000
10
3.329336
20
-4.005752
30
12.440591
11
3.329336
21
-4.005752
31
13.497169
12
-0.338836
22
-4.005752
32
13.497169
13
-0.338836
23
-4.005752
33
12.440591
0
3DFACE
8
LBomb6
62
13.000000
10
-0.338836
20
-4.005752
30
12.440591
11
-0.338836
21
-4.005752
31
13.497169
12
-1.468302
22
-4.907333
32
12.968880
13
-1.468302
23
-4.907333
33
12.968880
0
3DFACE
8
LBomb6
62
13.000000
10
4.790389
20
-4.920777
30
12.968880
11
4.790389
21
-4.920777
31
12.968880
12
3.329336
22
-4.005752
32
12.440591
13
3.329336
23
-4.920778
33
11.912299
0
3DFACE
8
LBomb6
62
13.000000
10
3.329336
20
-4.920778
30
11.912299
11
3.329336
21
-4.005752
31
12.440591
12
-0.338836
22
-4.005752
32
12.440591
13
-0.338836
23
-4.920778
33
11.912299
0
3DFACE
8
LBomb6
62
13.000000
10
-0.338836
20
-4.920778
30
11.912299
11
-0.338836
21
-4.005752
31
12.440591
12
-1.468302
22
-4.907333
32
12.968880
13
-1.468302
23
-4.907333
33
12.968880
0
3DFACE
8
LBomb6
62
13.000000
10
4.790389
20
-4.920777
30
12.968880
11
4.790389
21
-4.920777
31
12.968880
12
3.329336
22
-4.920778
32
11.912299
13
3.329336
23
-5.835803
33
12.440591
0
3DFACE
8
LBomb6
62
13.000000
10
3.329336
20
-5.835803
30
12.440591
11
3.329336
21
-4.920778
31
11.912299
12
-0.338836
22
-4.920778
32
11.912299
13
-0.338836
23
-5.835803
33
12.440591
0
3DFACE
8
LBomb6
62
13.000000
10
-0.338836
20
-5.835803
30
12.440591
11
-0.338836
21
-4.920778
31
11.912299
12
-1.468302
22
-4.907333
32
12.968880
13
-1.468302
23
-4.907333
33
12.968880
0
3DFACE
8
LBomb6
62
13.000000
10
4.790389
20
-4.920777
30
12.968880
11
4.790389
21
-4.920777
31
12.968880
12
3.329336
22
-5.835803
32
12.440591
13
3.329336
23
-5.835803
33
13.497169
0
3DFACE
8
LBomb6
62
13.000000
10
3.329336
20
-5.835803
30
13.497169
11
3.329336
21
-5.835803
31
12.440591
12
-0.338836
22
-5.835803
32
12.440591
13
-0.338836
23
-5.835803
33
13.497169
0
3DFACE
8
LBomb6
62
13.000000
10
-0.338836
20
-5.835803
30
13.497169
11
-0.338836
21
-5.835803
31
12.440591
12
-1.468302
22
-4.907333
32
12.968880
13
-1.468302
23
-4.907333
33
12.968880
0
3DFACE
8
LBomb6
62
13.000000
10
4.790389
20
-4.920777
30
12.968880
11
4.790389
21
-4.920777
31
12.968880
12
3.329336
22
-5.835803
32
13.497169
13
3.329336
23
-4.920777
33
14.025461
0
3DFACE
8
LBomb6
62
13.000000
10
3.329336
20
-4.920777
30
14.025461
11
3.329336
21
-5.835803
31
13.497169
12
-0.338836
22
-5.835803
32
13.497169
13
-0.338836
23
-4.920777
33
14.025461
0
3DFACE
8
LBomb6
62
13.000000
10
-0.338836
20
-4.920777
30
14.025461
11
-0.338836
21
-5.835803
31
13.497169
12
-1.468302
22
-4.907333
32
12.968880
13
-1.468302
23
-4.907333
33
12.968880
0
3DFACE
8
LBomb5
62
14.000000
10
8.070389
20
-7.160777
30
13.768881
11
8.070389
21
-7.160777
31
13.768881
12
6.609336
22
-7.160777
32
14.825461
13
6.609336
23
-6.245751
33
14.297170
0
3DFACE
8
LBomb5
62
14.000000
10
6.609336
20
-6.245751
30
14.297170
11
6.609336
21
-7.160777
31
14.825461
12
2.941164
22
-7.160777
32
14.825461
13
2.941164
23
-6.245751
33
14.297170
0
3DFACE
8
LBomb5
62
14.000000
10
2.941164
20
-6.245751
30
14.297170
11
2.941164
21
-7.160777
31
14.825461
12
1.811698
22
-7.147333
32
13.768881
13
1.811698
23
-7.147333
33
13.768881
0
3DFACE
8
LBomb5
62
14.000000
10
8.070389
20
-7.160777
30
13.768881
11
8.070389
21
-7.160777
31
13.768881
12
6.609336
22
-6.245751
32
14.297170
13
6.609336
23
-6.245751
33
13.240591
0
3DFACE
8
LBomb5
62
14.000000
10
6.609336
20
-6.245751
30
13.240591
11
6.609336
21
-6.245751
31
14.297170
12
2.941164
22
-6.245751
32
14.297170
13
2.941164
23
-6.245751
33
13.240591
0
3DFACE
8
LBomb5
62
14.000000
10
2.941164
20
-6.245751
30
13.240591
11
2.941164
21
-6.245751
31
14.297170
12
1.811698
22
-7.147333
32
13.768881
13
1.811698
23
-7.147333
33
13.768881
0
3DFACE
8
LBomb5
62
14.000000
10
8.070389
20
-7.160777
30
13.768881
11
8.070389
21
-7.160777
31
13.768881
12
6.609336
22
-6.245751
32
13.240591
13
6.609336
23
-7.160778
33
12.712299
0
3DFACE
8
LBomb5
62
14.000000
10
6.609336
20
-7.160778
30
12.712299
11
6.609336
21
-6.245751
31
13.240591
12
2.941164
22
-6.245751
32
13.240591
13
2.941164
23
-7.160778
33
12.712299
0
3DFACE
8
LBomb5
62
14.000000
10
2.941164
20
-7.160778
30
12.712299
11
2.941164
21
-6.245751
31
13.240591
12
1.811698
22
-7.147333
32
13.768881
13
1.811698
23
-7.147333
33
13.768881
0
3DFACE
8
LBomb5
62
14.000000
10
8.070389
20
-7.160777
30
13.768881
11
8.070389
21
-7.160777
31
13.768881
12
6.609336
22
-7.160778
32
12.712299
13
6.609336
23
-8.075803
33
13.240591
0
3DFACE
8
LBomb5
62
14.000000
10
6.609336
20
-8.075803
30
13.240591
11
6.609336
21
-7.160778
31
12.712299
12
2.941164
22
-7.160778
32
12.712299
13
2.941164
23
-8.075803
33
13.240591
0
3DFACE
8
LBomb5
62
14.000000
10
2.941164
20
-8.075803
30
13.240591
11
2.941164
21
-7.160778
31
12.712299
12
1.811698
22
-7.147333
32
13.768881
13
1.811698
23
-7.147333
33
13.768881
0
3DFACE
8
LBomb5
62
14.000000
10
8.070389
20
-7.160777
30
13.768881
11
8.070389
21
-7.160777
31
13.768881
12
6.609336
22
-8.075803
32
13.240591
13
6.609336
23
-8.075803
33
14.297170
0
3DFACE
8
LBomb5
62
14.000000
10
6.609336
20
-8.075803
30
14.297170
11
6.609336
21
-8.075803
31
13.240591
12
2.941164
22
-8.075803
32
13.240591
13
2.941164
23
-8.075803
33
14.297170
0
3DFACE
8
LBomb5
62
14.000000
10
2.941164
20
-8.075803
30
14.297170
11
2.941164
21
-8.075803
31
13.240591
12
1.811698
22
-7.147333
32
13.768881
13
1.811698
23
-7.147333
33
13.768881
0
3DFACE
8
LBomb5
62
14.000000
10
8.070389
20
-7.160777
30
13.768881
11
8.070389
21
-7.160777
31
13.768881
12
6.609336
22
-8.075803
32
14.297170
13
6.609336
23
-7.160777
33
14.825461
0
3DFACE
8
LBomb5
62
14.000000
10
6.609336
20
-7.160777
30
14.825461
11
6.609336
21
-8.075803
31
14.297170
12
2.941164
22
-8.075803
32
14.297170
13
2.941164
23
-7.160777
33
14.825461
0
3DFACE
8
LBomb5
62
14.000000
10
2.941164
20
-7.160777
30
14.825461
11
2.941164
21
-8.075803
31
14.297170
12
1.811698
22
-7.147333
32
13.768881
13
1.811698
23
-7.147333
33
13.768881
0
3DFACE
8
LBomb4
62
15.000000
10
-1.909611
20
-4.920777
30
12.968880
11
-1.909611
21
-4.920777
31
12.968880
12
-3.370663
22
-4.920777
32
14.025461
13
-3.370663
23
-4.005752
33
13.497169
0
3DFACE
8
LBomb4
62
15.000000
10
-3.370663
20
-4.005752
30
13.497169
11
-3.370663
21
-4.920777
31
14.025461
12
-7.038836
22
-4.920777
32
14.025461
13
-7.038836
23
-4.005752
33
13.497169
0
3DFACE
8
LBomb4
62
15.000000
10
-7.038836
20
-4.005752
30
13.497169
11
-7.038836
21
-4.920777
31
14.025461
12
-8.168302
22
-4.907333
32
12.968880
13
-8.168302
23
-4.907333
33
12.968880
0
3DFACE
8
LBomb4
62
15.000000
10
-1.909611
20
-4.920777
30
12.968880
11
-1.909611
21
-4.920777
31
12.968880
12
-3.370663
22
-4.005752
32
13.497169
13
-3.370663
23
-4.005752
33
12.440591
0
3DFACE
8
LBomb4
62
15.000000
10
-3.370663
20
-4.005752
30
12.440591
11
-3.370663
21
-4.005752
31
13.497169
12
-7.038836
22
-4.005752
32
13.497169
13
-7.038836
23
-4.005752
33
12.440591
0
3DFACE
8
LBomb4
62
15.000000
10
-7.038836
20
-4.005752
30
12.440591
11
-7.038836
21
-4.005752
31
13.497169
12
-8.168302
22
-4.907333
32
12.968880
13
-8.168302
23
-4.907333
33
12.968880
0
3DFACE
8
LBomb4
62
15.000000
10
-1.909611
20
-4.920777
30
12.968880
11
-1.909611
21
-4.920777
31
12.968880
12
-3.370663
22
-4.005752
32
12.440591
13
-3.370663
23
-4.920778
33
11.912299
0
3DFACE
8
LBomb4
62
15.000000
10
-3.370663
20
-4.920778
30
11.912299
11
-3.370663
21
-4.005752
31
12.440591
12
-7.038836
22
-4.005752
32
12.440591
13
-7.038836
23
-4.920778
33
11.912299
0
3DFACE
8
LBomb4
62
15.000000
10
-7.038836
20
-4.920778
30
11.912299
11
-7.038836
21
-4.005752
31
12.440591
12
-8.168302
22
-4.907333
32
12.968880
13
-8.168302
23
-4.907333
33
12.968880
0
3DFACE
8
LBomb4
62
15.000000
10
-1.909611
20
-4.920777
30
12.968880
11
-1.909611
21
-4.920777
31
12.968880
12
-3.370663
22
-4.920778
32
11.912299
13
-3.370663
23
-5.835803
33
12.440591
0
3DFACE
8
LBomb4
62
15.000000
10
-3.370663
20
-5.835803
30
12.440591
11
-3.370663
21
-4.920778
31
11.912299
12
-7.038836
22
-4.920778
32
11.912299
13
-7.038836
23
-5.835803
33
12.440591
0
3DFACE
8
LBomb4
62
15.000000
10
-7.038836
20
-5.835803
30
12.440591
11
-7.038836
21
-4.920778
31
11.912299
12
-8.168302
22
-4.907333
32
12.968880
13
-8.168302
23
-4.907333
33
12.968880
0
3DFACE
8
LBomb4
62
15.000000
10
-1.909611
20
-4.920777
30
12.968880
11
-1.909611
21
-4.920777
31
12.968880
12
-3.370663
22
-5.835803
32
12.440591
13
-3.370663
23
-5.835803
33
13.497169
0
3DFACE
8
LBomb4
62
15.000000
10
-3.370663
20
-5.835803
30
13.497169
11
-3.370663
21
-5.835803
31
12.440591
12
-7.038836
22
-5.835803
32
12.440591
13
-7.038836
23
-5.835803
33
13.497169
0
3DFACE
8
LBomb4
62
15.000000
10
-7.038836
20
-5.835803
30
13.497169
11
-7.038836
21
-5.835803
31
12.440591
12
-8.168302
22
-4.907333
32
12.968880
13
-8.168302
23
-4.907333
33
12.968880
0
3DFACE
8
LBomb4
62
15.000000
10
-1.909611
20
-4.920777
30
12.968880
11
-1.909611
21
-4.920777
31
12.968880
12
-3.370663
22
-5.835803
32
13.497169
13
-3.370663
23
-4.920777
33
14.025461
0
3DFACE
8
LBomb4
62
15.000000
10
-3.370663
20
-4.920777
30
14.025461
11
-3.370663
21
-5.835803
31
13.497169
12
-7.038836
22
-5.835803
32
13.497169
13
-7.038836
23
-4.920777
33
14.025461
0
3DFACE
8
LBomb4
62
15.000000
10
-7.038836
20
-4.920777
30
14.025461
11
-7.038836
21
-5.835803
31
13.497169
12
-8.168302
22
-4.907333
32
12.968880
13
-8.168302
23
-4.907333
33
12.968880
0
3DFACE
8
LBomb3
62
16.000000
10
1.290389
20
-7.160777
30
13.768881
11
1.290389
21
-7.160777
31
13.768881
12
-0.170664
22
-7.160777
32
14.825461
13
-0.170664
23
-6.245751
33
14.297170
0
3DFACE
8
LBomb3
62
16.000000
10
-0.170664
20
-6.245751
30
14.297170
11
-0.170664
21
-7.160777
31
14.825461
12
-3.838836
22
-7.160777
32
14.825461
13
-3.838836
23
-6.245751
33
14.297170
0
3DFACE
8
LBomb3
62
16.000000
10
-3.838836
20
-6.245751
30
14.297170
11
-3.838836
21
-7.160777
31
14.825461
12
-4.968302
22
-7.147333
32
13.768881
13
-4.968302
23
-7.147333
33
13.768881
0
3DFACE
8
LBomb3
62
16.000000
10
1.290389
20
-7.160777
30
13.768881
11
1.290389
21
-7.160777
31
13.768881
12
-0.170664
22
-6.245751
32
14.297170
13
-0.170664
23
-6.245751
33
13.240591
0
3DFACE
8
LBomb3
62
16.000000
10
-0.170664
20
-6.245751
30
13.240591
11
-0.170664
21
-6.245751
31
14.297170
12
-3.838836
22
-6.245751
32
14.297170
13
-3.838836
23
-6.245751
33
13.240591
0
3DFACE
8
LBomb3
62
16.000000
10
-3.838836
20
-6.245751
30
13.240591
11
-3.838836
21
-6.245751
31
14.297170
12
-4.968302
22
-7.147333
32
13.768881
13
-4.968302
23
-7.147333
33
13.768881
0
3DFACE
8
LBomb3
62
16.000000
10
1.290389
20
-7.160777
30
13.768881
11
1.290389
21
-7.160777
31
13.768881
12
-0.170664
22
-6.245751
32
13.240591
13
-0.170664
23
-7.160778
33
12.712299
0
3DFACE
8
LBomb3
62
16.000000
10
-0.170664
20
-7.160778
30
12.712299
11
-0.170664
21
-6.245751
31
13.240591
12
-3.838836
22
-6.245751
32
13.240591
13
-3.838836
23
-7.160778
33
12.712299
0
3DFACE
8
LBomb3
62
16.000000
10
-3.838836
20
-7.160778
30
12.712299
11
-3.838836
21
-6.245751
31
13.240591
12
-4.968302
22
-7.147333
32
13.768881
13
-4.968302
23
-7.147333
33
13.768881
0
3DFACE
8
LBomb3
62
16.000000
10
1.290389
20
-7.160777
30
13.768881
11
1.290389
21
-7.160777
31
13.768881
12
-0.170664
22
-7.160778
32
12.712299
13
-0.170664
23
-8.075803
33
13.240591
0
3DFACE
8
LBomb3
62
16.000000
10
-0.170664
20
-8.075803
30
13.240591
11
-0.170664
21
-7.160778
31
12.712299
12
-3.838836
22
-7.160778
32
12.712299
13
-3.838836
23
-8.075803
33
13.240591
0
3DFACE
8
LBomb3
62
16.000000
10
-3.838836
20
-8.075803
30
13.240591
11
-3.838836
21
-7.160778
31
12.712299
12
-4.968302
22
-7.147333
32
13.768881
13
-4.968302
23
-7.147333
33
13.768881
0
3DFACE
8
LBomb3
62
16.000000
10
1.290389
20
-7.160777
30
13.768881
11
1.290389
21
-7.160777
31
13.768881
12
-0.170664
22
-8.075803
32
13.240591
13
-0.170664
23
-8.075803
33
14.297170
0
3DFACE
8
LBomb3
62
16.000000
10
-0.170664
20
-8.075803
30
14.297170
11
-0.170664
21
-8.075803
31
13.240591
12
-3.838836
22
-8.075803
32
13.240591
13
-3.838836
23
-8.075803
33
14.297170
0
3DFACE
8
LBomb3
62
16.000000
10
-3.838836
20
-8.075803
30
14.297170
11
-3.838836
21
-8.075803
31
13.240591
12
-4.968302
22
-7.147333
32
13.768881
13
-4.968302
23
-7.147333
33
13.768881
0
3DFACE
8
LBomb3
62
16.000000
10
1.290389
20
-7.160777
30
13.768881
11
1.290389
21
-7.160777
31
13.768881
12
-0.170664
22
-8.075803
32
14.297170
13
-0.170664
23
-7.160777
33
14.825461
0
3DFACE
8
LBomb3
62
16.000000
10
-0.170664
20
-7.160777
30
14.825461
11
-0.170664
21
-8.075803
31
14.297170
12
-3.838836
22
-8.075803
32
14.297170
13
-3.838836
23
-7.160777
33
14.825461
0
3DFACE
8
LBomb3
62
16.000000
10
-3.838836
20
-7.160777
30
14.825461
11
-3.838836
21
-8.075803
31
14.297170
12
-4.968302
22
-7.147333
32
13.768881
13
-4.968302
23
-7.147333
33
13.768881
0
3DFACE
8
LBomb2
62
17.000000
10
11.250389
20
-4.920777
30
12.968880
11
11.250389
21
-4.920777
31
12.968880
12
9.789336
22
-4.920777
32
14.025461
13
9.789336
23
-4.005752
33
13.497169
0
3DFACE
8
LBomb2
62
17.000000
10
9.789336
20
-4.005752
30
13.497169
11
9.789336
21
-4.920777
31
14.025461
12
6.121164
22
-4.920777
32
14.025461
13
6.121164
23
-4.005752
33
13.497169
0
3DFACE
8
LBomb2
62
17.000000
10
6.121164
20
-4.005752
30
13.497169
11
6.121164
21
-4.920777
31
14.025461
12
4.991698
22
-4.907333
32
12.968880
13
4.991698
23
-4.907333
33
12.968880
0
3DFACE
8
LBomb2
62
17.000000
10
11.250389
20
-4.920777
30
12.968880
11
11.250389
21
-4.920777
31
12.968880
12
9.789336
22
-4.005752
32
13.497169
13
9.789336
23
-4.005752
33
12.440591
0
3DFACE
8
LBomb2
62
17.000000
10
9.789336
20
-4.005752
30
12.440591
11
9.789336
21
-4.005752
31
13.497169
12
6.121164
22
-4.005752
32
13.497169
13
6.121164
23
-4.005752
33
12.440591
0
3DFACE
8
LBomb2
62
17.000000
10
6.121164
20
-4.005752
30
12.440591
11
6.121164
21
-4.005752
31
13.497169
12
4.991698
22
-4.907333
32
12.968880
13
4.991698
23
-4.907333
33
12.968880
0
3DFACE
8
LBomb2
62
17.000000
10
11.250389
20
-4.920777
30
12.968880
11
11.250389
21
-4.920777
31
12.968880
12
9.789336
22
-4.005752
32
12.440591
13
9.789336
23
-4.920778
33
11.912299
0
3DFACE
8
LBomb2
62
17.000000
10
9.789336
20
-4.920778
30
11.912299
11
9.789336
21
-4.005752
31
12.440591
12
6.121164
22
-4.005752
32
12.440591
13
6.121164
23
-4.920778
33
11.912299
0
3DFACE
8
LBomb2
62
17.000000
10
6.121164
20
-4.920778
30
11.912299
11
6.121164
21
-4.005752
31
12.440591
12
4.991698
22
-4.907333
32
12.968880
13
4.991698
23
-4.907333
33
12.968880
0
3DFACE
8
LBomb2
62
17.000000
10
11.250389
20
-4.920777
30
12.968880
11
11.250389
21
-4.920777
31
12.968880
12
9.789336
22
-4.920778
32
11.912299
13
9.789336
23
-5.835803
33
12.440591
0
3DFACE
8
LBomb2
62
17.000000
10
9.789336
20
-5.835803
30
12.440591
11
9.789336
21
-4.920778
31
11.912299
12
6.121164
22
-4.920778
32
11.912299
13
6.121164
23
-5.835803
33
12.440591
0
3DFACE
8
LBomb2
62
17.000000
10
6.121164
20
-5.835803
30
12.440591
11
6.121164
21
-4.920778
31
11.912299
12
4.991698
22
-4.907333
32
12.968880
13
4.991698
23
-4.907333
33
12.968880
0
3DFACE
8
LBomb2
62
17.000000
10
11.250389
20
-4.920777
30
12.968880
11
11.250389
21
-4.920777
31
12.968880
12
9.789336
22
-5.835803
32
12.440591
13
9.789336
23
-5.835803
33
13.497169
0
3DFACE
8
LBomb2
62
17.000000
10
9.789336
20
-5.835803
30
13.497169
11
9.789336
21
-5.835803
31
12.440591
12
6.121164
22
-5.835803
32
12.440591
13
6.121164
23
-5.835803
33
13.497169
0
3DFACE
8
LBomb2
62
17.000000
10
6.121164
20
-5.835803
30
13.497169
11
6.121164
21
-5.835803
31
12.440591
12
4.991698
22
-4.907333
32
12.968880
13
4.991698
23
-4.907333
33
12.968880
0
3DFACE
8
LBomb2
62
17.000000
10
11.250389
20
-4.920777
30
12.968880
11
11.250389
21
-4.920777
31
12.968880
12
9.789336
22
-5.835803
32
13.497169
13
9.789336
23
-4.920777
33
14.025461
0
3DFACE
8
LBomb2
62
17.000000
10
9.789336
20
-4.920777
30
14.025461
11
9.789336
21
-5.835803
31
13.497169
12
6.121164
22
-5.835803
32
13.497169
13
6.121164
23
-4.920777
33
14.025461
0
3DFACE
8
LBomb2
62
17.000000
10
6.121164
20
-4.920777
30
14.025461
11
6.121164
21
-5.835803
31
13.497169
12
4.991698
22
-4.907333
32
12.968880
13
4.991698
23
-4.907333
33
12.968880
0
3DFACE
8
LBomb1
62
18.000000
10
17.750389
20
-4.920777
30
12.968880
11
17.750389
21
-4.920777
31
12.968880
12
16.289337
22
-4.920777
32
14.025461
13
16.289337
23
-4.005752
33
13.497169
0
3DFACE
8
LBomb1
62
18.000000
10
16.289337
20
-4.005752
30
13.497169
11
16.289337
21
-4.920777
31
14.025461
12
12.621163
22
-4.920777
32
14.025461
13
12.621163
23
-4.005752
33
13.497169
0
3DFACE
8
LBomb1
62
18.000000
10
12.621163
20
-4.005752
30
13.497169
11
12.621163
21
-4.920777
31
14.025461
12
11.491697
22
-4.907333
32
12.968880
13
11.491697
23
-4.907333
33
12.968880
0
3DFACE
8
LBomb1
62
18.000000
10
17.750389
20
-4.920777
30
12.968880
11
17.750389
21
-4.920777
31
12.968880
12
16.289337
22
-4.005752
32
13.497169
13
16.289337
23
-4.005752
33
12.440591
0
3DFACE
8
LBomb1
62
18.000000
10
16.289337
20
-4.005752
30
12.440591
11
16.289337
21
-4.005752
31
13.497169
12
12.621163
22
-4.005752
32
13.497169
13
12.621163
23
-4.005752
33
12.440591
0
3DFACE
8
LBomb1
62
18.000000
10
12.621163
20
-4.005752
30
12.440591
11
12.621163
21
-4.005752
31
13.497169
12
11.491697
22
-4.907333
32
12.968880
13
11.491697
23
-4.907333
33
12.968880
0
3DFACE
8
LBomb1
62
18.000000
10
17.750389
20
-4.920777
30
12.968880
11
17.750389
21
-4.920777
31
12.968880
12
16.289337
22
-4.005752
32
12.440591
13
16.289337
23
-4.920778
33
11.912299
0
3DFACE
8
LBomb1
62
18.000000
10
16.289337
20
-4.920778
30
11.912299
11
16.289337
21
-4.005752
31
12.440591
12
12.621163
22
-4.005752
32
12.440591
13
12.621163
23
-4.920778
33
11.912299
0
3DFACE
8
LBomb1
62
18.000000
10
12.621163
20
-4.920778
30
11.912299
11
12.621163
21
-4.005752
31
12.440591
12
11.491697
22
-4.907333
32
12.968880
13
11.491697
23
-4.907333
33
12.968880
0
3DFACE
8
LBomb1
62
18.000000
10
17.750389
20
-4.920777
30
12.968880
11
17.750389
21
-4.920777
31
12.968880
12
16.289337
22
-4.920778
32
11.912299
13
16.289337
23
-5.835803
33
12.440591
0
3DFACE
8
LBomb1
62
18.000000
10
16.289337
20
-5.835803
30
12.440591
11
16.289337
21
-4.920778
31
11.912299
12
12.621163
22
-4.920778
32
11.912299
13
12.621163
23
-5.835803
33
12.440591
0
3DFACE
8
LBomb1
62
18.000000
10
12.621163
20
-5.835803
30
12.440591
11
12.621163
21
-4.920778
31
11.912299
12
11.491697
22
-4.907333
32
12.968880
13
11.491697
23
-4.907333
33
12.968880
0
3DFACE
8
LBomb1
62
18.000000
10
17.750389
20
-4.920777
30
12.968880
11
17.750389
21
-4.920777
31
12.968880
12
16.289337
22
-5.835803
32
12.440591
13
16.289337
23
-5.835803
33
13.497169
0
3DFACE
8
LBomb1
62
18.000000
10
16.289337
20
-5.835803
30
13.497169
11
16.289337
21
-5.835803
31
12.440591
12
12.621163
22
-5.835803
32
12.440591
13
12.621163
23
-5.835803
33
13.497169
0
3DFACE
8
LBomb1
62
18.000000
10
12.621163
20
-5.835803
30
13.497169
11
12.621163
21
-5.835803
31
12.440591
12
11.491697
22
-4.907333
32
12.968880
13
11.491697
23
-4.907333
33
12.968880
0
3DFACE
8
LBomb1
62
18.000000
10
17.750389
20
-4.920777
30
12.968880
11
17.750389
21
-4.920777
31
12.968880
12
16.289337
22
-5.835803
32
13.497169
13
16.289337
23
-4.920777
33
14.025461
0
3DFACE
8
LBomb1
62
18.000000
10
16.289337
20
-4.920777
30
14.025461
11
16.289337
21
-5.835803
31
13.497169
12
12.621163
22
-5.835803
32
13.497169
13
12.621163
23
-4.920777
33
14.025461
0
3DFACE
8
LBomb1
62
18.000000
10
12.621163
20
-4.920777
30
14.025461
11
12.621163
21
-5.835803
31
13.497169
12
11.491697
22
-4.907333
32
12.968880
13
11.491697
23
-4.907333
33
12.968880
0
3DFACE
8
HBomb2A4
62
19.000000
10
8.573437
20
-0.991192
30
11.655283
11
5.833436
21
-0.391192
31
11.655283
12
6.133437
22
-1.811192
32
11.655283
13
6.133437
23
-1.811192
33
11.655283
0
3DFACE
8
HBomb2A1
62
20.000000
10
8.573437
20
-2.321192
30
10.285282
11
5.833436
21
-2.321192
31
9.685283
12
6.133437
22
-2.321192
32
11.105283
13
6.133437
23
-2.321192
33
11.105283
0
3DFACE
8
HBomb2A2
62
21.000000
10
8.573437
20
-3.851192
30
11.655283
11
5.833436
21
-4.451192
31
11.655283
12
6.133437
22
-3.031192
32
11.655283
13
6.133437
23
-3.031192
33
11.655283
0
3DFACE
8
HBomb2A3
62
22.000000
10
8.573437
20
-2.321192
30
12.965282
11
5.833436
21
-2.321192
31
13.565283
12
6.133437
22
-2.321192
32
12.145282
13
6.133437
23
-2.321192
33
12.145282
0
3DFACE
8
HBomb2
62
23.000000
10
21.281002
20
-2.417687
30
11.655283
11
21.281002
21
-2.417687
31
11.655283
12
18.908567
22
-2.417687
32
12.968788
13
18.908567
23
-1.488898
33
12.584071
0
3DFACE
8
HBomb2
62
23.000000
10
18.908567
20
-1.488898
30
12.584071
11
18.908567
21
-2.417687
31
12.968788
12
13.181002
22
-2.417687
32
13.512860
13
13.181002
23
-1.104181
33
12.968788
0
3DFACE
8
HBomb2
62
23.000000
10
13.181002
20
-1.104181
30
12.968788
11
13.181002
21
-2.417687
31
13.512860
12
7.453436
22
-2.417687
32
12.968788
13
7.453436
23
-1.488898
33
12.584071
0
3DFACE
8
HBomb2
62
23.000000
10
7.453436
20
-1.488898
30
12.584071
11
7.453436
21
-2.417687
31
12.968788
12
5.081002
22
-2.417687
32
11.655283
13
5.081002
23
-2.417687
33
11.655283
0
3DFACE
8
HBomb2
62
23.000000
10
21.281002
20
-2.417687
30
11.655283
11
21.281002
21
-2.417687
31
11.655283
12
18.908567
22
-1.488898
32
12.584071
13
18.908567
23
-1.104182
33
11.655283
0
3DFACE
8
HBomb2
62
23.000000
10
18.908567
20
-1.104182
30
11.655283
11
18.908567
21
-1.488898
31
12.584071
12
13.181002
22
-1.104181
32
12.968788
13
13.181002
23
-0.560110
33
11.655283
0
3DFACE
8
HBomb2
62
23.000000
10
13.181002
20
-0.560110
30
11.655283
11
13.181002
21
-1.104181
31
12.968788
12
7.453436
22
-1.488898
32
12.584071
13
7.453436
23
-1.104182
33
11.655283
0
3DFACE
8
HBomb2
62
23.000000
10
7.453436
20
-1.104182
30
11.655283
11
7.453436
21
-1.488898
31
12.584071
12
5.081002
22
-2.417687
32
11.655283
13
5.081002
23
-2.417687
33
11.655283
0
3DFACE
8
HBomb2
62
23.000000
10
21.281002
20
-2.417687
30
11.655283
11
21.281002
21
-2.417687
31
11.655283
12
18.908567
22
-1.104182
32
11.655283
13
18.908567
23
-1.488899
33
10.726495
0
3DFACE
8
HBomb2
62
23.000000
10
18.908567
20
-1.488899
30
10.726495
11
18.908567
21
-1.104182
31
11.655283
12
13.181002
22
-0.560110
32
11.655283
13
13.181002
23
-1.104181
33
10.341777
0
3DFACE
8
HBomb2
62
23.000000
10
13.181002
20
-1.104181
30
10.341777
11
13.181002
21
-0.560110
31
11.655283
12
7.453436
22
-1.104182
32
11.655283
13
7.453437
23
-1.488899
33
10.726494
0
3DFACE
8
HBomb2
62
23.000000
10
7.453437
20
-1.488899
30
10.726494
11
7.453436
21
-1.104182
31
11.655283
12
5.081002
22
-2.417687
32
11.655283
13
5.081002
23
-2.417687
33
11.655283
0
3DFACE
8
HBomb2
62
23.000000
10
21.281002
20
-2.417687
30
11.655283
11
21.281002
21
-2.417687
31
11.655283
12
18.908567
22
-1.488899
32
10.726495
13
18.908567
23
-2.417687
33
10.341778
0
3DFACE
8
HBomb2
62
23.000000
10
18.908567
20
-2.417687
30
10.341778
11
18.908567
21
-1.488899
31
10.726495
12
13.181002
22
-1.104181
32
10.341777
13
13.181002
23
-2.417687
33
9.797705
0
3DFACE
8
HBomb2
62
23.000000
10
13.181002
20
-2.417687
30
9.797705
11
13.181002
21
-1.104181
31
10.341777
12
7.453437
22
-1.488899
32
10.726494
13
7.453437
23
-2.417687
33
10.341778
0
3DFACE
8
HBomb2
62
23.000000
10
7.453437
20
-2.417687
30
10.341778
11
7.453437
21
-1.488899
31
10.726494
12
5.081002
22
-2.417687
32
11.655283
13
5.081002
23
-2.417687
33
11.655283
0
3DFACE
8
HBomb2
62
23.000000
10
21.281002
20
-2.417687
30
11.655283
11
21.281002
21
-2.417687
31
11.655283
12
18.908567
22
-2.417687
32
10.341778
13
18.908567
23
-3.346476
33
10.726495
0
3DFACE
8
HBomb2
62
23.000000
10
18.908567
20
-3.346476
30
10.726495
11
18.908567
21
-2.417687
31
10.341778
12
13.181002
22
-2.417687
32
9.797705
13
13.181002
23
-3.731193
33
10.341777
0
3DFACE
8
HBomb2
62
23.000000
10
13.181002
20
-3.731193
30
10.341777
11
13.181002
21
-2.417687
31
9.797705
12
7.453437
22
-2.417687
32
10.341778
13
7.453437
23
-3.346476
33
10.726494
0
3DFACE
8
HBomb2
62
23.000000
10
7.453437
20
-3.346476
30
10.726494
11
7.453437
21
-2.417687
31
10.341778
12
5.081002
22
-2.417687
32
11.655283
13
5.081002
23
-2.417687
33
11.655283
0
3DFACE
8
HBomb2
62
23.000000
10
21.281002
20
-2.417687
30
11.655283
11
21.281002
21
-2.417687
31
11.655283
12
18.908567
22
-3.346476
32
10.726495
13
18.908567
23
-3.731192
33
11.655283
0
3DFACE
8
HBomb2
62
23.000000
10
18.908567
20
-3.731192
30
11.655283
11
18.908567
21
-3.346476
31
10.726495
12
13.181002
22
-3.731193
32
10.341777
13
13.181002
23
-4.275265
33
11.655283
0
3DFACE
8
HBomb2
62
23.000000
10
13.181002
20
-4.275265
30
11.655283
11
13.181002
21
-3.731193
31
10.341777
12
7.453437
22
-3.346476
32
10.726494
13
7.453436
23
-3.731192
33
11.655283
0
3DFACE
8
HBomb2
62
23.000000
10
7.453436
20
-3.731192
30
11.655283
11
7.453437
21
-3.346476
31
10.726494
12
5.081002
22
-2.417687
32
11.655283
13
5.081002
23
-2.417687
33
11.655283
0
3DFACE
8
HBomb2
62
23.000000
10
21.281002
20
-2.417687
30
11.655283
11
21.281002
21
-2.417687
31
11.655283
12
18.908567
22
-3.731192
32
11.655283
13
18.908567
23
-3.346476
33
12.584071
0
3DFACE
8
HBomb2
62
23.000000
10
18.908567
20
-3.346476
30
12.584071
11
18.908567
21
-3.731192
31
11.655283
12
13.181002
22
-4.275265
32
11.655283
13
13.181002
23
-3.731193
33
12.968788
0
3DFACE
8
HBomb2
62
23.000000
10
13.181002
20
-3.731193
30
12.968788
11
13.181002
21
-4.275265
31
11.655283
12
7.453436
22
-3.731192
32
11.655283
13
7.453436
23
-3.346476
33
12.584071
0
3DFACE
8
HBomb2
62
23.000000
10
7.453436
20
-3.346476
30
12.584071
11
7.453436
21
-3.731192
31
11.655283
12
5.081002
22
-2.417687
32
11.655283
13
5.081002
23
-2.417687
33
11.655283
0
3DFACE
8
HBomb2
62
23.000000
10
21.281002
20
-2.417687
30
11.655283
11
21.281002
21
-2.417687
31
11.655283
12
18.908567
22
-3.346476
32
12.584071
13
18.908567
23
-2.417687
33
12.968788
0
3DFACE
8
HBomb2
62
23.000000
10
18.908567
20
-2.417687
30
12.968788
11
18.908567
21
-3.346476
31
12.584071
12
13.181002
22
-3.731193
32
12.968788
13
13.181002
23
-2.417687
33
13.512860
0
3DFACE
8
HBomb2
62
23.000000
10
13.181002
20
-2.417687
30
13.512860
11
13.181002
21
-3.731193
31
12.968788
12
7.453436
22
-3.346476
32
12.584071
13
7.453436
23
-2.417687
33
12.968788
0
3DFACE
8
HBomb2
62
23.000000
10
7.453436
20
-2.417687
30
12.968788
11
7.453436
21
-3.346476
31
12.584071
12
5.081002
22
-2.417687
32
11.655283
13
5.081002
23
-2.417687
33
11.655283
0
3DFACE
8
HBomb3A4
62
24.000000
10
-7.866563
20
-0.991192
30
11.655283
11
-10.606564
21
-0.391192
31
11.655283
12
-10.306563
22
-1.811192
32
11.655283
13
-10.306563
23
-1.811192
33
11.655283
0
3DFACE
8
HBomb3A1
62
25.000000
10
-7.866563
20
-2.321192
30
10.285282
11
-10.606564
21
-2.321192
31
9.685283
12
-10.306563
22
-2.321192
32
11.105283
13
-10.306563
23
-2.321192
33
11.105283
0
3DFACE
8
HBomb3A2
62
26.000000
10
-7.866563
20
-3.851192
30
11.655283
11
-10.606564
21
-4.451192
31
11.655283
12
-10.306563
22
-3.031192
32
11.655283
13
-10.306563
23
-3.031192
33
11.655283
0
3DFACE
8
HBomb3A3
62
27.000000
10
-7.866563
20
-2.321192
30
12.965282
11
-10.606564
21
-2.321192
31
13.565283
12
-10.306563
22
-2.321192
32
12.145282
13
-10.306563
23
-2.321192
33
12.145282
0
3DFACE
8
HBomb3
62
28.000000
10
4.841001
20
-2.417687
30
11.655283
11
4.841001
21
-2.417687
31
11.655283
12
2.468566
22
-2.417687
32
12.968788
13
2.468566
23
-1.488898
33
12.584071
0
3DFACE
8
HBomb3
62
28.000000
10
2.468566
20
-1.488898
30
12.584071
11
2.468566
21
-2.417687
31
12.968788
12
-3.258999
22
-2.417687
32
13.512860
13
-3.258999
23
-1.104181
33
12.968788
0
3DFACE
8
HBomb3
62
28.000000
10
-3.258999
20
-1.104181
30
12.968788
11
-3.258999
21
-2.417687
31
13.512860
12
-8.986564
22
-2.417687
32
12.968788
13
-8.986564
23
-1.488898
33
12.584071
0
3DFACE
8
HBomb3
62
28.000000
10
-8.986564
20
-1.488898
30
12.584071
11
-8.986564
21
-2.417687
31
12.968788
12
-11.358998
22
-2.417687
32
11.655283
13
-11.358998
23
-2.417687
33
11.655283
0
3DFACE
8
HBomb3
62
28.000000
10
4.841001
20
-2.417687
30
11.655283
11
4.841001
21
-2.417687
31
11.655283
12
2.468566
22
-1.488898
32
12.584071
13
2.468566
23
-1.104182
33
11.655283
0
3DFACE
8
HBomb3
62
28.000000
10
2.468566
20
-1.104182
30
11.655283
11
2.468566
21
-1.488898
31
12.584071
12
-3.258999
22
-1.104181
32
12.968788
13
-3.258999
23
-0.560110
33
11.655283
0
3DFACE
8
HBomb3
62
28.000000
10
-3.258999
20
-0.560110
30
11.655283
11
-3.258999
21
-1.104181
31
12.968788
12
-8.986564
22
-1.488898
32
12.584071
13
-8.986564
23
-1.104182
33
11.655283
0
3DFACE
8
HBomb3
62
28.000000
10
-8.986564
20
-1.104182
30
11.655283
11
-8.986564
21
-1.488898
31
12.584071
12
-11.358998
22
-2.417687
32
11.655283
13
-11.358998
23
-2.417687
33
11.655283
0
3DFACE
8
HBomb3
62
28.000000
10
4.841001
20
-2.417687
30
11.655283
11
4.841001
21
-2.417687
31
11.655283
12
2.468566
22
-1.104182
32
11.655283
13
2.468566
23
-1.488899
33
10.726495
0
3DFACE
8
HBomb3
62
28.000000
10
2.468566
20
-1.488899
30
10.726495
11
2.468566
21
-1.104182
31
11.655283
12
-3.258999
22
-0.560110
32
11.655283
13
-3.258999
23
-1.104181
33
10.341777
0
3DFACE
8
HBomb3
62
28.000000
10
-3.258999
20
-1.104181
30
10.341777
11
-3.258999
21
-0.560110
31
11.655283
12
-8.986564
22
-1.104182
32
11.655283
13
-8.986563
23
-1.488899
33
10.726494
0
3DFACE
8
HBomb3
62
28.000000
10
-8.986563
20
-1.488899
30
10.726494
11
-8.986564
21
-1.104182
31
11.655283
12
-11.358998
22
-2.417687
32
11.655283
13
-11.358998
23
-2.417687
33
11.655283
0
3DFACE
8
HBomb3
62
28.000000
10
4.841001
20
-2.417687
30
11.655283
11
4.841001
21
-2.417687
31
11.655283
12
2.468566
22
-1.488899
32
10.726495
13
2.468566
23
-2.417687
33
10.341778
0
3DFACE
8
HBomb3
62
28.000000
10
2.468566
20
-2.417687
30
10.341778
11
2.468566
21
-1.488899
31
10.726495
12
-3.258999
22
-1.104181
32
10.341777
13
-3.258999
23
-2.417687
33
9.797705
0
3DFACE
8
HBomb3
62
28.000000
10
-3.258999
20
-2.417687
30
9.797705
11
-3.258999
21
-1.104181
31
10.341777
12
-8.986563
22
-1.488899
32
10.726494
13
-8.986563
23
-2.417687
33
10.341778
0
3DFACE
8
HBomb3
62
28.000000
10
-8.986563
20
-2.417687
30
10.341778
11
-8.986563
21
-1.488899
31
10.726494
12
-11.358998
22
-2.417687
32
11.655283
13
-11.358998
23
-2.417687
33
11.655283
0
3DFACE
8
HBomb3
62
28.000000
10
4.841001
20
-2.417687
30
11.655283
11
4.841001
21
-2.417687
31
11.655283
12
2.468566
22
-2.417687
32
10.341778
13
2.468566
23
-3.346476
33
10.726495
0
3DFACE
8
HBomb3
62
28.000000
10
2.468566
20
-3.346476
30
10.726495
11
2.468566
21
-2.417687
31
10.341778
12
-3.258999
22
-2.417687
32
9.797705
13
-3.258999
23
-3.731193
33
10.341777
0
3DFACE
8
HBomb3
62
28.000000
10
-3.258999
20
-3.731193
30
10.341777
11
-3.258999
21
-2.417687
31
9.797705
12
-8.986563
22
-2.417687
32
10.341778
13
-8.986563
23
-3.346476
33
10.726494
0
3DFACE
8
HBomb3
62
28.000000
10
-8.986563
20
-3.346476
30
10.726494
11
-8.986563
21
-2.417687
31
10.341778
12
-11.358998
22
-2.417687
32
11.655283
13
-11.358998
23
-2.417687
33
11.655283
0
3DFACE
8
HBomb3
62
28.000000
10
4.841001
20
-2.417687
30
11.655283
11
4.841001
21
-2.417687
31
11.655283
12
2.468566
22
-3.346476
32
10.726495
13
2.468566
23
-3.731192
33
11.655283
0
3DFACE
8
HBomb3
62
28.000000
10
2.468566
20
-3.731192
30
11.655283
11
2.468566
21
-3.346476
31
10.726495
12
-3.258999
22
-3.731193
32
10.341777
13
-3.258999
23
-4.275265
33
11.655283
0
3DFACE
8
HBomb3
62
28.000000
10
-3.258999
20
-4.275265
30
11.655283
11
-3.258999
21
-3.731193
31
10.341777
12
-8.986563
22
-3.346476
32
10.726494
13
-8.986564
23
-3.731192
33
11.655283
0
3DFACE
8
HBomb3
62
28.000000
10
-8.986564
20
-3.731192
30
11.655283
11
-8.986563
21
-3.346476
31
10.726494
12
-11.358998
22
-2.417687
32
11.655283
13
-11.358998
23
-2.417687
33
11.655283
0
3DFACE
8
HBomb3
62
28.000000
10
4.841001
20
-2.417687
30
11.655283
11
4.841001
21
-2.417687
31
11.655283
12
2.468566
22
-3.731192
32
11.655283
13
2.468566
23
-3.346476
33
12.584071
0
3DFACE
8
HBomb3
62
28.000000
10
2.468566
20
-3.346476
30
12.584071
11
2.468566
21
-3.731192
31
11.655283
12
-3.258999
22
-4.275265
32
11.655283
13
-3.258999
23
-3.731193
33
12.968788
0
3DFACE
8
HBomb3
62
28.000000
10
-3.258999
20
-3.731193
30
12.968788
11
-3.258999
21
-4.275265
31
11.655283
12
-8.986564
22
-3.731192
32
11.655283
13
-8.986564
23
-3.346476
33
12.584071
0
3DFACE
8
HBomb3
62
28.000000
10
-8.986564
20
-3.346476
30
12.584071
11
-8.986564
21
-3.731192
31
11.655283
12
-11.358998
22
-2.417687
32
11.655283
13
-11.358998
23
-2.417687
33
11.655283
0
3DFACE
8
HBomb3
62
28.000000
10
4.841001
20
-2.417687
30
11.655283
11
4.841001
21
-2.417687
31
11.655283
12
2.468566
22
-3.346476
32
12.584071
13
2.468566
23
-2.417687
33
12.968788
0
3DFACE
8
HBomb3
62
28.000000
10
2.468566
20
-2.417687
30
12.968788
11
2.468566
21
-3.346476
31
12.584071
12
-3.258999
22
-3.731193
32
12.968788
13
-3.258999
23
-2.417687
33
13.512860
0
3DFACE
8
HBomb3
62
28.000000
10
-3.258999
20
-2.417687
30
13.512860
11
-3.258999
21
-3.731193
31
12.968788
12
-8.986564
22
-3.346476
32
12.584071
13
-8.986564
23
-2.417687
33
12.968788
0
3DFACE
8
HBomb3
62
28.000000
10
-8.986564
20
-2.417687
30
12.968788
11
-8.986564
21
-3.346476
31
12.584071
12
-11.358998
22
-2.417687
32
11.655283
13
-11.358998
23
-2.417687
33
11.655283
0
3DFACE
8
HBomb4A4
62
29.000000
10
-7.866563
20
3.428808
30
11.655283
11
-10.606564
21
4.028808
31
11.655283
12
-10.306563
22
2.608808
32
11.655283
13
-10.306563
23
2.608808
33
11.655283
0
3DFACE
8
HBomb4A1
62
30.000000
10
-7.866563
20
2.098808
30
10.285282
11
-10.606564
21
2.098808
31
9.685283
12
-10.306563
22
2.098808
32
11.105283
13
-10.306563
23
2.098808
33
11.105283
0
3DFACE
8
HBomb4A2
62
31.000000
10
-7.866563
20
0.568808
30
11.655283
11
-10.606564
21
-0.031192
31
11.655283
12
-10.306563
22
1.388808
32
11.655283
13
-10.306563
23
1.388808
33
11.655283
0
3DFACE
8
HBomb4A3
62
32.000000
10
-7.866563
20
2.098808
30
12.965282
11
-10.606564
21
2.098808
31
13.565283
12
-10.306563
22
2.098808
32
12.145282
13
-10.306563
23
2.098808
33
12.145282
0
3DFACE
8
HBomb4
62
33.000000
10
4.841001
20
2.002313
30
11.655283
11
4.841001
21
2.002313
31
11.655283
12
2.468566
22
2.002313
32
12.968788
13
2.468566
23
2.931102
33
12.584071
0
3DFACE
8
HBomb4
62
33.000000
10
2.468566
20
2.931102
30
12.584071
11
2.468566
21
2.002313
31
12.968788
12
-3.258999
22
2.002313
32
13.512860
13
-3.258999
23
3.315819
33
12.968788
0
3DFACE
8
HBomb4
62
33.000000
10
-3.258999
20
3.315819
30
12.968788
11
-3.258999
21
2.002313
31
13.512860
12
-8.986564
22
2.002313
32
12.968788
13
-8.986564
23
2.931102
33
12.584071
0
3DFACE
8
HBomb4
62
33.000000
10
-8.986564
20
2.931102
30
12.584071
11
-8.986564
21
2.002313
31
12.968788
12
-11.358998
22
2.002313
32
11.655283
13
-11.358998
23
2.002313
33
11.655283
0
3DFACE
8
HBomb4
62
33.000000
10
4.841001
20
2.002313
30
11.655283
11
4.841001
21
2.002313
31
11.655283
12
2.468566
22
2.931102
32
12.584071
13
2.468566
23
3.315819
33
11.655283
0
3DFACE
8
HBomb4
62
33.000000
10
2.468566
20
3.315819
30
11.655283
11
2.468566
21
2.931102
31
12.584071
12
-3.258999
22
3.315819
32
12.968788
13
-3.258999
23
3.859890
33
11.655283
0
3DFACE
8
HBomb4
62
33.000000
10
-3.258999
20
3.859890
30
11.655283
11
-3.258999
21
3.315819
31
12.968788
12
-8.986564
22
2.931102
32
12.584071
13
-8.986564
23
3.315819
33
11.655283
0
3DFACE
8
HBomb4
62
33.000000
10
-8.986564
20
3.315819
30
11.655283
11
-8.986564
21
2.931102
31
12.584071
12
-11.358998
22
2.002313
32
11.655283
13
-11.358998
23
2.002313
33
11.655283
0
3DFACE
8
HBomb4
62
33.000000
10
4.841001
20
2.002313
30
11.655283
11
4.841001
21
2.002313
31
11.655283
12
2.468566
22
3.315819
32
11.655283
13
2.468566
23
2.931102
33
10.726495
0
3DFACE
8
HBomb4
62
33.000000
10
2.468566
20
2.931102
30
10.726495
11
2.468566
21
3.315819
31
11.655283
12
-3.258999
22
3.859890
32
11.655283
13
-3.258999
23
3.315819
33
10.341777
0
3DFACE
8
HBomb4
62
33.000000
10
-3.258999
20
3.315819
30
10.341777
11
-3.258999
21
3.859890
31
11.655283
12
-8.986564
22
3.315819
32
11.655283
13
-8.986563
23
2.931102
33
10.726494
0
3DFACE
8
HBomb4
62
33.000000
10
-8.986563
20
2.931102
30
10.726494
11
-8.986564
21
3.315819
31
11.655283
12
-11.358998
22
2.002313
32
11.655283
13
-11.358998
23
2.002313
33
11.655283
0
3DFACE
8
HBomb4
62
33.000000
10
4.841001
20
2.002313
30
11.655283
11
4.841001
21
2.002313
31
11.655283
12
2.468566
22
2.931102
32
10.726495
13
2.468566
23
2.002313
33
10.341778
0
3DFACE
8
HBomb4
62
33.000000
10
2.468566
20
2.002313
30
10.341778
11
2.468566
21
2.931102
31
10.726495
12
-3.258999
22
3.315819
32
10.341777
13
-3.258999
23
2.002313
33
9.797705
0
3DFACE
8
HBomb4
62
33.000000
10
-3.258999
20
2.002313
30
9.797705
11
-3.258999
21
3.315819
31
10.341777
12
-8.986563
22
2.931102
32
10.726494
13
-8.986563
23
2.002313
33
10.341778
0
3DFACE
8
HBomb4
62
33.000000
10
-8.986563
20
2.002313
30
10.341778
11
-8.986563
21
2.931102
31
10.726494
12
-11.358998
22
2.002313
32
11.655283
13
-11.358998
23
2.002313
33
11.655283
0
3DFACE
8
HBomb4
62
33.000000
10
4.841001
20
2.002313
30
11.655283
11
4.841001
21
2.002313
31
11.655283
12
2.468566
22
2.002313
32
10.341778
13
2.468566
23
1.073525
33
10.726495
0
3DFACE
8
HBomb4
62
33.000000
10
2.468566
20
1.073525
30
10.726495
11
2.468566
21
2.002313
31
10.341778
12
-3.258999
22
2.002313
32
9.797705
13
-3.258999
23
0.688807
33
10.341777
0
3DFACE
8
HBomb4
62
33.000000
10
-3.258999
20
0.688807
30
10.341777
11
-3.258999
21
2.002313
31
9.797705
12
-8.986563
22
2.002313
32
10.341778
13
-8.986563
23
1.073525
33
10.726494
0
3DFACE
8
HBomb4
62
33.000000
10
-8.986563
20
1.073525
30
10.726494
11
-8.986563
21
2.002313
31
10.341778
12
-11.358998
22
2.002313
32
11.655283
13
-11.358998
23
2.002313
33
11.655283
0
3DFACE
8
HBomb4
62
33.000000
10
4.841001
20
2.002313
30
11.655283
11
4.841001
21
2.002313
31
11.655283
12
2.468566
22
1.073525
32
10.726495
13
2.468566
23
0.688808
33
11.655283
0
3DFACE
8
HBomb4
62
33.000000
10
2.468566
20
0.688808
30
11.655283
11
2.468566
21
1.073525
31
10.726495
12
-3.258999
22
0.688807
32
10.341777
13
-3.258999
23
0.144735
33
11.655283
0
3DFACE
8
HBomb4
62
33.000000
10
-3.258999
20
0.144735
30
11.655283
11
-3.258999
21
0.688807
31
10.341777
12
-8.986563
22
1.073525
32
10.726494
13
-8.986564
23
0.688808
33
11.655283
0
3DFACE
8
HBomb4
62
33.000000
10
-8.986564
20
0.688808
30
11.655283
11
-8.986563
21
1.073525
31
10.726494
12
-11.358998
22
2.002313
32
11.655283
13
-11.358998
23
2.002313
33
11.655283
0
3DFACE
8
HBomb4
62
33.000000
10
4.841001
20
2.002313
30
11.655283
11
4.841001
21
2.002313
31
11.655283
12
2.468566
22
0.688808
32
11.655283
13
2.468566
23
1.073524
33
12.584071
0
3DFACE
8
HBomb4
62
33.000000
10
2.468566
20
1.073524
30
12.584071
11
2.468566
21
0.688808
31
11.655283
12
-3.258999
22
0.144735
32
11.655283
13
-3.258999
23
0.688807
33
12.968788
0
3DFACE
8
HBomb4
62
33.000000
10
-3.258999
20
0.688807
30
12.968788
11
-3.258999
21
0.144735
31
11.655283
12
-8.986564
22
0.688808
32
11.655283
13
-8.986564
23
1.073524
33
12.584071
0
3DFACE
8
HBomb4
62
33.000000
10
-8.986564
20
1.073524
30
12.584071
11
-8.986564
21
0.688808
31
11.655283
12
-11.358998
22
2.002313
32
11.655283
13
-11.358998
23
2.002313
33
11.655283
0
3DFACE
8
HBomb4
62
33.000000
10
4.841001
20
2.002313
30
11.655283
11
4.841001
21
2.002313
31
11.655283
12
2.468566
22
1.073524
32
12.584071
13
2.468566
23
2.002313
33
12.968788
0
3DFACE
8
HBomb4
62
33.000000
10
2.468566
20
2.002313
30
12.968788
11
2.468566
21
1.073524
31
12.584071
12
-3.258999
22
0.688807
32
12.968788
13
-3.258999
23
2.002313
33
13.512860
0
3DFACE
8
HBomb4
62
33.000000
10
-3.258999
20
2.002313
30
13.512860
11
-3.258999
21
0.688807
31
12.968788
12
-8.986564
22
1.073524
32
12.584071
13
-8.986564
23
2.002313
33
12.968788
0
3DFACE
8
HBomb4
62
33.000000
10
-8.986564
20
2.002313
30
12.968788
11
-8.986564
21
1.073524
31
12.584071
12
-11.358998
22
2.002313
32
11.655283
13
-11.358998
23
2.002313
33
11.655283
0
3DFACE
8
HBomb1A4
62
34.000000
10
8.573437
20
3.428808
30
11.655283
11
5.833436
21
4.028808
31
11.655283
12
6.133437
22
2.608808
32
11.655283
13
6.133437
23
2.608808
33
11.655283
0
3DFACE
8
HBomb1A1
62
35.000000
10
8.573437
20
2.098808
30
10.285282
11
5.833436
21
2.098808
31
9.685283
12
6.133437
22
2.098808
32
11.105283
13
6.133437
23
2.098808
33
11.105283
0
3DFACE
8
HBomb1A2
62
36.000000
10
8.573437
20
0.568808
30
11.655283
11
5.833436
21
-0.031192
31
11.655283
12
6.133437
22
1.388808
32
11.655283
13
6.133437
23
1.388808
33
11.655283
0
3DFACE
8
HBomb1A3
62
37.000000
10
8.573437
20
2.098808
30
12.965282
11
5.833436
21
2.098808
31
13.565283
12
6.133437
22
2.098808
32
12.145282
13
6.133437
23
2.098808
33
12.145282
0
3DFACE
8
HBomb1
62
38.000000
10
21.281002
20
2.002313
30
11.655283
11
21.281002
21
2.002313
31
11.655283
12
18.908567
22
2.002313
32
12.968788
13
18.908567
23
2.931102
33
12.584071
0
3DFACE
8
HBomb1
62
38.000000
10
18.908567
20
2.931102
30
12.584071
11
18.908567
21
2.002313
31
12.968788
12
13.181002
22
2.002313
32
13.512860
13
13.181002
23
3.315819
33
12.968788
0
3DFACE
8
HBomb1
62
38.000000
10
13.181002
20
3.315819
30
12.968788
11
13.181002
21
2.002313
31
13.512860
12
7.453436
22
2.002313
32
12.968788
13
7.453436
23
2.931102
33
12.584071
0
3DFACE
8
HBomb1
62
38.000000
10
7.453436
20
2.931102
30
12.584071
11
7.453436
21
2.002313
31
12.968788
12
5.081002
22
2.002313
32
11.655283
13
5.081002
23
2.002313
33
11.655283
0
3DFACE
8
HBomb1
62
38.000000
10
21.281002
20
2.002313
30
11.655283
11
21.281002
21
2.002313
31
11.655283
12
18.908567
22
2.931102
32
12.584071
13
18.908567
23
3.315819
33
11.655283
0
3DFACE
8
HBomb1
62
38.000000
10
18.908567
20
3.315819
30
11.655283
11
18.908567
21
2.931102
31
12.584071
12
13.181002
22
3.315819
32
12.968788
13
13.181002
23
3.859890
33
11.655283
0
3DFACE
8
HBomb1
62
38.000000
10
13.181002
20
3.859890
30
11.655283
11
13.181002
21
3.315819
31
12.968788
12
7.453436
22
2.931102
32
12.584071
13
7.453436
23
3.315819
33
11.655283
0
3DFACE
8
HBomb1
62
38.000000
10
7.453436
20
3.315819
30
11.655283
11
7.453436
21
2.931102
31
12.584071
12
5.081002
22
2.002313
32
11.655283
13
5.081002
23
2.002313
33
11.655283
0
3DFACE
8
HBomb1
62
38.000000
10
21.281002
20
2.002313
30
11.655283
11
21.281002
21
2.002313
31
11.655283
12
18.908567
22
3.315819
32
11.655283
13
18.908567
23
2.931102
33
10.726495
0
3DFACE
8
HBomb1
62
38.000000
10
18.908567
20
2.931102
30
10.726495
11
18.908567
21
3.315819
31
11.655283
12
13.181002
22
3.859890
32
11.655283
13
13.181002
23
3.315819
33
10.341777
0
3DFACE
8
HBomb1
62
38.000000
10
13.181002
20
3.315819
30
10.341777
11
13.181002
21
3.859890
31
11.655283
12
7.453436
22
3.315819
32
11.655283
13
7.453437
23
2.931102
33
10.726494
0
3DFACE
8
HBomb1
62
38.000000
10
7.453437
20
2.931102
30
10.726494
11
7.453436
21
3.315819
31
11.655283
12
5.081002
22
2.002313
32
11.655283
13
5.081002
23
2.002313
33
11.655283
0
3DFACE
8
HBomb1
62
38.000000
10
21.281002
20
2.002313
30
11.655283
11
21.281002
21
2.002313
31
11.655283
12
18.908567
22
2.931102
32
10.726495
13
18.908567
23
2.002313
33
10.341778
0
3DFACE
8
HBomb1
62
38.000000
10
18.908567
20
2.002313
30
10.341778
11
18.908567
21
2.931102
31
10.726495
12
13.181002
22
3.315819
32
10.341777
13
13.181002
23
2.002313
33
9.797705
0
3DFACE
8
HBomb1
62
38.000000
10
13.181002
20
2.002313
30
9.797705
11
13.181002
21
3.315819
31
10.341777
12
7.453437
22
2.931102
32
10.726494
13
7.453437
23
2.002313
33
10.341778
0
3DFACE
8
HBomb1
62
38.000000
10
7.453437
20
2.002313
30
10.341778
11
7.453437
21
2.931102
31
10.726494
12
5.081002
22
2.002313
32
11.655283
13
5.081002
23
2.002313
33
11.655283
0
3DFACE
8
HBomb1
62
38.000000
10
21.281002
20
2.002313
30
11.655283
11
21.281002
21
2.002313
31
11.655283
12
18.908567
22
2.002313
32
10.341778
13
18.908567
23
1.073525
33
10.726495
0
3DFACE
8
HBomb1
62
38.000000
10
18.908567
20
1.073525
30
10.726495
11
18.908567
21
2.002313
31
10.341778
12
13.181002
22
2.002313
32
9.797705
13
13.181002
23
0.688807
33
10.341777
0
3DFACE
8
HBomb1
62
38.000000
10
13.181002
20
0.688807
30
10.341777
11
13.181002
21
2.002313
31
9.797705
12
7.453437
22
2.002313
32
10.341778
13
7.453437
23
1.073525
33
10.726494
0
3DFACE
8
HBomb1
62
38.000000
10
7.453437
20
1.073525
30
10.726494
11
7.453437
21
2.002313
31
10.341778
12
5.081002
22
2.002313
32
11.655283
13
5.081002
23
2.002313
33
11.655283
0
3DFACE
8
HBomb1
62
38.000000
10
21.281002
20
2.002313
30
11.655283
11
21.281002
21
2.002313
31
11.655283
12
18.908567
22
1.073525
32
10.726495
13
18.908567
23
0.688808
33
11.655283
0
3DFACE
8
HBomb1
62
38.000000
10
18.908567
20
0.688808
30
11.655283
11
18.908567
21
1.073525
31
10.726495
12
13.181002
22
0.688807
32
10.341777
13
13.181002
23
0.144735
33
11.655283
0
3DFACE
8
HBomb1
62
38.000000
10
13.181002
20
0.144735
30
11.655283
11
13.181002
21
0.688807
31
10.341777
12
7.453437
22
1.073525
32
10.726494
13
7.453436
23
0.688808
33
11.655283
0
3DFACE
8
HBomb1
62
38.000000
10
7.453436
20
0.688808
30
11.655283
11
7.453437
21
1.073525
31
10.726494
12
5.081002
22
2.002313
32
11.655283
13
5.081002
23
2.002313
33
11.655283
0
3DFACE
8
HBomb1
62
38.000000
10
21.281002
20
2.002313
30
11.655283
11
21.281002
21
2.002313
31
11.655283
12
18.908567
22
0.688808
32
11.655283
13
18.908567
23
1.073524
33
12.584071
0
3DFACE
8
HBomb1
62
38.000000
10
18.908567
20
1.073524
30
12.584071
11
18.908567
21
0.688808
31
11.655283
12
13.181002
22
0.144735
32
11.655283
13
13.181002
23
0.688807
33
12.968788
0
3DFACE
8
HBomb1
62
38.000000
10
13.181002
20
0.688807
30
12.968788
11
13.181002
21
0.144735
31
11.655283
12
7.453436
22
0.688808
32
11.655283
13
7.453436
23
1.073524
33
12.584071
0
3DFACE
8
HBomb1
62
38.000000
10
7.453436
20
1.073524
30
12.584071
11
7.453436
21
0.688808
31
11.655283
12
5.081002
22
2.002313
32
11.655283
13
5.081002
23
2.002313
33
11.655283
0
3DFACE
8
HBomb1
62
38.000000
10
21.281002
20
2.002313
30
11.655283
11
21.281002
21
2.002313
31
11.655283
12
18.908567
22
1.073524
32
12.584071
13
18.908567
23
2.002313
33
12.968788
0
3DFACE
8
HBomb1
62
38.000000
10
18.908567
20
2.002313
30
12.968788
11
18.908567
21
1.073524
31
12.584071
12
13.181002
22
0.688807
32
12.968788
13
13.181002
23
2.002313
33
13.512860
0
3DFACE
8
HBomb1
62
38.000000
10
13.181002
20
2.002313
30
13.512860
11
13.181002
21
0.688807
31
12.968788
12
7.453436
22
1.073524
32
12.584071
13
7.453436
23
2.002313
33
12.968788
0
3DFACE
8
HBomb1
62
38.000000
10
7.453436
20
2.002313
30
12.968788
11
7.453436
21
1.073524
31
12.584071
12
5.081002
22
2.002313
32
11.655283
13
5.081002
23
2.002313
33
11.655283
0
3DFACE
8
CharniereDroite
62
39.000000
10
9.230504
20
16.954597
30
16.450134
11
8.890505
21
16.954597
31
15.950133
12
9.310504
22
16.954597
32
15.950133
13
9.310504
23
16.954597
33
15.950133
0
3DFACE
8
CharniereGauche
62
40.000000
10
9.310504
20
-16.505402
30
15.950133
11
8.890505
21
-16.505402
31
15.950133
12
9.230504
22
-16.505402
32
16.450134
13
9.230504
23
-16.505402
33
16.450134
0
3DFACE
8
Pale2
62
41.000000
10
27.088846
20
-0.621095
30
19.068878
11
27.294825
21
-1.118367
31
21.345432
12
27.423155
22
-1.428190
32
23.536049
13
27.423155
23
-1.428190
33
23.536049
0
3DFACE
8
Pale2
62
41.000000
10
27.088846
20
-0.621095
30
19.068878
11
27.423155
21
-1.428190
31
23.536049
12
27.473846
22
-1.550566
32
25.640739
13
27.473846
23
-1.550566
33
25.640739
0
3DFACE
8
Pale2
62
41.000000
10
27.088846
20
-0.621095
30
19.068878
11
27.473846
21
-1.550566
31
25.640739
12
27.446890
22
-1.485488
32
27.659500
13
27.446890
23
-1.485488
33
27.659500
0
3DFACE
8
Pale2
62
41.000000
10
27.088846
20
-0.621095
30
19.068878
11
27.446890
21
-1.485488
31
27.659500
12
27.342293
22
-1.232967
32
29.592323
13
27.342293
23
-1.232967
33
29.592323
0
3DFACE
8
Pale2
62
41.000000
10
27.088846
20
-0.621095
30
19.068878
11
27.342293
21
-1.232967
31
29.592323
12
27.199873
22
-0.889137
32
31.156610
13
27.199873
23
-0.889137
33
31.156610
0
3DFACE
8
Pale2
62
41.000000
10
27.088846
20
-0.621095
30
19.068878
11
27.199873
21
-0.889137
31
31.156610
12
27.059458
22
-0.550144
32
32.069725
13
27.059458
23
-0.550144
33
32.069725
0
3DFACE
8
Pale2
62
41.000000
10
27.088846
20
-0.621095
30
19.068878
11
27.059458
21
-0.550144
31
32.069725
12
26.921043
22
-0.215984
32
32.331696
13
26.921043
23
-0.215984
33
32.331696
0
3DFACE
8
Pale2
62
41.000000
10
27.088846
20
-0.621095
30
19.068878
11
26.921043
21
-0.215984
31
32.331696
12
26.784632
22
0.113342
32
31.942507
13
26.784632
23
0.113342
33
31.942507
0
3DFACE
8
Pale2
62
41.000000
10
27.088846
20
-0.621095
30
19.068878
11
26.784632
21
0.113342
31
31.942507
12
26.650225
22
0.437832
32
30.902161
13
26.650225
23
0.437832
33
30.902161
0
3DFACE
8
Pale2
62
41.000000
10
27.088846
20
-0.621095
30
19.068878
11
26.650225
21
0.437832
31
30.902161
12
26.543777
22
0.694819
32
29.348288
13
26.543777
23
0.694819
33
29.348288
0
3DFACE
8
Pale2
62
41.000000
10
27.088846
20
-0.621095
30
19.068878
11
26.543777
21
0.694819
31
29.348288
12
26.491251
22
0.821629
32
27.418539
13
26.491251
23
0.821629
33
27.418539
0
3DFACE
8
Pale2
62
41.000000
10
27.088846
20
-0.621095
30
19.068878
11
26.491251
21
0.821629
31
27.418539
12
26.492649
22
0.818253
32
25.112896
13
26.492649
23
0.818253
33
25.112896
0
3DFACE
8
Pale2
62
41.000000
10
27.088846
20
-0.621095
30
19.068878
11
26.492649
21
0.818253
31
25.112896
12
26.547968
22
0.684701
32
22.431374
13
26.547968
23
0.684701
33
22.431374
0
3DFACE
8
Pale2
62
41.000000
10
27.088846
20
-0.621095
30
19.068878
11
26.547968
21
0.684701
31
22.431374
12
26.657206
22
0.420977
32
19.373962
13
26.657206
23
0.420977
33
19.373962
0
3DFACE
8
Pale1
62
42.000000
10
27.088846
20
-0.308079
30
16.871126
11
27.294825
21
-1.924694
31
15.192872
12
27.423155
22
-3.573998
32
13.718222
13
27.423155
23
-3.573998
33
13.718222
0
3DFACE
8
Pale1
62
42.000000
10
27.088846
20
-0.308079
30
16.871126
11
27.423155
21
-3.573998
31
13.718222
12
27.473846
22
-5.255995
32
12.447167
13
27.473846
23
-5.255995
33
12.447167
0
3DFACE
8
Pale1
62
42.000000
10
27.088846
20
-0.308079
30
16.871126
11
27.473846
21
-5.255995
31
12.447167
12
27.446890
22
-6.970688
32
11.379713
13
27.446890
23
-6.970688
33
11.379713
0
3DFACE
8
Pale1
62
42.000000
10
27.088846
20
-0.308079
30
16.871126
11
27.446890
21
-6.970688
31
11.379713
12
27.342293
22
-8.718067
32
10.515859
13
27.342293
23
-8.718067
33
10.515859
0
3DFACE
8
Pale1
62
42.000000
10
27.088846
20
-0.308079
30
16.871126
11
27.342293
21
-8.718067
31
10.515859
12
27.199873
22
-10.209744
32
9.932672
13
27.199873
23
-10.209744
33
9.932672
0
3DFACE
8
Pale1
62
42.000000
10
27.088846
20
-0.308079
30
16.871126
11
27.199873
21
-10.209744
31
9.932672
12
27.059458
22
-11.157308
32
9.707234
13
27.059458
23
-11.157308
33
9.707234
0
3DFACE
8
Pale1
62
42.000000
10
27.088846
20
-0.308079
30
16.871126
11
27.059458
21
-11.157308
31
9.707234
12
26.921043
22
-11.560777
32
9.839534
13
26.921043
23
-11.560777
33
9.839534
0
3DFACE
8
Pale1
62
42.000000
10
27.088846
20
-0.308079
30
16.871126
11
26.921043
21
-11.560777
31
9.839534
12
26.784632
22
-11.420140
32
10.329583
13
26.784632
23
-11.420140
33
10.329583
0
3DFACE
8
Pale1
62
42.000000
10
27.088846
20
-0.308079
30
16.871126
11
26.784632
21
-11.420140
31
10.329583
12
26.650225
22
-10.735402
32
11.177371
13
26.650225
23
-10.735402
33
11.177371
0
3DFACE
8
Pale1
62
42.000000
10
27.088846
20
-0.308079
30
16.871126
11
26.650225
21
-10.735402
31
11.177371
12
26.543777
22
-9.586179
32
12.254333
13
26.543777
23
-9.586179
33
12.254333
0
3DFACE
8
Pale1
62
42.000000
10
27.088846
20
-0.308079
30
16.871126
11
26.543777
21
-9.586179
31
12.254333
12
26.491251
22
-8.052102
32
13.431883
13
26.491251
23
-8.052102
33
13.431883
0
3DFACE
8
Pale1
62
42.000000
10
27.088846
20
-0.308079
30
16.871126
11
26.491251
21
-8.052102
31
13.431883
12
26.492649
22
-6.133154
32
14.710022
13
26.492649
23
-6.133154
33
14.710022
0
3DFACE
8
Pale1
62
42.000000
10
27.088846
20
-0.308079
30
16.871126
11
26.492649
21
-6.133154
31
14.710022
12
26.547968
22
-3.829352
32
16.088751
13
26.547968
23
-3.829352
33
16.088751
0
3DFACE
8
Pale1
62
42.000000
10
27.088846
20
-0.308079
30
16.871126
11
26.547968
21
-3.829352
31
16.088751
12
26.657206
22
-1.140691
32
17.568079
13
26.657206
23
-1.140691
33
17.568079
0
3DFACE
8
Pale3
62
43.000000
10
27.088846
20
1.264292
30
17.397881
11
27.294825
21
3.433445
31
16.546562
12
27.423155
22
5.427006
32
15.587126
13
27.423155
23
5.427006
33
15.587126
0
3DFACE
8
Pale3
62
43.000000
10
27.088846
20
1.264292
30
17.397881
11
27.423155
21
5.427006
31
15.587126
12
27.473846
22
7.244979
32
14.519575
13
27.473846
23
7.244979
33
14.519575
0
3DFACE
8
Pale3
62
43.000000
10
27.088846
20
1.264292
30
17.397881
11
27.473846
21
7.244979
31
14.519575
12
27.446890
22
8.887362
32
13.343903
13
27.446890
23
8.887362
33
13.343903
0
3DFACE
8
Pale3
62
43.000000
10
27.088846
20
1.264292
30
17.397881
11
27.446890
21
8.887362
31
13.343903
12
27.342293
22
10.354153
32
12.060119
13
27.342293
23
10.354153
33
12.060119
0
3DFACE
8
Pale3
62
43.000000
10
27.088846
20
1.264292
30
17.397881
11
27.342293
21
10.354153
31
12.060119
12
27.199873
22
11.463788
32
10.905164
13
27.199873
23
11.463788
33
10.905164
0
3DFACE
8
Pale3
62
43.000000
10
27.088846
20
1.264292
30
17.397881
11
27.199873
21
11.463788
31
10.905164
12
27.059458
22
12.034682
32
10.116001
13
27.059458
23
12.034682
33
10.116001
0
3DFACE
8
Pale3
62
43.000000
10
27.088846
20
1.264292
30
17.397881
11
27.059458
21
12.034682
31
10.116001
12
26.921043
22
12.066853
32
9.692614
13
26.921043
23
12.066853
33
9.692614
0
3DFACE
8
Pale3
62
43.000000
10
27.088846
20
1.264292
30
17.397881
11
26.921043
21
12.066853
31
9.692614
12
26.784632
22
11.560287
32
9.635011
13
26.784632
23
11.560287
33
9.635011
0
3DFACE
8
Pale3
62
43.000000
10
27.088846
20
1.264292
30
17.397881
11
26.784632
21
11.560287
31
9.635011
12
26.650225
22
10.514995
32
9.943193
13
26.650225
23
10.514995
33
9.943193
0
3DFACE
8
Pale3
62
43.000000
10
27.088846
20
1.264292
30
17.397881
11
26.650225
21
10.514995
31
9.943193
12
26.543777
22
9.080224
32
10.592803
13
26.543777
23
9.080224
33
10.592803
0
3DFACE
8
Pale3
62
43.000000
10
27.088846
20
1.264292
30
17.397881
11
26.543777
21
9.080224
31
10.592803
12
26.491251
22
7.405245
32
11.559475
13
26.491251
23
7.405245
33
11.559475
0
3DFACE
8
Pale3
62
43.000000
10
27.088846
20
1.264292
30
17.397881
11
26.491251
21
7.405245
31
11.559475
12
26.492649
22
5.490047
32
12.843229
13
26.492649
23
5.490047
33
12.843229
0
3DFACE
8
Pale3
62
43.000000
10
27.088846
20
1.264292
30
17.397881
11
26.492649
21
5.490047
31
12.843229
12
26.547968
22
3.334641
32
14.444049
13
26.547968
23
3.334641
33
14.444049
0
3DFACE
8
Pale3
62
43.000000
10
27.088846
20
1.264292
30
17.397881
11
26.547968
21
3.334641
31
14.444049
12
26.657206
22
0.939015
32
16.361933
13
26.657206
23
0.939015
33
16.361933
0
3DFACE
8
StabGauche
62
44.000000
10
-40.274998
20
-0.116115
30
20.645647
11
-38.656998
21
-2.488114
31
20.645647
12
-35.106998
22
-2.291114
32
20.645647
13
-35.106998
23
-2.291114
33
20.645647
0
3DFACE
8
StabGauche
62
44.000000
10
-33.529999
20
-17.082115
30
20.645647
11
-36.499004
21
-17.850115
31
20.645647
12
-35.389004
22
-19.860113
32
20.645647
13
-35.389004
23
-19.860113
33
20.645647
0
3DFACE
8
StabGauche
62
44.000000
10
-33.529999
20
-17.082115
30
20.645647
11
-35.389004
21
-19.860113
31
20.645647
12
-33.931000
22
-21.082115
32
20.645647
13
-33.931000
23
-21.082115
33
20.645647
0
3DFACE
8
StabGauche
62
44.000000
10
-33.529999
20
-17.082115
30
20.645647
11
-33.931000
21
-21.082115
31
20.645647
12
-32.125000
22
-21.516113
32
20.645647
13
-32.125000
23
-21.516113
33
20.645647
0
3DFACE
8
StabGauche
62
44.000000
10
-33.529999
20
-17.082115
30
20.645647
11
-32.125000
21
-21.516113
31
20.645647
12
-30.300999
22
-21.194113
32
20.645647
13
-30.300999
23
-21.194113
33
20.645647
0
3DFACE
8
StabGauche
62
44.000000
10
-33.529999
20
-17.082115
30
20.645647
11
-30.300999
21
-21.194113
31
20.645647
12
-28.789003
22
-20.148113
32
20.645647
13
-28.789003
23
-20.148113
33
20.645647
0
3DFACE
8
StabGauche
62
44.000000
10
-33.529999
20
-17.082115
30
20.645647
11
-28.789003
21
-20.148113
31
20.645647
12
-27.588999
22
-18.378113
32
20.645647
13
-27.588999
23
-18.378113
33
20.645647
0
3DFACE
8
StabGauche
62
44.000000
10
-33.529999
20
-17.082115
30
20.645647
11
-27.588999
21
-18.378113
31
20.645647
12
-26.125002
22
-12.666113
32
20.645647
13
-26.125002
23
-12.666113
33
20.645647
0
3DFACE
8
StabGauche
62
44.000000
10
-33.529999
20
-17.082115
30
20.645647
11
-26.125002
21
-12.666113
31
20.645647
12
-24.877001
22
-6.714113
32
20.645647
13
-24.877001
23
-6.714113
33
20.645647
0
3DFACE
8
StabGauche
62
44.000000
10
-33.529999
20
-17.082115
30
20.645647
11
-24.877001
21
-6.714113
31
20.645647
12
-23.947004
22
-4.644114
32
20.645647
13
-23.947004
23
-4.644114
33
20.645647
0
3DFACE
8
StabGauche
62
44.000000
10
-22.813000
20
-3.178112
30
20.645647
11
-21.474998
21
-2.316113
31
20.645647
12
-40.274998
22
-0.116115
32
20.645647
13
-40.274998
23
-0.116115
33
20.645647
0
3DFACE
8
StabGauche
62
44.000000
10
-22.813000
20
-3.178112
30
20.645647
11
-40.274998
21
-0.116115
31
20.645647
12
-35.106998
22
-2.291114
32
20.645647
13
-35.106998
23
-2.291114
33
20.645647
0
3DFACE
8
StabGauche
62
44.000000
10
-35.106998
20
-2.291114
30
20.645647
11
-33.529999
21
-17.082115
31
20.645647
12
-23.947004
22
-4.644114
32
20.645647
13
-23.947004
23
-4.644114
33
20.645647
0
3DFACE
8
StabGauche
62
44.000000
10
-23.947004
20
-4.644114
30
20.645647
11
-22.813000
21
-3.178112
31
20.645647
12
-35.106998
22
-2.291114
32
20.645647
13
-35.106998
23
-2.291114
33
20.645647
0
3DFACE
8
VolProfGauche
62
45.000000
10
-38.656998
20
-2.488114
30
20.645647
11
-36.499004
21
-17.850115
31
20.645647
12
-33.529999
22
-17.082115
32
20.645647
13
-35.106998
23
-2.291114
33
20.645647
0
3DFACE
8
VolProfDroite
62
46.000000
10
-38.656998
20
2.374887
30
20.596645
11
-36.499004
21
17.736887
31
20.596645
12
-33.529999
22
16.968887
32
20.596645
13
-35.106998
23
2.177887
33
20.596645
0
3DFACE
8
StabDroite
62
47.000000
10
-40.274998
20
0.002887
30
20.596645
11
-38.656998
21
2.374887
31
20.596645
12
-35.106998
22
2.177887
32
20.596645
13
-35.106998
23
2.177887
33
20.596645
0
3DFACE
8
StabDroite
62
47.000000
10
-33.529999
20
16.968887
30
20.596645
11
-36.499004
21
17.736887
31
20.596645
12
-35.389004
22
19.746885
32
20.596645
13
-35.389004
23
19.746885
33
20.596645
0
3DFACE
8
StabDroite
62
47.000000
10
-33.529999
20
16.968887
30
20.596645
11
-35.389004
21
19.746885
31
20.596645
12
-33.931000
22
20.968887
32
20.596645
13
-33.931000
23
20.968887
33
20.596645
0
3DFACE
8
StabDroite
62
47.000000
10
-33.529999
20
16.968887
30
20.596645
11
-33.931000
21
20.968887
31
20.596645
12
-32.125000
22
21.402885
32
20.596645
13
-32.125000
23
21.402885
33
20.596645
0
3DFACE
8
StabDroite
62
47.000000
10
-33.529999
20
16.968887
30
20.596645
11
-32.125000
21
21.402885
31
20.596645
12
-30.300999
22
21.080885
32
20.596645
13
-30.300999
23
21.080885
33
20.596645
0
3DFACE
8
StabDroite
62
47.000000
10
-33.529999
20
16.968887
30
20.596645
11
-30.300999
21
21.080885
31
20.596645
12
-28.789003
22
20.034885
32
20.596645
13
-28.789003
23
20.034885
33
20.596645
0
3DFACE
8
StabDroite
62
47.000000
10
-33.529999
20
16.968887
30
20.596645
11
-28.789003
21
20.034885
31
20.596645
12
-27.588999
22
18.264885
32
20.596645
13
-27.588999
23
18.264885
33
20.596645
0
3DFACE
8
StabDroite
62
47.000000
10
-33.529999
20
16.968887
30
20.596645
11
-27.588999
21
18.264885
31
20.596645
12
-26.125002
22
12.552885
32
20.596645
13
-26.125002
23
12.552885
33
20.596645
0
3DFACE
8
StabDroite
62
47.000000
10
-33.529999
20
16.968887
30
20.596645
11
-26.125002
21
12.552885
31
20.596645
12
-24.877001
22
6.600885
32
20.596645
13
-24.877001
23
6.600885
33
20.596645
0
3DFACE
8
StabDroite
62
47.000000
10
-33.529999
20
16.968887
30
20.596645
11
-24.877001
21
6.600885
31
20.596645
12
-23.947004
22
4.530885
32
20.596645
13
-23.947004
23
4.530885
33
20.596645
0
3DFACE
8
StabDroite
62
47.000000
10
-22.813000
20
3.064885
30
20.596645
11
-21.474998
21
2.202885
31
20.596645
12
-40.274998
22
0.002887
32
20.596645
13
-40.274998
23
0.002887
33
20.596645
0
3DFACE
8
StabDroite
62
47.000000
10
-22.813000
20
3.064885
30
20.596645
11
-40.274998
21
0.002887
31
20.596645
12
-35.106998
22
2.177887
32
20.596645
13
-35.106998
23
2.177887
33
20.596645
0
3DFACE
8
StabDroite
62
47.000000
10
-35.106998
20
2.177887
30
20.596645
11
-33.529999
21
16.968887
31
20.596645
12
-23.947004
22
4.530885
32
20.596645
13
-23.947004
23
4.530885
33
20.596645
0
3DFACE
8
StabDroite
62
47.000000
10
-23.947004
20
4.530885
30
20.596645
11
-22.813000
21
3.064885
31
20.596645
12
-35.106998
22
2.177887
32
20.596645
13
-35.106998
23
2.177887
33
20.596645
0
3DFACE
8
Gouvernail
62
48.000000
10
-40.551998
20
0.002887
30
22.609648
11
-40.398998
21
-0.023174
31
21.370781
12
-24.798998
22
0.002887
32
22.510647
13
-24.798998
23
0.002887
33
22.510647
0
3DFACE
8
Gouvernail
62
48.000000
10
-24.798998
20
0.002887
30
22.510647
11
-27.671001
21
0.002887
31
28.814644
12
-30.366997
22
0.002887
32
33.646648
13
-30.366997
23
0.002887
33
33.646648
0
3DFACE
8
Gouvernail
62
48.000000
10
-24.798998
20
0.002887
30
22.510647
11
-30.366997
21
0.002887
31
33.646648
12
-32.887001
22
0.002887
32
37.006649
13
-32.887001
23
0.002887
33
37.006649
0
3DFACE
8
Gouvernail
62
48.000000
10
-24.798998
20
0.002887
30
22.510647
11
-32.887001
21
0.002887
31
37.006649
12
-35.230995
22
0.002887
32
38.894646
13
-35.230995
23
0.002887
33
38.894646
0
3DFACE
8
Gouvernail
62
48.000000
10
-24.798998
20
0.002887
30
22.510647
11
-35.230995
21
0.002887
31
38.894646
12
-37.398994
22
0.002887
32
39.310646
13
-37.398994
23
0.002887
33
39.310646
0
3DFACE
8
Gouvernail
62
48.000000
10
-37.398994
20
0.002887
30
39.310646
11
-39.668999
21
0.002887
31
36.659641
12
-38.486000
22
0.002887
32
36.511642
13
-38.486000
23
0.002887
33
36.511642
0
3DFACE
8
Gouvernail
62
48.000000
10
-37.398994
20
0.002887
30
39.310646
11
-38.486000
21
0.002887
31
36.511642
12
-37.594002
22
0.002887
32
23.053648
13
-37.594002
23
0.002887
33
23.053648
0
3DFACE
8
Gouvernail
62
48.000000
10
-37.594002
20
0.002887
30
23.053648
11
-40.551998
21
0.002887
31
22.609648
12
-24.798998
22
0.002887
32
22.510647
13
-24.798998
23
0.002887
33
22.510647
0
3DFACE
8
Gouvernail
62
48.000000
10
-24.798998
20
0.002887
30
22.510647
11
-37.398994
21
0.002887
31
39.310646
12
-37.594002
22
0.002887
32
23.053648
13
-37.594002
23
0.002887
33
23.053648
0
3DFACE
8
VolDirection
62
49.000000
10
-40.974995
20
0.002887
30
32.590645
11
-40.375000
21
0.002887
31
36.110645
12
-39.668999
22
0.002887
32
36.659641
13
-39.668999
23
0.002887
33
36.659641
0
3DFACE
8
VolDirection
62
49.000000
10
-40.974995
20
0.002887
30
32.590645
11
-39.668999
21
0.002887
31
36.659641
12
-38.486000
22
0.002887
32
36.511642
13
-38.486000
23
0.002887
33
36.511642
0
3DFACE
8
VolDirection
62
49.000000
10
-40.974995
20
0.002887
30
32.590645
11
-38.486000
21
0.002887
31
36.511642
12
-37.594002
22
0.002887
32
23.053648
13
-37.594002
23
0.002887
33
23.053648
0
3DFACE
8
VolDirection
62
49.000000
10
-40.974995
20
0.002887
30
32.590645
11
-37.594002
21
0.002887
31
23.053648
12
-40.551998
22
0.002887
32
22.609648
13
-40.551998
23
0.002887
33
22.609648
0
3DFACE
8
AileGauche
62
50.000000
10
-4.998999
20
-4.679782
30
14.658104
11
0.401001
21
-24.185402
31
17.336239
12
16.801003
22
-24.185402
32
17.572237
13
16.801003
23
-24.185402
33
17.572237
0
3DFACE
8
AileGauche
62
50.000000
10
-4.998999
20
-4.679782
30
14.658104
11
16.801003
21
-24.185402
31
17.572237
12
18.201002
22
-2.888450
32
14.481673
13
18.201002
23
-2.888450
33
14.481673
0
3DFACE
8
AileGauche
62
50.000000
10
-4.998999
20
-4.679782
30
14.658104
11
18.201002
21
-2.888450
31
14.481673
12
-8.799000
22
-2.888450
32
14.481673
13
-8.799000
23
-2.888450
33
14.481673
0
3DFACE
8
AileGauche
62
50.000000
10
18.201002
20
-2.788864
30
15.492781
11
16.801003
21
-24.085817
31
17.590345
12
0.401001
22
-24.085817
32
17.590345
13
0.401001
23
-24.085817
33
17.590345
0
3DFACE
8
AileGauche
62
50.000000
10
18.201002
20
-2.788864
30
15.492781
11
0.401001
21
-24.085817
31
17.590345
12
-4.998999
22
-4.580197
32
15.669212
13
-4.998999
23
-4.580197
33
15.669212
0
3DFACE
8
AileGauche
62
50.000000
10
-4.998999
20
-4.580197
30
15.669212
11
-8.799000
21
-2.788864
31
15.492781
12
18.201002
22
-2.788864
32
15.492781
13
18.201002
23
-2.788864
33
15.492781
0
3DFACE
8
AileGauche
62
50.000000
10
-8.799000
20
-2.788864
30
15.492781
11
-4.998999
21
-4.580197
31
15.669212
12
-4.998999
22
-4.679782
32
14.658104
13
-8.799000
23
-2.888450
33
14.481673
0
3DFACE
8
AileGauche
62
50.000000
10
-4.998999
20
-4.580197
30
15.669212
11
0.401001
21
-24.085817
31
17.590345
12
0.401001
22
-24.185402
32
17.336239
13
-4.998999
23
-4.679782
33
14.658104
0
3DFACE
8
AileGauche
62
50.000000
10
0.401001
20
-24.085817
30
17.590345
11
16.801003
21
-24.085817
31
17.590345
12
16.801003
22
-24.185402
32
17.572237
13
0.401001
23
-24.185402
33
17.336239
0
3DFACE
8
AileGauche
62
50.000000
10
16.801003
20
-24.085817
30
17.590345
11
18.201002
21
-2.788864
31
15.492781
12
18.201002
22
-2.888450
32
14.481673
13
16.801003
23
-24.185402
33
17.572237
0
3DFACE
8
AileGauche
62
50.000000
10
18.201002
20
-2.788864
30
15.492781
11
-8.799000
21
-2.788864
31
15.492781
12
-8.799000
22
-2.888450
32
14.481673
13
18.201002
23
-2.888450
33
14.481673
0
3DFACE
8
FuselageAvant
62
51.000000
10
26.000999
20
-2.000000
30
15.673000
11
25.400999
21
-2.871345
31
14.627386
12
25.400999
22
-4.348248
32
16.973173
13
26.000999
23
-3.028718
33
17.306931
0
3DFACE
8
FuselageAvant
62
51.000000
10
26.000999
20
-3.028718
30
17.306931
11
25.400999
21
-4.348248
31
16.973173
12
25.400999
22
-4.164268
32
19.739059
13
26.000999
23
-2.900570
33
19.233473
0
3DFACE
8
FuselageAvant
62
51.000000
10
26.000999
20
-2.900570
30
19.233473
11
25.400999
21
-4.164268
31
19.739059
12
25.400999
22
-2.389680
32
21.868567
13
26.000999
23
-1.664502
33
20.716755
0
3DFACE
8
FuselageAvant
62
51.000000
10
26.000999
20
-1.664502
30
20.716755
11
25.400999
21
-2.389680
31
21.868567
12
25.400999
22
0.297686
32
22.548296
13
26.000999
23
0.207349
33
21.190212
0
3DFACE
8
FuselageAvant
62
51.000000
10
26.000999
20
0.207349
30
21.190212
11
25.400999
21
0.297686
31
22.548296
12
25.400999
22
2.871346
32
21.518616
13
26.000999
23
2.000000
33
20.473000
0
3DFACE
8
FuselageAvant
62
51.000000
10
26.000999
20
2.000000
30
20.473000
11
25.400999
21
2.871346
31
21.518616
12
25.400999
22
4.348248
32
19.172827
13
26.000999
23
3.028719
33
18.839071
0
3DFACE
8
FuselageAvant
62
51.000000
10
26.000999
20
3.028719
30
18.839071
11
25.400999
21
4.348248
31
19.172827
12
25.400999
22
4.164268
32
16.406940
13
26.000999
23
2.900569
33
16.912527
0
3DFACE
8
FuselageAvant
62
51.000000
10
26.000999
20
2.900569
30
16.912527
11
25.400999
21
4.164268
31
16.406940
12
25.400999
22
2.389679
32
14.277434
13
26.000999
23
1.664501
33
15.429246
0
3DFACE
8
FuselageAvant
62
51.000000
10
26.000999
20
1.664501
30
15.429246
11
25.400999
21
2.389679
31
14.277434
12
25.400999
22
-0.297687
32
13.597705
13
26.000999
23
-0.207350
33
14.955789
0
3DFACE
8
FuselageAvant
62
51.000000
10
26.000999
20
-0.207350
30
14.955789
11
25.400999
21
-0.297687
31
13.597705
12
25.400999
22
-2.871345
32
14.627386
13
26.000999
23
-2.000000
33
15.673000
0
3DFACE
8
FuselageAvant
62
51.000000
10
25.400999
20
-2.871345
30
14.627386
11
20.401001
21
-2.871345
31
14.627386
12
20.401001
22
-4.348248
32
16.973173
13
25.400999
23
-4.348248
33
16.973173
0
3DFACE
8
FuselageAvant
62
51.000000
10
25.400999
20
-4.348248
30
16.973173
11
20.401001
21
-4.348248
31
16.973173
12
20.401001
22
-4.164268
32
19.739059
13
25.400999
23
-4.164268
33
19.739059
0
3DFACE
8
FuselageAvant
62
51.000000
10
25.400999
20
-4.164268
30
19.739059
11
20.401001
21
-4.164268
31
19.739059
12
20.401001
22
-2.389680
32
21.868567
13
25.400999
23
-2.389680
33
21.868567
0
3DFACE
8
FuselageAvant
62
51.000000
10
25.400999
20
-2.389680
30
21.868567
11
20.401001
21
-2.389680
31
21.868567
12
20.401001
22
0.297686
32
22.548296
13
25.400999
23
0.297686
33
22.548296
0
3DFACE
8
FuselageAvant
62
51.000000
10
25.400999
20
0.297686
30
22.548296
11
20.401001
21
0.297686
31
22.548296
12
20.401001
22
2.871346
32
21.518616
13
25.400999
23
2.871346
33
21.518616
0
3DFACE
8
FuselageAvant
62
51.000000
10
25.400999
20
2.871346
30
21.518616
11
20.401001
21
2.871346
31
21.518616
12
20.401001
22
4.348248
32
19.172827
13
25.400999
23
4.348248
33
19.172827
0
3DFACE
8
FuselageAvant
62
51.000000
10
25.400999
20
4.348248
30
19.172827
11
20.401001
21
4.348248
31
19.172827
12
20.401001
22
4.164268
32
16.406940
13
25.400999
23
4.164268
33
16.406940
0
3DFACE
8
FuselageAvant
62
51.000000
10
25.400999
20
4.164268
30
16.406940
11
20.401001
21
4.164268
31
16.406940
12
20.401001
22
2.389679
32
14.277434
13
25.400999
23
2.389679
33
14.277434
0
3DFACE
8
FuselageAvant
62
51.000000
10
25.400999
20
2.389679
30
14.277434
11
20.401001
21
2.389679
31
14.277434
12
20.401001
22
-0.297687
32
13.597705
13
25.400999
23
-0.297687
33
13.597705
0
3DFACE
8
FuselageAvant
62
51.000000
10
25.400999
20
-0.297687
30
13.597705
11
20.401001
21
-0.297687
31
13.597705
12
20.401001
22
-2.871345
32
14.627386
13
25.400999
23
-2.871345
33
14.627386
0
3DFACE
8
FuselageAvant
62
51.000000
10
26.000999
20
-2.000000
30
15.673000
11
26.000999
21
-3.028718
31
17.306931
12
26.000999
22
-2.900570
32
19.233473
13
26.000999
23
-2.900570
33
19.233473
0
3DFACE
8
FuselageAvant
62
51.000000
10
26.000999
20
-2.000000
30
15.673000
11
26.000999
21
-2.900570
31
19.233473
12
26.000999
22
-1.664502
32
20.716755
13
26.000999
23
-1.664502
33
20.716755
0
3DFACE
8
FuselageAvant
62
51.000000
10
26.000999
20
-2.000000
30
15.673000
11
26.000999
21
-1.664502
31
20.716755
12
26.000999
22
0.207349
32
21.190212
13
26.000999
23
0.207349
33
21.190212
0
3DFACE
8
FuselageAvant
62
51.000000
10
26.000999
20
-2.000000
30
15.673000
11
26.000999
21
0.207349
31
21.190212
12
26.000999
22
2.000000
32
20.473000
13
26.000999
23
2.000000
33
20.473000
0
3DFACE
8
FuselageAvant
62
51.000000
10
26.000999
20
-2.000000
30
15.673000
11
26.000999
21
2.000000
31
20.473000
12
26.000999
22
3.028719
32
18.839071
13
26.000999
23
3.028719
33
18.839071
0
3DFACE
8
FuselageAvant
62
51.000000
10
26.000999
20
-2.000000
30
15.673000
11
26.000999
21
3.028719
31
18.839071
12
26.000999
22
2.900569
32
16.912527
13
26.000999
23
2.900569
33
16.912527
0
3DFACE
8
FuselageAvant
62
51.000000
10
26.000999
20
-2.000000
30
15.673000
11
26.000999
21
2.900569
31
16.912527
12
26.000999
22
1.664501
32
15.429246
13
26.000999
23
1.664501
33
15.429246
0
3DFACE
8
FuselageAvant
62
51.000000
10
26.000999
20
-2.000000
30
15.673000
11
26.000999
21
1.664501
31
15.429246
12
26.000999
22
-0.207350
32
14.955789
13
26.000999
23
-0.207350
33
14.955789
0
3DFACE
8
AileDroite
62
52.000000
10
18.201002
20
2.510721
30
14.481673
11
16.801003
21
23.807673
31
17.463238
12
0.401001
22
23.807673
32
17.242239
13
0.401001
23
23.807673
33
17.242239
0
3DFACE
8
AileDroite
62
52.000000
10
18.201002
20
2.510721
30
14.481673
11
0.401001
21
23.807673
31
17.242239
12
-4.998999
22
4.302053
32
14.658104
13
-4.998999
23
4.302053
33
14.658104
0
3DFACE
8
AileDroite
62
52.000000
10
18.201002
20
2.510721
30
14.481673
11
-4.998999
21
4.302053
31
14.658104
12
-8.799000
22
2.510721
32
14.481673
13
-8.799000
23
2.510721
33
14.481673
0
3DFACE
8
AileDroite
62
52.000000
10
-4.998999
20
4.202468
30
15.669212
11
0.401001
21
23.708088
31
17.590345
12
16.801003
22
23.708088
32
17.590345
13
16.801003
23
23.708088
33
17.590345
0
3DFACE
8
AileDroite
62
52.000000
10
-4.998999
20
4.202468
30
15.669212
11
16.801003
21
23.708088
31
17.590345
12
18.201002
22
2.411135
32
15.492781
13
18.201002
23
2.411135
33
15.492781
0
3DFACE
8
AileDroite
62
52.000000
10
-4.998999
20
4.202468
30
15.669212
11
18.201002
21
2.411135
31
15.492781
12
-8.799000
22
2.411135
32
15.492781
13
-8.799000
23
2.411135
33
15.492781
0
3DFACE
8
AileDroite
62
52.000000
10
-8.799000
20
2.510721
30
14.481673
11
-4.998999
21
4.302053
31
14.658104
12
-4.998999
22
4.202468
32
15.669212
13
-8.799000
23
2.411135
33
15.492781
0
3DFACE
8
AileDroite
62
52.000000
10
-4.998999
20
4.302053
30
14.658104
11
0.401001
21
23.807673
31
17.242239
12
0.401001
22
23.708088
32
17.590345
13
-4.998999
23
4.202468
33
15.669212
0
3DFACE
8
AileDroite
62
52.000000
10
0.401001
20
23.807673
30
17.242239
11
16.801003
21
23.807673
31
17.463238
12
16.801003
22
23.708088
32
17.590345
13
0.401001
23
23.708088
33
17.590345
0
3DFACE
8
AileDroite
62
52.000000
10
16.801003
20
23.807673
30
17.463238
11
18.201002
21
2.510721
31
14.481673
12
18.201002
22
2.411135
32
15.492781
13
16.801003
23
23.708088
33
17.590345
0
3DFACE
8
AileDroite
62
52.000000
10
18.201002
20
2.510721
30
14.481673
11
-8.799000
21
2.510721
31
14.481673
12
-8.799000
22
2.411135
32
15.492781
13
18.201002
23
2.411135
33
15.492781
0
3DFACE
8
AileGaucheExt
62
53.000000
10
16.600998
20
-24.085815
30
17.590345
11
16.400999
21
-49.363506
31
20.079977
12
3.801001
22
-49.164471
32
20.060375
13
0.601000
23
-24.284853
33
17.609949
0
3DFACE
8
AileDroiteExt
62
54.000000
10
0.601000
20
23.907124
30
17.609949
11
3.801001
21
48.786743
31
20.060375
12
16.400999
22
48.985779
32
20.079977
13
16.600998
23
23.708086
33
17.590345
0
3DFACE
8
VoletDroit
62
55.000000
10
-0.379998
20
20.649349
30
17.041830
11
2.867001
21
20.034325
31
16.981255
12
-0.843999
22
5.876827
32
15.586863
13
-4.245998
23
6.646105
33
15.662630
0
3DFACE
8
VoletGauche
62
56.000000
10
-4.246000
20
-7.725927
30
15.816628
11
-0.844001
21
-6.956650
31
15.740861
12
2.867003
22
-21.114145
32
17.135256
13
-0.379996
23
-21.729170
33
17.195829
0
3DFACE
8
Moyeux
62
57.000000
10
28.131254
20
-0.058650
30
18.045774
11
28.131254
21
-0.058650
31
18.045774
12
26.958298
22
1.541350
32
18.116488
13
26.958298
23
0.741350
33
16.730844
0
3DFACE
8
Moyeux
62
57.000000
10
28.131254
20
-0.058650
30
18.045774
11
28.131254
21
-0.058650
31
18.045774
12
26.958298
22
0.741350
32
16.730844
13
26.958298
23
-0.858650
33
16.730844
0
3DFACE
8
Moyeux
62
57.000000
10
28.131254
20
-0.058650
30
18.045774
11
28.131254
21
-0.058650
31
18.045774
12
26.958298
22
-0.858650
32
16.730844
13
26.958298
23
-1.658650
33
18.116488
0
3DFACE
8
Moyeux
62
57.000000
10
28.131254
20
-0.058650
30
18.045774
11
28.131254
21
-0.058650
31
18.045774
12
26.958298
22
-1.658650
32
18.116488
13
26.958298
23
-0.858650
33
19.502125
0
3DFACE
8
Moyeux
62
57.000000
10
28.131254
20
-0.058650
30
18.045774
11
28.131254
21
-0.058650
31
18.045774
12
26.958298
22
-0.858650
32
19.502125
13
26.958298
23
0.741350
33
19.502125
0
3DFACE
8
Moyeux
62
57.000000
10
28.131254
20
-0.058650
30
18.045774
11
28.131254
21
-0.058650
31
18.045774
12
26.958298
22
0.741350
32
19.502125
13
26.958298
23
1.541350
33
18.116488
0
3DFACE
8
Moyeux
62
57.000000
10
25.543190
20
0.741350
30
16.764841
11
26.958298
21
0.741350
31
16.730844
12
26.958298
22
1.541350
32
18.116488
13
25.544977
23
1.541350
33
18.150433
0
3DFACE
8
Moyeux
62
57.000000
10
25.543190
20
-0.858650
30
16.764841
11
26.958298
21
-0.858650
31
16.730844
12
26.958298
22
0.741350
32
16.730844
13
25.543190
23
0.741350
33
16.764841
0
3DFACE
8
Moyeux
62
57.000000
10
25.544977
20
-1.658650
30
18.150433
11
26.958298
21
-1.658650
31
18.116488
12
26.958298
22
-0.858650
32
16.730844
13
25.543190
23
-0.858650
33
16.764841
0
3DFACE
8
Moyeux
62
57.000000
10
25.546764
20
-0.858650
30
19.536020
11
26.958298
21
-0.858650
31
19.502125
12
26.958298
22
-1.658650
32
18.116488
13
25.544977
23
-1.658650
33
18.150433
0
3DFACE
8
Moyeux
62
57.000000
10
25.546764
20
0.741350
30
19.536020
11
26.958298
21
0.741350
31
19.502125
12
26.958298
22
-0.858650
32
19.502125
13
25.546764
23
-0.858650
33
19.536020
0
3DFACE
8
Moyeux
62
57.000000
10
25.544977
20
1.541350
30
18.150433
11
26.958298
21
1.541350
31
18.116488
12
26.958298
22
0.741350
32
19.502125
13
25.546764
23
0.741350
33
19.536020
0
3DFACE
8
Fuselage
62
58.000000
10
20.401001
20
-4.348248
30
16.973173
11
-8.418999
21
-4.348248
31
16.973173
12
-8.418999
22
-4.164268
32
19.739059
13
20.401001
23
-4.164268
33
19.739059
0
3DFACE
8
Fuselage
62
58.000000
10
20.401001
20
-4.164268
30
19.739059
11
-8.418999
21
-4.164268
31
19.739059
12
-8.418999
22
-2.389680
32
21.868567
13
20.401001
23
-2.389680
33
21.868567
0
3DFACE
8
Fuselage
62
58.000000
10
20.401001
20
-2.389680
30
21.868567
11
-8.418999
21
-2.389680
31
21.868567
12
-8.418999
22
0.297686
32
22.548296
13
20.401001
23
0.297686
33
22.548296
0
3DFACE
8
Fuselage
62
58.000000
10
20.401001
20
0.297686
30
22.548296
11
-8.418999
21
0.297686
31
22.548296
12
-8.418999
22
2.871346
32
21.518616
13
20.401001
23
2.871346
33
21.518616
0
3DFACE
8
Fuselage
62
58.000000
10
20.401001
20
2.871346
30
21.518616
11
-8.418999
21
2.871346
31
21.518616
12
-8.418999
22
4.348248
32
19.172827
13
20.401001
23
4.348248
33
19.172827
0
3DFACE
8
Fuselage
62
58.000000
10
20.401001
20
4.348248
30
19.172827
11
-8.418999
21
4.348248
31
19.172827
12
-8.418999
22
4.164268
32
16.406940
13
20.401001
23
4.164268
33
16.406940
0
3DFACE
8
Fuselage
62
58.000000
10
20.401001
20
4.164268
30
16.406940
11
-8.418999
21
4.164268
31
16.406940
12
-8.418999
22
2.389679
32
14.277434
13
20.401001
23
2.389679
33
14.277434
0
3DFACE
8
Fuselage
62
58.000000
10
20.401001
20
2.389679
30
14.277434
11
-8.418999
21
2.389679
31
14.277434
12
-8.418999
22
-0.297687
32
13.597705
13
20.401001
23
-0.297687
33
13.597705
0
3DFACE
8
Fuselage
62
58.000000
10
20.401001
20
-0.297687
30
13.597705
11
-8.418999
21
-0.297687
31
13.597705
12
-8.418999
22
-2.871345
32
14.627386
13
20.401001
23
-2.871345
33
14.627386
0
3DFACE
8
Fuselage
62
58.000000
10
20.401001
20
-2.871345
30
14.627386
11
-8.418999
21
-2.871345
31
14.627386
12
-8.418999
22
-4.348248
32
16.973173
13
20.401001
23
-4.348248
33
16.973173
0
3DFACE
8
FuselageArriere
62
59.000000
10
-8.198999
20
-4.164268
30
19.739059
11
-40.398998
21
-0.040383
31
20.306030
12
-40.398998
22
-0.023174
32
21.370781
13
-8.198999
23
-2.389680
33
21.868567
0
3DFACE
8
FuselageArriere
62
59.000000
10
-8.198999
20
-2.389680
30
21.868567
11
-40.398998
21
-0.023174
31
21.370781
12
-40.398998
22
0.002887
32
21.710648
13
-8.198999
23
0.297686
33
22.548296
0
3DFACE
8
FuselageArriere
62
59.000000
10
-8.198999
20
0.297686
30
22.548296
11
-40.398998
21
0.002887
31
21.710648
12
-40.398998
22
0.027845
32
21.195807
13
-8.198999
23
2.871346
33
21.518616
0
3DFACE
8
FuselageArriere
62
59.000000
10
-8.198999
20
2.871346
30
21.518616
11
-40.398998
21
0.027845
31
21.195807
12
-40.398998
22
0.042168
32
20.022913
13
-8.198999
23
4.348248
33
19.172827
0
3DFACE
8
FuselageArriere
62
59.000000
10
-8.198999
20
4.348248
30
19.172827
11
-40.398998
21
0.042168
31
20.022913
12
-40.398998
22
0.040384
32
18.639971
13
-8.198999
23
4.164268
33
16.406940
0
3DFACE
8
FuselageArriere
62
59.000000
10
-8.198999
20
4.164268
30
16.406940
11
-40.398998
21
0.040384
31
18.639971
12
-42.118999
22
0.023174
32
18.075218
13
-8.198999
23
2.389679
33
14.277434
0
3DFACE
8
FuselageArriere
62
59.000000
10
-8.198999
20
2.389679
30
14.277434
11
-42.118999
21
0.023174
31
18.075218
12
-42.118999
22
-0.002887
32
17.735352
13
-8.198999
23
-0.297687
33
13.597705
0
3DFACE
8
FuselageArriere
62
59.000000
10
-8.198999
20
-0.297687
30
13.597705
11
-42.118999
21
-0.002887
31
17.735352
12
-42.118999
22
-0.027845
32
18.250193
13
-8.198999
23
-2.871345
33
14.627386
0
3DFACE
8
FuselageArriere
62
59.000000
10
-8.198999
20
-2.871345
30
14.627386
11
-42.118999
21
-0.027845
31
18.250193
12
-40.398998
22
-0.042167
32
18.923088
13
-8.198999
23
-4.348248
33
16.973173
0
3DFACE
8
FuselageArriere
62
59.000000
10
-8.198999
20
-4.348248
30
16.973173
11
-40.398998
21
-0.042167
31
18.923088
12
-40.398998
22
-0.040383
32
20.306030
13
-8.198999
23
-4.164268
33
19.739059
0
3DFACE
8
RoueArriere
62
60.000000
10
-33.091026
20
-0.371407
30
16.561260
11
-33.689453
21
-0.371407
31
15.259660
12
-34.947319
22
-0.371407
32
14.574067
13
-34.947319
23
-0.371407
33
14.574067
0
3DFACE
8
RoueArriere
62
60.000000
10
-33.091026
20
-0.371407
30
16.561260
11
-34.947319
21
-0.371407
31
14.574067
12
-36.365517
22
-0.371407
32
14.776523
13
-36.365517
23
-0.371407
33
14.776523
0
3DFACE
8
RoueArriere
62
60.000000
10
-33.091026
20
-0.371407
30
16.561260
11
-36.365517
21
-0.371407
31
14.776523
12
-37.381306
22
-0.371407
32
15.786692
13
-37.381306
23
-0.371407
33
15.786692
0
3DFACE
8
RoueArriere
62
60.000000
10
-33.091026
20
-0.371407
30
16.561260
11
-37.381306
21
-0.371407
31
15.786692
12
-37.591629
22
-0.371407
32
17.203745
13
-37.591629
23
-0.371407
33
17.203745
0
3DFACE
8
RoueArriere
62
60.000000
10
-37.591629
20
0.390593
30
17.203745
11
-37.381306
21
0.390593
31
15.786692
12
-36.365517
22
0.390593
32
14.776523
13
-36.365517
23
0.390593
33
14.776523
0
3DFACE
8
RoueArriere
62
60.000000
10
-37.591629
20
0.390593
30
17.203745
11
-36.365517
21
0.390593
31
14.776523
12
-34.947319
22
0.390593
32
14.574067
13
-34.947319
23
0.390593
33
14.574067
0
3DFACE
8
RoueArriere
62
60.000000
10
-37.591629
20
0.390593
30
17.203745
11
-34.947319
21
0.390593
31
14.574067
12
-33.689453
22
0.390593
32
15.259660
13
-33.689453
23
0.390593
33
15.259660
0
3DFACE
8
RoueArriere
62
60.000000
10
-37.591629
20
0.390593
30
17.203745
11
-33.689453
21
0.390593
31
15.259660
12
-33.091026
22
0.390593
32
16.561260
13
-33.091026
23
0.390593
33
16.561260
0
3DFACE
8
RoueArriere
62
60.000000
10
-37.591629
20
-0.371407
30
17.203745
11
-37.381306
21
-0.371407
31
15.786692
12
-37.381306
22
0.390593
32
15.786692
13
-37.591629
23
0.390593
33
17.203745
0
3DFACE
8
RoueArriere
62
60.000000
10
-37.381306
20
-0.371407
30
15.786692
11
-36.365517
21
-0.371407
31
14.776523
12
-36.365517
22
0.390593
32
14.776523
13
-37.381306
23
0.390593
33
15.786692
0
3DFACE
8
RoueArriere
62
60.000000
10
-36.365517
20
-0.371407
30
14.776523
11
-34.947319
21
-0.371407
31
14.574067
12
-34.947319
22
0.390593
32
14.574067
13
-36.365517
23
0.390593
33
14.776523
0
3DFACE
8
RoueArriere
62
60.000000
10
-34.947319
20
-0.371407
30
14.574067
11
-33.689453
21
-0.371407
31
15.259660
12
-33.689453
22
0.390593
32
15.259660
13
-34.947319
23
0.390593
33
14.574067
0
3DFACE
8
RoueArriere
62
60.000000
10
-33.689453
20
-0.371407
30
15.259660
11
-33.091026
21
-0.371407
31
16.561260
12
-33.091026
22
0.390593
32
16.561260
13
-33.689453
23
0.390593
33
15.259660
0
3DFACE
8
RoueArriere
62
60.000000
10
-33.091026
20
-0.371407
30
16.561260
11
-37.591629
21
-0.371407
31
17.203745
12
-37.591629
22
0.390593
32
17.203745
13
-33.091026
23
0.390593
33
16.561260
0
3DFACE
8
PosCam
62
61.000000
10
7.864082
20
-0.078391
30
26.268755
11
8.671464
21
-0.078391
31
26.131264
12
8.368840
22
-0.078391
32
27.023783
13
8.368840
23
-0.078391
33
27.023783
0
3DFACE
8
EssieuGauche
62
62.000000
10
9.350505
20
-16.505402
30
11.164808
11
10.646349
21
-16.505402
31
9.883439
12
11.190505
22
-16.505402
32
8.386886
13
11.190505
23
-16.505402
33
8.386886
0
3DFACE
8
EssieuGauche
62
62.000000
10
9.350505
20
-16.505402
30
11.164808
11
11.190505
21
-16.505402
31
8.386886
12
10.607548
22
-16.505400
32
7.142289
13
10.607548
23
-16.505400
33
7.142289
0
3DFACE
8
EssieuGauche
62
62.000000
10
9.350505
20
-16.505402
30
11.164808
11
10.607548
21
-16.505400
31
7.142289
12
9.566124
22
-16.425402
32
6.354352
13
9.566124
23
-16.425402
33
6.354352
0
3DFACE
8
EssieuGauche
62
62.000000
10
9.350505
20
-16.505402
30
11.164808
11
9.566124
21
-16.425402
31
6.354352
12
7.282156
22
-16.505402
32
6.625288
13
7.282156
23
-16.505402
33
6.625288
0
3DFACE
8
EssieuGauche
62
62.000000
10
9.350505
20
-16.505402
30
11.164808
11
7.282156
21
-16.505402
31
6.625288
12
6.070506
22
-16.505402
32
8.299392
13
6.070506
23
-16.505402
33
8.299392
0
3DFACE
8
EssieuGauche
62
62.000000
10
9.350505
20
-16.505402
30
11.164808
11
6.070506
21
-16.505402
31
8.299392
12
6.243239
22
-16.505402
32
9.773183
13
6.243239
23
-16.505402
33
9.773183
0
3DFACE
8
EssieuGauche
62
62.000000
10
9.350505
20
-16.505402
30
11.164808
11
6.243239
21
-16.505402
31
9.773183
12
7.390505
22
-16.505402
32
11.274177
13
7.390505
23
-16.505402
33
11.274177
0
3DFACE
8
EssieuGauche
62
62.000000
10
9.350505
20
-16.505402
30
11.164808
11
7.390505
21
-16.505402
31
11.274177
12
7.855949
22
-16.505402
32
13.670937
13
7.855949
23
-16.505402
33
13.670937
0
3DFACE
8
EssieuGauche
62
62.000000
10
9.350505
20
-16.505402
30
11.164808
11
7.855949
21
-16.505402
31
13.670937
12
7.210505
22
-16.505402
32
16.130070
13
7.210505
23
-16.505402
33
16.130070
0
3DFACE
8
EssieuGauche
62
62.000000
10
7.210505
20
-16.505402
30
16.130070
11
9.370504
21
-16.505402
31
15.889462
12
8.879545
22
-16.505400
32
13.678437
13
8.879545
23
-16.505400
33
13.678437
0
3DFACE
8
EssieuGauche
62
62.000000
10
8.879545
20
-16.505400
30
13.678437
11
9.350505
21
-16.505402
31
11.164808
12
7.210505
22
-16.505402
32
16.130070
13
7.210505
23
-16.505402
33
16.130070
0
3DFACE
8
EssieuDroit
62
63.000000
10
7.390505
20
16.954597
30
11.236522
11
6.243239
21
16.954597
31
9.739893
12
6.070506
22
16.954597
32
8.270387
13
6.070506
23
16.954597
33
8.270387
0
3DFACE
8
EssieuDroit
62
63.000000
10
7.390505
20
16.954597
30
11.236522
11
6.070506
21
16.954597
31
8.270387
12
7.282156
22
16.954597
32
6.601150
13
7.282156
23
16.954597
33
6.601150
0
3DFACE
8
EssieuDroit
62
63.000000
10
7.390505
20
16.954597
30
11.236522
11
7.282156
21
16.954597
31
6.601150
12
9.566124
22
16.874598
32
6.331001
13
9.566124
23
16.874598
33
6.331001
0
3DFACE
8
EssieuDroit
62
63.000000
10
7.390505
20
16.954597
30
11.236522
11
9.566124
21
16.874598
31
6.331001
12
10.607548
22
16.954596
32
7.116648
13
10.607548
23
16.954596
33
7.116648
0
3DFACE
8
EssieuDroit
62
63.000000
10
7.390505
20
16.954597
30
11.236522
11
10.607548
21
16.954596
31
7.116648
12
11.190505
22
16.954597
32
8.357626
13
11.190505
23
16.954597
33
8.357626
0
3DFACE
8
EssieuDroit
62
63.000000
10
7.390505
20
16.954597
30
11.236522
11
11.190505
21
16.954597
31
8.357626
12
10.646349
22
16.954597
32
9.849829
13
10.646349
23
16.954597
33
9.849829
0
3DFACE
8
EssieuDroit
62
63.000000
10
7.390505
20
16.954597
30
11.236522
11
10.646349
21
16.954597
31
9.849829
12
9.350505
22
16.954597
32
11.127472
13
9.350505
23
16.954597
33
11.127472
0
3DFACE
8
EssieuDroit
62
63.000000
10
7.390505
20
16.954597
30
11.236522
11
9.350505
21
16.954597
31
11.127472
12
8.879545
22
16.954596
32
13.633793
13
8.879545
23
16.954596
33
13.633793
0
3DFACE
8
EssieuDroit
62
63.000000
10
7.390505
20
16.954597
30
11.236522
11
8.879545
21
16.954596
31
13.633793
12
9.370504
22
16.954597
32
15.838394
13
9.370504
23
16.954597
33
15.838394
0
3DFACE
8
EssieuDroit
62
63.000000
10
9.370504
20
16.954597
30
15.838394
11
7.210505
21
16.954597
31
16.078300
12
7.855949
22
16.954597
32
13.626314
13
7.855949
23
16.954597
33
13.626314
0
3DFACE
8
EssieuDroit
62
63.000000
10
7.855949
20
16.954597
30
13.626314
11
7.390505
21
16.954597
31
11.236522
12
9.370504
22
16.954597
32
15.838394
13
9.370504
23
16.954597
33
15.838394
0
ENDSEC
0
EOF
