0
SECTION
2
ENTITIES
0
3DFACE
8
AileD1
62
1.000000
10
-14.290298
20
7.405492
30
20.136206
11
-13.858788
21
31.520569
31
20.052008
12
5.552468
22
31.520569
32
20.052008
13
6.236567
23
9.107083
33
20.018280
0
3DFACE
8
AileD1
62
1.000000
10
6.236567
20
9.107083
30
20.018280
11
5.552468
21
31.520569
31
20.052008
12
7.017469
22
31.520569
32
18.953257
13
7.785765
23
8.662444
33
18.944824
0
3DFACE
8
AileD1
62
1.000000
10
7.785765
20
8.662444
30
18.944824
11
7.017469
21
31.520569
31
18.953257
12
1.157467
22
31.520569
32
17.122005
13
1.588976
23
7.921379
33
17.155733
0
3DFACE
8
AileD1
62
1.000000
10
1.588976
20
7.921379
30
17.155733
11
1.157467
21
31.520569
31
17.122005
12
-15.115694
22
31.520569
32
17.122005
13
-15.501558
23
6.851122
33
17.037807
0
3DFACE
8
AileD1
62
1.000000
10
-15.115694
20
31.520569
30
17.122005
11
-19.718790
21
31.520569
31
18.220758
12
-13.858788
22
31.520569
32
20.052008
13
-13.858788
23
31.520569
33
20.052008
0
3DFACE
8
AileD1
62
1.000000
10
-13.858788
20
31.520569
30
20.052008
11
-14.290298
21
7.405492
31
20.136206
12
-15.501558
22
7.405492
32
17.037807
13
-15.115694
23
31.520569
33
17.122005
0
3DFACE
8
AileG1
62
2.000000
10
6.236567
20
-9.264073
30
20.018280
11
5.552468
21
-31.677561
31
20.052008
12
-13.858788
22
-31.677561
32
20.052008
13
-14.290298
23
-7.562481
33
20.136206
0
3DFACE
8
AileG1
62
2.000000
10
7.785765
20
-8.819433
30
18.944824
11
7.017469
21
-31.677561
31
18.953257
12
5.552468
22
-31.677561
32
20.052008
13
6.236567
23
-9.264073
33
20.018280
0
3DFACE
8
AileG1
62
2.000000
10
1.588976
20
-8.078368
30
17.155733
11
1.157467
21
-31.677561
31
17.122005
12
7.017469
22
-31.677561
32
18.953257
13
7.785765
23
-8.819433
33
18.944824
0
3DFACE
8
AileG1
62
2.000000
10
-15.501558
20
-7.008112
30
17.037807
11
-15.115694
21
-31.677561
31
17.122005
12
1.157467
22
-31.677561
32
17.122005
13
1.588976
23
-8.078368
33
17.155733
0
3DFACE
8
AileG1
62
2.000000
10
-13.858788
20
-31.677561
30
20.052008
11
-19.718790
21
-31.677561
31
18.220758
12
-15.115694
22
-31.677561
32
17.122005
13
-15.115694
23
-31.677561
33
17.122005
0
3DFACE
8
AileG1
62
2.000000
10
-15.115694
20
-31.677561
30
17.122005
11
-15.501558
21
-7.562481
31
17.037807
12
-14.290298
22
-7.562481
32
20.136206
13
-13.858788
23
-31.677561
33
20.052008
0
3DFACE
8
Tete
62
3.000000
10
-3.919433
20
0.255096
30
36.195618
11
-4.406390
21
2.965353
31
36.384670
12
-4.254806
22
2.198834
32
31.752113
13
-4.254806
23
2.198834
33
31.752113
0
3DFACE
8
Tete
62
3.000000
10
-4.406390
20
2.965353
30
36.384670
11
-6.162242
21
4.157865
31
35.565491
12
-5.488421
22
2.995551
32
30.014416
13
-4.254806
23
2.198834
33
31.752113
0
3DFACE
8
Tete
62
3.000000
10
-6.162242
20
4.157865
30
35.565491
11
-11.770725
21
4.157865
31
32.405788
12
-10.022731
22
2.869604
32
29.328934
13
-5.488421
23
2.995551
33
30.014416
0
3DFACE
8
Tete
62
3.000000
10
-11.770725
20
4.157865
30
32.405788
11
-12.948179
21
2.965353
31
31.572403
12
-11.683629
22
2.007016
32
29.348288
13
-10.022731
23
2.869604
33
29.328934
0
3DFACE
8
Tete
62
3.000000
10
-12.948179
20
2.965353
30
31.572403
11
-13.274728
21
0.255096
31
30.925035
12
-13.151003
22
0.045008
32
30.715237
13
-11.683629
23
2.007016
33
29.348288
0
3DFACE
8
Tete
62
3.000000
10
-3.919433
20
0.255096
30
36.195618
11
-4.254806
21
2.198834
31
31.752113
12
-4.254806
22
-2.108818
32
31.752113
13
-3.919433
23
-0.165080
33
36.195618
0
3DFACE
8
Tete
62
3.000000
10
-4.254806
20
2.198834
30
31.752113
11
-5.488421
21
2.995551
31
30.014416
12
-5.488421
22
-2.905535
32
30.014416
13
-4.254806
23
-2.108818
33
31.752113
0
3DFACE
8
Tete
62
3.000000
10
-3.919433
20
-0.165080
30
36.195618
11
-4.254806
21
-2.108818
31
31.752113
12
-4.406390
22
-2.455160
32
36.384670
13
-3.919433
23
0.255096
33
36.195618
0
3DFACE
8
Tete
62
3.000000
10
-4.254806
20
-2.108818
30
31.752113
11
-5.488421
21
-2.905535
31
30.014416
12
-5.562242
22
-3.647672
32
35.165493
13
-4.406390
23
-2.455160
33
36.384670
0
3DFACE
8
Tete
62
3.000000
10
-5.488421
20
-2.905535
30
30.014416
11
-10.022731
21
-2.779588
31
29.328934
12
-12.370726
22
-3.647672
32
31.405788
13
-5.562242
23
-3.647672
33
35.165493
0
3DFACE
8
Tete
62
3.000000
10
-10.022731
20
-2.779588
30
29.328934
11
-11.683629
21
-1.916999
31
29.348288
12
-13.148179
22
-2.455160
32
31.172403
13
-12.370726
23
-3.647672
33
31.405788
0
3DFACE
8
Tete
62
3.000000
10
-11.683629
20
-1.916999
30
29.348288
11
-13.151003
21
0.045008
31
30.715237
12
-13.274728
22
0.255096
32
30.925035
13
-13.148179
23
-2.455160
33
31.172403
0
3DFACE
8
Tete
62
3.000000
10
-6.162242
20
4.157865
30
35.565491
11
-4.406390
21
2.965353
31
36.384670
12
-4.647004
22
2.965353
32
36.865898
13
-6.320229
23
4.157865
33
35.881466
0
3DFACE
8
Tete
62
3.000000
10
-6.320229
20
4.157865
30
35.881466
11
-4.647004
21
2.965353
31
36.865898
12
-4.697997
22
3.166968
32
38.212036
13
-6.101299
23
4.419060
33
37.133327
0
3DFACE
8
Tete
62
3.000000
10
-6.101299
20
4.419060
30
37.133327
11
-4.697997
21
3.166968
31
38.212036
12
-5.785715
22
3.166968
32
39.850788
13
-7.261916
23
4.419060
33
38.243660
0
3DFACE
8
Tete
62
3.000000
10
-7.261916
20
4.419060
30
38.243660
11
-5.785715
21
3.166968
31
39.850788
12
-7.647121
22
3.166968
32
41.543411
13
-8.758829
23
4.419060
33
39.355030
0
3DFACE
8
Tete
62
3.000000
10
-8.758829
20
4.419060
30
39.355030
11
-7.647121
21
3.166968
31
41.543411
12
-10.088356
22
3.166968
32
42.312790
13
-10.361727
23
4.419060
33
39.860199
0
3DFACE
8
Tete
62
3.000000
10
-10.361727
20
4.419060
30
39.860199
11
-10.088356
21
3.166968
31
42.312790
12
-14.227843
22
3.166968
32
41.774231
13
-13.079687
23
4.419060
33
39.506577
0
3DFACE
8
Tete
62
3.000000
10
-13.079687
20
4.419060
30
39.506577
11
-14.227843
21
3.166968
31
41.774231
12
-15.595390
22
3.166968
32
38.112228
13
-14.046292
23
4.419060
33
36.690044
0
3DFACE
8
Tete
62
3.000000
10
-14.046292
20
4.419060
30
36.690044
11
-15.595390
21
3.166968
31
38.112228
12
-14.603282
22
3.166968
32
34.280857
13
-13.600924
23
4.419060
33
33.968349
0
3DFACE
8
Tete
62
3.000000
10
-13.600924
20
4.419060
30
33.968349
11
-14.603282
21
3.166968
31
34.280857
12
-12.948179
22
2.965353
32
31.572403
13
-11.770725
23
4.157865
33
32.405788
0
3DFACE
8
Tete
62
3.000000
10
-4.406390
20
2.965353
30
36.384670
11
-3.919433
21
0.255096
31
36.195618
12
-4.182962
22
0.255096
32
36.722672
13
-4.647004
23
2.965353
33
36.865898
0
3DFACE
8
Tete
62
3.000000
10
-4.647004
20
2.965353
30
36.865898
11
-4.182962
21
0.255096
31
36.722672
12
-4.308814
22
0.375846
32
38.245010
13
-4.697997
23
3.166968
33
38.212036
0
3DFACE
8
Tete
62
3.000000
10
-4.697997
20
3.166968
30
38.212036
11
-4.308814
21
0.375846
31
38.245010
12
-5.376314
22
0.375846
32
40.030308
13
-5.785715
23
3.166968
33
39.850788
0
3DFACE
8
Tete
62
3.000000
10
-5.785715
20
3.166968
30
39.850788
11
-5.376314
21
0.375846
31
40.030308
12
-7.338807
22
0.375846
32
41.884136
13
-7.647121
23
3.166968
33
41.543411
0
3DFACE
8
Tete
62
3.000000
10
-7.647121
20
3.166968
30
41.543411
11
-7.338807
21
0.375846
31
41.884136
12
-10.012542
22
0.375846
32
42.726788
13
-10.088356
23
3.166968
33
42.312790
0
3DFACE
8
Tete
62
3.000000
10
-10.088356
20
3.166968
30
42.312790
11
-10.012542
21
0.375846
31
42.726788
12
-14.546265
22
0.375846
32
42.136936
13
-14.227843
23
3.166968
33
41.774231
0
3DFACE
8
Tete
62
3.000000
10
-14.227843
20
3.166968
30
41.774231
11
-14.546265
21
0.375846
31
42.136936
12
-16.025009
22
0.375846
32
38.240459
13
-15.595390
23
3.166968
33
38.112228
0
3DFACE
8
Tete
62
3.000000
10
-15.595390
20
3.166968
30
38.112228
11
-16.025009
21
0.375846
31
38.240459
12
-14.881270
22
0.375846
32
34.101334
13
-14.603282
23
3.166968
33
34.280857
0
3DFACE
8
Tete
62
3.000000
10
-14.603282
20
3.166968
30
34.280857
11
-14.881270
21
0.375846
31
34.101334
12
-13.274728
22
0.255096
32
30.925035
13
-12.948179
23
2.965353
33
31.572403
0
3DFACE
8
Tete
62
3.000000
10
-3.919433
20
0.255096
30
36.195618
11
-4.162910
21
-2.617775
31
36.290142
12
-4.414982
22
-2.617775
32
36.794285
13
-4.182962
23
0.255096
33
36.722672
0
3DFACE
8
Tete
62
3.000000
10
-4.182962
20
0.255096
30
36.722672
11
-4.414982
21
-2.617775
31
36.794285
12
-4.503405
22
-2.758744
32
38.228523
13
-4.308814
23
0.375846
33
38.245010
0
3DFACE
8
Tete
62
3.000000
10
-4.308814
20
0.375846
30
38.245010
11
-4.503405
21
-2.758744
31
38.228523
12
-5.581013
22
-2.758744
32
39.940548
13
-5.376314
23
0.375846
33
40.030308
0
3DFACE
8
Tete
62
3.000000
10
-5.376314
20
0.375846
30
40.030308
11
-5.581013
21
-2.758744
31
39.940548
12
-7.492963
22
-2.758744
32
41.713776
13
-7.338807
23
0.375846
33
41.884136
0
3DFACE
8
Tete
62
3.000000
10
-7.338807
20
0.375846
30
41.884136
11
-7.492963
21
-2.758744
31
41.713776
12
-10.050448
22
-2.758744
32
42.519791
13
-10.012542
23
0.375846
33
42.726788
0
3DFACE
8
Tete
62
3.000000
10
-10.012542
20
0.375846
30
42.726788
11
-10.050448
21
-2.758744
31
42.519791
12
-14.387054
22
-2.758744
32
41.955582
13
-14.546265
23
0.375846
33
42.136936
0
3DFACE
8
Tete
62
3.000000
10
-14.546265
20
0.375846
30
42.136936
11
-14.387054
21
-2.758744
31
41.955582
12
-15.810202
22
-2.758744
32
38.176346
13
-16.025009
23
0.375846
33
38.240459
0
3DFACE
8
Tete
62
3.000000
10
-16.025009
20
0.375846
30
38.240459
11
-15.810202
21
-2.758744
31
38.176346
12
-14.742276
22
-2.758744
32
34.191090
13
-14.881270
23
0.375846
33
34.101334
0
3DFACE
8
Tete
62
3.000000
10
-14.881270
20
0.375846
30
34.101334
11
-14.742276
21
-2.758744
31
34.191090
12
-13.111453
22
-2.617775
32
31.248716
13
-13.274728
23
0.255096
33
30.925035
0
3DFACE
8
Tete
62
3.000000
10
-4.162910
20
-2.617775
30
36.290142
11
-5.441173
21
-3.814955
31
35.285549
12
-5.633091
22
-3.814955
32
35.669384
13
-4.414982
23
-2.617775
33
36.794285
0
3DFACE
8
Tete
62
3.000000
10
-4.414982
20
-2.617775
30
36.794285
11
-5.633091
21
-3.814955
31
35.669384
12
-5.525010
22
-3.814955
32
37.182148
13
-4.503405
23
-2.758744
33
38.228523
0
3DFACE
8
Tete
62
3.000000
10
-4.503405
20
-2.758744
30
38.228523
11
-5.525010
21
-3.814955
31
37.182148
12
-6.655689
22
-3.814955
32
38.509487
13
-5.581013
23
-2.758744
33
39.940548
0
3DFACE
8
Tete
62
3.000000
10
-5.581013
20
-2.758744
30
39.940548
11
-6.655689
21
-3.814955
31
38.509487
12
-8.302288
22
-3.814955
32
39.859558
13
-7.492963
23
-2.758744
33
41.713776
0
3DFACE
8
Tete
62
3.000000
10
-7.492963
20
-2.758744
30
41.713776
11
-8.302288
21
-3.814955
31
39.859558
12
-10.249463
22
-3.814955
32
40.473228
13
-10.050448
23
-2.758744
33
42.519791
0
3DFACE
8
Tete
62
3.000000
10
-10.050448
20
-2.758744
30
42.519791
11
-10.249463
21
-3.814955
31
40.473228
12
-13.551195
22
-3.814955
32
40.043663
13
-14.387054
23
-2.758744
33
41.955582
0
3DFACE
8
Tete
62
3.000000
10
-14.387054
20
-2.758744
30
41.955582
11
-13.551195
21
-3.814955
31
40.043663
12
-14.682454
22
-3.814955
32
36.879925
13
-15.810202
23
-2.758744
33
38.176346
0
3DFACE
8
Tete
62
3.000000
10
-15.810202
20
-2.758744
30
38.176346
11
-14.682454
21
-3.814955
31
36.879925
12
-14.012557
22
-3.814955
32
33.702518
13
-14.742276
23
-2.758744
33
34.191090
0
3DFACE
8
Tete
62
3.000000
10
-14.742276
20
-2.758744
30
34.191090
11
-14.012557
21
-3.814955
31
33.702518
12
-12.254266
22
-3.814955
32
31.447193
13
-13.111453
23
-2.617775
33
31.248716
0
3DFACE
8
Tete
62
3.000000
10
-11.770725
20
4.157865
30
32.405788
11
-6.162242
21
4.157865
31
35.565491
12
-6.320229
22
4.157865
32
35.881466
13
-6.320229
23
4.157865
33
35.881466
0
3DFACE
8
Tete
62
3.000000
10
-11.770725
20
4.157865
30
32.405788
11
-6.320229
21
4.157865
31
35.881466
12
-6.101299
22
4.419060
32
37.133327
13
-6.101299
23
4.419060
33
37.133327
0
3DFACE
8
Tete
62
3.000000
10
-11.770725
20
4.157865
30
32.405788
11
-6.101299
21
4.419060
31
37.133327
12
-7.261916
22
4.419060
32
38.243660
13
-7.261916
23
4.419060
33
38.243660
0
3DFACE
8
Tete
62
3.000000
10
-11.770725
20
4.157865
30
32.405788
11
-7.261916
21
4.419060
31
38.243660
12
-8.758829
22
4.419060
32
39.355030
13
-8.758829
23
4.419060
33
39.355030
0
3DFACE
8
Tete
62
3.000000
10
-11.770725
20
4.157865
30
32.405788
11
-8.758829
21
4.419060
31
39.355030
12
-10.361727
22
4.419060
32
39.860199
13
-10.361727
23
4.419060
33
39.860199
0
3DFACE
8
Tete
62
3.000000
10
-11.770725
20
4.157865
30
32.405788
11
-10.361727
21
4.419060
31
39.860199
12
-13.079687
22
4.419060
32
39.506577
13
-13.079687
23
4.419060
33
39.506577
0
3DFACE
8
Tete
62
3.000000
10
-11.770725
20
4.157865
30
32.405788
11
-13.079687
21
4.419060
31
39.506577
12
-14.046292
22
4.419060
32
36.690044
13
-14.046292
23
4.419060
33
36.690044
0
3DFACE
8
Tete
62
3.000000
10
-11.770725
20
4.157865
30
32.405788
11
-14.046292
21
4.419060
31
36.690044
12
-13.600924
22
4.419060
32
33.968349
13
-13.600924
23
4.419060
33
33.968349
0
3DFACE
8
Tete
62
3.000000
10
-12.254266
20
-3.814955
30
31.447193
11
-14.012557
21
-3.814955
31
33.702518
12
-14.682454
22
-3.814955
32
36.879925
13
-14.682454
23
-3.814955
33
36.879925
0
3DFACE
8
Tete
62
3.000000
10
-12.254266
20
-3.814955
30
31.447193
11
-14.682454
21
-3.814955
31
36.879925
12
-13.551195
22
-3.814955
32
40.043663
13
-13.551195
23
-3.814955
33
40.043663
0
3DFACE
8
Tete
62
3.000000
10
-12.254266
20
-3.814955
30
31.447193
11
-13.551195
21
-3.814955
31
40.043663
12
-10.249463
22
-3.814955
32
40.473228
13
-10.249463
23
-3.814955
33
40.473228
0
3DFACE
8
Tete
62
3.000000
10
-12.254266
20
-3.814955
30
31.447193
11
-10.249463
21
-3.814955
31
40.473228
12
-8.302288
22
-3.814955
32
39.859558
13
-8.302288
23
-3.814955
33
39.859558
0
3DFACE
8
Tete
62
3.000000
10
-12.254266
20
-3.814955
30
31.447193
11
-8.302288
21
-3.814955
31
39.859558
12
-6.655689
22
-3.814955
32
38.509487
13
-6.655689
23
-3.814955
33
38.509487
0
3DFACE
8
Tete
62
3.000000
10
-12.254266
20
-3.814955
30
31.447193
11
-6.655689
21
-3.814955
31
38.509487
12
-5.525010
22
-3.814955
32
37.182148
13
-5.525010
23
-3.814955
33
37.182148
0
3DFACE
8
Tete
62
3.000000
10
-12.254266
20
-3.814955
30
31.447193
11
-5.525010
21
-3.814955
31
37.182148
12
-5.633091
22
-3.814955
32
35.669384
13
-5.633091
23
-3.814955
33
35.669384
0
3DFACE
8
Tete
62
3.000000
10
-12.254266
20
-3.814955
30
31.447193
11
-5.633091
21
-3.814955
31
35.669384
12
-5.441173
22
-3.814955
32
35.285549
13
-5.441173
23
-3.814955
33
35.285549
0
3DFACE
8
TabBord
62
4.000000
10
-0.261719
20
1.062033
30
30.574467
11
-1.022591
21
3.491377
31
26.049166
12
-0.474766
22
1.783626
32
30.565180
13
-0.261805
23
1.066054
33
30.576736
0
3DFACE
8
TabBord
62
4.000000
10
-1.022591
20
3.491377
30
26.049166
11
-2.014624
21
4.358562
31
24.631826
12
-1.055729
22
2.479641
32
30.541609
13
-0.474766
23
1.783626
33
30.565180
0
3DFACE
8
TabBord
62
4.000000
10
-2.014624
20
4.358562
30
24.631826
11
-3.227926
21
4.931935
31
23.634899
12
-1.917819
22
2.948459
32
30.522799
13
-1.055729
23
2.479641
33
30.541609
0
3DFACE
8
TabBord
62
4.000000
10
-3.227926
20
4.931935
30
23.634899
11
-4.629689
21
5.124225
31
23.198174
12
-4.945858
22
3.119515
32
30.480835
13
-1.917819
23
2.948459
33
30.522799
0
3DFACE
8
TabBord
62
4.000000
10
-4.629689
20
5.124225
30
23.198174
11
-7.412692
21
4.954134
31
25.511452
12
-7.983836
22
3.111158
32
30.295841
13
-4.945858
23
3.119515
33
30.480835
0
3DFACE
8
TabBord
62
4.000000
10
-7.412692
20
4.954134
30
25.511452
11
-8.997068
21
4.709539
31
25.726362
12
-11.011230
22
2.938257
32
30.256084
13
-7.983836
23
3.111158
33
30.295841
0
3DFACE
8
TabBord
62
4.000000
10
-8.997068
20
4.709539
30
25.726362
11
-10.278436
21
4.091369
31
26.533966
12
-11.870045
22
2.469069
32
30.221766
13
-11.011230
23
2.938257
33
30.256084
0
3DFACE
8
TabBord
62
4.000000
10
-10.278436
20
4.091369
30
26.533966
11
-11.294914
21
3.191223
31
27.797951
12
-12.448862
22
1.773845
32
30.196484
13
-11.870045
23
2.469069
33
30.221766
0
3DFACE
8
TabBord
62
4.000000
10
-11.294914
20
3.191223
30
27.797951
11
-12.660945
21
0.922835
31
30.183828
12
-12.448862
22
1.773845
32
30.196484
13
-12.448862
23
1.773845
33
30.196484
0
3DFACE
8
TabBord
62
4.000000
10
-0.261321
20
-1.061229
30
30.563995
11
-1.022232
21
-3.490572
31
26.024841
12
-1.022591
22
3.491377
32
26.049166
13
-0.261719
23
1.062033
33
30.574467
0
3DFACE
8
TabBord
62
4.000000
10
-1.022232
20
-3.490572
30
26.024841
11
-2.014267
21
-4.357757
31
24.607504
12
-2.014624
22
4.358562
32
24.631826
13
-1.022591
23
3.491377
33
26.049166
0
3DFACE
8
TabBord
62
4.000000
10
-2.014267
20
-4.357757
30
24.607504
11
-3.227570
21
-4.931129
31
23.610571
12
-3.227926
22
4.931935
32
23.634899
13
-2.014624
23
4.358562
33
24.631826
0
3DFACE
8
TabBord
62
4.000000
10
-3.227570
20
-4.931129
30
23.610571
11
-4.629331
21
-5.123421
31
23.173840
12
-4.629689
22
5.124225
32
23.198174
13
-3.227926
23
4.931935
33
23.634899
0
3DFACE
8
TabBord
62
4.000000
10
-4.629331
20
-5.123421
30
23.173840
11
-7.412335
21
-4.953329
31
25.487125
12
-7.412692
22
4.954134
32
25.511452
13
-4.629689
23
5.124225
33
23.198174
0
3DFACE
8
TabBord
62
4.000000
10
-7.412335
20
-4.953329
30
25.487125
11
-8.996710
21
-4.708735
31
25.702034
12
-8.997068
22
4.709539
32
25.726362
13
-7.412692
23
4.954134
33
25.511452
0
3DFACE
8
TabBord
62
4.000000
10
-8.996710
20
-4.708735
30
25.702034
11
-10.278077
21
-4.090563
31
26.509638
12
-10.278436
22
4.091369
32
26.533966
13
-8.997068
23
4.709539
33
25.726362
0
3DFACE
8
TabBord
62
4.000000
10
-10.278077
20
-4.090563
30
26.509638
11
-11.294558
21
-3.190418
31
27.773611
12
-11.294914
22
3.191223
32
27.797951
13
-10.278436
23
4.091369
33
26.533966
0
3DFACE
8
TabBord
62
4.000000
10
-11.294558
20
-3.190418
30
27.773611
11
-12.660547
21
-0.922031
31
30.173353
12
-12.660945
22
0.922835
32
30.183828
13
-11.294914
23
3.191223
33
27.797951
0
3DFACE
8
TabBord
62
4.000000
10
-0.260946
20
-1.077277
30
30.554111
11
-0.472532
21
-1.782821
31
30.506392
12
-1.022232
22
-3.490572
32
26.024841
13
-0.261321
23
-1.061229
33
30.563995
0
3DFACE
8
TabBord
62
4.000000
10
-0.472532
20
-1.782821
30
30.506392
11
-1.051966
21
-2.478836
31
30.442574
12
-2.014267
22
-4.357757
32
24.607504
13
-1.022232
23
-3.490572
33
26.024841
0
3DFACE
8
TabBord
62
4.000000
10
-1.051966
20
-2.478836
30
30.442574
11
-1.913336
21
-2.947653
31
30.404770
12
-3.227570
22
-4.931129
32
23.610571
13
-2.014267
23
-4.357757
33
24.607504
0
3DFACE
8
TabBord
62
4.000000
10
-1.913336
20
-2.947653
30
30.404770
11
-4.943937
21
-3.118711
31
30.364513
12
-4.629331
22
-5.123421
32
23.173840
13
-3.227570
23
-4.931129
33
23.610571
0
3DFACE
8
TabBord
62
4.000000
10
-4.943937
20
-3.118711
30
30.364513
11
-7.982177
21
-3.110353
31
30.195375
12
-7.412335
22
-4.953329
32
25.487125
13
-4.629331
23
-5.123421
33
23.173840
0
3DFACE
8
TabBord
62
4.000000
10
-7.982177
20
-3.110353
30
30.195375
11
-11.008451
21
-2.937453
31
30.182945
12
-8.996710
22
-4.708735
32
25.702034
13
-7.412335
23
-4.953329
33
25.487125
0
3DFACE
8
TabBord
62
4.000000
10
-11.008451
20
-2.937453
30
30.182945
11
-11.868255
21
-2.468265
31
30.174660
12
-10.278077
22
-4.090563
32
26.509638
13
-8.996710
23
-4.708735
33
25.702034
0
3DFACE
8
TabBord
62
4.000000
10
-11.868255
20
-2.468265
30
30.174660
11
-12.447902
21
-1.773040
31
30.171227
12
-11.294558
22
-3.190418
32
27.773611
13
-10.278077
23
-4.090563
33
26.509638
0
3DFACE
8
TabBord
62
4.000000
10
-12.447902
20
-1.773040
30
30.171227
11
-12.660547
21
-0.922031
31
30.173353
12
-11.294558
22
-3.190418
32
27.773611
13
-11.294558
23
-3.190418
33
27.773611
0
3DFACE
8
TabBord
62
4.000000
10
-2.497205
20
3.182784
30
27.391245
11
-2.347975
21
3.071003
31
30.336403
12
-2.347975
22
-3.133784
32
30.336403
13
-2.497205
23
-3.293494
33
27.391245
0
3DFACE
8
PRG1
62
5.000000
10
-0.155115
20
-10.512583
30
-1.967486
11
-0.155115
21
-11.778618
31
-1.715657
12
5.020782
22
-11.750521
32
-1.574413
13
5.020782
23
-10.484489
33
-1.826243
0
3DFACE
8
PRG1
62
5.000000
10
-9.981781
20
-5.595128
30
16.906668
11
-0.155115
21
-11.778618
31
-1.715657
12
-0.155115
22
-10.512583
32
-1.967486
13
-9.981781
23
-4.827629
33
15.934419
0
3DFACE
8
PRG1
62
5.000000
10
-5.907159
20
-5.703280
30
16.362951
11
5.020782
21
-11.750521
31
-1.574413
12
-0.155115
22
-11.778618
32
-1.715657
13
-9.981781
23
-5.595128
33
16.906668
0
3DFACE
8
PRG1
62
5.000000
10
-5.907159
20
-4.935781
30
15.390700
11
5.020782
21
-10.484489
31
-1.826243
12
5.020782
22
-11.750521
32
-1.574413
13
-5.907159
23
-5.703280
33
16.362951
0
3DFACE
8
PRG1
62
5.000000
10
-9.981781
20
-4.827629
30
15.934419
11
-0.155115
21
-10.512583
31
-1.967486
12
5.020782
22
-10.484489
32
-1.826243
13
-5.907159
23
-4.935781
33
15.390700
0
3DFACE
8
PRD1
62
6.000000
10
-9.981781
20
5.455927
30
15.934419
11
-0.155115
21
11.140882
31
-1.967486
12
-0.155115
22
12.406915
32
-1.715657
13
-9.981781
23
6.223426
33
16.906668
0
3DFACE
8
PRD1
62
6.000000
10
-9.981781
20
6.223426
30
16.906668
11
-0.155115
21
12.406915
31
-1.715657
12
5.020782
22
12.378820
32
-1.574413
13
-5.907159
23
6.331578
33
16.362951
0
3DFACE
8
PRD1
62
6.000000
10
-5.907159
20
6.331578
30
16.362951
11
5.020782
21
12.378820
31
-1.574413
12
5.020782
22
11.112787
32
-1.826243
13
-5.907159
23
5.564079
33
15.390700
0
3DFACE
8
PRD1
62
6.000000
10
-5.907159
20
5.564079
30
15.390700
11
5.020782
21
11.112787
31
-1.826243
12
-0.155115
22
11.140882
32
-1.967486
13
-9.981781
23
5.455927
33
15.934419
0
3DFACE
8
PRD1
62
6.000000
10
5.020782
20
11.112787
30
-1.826243
11
5.020782
21
12.378820
31
-1.574413
12
-0.155115
22
12.406915
32
-1.715657
13
-0.155115
23
11.140882
33
-1.967486
0
3DFACE
8
Gouv
62
7.000000
10
-47.024734
20
-0.551861
30
42.409519
11
-28.511600
21
-0.551861
31
28.153576
12
-47.024734
22
-0.551861
32
24.807961
13
-47.024734
23
-0.551861
33
24.807961
0
3DFACE
8
Gouv
62
7.000000
10
-47.024750
20
1.075214
30
42.409534
11
-47.024750
21
1.075214
31
24.807951
12
-28.511583
22
1.075214
32
28.153570
13
-28.511583
23
1.075214
33
28.153570
0
3DFACE
8
Gouv
62
7.000000
10
-28.511583
20
1.075214
30
28.153570
11
-27.577482
21
0.276922
31
28.258905
12
-47.859062
22
0.276922
32
43.121048
13
-47.024750
23
1.075214
33
42.409534
0
3DFACE
8
Gouv
62
7.000000
10
-47.024750
20
1.075214
30
42.409534
11
-47.859062
21
0.276922
31
43.121048
12
-47.859062
22
0.276922
32
24.331202
13
-47.024750
23
1.075214
33
24.807951
0
3DFACE
8
Gouv
62
7.000000
10
-27.577482
20
0.276922
30
28.258905
11
-28.511600
21
-0.551861
31
28.153576
12
-47.024734
22
-0.551861
32
42.409519
13
-47.859062
23
0.276922
33
43.121048
0
3DFACE
8
Gouv
62
7.000000
10
-47.859062
20
0.276922
30
43.121048
11
-47.024734
21
-0.551861
31
42.409519
12
-47.024734
22
-0.551861
32
24.807961
13
-47.859062
23
0.276922
33
24.331202
0
3DFACE
8
Gouv
62
7.000000
10
-47.742641
20
0.276922
30
20.392391
11
-47.742645
21
0.276922
31
43.183105
12
-50.939720
22
0.276922
32
42.234016
13
-50.939716
23
0.276922
33
21.028326
0
3DFACE
8
Gouv
62
7.000000
10
-50.939716
20
0.276922
30
21.028326
11
-50.939720
21
0.276922
31
42.234016
12
-53.650066
22
0.276922
32
39.531235
13
-53.650063
23
0.276922
33
22.839321
0
3DFACE
8
Gouv
62
7.000000
10
-53.650063
20
0.276922
30
22.839321
11
-53.650066
21
0.276922
31
39.531235
12
-55.461060
22
0.276922
32
35.486240
13
-55.461060
23
0.276922
33
35.486240
0
3DFACE
8
Gouv
62
7.000000
10
-53.650063
20
0.276922
30
22.839321
11
-55.461060
21
0.276922
31
35.486240
12
-56.096996
22
0.276922
32
28.746738
13
-56.096996
23
0.276922
33
28.746738
0
3DFACE
8
Gouv
62
7.000000
10
-53.650063
20
0.276922
30
22.839321
11
-56.096996
21
0.276922
31
28.746738
12
-55.461056
22
0.276922
32
25.549664
13
-55.461056
23
0.276922
33
25.549664
0
3DFACE
8
Form41
62
8.000000
10
-43.936916
20
-1.014632
30
18.182724
11
-43.964634
21
-1.014632
31
15.161408
12
-43.964634
22
-0.072203
32
15.161408
13
-43.936916
23
-0.072203
33
18.182724
0
3DFACE
8
Form41
62
8.000000
10
-43.964634
20
-1.014632
30
15.161408
11
-42.661865
21
-1.014632
31
14.773350
12
-42.661865
22
-0.072203
32
14.773350
13
-43.964634
23
-0.072203
33
15.161408
0
3DFACE
8
Form41
62
8.000000
10
-42.661865
20
-1.014632
30
14.773350
11
-38.088314
21
-1.014632
31
17.323450
12
-38.088314
22
-0.072203
32
17.323450
13
-42.661865
23
-0.072203
33
14.773350
0
3DFACE
8
Form41
62
8.000000
10
-38.088314
20
-1.014632
30
17.323450
11
-42.661865
21
-1.014632
31
14.773350
12
-43.964634
22
-1.014632
32
15.161408
13
-43.936916
23
-1.014632
33
18.182724
0
3DFACE
8
Form41
62
8.000000
10
-43.964634
20
-0.072203
30
15.161408
11
-42.661865
21
-0.072203
31
14.773350
12
-38.088314
22
-0.072203
32
17.323450
13
-43.936916
23
-0.072203
33
18.182724
0
3DFACE
8
StabG
62
9.000000
10
-45.805122
20
-22.018959
30
20.180353
11
-27.291986
21
-7.815112
31
20.180349
12
-45.805122
22
-1.598603
32
20.180349
13
-45.805122
23
-1.598603
33
20.180349
0
3DFACE
8
StabG
62
9.000000
10
-45.805134
20
-22.018970
30
21.807428
11
-45.805134
21
-1.598596
31
21.807425
12
-27.291967
22
-7.815105
32
21.807425
13
-27.291967
23
-7.815105
33
21.807425
0
3DFACE
8
StabG
62
9.000000
10
-27.291967
20
-7.815105
30
21.807425
11
-26.357866
21
-7.956686
31
21.009132
12
-46.639446
22
-22.755484
32
21.009136
13
-45.805134
23
-22.018970
33
21.807428
0
3DFACE
8
StabG
62
9.000000
10
-45.805134
20
-22.018970
30
21.807428
11
-46.639446
21
-22.755484
31
21.009136
12
-46.639446
22
-1.280348
32
21.009132
13
-45.805134
23
-1.598596
33
21.807425
0
3DFACE
8
StabG
62
9.000000
10
-26.357866
20
-7.956686
30
21.009132
11
-27.291986
21
-7.815112
31
20.180349
12
-45.805122
22
-22.018959
32
20.180353
13
-46.639446
23
-22.755484
33
21.009136
0
3DFACE
8
StabG
62
9.000000
10
-46.639446
20
-22.755484
30
21.009136
11
-45.805122
21
-22.018959
31
20.180353
12
-45.805122
22
-1.598603
32
20.180349
13
-46.639446
23
-1.280348
33
21.009132
0
3DFACE
8
ProfG
62
10.000000
10
-46.664406
20
-21.700760
30
21.530243
11
-46.430000
21
-22.698002
31
21.003592
12
-48.629505
22
-20.890535
32
21.003592
13
-48.638908
23
-20.078201
33
21.530243
0
3DFACE
8
ProfG
62
10.000000
10
-48.638908
20
-20.078201
30
21.530243
11
-48.629505
21
-20.890535
31
21.003592
12
-50.257374
22
-18.114162
32
21.003592
13
-50.100243
23
-17.585855
33
21.530243
0
3DFACE
8
ProfG
62
10.000000
10
-50.100243
20
-17.585855
30
21.530243
11
-50.257374
21
-18.114162
31
21.003592
12
-51.114342
22
-14.708748
32
21.003592
13
-50.869537
23
-14.528817
33
21.530243
0
3DFACE
8
ProfG
62
10.000000
10
-50.869537
20
-14.528817
30
21.530243
11
-51.114342
21
-14.708748
31
21.003592
12
-51.095501
22
-4.736780
32
21.003592
13
-50.852623
23
-4.818946
33
21.530243
0
3DFACE
8
ProfG
62
10.000000
10
-50.852623
20
-4.818946
30
21.530243
11
-51.095501
21
-4.736780
31
21.003592
12
-50.203156
22
-3.273289
32
21.003592
13
-50.051563
23
-3.505172
33
21.530243
0
3DFACE
8
ProfG
62
10.000000
10
-50.051563
20
-3.505172
30
21.530243
11
-50.203156
21
-3.273289
31
21.003592
12
-48.546535
22
-2.088621
32
21.003592
13
-48.564423
23
-2.441697
33
21.530243
0
3DFACE
8
ProfG
62
10.000000
10
-48.564423
20
-2.441697
30
21.530243
11
-48.546535
21
-2.088621
31
21.003592
12
-46.328449
22
-1.327797
32
21.003592
13
-46.573246
23
-1.758706
33
21.530243
0
3DFACE
8
ProfG
62
10.000000
10
-46.430000
20
-22.698002
30
21.003592
11
-46.669800
21
-21.677849
31
20.504660
12
-48.639122
22
-20.059538
32
20.504660
13
-48.629505
23
-20.890535
33
21.003592
0
3DFACE
8
ProfG
62
10.000000
10
-48.629505
20
-20.890535
30
21.003592
11
-48.639122
21
-20.059538
31
20.504660
12
-50.096638
22
-17.573715
32
20.504660
13
-50.257374
23
-18.114162
33
21.003592
0
3DFACE
8
ProfG
62
10.000000
10
-50.257374
20
-18.114162
30
21.003592
11
-50.096638
21
-17.573715
31
20.504660
12
-50.863918
22
-14.524685
32
20.504660
13
-51.114342
23
-14.708748
33
21.003592
0
3DFACE
8
ProfG
62
10.000000
10
-51.114342
20
-14.708748
30
21.003592
11
-50.863918
21
-14.524685
31
20.504660
12
-50.847050
22
-4.820834
32
20.504660
13
-51.095501
23
-4.736780
33
21.003592
0
3DFACE
8
ProfG
62
10.000000
10
-51.095501
20
-4.736780
30
21.003592
11
-50.847050
21
-4.820834
31
20.504660
12
-50.048088
22
-3.510499
32
20.504660
13
-50.203156
23
-3.273289
33
21.003592
0
3DFACE
8
ProfG
62
10.000000
10
-50.203156
20
-3.273289
30
21.003592
11
-50.048088
21
-3.510499
31
20.504660
12
-48.564838
22
-2.449808
32
20.504660
13
-48.546535
23
-2.088621
33
21.003592
0
3DFACE
8
ProfG
62
10.000000
10
-48.546535
20
-2.088621
30
21.003592
11
-48.564838
21
-2.449808
31
20.504660
12
-46.578865
22
-1.768606
32
20.504660
13
-46.328449
23
-1.327797
33
21.003592
0
3DFACE
8
ProfG
62
10.000000
10
-46.664406
20
-21.700760
30
21.530243
11
-48.638908
21
-20.078201
31
21.530243
12
-48.564423
22
-2.441697
32
21.530243
13
-46.573246
23
-1.758706
33
21.530243
0
3DFACE
8
ProfG
62
10.000000
10
-48.638908
20
-20.078201
30
21.530243
11
-50.100243
21
-17.585855
31
21.530243
12
-50.051563
22
-3.505172
32
21.530243
13
-48.564423
23
-2.441697
33
21.530243
0
3DFACE
8
ProfG
62
10.000000
10
-50.869537
20
-14.528817
30
21.530243
11
-50.852623
21
-4.818946
31
21.530243
12
-50.051563
22
-3.505172
32
21.530243
13
-50.100243
23
-17.585855
33
21.530243
0
3DFACE
8
ProfG
62
10.000000
10
-46.254017
20
-21.995226
30
20.504660
11
-46.163090
21
-1.631467
31
20.504660
12
-48.149055
22
-2.337440
32
20.504660
13
-48.223339
23
-20.318066
33
20.504660
0
3DFACE
8
ProfG
62
10.000000
10
-48.149055
20
-2.337440
30
20.504660
11
-49.632313
21
-3.436702
31
20.504660
12
-49.680859
22
-17.741854
32
20.504660
13
-48.223339
23
-20.318066
33
20.504660
0
3DFACE
8
ProfG
62
10.000000
10
-49.632313
20
-3.436702
30
20.504660
11
-50.431274
21
-4.794683
31
20.504660
12
-50.448143
22
-14.581949
32
20.504660
13
-49.680859
23
-17.741854
33
20.504660
0
3DFACE
8
ProfD
62
11.000000
10
-48.638908
20
20.274460
30
21.530243
11
-48.629505
21
21.086796
31
21.003592
12
-46.430000
22
22.894266
32
21.003592
13
-46.664406
23
21.897024
33
21.530243
0
3DFACE
8
ProfD
62
11.000000
10
-50.100243
20
17.782116
30
21.530243
11
-50.257374
21
18.310425
31
21.003592
12
-48.629505
22
21.086796
32
21.003592
13
-48.638908
23
20.274460
33
21.530243
0
3DFACE
8
ProfD
62
11.000000
10
-50.869537
20
14.725080
30
21.530243
11
-51.114342
21
14.905011
31
21.003592
12
-50.257374
22
18.310425
32
21.003592
13
-50.100243
23
17.782116
33
21.530243
0
3DFACE
8
ProfD
62
11.000000
10
-50.852623
20
5.015206
30
21.530243
11
-51.095501
21
4.933041
31
21.003592
12
-51.114342
22
14.905011
32
21.003592
13
-50.869537
23
14.725080
33
21.530243
0
3DFACE
8
ProfD
62
11.000000
10
-50.051563
20
3.701433
30
21.530243
11
-50.203156
21
3.469550
31
21.003592
12
-51.095501
22
4.933041
32
21.003592
13
-50.852623
23
5.015206
33
21.530243
0
3DFACE
8
ProfD
62
11.000000
10
-48.564423
20
2.637958
30
21.530243
11
-48.546535
21
2.284882
31
21.003592
12
-50.203156
22
3.469550
32
21.003592
13
-50.051563
23
3.701433
33
21.530243
0
3DFACE
8
ProfD
62
11.000000
10
-46.573246
20
1.954967
30
21.530243
11
-46.328449
21
1.524058
31
21.003592
12
-48.546535
22
2.284882
32
21.003592
13
-48.564423
23
2.637958
33
21.530243
0
3DFACE
8
ProfD
62
11.000000
10
-48.629505
20
21.086796
30
21.003592
11
-48.639122
21
20.255798
31
20.504660
12
-46.669800
22
21.874109
32
20.504660
13
-46.430000
23
22.894266
33
21.003592
0
3DFACE
8
ProfD
62
11.000000
10
-50.257374
20
18.310425
30
21.003592
11
-50.096638
21
17.769978
31
20.504660
12
-48.639122
22
20.255798
32
20.504660
13
-48.629505
23
21.086796
33
21.003592
0
3DFACE
8
ProfD
62
11.000000
10
-51.114342
20
14.905011
30
21.003592
11
-50.863918
21
14.720946
31
20.504660
12
-50.096638
22
17.769978
32
20.504660
13
-50.257374
23
18.310425
33
21.003592
0
3DFACE
8
ProfD
62
11.000000
10
-51.095501
20
4.933041
30
21.003592
11
-50.847050
21
5.017095
31
20.504660
12
-50.863918
22
14.720946
32
20.504660
13
-51.114342
23
14.905011
33
21.003592
0
3DFACE
8
ProfD
62
11.000000
10
-50.203156
20
3.469550
30
21.003592
11
-50.048088
21
3.706760
31
20.504660
12
-50.847050
22
5.017095
32
20.504660
13
-51.095501
23
4.933041
33
21.003592
0
3DFACE
8
ProfD
62
11.000000
10
-48.546535
20
2.284882
30
21.003592
11
-48.564838
21
2.646069
31
20.504660
12
-50.048088
22
3.706760
32
20.504660
13
-50.203156
23
3.469550
33
21.003592
0
3DFACE
8
ProfD
62
11.000000
10
-46.328449
20
1.524058
30
21.003592
11
-46.578865
21
1.964867
31
20.504660
12
-48.564838
22
2.646069
32
20.504660
13
-48.546535
23
2.284882
33
21.003592
0
3DFACE
8
ProfD
62
11.000000
10
-46.573246
20
1.954967
30
21.530243
11
-48.564423
21
2.637958
31
21.530243
12
-48.638908
22
20.274460
32
21.530243
13
-46.664406
23
21.897024
33
21.530243
0
3DFACE
8
ProfD
62
11.000000
10
-48.564423
20
2.637958
30
21.530243
11
-50.051563
21
3.701433
31
21.530243
12
-50.100243
22
17.782116
32
21.530243
13
-48.638908
23
20.274460
33
21.530243
0
3DFACE
8
ProfD
62
11.000000
10
-50.100243
20
17.782116
30
21.530243
11
-50.051563
21
3.701433
31
21.530243
12
-50.852623
22
5.015206
32
21.530243
13
-50.869537
23
14.725080
33
21.530243
0
3DFACE
8
ProfD
62
11.000000
10
-48.223339
20
20.514328
30
20.504660
11
-48.149055
21
2.533701
31
20.504660
12
-46.163090
22
1.827728
32
20.504660
13
-46.254017
23
22.191490
33
20.504660
0
3DFACE
8
ProfD
62
11.000000
10
-48.223339
20
20.514328
30
20.504660
11
-49.680859
21
17.938116
31
20.504660
12
-49.632313
22
3.632962
32
20.504660
13
-48.149055
23
2.533701
33
20.504660
0
3DFACE
8
ProfD
62
11.000000
10
-49.680859
20
17.938116
30
20.504660
11
-50.448143
21
14.778211
31
20.504660
12
-50.431274
22
4.990944
32
20.504660
13
-49.632313
23
3.632962
33
20.504660
0
3DFACE
8
StabD
62
12.000000
10
-45.805122
20
1.794864
30
20.180349
11
-27.291986
21
8.011374
31
20.180349
12
-45.805122
22
22.215218
32
20.180353
13
-45.805122
23
22.215218
33
20.180353
0
3DFACE
8
StabD
62
12.000000
10
-27.291967
20
8.011367
30
21.807425
11
-45.805134
21
1.794857
31
21.807425
12
-45.805134
22
22.215233
32
21.807428
13
-45.805134
23
22.215233
33
21.807428
0
3DFACE
8
StabD
62
12.000000
10
-45.805134
20
22.215233
30
21.807428
11
-46.639446
21
22.951742
31
21.009136
12
-26.357866
22
8.152946
32
21.009132
13
-27.291967
23
8.011367
33
21.807425
0
3DFACE
8
StabD
62
12.000000
10
-45.805134
20
1.794857
30
21.807425
11
-46.639446
21
1.476610
31
21.009132
12
-46.639446
22
22.951742
32
21.009136
13
-45.805134
23
22.215233
33
21.807428
0
3DFACE
8
StabD
62
12.000000
10
-46.639446
20
22.951742
30
21.009136
11
-45.805122
21
22.215218
31
20.180353
12
-27.291986
22
8.011374
32
20.180349
13
-26.357866
23
8.152946
33
21.009132
0
3DFACE
8
StabD
62
12.000000
10
-46.639446
20
1.476610
30
21.009132
11
-45.805122
21
1.794864
31
20.180349
12
-45.805122
22
22.215218
32
20.180353
13
-46.639446
23
22.951742
33
21.009136
0
3DFACE
8
RoueD
62
13.000000
10
3.919775
20
11.986262
30
0.399109
11
3.440131
21
11.729170
31
1.691600
12
7.522051
22
11.741068
32
5.329306
13
9.299430
23
12.693750
33
0.539838
0
3DFACE
8
RoueD
62
13.000000
10
3.440131
20
11.729170
30
1.691600
11
2.225628
21
11.592374
31
2.379320
12
3.021579
22
11.234156
32
7.877725
13
7.522051
23
11.741068
33
5.329306
0
3DFACE
8
RoueD
62
13.000000
10
2.225628
20
11.592374
30
2.379320
11
0.844547
21
11.639882
31
2.140477
12
-2.096170
22
11.410205
32
6.992668
13
3.021579
23
11.234156
33
7.877725
0
3DFACE
8
RoueD
62
13.000000
10
0.844547
20
11.639882
30
2.140477
11
-0.056889
21
11.849466
31
1.086830
12
-5.436542
22
12.186839
32
3.088260
13
-2.096170
23
11.410205
33
6.992668
0
3DFACE
8
RoueD
62
13.000000
10
-0.056889
20
11.849466
30
1.086830
11
-0.056889
21
12.123058
31
-0.288611
12
-5.436542
22
13.200665
32
-2.008585
13
-5.436542
23
12.186839
33
3.088260
0
3DFACE
8
RoueD
62
13.000000
10
-0.056889
20
12.123058
30
-0.288611
11
0.844547
21
12.332641
31
-1.342259
12
-2.096170
22
13.977298
32
-5.912995
13
-5.436542
23
13.200665
33
-2.008585
0
3DFACE
8
RoueD
62
13.000000
10
0.844547
20
12.332641
30
-1.342259
11
2.225628
21
12.380150
31
-1.581101
12
3.021579
22
14.153345
32
-6.798054
13
-2.096170
23
13.977298
33
-5.912995
0
3DFACE
8
RoueD
62
13.000000
10
2.225628
20
12.380150
30
-1.581101
11
3.440131
21
12.243354
31
-0.893381
12
7.522051
22
13.646435
32
-4.249631
13
3.021579
23
14.153345
33
-6.798054
0
3DFACE
8
RoueD
62
13.000000
10
3.440131
20
12.243354
30
-0.893381
11
3.919775
21
11.986262
31
0.399109
12
9.299430
22
12.693750
32
0.539838
13
7.522051
23
13.646435
33
-4.249631
0
3DFACE
8
RoueD
62
13.000000
10
9.299430
20
12.693750
30
0.539838
11
7.522051
21
11.741068
31
5.329306
12
8.046173
22
11.391099
32
5.726471
13
9.990179
23
12.433098
33
0.487990
0
3DFACE
8
RoueD
62
13.000000
10
7.522051
20
11.741068
30
5.329306
11
3.021579
21
11.234156
31
7.877725
12
3.123779
22
10.836664
32
8.513806
13
8.046173
23
11.391099
33
5.726471
0
3DFACE
8
RoueD
62
13.000000
10
3.021579
20
11.234156
30
7.877725
11
-2.096170
21
11.410205
31
6.992668
12
-2.473759
22
11.029217
32
7.545773
13
3.123779
23
10.836664
33
8.513806
0
3DFACE
8
RoueD
62
13.000000
10
-2.096170
20
11.410205
30
6.992668
11
-5.436542
21
12.186839
31
3.088260
12
-6.127292
22
11.878660
32
3.275328
13
-2.473759
23
11.029217
33
7.545773
0
3DFACE
8
RoueD
62
13.000000
10
-5.436542
20
12.186839
30
3.088260
11
-5.436542
21
13.200665
31
-2.008585
12
-6.127292
22
12.987533
32
-2.299348
13
-6.127292
23
11.878660
33
3.275328
0
3DFACE
8
RoueD
62
13.000000
10
-5.436542
20
13.200665
30
-2.008585
11
-2.096170
21
13.977298
31
-5.912995
12
-2.473759
22
13.836977
32
-6.569797
13
-6.127292
23
12.987533
33
-2.299348
0
3DFACE
8
RoueD
62
13.000000
10
-2.096170
20
13.977298
30
-5.912995
11
3.021579
21
14.153345
31
-6.798054
12
3.123779
22
14.029531
32
-7.537829
13
-2.473759
23
13.836977
33
-6.569797
0
3DFACE
8
RoueD
62
13.000000
10
3.021579
20
14.153345
30
-6.798054
11
7.522051
21
13.646435
31
-4.249631
12
8.046173
22
13.475096
32
-4.750492
13
3.123779
23
14.029531
33
-7.537829
0
3DFACE
8
RoueD
62
13.000000
10
7.522051
20
13.646435
30
-4.249631
11
9.299430
21
12.693750
31
0.539838
12
9.990179
22
12.433098
32
0.487990
13
8.046173
23
13.475096
33
-4.750492
0
3DFACE
8
RoueD
62
13.000000
10
9.990179
20
12.433098
30
0.487990
11
8.046173
21
11.391099
31
5.726471
12
9.036175
22
12.153301
32
6.759773
13
11.294923
23
13.364004
33
0.673159
0
3DFACE
8
RoueD
62
13.000000
10
8.046173
20
11.391099
30
5.726471
11
3.123779
21
10.836664
31
8.513806
12
3.316824
22
11.509100
32
9.998392
13
9.036175
23
12.153301
33
6.759773
0
3DFACE
8
RoueD
62
13.000000
10
3.123779
20
10.836664
30
8.513806
11
-2.473759
21
11.029217
31
7.545773
12
-3.186982
22
11.732830
32
8.873629
13
3.316824
23
11.509100
33
9.998392
0
3DFACE
8
RoueD
62
13.000000
10
-2.473759
20
11.029217
30
7.545773
11
-6.127292
21
11.878660
31
3.275328
12
-7.432037
22
12.719801
32
3.911779
13
-3.186982
23
11.732830
33
8.873629
0
3DFACE
8
RoueD
62
13.000000
10
-6.127292
20
11.878660
30
3.275328
11
-6.127292
21
12.987533
31
-2.299348
12
-7.432037
22
14.008205
32
-2.565462
13
-7.432037
23
12.719801
33
3.911779
0
3DFACE
8
RoueD
62
13.000000
10
-6.127292
20
12.987533
30
-2.299348
11
-2.473759
21
13.836977
31
-6.569797
12
-3.186982
22
14.995177
32
-7.527314
13
-7.432037
23
14.008205
33
-2.565462
0
3DFACE
8
RoueD
62
13.000000
10
-2.473759
20
13.836977
30
-6.569797
11
3.123779
21
14.029531
31
-7.537829
12
3.316824
22
15.218906
32
-8.652077
13
-3.186982
23
14.995177
33
-7.527314
0
3DFACE
8
RoueD
62
13.000000
10
3.123779
20
14.029531
30
-7.537829
11
8.046173
21
13.475096
31
-4.750492
12
9.036175
22
14.574705
32
-5.413457
13
3.316824
23
15.218906
33
-8.652077
0
3DFACE
8
RoueD
62
13.000000
10
8.046173
20
13.475096
30
-4.750492
11
9.990179
21
12.433098
31
0.487990
12
11.294923
22
13.364004
32
0.673159
13
9.036175
23
14.574705
33
-5.413457
0
3DFACE
8
RoueD
62
13.000000
10
11.294923
20
13.364004
30
0.673159
11
9.036175
21
12.153301
31
6.759773
12
8.133524
22
13.238026
32
6.171643
13
10.105302
23
14.294910
33
0.858327
0
3DFACE
8
RoueD
62
13.000000
10
9.036175
20
12.153301
30
6.759773
11
3.316824
21
11.509100
31
9.998392
12
3.140812
22
12.675672
32
8.998797
13
8.133524
23
13.238026
33
6.171643
0
3DFACE
8
RoueD
62
13.000000
10
3.316824
20
11.509100
30
9.998392
11
-3.186982
21
11.732830
31
8.873629
12
-2.536690
22
12.870976
32
8.016935
13
3.140812
23
12.675672
33
8.998797
0
3DFACE
8
RoueD
62
13.000000
10
-3.186982
20
11.732830
30
8.873629
11
-7.432037
21
12.719801
31
3.911779
12
-6.242414
22
13.732555
32
3.685484
13
-2.536690
23
12.870976
33
8.016935
0
3DFACE
8
RoueD
62
13.000000
10
-7.432037
20
12.719801
30
3.911779
11
-7.432037
21
14.008205
31
-2.565462
12
-6.242414
22
14.857265
32
-1.968829
13
-6.242414
23
13.732555
33
3.685484
0
3DFACE
8
RoueD
62
13.000000
10
-7.432037
20
14.008205
30
-2.565462
11
-3.186982
21
14.995177
31
-7.527314
12
-2.536690
22
15.718844
32
-6.300283
13
-6.242414
23
14.857265
33
-1.968829
0
3DFACE
8
RoueD
62
13.000000
10
-3.186982
20
14.995177
30
-7.527314
11
3.316824
21
15.218906
31
-8.652077
12
3.140812
22
15.914150
32
-7.282144
13
-2.536690
23
15.718844
33
-6.300283
0
3DFACE
8
RoueD
62
13.000000
10
3.316824
20
15.218906
30
-8.652077
11
9.036175
21
14.574705
31
-5.413457
12
8.133524
22
15.351793
32
-4.454989
13
3.140812
23
15.914150
33
-7.282144
0
3DFACE
8
RoueD
62
13.000000
10
9.036175
20
14.574705
30
-5.413457
11
11.294923
21
13.364004
31
0.673159
12
10.105302
22
14.294910
32
0.858327
13
8.133524
23
15.351793
33
-4.454989
0
3DFACE
8
RoueD
62
13.000000
10
10.105302
20
14.294910
30
0.858327
11
8.133524
21
13.238026
31
6.171643
12
7.405581
22
13.064183
32
5.488761
13
9.145929
23
13.997020
33
0.799074
0
3DFACE
8
RoueD
62
13.000000
10
8.133524
20
13.238026
30
6.171643
11
3.140812
21
12.675672
31
8.998797
12
2.998868
22
12.567834
32
7.984089
13
7.405581
23
13.064183
33
5.488761
0
3DFACE
8
RoueD
62
13.000000
10
3.140812
20
12.675672
30
8.998797
11
-2.536690
21
12.870976
31
8.016935
12
-2.012262
22
12.740212
32
7.117470
13
2.998868
23
12.567834
33
7.984089
0
3DFACE
8
RoueD
62
13.000000
10
-2.536690
20
12.870976
30
8.016935
11
-6.242414
21
13.732555
31
3.685484
12
-5.283042
22
13.500670
32
3.294404
13
-2.012262
23
12.740212
33
7.117470
0
3DFACE
8
RoueD
62
13.000000
10
-6.242414
20
13.732555
30
3.685484
11
-6.242414
21
14.857265
31
-1.968829
12
-5.283042
22
14.493373
32
-1.696257
13
-5.283042
23
13.500670
33
3.294404
0
3DFACE
8
RoueD
62
13.000000
10
-6.242414
20
14.857265
30
-1.968829
11
-2.536690
21
15.718844
31
-6.300283
12
-2.012262
22
15.253827
32
-5.519325
13
-5.283042
23
14.493373
33
-1.696257
0
3DFACE
8
RoueD
62
13.000000
10
-2.536690
20
15.718844
30
-6.300283
11
3.140812
21
15.914150
31
-7.282144
12
2.998868
22
15.426206
32
-6.385944
13
-2.012262
23
15.253827
33
-5.519325
0
3DFACE
8
RoueD
62
13.000000
10
3.140812
20
15.914150
30
-7.282144
11
8.133524
21
15.351793
31
-4.454989
12
7.405581
22
14.929856
32
-3.890614
13
2.998868
23
15.426206
33
-6.385944
0
3DFACE
8
RoueD
62
13.000000
10
8.133524
20
15.351793
30
-4.454989
11
10.105302
21
14.294910
31
0.858327
12
9.145929
22
13.997020
32
0.799074
13
7.405581
23
14.929856
33
-3.890614
0
3DFACE
8
RoueD
62
13.000000
10
9.145929
20
13.997020
30
0.799074
11
7.405581
21
13.064183
31
5.488761
12
3.183507
22
14.528382
32
2.019850
13
3.581565
23
14.741744
33
0.947208
0
3DFACE
8
RoueD
62
13.000000
10
7.405581
20
13.064183
30
5.488761
11
2.998868
21
12.567834
31
7.984089
12
2.175588
22
14.414857
32
2.590590
13
3.183507
23
14.528382
33
2.019850
0
3DFACE
8
RoueD
62
13.000000
10
2.998868
20
12.567834
30
7.984089
11
-2.012262
21
12.740212
31
7.117470
12
1.029425
22
14.454283
32
2.392374
13
2.175588
23
14.414857
33
2.590590
0
3DFACE
8
RoueD
62
13.000000
10
-2.012262
20
12.740212
30
7.117470
11
-5.283042
21
13.500670
31
3.294404
12
0.281322
22
14.628218
32
1.517950
13
1.029425
23
14.454283
33
2.392374
0
3DFACE
8
RoueD
62
13.000000
10
-5.283042
20
13.500670
30
3.294404
11
-5.283042
21
14.493373
31
-1.696257
12
0.281322
22
14.855273
32
0.376468
13
0.281322
23
14.628218
33
1.517950
0
3DFACE
8
RoueD
62
13.000000
10
-5.283042
20
14.493373
30
-1.696257
11
-2.012262
21
15.253827
31
-5.519325
12
1.029425
22
15.029208
32
-0.497957
13
0.281322
23
14.855273
33
0.376468
0
3DFACE
8
RoueD
62
13.000000
10
-2.012262
20
15.253827
30
-5.519325
11
2.998868
21
15.426206
31
-6.385944
12
2.175588
22
15.068634
32
-0.696174
13
1.029425
23
15.029208
33
-0.497957
0
3DFACE
8
RoueD
62
13.000000
10
2.998868
20
15.426206
30
-6.385944
11
7.405581
21
14.929856
31
-3.890614
12
3.183507
22
14.955109
32
-0.125433
13
2.175588
23
15.068634
33
-0.696174
0
3DFACE
8
RoueD
62
13.000000
10
7.405581
20
14.929856
30
-3.890614
11
9.145929
21
13.997020
31
0.799074
12
3.581565
22
14.741744
32
0.947208
13
3.183507
23
14.955109
33
-0.125433
0
3DFACE
8
RoueD
62
13.000000
10
3.581565
20
14.741744
30
0.947208
11
3.183507
21
14.528382
31
2.019850
12
2.175588
22
14.414857
32
2.590590
13
2.175588
23
14.414857
33
2.590590
0
3DFACE
8
RoueD
62
13.000000
10
3.581565
20
14.741744
30
0.947208
11
2.175588
21
14.414857
31
2.590590
12
1.029425
22
14.454283
32
2.392374
13
1.029425
23
14.454283
33
2.392374
0
3DFACE
8
RoueD
62
13.000000
10
3.581565
20
14.741744
30
0.947208
11
1.029425
21
14.454283
31
2.392374
12
0.281322
22
14.628218
32
1.517950
13
0.281322
23
14.628218
33
1.517950
0
3DFACE
8
RoueD
62
13.000000
10
3.581565
20
14.741744
30
0.947208
11
0.281322
21
14.628218
31
1.517950
12
0.281322
22
14.855273
32
0.376468
13
0.281322
23
14.855273
33
0.376468
0
3DFACE
8
RoueD
62
13.000000
10
3.581565
20
14.741744
30
0.947208
11
0.281322
21
14.855273
31
0.376468
12
1.029425
22
15.029208
32
-0.497957
13
1.029425
23
15.029208
33
-0.497957
0
3DFACE
8
RoueD
62
13.000000
10
3.581565
20
14.741744
30
0.947208
11
1.029425
21
15.029208
31
-0.497957
12
2.175588
22
15.068634
32
-0.696174
13
2.175588
23
15.068634
33
-0.696174
0
3DFACE
8
RoueD
62
13.000000
10
3.581565
20
14.741744
30
0.947208
11
2.175588
21
15.068634
31
-0.696174
12
3.183507
22
14.955109
32
-0.125433
13
3.183507
23
14.955109
33
-0.125433
0
3DFACE
8
RoueG
62
14.000000
10
9.299430
20
-12.065452
30
0.539838
11
7.522051
21
-11.112771
31
5.329306
12
3.440131
22
-11.100871
32
1.691600
13
3.919775
23
-11.357965
33
0.399109
0
3DFACE
8
RoueG
62
14.000000
10
7.522051
20
-11.112771
30
5.329306
11
3.021579
21
-10.605857
31
7.877725
12
2.225628
22
-10.964077
32
2.379320
13
3.440131
23
-11.100871
33
1.691600
0
3DFACE
8
RoueG
62
14.000000
10
3.021579
20
-10.605857
30
7.877725
11
-2.096170
21
-10.781906
31
6.992668
12
0.844547
22
-11.011583
32
2.140477
13
2.225628
23
-10.964077
33
2.379320
0
3DFACE
8
RoueG
62
14.000000
10
-2.096170
20
-10.781906
30
6.992668
11
-5.436542
21
-11.558540
31
3.088260
12
-0.056889
22
-11.221168
32
1.086830
13
0.844547
23
-11.011583
33
2.140477
0
3DFACE
8
RoueG
62
14.000000
10
-5.436542
20
-11.558540
30
3.088260
11
-5.436542
21
-12.572367
31
-2.008585
12
-0.056889
22
-11.494758
32
-0.288611
13
-0.056889
23
-11.221168
33
1.086830
0
3DFACE
8
RoueG
62
14.000000
10
-5.436542
20
-12.572367
30
-2.008585
11
-2.096170
21
-13.349001
31
-5.912995
12
0.844547
22
-11.704344
32
-1.342259
13
-0.056889
23
-11.494758
33
-0.288611
0
3DFACE
8
RoueG
62
14.000000
10
-2.096170
20
-13.349001
30
-5.912995
11
3.021579
21
-13.525048
31
-6.798054
12
2.225628
22
-11.751852
32
-1.581101
13
0.844547
23
-11.704344
33
-1.342259
0
3DFACE
8
RoueG
62
14.000000
10
3.021579
20
-13.525048
30
-6.798054
11
7.522051
21
-13.018138
31
-4.249631
12
3.440131
22
-11.615057
32
-0.893381
13
2.225628
23
-11.751852
33
-1.581101
0
3DFACE
8
RoueG
62
14.000000
10
7.522051
20
-13.018138
30
-4.249631
11
9.299430
21
-12.065452
31
0.539838
12
3.919775
22
-11.357965
32
0.399109
13
3.440131
23
-11.615057
33
-0.893381
0
3DFACE
8
RoueG
62
14.000000
10
9.990179
20
-11.804799
30
0.487990
11
8.046173
21
-10.762800
31
5.726471
12
7.522051
22
-11.112771
32
5.329306
13
9.299430
23
-12.065452
33
0.539838
0
3DFACE
8
RoueG
62
14.000000
10
8.046173
20
-10.762800
30
5.726471
11
3.123779
21
-10.208365
31
8.513806
12
3.021579
22
-10.605857
32
7.877725
13
7.522051
23
-11.112771
33
5.329306
0
3DFACE
8
RoueG
62
14.000000
10
3.123779
20
-10.208365
30
8.513806
11
-2.473759
21
-10.400919
31
7.545773
12
-2.096170
22
-10.781906
32
6.992668
13
3.021579
23
-10.605857
33
7.877725
0
3DFACE
8
RoueG
62
14.000000
10
-2.473759
20
-10.400919
30
7.545773
11
-6.127292
21
-11.250363
31
3.275328
12
-5.436542
22
-11.558540
32
3.088260
13
-2.096170
23
-10.781906
33
6.992668
0
3DFACE
8
RoueG
62
14.000000
10
-6.127292
20
-11.250363
30
3.275328
11
-6.127292
21
-12.359234
31
-2.299348
12
-5.436542
22
-12.572367
32
-2.008585
13
-5.436542
23
-11.558540
33
3.088260
0
3DFACE
8
RoueG
62
14.000000
10
-6.127292
20
-12.359234
30
-2.299348
11
-2.473759
21
-13.208680
31
-6.569797
12
-2.096170
22
-13.349001
32
-5.912995
13
-5.436542
23
-12.572367
33
-2.008585
0
3DFACE
8
RoueG
62
14.000000
10
-2.473759
20
-13.208680
30
-6.569797
11
3.123779
21
-13.401233
31
-7.537829
12
3.021579
22
-13.525048
32
-6.798054
13
-2.096170
23
-13.349001
33
-5.912995
0
3DFACE
8
RoueG
62
14.000000
10
3.123779
20
-13.401233
30
-7.537829
11
8.046173
21
-12.846797
31
-4.750492
12
7.522051
22
-13.018138
32
-4.249631
13
3.021579
23
-13.525048
33
-6.798054
0
3DFACE
8
RoueG
62
14.000000
10
8.046173
20
-12.846797
30
-4.750492
11
9.990179
21
-11.804799
31
0.487990
12
9.299430
22
-12.065452
32
0.539838
13
7.522051
23
-13.018138
33
-4.249631
0
3DFACE
8
RoueG
62
14.000000
10
11.294923
20
-12.735705
30
0.673159
11
9.036175
21
-11.525003
31
6.759773
12
8.046173
22
-10.762800
32
5.726471
13
9.990179
23
-11.804799
33
0.487990
0
3DFACE
8
RoueG
62
14.000000
10
9.036175
20
-11.525003
30
6.759773
11
3.316824
21
-10.880803
31
9.998392
12
3.123779
22
-10.208365
32
8.513806
13
8.046173
23
-10.762800
33
5.726471
0
3DFACE
8
RoueG
62
14.000000
10
3.316824
20
-10.880803
30
9.998392
11
-3.186982
21
-11.104531
31
8.873629
12
-2.473759
22
-10.400919
32
7.545773
13
3.123779
23
-10.208365
33
8.513806
0
3DFACE
8
RoueG
62
14.000000
10
-3.186982
20
-11.104531
30
8.873629
11
-7.432037
21
-12.091504
31
3.911779
12
-6.127292
22
-11.250363
32
3.275328
13
-2.473759
23
-10.400919
33
7.545773
0
3DFACE
8
RoueG
62
14.000000
10
-7.432037
20
-12.091504
30
3.911779
11
-7.432037
21
-13.379906
31
-2.565462
12
-6.127292
22
-12.359234
32
-2.299348
13
-6.127292
23
-11.250363
33
3.275328
0
3DFACE
8
RoueG
62
14.000000
10
-7.432037
20
-13.379906
30
-2.565462
11
-3.186982
21
-14.366879
31
-7.527314
12
-2.473759
22
-13.208680
32
-6.569797
13
-6.127292
23
-12.359234
33
-2.299348
0
3DFACE
8
RoueG
62
14.000000
10
-3.186982
20
-14.366879
30
-7.527314
11
3.316824
21
-14.590610
31
-8.652077
12
3.123779
22
-13.401233
32
-7.537829
13
-2.473759
23
-13.208680
33
-6.569797
0
3DFACE
8
RoueG
62
14.000000
10
3.316824
20
-14.590610
30
-8.652077
11
9.036175
21
-13.946406
31
-5.413457
12
8.046173
22
-12.846797
32
-4.750492
13
3.123779
23
-13.401233
33
-7.537829
0
3DFACE
8
RoueG
62
14.000000
10
9.036175
20
-13.946406
30
-5.413457
11
11.294923
21
-12.735705
31
0.673159
12
9.990179
22
-11.804799
32
0.487990
13
8.046173
23
-12.846797
33
-4.750492
0
3DFACE
8
RoueG
62
14.000000
10
10.105302
20
-13.666612
30
0.858327
11
8.133524
21
-12.609729
31
6.171643
12
9.036175
22
-11.525003
32
6.759773
13
11.294923
23
-12.735705
33
0.673159
0
3DFACE
8
RoueG
62
14.000000
10
8.133524
20
-12.609729
30
6.171643
11
3.140812
21
-12.047373
31
8.998797
12
3.316824
22
-10.880803
32
9.998392
13
9.036175
23
-11.525003
33
6.759773
0
3DFACE
8
RoueG
62
14.000000
10
3.140812
20
-12.047373
30
8.998797
11
-2.536690
21
-12.242679
31
8.016935
12
-3.186982
22
-11.104531
32
8.873629
13
3.316824
23
-10.880803
33
9.998392
0
3DFACE
8
RoueG
62
14.000000
10
-2.536690
20
-12.242679
30
8.016935
11
-6.242414
21
-13.104259
31
3.685484
12
-7.432037
22
-12.091504
32
3.911779
13
-3.186982
23
-11.104531
33
8.873629
0
3DFACE
8
RoueG
62
14.000000
10
-6.242414
20
-13.104259
30
3.685484
11
-6.242414
21
-14.228969
31
-1.968829
12
-7.432037
22
-13.379906
32
-2.565462
13
-7.432037
23
-12.091504
33
3.911779
0
3DFACE
8
RoueG
62
14.000000
10
-6.242414
20
-14.228969
30
-1.968829
11
-2.536690
21
-15.090548
31
-6.300283
12
-3.186982
22
-14.366879
32
-7.527314
13
-7.432037
23
-13.379906
33
-2.565462
0
3DFACE
8
RoueG
62
14.000000
10
-2.536690
20
-15.090548
30
-6.300283
11
3.140812
21
-15.285851
31
-7.282144
12
3.316824
22
-14.590610
32
-8.652077
13
-3.186982
23
-14.366879
33
-7.527314
0
3DFACE
8
RoueG
62
14.000000
10
3.140812
20
-15.285851
30
-7.282144
11
8.133524
21
-14.723498
31
-4.454989
12
9.036175
22
-13.946406
32
-5.413457
13
3.316824
23
-14.590610
33
-8.652077
0
3DFACE
8
RoueG
62
14.000000
10
8.133524
20
-14.723498
30
-4.454989
11
10.105302
21
-13.666612
31
0.858327
12
11.294923
22
-12.735705
32
0.673159
13
9.036175
23
-13.946406
33
-5.413457
0
3DFACE
8
RoueG
62
14.000000
10
9.145929
20
-13.368723
30
0.799074
11
7.405581
21
-12.435886
31
5.488761
12
8.133524
22
-12.609729
32
6.171643
13
10.105302
23
-13.666612
33
0.858327
0
3DFACE
8
RoueG
62
14.000000
10
7.405581
20
-12.435886
30
5.488761
11
2.998868
21
-11.939537
31
7.984089
12
3.140812
22
-12.047373
32
8.998797
13
8.133524
23
-12.609729
33
6.171643
0
3DFACE
8
RoueG
62
14.000000
10
2.998868
20
-11.939537
30
7.984089
11
-2.012262
21
-12.111916
31
7.117470
12
-2.536690
22
-12.242679
32
8.016935
13
3.140812
23
-12.047373
33
8.998797
0
3DFACE
8
RoueG
62
14.000000
10
-2.012262
20
-12.111916
30
7.117470
11
-5.283042
21
-12.872370
31
3.294404
12
-6.242414
22
-13.104259
32
3.685484
13
-2.536690
23
-12.242679
33
8.016935
0
3DFACE
8
RoueG
62
14.000000
10
-5.283042
20
-12.872370
30
3.294404
11
-5.283042
21
-13.865074
31
-1.696257
12
-6.242414
22
-14.228969
32
-1.968829
13
-6.242414
23
-13.104259
33
3.685484
0
3DFACE
8
RoueG
62
14.000000
10
-5.283042
20
-13.865074
30
-1.696257
11
-2.012262
21
-14.625527
31
-5.519325
12
-2.536690
22
-15.090548
32
-6.300283
13
-6.242414
23
-14.228969
33
-1.968829
0
3DFACE
8
RoueG
62
14.000000
10
-2.012262
20
-14.625527
30
-5.519325
11
2.998868
21
-14.797909
31
-6.385944
12
3.140812
22
-15.285851
32
-7.282144
13
-2.536690
23
-15.090548
33
-6.300283
0
3DFACE
8
RoueG
62
14.000000
10
2.998868
20
-14.797909
30
-6.385944
11
7.405581
21
-14.301558
31
-3.890614
12
8.133524
22
-14.723498
32
-4.454989
13
3.140812
23
-15.285851
33
-7.282144
0
3DFACE
8
RoueG
62
14.000000
10
7.405581
20
-14.301558
30
-3.890614
11
9.145929
21
-13.368723
31
0.799074
12
10.105302
22
-13.666612
32
0.858327
13
8.133524
23
-14.723498
33
-4.454989
0
3DFACE
8
RoueG
62
14.000000
10
3.581565
20
-14.113446
30
0.947208
11
3.183507
21
-13.900085
31
2.019850
12
7.405581
22
-12.435886
32
5.488761
13
9.145929
23
-13.368723
33
0.799074
0
3DFACE
8
RoueG
62
14.000000
10
3.183507
20
-13.900085
30
2.019850
11
2.175588
21
-13.786558
31
2.590590
12
2.998868
22
-11.939537
32
7.984089
13
7.405581
23
-12.435886
33
5.488761
0
3DFACE
8
RoueG
62
14.000000
10
2.175588
20
-13.786558
30
2.590590
11
1.029425
21
-13.825986
31
2.392374
12
-2.012262
22
-12.111916
32
7.117470
13
2.998868
23
-11.939537
33
7.984089
0
3DFACE
8
RoueG
62
14.000000
10
1.029425
20
-13.825986
30
2.392374
11
0.281322
21
-13.999921
31
1.517950
12
-5.283042
22
-12.872370
32
3.294404
13
-2.012262
23
-12.111916
33
7.117470
0
3DFACE
8
RoueG
62
14.000000
10
0.281322
20
-13.999921
30
1.517950
11
0.281322
21
-14.226974
31
0.376468
12
-5.283042
22
-13.865074
32
-1.696257
13
-5.283042
23
-12.872370
33
3.294404
0
3DFACE
8
RoueG
62
14.000000
10
0.281322
20
-14.226974
30
0.376468
11
1.029425
21
-14.400909
31
-0.497957
12
-2.012262
22
-14.625527
32
-5.519325
13
-5.283042
23
-13.865074
33
-1.696257
0
3DFACE
8
RoueG
62
14.000000
10
1.029425
20
-14.400909
30
-0.497957
11
2.175588
21
-14.440337
31
-0.696174
12
2.998868
22
-14.797909
32
-6.385944
13
-2.012262
23
-14.625527
33
-5.519325
0
3DFACE
8
RoueG
62
14.000000
10
2.175588
20
-14.440337
30
-0.696174
11
3.183507
21
-14.326812
31
-0.125433
12
7.405581
22
-14.301558
32
-3.890614
13
2.998868
23
-14.797909
33
-6.385944
0
3DFACE
8
RoueG
62
14.000000
10
3.183507
20
-14.326812
30
-0.125433
11
3.581565
21
-14.113446
31
0.947208
12
9.145929
22
-13.368723
32
0.799074
13
7.405581
23
-14.301558
33
-3.890614
0
3DFACE
8
RoueG
62
14.000000
10
3.183507
20
-14.326812
30
-0.125433
11
2.175588
21
-14.440337
31
-0.696174
12
1.029425
22
-14.400909
32
-0.497957
13
1.029425
23
-14.400909
33
-0.497957
0
3DFACE
8
RoueG
62
14.000000
10
3.183507
20
-14.326812
30
-0.125433
11
1.029425
21
-14.400909
31
-0.497957
12
0.281322
22
-14.226974
32
0.376468
13
0.281322
23
-14.226974
33
0.376468
0
3DFACE
8
RoueG
62
14.000000
10
3.183507
20
-14.326812
30
-0.125433
11
0.281322
21
-14.226974
31
0.376468
12
0.281322
22
-13.999921
32
1.517950
13
0.281322
23
-13.999921
33
1.517950
0
3DFACE
8
RoueG
62
14.000000
10
3.183507
20
-14.326812
30
-0.125433
11
0.281322
21
-13.999921
31
1.517950
12
1.029425
22
-13.825986
32
2.392374
13
1.029425
23
-13.825986
33
2.392374
0
3DFACE
8
RoueG
62
14.000000
10
3.183507
20
-14.326812
30
-0.125433
11
1.029425
21
-13.825986
31
2.392374
12
2.175588
22
-13.786558
32
2.590590
13
2.175588
23
-13.786558
33
2.590590
0
3DFACE
8
RoueG
62
14.000000
10
3.183507
20
-14.326812
30
-0.125433
11
2.175588
21
-13.786558
31
2.590590
12
3.183507
22
-13.900085
32
2.019850
13
3.183507
23
-13.900085
33
2.019850
0
3DFACE
8
RoueG
62
14.000000
10
3.183507
20
-14.326812
30
-0.125433
11
3.183507
21
-13.900085
31
2.019850
12
3.581565
22
-14.113446
32
0.947208
13
3.581565
23
-14.113446
33
0.947208
0
3DFACE
8
PRA
62
15.000000
10
3.160459
20
-10.484489
30
-0.649303
11
3.160459
21
11.042103
31
-0.649303
12
0.616746
22
11.042103
32
-0.649303
13
0.616746
23
-10.484489
33
-0.649303
0
3DFACE
8
PRA
62
15.000000
10
0.616746
20
-10.484489
30
-0.649303
11
0.616746
21
11.042103
31
-0.649303
12
0.616746
22
10.735948
32
1.590677
13
0.616746
23
-10.178332
33
1.590677
0
3DFACE
8
PRA
62
15.000000
10
0.616746
20
-10.178332
30
1.590677
11
0.616746
21
10.735948
31
1.590677
12
3.160459
22
10.735948
32
1.590677
13
3.160459
23
-10.178332
33
1.590677
0
3DFACE
8
PRA
62
15.000000
10
3.160459
20
-10.178332
30
1.590677
11
3.160459
21
10.735948
31
1.590677
12
3.160459
22
11.042103
32
-0.649303
13
3.160459
23
-10.484489
33
-0.649303
0
3DFACE
8
PRD2
62
16.000000
10
0.246339
20
5.791198
30
14.248894
11
1.302810
21
10.137613
31
3.076293
12
1.302810
22
11.403647
32
3.328123
13
0.246339
23
6.558697
33
15.221144
0
3DFACE
8
PRD2
62
16.000000
10
0.246339
20
6.558697
30
15.221144
11
1.302810
21
11.403647
31
3.328123
12
5.020782
22
12.378820
32
-1.574413
13
3.129066
23
6.558697
33
15.221144
0
3DFACE
8
PRD2
62
16.000000
10
3.129066
20
6.558697
30
15.221144
11
5.020782
21
12.378820
31
-1.574413
12
5.020782
22
11.112787
32
-1.826243
13
3.129066
23
5.791198
33
14.248894
0
3DFACE
8
PRD2
62
16.000000
10
3.129066
20
5.791198
30
14.248894
11
5.020782
21
11.112787
31
-1.826243
12
1.302810
22
10.137613
32
3.076293
13
0.246339
23
5.791198
33
14.248894
0
3DFACE
8
PRG2
62
17.000000
10
0.246339
20
-5.930398
30
15.221144
11
1.302810
21
-10.775348
31
3.328123
12
1.302810
22
-9.509315
32
3.076293
13
0.246339
23
-5.162900
33
14.248894
0
3DFACE
8
PRG2
62
17.000000
10
3.129066
20
-5.930398
30
15.221144
11
5.020782
21
-11.750521
31
-1.574413
12
1.302810
22
-10.775348
32
3.328123
13
0.246339
23
-5.930398
33
15.221144
0
3DFACE
8
PRG2
62
17.000000
10
3.129066
20
-5.162900
30
14.248894
11
5.020782
21
-10.484489
31
-1.826243
12
5.020782
22
-11.750521
32
-1.574413
13
3.129066
23
-5.930398
33
15.221144
0
3DFACE
8
PRG2
62
17.000000
10
0.246339
20
-5.162900
30
14.248894
11
1.302810
21
-9.509315
31
3.076293
12
5.020782
22
-10.484489
32
-1.826243
13
3.129066
23
-5.162900
33
14.248894
0
3DFACE
8
Rebord
62
18.000000
10
-8.278243
20
3.713240
30
30.119961
11
-8.131039
21
3.412199
31
31.307901
12
-11.451579
22
3.222566
32
31.264299
13
-11.891930
23
3.506874
33
30.072510
0
3DFACE
8
Rebord
62
18.000000
10
-11.891930
20
3.506874
30
30.072510
11
-11.451579
21
3.222566
31
31.264299
12
-12.393506
22
2.707972
32
31.226658
13
-12.916967
23
2.946875
33
30.031549
0
3DFACE
8
Rebord
62
18.000000
10
-12.916967
20
2.946875
30
30.031549
11
-12.393506
21
2.707972
31
31.226658
12
-13.028338
22
1.945469
32
31.198929
13
-13.607814
23
2.117092
33
30.001373
0
3DFACE
8
Rebord
62
18.000000
10
-13.607814
20
2.117092
30
30.001373
11
-13.028338
21
1.945469
31
31.198929
12
-13.260945
22
1.012103
32
31.185047
13
-13.860945
23
1.101371
33
29.986269
0
3DFACE
8
Rebord
62
18.000000
10
-13.860945
20
1.101371
30
29.986269
11
-13.260945
21
1.012103
31
31.185047
12
-13.260509
22
-1.011299
32
31.173561
13
-13.860470
23
-1.100566
33
29.973768
0
3DFACE
8
Rebord
62
18.000000
10
-13.860470
20
-1.100566
30
29.973768
11
-13.260509
21
-1.011299
31
31.173561
12
-13.027286
22
-1.944664
32
31.171227
13
-13.606668
23
-2.116287
33
29.971228
0
3DFACE
8
Rebord
62
18.000000
10
-13.606668
20
-2.116287
30
29.971228
11
-13.027286
21
-1.944664
31
31.171227
12
-12.391542
22
-2.707168
32
31.174992
13
-12.914830
23
-2.946071
33
29.975325
0
3DFACE
8
Rebord
62
18.000000
10
-12.914830
20
-2.946071
30
29.975325
11
-12.391542
21
-2.707168
31
31.174992
12
-11.448532
22
-3.221761
32
31.184078
13
-11.888612
23
-3.506070
33
29.985212
0
3DFACE
8
Rebord
62
18.000000
10
-11.888612
20
-3.506070
30
29.985212
11
-11.448532
21
-3.221761
31
31.184078
12
-8.129221
22
-3.411394
32
31.197714
13
-8.276263
23
-3.712435
33
30.000051
0
3DFACE
8
Rebord
62
18.000000
10
-8.276263
20
-3.712435
30
30.000051
11
-8.129221
21
-3.411394
31
31.197714
12
-4.796956
22
-3.420561
32
31.383219
13
-4.649976
23
-3.722411
33
30.201923
0
3DFACE
8
Rebord
62
18.000000
10
-4.649976
20
-3.722411
30
30.201923
11
-4.796956
21
-3.420561
31
31.383219
12
-1.473244
22
-3.232949
32
31.427372
13
-1.033153
23
-3.518245
33
30.249971
0
3DFACE
8
Rebord
62
18.000000
10
-1.033153
20
-3.518245
30
30.249971
11
-1.473244
21
-3.232949
31
31.427372
12
-0.528517
22
-2.718762
32
31.468836
13
-0.005067
23
-2.958688
33
30.295095
0
3DFACE
8
Rebord
62
18.000000
10
-0.005067
20
-2.958688
30
30.295095
11
-0.528517
21
-2.718762
31
31.468836
12
0.106992
22
-1.955391
32
31.538828
13
0.686516
23
-2.127961
33
30.371262
0
3DFACE
8
Rebord
62
18.000000
10
0.686516
20
-2.127961
30
30.371262
11
0.106992
21
-1.955391
31
31.538828
12
0.339054
22
-1.181569
32
31.591167
13
0.939054
23
-1.285860
33
30.428219
0
3DFACE
8
Rebord
62
18.000000
10
0.939054
20
-1.285860
30
30.428219
11
0.339054
21
-1.181569
31
31.591167
12
0.338643
22
-1.163967
32
31.602005
13
0.938606
23
-1.266706
33
30.440014
0
3DFACE
8
Rebord
62
18.000000
10
0.938606
20
-1.266706
30
30.440014
11
0.338643
21
-1.163967
31
31.602005
12
0.338207
22
1.164772
32
31.613491
13
0.938132
23
1.267510
33
30.452515
0
3DFACE
8
Rebord
62
18.000000
10
0.938132
20
1.267510
30
30.452515
11
0.338207
21
1.164772
31
31.613491
12
0.338112
22
1.169182
32
31.615980
13
0.938029
23
1.272309
33
30.455223
0
3DFACE
8
Rebord
62
18.000000
10
0.938029
20
1.272309
30
30.455223
11
0.338112
21
1.169182
31
31.615980
12
0.104542
22
1.956196
32
31.603304
13
0.683850
23
2.128766
33
30.441429
0
3DFACE
8
Rebord
62
18.000000
10
0.683850
20
2.128766
30
30.441429
11
0.104542
21
1.956196
31
31.603304
12
-0.532644
22
2.719568
32
31.577452
13
-0.009558
23
2.959494
33
30.413298
0
3DFACE
8
Rebord
62
18.000000
10
-0.009558
20
2.959494
30
30.413298
11
-0.532644
21
2.719568
31
31.577452
12
-1.478162
22
3.233754
32
31.556822
13
-1.038505
23
3.519050
33
30.390844
0
3DFACE
8
Rebord
62
18.000000
10
-1.038505
20
3.519050
30
30.390844
11
-1.478162
21
3.233754
31
31.556822
12
-4.799064
22
3.421365
32
31.510798
13
-4.652269
23
3.723215
33
30.340761
0
3DFACE
8
Rebord
62
18.000000
10
-4.652269
20
3.723215
30
30.340761
11
-4.799064
21
3.421365
31
31.510798
12
-8.131039
22
3.412199
32
31.307901
13
-8.278243
23
3.713240
33
30.119961
0
3DFACE
8
Rebord
62
18.000000
10
-8.131039
20
3.412199
30
31.307901
11
-8.179992
21
3.111158
31
30.295841
12
-11.011230
22
2.938257
32
30.256084
13
-11.451579
23
3.222566
33
31.264299
0
3DFACE
8
Rebord
62
18.000000
10
-11.451579
20
3.222566
30
31.264299
11
-11.011230
21
2.938257
31
30.256084
12
-11.870045
22
2.469069
32
30.221766
13
-12.393506
23
2.707972
33
31.226658
0
3DFACE
8
Rebord
62
18.000000
10
-12.393506
20
2.707972
30
31.226658
11
-11.870045
21
2.469069
31
30.221766
12
-12.448862
22
1.773845
32
30.196484
13
-13.028338
23
1.945469
33
31.198929
0
3DFACE
8
Rebord
62
18.000000
10
-13.028338
20
1.945469
30
31.198929
11
-12.448862
21
1.773845
31
30.196484
12
-12.660945
22
0.922835
32
30.183828
13
-13.260945
23
1.012103
33
31.185047
0
3DFACE
8
Rebord
62
18.000000
10
-13.260945
20
1.012103
30
31.185047
11
-12.660945
21
0.922835
31
30.183828
12
-12.660547
22
-0.922031
32
30.173353
13
-13.260509
23
-1.011299
33
31.173561
0
3DFACE
8
Rebord
62
18.000000
10
-13.260509
20
-1.011299
30
31.173561
11
-12.660547
21
-0.922031
31
30.173353
12
-12.447902
22
-1.773040
32
30.171227
13
-13.027286
23
-1.944664
33
31.171227
0
3DFACE
8
Rebord
62
18.000000
10
-13.027286
20
-1.944664
30
31.171227
11
-12.447902
21
-1.773040
31
30.171227
12
-11.868255
22
-2.468265
32
30.174660
13
-12.391542
23
-2.707168
33
31.174992
0
3DFACE
8
Rebord
62
18.000000
10
-12.391542
20
-2.707168
30
31.174992
11
-11.868255
21
-2.468265
31
30.174660
12
-11.008451
22
-2.937453
32
30.182945
13
-11.448532
23
-3.221761
33
31.184078
0
3DFACE
8
Rebord
62
18.000000
10
-11.448532
20
-3.221761
30
31.184078
11
-11.008451
21
-2.937453
31
30.182945
12
-8.178119
22
-3.110353
32
30.195375
13
-8.129221
23
-3.411394
33
31.197714
0
3DFACE
8
Rebord
62
18.000000
10
-8.129221
20
-3.411394
30
31.197714
11
-8.178119
21
-3.110353
31
30.195375
12
-4.747457
22
-3.118711
32
30.364513
13
-4.796956
23
-3.420561
33
31.383219
0
3DFACE
8
Rebord
62
18.000000
10
-4.796956
20
-3.420561
30
31.383219
11
-4.747457
21
-3.118711
31
30.364513
12
-1.913336
22
-2.947653
32
30.404770
13
-1.473244
23
-3.232949
33
31.427372
0
3DFACE
8
Rebord
62
18.000000
10
-1.473244
20
-3.232949
30
31.427372
11
-1.913336
21
-2.947653
31
30.404770
12
-1.051966
22
-2.478836
32
30.442574
13
-0.528517
23
-2.718762
33
31.468836
0
3DFACE
8
Rebord
62
18.000000
10
-0.528517
20
-2.718762
30
31.468836
11
-1.051966
21
-2.478836
31
30.442574
12
-0.472532
22
-1.782821
32
30.506392
13
0.106992
23
-1.955391
33
31.538828
0
3DFACE
8
Rebord
62
18.000000
10
0.106992
20
-1.955391
30
31.538828
11
-0.472532
21
-1.782821
31
30.506392
12
-0.260946
22
-1.077277
32
30.554111
13
0.339054
23
-1.181569
33
31.591167
0
3DFACE
8
Rebord
62
18.000000
10
0.339054
20
-1.181569
30
31.591167
11
-0.260946
21
-1.077277
31
30.554111
12
-0.261321
22
-1.061229
32
30.563995
13
0.338643
23
-1.163967
33
31.602005
0
3DFACE
8
Rebord
62
18.000000
10
0.338643
20
-1.163967
30
31.602005
11
-0.261321
21
-1.061229
31
30.563995
12
-0.261719
22
1.062033
32
30.574467
13
0.338207
23
1.164772
33
31.613491
0
3DFACE
8
Rebord
62
18.000000
10
0.338207
20
1.164772
30
31.613491
11
-0.261719
21
1.062033
31
30.574467
12
-0.261805
22
1.066054
32
30.576736
13
0.338112
23
1.169182
33
31.615980
0
3DFACE
8
Rebord
62
18.000000
10
0.338112
20
1.169182
30
31.615980
11
-0.261805
21
1.066054
31
30.576736
12
-0.474766
22
1.783626
32
30.565180
13
0.104542
23
1.956196
33
31.603304
0
3DFACE
8
Rebord
62
18.000000
10
0.104542
20
1.956196
30
31.603304
11
-0.474766
21
1.783626
31
30.565180
12
-1.055729
22
2.479641
32
30.541609
13
-0.532644
23
2.719568
33
31.577452
0
3DFACE
8
Rebord
62
18.000000
10
-0.532644
20
2.719568
30
31.577452
11
-1.055729
21
2.479641
31
30.541609
12
-1.917819
22
2.948459
32
30.522799
13
-1.478162
23
3.233754
33
31.556822
0
3DFACE
8
Rebord
62
18.000000
10
-1.478162
20
3.233754
30
31.556822
11
-1.917819
21
2.948459
31
30.522799
12
-4.749625
22
3.119515
32
30.480835
13
-4.799064
23
3.421365
33
31.510798
0
3DFACE
8
Rebord
62
18.000000
10
-4.799064
20
3.421365
30
31.510798
11
-4.749625
21
3.119515
31
30.480835
12
-8.179992
22
3.111158
32
30.295841
13
-8.131039
23
3.412199
33
31.307901
0
3DFACE
8
Nez
62
19.000000
10
0.169989
20
-8.636293
30
20.442307
11
0.169989
21
-7.006898
31
26.815115
12
12.359314
22
-4.869328
32
26.986366
13
12.359314
23
-6.003789
33
21.838760
0
3DFACE
8
Nez
62
19.000000
10
0.169989
20
-7.006898
30
26.815115
11
0.169989
21
-2.689535
31
30.774649
12
12.359314
22
-1.863379
32
30.184658
13
12.359314
23
-4.869328
33
26.986366
0
3DFACE
8
Nez
62
19.000000
10
0.169989
20
-2.689535
30
30.774649
11
0.169989
21
2.666709
31
30.808487
12
12.359314
22
1.865888
32
30.211994
13
12.359314
23
-1.863379
33
30.184658
0
3DFACE
8
Nez
62
19.000000
10
0.169989
20
2.666709
30
30.808487
11
0.169989
21
7.015930
31
26.903732
12
12.359314
22
4.894019
32
27.057947
13
12.359314
23
1.865888
33
30.211994
0
3DFACE
8
Nez
62
19.000000
10
0.169989
20
7.015930
30
26.903732
11
0.169989
21
8.696876
31
20.551842
12
12.359314
22
6.064371
32
21.927237
13
12.359314
23
4.894019
33
27.057947
0
3DFACE
8
Nez
62
19.000000
10
0.169989
20
8.696876
30
20.551842
11
7.369988
21
7.067480
31
15.287776
12
12.359314
22
4.929910
32
16.779631
13
12.359314
23
6.064371
33
21.927237
0
3DFACE
8
Nez
62
19.000000
10
7.369988
20
7.067480
30
15.287776
11
7.369988
21
2.750118
31
11.328245
12
12.359314
22
1.923961
32
13.581337
13
12.359314
23
4.929910
33
16.779631
0
3DFACE
8
Nez
62
19.000000
10
7.369988
20
2.750118
30
11.328245
11
7.369988
21
-2.606125
31
11.294394
12
12.359314
22
-1.805305
32
13.553993
13
12.359314
23
1.923961
33
13.581337
0
3DFACE
8
Nez
62
19.000000
10
7.369988
20
-2.606125
30
11.294394
11
7.369988
21
-6.955348
31
15.199156
12
12.359314
22
-4.833437
32
16.708048
13
12.359314
23
-1.805305
33
13.553993
0
3DFACE
8
Nez
62
19.000000
10
7.369988
20
-6.955348
30
15.199156
11
0.169989
21
-8.636293
31
20.442307
12
12.359314
22
-6.003789
32
21.838760
13
12.359314
23
-4.833437
33
16.708048
0
3DFACE
8
Nez
62
19.000000
10
12.359314
20
-6.003789
30
21.838760
11
12.359314
21
-4.869328
31
26.986366
12
14.853978
22
-1.622999
32
27.590778
13
14.853978
23
-2.005803
33
25.188572
0
3DFACE
8
Nez
62
19.000000
10
12.359314
20
-4.869328
30
26.986366
11
12.359314
21
-1.863379
31
30.184658
12
14.853978
22
-0.608695
32
29.083317
13
14.853978
23
-1.622999
33
27.590778
0
3DFACE
8
Nez
62
19.000000
10
12.359314
20
-1.863379
30
30.184658
11
12.359314
21
1.865888
31
30.211994
12
14.853978
22
0.649681
32
29.096069
13
14.853978
23
-0.608695
33
29.083317
0
3DFACE
8
Nez
62
19.000000
10
12.359314
20
1.865888
30
30.211994
11
12.359314
21
4.894019
31
27.057947
12
14.853978
22
1.671470
32
27.624184
13
14.853978
23
0.649681
33
29.096069
0
3DFACE
8
Nez
62
19.000000
10
12.359314
20
4.894019
30
27.057947
11
12.359314
21
6.064371
31
21.927237
12
14.853978
22
2.066385
32
25.229858
13
14.853978
23
1.671470
33
27.624184
0
3DFACE
8
Nez
62
19.000000
10
12.359314
20
6.064371
30
21.927237
11
12.359314
21
4.929910
31
16.779631
12
14.853978
22
1.683581
32
22.827642
13
14.853978
23
2.066385
33
25.229858
0
3DFACE
8
Nez
62
19.000000
10
12.359314
20
4.929910
30
16.779631
11
12.359314
21
1.923961
31
13.581337
12
14.853978
22
0.669276
32
21.335106
13
14.853978
23
1.683581
33
22.827642
0
3DFACE
8
Nez
62
19.000000
10
12.359314
20
1.923961
30
13.581337
11
12.359314
21
-1.805305
31
13.553993
12
14.853978
22
-0.589099
32
21.322346
13
14.853978
23
0.669276
33
21.335106
0
3DFACE
8
Nez
62
19.000000
10
12.359314
20
-1.805305
30
13.553993
11
12.359314
21
-4.833437
31
16.708048
12
14.853978
22
-1.610888
32
22.794237
13
14.853978
23
-0.589099
33
21.322346
0
3DFACE
8
Nez
62
19.000000
10
12.359314
20
-4.833437
30
16.708048
11
12.359314
21
-6.003789
31
21.838760
12
14.853978
22
-2.005803
32
25.188572
13
14.853978
23
-1.610888
33
22.794237
0
3DFACE
8
Nez
62
19.000000
10
14.853978
20
-2.005803
30
25.188572
11
14.853978
21
-1.622999
31
27.590778
12
14.853978
22
-0.608695
32
29.083317
13
14.853978
23
-0.608695
33
29.083317
0
3DFACE
8
Nez
62
19.000000
10
14.853978
20
-2.005803
30
25.188572
11
14.853978
21
-0.608695
31
29.083317
12
14.853978
22
0.649681
32
29.096069
13
14.853978
23
0.649681
33
29.096069
0
3DFACE
8
Nez
62
19.000000
10
14.853978
20
-2.005803
30
25.188572
11
14.853978
21
0.649681
31
29.096069
12
14.853978
22
1.671470
32
27.624184
13
14.853978
23
1.671470
33
27.624184
0
3DFACE
8
Nez
62
19.000000
10
14.853978
20
-2.005803
30
25.188572
11
14.853978
21
1.671470
31
27.624184
12
14.853978
22
2.066385
32
25.229858
13
14.853978
23
2.066385
33
25.229858
0
3DFACE
8
Nez
62
19.000000
10
14.853978
20
-2.005803
30
25.188572
11
14.853978
21
2.066385
31
25.229858
12
14.853978
22
1.683581
32
22.827642
13
14.853978
23
1.683581
33
22.827642
0
3DFACE
8
Nez
62
19.000000
10
14.853978
20
-2.005803
30
25.188572
11
14.853978
21
1.683581
31
22.827642
12
14.853978
22
0.669276
32
21.335106
13
14.853978
23
0.669276
33
21.335106
0
3DFACE
8
Nez
62
19.000000
10
14.853978
20
-2.005803
30
25.188572
11
14.853978
21
0.669276
31
21.335106
12
14.853978
22
-0.589099
32
21.322346
13
14.853978
23
-0.589099
33
21.322346
0
3DFACE
8
Nez
62
19.000000
10
14.853978
20
-2.005803
30
25.188572
11
14.853978
21
-0.589099
31
21.322346
12
14.853978
22
-1.610888
32
22.794237
13
14.853978
23
-1.610888
33
22.794237
0
3DFACE
8
Cabine
62
20.000000
10
7.369988
20
-6.955348
30
15.199156
11
-12.032948
21
-7.290886
31
16.954296
12
-12.032948
22
-9.052570
32
20.445463
13
0.169989
23
-8.636293
33
20.442307
0
3DFACE
8
Cabine
62
20.000000
10
0.169989
20
-8.636293
30
20.442307
11
-12.032948
21
-9.052570
31
20.445463
12
-12.032948
22
-7.344911
32
26.451004
13
0.169989
23
-7.006898
33
26.815115
0
3DFACE
8
Cabine
62
20.000000
10
0.169989
20
-7.006898
30
26.815115
11
-12.032948
21
-7.344911
31
26.451004
12
-12.032948
22
-2.820175
32
30.182348
13
0.169989
23
-2.689535
33
30.774649
0
3DFACE
8
Cabine
62
20.000000
10
0.169989
20
-2.689535
30
30.774649
11
-12.032948
21
-2.820175
31
30.182348
12
-12.032948
22
2.793342
32
30.214239
13
0.169989
23
2.666709
33
30.808487
0
3DFACE
8
Cabine
62
20.000000
10
0.169989
20
2.666709
30
30.808487
11
-12.032948
21
2.793342
31
30.214239
12
-12.032948
22
7.351468
32
26.534515
13
0.169989
23
7.015930
33
26.903732
0
3DFACE
8
Cabine
62
20.000000
10
0.169989
20
7.015930
30
26.903732
11
-12.032948
21
7.351468
31
26.534515
12
-12.032948
22
9.113153
32
20.548685
13
0.169989
23
8.696876
33
20.551842
0
3DFACE
8
Cabine
62
20.000000
10
0.169989
20
8.696876
30
20.551842
11
-12.032948
21
9.113153
31
20.548685
12
-12.032948
22
7.405492
32
17.037809
13
7.369988
23
7.067480
33
15.287776
0
3DFACE
8
Cabine
62
20.000000
10
7.369988
20
7.067480
30
15.287776
11
-12.032948
21
7.405492
31
17.037809
12
-12.032948
22
2.880758
32
13.306466
13
7.369988
23
2.750118
33
11.328245
0
3DFACE
8
Cabine
62
20.000000
10
7.369988
20
2.750118
30
11.328245
11
-12.032948
21
2.880758
31
13.306466
12
-12.032948
22
-2.732758
32
13.274567
13
7.369988
23
-2.606125
33
11.294394
0
3DFACE
8
Cabine
62
20.000000
10
7.369988
20
-2.606125
30
11.294394
11
-12.032948
21
-2.732758
31
13.274567
12
-12.032948
22
-7.290886
32
16.954296
13
7.369988
23
-6.955348
33
15.199156
0
3DFACE
8
AileSupG
62
21.000000
10
23.442904
20
-20.590168
30
45.167080
11
22.380775
21
-53.020786
31
44.934010
12
6.057671
22
-53.020786
32
44.934010
13
4.031645
23
-20.590168
33
45.167080
0
3DFACE
8
AileSupG
62
21.000000
10
24.907907
20
-20.590168
30
44.068329
11
23.612711
21
-53.020786
31
44.010067
12
22.380775
22
-53.020786
32
44.934010
13
23.442904
23
-20.590168
33
45.167080
0
3DFACE
8
AileSupG
62
21.000000
10
19.047901
20
-20.590168
30
42.237080
11
18.684982
21
-53.020786
31
42.470146
12
23.612711
22
-53.020786
32
44.010067
13
24.907907
23
-20.590168
33
44.068329
0
3DFACE
8
AileSupG
62
21.000000
10
2.774740
20
-20.590168
30
42.237080
11
2.669843
21
-53.020786
31
42.470146
12
18.684982
22
-53.020786
32
42.470146
13
19.047901
23
-20.590168
33
42.237080
0
3DFACE
8
AileSupG
62
21.000000
10
-1.828357
20
-20.590168
30
43.335835
11
1.129934
21
-53.020786
31
43.394096
12
2.669843
22
-53.020786
32
42.470146
13
2.774740
23
-20.590168
33
42.237080
0
3DFACE
8
AileSupG
62
21.000000
10
4.031645
20
-20.590168
30
45.167080
11
6.057671
21
-53.020786
31
44.934010
12
1.129934
22
-53.020786
32
43.394096
13
-1.828357
23
-20.590168
33
43.335835
0
3DFACE
8
AileSupG
62
21.000000
10
22.380775
20
-53.020786
30
44.934010
11
16.897011
21
-57.732933
31
43.680634
12
7.593425
22
-57.732933
32
43.680634
13
6.057671
23
-53.020786
33
44.934010
0
3DFACE
8
AileSupG
62
21.000000
10
23.612711
20
-53.020786
30
44.010067
11
20.878317
21
-56.347008
31
43.696724
12
16.897011
22
-57.732933
32
43.680634
13
22.380775
23
-53.020786
33
44.934010
0
3DFACE
8
AileSupG
62
21.000000
10
18.684982
20
-53.020786
30
42.470146
11
17.149227
21
-57.732933
31
43.723534
12
20.878317
22
-56.347008
32
43.696724
13
23.612711
23
-53.020786
33
44.010067
0
3DFACE
8
AileSupG
62
21.000000
10
2.669843
20
-53.020786
30
42.470146
11
7.524333
21
-57.732933
31
43.723534
12
17.149227
22
-57.732933
32
43.723534
13
18.684982
23
-53.020786
33
42.470146
0
3DFACE
8
AileSupG
62
21.000000
10
1.129934
20
-53.020786
30
43.394096
11
3.864327
21
-56.347008
31
43.707439
12
7.524333
22
-57.732933
32
43.723534
13
2.669843
23
-53.020786
33
42.470146
0
3DFACE
8
AileSupG
62
21.000000
10
6.057671
20
-53.020786
30
44.934010
11
7.593425
21
-57.732933
31
43.680634
12
3.864327
22
-56.347008
32
43.707439
13
1.129934
23
-53.020786
33
43.394096
0
3DFACE
8
Tube4
62
22.000000
10
14.074396
20
-40.566330
30
42.439354
11
15.880119
21
-39.610527
31
42.439354
12
-3.515657
22
-39.610527
32
19.818939
13
-5.321380
23
-40.566330
33
19.818939
0
3DFACE
8
Tube4
62
22.000000
10
15.880119
20
-39.610527
30
42.439354
11
14.692832
21
-38.420700
31
42.439354
12
-4.702943
22
-38.420700
32
19.818939
13
-3.515657
23
-39.610527
33
19.818939
0
3DFACE
8
Tube4
62
22.000000
10
14.692832
20
-38.420700
30
42.439354
11
12.153325
21
-38.641144
31
42.439354
12
-7.242450
22
-38.641144
32
19.818939
13
-4.702943
23
-38.420700
33
19.818939
0
3DFACE
8
Tube4
62
22.000000
10
12.153325
20
-38.641144
30
42.439354
11
11.771111
21
-39.967224
31
42.439354
12
-7.624666
22
-39.967224
32
19.818939
13
-7.242450
23
-38.641144
33
19.818939
0
3DFACE
8
Tube4
62
22.000000
10
11.771111
20
-39.967224
30
42.439354
11
14.074396
21
-40.566330
31
42.439354
12
-5.321380
22
-40.566330
32
19.818939
13
-7.624666
23
-39.967224
33
19.818939
0
3DFACE
8
Tube5
62
23.000000
10
19.411209
20
-23.760813
30
42.625977
11
18.434761
21
-22.652073
31
42.625977
12
4.447055
22
-6.581056
32
26.950577
13
5.495150
23
-7.140275
33
26.391356
0
3DFACE
8
Tube5
62
23.000000
10
18.434761
20
-22.652073
30
42.625977
11
16.854839
21
-23.075577
31
42.625973
12
2.751204
22
-6.794660
32
26.736971
13
4.447055
23
-6.581056
33
26.950577
0
3DFACE
8
Tube5
62
23.000000
10
16.854839
20
-23.075577
30
42.625973
11
16.854841
21
-24.446056
31
42.625977
12
2.751207
22
-7.485893
32
26.045738
13
2.751204
23
-6.794660
33
26.736971
0
3DFACE
8
Tube5
62
23.000000
10
16.854841
20
-24.446056
30
42.625977
11
18.434765
21
-24.869549
31
42.625973
12
4.447058
22
-7.699494
32
25.832136
13
2.751207
23
-7.485893
33
26.045738
0
3DFACE
8
Tube5
62
23.000000
10
18.434765
20
-24.869549
30
42.625973
11
19.411209
21
-23.760813
31
42.625977
12
5.495150
22
-7.140275
32
26.391356
13
4.447058
23
-7.699494
33
25.832136
0
3DFACE
8
Tube3
62
24.000000
10
5.495150
20
7.005850
30
26.391356
11
4.447055
21
6.446631
31
26.950577
12
18.434761
22
22.517649
32
42.625977
13
19.411209
23
23.626389
33
42.625977
0
3DFACE
8
Tube3
62
24.000000
10
4.447055
20
6.446631
30
26.950577
11
2.751204
21
6.660234
31
26.736971
12
16.854839
22
22.941153
32
42.625973
13
18.434761
23
22.517649
33
42.625977
0
3DFACE
8
Tube3
62
24.000000
10
2.751204
20
6.660234
30
26.736971
11
2.751207
21
7.351468
31
26.045738
12
16.854841
22
24.311632
32
42.625977
13
16.854839
23
22.941153
33
42.625973
0
3DFACE
8
Tube3
62
24.000000
10
2.751207
20
7.351468
30
26.045738
11
4.447058
21
7.565069
31
25.832136
12
18.434765
22
24.735126
32
42.625973
13
16.854841
23
24.311632
33
42.625977
0
3DFACE
8
Tube3
62
24.000000
10
4.447058
20
7.565069
30
25.832136
11
5.495150
21
7.005850
31
26.391356
12
19.411209
22
23.626389
32
42.625977
13
18.434765
23
24.735126
33
42.625973
0
3DFACE
8
Tube1
62
25.000000
10
-5.321380
20
40.431904
30
19.818939
11
-3.515657
21
39.476105
31
19.818939
12
15.880119
22
39.476105
32
42.439354
13
14.074396
23
40.431904
33
42.439354
0
3DFACE
8
Tube1
62
25.000000
10
-3.515657
20
39.476105
30
19.818939
11
-4.702943
21
38.286274
31
19.818939
12
14.692832
22
38.286274
32
42.439354
13
15.880119
23
39.476105
33
42.439354
0
3DFACE
8
Tube1
62
25.000000
10
-4.702943
20
38.286274
30
19.818939
11
-7.242450
21
38.506721
31
19.818939
12
12.153325
22
38.506721
32
42.439354
13
14.692832
23
38.286274
33
42.439354
0
3DFACE
8
Tube1
62
25.000000
10
-7.242450
20
38.506721
30
19.818939
11
-7.624666
21
39.832798
31
19.818939
12
11.771111
22
39.832798
32
42.439354
13
12.153325
23
38.506721
33
42.439354
0
3DFACE
8
Tube1
62
25.000000
10
-7.624666
20
39.832798
30
19.818939
11
-5.321380
21
40.431904
31
19.818939
12
14.074396
22
40.431904
32
42.439354
13
11.771111
23
39.832798
33
42.439354
0
3DFACE
8
Tube6
62
26.000000
10
-0.547111
20
-7.140275
30
26.391356
11
0.500983
21
-6.581056
31
26.950577
12
3.722763
22
-22.652073
32
42.625977
13
2.746320
23
-23.760813
33
42.625977
0
3DFACE
8
Tube6
62
26.000000
10
0.500983
20
-6.581056
30
26.950577
11
2.196834
21
-6.794660
31
26.736971
12
5.302687
22
-23.075577
32
42.625973
13
3.722763
23
-22.652073
33
42.625977
0
3DFACE
8
Tube6
62
26.000000
10
2.196834
20
-6.794660
30
26.736971
11
2.196831
21
-7.485893
31
26.045738
12
5.302685
22
-24.446056
32
42.625977
13
5.302687
23
-23.075577
33
42.625973
0
3DFACE
8
Tube6
62
26.000000
10
2.196831
20
-7.485893
30
26.045738
11
0.500980
21
-7.699494
31
25.832136
12
3.722762
22
-24.869549
32
42.625973
13
5.302685
23
-24.446056
33
42.625977
0
3DFACE
8
Tube6
62
26.000000
10
0.500980
20
-7.699494
30
25.832136
11
-0.547111
21
-7.140275
31
26.391356
12
2.746320
22
-23.760813
32
42.625977
13
3.722762
23
-24.869549
33
42.625973
0
3DFACE
8
Canon
62
27.000000
10
3.932897
20
0.082312
30
31.606201
11
3.932897
21
-0.444925
31
31.989260
12
11.167420
22
-0.444925
32
31.989260
13
11.167420
23
0.082312
33
31.606201
0
3DFACE
8
Canon
62
27.000000
10
3.932897
20
-0.444925
30
31.989260
11
3.932897
21
-0.243538
31
32.609066
12
11.167420
22
-0.243538
32
32.609066
13
11.167420
23
-0.444925
33
31.989260
0
3DFACE
8
Canon
62
27.000000
10
3.932897
20
-0.243538
30
32.609066
11
3.932897
21
0.408164
31
32.609066
12
11.167420
22
0.408164
32
32.609066
13
11.167420
23
-0.243538
33
32.609066
0
3DFACE
8
Canon
62
27.000000
10
3.932897
20
0.408164
30
32.609066
11
3.932897
21
0.609551
31
31.989260
12
11.167420
22
0.609551
32
31.989260
13
11.167420
23
0.408164
33
32.609066
0
3DFACE
8
Canon
62
27.000000
10
3.932897
20
0.609551
30
31.989260
11
3.932897
21
0.082312
31
31.606201
12
11.167420
22
0.082312
32
31.606201
13
11.167420
23
0.609551
33
31.989260
0
3DFACE
8
Canon
62
27.000000
10
11.167420
20
0.082312
30
31.606201
11
11.167420
21
-0.444925
31
31.989260
12
11.472323
22
-0.211767
32
32.041607
13
11.472323
23
0.082313
33
31.827950
0
3DFACE
8
Canon
62
27.000000
10
11.167420
20
-0.444925
30
31.989260
11
11.167420
21
-0.243538
31
32.609066
12
11.472323
22
-0.099438
32
32.387321
13
11.472323
23
-0.211767
33
32.041607
0
3DFACE
8
Canon
62
27.000000
10
11.167420
20
-0.243538
30
32.609066
11
11.167420
21
0.408164
31
32.609066
12
11.472323
22
0.264064
32
32.387321
13
11.472323
23
-0.099438
33
32.387321
0
3DFACE
8
Canon
62
27.000000
10
11.167420
20
0.408164
30
32.609066
11
11.167420
21
0.609551
31
31.989260
12
11.472323
22
0.376393
32
32.041607
13
11.472323
23
0.264064
33
32.387321
0
3DFACE
8
Canon
62
27.000000
10
11.167420
20
0.609551
30
31.989260
11
11.167420
21
0.082312
31
31.606201
12
11.472323
22
0.082313
32
31.827950
13
11.472323
23
0.376393
33
32.041607
0
3DFACE
8
Canon
62
27.000000
10
11.472323
20
0.082313
30
31.827950
11
11.472323
21
-0.211767
31
32.041607
12
11.472323
22
-0.099438
32
32.387321
13
11.472323
23
-0.099438
33
32.387321
0
3DFACE
8
Canon
62
27.000000
10
11.472323
20
0.082313
30
31.827950
11
11.472323
21
-0.099438
31
32.387321
12
11.472323
22
0.264064
32
32.387321
13
11.472323
23
0.264064
33
32.387321
0
3DFACE
8
Canon
62
27.000000
10
11.472323
20
0.082313
30
31.827950
11
11.472323
21
0.264064
31
32.387321
12
11.472323
22
0.376393
32
32.041607
13
11.472323
23
0.376393
33
32.041607
0
3DFACE
8
Mitrailleuse
62
28.000000
10
3.198357
20
-0.717529
30
33.073761
11
3.638447
21
-0.618625
31
32.974857
12
3.737351
22
-0.717529
32
32.534767
13
3.198357
23
-0.940793
33
32.534767
0
3DFACE
8
Mitrailleuse
62
28.000000
10
-0.268262
20
-0.717529
30
31.674767
11
-0.169358
21
-0.618625
31
32.114857
12
0.070731
22
-0.717529
32
32.333759
13
0.270732
23
-0.940793
33
31.674767
0
3DFACE
8
Mitrailleuse
62
28.000000
10
0.270732
20
-0.940793
30
31.674767
11
0.070731
21
-0.717529
31
32.333759
12
3.198357
22
-0.717529
32
33.073761
13
3.198357
23
-0.940793
33
32.534767
0
3DFACE
8
Mitrailleuse
62
28.000000
10
-0.268262
20
-0.178535
30
32.213760
11
-0.169358
21
-0.618625
31
32.114857
12
-0.268262
22
-0.717529
32
31.674767
13
-0.491526
23
-0.178535
33
31.674767
0
3DFACE
8
Mitrailleuse
62
28.000000
10
-0.268262
20
0.882154
30
31.674767
11
-0.169358
21
0.783250
31
32.114857
12
-0.268262
22
0.343159
32
32.213760
13
-0.491526
23
0.343160
33
31.674767
0
3DFACE
8
Mitrailleuse
62
28.000000
10
-0.491526
20
0.343160
30
31.674767
11
-0.268262
21
0.343159
31
32.213760
12
-0.268262
22
-0.178535
32
32.213760
13
-0.491526
23
-0.178535
33
31.674767
0
3DFACE
8
Mitrailleuse
62
28.000000
10
0.070731
20
0.882154
30
32.333759
11
-0.169358
21
0.783250
31
32.114857
12
-0.268262
22
0.882154
32
31.674767
13
0.270732
23
1.105418
33
31.674767
0
3DFACE
8
Mitrailleuse
62
28.000000
10
3.737351
20
0.882154
30
32.534767
11
3.638447
21
0.783250
31
32.974857
12
3.198357
22
0.882154
32
33.073761
13
3.198357
23
1.105418
33
32.534767
0
3DFACE
8
Mitrailleuse
62
28.000000
10
3.198357
20
1.105418
30
32.534767
11
3.198357
21
0.882154
31
33.073761
12
0.070731
22
0.882154
32
32.333759
13
0.270732
23
1.105418
33
31.674767
0
3DFACE
8
Mitrailleuse
62
28.000000
10
3.737351
20
0.343159
30
33.073761
11
3.638447
21
0.783250
31
32.974857
12
3.737351
22
0.882154
32
32.534767
13
3.960615
23
0.343160
33
32.534767
0
3DFACE
8
Mitrailleuse
62
28.000000
10
3.737351
20
-0.717529
30
32.534767
11
3.638447
21
-0.618625
31
32.974857
12
3.737351
22
-0.178535
32
33.073761
13
3.960615
23
-0.178535
33
32.534767
0
3DFACE
8
Mitrailleuse
62
28.000000
10
3.960615
20
-0.178535
30
32.534767
11
3.737351
21
-0.178535
31
33.073761
12
3.737351
22
0.343159
32
33.073761
13
3.960615
23
0.343160
33
32.534767
0
3DFACE
8
Mitrailleuse
62
28.000000
10
3.198357
20
-0.178535
30
33.297028
11
0.070732
21
-0.178535
31
32.557041
12
0.070732
22
0.343159
32
32.557041
13
3.198357
23
0.343159
33
33.297028
0
3DFACE
8
Mitrailleuse
62
28.000000
10
3.737351
20
-0.178535
30
33.073761
11
3.638447
21
-0.618625
31
32.974857
12
3.198357
22
-0.717529
32
33.073761
13
3.198357
23
-0.178535
33
33.297028
0
3DFACE
8
Mitrailleuse
62
28.000000
10
3.198357
20
-0.178535
30
33.297028
11
3.198357
21
-0.717529
31
33.073761
12
0.070731
22
-0.717529
32
32.333759
13
0.070732
23
-0.178535
33
32.557041
0
3DFACE
8
Mitrailleuse
62
28.000000
10
0.070731
20
-0.717529
30
32.333759
11
-0.169358
21
-0.618625
31
32.114857
12
-0.268262
22
-0.178535
32
32.213760
13
0.070732
23
-0.178535
33
32.557041
0
3DFACE
8
Mitrailleuse
62
28.000000
10
0.070732
20
-0.178535
30
32.557041
11
-0.268262
21
-0.178535
31
32.213760
12
-0.268262
22
0.343159
32
32.213760
13
0.070732
23
0.343159
33
32.557041
0
3DFACE
8
Mitrailleuse
62
28.000000
10
-0.268262
20
0.343159
30
32.213760
11
-0.169358
21
0.783250
31
32.114857
12
0.070731
22
0.882154
32
32.333759
13
0.070732
23
0.343159
33
32.557041
0
3DFACE
8
Mitrailleuse
62
28.000000
10
0.070732
20
0.343159
30
32.557041
11
0.070731
21
0.882154
31
32.333759
12
3.198357
22
0.882154
32
33.073761
13
3.198357
23
0.343159
33
33.297028
0
3DFACE
8
Mitrailleuse
62
28.000000
10
3.198357
20
0.882154
30
33.073761
11
3.638447
21
0.783250
31
32.974857
12
3.737351
22
0.343159
32
33.073761
13
3.198357
23
0.343159
33
33.297028
0
3DFACE
8
Mitrailleuse
62
28.000000
10
3.198357
20
0.343159
30
33.297028
11
3.737351
21
0.343159
31
33.073761
12
3.737351
22
-0.178535
32
33.073761
13
3.198357
23
-0.178535
33
33.297028
0
3DFACE
8
Mitrailleuse
62
28.000000
10
0.010772
20
-1.175439
30
30.602495
11
0.270732
21
-0.940793
31
31.674767
12
3.198357
22
-0.940793
32
32.534767
13
3.198303
23
-1.168459
33
30.659975
0
3DFACE
8
Mitrailleuse
62
28.000000
10
3.198303
20
-1.168459
30
30.659975
11
3.198357
21
-0.940793
31
32.534767
12
3.737351
22
-0.717529
32
32.534767
13
3.737303
23
-0.894591
33
30.669695
0
3DFACE
8
Mitrailleuse
62
28.000000
10
-0.528376
20
-0.901894
30
30.592772
11
-0.268262
21
-0.717529
31
31.674767
12
0.270732
22
-0.940793
32
31.674767
13
0.010772
23
-1.175439
33
30.602495
0
3DFACE
8
Mitrailleuse
62
28.000000
10
-0.751632
20
0.403410
30
30.588747
11
-0.491526
21
0.343160
31
31.674767
12
-0.491526
22
-0.178535
32
31.674767
13
-0.751632
23
-0.238785
33
30.588747
0
3DFACE
8
Mitrailleuse
62
28.000000
10
-0.751632
20
-0.238785
30
30.588747
11
-0.491526
21
-0.178535
31
31.674767
12
-0.268262
22
-0.717529
32
31.674767
13
-0.528376
23
-0.901894
33
30.592772
0
3DFACE
8
Mitrailleuse
62
28.000000
10
-0.528376
20
1.066518
30
30.592772
11
-0.268262
21
0.882154
31
31.674767
12
-0.491526
22
0.343160
32
31.674767
13
-0.751632
23
0.403410
33
30.588747
0
3DFACE
8
Mitrailleuse
62
28.000000
10
3.198303
20
1.333084
30
30.659975
11
3.198357
21
1.105418
31
32.534767
12
0.270732
22
1.105418
32
31.674767
13
0.010772
23
1.340065
33
30.602495
0
3DFACE
8
Mitrailleuse
62
28.000000
10
0.010772
20
1.340065
30
30.602495
11
0.270732
21
1.105418
31
31.674767
12
-0.268262
22
0.882154
32
31.674767
13
-0.528376
23
1.066518
33
30.592772
0
3DFACE
8
Mitrailleuse
62
28.000000
10
3.737303
20
1.059216
30
30.669695
11
3.737351
21
0.882154
31
32.534767
12
3.198357
22
1.105418
32
32.534767
13
3.198303
23
1.333084
33
30.659975
0
3DFACE
8
Mitrailleuse
62
28.000000
10
3.960558
20
-0.236154
30
30.673719
11
3.960615
21
-0.178535
31
32.534767
12
3.960615
22
0.343160
32
32.534767
13
3.960558
23
0.400779
33
30.673719
0
3DFACE
8
Mitrailleuse
62
28.000000
10
3.960558
20
0.400779
30
30.673719
11
3.960615
21
0.343160
31
32.534767
12
3.737351
22
0.882154
32
32.534767
13
3.737303
23
1.059216
33
30.669695
0
3DFACE
8
Mitrailleuse
62
28.000000
10
3.737303
20
-0.894591
30
30.669695
11
3.737351
21
-0.717529
31
32.534767
12
3.960615
22
-0.178535
32
32.534767
13
3.960558
23
-0.236154
33
30.673719
0
3DFACE
8
InclinG
62
29.000000
10
-14.690343
20
-31.677561
30
19.774824
11
-15.399035
21
-7.562481
31
20.136206
12
-14.567482
22
-7.562481
32
19.304649
13
-13.858788
23
-31.677561
33
18.943268
0
3DFACE
8
InclinG
62
29.000000
10
-19.679667
20
-31.677561
30
18.111713
11
-21.497101
21
-7.562481
31
17.918726
12
-15.399035
22
-7.562481
32
20.136206
13
-14.690343
23
-31.677561
33
19.774824
0
3DFACE
8
InclinG
62
29.000000
10
-15.244711
20
-31.677561
30
17.280159
11
-16.230589
21
-7.562481
31
17.364357
12
-21.497101
22
-7.562481
32
17.918726
13
-19.679667
23
-31.677561
33
18.111713
0
3DFACE
8
InclinG
62
29.000000
10
-14.135972
20
-31.677561
30
17.834530
11
-14.844665
21
-7.562481
31
17.918726
12
-16.230589
22
-7.562481
32
17.364357
13
-15.244711
23
-31.677561
33
17.280159
0
3DFACE
8
InclinD
62
30.000000
10
-13.858788
20
31.520569
30
18.943268
11
-14.567484
21
7.405492
31
19.304649
12
-15.399035
22
7.405492
32
20.136206
13
-14.690343
23
31.520569
33
19.774824
0
3DFACE
8
InclinD
62
30.000000
10
-14.690343
20
31.520569
30
19.774824
11
-15.399035
21
7.405492
31
20.136206
12
-21.497101
22
7.405492
32
17.918726
13
-19.679667
23
31.520569
33
18.111713
0
3DFACE
8
InclinD
62
30.000000
10
-19.679667
20
31.520569
30
18.111713
11
-21.497101
21
7.405492
31
17.918726
12
-16.230589
22
7.405492
32
17.364357
13
-15.244711
23
31.520569
33
17.280159
0
3DFACE
8
InclinD
62
30.000000
10
-15.244711
20
31.520569
30
17.280159
11
-16.230589
21
7.405492
31
17.364357
12
-14.844665
22
7.405492
32
17.918726
13
-14.135972
23
31.520569
33
17.834530
0
3DFACE
8
Hel2
62
31.000000
10
16.729593
20
0.962736
30
25.063293
11
16.480320
21
2.021892
31
20.452993
12
17.137980
22
0.434163
32
20.207111
13
16.729593
23
0.131182
33
24.786676
0
3DFACE
8
Hel2
62
31.000000
10
16.480320
20
2.021892
30
20.452993
11
16.124781
21
2.643847
31
17.135118
12
17.331001
22
0.606072
32
17.606592
13
17.137980
23
0.434163
33
20.207111
0
3DFACE
8
Hel2
62
31.000000
10
16.124781
20
2.643847
30
17.135118
11
15.959908
21
2.309786
31
11.896585
12
16.861876
22
1.407820
32
12.472823
13
17.331001
23
0.606072
33
17.606592
0
3DFACE
8
AileG2
62
32.000000
10
5.552468
20
-31.677561
30
20.052008
11
4.490342
21
-53.020786
31
19.818939
12
-11.832765
22
-53.020786
32
19.818939
13
-13.858788
23
-31.677561
33
20.052008
0
3DFACE
8
AileG2
62
32.000000
10
7.017469
20
-31.677561
30
18.953257
11
5.722275
21
-53.020786
31
18.894989
12
4.490342
22
-53.020786
32
19.818939
13
5.552468
23
-31.677561
33
20.052008
0
3DFACE
8
AileG2
62
32.000000
10
1.157467
20
-31.677561
30
17.122005
11
0.794547
21
-53.020786
31
17.355074
12
5.722275
22
-53.020786
32
18.894989
13
7.017469
23
-31.677561
33
18.953257
0
3DFACE
8
AileG2
62
32.000000
10
-15.115694
20
-31.677561
30
17.122005
11
-15.220591
21
-53.020786
31
17.355074
12
0.794547
22
-53.020786
32
17.355074
13
1.157467
23
-31.677561
33
17.122005
0
3DFACE
8
AileG2
62
32.000000
10
-19.718790
20
-31.677561
30
18.220758
11
-16.760498
21
-53.020786
31
18.279024
12
-15.220591
22
-53.020786
32
17.355074
13
-15.115694
23
-31.677561
33
17.122005
0
3DFACE
8
AileG2
62
32.000000
10
-13.858788
20
-31.677561
30
20.052008
11
-11.832765
21
-53.020786
31
19.818939
12
-16.760498
22
-53.020786
32
18.279024
13
-19.718790
23
-31.677561
33
18.220758
0
3DFACE
8
AileG2
62
32.000000
10
4.490342
20
-53.020786
30
19.818939
11
-0.993422
21
-57.732933
31
18.565557
12
-10.297009
22
-57.732933
32
18.565557
13
-11.832765
23
-53.020786
33
19.818939
0
3DFACE
8
AileG2
62
32.000000
10
5.722275
20
-53.020786
30
18.894989
11
2.987884
21
-56.347008
31
18.581642
12
-0.993422
22
-57.732933
32
18.565557
13
4.490342
23
-53.020786
33
19.818939
0
3DFACE
8
AileG2
62
32.000000
10
0.794547
20
-53.020786
30
17.355074
11
-0.741207
21
-57.732933
31
18.608456
12
2.987884
22
-56.347008
32
18.581642
13
5.722275
23
-53.020786
33
18.894989
0
3DFACE
8
AileG2
62
32.000000
10
-15.220591
20
-53.020786
30
17.355074
11
-10.366101
21
-57.732933
31
18.608456
12
-0.741207
22
-57.732933
32
18.608456
13
0.794547
23
-53.020786
33
17.355074
0
3DFACE
8
AileG2
62
32.000000
10
-16.760498
20
-53.020786
30
18.279024
11
-14.026107
21
-56.347008
31
18.592369
12
-10.366101
22
-57.732933
32
18.608456
13
-15.220591
23
-53.020786
33
17.355074
0
3DFACE
8
AileG2
62
32.000000
10
-11.832765
20
-53.020786
30
19.818939
11
-10.297009
21
-57.732933
31
18.565557
12
-14.026107
22
-56.347008
32
18.592369
13
-16.760498
23
-53.020786
33
18.279024
0
3DFACE
8
AileD2
62
33.000000
10
-13.858788
20
31.520569
30
20.052008
11
-11.832765
21
52.863796
31
19.818939
12
4.490342
22
52.863796
32
19.818939
13
5.552468
23
31.520569
33
20.052008
0
3DFACE
8
AileD2
62
33.000000
10
5.552468
20
31.520569
30
20.052008
11
4.490342
21
52.863796
31
19.818939
12
5.722275
22
52.863796
32
18.894989
13
7.017469
23
31.520569
33
18.953257
0
3DFACE
8
AileD2
62
33.000000
10
7.017469
20
31.520569
30
18.953257
11
5.722275
21
52.863796
31
18.894989
12
0.794547
22
52.863796
32
17.355074
13
1.157467
23
31.520569
33
17.122005
0
3DFACE
8
AileD2
62
33.000000
10
1.157467
20
31.520569
30
17.122005
11
0.794547
21
52.863796
31
17.355074
12
-15.220591
22
52.863796
32
17.355074
13
-15.115694
23
31.520569
33
17.122005
0
3DFACE
8
AileD2
62
33.000000
10
-15.115694
20
31.520569
30
17.122005
11
-15.220591
21
52.863796
31
17.355074
12
-16.760498
22
52.863796
32
18.279024
13
-19.718790
23
31.520569
33
18.220758
0
3DFACE
8
AileD2
62
33.000000
10
-19.718790
20
31.520569
30
18.220758
11
-16.760498
21
52.863796
31
18.279024
12
-11.832765
22
52.863796
32
19.818939
13
-13.858788
23
31.520569
33
20.052008
0
3DFACE
8
AileD2
62
33.000000
10
-11.832765
20
52.863796
30
19.818939
11
-10.297009
21
57.575939
31
18.565557
12
-0.993422
22
57.575939
32
18.565557
13
4.490342
23
52.863796
33
19.818939
0
3DFACE
8
AileD2
62
33.000000
10
4.490342
20
52.863796
30
19.818939
11
-0.993422
21
57.575939
31
18.565557
12
2.987884
22
56.190018
32
18.581642
13
5.722275
23
52.863796
33
18.894989
0
3DFACE
8
AileD2
62
33.000000
10
5.722275
20
52.863796
30
18.894989
11
2.987884
21
56.190018
31
18.581642
12
-0.741207
22
57.575939
32
18.608456
13
0.794547
23
52.863796
33
17.355074
0
3DFACE
8
AileD2
62
33.000000
10
0.794547
20
52.863796
30
17.355074
11
-0.741207
21
57.575939
31
18.608456
12
-10.366101
22
57.575939
32
18.608456
13
-15.220591
23
52.863796
33
17.355074
0
3DFACE
8
AileD2
62
33.000000
10
-15.220591
20
52.863796
30
17.355074
11
-10.366101
21
57.575939
31
18.608456
12
-14.026107
22
56.190018
32
18.592369
13
-16.760498
23
52.863796
33
18.279024
0
3DFACE
8
AileD2
62
33.000000
10
-16.760498
20
52.863796
30
18.279024
11
-14.026107
21
56.190018
31
18.592369
12
-10.297009
22
57.575939
32
18.565557
13
-11.832765
23
52.863796
33
19.818939
0
3DFACE
8
CharnID
62
34.000000
10
-14.391755
20
19.222982
30
20.136206
11
-14.567482
21
19.878807
31
20.136206
12
-13.911655
22
19.703081
32
20.136206
13
-13.911655
23
19.703081
33
20.136206
0
3DFACE
8
CharnIG
62
35.000000
10
-13.911655
20
-19.860069
30
20.136206
11
-14.567482
21
-20.035799
31
20.136206
12
-14.391755
22
-19.379971
32
20.136206
13
-14.391755
23
-19.379971
33
20.136206
0
3DFACE
8
CharnProf
62
36.000000
10
-46.379219
20
0.135631
30
21.530243
11
-46.020874
21
-0.100973
31
21.530243
12
-46.404945
22
-0.293009
32
21.530243
13
-46.404945
23
-0.293009
33
21.530243
0
3DFACE
8
Moyeux
62
37.000000
10
17.903008
20
0.131182
30
26.387003
11
17.903008
21
0.131182
31
26.387003
12
17.533430
22
0.131182
32
27.987328
13
17.533430
23
1.517105
33
27.187166
0
3DFACE
8
Moyeux
62
37.000000
10
17.533430
20
1.517105
30
27.187166
11
17.533430
21
0.131182
31
27.987328
12
14.853978
22
0.131182
32
27.987328
13
14.853978
23
1.517106
33
27.187166
0
3DFACE
8
Moyeux
62
37.000000
10
17.903008
20
0.131182
30
26.387003
11
17.903008
21
0.131182
31
26.387003
12
17.533430
22
1.517105
32
27.187166
13
17.533430
23
1.517105
33
25.586840
0
3DFACE
8
Moyeux
62
37.000000
10
17.533430
20
1.517105
30
25.586840
11
17.533430
21
1.517105
31
27.187166
12
14.853978
22
1.517106
32
27.187166
13
14.853978
23
1.517106
33
25.586840
0
3DFACE
8
Moyeux
62
37.000000
10
17.903008
20
0.131182
30
26.387003
11
17.903008
21
0.131182
31
26.387003
12
17.533430
22
1.517105
32
25.586840
13
17.533430
23
0.131182
33
24.786676
0
3DFACE
8
Moyeux
62
37.000000
10
17.533430
20
0.131182
30
24.786676
11
17.533430
21
1.517105
31
25.586840
12
14.853978
22
1.517106
32
25.586840
13
14.853978
23
0.131182
33
24.786676
0
3DFACE
8
Moyeux
62
37.000000
10
17.903008
20
0.131182
30
26.387003
11
17.903008
21
0.131182
31
26.387003
12
17.533430
22
0.131182
32
24.786676
13
17.533430
23
-1.254742
33
25.586842
0
3DFACE
8
Moyeux
62
37.000000
10
17.533430
20
-1.254742
30
25.586842
11
17.533430
21
0.131182
31
24.786676
12
14.853978
22
0.131182
32
24.786676
13
14.853978
23
-1.254742
33
25.586840
0
3DFACE
8
Moyeux
62
37.000000
10
17.903008
20
0.131182
30
26.387003
11
17.903008
21
0.131182
31
26.387003
12
17.533430
22
-1.254742
32
25.586842
13
17.533430
23
-1.254741
33
27.187166
0
3DFACE
8
Moyeux
62
37.000000
10
17.533430
20
-1.254741
30
27.187166
11
17.533430
21
-1.254742
31
25.586842
12
14.853978
22
-1.254742
32
25.586840
13
14.853978
23
-1.254742
33
27.187166
0
3DFACE
8
Moyeux
62
37.000000
10
17.903008
20
0.131182
30
26.387003
11
17.903008
21
0.131182
31
26.387003
12
17.533430
22
-1.254741
32
27.187166
13
17.533430
23
0.131182
33
27.987328
0
3DFACE
8
Moyeux
62
37.000000
10
17.533430
20
0.131182
30
27.987328
11
17.533430
21
-1.254741
31
27.187166
12
14.853978
22
-1.254742
32
27.187166
13
14.853978
23
0.131182
33
27.987328
0
3DFACE
8
AileSupD
62
38.000000
10
4.031645
20
20.433180
30
45.167080
11
6.057671
21
52.863804
31
44.934010
12
22.380775
22
52.863804
32
44.934010
13
23.442904
23
20.433180
33
45.167080
0
3DFACE
8
AileSupD
62
38.000000
10
23.442904
20
20.433180
30
45.167080
11
22.380775
21
52.863804
31
44.934010
12
23.612711
22
52.863804
32
44.010067
13
24.907907
23
20.433180
33
44.068329
0
3DFACE
8
AileSupD
62
38.000000
10
24.907907
20
20.433180
30
44.068329
11
23.612711
21
52.863804
31
44.010067
12
18.684982
22
52.863804
32
42.470146
13
19.047901
23
20.433180
33
42.237080
0
3DFACE
8
AileSupD
62
38.000000
10
19.047901
20
20.433180
30
42.237080
11
18.684982
21
52.863804
31
42.470146
12
2.669843
22
52.863804
32
42.470146
13
2.774740
23
20.433180
33
42.237080
0
3DFACE
8
AileSupD
62
38.000000
10
2.774740
20
20.433180
30
42.237080
11
2.669843
21
52.863804
31
42.470146
12
1.129934
22
52.863804
32
43.394096
13
-1.828357
23
20.433180
33
43.335835
0
3DFACE
8
AileSupD
62
38.000000
10
-1.828357
20
20.433180
30
43.335835
11
1.129934
21
52.863804
31
43.394096
12
6.057671
22
52.863804
32
44.934010
13
4.031645
23
20.433180
33
45.167080
0
3DFACE
8
AileSupD
62
38.000000
10
6.057671
20
52.863804
30
44.934010
11
7.593425
21
57.575951
31
43.680634
12
16.897011
22
57.575951
32
43.680634
13
22.380775
23
52.863804
33
44.934010
0
3DFACE
8
AileSupD
62
38.000000
10
22.380775
20
52.863804
30
44.934010
11
16.897011
21
57.575951
31
43.680634
12
20.878317
22
56.190025
32
43.696724
13
23.612711
23
52.863804
33
44.010067
0
3DFACE
8
AileSupD
62
38.000000
10
23.612711
20
52.863804
30
44.010067
11
20.878317
21
56.190025
31
43.696724
12
17.149227
22
57.575951
32
43.723534
13
18.684982
23
52.863804
33
42.470146
0
3DFACE
8
AileSupD
62
38.000000
10
18.684982
20
52.863804
30
42.470146
11
17.149227
21
57.575951
31
43.723534
12
7.524333
22
57.575951
32
43.723534
13
2.669843
23
52.863804
33
42.470146
0
3DFACE
8
AileSupD
62
38.000000
10
2.669843
20
52.863804
30
42.470146
11
7.524333
21
57.575951
31
43.723534
12
3.864327
22
56.190025
32
43.707439
13
1.129934
23
52.863804
33
43.394096
0
3DFACE
8
AileSupD
62
38.000000
10
1.129934
20
52.863804
30
43.394096
11
3.864327
21
56.190025
31
43.707439
12
7.593425
22
57.575951
32
43.680634
13
6.057671
23
52.863804
33
44.934010
0
3DFACE
8
Hel1
62
39.000000
10
16.729593
20
-0.700373
30
27.626989
11
16.480320
21
-1.759528
31
32.237293
12
17.137980
22
-0.171799
32
32.483170
13
16.729593
23
0.131182
33
27.903606
0
3DFACE
8
Hel1
62
39.000000
10
16.480320
20
-1.759528
30
32.237293
11
16.124781
21
-2.381483
31
35.555164
12
17.331001
22
-0.343708
32
35.083691
13
17.137980
23
-0.171799
33
32.483170
0
3DFACE
8
Hel1
62
39.000000
10
16.124781
20
-2.381483
30
35.555164
11
15.959908
21
-2.047421
31
40.793701
12
16.861876
22
-1.145456
32
40.217461
13
17.331001
23
-0.343708
33
35.083691
0
3DFACE
8
AileSup
62
40.000000
10
23.442904
20
20.433180
30
45.167080
11
24.907907
21
20.433180
31
44.068329
12
24.404636
22
13.433179
32
43.972351
13
23.323551
23
13.433179
33
44.783157
0
3DFACE
8
AileSup
62
40.000000
10
24.907907
20
20.433180
30
44.068329
11
19.047901
21
20.433180
31
42.237080
12
20.080309
22
13.433179
32
42.621002
13
24.404636
23
13.433179
33
43.972351
0
3DFACE
8
AileSup
62
40.000000
10
19.047901
20
20.433180
30
42.237080
11
2.774740
21
20.433180
31
42.237080
12
8.071722
22
13.433179
32
42.621002
13
20.080309
23
13.433179
33
42.621002
0
3DFACE
8
AileSup
62
40.000000
10
2.774740
20
20.433180
30
42.237080
11
-1.828357
21
20.433180
31
43.335835
12
4.674921
22
13.433179
32
43.431812
13
8.071722
23
13.433179
33
42.621002
0
3DFACE
8
AileSup
62
40.000000
10
-1.828357
20
20.433180
30
43.335835
11
4.031645
21
20.433180
31
45.167080
12
8.999242
22
13.433179
32
44.783157
13
4.674921
23
13.433179
33
43.431812
0
3DFACE
8
AileSup
62
40.000000
10
4.031645
20
20.433180
30
45.167080
11
23.442904
21
20.433180
31
45.167080
12
23.323551
22
13.433179
32
44.783157
13
8.999242
23
13.433179
33
44.783157
0
3DFACE
8
AileSup
62
40.000000
10
23.323551
20
13.433179
30
44.783157
11
24.404636
21
13.433179
31
43.972351
12
24.308542
22
4.433179
32
43.942322
13
23.347580
23
4.433179
33
44.663036
0
3DFACE
8
AileSup
62
40.000000
10
24.404636
20
13.433179
30
43.972351
11
20.080309
21
13.433179
31
42.621002
12
20.464697
22
4.433179
32
42.741123
13
24.308542
23
4.433179
33
43.942322
0
3DFACE
8
AileSup
62
40.000000
10
20.080309
20
13.433179
30
42.621002
11
8.071722
21
13.433179
31
42.621002
12
9.790395
22
4.433179
32
42.741123
13
20.464697
23
4.433179
33
42.741123
0
3DFACE
8
AileSup
62
40.000000
10
8.071722
20
13.433179
30
42.621002
11
4.674921
21
13.433179
31
43.431812
12
6.771016
22
4.433179
32
43.461842
13
9.790395
23
4.433179
33
42.741123
0
3DFACE
8
AileSup
62
40.000000
10
4.674921
20
13.433179
30
43.431812
11
8.999242
21
13.433179
31
44.783157
12
10.614856
22
4.433179
32
44.663036
13
6.771016
23
4.433179
33
43.461842
0
3DFACE
8
AileSup
62
40.000000
10
8.999242
20
13.433179
30
44.783157
11
23.323551
21
13.433179
31
44.783157
12
23.347580
22
4.433179
32
44.663036
13
10.614856
23
4.433179
33
44.663036
0
3DFACE
8
AileSup
62
40.000000
10
23.347580
20
4.433179
30
44.663036
11
24.308542
21
4.433179
31
43.942322
12
24.308542
22
-5.566821
32
43.942322
13
23.347580
23
-5.566821
33
44.663036
0
3DFACE
8
AileSup
62
40.000000
10
24.308542
20
4.433179
30
43.942322
11
20.464697
21
4.433179
31
42.741123
12
20.464697
22
-5.566821
32
42.741123
13
24.308542
23
-5.566821
33
43.942322
0
3DFACE
8
AileSup
62
40.000000
10
20.464697
20
4.433179
30
42.741123
11
9.790395
21
4.433179
31
42.741123
12
9.790395
22
-5.566821
32
42.741123
13
20.464697
23
-5.566821
33
42.741123
0
3DFACE
8
AileSup
62
40.000000
10
9.790395
20
4.433179
30
42.741123
11
6.771016
21
4.433179
31
43.461842
12
6.771016
22
-5.566821
32
43.461842
13
9.790395
23
-5.566821
33
42.741123
0
3DFACE
8
AileSup
62
40.000000
10
6.771016
20
4.433179
30
43.461842
11
10.614856
21
4.433179
31
44.663036
12
10.614856
22
-5.566821
32
44.663036
13
6.771016
23
-5.566821
33
43.461842
0
3DFACE
8
AileSup
62
40.000000
10
10.614856
20
4.433179
30
44.663036
11
23.347580
21
4.433179
31
44.663036
12
23.347580
22
-5.566821
32
44.663036
13
10.614856
23
-5.566821
33
44.663036
0
3DFACE
8
AileSup
62
40.000000
10
23.347580
20
-5.566821
30
44.663036
11
24.308542
21
-5.566821
31
43.942322
12
24.500731
22
-14.566821
32
44.002380
13
23.299530
23
-14.566821
33
44.903275
0
3DFACE
8
AileSup
62
40.000000
10
24.308542
20
-5.566821
30
43.942322
11
20.464697
21
-5.566821
31
42.741123
12
19.695925
22
-14.566821
32
42.500885
13
24.500731
23
-14.566821
33
44.002380
0
3DFACE
8
AileSup
62
40.000000
10
20.464697
20
-5.566821
30
42.741123
11
9.790395
21
-5.566821
31
42.741123
12
6.353051
22
-14.566821
32
42.500885
13
19.695925
23
-14.566821
33
42.500885
0
3DFACE
8
AileSup
62
40.000000
10
9.790395
20
-5.566821
30
42.741123
11
6.771016
21
-5.566821
31
43.461842
12
2.578828
22
-14.566821
32
43.401787
13
6.353051
23
-14.566821
33
42.500885
0
3DFACE
8
AileSup
62
40.000000
10
6.771016
20
-5.566821
30
43.461842
11
10.614856
21
-5.566821
31
44.663036
12
7.383627
22
-14.566821
32
44.903275
13
2.578828
23
-14.566821
33
43.401787
0
3DFACE
8
AileSup
62
40.000000
10
10.614856
20
-5.566821
30
44.663036
11
23.347580
21
-5.566821
31
44.663036
12
23.299530
22
-14.566821
32
44.903275
13
7.383627
23
-14.566821
33
44.903275
0
3DFACE
8
AileSup
62
40.000000
10
23.299530
20
-14.566821
30
44.903275
11
24.500731
21
-14.566821
31
44.002380
12
24.789011
22
-20.566822
32
44.092472
13
23.227449
23
-20.566822
33
45.263634
0
3DFACE
8
AileSup
62
40.000000
10
24.500731
20
-14.566821
30
44.002380
11
19.695925
21
-14.566821
31
42.500885
12
18.542767
22
-20.566822
32
42.140530
13
24.789011
23
-20.566822
33
44.092472
0
3DFACE
8
AileSup
62
40.000000
10
19.695925
20
-14.566821
30
42.500885
11
6.353051
21
-14.566821
31
42.500885
12
1.197030
22
-20.566822
32
42.140530
13
18.542767
23
-20.566822
33
42.140530
0
3DFACE
8
AileSup
62
40.000000
10
6.353051
20
-14.566821
30
42.500885
11
2.578828
21
-14.566821
31
43.401787
12
-1.709461
22
-20.566822
32
43.311699
13
1.197030
23
-20.566822
33
42.140530
0
3DFACE
8
AileSup
62
40.000000
10
2.578828
20
-14.566821
30
43.401787
11
7.383627
21
-14.566821
31
44.903275
12
2.536779
22
-20.566822
32
45.263634
13
-1.709461
23
-20.566822
33
43.311699
0
3DFACE
8
AileSup
62
40.000000
10
7.383627
20
-14.566821
30
44.903275
11
23.299530
21
-14.566821
31
44.903275
12
23.227449
22
-20.566822
32
45.263634
13
2.536779
23
-20.566822
33
45.263634
0
3DFACE
8
Queue
62
41.000000
10
-12.032948
20
-9.052570
30
20.445463
11
-31.032948
21
-5.833651
31
20.822529
12
-31.032948
22
-4.731177
32
25.084732
13
-12.032948
23
-7.344911
33
26.451004
0
3DFACE
8
Queue
62
41.000000
10
-12.032948
20
-7.344911
30
26.451004
11
-31.032948
21
-4.731177
31
25.084732
12
-31.032948
22
-1.809984
32
27.732912
13
-12.032948
23
-2.820175
33
30.182348
0
3DFACE
8
Queue
62
41.000000
10
-12.032948
20
-2.820175
30
30.182348
11
-31.032948
21
-1.809984
31
27.732912
12
-31.032948
22
1.814131
32
27.755547
13
-12.032948
23
2.793342
33
30.214239
0
3DFACE
8
Queue
62
41.000000
10
-12.032948
20
2.793342
30
30.214239
11
-31.032948
21
1.814131
31
27.755547
12
-31.032948
22
4.756880
32
25.144005
13
-12.032948
23
7.351468
33
26.534515
0
3DFACE
8
Queue
62
41.000000
10
-12.032948
20
7.351468
30
26.534515
11
-31.032948
21
4.756880
31
25.144005
12
-31.032948
22
5.894232
32
20.895788
13
-12.032948
23
9.113153
33
20.548685
0
3DFACE
8
Queue
62
41.000000
10
-12.032948
20
9.113153
30
20.548685
11
-31.032948
21
5.894232
31
20.895788
12
-31.032948
22
4.791759
32
18.404078
13
-12.032948
23
7.405492
33
17.037809
0
3DFACE
8
Queue
62
41.000000
10
-12.032948
20
7.405492
30
17.037809
11
-31.032948
21
4.791759
31
18.404078
12
-31.032948
22
1.870567
32
15.755898
13
-12.032948
23
2.880758
33
13.306466
0
3DFACE
8
Queue
62
41.000000
10
-12.032948
20
2.880758
30
13.306466
11
-31.032948
21
1.870567
31
15.755898
12
-31.032948
22
-1.753548
32
15.733259
13
-12.032948
23
-2.732758
33
13.274567
0
3DFACE
8
Queue
62
41.000000
10
-12.032948
20
-2.732758
30
13.274567
11
-31.032948
21
-1.753548
31
15.733259
12
-31.032948
22
-4.696299
32
18.344809
13
-12.032948
23
-7.290886
33
16.954296
0
3DFACE
8
Queue
62
41.000000
10
-12.032948
20
-7.290886
30
16.954296
11
-31.032948
21
-4.696299
31
18.344809
12
-31.032948
22
-5.833651
32
20.822529
13
-12.032948
23
-9.052570
33
20.445463
0
3DFACE
8
Queue
62
41.000000
10
-31.032948
20
-5.833651
30
20.822529
11
-48.032948
21
-0.051053
31
21.283466
12
-48.032948
22
-0.035759
32
23.414568
13
-31.032948
23
-4.731177
33
25.084732
0
3DFACE
8
Queue
62
41.000000
10
-31.032948
20
-4.731177
30
25.084732
11
-48.032948
21
-0.035759
31
23.414568
12
-48.032948
22
0.004763
32
24.738659
13
-31.032948
23
-1.809984
33
27.732912
0
3DFACE
8
Queue
62
41.000000
10
-31.032948
20
-1.809984
30
27.732912
11
-48.032948
21
0.004763
31
24.738659
12
-48.032948
22
0.055036
32
24.749975
13
-31.032948
23
1.814131
33
27.755547
0
3DFACE
8
Queue
62
41.000000
10
-31.032948
20
1.814131
30
27.755547
11
-48.032948
21
0.055036
31
24.749975
12
-48.032948
22
0.095857
32
23.444204
13
-31.032948
23
4.756880
33
25.144005
0
3DFACE
8
Queue
62
41.000000
10
-31.032948
20
4.756880
30
25.144005
11
-48.032948
21
0.095857
31
23.444204
12
-48.032948
22
0.111634
32
21.320095
13
-31.032948
23
5.894232
33
20.895788
0
3DFACE
8
Queue
62
41.000000
10
-31.032948
20
5.894232
30
20.895788
11
-48.032948
21
0.111634
31
21.320095
12
-48.032948
22
0.096341
32
20.074240
13
-31.032948
23
4.791759
33
18.404078
0
3DFACE
8
Queue
62
41.000000
10
-31.032948
20
4.791759
30
18.404078
11
-48.032948
21
0.096341
31
20.074240
12
-48.032948
22
0.055819
32
18.750151
13
-31.032948
23
1.870567
33
15.755898
0
3DFACE
8
Queue
62
41.000000
10
-31.032948
20
1.870567
30
15.755898
11
-48.032948
21
0.055819
31
18.750151
12
-48.032948
22
0.005546
32
18.738831
13
-31.032948
23
-1.753548
33
15.733259
0
3DFACE
8
Queue
62
41.000000
10
-31.032948
20
-1.753548
30
15.733259
11
-48.032948
21
0.005546
31
18.738831
12
-48.032948
22
-0.035275
32
20.044605
13
-31.032948
23
-4.696299
33
18.344809
0
3DFACE
8
Queue
62
41.000000
10
-31.032948
20
-4.696299
30
18.344809
11
-48.032948
21
-0.035275
31
20.044605
12
-48.032948
22
-0.051053
32
21.283466
13
-31.032948
23
-5.833651
33
20.822529
0
3DFACE
8
LunD
62
42.000000
10
-4.029954
20
0.243333
30
33.884670
11
-4.041956
21
0.303673
31
35.433201
12
-3.543946
22
0.875504
32
35.219193
13
-3.534971
23
0.830382
33
34.061218
0
3DFACE
8
LunD
62
42.000000
10
-4.041956
20
0.303673
30
35.433201
11
-4.264062
21
1.420276
31
36.484673
12
-3.710034
22
1.710487
32
36.005470
13
-3.543946
23
0.875504
33
35.219193
0
3DFACE
8
LunD
62
42.000000
10
-4.264062
20
1.420276
30
36.484673
11
-4.566165
21
2.939050
31
36.423149
12
-3.935943
22
2.846207
32
35.959465
13
-3.710034
23
1.710487
33
36.005470
0
3DFACE
8
LunD
62
42.000000
10
-4.566165
20
2.939050
30
36.423149
11
-4.771297
21
3.970318
31
35.284672
12
-4.089339
22
3.617377
32
35.108124
13
-3.935943
23
2.846207
33
35.959465
0
3DFACE
8
LunD
62
42.000000
10
-4.771297
20
3.970318
30
35.284672
11
-4.759295
21
3.909977
31
33.736141
12
-4.080363
22
3.572255
32
33.950153
13
-4.089339
23
3.617377
33
35.108124
0
3DFACE
8
LunD
62
42.000000
10
-4.759295
20
3.909977
30
33.736141
11
-4.537189
21
2.793374
31
32.684673
12
-3.914275
22
2.737272
32
33.163876
13
-4.080363
23
3.572255
33
33.950153
0
3DFACE
8
LunD
62
42.000000
10
-4.537189
20
2.793374
30
32.684673
11
-4.235085
21
1.274600
31
32.746197
12
-3.688366
22
1.601552
32
33.209881
13
-3.914275
23
2.737272
33
33.163876
0
3DFACE
8
LunD
62
42.000000
10
-4.235085
20
1.274600
30
32.746197
11
-4.029954
21
0.243333
31
33.884670
12
-3.534971
22
0.830382
32
34.061218
13
-3.688366
23
1.601552
33
33.209881
0
3DFACE
8
LunD
62
42.000000
10
-3.534971
20
0.830382
30
34.061218
11
-3.543946
21
0.875504
31
35.219193
12
-3.710034
22
1.710487
32
36.005470
13
-3.710034
23
1.710487
33
36.005470
0
3DFACE
8
LunD
62
42.000000
10
-3.534971
20
0.830382
30
34.061218
11
-3.710034
21
1.710487
31
36.005470
12
-3.935943
22
2.846207
32
35.959465
13
-3.935943
23
2.846207
33
35.959465
0
3DFACE
8
LunD
62
42.000000
10
-3.534971
20
0.830382
30
34.061218
11
-3.935943
21
2.846207
31
35.959465
12
-4.089339
22
3.617377
32
35.108124
13
-4.089339
23
3.617377
33
35.108124
0
3DFACE
8
LunD
62
42.000000
10
-3.534971
20
0.830382
30
34.061218
11
-4.089339
21
3.617377
31
35.108124
12
-4.080363
22
3.572255
32
33.950153
13
-4.080363
23
3.572255
33
33.950153
0
3DFACE
8
LunD
62
42.000000
10
-3.534971
20
0.830382
30
34.061218
11
-4.080363
21
3.572255
31
33.950153
12
-3.914275
22
2.737272
32
33.163876
13
-3.914275
23
2.737272
33
33.163876
0
3DFACE
8
LunD
62
42.000000
10
-3.534971
20
0.830382
30
34.061218
11
-3.914275
21
2.737272
31
33.163876
12
-3.688366
22
1.601552
32
33.209881
13
-3.688366
23
1.601552
33
33.209881
0
3DFACE
8
LunG
62
43.000000
10
-3.534971
20
-0.343716
30
34.061218
11
-3.543946
21
-0.388838
31
35.219193
12
-4.041956
22
0.182993
32
35.433201
13
-4.029954
23
0.243333
33
33.884670
0
3DFACE
8
LunG
62
43.000000
10
-3.543946
20
-0.388838
30
35.219193
11
-3.710034
21
-1.223820
31
36.005470
12
-4.264062
22
-0.933610
32
36.484673
13
-4.041956
23
0.182993
33
35.433201
0
3DFACE
8
LunG
62
43.000000
10
-3.710034
20
-1.223820
30
36.005470
11
-3.935943
21
-2.359541
31
35.959465
12
-4.566165
22
-2.452384
32
36.423149
13
-4.264062
23
-0.933610
33
36.484673
0
3DFACE
8
LunG
62
43.000000
10
-3.935943
20
-2.359541
30
35.959465
11
-4.089339
21
-3.130710
31
35.108124
12
-4.771297
22
-3.483651
32
35.284672
13
-4.566165
23
-2.452384
33
36.423149
0
3DFACE
8
LunG
62
43.000000
10
-4.089339
20
-3.130710
30
35.108124
11
-4.080363
21
-3.085588
31
33.950153
12
-4.759295
22
-3.423311
32
33.736141
13
-4.771297
23
-3.483651
33
35.284672
0
3DFACE
8
LunG
62
43.000000
10
-4.080363
20
-3.085588
30
33.950153
11
-3.914275
21
-2.250606
31
33.163876
12
-4.537189
22
-2.306707
32
32.684673
13
-4.759295
23
-3.423311
33
33.736141
0
3DFACE
8
LunG
62
43.000000
10
-3.914275
20
-2.250606
30
33.163876
11
-3.688366
21
-1.114885
31
33.209881
12
-4.235085
22
-0.787934
32
32.746197
13
-4.537189
23
-2.306707
33
32.684673
0
3DFACE
8
LunG
62
43.000000
10
-3.688366
20
-1.114885
30
33.209881
11
-3.534971
21
-0.343716
31
34.061218
12
-4.029954
22
0.243333
32
33.884670
13
-4.235085
23
-0.787934
33
32.746197
0
3DFACE
8
LunG
62
43.000000
10
-3.688366
20
-1.114885
30
33.209881
11
-3.914275
21
-2.250606
31
33.163876
12
-4.080363
22
-3.085588
32
33.950153
13
-4.080363
23
-3.085588
33
33.950153
0
3DFACE
8
LunG
62
43.000000
10
-3.688366
20
-1.114885
30
33.209881
11
-4.080363
21
-3.085588
31
33.950153
12
-4.089339
22
-3.130710
32
35.108124
13
-4.089339
23
-3.130710
33
35.108124
0
3DFACE
8
LunG
62
43.000000
10
-3.688366
20
-1.114885
30
33.209881
11
-4.089339
21
-3.130710
31
35.108124
12
-3.935943
22
-2.359541
32
35.959465
13
-3.935943
23
-2.359541
33
35.959465
0
3DFACE
8
LunG
62
43.000000
10
-3.688366
20
-1.114885
30
33.209881
11
-3.935943
21
-2.359541
31
35.959465
12
-3.710034
22
-1.223820
32
36.005470
13
-3.710034
23
-1.223820
33
36.005470
0
3DFACE
8
LunG
62
43.000000
10
-3.688366
20
-1.114885
30
33.209881
11
-3.710034
21
-1.223820
31
36.005470
12
-3.543946
22
-0.388838
32
35.219193
13
-3.543946
23
-0.388838
33
35.219193
0
3DFACE
8
LunG
62
43.000000
10
-3.688366
20
-1.114885
30
33.209881
11
-3.543946
21
-0.388838
31
35.219193
12
-3.534971
22
-0.343716
32
34.061218
13
-3.534971
23
-0.343716
33
34.061218
0
3DFACE
8
Tube2
62
44.000000
10
2.746320
20
23.626389
30
42.625977
11
3.722763
21
22.517649
31
42.625977
12
0.500983
22
6.446631
32
26.950577
13
-0.547112
23
7.005850
33
26.391356
0
3DFACE
8
Tube2
62
44.000000
10
3.722763
20
22.517649
30
42.625977
11
5.302687
21
22.941153
31
42.625973
12
2.196834
22
6.660234
32
26.736971
13
0.500983
23
6.446631
33
26.950577
0
3DFACE
8
Tube2
62
44.000000
10
5.302687
20
22.941153
30
42.625973
11
5.302685
21
24.311632
31
42.625977
12
2.196831
22
7.351468
32
26.045738
13
2.196834
23
6.660234
33
26.736971
0
3DFACE
8
Tube2
62
44.000000
10
5.302685
20
24.311632
30
42.625977
11
3.722762
21
24.735126
31
42.625973
12
0.500980
22
7.565069
32
25.832136
13
2.196831
23
7.351468
33
26.045738
0
3DFACE
8
Tube2
62
44.000000
10
3.722762
20
24.735126
30
42.625973
11
2.746320
21
23.626389
31
42.625977
12
-0.547112
22
7.005850
32
26.391356
13
0.500980
23
7.565069
33
25.832136
0
3DFACE
8
PosCam
62
45.000000
10
-10.139325
20
-0.078545
30
34.950432
11
-11.632572
21
-0.078545
31
35.662319
12
-10.269431
22
-0.078545
32
36.599567
13
-10.269431
23
-0.078545
33
36.599567
0
ENDSEC
0
EOF
