0
SECTION
2
ENTITIES
0
3DFACE
8
Poteau2
62
1.000000
10
-8.337185
20
143.762619
30
-0.360000
11
-6.807988
21
143.352875
31
-0.360000
12
-6.807988
22
143.352875
32
57.858303
13
-8.337185
23
143.762619
33
57.858303
0
3DFACE
8
Poteau2
62
1.000000
10
-6.807988
20
143.352875
30
-0.360000
11
-7.927442
21
142.233429
31
-0.360000
12
-7.927442
22
142.233429
32
57.858303
13
-6.807988
23
143.352875
33
57.858303
0
3DFACE
8
Poteau2
62
1.000000
10
-7.927442
20
142.233429
30
-0.360000
11
-8.337185
21
143.762619
31
-0.360000
12
-8.337185
22
143.762619
32
57.858303
13
-7.927442
23
142.233429
33
57.858303
0
3DFACE
8
Poteau3
62
2.000000
10
-103.594452
20
143.762619
30
1.429802
11
-102.065262
21
143.352875
31
1.429802
12
-102.065262
22
143.352875
32
59.648098
13
-103.594452
23
143.762619
33
59.648098
0
3DFACE
8
Poteau3
62
2.000000
10
-102.065262
20
143.352875
30
1.429802
11
-103.184708
21
142.233429
31
1.429802
12
-103.184708
22
142.233429
32
59.648098
13
-102.065262
23
143.352875
33
59.648098
0
3DFACE
8
Poteau3
62
2.000000
10
-103.184708
20
142.233429
30
1.429802
11
-103.594452
21
143.762619
31
1.429802
12
-103.594452
22
143.762619
32
59.648098
13
-103.184708
23
142.233429
33
59.648098
0
3DFACE
8
Poteau1
62
3.000000
10
89.903084
20
143.762619
30
3.020739
11
91.432281
21
143.352875
31
3.020739
12
91.432281
22
143.352875
32
61.239044
13
89.903084
23
143.762619
33
61.239044
0
3DFACE
8
Poteau1
62
3.000000
10
91.432281
20
143.352875
30
3.020739
11
90.312828
21
142.233429
31
3.020739
12
90.312828
22
142.233429
32
61.239044
13
91.432281
23
143.352875
33
61.239044
0
3DFACE
8
Poteau1
62
3.000000
10
90.312828
20
142.233429
30
3.020739
11
89.903084
21
143.762619
31
3.020739
12
89.903084
22
143.762619
32
61.239044
13
90.312828
23
142.233429
33
61.239044
0
3DFACE
8
Hab1
62
4.000000
10
113.916046
20
-83.487946
30
1.429802
11
114.910393
21
56.713245
31
1.429802
12
114.910393
22
56.736904
32
69.017265
13
113.916046
23
-83.464287
33
69.017265
0
3DFACE
8
Hab1
62
4.000000
10
114.910393
20
56.713245
30
1.429802
11
183.519485
21
57.707577
31
1.429802
12
183.519485
22
57.731239
32
69.017265
13
114.910393
23
56.736904
33
69.017265
0
3DFACE
8
Hab1
62
4.000000
10
183.519485
20
57.707577
30
1.429802
11
184.513809
21
-159.057373
31
1.429802
12
184.513809
22
-159.033722
32
69.017265
13
183.519485
23
57.731239
33
69.017265
0
3DFACE
8
Hab1
62
4.000000
10
184.513809
20
-159.057373
30
1.429802
11
113.916046
21
-157.814453
31
1.429802
12
113.916046
22
-157.790802
32
69.017265
13
184.513809
23
-159.033722
33
69.017265
0
3DFACE
8
GrangeToit
62
5.000000
10
94.576027
20
172.548615
30
65.266129
11
94.576035
21
136.006821
31
58.653797
12
-104.588783
22
135.758224
32
57.908047
13
-104.588783
23
172.300018
33
64.520378
0
3DFACE
8
Grange
62
6.000000
10
94.576027
20
172.548615
30
65.266129
11
94.576027
21
172.548615
31
1.429802
12
-104.588783
22
172.548615
32
1.429802
13
-104.588783
23
172.548615
33
65.266129
0
3DFACE
8
Grange
62
6.000000
10
-104.588783
20
172.548615
30
65.266129
11
-104.588783
21
172.548615
31
1.429802
12
-104.588783
22
223.562622
32
1.429802
13
-104.588783
23
223.562622
33
72.425339
0
3DFACE
8
Grange
62
6.000000
10
-104.588783
20
223.562622
30
72.425339
11
-104.588783
21
223.562622
31
1.429802
12
94.576027
22
223.562622
32
1.429802
13
94.576027
23
223.562622
33
72.425339
0
3DFACE
8
Grange
62
6.000000
10
94.576027
20
223.562622
30
72.425339
11
94.576027
21
223.562622
31
1.429802
12
94.576027
22
172.548615
32
1.429802
13
94.576027
23
172.548615
33
65.266129
0
3DFACE
8
Grange
62
6.000000
10
94.576027
20
172.548615
30
65.266129
11
-104.588783
21
172.548615
31
65.266129
12
-104.588783
22
223.562622
32
72.425339
13
94.576027
23
223.562622
33
72.425339
0
3DFACE
8
Grange
62
6.000000
10
94.576027
20
223.562622
30
1.429802
11
-104.588783
21
223.562622
31
1.429802
12
-104.588783
22
172.548615
32
1.429802
13
94.576027
23
172.548615
33
1.429802
0
3DFACE
8
Hab2
62
7.000000
10
-45.177502
20
-157.790802
30
1.429802
11
-45.177502
21
-157.790802
31
69.017265
12
113.916046
22
-157.790802
32
69.017265
13
113.916046
23
-157.790802
33
1.429802
0
3DFACE
8
Hab2
62
7.000000
10
-45.177502
20
-157.790802
30
1.429802
11
-45.177502
21
-83.487946
31
1.429802
12
-45.177502
22
-83.487946
32
69.017265
13
-45.177502
23
-157.790802
33
69.017265
0
3DFACE
8
Hab2
62
7.000000
10
-45.177502
20
-83.487946
30
1.429802
11
113.916046
21
-83.487946
31
1.429802
12
113.916046
22
-83.487946
32
69.017265
13
-45.177502
23
-83.487946
33
69.017265
0
3DFACE
8
Hab2
62
7.000000
10
113.916046
20
-83.487946
30
1.429802
11
113.916046
21
-157.790802
31
1.429802
12
113.916046
22
-157.790802
32
69.017265
13
113.916046
23
-83.487946
33
69.017265
0
3DFACE
8
Toit1
62
8.000000
10
183.519485
20
57.731239
30
69.017265
11
184.513809
21
-159.033722
31
69.017265
12
151.750504
22
-119.409477
32
108.790657
13
151.054474
23
27.503468
33
108.790657
0
3DFACE
8
Toit1
62
8.000000
10
114.910393
20
56.736904
30
69.017265
11
183.519485
21
57.731239
31
69.017265
12
151.054474
22
27.503468
32
108.790657
13
151.054474
23
27.503468
33
108.790657
0
3DFACE
8
Toit1
62
8.000000
10
114.910393
20
56.736904
30
69.017265
11
151.054474
21
27.503468
31
108.790657
12
151.750504
22
-119.409477
32
108.790657
13
113.916046
23
-83.464287
33
69.017265
0
3DFACE
8
Toi2
62
9.000000
10
113.916046
20
-83.464287
30
69.017265
11
151.750504
21
-119.409477
31
108.790657
12
-12.066156
22
-119.459198
32
108.790657
13
-45.177502
23
-83.487946
33
69.017265
0
3DFACE
8
Toi2
62
9.000000
10
-45.177502
20
-83.487946
30
69.017265
11
-12.066156
21
-119.459198
31
108.790657
12
-45.177502
22
-157.790802
32
69.017265
13
-45.177502
23
-157.790802
33
69.017265
0
3DFACE
8
Toi2
62
9.000000
10
-45.177502
20
-157.790802
30
69.017265
11
-12.066156
21
-119.459198
31
108.790657
12
151.750504
22
-119.409477
32
108.790657
13
184.513809
23
-159.033722
33
69.017265
0
3DFACE
8
Mur1
62
10.000000
10
-45.177502
20
-157.790802
30
1.429802
11
-199.775543
21
-157.790787
31
1.429802
12
-199.775543
22
-157.790787
32
32.598709
13
-45.177502
23
-157.790802
33
32.598709
0
3DFACE
8
Mur2
62
11.000000
10
-199.775543
20
-157.790787
30
1.429802
11
-199.775543
21
-9.506792
31
1.429802
12
-199.775543
22
-9.506792
32
32.598709
13
-199.775543
23
-157.790787
33
32.598709
0
3DFACE
8
Mur4
62
12.000000
10
-200.123367
20
120.975433
30
1.429802
11
-200.123367
21
223.562622
31
1.429802
12
-200.123367
22
223.562622
32
32.598709
13
-200.123367
23
120.975433
33
32.598709
0
3DFACE
8
Mur3
62
13.000000
10
-200.123367
20
223.562622
30
1.429802
11
-104.588783
21
223.562622
31
1.429802
12
-104.588783
22
223.562622
32
32.598709
13
-200.123367
23
223.562622
33
32.598709
0
ENDSEC
0
EOF
