0
SECTION
2
ENTITIES
0
3DFACE
8
RouesAv
62
1.000000
10
24.147615
20
-8.789472
30
1.068188
11
24.147615
21
-10.939960
31
1.068188
12
29.050991
22
-10.939960
32
2.933509
13
29.050991
23
-8.789472
33
2.933509
0
3DFACE
8
RouesAv
62
1.000000
10
29.050991
20
-8.789472
30
2.933509
11
29.050991
21
-10.939960
31
2.933509
12
31.199215
22
-10.939960
32
7.719697
13
31.199215
23
-8.789472
33
7.719697
0
3DFACE
8
RouesAv
62
1.000000
10
31.199215
20
-8.789472
30
7.719697
11
31.199215
21
-10.939960
31
7.719697
12
29.333897
22
-10.939960
32
12.623070
13
29.333897
23
-8.789472
33
12.623070
0
3DFACE
8
RouesAv
62
1.000000
10
29.333897
20
-8.789472
30
12.623070
11
29.333897
21
-10.939960
31
12.623070
12
24.547709
22
-10.939960
32
14.771298
13
24.547709
23
-8.789472
33
14.771298
0
3DFACE
8
RouesAv
62
1.000000
10
24.547709
20
-8.789472
30
14.771298
11
24.547709
21
-10.939960
31
14.771298
12
19.644339
22
-10.939960
32
12.905981
13
19.644339
23
-8.789472
33
12.905981
0
3DFACE
8
RouesAv
62
1.000000
10
19.644339
20
-8.789472
30
12.905981
11
19.644339
21
-10.939960
31
12.905981
12
17.496107
22
-10.939960
32
8.119793
13
17.496107
23
-8.789472
33
8.119793
0
3DFACE
8
RouesAv
62
1.000000
10
17.496107
20
-8.789472
30
8.119793
11
17.496107
21
-10.939960
31
8.119793
12
19.361425
22
-10.939960
32
3.216419
13
19.361425
23
-8.789472
33
3.216419
0
3DFACE
8
RouesAv
62
1.000000
10
19.361425
20
-8.789472
30
3.216419
11
19.361425
21
-10.939960
31
3.216419
12
24.147615
22
-10.939960
32
1.068188
13
24.147615
23
-8.789472
33
1.068188
0
3DFACE
8
RouesAv
62
1.000000
10
24.147615
20
-10.939960
30
1.068188
11
24.218493
21
-11.690130
31
3.495695
12
27.384598
22
-11.690130
32
4.700133
13
29.050991
23
-10.939960
33
2.933509
0
3DFACE
8
RouesAv
62
1.000000
10
29.050991
20
-10.939960
30
2.933509
11
27.384598
21
-11.690130
31
4.700133
12
28.771709
22
-11.690130
32
7.790575
13
31.199215
23
-10.939960
33
7.719697
0
3DFACE
8
RouesAv
62
1.000000
10
31.199215
20
-10.939960
30
7.719697
11
28.771709
21
-11.690130
31
7.790575
12
27.567272
22
-11.690130
32
10.956680
13
29.333897
23
-10.939960
33
12.623070
0
3DFACE
8
RouesAv
62
1.000000
10
29.333897
20
-10.939960
30
12.623070
11
27.567272
21
-11.690130
31
10.956680
12
24.476833
22
-11.690130
32
12.343790
13
24.547709
23
-10.939960
33
14.771298
0
3DFACE
8
RouesAv
62
1.000000
10
24.547709
20
-10.939960
30
14.771298
11
24.476833
21
-11.690130
31
12.343790
12
21.310726
22
-11.690130
32
11.139355
13
19.644339
23
-10.939960
33
12.905981
0
3DFACE
8
RouesAv
62
1.000000
10
19.644339
20
-10.939960
30
12.905981
11
21.310726
21
-11.690130
31
11.139355
12
19.923615
22
-11.690130
32
8.048915
13
17.496107
23
-10.939960
33
8.119793
0
3DFACE
8
RouesAv
62
1.000000
10
17.496107
20
-10.939960
30
8.119793
11
19.923615
21
-11.690130
31
8.048915
12
21.128052
22
-11.690130
32
4.882808
13
19.361425
23
-10.939960
33
3.216419
0
3DFACE
8
RouesAv
62
1.000000
10
19.361425
20
-10.939960
30
3.216419
11
21.128052
21
-11.690130
31
4.882808
12
24.218493
22
-11.690130
32
3.495695
13
24.147615
23
-10.939960
33
1.068188
0
3DFACE
8
RouesAv
62
1.000000
10
21.128052
20
-11.690130
30
4.882808
11
19.923615
21
-11.690130
31
8.048915
12
21.310726
22
-11.690130
32
11.139355
13
21.310726
23
-11.690130
33
11.139355
0
3DFACE
8
RouesAv
62
1.000000
10
21.128052
20
-11.690130
30
4.882808
11
21.310726
21
-11.690130
31
11.139355
12
24.476833
22
-11.690130
32
12.343790
13
24.476833
23
-11.690130
33
12.343790
0
3DFACE
8
RouesAv
62
1.000000
10
21.128052
20
-11.690130
30
4.882808
11
24.476833
21
-11.690130
31
12.343790
12
27.567272
22
-11.690130
32
10.956680
13
27.567272
23
-11.690130
33
10.956680
0
3DFACE
8
RouesAv
62
1.000000
10
21.128052
20
-11.690130
30
4.882808
11
27.567272
21
-11.690130
31
10.956680
12
28.771709
22
-11.690130
32
7.790575
13
28.771709
23
-11.690130
33
7.790575
0
3DFACE
8
RouesAv
62
1.000000
10
21.128052
20
-11.690130
30
4.882808
11
28.771709
21
-11.690130
31
7.790575
12
27.384598
22
-11.690130
32
4.700133
13
27.384598
23
-11.690130
33
4.700133
0
3DFACE
8
RouesAv
62
1.000000
10
21.128052
20
-11.690130
30
4.882808
11
27.384598
21
-11.690130
31
4.700133
12
24.218493
22
-11.690130
32
3.495695
13
24.218493
23
-11.690130
33
3.495695
0
3DFACE
8
RouesAv
62
1.000000
10
29.050991
20
28.518087
30
2.933509
11
29.050991
21
30.668571
31
2.933509
12
24.147615
22
30.668571
32
1.068188
13
24.147615
23
28.518087
33
1.068188
0
3DFACE
8
RouesAv
62
1.000000
10
31.199215
20
28.518087
30
7.719697
11
31.199215
21
30.668571
31
7.719697
12
29.050991
22
30.668571
32
2.933509
13
29.050991
23
28.518087
33
2.933509
0
3DFACE
8
RouesAv
62
1.000000
10
29.333897
20
28.518087
30
12.623070
11
29.333897
21
30.668571
31
12.623070
12
31.199215
22
30.668571
32
7.719697
13
31.199215
23
28.518087
33
7.719697
0
3DFACE
8
RouesAv
62
1.000000
10
24.547709
20
28.518087
30
14.771298
11
24.547709
21
30.668571
31
14.771298
12
29.333897
22
30.668571
32
12.623070
13
29.333897
23
28.518087
33
12.623070
0
3DFACE
8
RouesAv
62
1.000000
10
19.644339
20
28.518087
30
12.905981
11
19.644339
21
30.668571
31
12.905981
12
24.547709
22
30.668571
32
14.771298
13
24.547709
23
28.518087
33
14.771298
0
3DFACE
8
RouesAv
62
1.000000
10
17.496107
20
28.518087
30
8.119793
11
17.496107
21
30.668571
31
8.119793
12
19.644339
22
30.668571
32
12.905981
13
19.644339
23
28.518087
33
12.905981
0
3DFACE
8
RouesAv
62
1.000000
10
19.361425
20
28.518087
30
3.216419
11
19.361425
21
30.668571
31
3.216419
12
17.496107
22
30.668571
32
8.119793
13
17.496107
23
28.518087
33
8.119793
0
3DFACE
8
RouesAv
62
1.000000
10
24.147615
20
28.518087
30
1.068188
11
24.147615
21
30.668571
31
1.068188
12
19.361425
22
30.668571
32
3.216419
13
19.361425
23
28.518087
33
3.216419
0
3DFACE
8
RouesAv
62
1.000000
10
29.050991
20
30.668571
30
2.933509
11
27.384598
21
31.418745
31
4.700133
12
24.218493
22
31.418745
32
3.495695
13
24.147615
23
30.668571
33
1.068188
0
3DFACE
8
RouesAv
62
1.000000
10
31.199215
20
30.668571
30
7.719697
11
28.771709
21
31.418745
31
7.790575
12
27.384598
22
31.418745
32
4.700133
13
29.050991
23
30.668571
33
2.933509
0
3DFACE
8
RouesAv
62
1.000000
10
29.333897
20
30.668571
30
12.623070
11
27.567272
21
31.418745
31
10.956680
12
28.771709
22
31.418745
32
7.790575
13
31.199215
23
30.668571
33
7.719697
0
3DFACE
8
RouesAv
62
1.000000
10
24.547709
20
30.668571
30
14.771298
11
24.476833
21
31.418745
31
12.343790
12
27.567272
22
31.418745
32
10.956680
13
29.333897
23
30.668571
33
12.623070
0
3DFACE
8
RouesAv
62
1.000000
10
19.644339
20
30.668571
30
12.905981
11
21.310726
21
31.418745
31
11.139355
12
24.476833
22
31.418745
32
12.343790
13
24.547709
23
30.668571
33
14.771298
0
3DFACE
8
RouesAv
62
1.000000
10
17.496107
20
30.668571
30
8.119793
11
19.923615
21
31.418745
31
8.048915
12
21.310726
22
31.418745
32
11.139355
13
19.644339
23
30.668571
33
12.905981
0
3DFACE
8
RouesAv
62
1.000000
10
19.361425
20
30.668571
30
3.216419
11
21.128052
21
31.418745
31
4.882808
12
19.923615
22
31.418745
32
8.048915
13
17.496107
23
30.668571
33
8.119793
0
3DFACE
8
RouesAv
62
1.000000
10
24.147615
20
30.668571
30
1.068188
11
24.218493
21
31.418745
31
3.495695
12
21.128052
22
31.418745
32
4.882808
13
19.361425
23
30.668571
33
3.216419
0
3DFACE
8
RouesAv
62
1.000000
10
24.218493
20
31.418745
30
3.495695
11
27.384598
21
31.418745
31
4.700133
12
28.771709
22
31.418745
32
7.790575
13
28.771709
23
31.418745
33
7.790575
0
3DFACE
8
RouesAv
62
1.000000
10
24.218493
20
31.418745
30
3.495695
11
28.771709
21
31.418745
31
7.790575
12
27.567272
22
31.418745
32
10.956680
13
27.567272
23
31.418745
33
10.956680
0
3DFACE
8
RouesAv
62
1.000000
10
24.218493
20
31.418745
30
3.495695
11
27.567272
21
31.418745
31
10.956680
12
24.476833
22
31.418745
32
12.343790
13
24.476833
23
31.418745
33
12.343790
0
3DFACE
8
RouesAv
62
1.000000
10
24.218493
20
31.418745
30
3.495695
11
24.476833
21
31.418745
31
12.343790
12
21.310726
22
31.418745
32
11.139355
13
21.310726
23
31.418745
33
11.139355
0
3DFACE
8
RouesAv
62
1.000000
10
24.218493
20
31.418745
30
3.495695
11
21.310726
21
31.418745
31
11.139355
12
19.923615
22
31.418745
32
8.048915
13
19.923615
23
31.418745
33
8.048915
0
3DFACE
8
RouesAv
62
1.000000
10
24.218493
20
31.418745
30
3.495695
11
19.923615
21
31.418745
31
8.048915
12
21.128052
22
31.418745
32
4.882808
13
21.128052
23
31.418745
33
4.882808
0
3DFACE
8
RouesAr
62
2.000000
10
-25.609716
20
-8.789472
30
1.068188
11
-25.609716
21
-10.939960
31
1.068188
12
-20.706343
22
-10.939960
32
2.933509
13
-20.706343
23
-8.789472
33
2.933509
0
3DFACE
8
RouesAr
62
2.000000
10
-20.706343
20
-8.789472
30
2.933509
11
-20.706343
21
-10.939960
31
2.933509
12
-18.558117
22
-10.939960
32
7.719697
13
-18.558117
23
-8.789472
33
7.719697
0
3DFACE
8
RouesAr
62
2.000000
10
-18.558117
20
-8.789472
30
7.719697
11
-18.558117
21
-10.939960
31
7.719697
12
-20.423435
22
-10.939960
32
12.623070
13
-20.423435
23
-8.789472
33
12.623070
0
3DFACE
8
RouesAr
62
2.000000
10
-20.423435
20
-8.789472
30
12.623070
11
-20.423435
21
-10.939960
31
12.623070
12
-25.209623
22
-10.939960
32
14.771298
13
-25.209623
23
-8.789472
33
14.771298
0
3DFACE
8
RouesAr
62
2.000000
10
-25.209623
20
-8.789472
30
14.771298
11
-25.209623
21
-10.939960
31
14.771298
12
-30.112995
22
-10.939960
32
12.905981
13
-30.112995
23
-8.789472
33
12.905981
0
3DFACE
8
RouesAr
62
2.000000
10
-30.112995
20
-8.789472
30
12.905981
11
-30.112995
21
-10.939960
31
12.905981
12
-32.261223
22
-10.939960
32
8.119793
13
-32.261223
23
-8.789472
33
8.119793
0
3DFACE
8
RouesAr
62
2.000000
10
-32.261223
20
-8.789472
30
8.119793
11
-32.261223
21
-10.939960
31
8.119793
12
-30.395908
22
-10.939960
32
3.216419
13
-30.395908
23
-8.789472
33
3.216419
0
3DFACE
8
RouesAr
62
2.000000
10
-30.395908
20
-8.789472
30
3.216419
11
-30.395908
21
-10.939960
31
3.216419
12
-25.609716
22
-10.939960
32
1.068188
13
-25.609716
23
-8.789472
33
1.068188
0
3DFACE
8
RouesAr
62
2.000000
10
-25.609716
20
-10.939960
30
1.068188
11
-25.538841
21
-11.690130
31
3.495695
12
-22.372736
22
-11.690130
32
4.700133
13
-20.706343
23
-10.939960
33
2.933509
0
3DFACE
8
RouesAr
62
2.000000
10
-20.706343
20
-10.939960
30
2.933509
11
-22.372736
21
-11.690130
31
4.700133
12
-20.985624
22
-11.690130
32
7.790575
13
-18.558117
23
-10.939960
33
7.719697
0
3DFACE
8
RouesAr
62
2.000000
10
-18.558117
20
-10.939960
30
7.719697
11
-20.985624
21
-11.690130
31
7.790575
12
-22.190060
22
-11.690130
32
10.956680
13
-20.423435
23
-10.939960
33
12.623070
0
3DFACE
8
RouesAr
62
2.000000
10
-20.423435
20
-10.939960
30
12.623070
11
-22.190060
21
-11.690130
31
10.956680
12
-25.280500
22
-11.690130
32
12.343790
13
-25.209623
23
-10.939960
33
14.771298
0
3DFACE
8
RouesAr
62
2.000000
10
-25.209623
20
-10.939960
30
14.771298
11
-25.280500
21
-11.690130
31
12.343790
12
-28.446608
22
-11.690130
32
11.139355
13
-30.112995
23
-10.939960
33
12.905981
0
3DFACE
8
RouesAr
62
2.000000
10
-30.112995
20
-10.939960
30
12.905981
11
-28.446608
21
-11.690130
31
11.139355
12
-29.833717
22
-11.690130
32
8.048915
13
-32.261223
23
-10.939960
33
8.119793
0
3DFACE
8
RouesAr
62
2.000000
10
-32.261223
20
-10.939960
30
8.119793
11
-29.833717
21
-11.690130
31
8.048915
12
-28.629282
22
-11.690130
32
4.882808
13
-30.395908
23
-10.939960
33
3.216419
0
3DFACE
8
RouesAr
62
2.000000
10
-30.395908
20
-10.939960
30
3.216419
11
-28.629282
21
-11.690130
31
4.882808
12
-25.538841
22
-11.690130
32
3.495695
13
-25.609716
23
-10.939960
33
1.068188
0
3DFACE
8
RouesAr
62
2.000000
10
-28.629282
20
-11.690130
30
4.882808
11
-29.833717
21
-11.690130
31
8.048915
12
-28.446608
22
-11.690130
32
11.139355
13
-28.446608
23
-11.690130
33
11.139355
0
3DFACE
8
RouesAr
62
2.000000
10
-28.629282
20
-11.690130
30
4.882808
11
-28.446608
21
-11.690130
31
11.139355
12
-25.280500
22
-11.690130
32
12.343790
13
-25.280500
23
-11.690130
33
12.343790
0
3DFACE
8
RouesAr
62
2.000000
10
-28.629282
20
-11.690130
30
4.882808
11
-25.280500
21
-11.690130
31
12.343790
12
-22.190060
22
-11.690130
32
10.956680
13
-22.190060
23
-11.690130
33
10.956680
0
3DFACE
8
RouesAr
62
2.000000
10
-28.629282
20
-11.690130
30
4.882808
11
-22.190060
21
-11.690130
31
10.956680
12
-20.985624
22
-11.690130
32
7.790575
13
-20.985624
23
-11.690130
33
7.790575
0
3DFACE
8
RouesAr
62
2.000000
10
-28.629282
20
-11.690130
30
4.882808
11
-20.985624
21
-11.690130
31
7.790575
12
-22.372736
22
-11.690130
32
4.700133
13
-22.372736
23
-11.690130
33
4.700133
0
3DFACE
8
RouesAr
62
2.000000
10
-28.629282
20
-11.690130
30
4.882808
11
-22.372736
21
-11.690130
31
4.700133
12
-25.538841
22
-11.690130
32
3.495695
13
-25.538841
23
-11.690130
33
3.495695
0
3DFACE
8
RouesAr
62
2.000000
10
-20.706343
20
28.518087
30
2.933509
11
-20.706343
21
30.668571
31
2.933509
12
-25.609716
22
30.668571
32
1.068188
13
-25.609716
23
28.518087
33
1.068188
0
3DFACE
8
RouesAr
62
2.000000
10
-18.558117
20
28.518087
30
7.719697
11
-18.558117
21
30.668571
31
7.719697
12
-20.706343
22
30.668571
32
2.933509
13
-20.706343
23
28.518087
33
2.933509
0
3DFACE
8
RouesAr
62
2.000000
10
-20.423435
20
28.518087
30
12.623070
11
-20.423435
21
30.668571
31
12.623070
12
-18.558117
22
30.668571
32
7.719697
13
-18.558117
23
28.518087
33
7.719697
0
3DFACE
8
RouesAr
62
2.000000
10
-25.209623
20
28.518087
30
14.771298
11
-25.209623
21
30.668571
31
14.771298
12
-20.423435
22
30.668571
32
12.623070
13
-20.423435
23
28.518087
33
12.623070
0
3DFACE
8
RouesAr
62
2.000000
10
-30.112995
20
28.518087
30
12.905981
11
-30.112995
21
30.668571
31
12.905981
12
-25.209623
22
30.668571
32
14.771298
13
-25.209623
23
28.518087
33
14.771298
0
3DFACE
8
RouesAr
62
2.000000
10
-32.261223
20
28.518087
30
8.119793
11
-32.261223
21
30.668571
31
8.119793
12
-30.112995
22
30.668571
32
12.905981
13
-30.112995
23
28.518087
33
12.905981
0
3DFACE
8
RouesAr
62
2.000000
10
-30.395908
20
28.518087
30
3.216419
11
-30.395908
21
30.668571
31
3.216419
12
-32.261223
22
30.668571
32
8.119793
13
-32.261223
23
28.518087
33
8.119793
0
3DFACE
8
RouesAr
62
2.000000
10
-25.609716
20
28.518087
30
1.068188
11
-25.609716
21
30.668571
31
1.068188
12
-30.395908
22
30.668571
32
3.216419
13
-30.395908
23
28.518087
33
3.216419
0
3DFACE
8
RouesAr
62
2.000000
10
-20.706343
20
30.668571
30
2.933509
11
-22.372736
21
31.418745
31
4.700133
12
-25.538841
22
31.418745
32
3.495695
13
-25.609716
23
30.668571
33
1.068188
0
3DFACE
8
RouesAr
62
2.000000
10
-18.558117
20
30.668571
30
7.719697
11
-20.985624
21
31.418745
31
7.790575
12
-22.372736
22
31.418745
32
4.700133
13
-20.706343
23
30.668571
33
2.933509
0
3DFACE
8
RouesAr
62
2.000000
10
-20.423435
20
30.668571
30
12.623070
11
-22.190060
21
31.418745
31
10.956680
12
-20.985624
22
31.418745
32
7.790575
13
-18.558117
23
30.668571
33
7.719697
0
3DFACE
8
RouesAr
62
2.000000
10
-25.209623
20
30.668571
30
14.771298
11
-25.280500
21
31.418745
31
12.343790
12
-22.190060
22
31.418745
32
10.956680
13
-20.423435
23
30.668571
33
12.623070
0
3DFACE
8
RouesAr
62
2.000000
10
-30.112995
20
30.668571
30
12.905981
11
-28.446608
21
31.418745
31
11.139355
12
-25.280500
22
31.418745
32
12.343790
13
-25.209623
23
30.668571
33
14.771298
0
3DFACE
8
RouesAr
62
2.000000
10
-32.261223
20
30.668571
30
8.119793
11
-29.833717
21
31.418745
31
8.048915
12
-28.446608
22
31.418745
32
11.139355
13
-30.112995
23
30.668571
33
12.905981
0
3DFACE
8
RouesAr
62
2.000000
10
-30.395908
20
30.668571
30
3.216419
11
-28.629282
21
31.418745
31
4.882808
12
-29.833717
22
31.418745
32
8.048915
13
-32.261223
23
30.668571
33
8.119793
0
3DFACE
8
RouesAr
62
2.000000
10
-25.609716
20
30.668571
30
1.068188
11
-25.538841
21
31.418745
31
3.495695
12
-28.629282
22
31.418745
32
4.882808
13
-30.395908
23
30.668571
33
3.216419
0
3DFACE
8
RouesAr
62
2.000000
10
-25.538841
20
31.418745
30
3.495695
11
-22.372736
21
31.418745
31
4.700133
12
-20.985624
22
31.418745
32
7.790575
13
-20.985624
23
31.418745
33
7.790575
0
3DFACE
8
RouesAr
62
2.000000
10
-25.538841
20
31.418745
30
3.495695
11
-20.985624
21
31.418745
31
7.790575
12
-22.190060
22
31.418745
32
10.956680
13
-22.190060
23
31.418745
33
10.956680
0
3DFACE
8
RouesAr
62
2.000000
10
-25.538841
20
31.418745
30
3.495695
11
-22.190060
21
31.418745
31
10.956680
12
-25.280500
22
31.418745
32
12.343790
13
-25.280500
23
31.418745
33
12.343790
0
3DFACE
8
RouesAr
62
2.000000
10
-25.538841
20
31.418745
30
3.495695
11
-25.280500
21
31.418745
31
12.343790
12
-28.446608
22
31.418745
32
11.139355
13
-28.446608
23
31.418745
33
11.139355
0
3DFACE
8
RouesAr
62
2.000000
10
-25.538841
20
31.418745
30
3.495695
11
-28.446608
21
31.418745
31
11.139355
12
-29.833717
22
31.418745
32
8.048915
13
-29.833717
23
31.418745
33
8.048915
0
3DFACE
8
RouesAr
62
2.000000
10
-25.538841
20
31.418745
30
3.495695
11
-29.833717
21
31.418745
31
8.048915
12
-28.629282
22
31.418745
32
4.882808
13
-28.629282
23
31.418745
33
4.882808
0
3DFACE
8
Van
62
3.000000
10
43.411110
20
-10.741134
30
3.088889
11
45.500000
21
-10.741134
31
13.533334
12
45.426521
22
30.326420
32
13.551393
13
43.340897
23
30.326420
33
3.123277
0
3DFACE
8
Van
62
3.000000
10
45.500000
20
-10.741134
30
13.533334
11
41.322227
21
-10.741134
31
15.622222
12
41.255276
22
30.326420
32
15.637015
13
45.426521
23
30.326420
33
13.551393
0
3DFACE
8
Van
62
3.000000
10
41.322227
20
-10.741134
30
15.622222
11
40.570225
21
-10.741134
31
27.278223
12
40.504456
22
30.326420
32
27.274794
13
41.255276
23
30.326420
33
15.637015
0
3DFACE
8
Van
62
3.000000
10
40.570225
20
-10.741134
30
27.278223
11
28.788893
21
-10.741134
31
46.955551
12
28.741539
22
30.326420
32
46.921360
13
40.504456
23
30.326420
33
27.274794
0
3DFACE
8
Van
62
3.000000
10
28.788893
20
-10.741134
30
46.955551
11
-7.474218
21
-10.741134
31
49.169777
12
-7.464879
22
30.326420
32
49.132126
13
28.741539
23
30.326420
33
46.921360
0
3DFACE
8
Van
62
3.000000
10
-7.474218
20
-10.741134
30
49.169777
11
-42.567558
21
-10.741134
31
46.746666
12
-42.503353
22
30.326420
32
46.712799
13
-7.464879
23
30.326420
33
49.132126
0
3DFACE
8
Van
62
3.000000
10
-42.567558
20
-10.741134
30
46.746666
11
-45.617332
21
-10.741134
31
29.910223
12
-45.548359
22
30.326420
32
29.902679
13
-42.503353
23
30.326420
33
46.712799
0
3DFACE
8
Van
62
3.000000
10
-45.617332
20
-10.741134
30
29.910223
11
-46.411110
21
-10.741134
31
11.444445
12
-46.340897
22
30.326420
32
11.465769
13
-45.548359
23
30.326420
33
29.902679
0
3DFACE
8
Van
62
3.000000
10
-46.411110
20
-10.741134
30
11.444445
11
-48.500000
21
-10.741134
31
11.444445
12
-48.426521
22
30.326420
32
11.465769
13
-46.340897
23
30.326420
33
11.465769
0
3DFACE
8
Van
62
3.000000
10
-48.500000
20
-10.741134
30
11.444445
11
-46.411110
21
-10.741134
31
1.000000
12
-46.340897
22
30.326420
32
1.037654
13
-48.426521
23
30.326420
33
11.465769
0
3DFACE
8
Van
62
3.000000
10
43.276691
20
-10.741134
30
3.157142
11
30.512680
21
-10.741134
31
3.615978
12
31.930904
22
-10.741134
32
13.126420
13
31.930904
23
-10.741134
33
13.126420
0
3DFACE
8
Van
62
3.000000
10
43.276691
20
-10.741134
30
3.157142
11
31.930904
21
-10.741134
31
13.126420
12
41.191074
22
-10.741134
32
15.670880
13
41.191074
23
-10.741134
33
15.670880
0
3DFACE
8
Van
62
3.000000
10
43.276691
20
-10.741134
30
3.157142
11
41.191074
21
-10.741134
31
15.670880
12
45.362316
22
-10.741134
32
13.585258
13
45.362316
23
-10.741134
33
13.585258
0
3DFACE
8
Van
62
3.000000
10
29.094456
20
-10.741134
30
16.379992
11
20.585114
21
-10.741134
31
16.963968
12
28.677336
22
-10.741134
32
46.955227
13
28.677336
23
-10.741134
33
46.955227
0
3DFACE
8
Van
62
3.000000
10
29.094456
20
-10.741134
30
16.379992
11
28.677336
21
-10.741134
31
46.955227
12
40.440250
22
-10.741134
32
27.308661
13
40.440250
23
-10.741134
33
27.308661
0
3DFACE
8
Van
62
3.000000
10
29.094456
20
-10.741134
30
16.379992
11
40.440250
21
-10.741134
31
27.308661
12
41.191074
22
-10.741134
32
15.670880
13
41.191074
23
-10.741134
33
15.670880
0
3DFACE
8
Van
62
3.000000
10
29.094456
20
-10.741134
30
16.379992
11
41.191074
21
-10.741134
31
15.670880
12
31.930904
22
-10.741134
32
13.126420
13
31.930904
23
-10.741134
33
13.126420
0
3DFACE
8
Van
62
3.000000
10
17.540104
20
-10.741134
30
14.127521
11
-18.082338
21
-10.741134
31
14.336082
12
-21.711325
22
-10.741134
32
16.963968
13
-21.711325
23
-10.741134
33
16.963968
0
3DFACE
8
Van
62
3.000000
10
17.540104
20
-10.741134
30
14.127521
11
-21.711325
21
-10.741134
31
16.963968
12
-7.529084
22
-10.741134
32
49.165993
13
-7.529084
23
-10.741134
33
49.165993
0
3DFACE
8
Van
62
3.000000
10
17.540104
20
-10.741134
30
14.127521
11
-7.529084
21
-10.741134
31
49.165993
12
28.677336
22
-10.741134
32
46.955227
13
28.677336
23
-10.741134
33
46.955227
0
3DFACE
8
Van
62
3.000000
10
17.540104
20
-10.741134
30
14.127521
11
28.677336
21
-10.741134
31
46.955227
12
20.585114
22
-10.741134
32
16.963968
13
20.585114
23
-10.741134
33
16.963968
0
3DFACE
8
Van
62
3.000000
10
17.540104
20
-10.741134
30
14.127521
11
18.958328
21
-10.741134
31
3.198854
12
-19.292000
22
-10.741134
32
3.407417
13
-18.082338
23
-10.741134
33
14.336082
0
3DFACE
8
Van
62
3.000000
10
-30.220667
20
-10.741134
30
16.546841
11
-32.848553
21
-10.741134
31
13.543546
12
-46.405102
22
-10.741134
32
11.499635
13
-46.405102
23
-10.741134
33
11.499635
0
3DFACE
8
Van
62
3.000000
10
-30.220667
20
-10.741134
30
16.546841
11
-46.405102
21
-10.741134
31
11.499635
12
-45.612564
22
-10.741134
32
29.936544
13
-45.612564
23
-10.741134
33
29.936544
0
3DFACE
8
Van
62
3.000000
10
-30.220667
20
-10.741134
30
16.546841
11
-45.612564
21
-10.741134
31
29.936544
12
-42.567558
22
-10.741134
32
46.746666
13
-42.567558
23
-10.741134
33
46.746666
0
3DFACE
8
Van
62
3.000000
10
-30.220667
20
-10.741134
30
16.546841
11
-42.567558
21
-10.741134
31
46.746666
12
-7.529084
22
-10.741134
32
49.165993
13
-7.529084
23
-10.741134
33
49.165993
0
3DFACE
8
Van
62
3.000000
10
-30.220667
20
-10.741134
30
16.546841
11
-7.529084
21
-10.741134
31
49.165993
12
-21.711325
22
-10.741134
32
16.963968
13
-21.711325
23
-10.741134
33
16.963968
0
3DFACE
8
Van
62
3.000000
10
-32.848553
20
-10.741134
30
13.543546
11
-31.805738
21
-10.741134
31
3.157142
12
-46.405102
22
-10.741134
32
1.071519
13
-48.490726
23
-10.741134
33
11.499635
0
3DFACE
8
Van
62
3.000000
10
-48.426521
20
30.326420
30
11.465769
11
-46.340897
21
30.326420
31
1.037654
12
-31.741533
22
30.326420
32
3.123277
13
-32.784348
23
30.326420
33
13.509680
0
3DFACE
8
Van
62
3.000000
10
45.426521
20
30.326420
30
13.551393
11
41.255276
21
30.326420
31
15.637015
12
31.995110
22
30.326420
32
13.092554
13
31.995110
23
30.326420
33
13.092554
0
3DFACE
8
Van
62
3.000000
10
45.426521
20
30.326420
30
13.551393
11
31.995110
21
30.326420
31
13.092554
12
30.576883
22
30.326420
32
3.582113
13
30.576883
23
30.326420
33
3.582113
0
3DFACE
8
Van
62
3.000000
10
45.426521
20
30.326420
30
13.551393
11
30.576883
21
30.326420
31
3.582113
12
43.340897
22
30.326420
32
3.123277
13
43.340897
23
30.326420
33
3.123277
0
3DFACE
8
Van
62
3.000000
10
31.995110
20
30.326420
30
13.092554
11
41.255276
21
30.326420
31
15.637015
12
40.504456
22
30.326420
32
27.274794
13
40.504456
23
30.326420
33
27.274794
0
3DFACE
8
Van
62
3.000000
10
31.995110
20
30.326420
30
13.092554
11
40.504456
21
30.326420
31
27.274794
12
28.741539
22
30.326420
32
46.921360
13
28.741539
23
30.326420
33
46.921360
0
3DFACE
8
Van
62
3.000000
10
28.741539
20
30.326420
30
46.921360
11
20.649319
21
30.326420
31
16.930101
12
29.158663
22
30.326420
32
16.346128
13
29.158663
23
30.326420
33
16.346128
0
3DFACE
8
Van
62
3.000000
10
28.741539
20
30.326420
30
46.921360
11
29.158663
21
30.326420
31
16.346128
12
31.995110
22
30.326420
32
13.092554
13
31.995110
23
30.326420
33
13.092554
0
3DFACE
8
Van
62
3.000000
10
20.649319
20
30.326420
30
16.930101
11
28.741539
21
30.326420
31
46.921360
12
-7.464879
22
30.326420
32
49.132126
13
-7.464879
23
30.326420
33
49.132126
0
3DFACE
8
Van
62
3.000000
10
20.649319
20
30.326420
30
16.930101
11
-7.464879
21
30.326420
31
49.132126
12
-21.647120
22
30.326420
32
16.930101
13
-21.647120
23
30.326420
33
16.930101
0
3DFACE
8
Van
62
3.000000
10
20.649319
20
30.326420
30
16.930101
11
-21.647120
21
30.326420
31
16.930101
12
-18.018133
22
30.326420
32
14.302217
13
-18.018133
23
30.326420
33
14.302217
0
3DFACE
8
Van
62
3.000000
10
20.649319
20
30.326420
30
16.930101
11
-18.018133
21
30.326420
31
14.302217
12
17.604309
22
30.326420
32
14.093656
13
17.604309
23
30.326420
33
14.093656
0
3DFACE
8
Van
62
3.000000
10
-18.018133
20
30.326420
30
14.302217
11
-19.227795
21
30.326420
31
3.373551
12
19.022533
22
30.326420
32
3.164989
13
17.604309
23
30.326420
33
14.093656
0
3DFACE
8
Van
62
3.000000
10
-21.647120
20
30.326420
30
16.930101
11
-7.464879
21
30.326420
31
49.132126
12
-42.503353
22
30.326420
32
46.712799
13
-42.503353
23
30.326420
33
46.712799
0
3DFACE
8
Van
62
3.000000
10
-21.647120
20
30.326420
30
16.930101
11
-42.503353
21
30.326420
31
46.712799
12
-45.548359
22
30.326420
32
29.902679
13
-45.548359
23
30.326420
33
29.902679
0
3DFACE
8
Van
62
3.000000
10
-45.548359
20
30.326420
30
29.902679
11
-46.340897
21
30.326420
31
11.465769
12
-32.784348
22
30.326420
32
13.509680
13
-32.784348
23
30.326420
33
13.509680
0
3DFACE
8
Van
62
3.000000
10
-45.548359
20
30.326420
30
29.902679
11
-32.784348
21
30.326420
31
13.509680
12
-30.156462
22
30.326420
32
16.512976
13
-30.156462
23
30.326420
33
16.512976
0
3DFACE
8
Van
62
3.000000
10
-45.548359
20
30.326420
30
29.902679
11
-30.156462
21
30.326420
31
16.512976
12
-21.647120
22
30.326420
32
16.930101
13
-21.647120
23
30.326420
33
16.930101
0
3DFACE
8
Van
62
3.000000
10
28.741539
20
30.326420
30
46.921360
11
30.997538
21
30.326420
31
28.455585
12
40.522873
22
30.326420
32
27.244030
13
40.522873
23
30.326420
33
27.244030
0
3DFACE
8
Van
62
3.000000
10
26.736208
20
30.326420
30
43.871586
11
13.325541
21
30.326420
31
45.083141
12
13.158429
22
30.326420
32
33.092918
13
13.158429
23
30.326420
33
33.092918
0
3DFACE
8
Van
62
3.000000
10
26.736208
20
30.326420
30
43.871586
11
13.158429
21
30.326420
31
33.092918
12
23.059763
22
30.326420
32
32.508030
13
23.059763
23
30.326420
33
32.508030
0
3DFACE
8
Van
62
3.000000
10
26.736208
20
30.326420
30
43.871586
11
23.059763
21
30.326420
31
32.508030
12
24.689096
22
30.326420
32
28.664473
13
24.689096
23
30.326420
33
28.664473
0
3DFACE
8
Van
62
3.000000
10
26.736208
20
30.326420
30
43.871586
11
24.689096
21
30.326420
31
28.664473
12
28.741539
22
30.326420
32
28.246696
13
28.741539
23
30.326420
33
28.246696
0
3DFACE
8
Van
62
3.000000
10
40.570225
20
-10.741134
30
27.278223
11
31.044891
21
-10.741134
31
28.489779
12
28.788893
22
-10.741134
32
46.955551
13
28.788893
23
-10.741134
33
46.955551
0
3DFACE
8
Van
62
3.000000
10
28.788893
20
-10.741134
30
28.280890
11
24.736450
21
-10.741134
31
28.698668
12
23.107115
22
-10.741134
32
32.542221
13
23.107115
23
-10.741134
33
32.542221
0
3DFACE
8
Van
62
3.000000
10
23.107115
20
-10.741134
30
32.542221
11
13.205782
21
-10.741134
31
33.127110
12
13.372893
22
-10.741134
32
45.117336
13
13.372893
23
-10.741134
33
45.117336
0
3DFACE
8
Van
62
3.000000
10
23.107115
20
-10.741134
30
32.542221
11
13.372893
21
-10.741134
31
45.117336
12
26.783562
22
-10.741134
32
43.905781
13
26.783562
23
-10.741134
33
43.905781
0
3DFACE
8
Van
62
3.000000
10
23.107115
20
-10.741134
30
32.542221
11
26.783562
21
-10.741134
31
43.905781
12
28.788893
22
-10.741134
32
28.280890
13
28.788893
23
-10.741134
33
28.280890
0
3DFACE
8
Van
62
3.000000
10
40.564934
20
20.130806
30
23.815182
11
40.804775
21
20.456987
31
18.933069
12
40.853977
22
19.330173
32
17.931610
13
40.853977
23
19.330173
33
17.931610
0
3DFACE
8
Van
62
3.000000
10
40.564934
20
20.130806
30
23.815182
11
40.853977
21
19.330173
31
17.931610
12
40.853977
22
-0.655959
32
17.931610
13
40.853977
23
-0.655959
33
17.931610
0
3DFACE
8
Van
62
3.000000
10
40.564934
20
20.130806
30
23.815182
11
40.853977
21
-0.655959
31
17.931610
12
40.808876
22
-1.456590
32
18.849615
13
40.808876
23
-1.456590
33
18.849615
0
3DFACE
8
Van
62
3.000000
10
40.564934
20
20.130806
30
23.815182
11
40.808876
21
-1.456590
31
18.849615
12
40.577236
22
-1.130408
32
23.564816
13
40.577236
23
-1.130408
33
23.564816
0
3DFACE
8
Van
62
3.000000
10
40.564934
20
20.130806
30
23.815182
11
40.577236
21
-1.130408
31
23.564816
12
40.525982
22
0.233631
32
24.608004
13
40.525982
23
0.233631
33
24.608004
0
3DFACE
8
Van
62
3.000000
10
40.564934
20
20.130806
30
23.815182
11
40.525982
21
0.233631
31
24.608004
12
40.525982
22
19.063295
32
24.608004
13
40.525982
23
19.063295
33
24.608004
0
3DFACE
8
Van
62
3.000000
10
-43.997570
20
23.815662
30
38.129604
11
-43.221149
21
20.997850
31
42.604301
12
-42.899544
22
9.479309
32
44.457790
13
-42.899544
23
9.479309
33
44.457790
0
3DFACE
8
Van
62
3.000000
10
-43.997570
20
23.815662
30
38.129604
11
-42.899544
21
9.479309
31
44.457790
12
-43.221149
22
-2.039232
32
42.604301
13
-43.221149
23
-2.039232
33
42.604301
0
3DFACE
8
Van
62
3.000000
10
-43.997570
20
23.815662
30
38.129604
11
-43.221149
21
-2.039232
31
42.604301
12
-43.997570
22
-4.857045
32
38.129604
13
-43.997570
23
-4.857045
33
38.129604
0
3DFACE
8
Van
62
3.000000
10
-43.997570
20
23.815662
30
38.129604
11
-43.997570
21
-4.857045
31
38.129604
12
-44.773991
22
-2.039236
32
33.654896
13
-44.773991
23
-2.039236
33
33.654896
0
3DFACE
8
Van
62
3.000000
10
-43.997570
20
23.815662
30
38.129604
11
-44.773991
21
-2.039236
31
33.654896
12
-45.095596
22
9.479309
32
31.801411
13
-45.095596
23
9.479309
33
31.801411
0
3DFACE
8
Van
62
3.000000
10
-43.997570
20
23.815662
30
38.129604
11
-45.095596
21
9.479309
31
31.801411
12
-44.773991
22
20.997850
32
33.654896
13
-44.773991
23
20.997850
33
33.654896
0
3DFACE
8
PhareD
62
4.000000
10
40.577236
20
-9.130407
30
20.564814
11
40.577236
21
-6.764383
31
22.662891
12
41.577236
22
-6.569639
32
21.711226
13
41.577236
23
-8.208868
33
20.257635
0
3DFACE
8
PhareD
62
4.000000
10
40.577236
20
-6.764383
30
22.662891
11
40.577236
21
-3.764383
31
21.662893
12
41.577236
22
-4.491178
32
21.018406
13
41.577236
23
-6.569639
33
21.711226
0
3DFACE
8
PhareD
62
4.000000
10
40.577236
20
-3.764383
30
21.662893
11
40.577236
21
-3.130407
31
18.564816
12
41.577236
22
-4.051947
32
18.871996
13
41.577236
23
-4.491178
33
21.018406
0
3DFACE
8
PhareD
62
4.000000
10
40.577236
20
-3.130407
30
18.564816
11
40.577236
21
-5.496432
31
16.466740
12
41.577236
22
-5.691176
32
17.418406
13
41.577236
23
-4.051947
33
18.871996
0
3DFACE
8
PhareD
62
4.000000
10
40.577236
20
-5.496432
30
16.466740
11
40.577236
21
-8.496433
31
17.466738
12
41.577236
22
-7.769638
32
18.111225
13
41.577236
23
-5.691176
33
17.418406
0
3DFACE
8
PhareD
62
4.000000
10
40.577236
20
-8.496433
30
17.466738
11
40.577236
21
-9.130407
31
20.564814
12
41.577236
22
-8.208868
32
20.257635
13
41.577236
23
-7.769638
33
18.111225
0
3DFACE
8
PhareD
62
4.000000
10
41.577236
20
-8.208868
30
20.257635
11
41.577236
21
-6.569639
31
21.711226
12
41.577236
22
-4.491178
32
21.018406
13
41.577236
23
-4.491178
33
21.018406
0
3DFACE
8
PhareD
62
4.000000
10
41.577236
20
-8.208868
30
20.257635
11
41.577236
21
-4.491178
31
21.018406
12
41.577236
22
-4.051947
32
18.871996
13
41.577236
23
-4.051947
33
18.871996
0
3DFACE
8
PhareD
62
4.000000
10
41.577236
20
-8.208868
30
20.257635
11
41.577236
21
-4.051947
31
18.871996
12
41.577236
22
-5.691176
32
17.418406
13
41.577236
23
-5.691176
33
17.418406
0
3DFACE
8
PhareD
62
4.000000
10
41.577236
20
-8.208868
30
20.257635
11
41.577236
21
-5.691176
31
17.418406
12
41.577236
22
-7.769638
32
18.111225
13
41.577236
23
-7.769638
33
18.111225
0
3DFACE
8
PhareG
62
5.000000
10
40.577236
20
22.869593
30
20.564814
11
40.577236
21
25.235617
31
22.662891
12
41.577236
22
25.430363
32
21.711226
13
41.577236
23
23.791134
33
20.257635
0
3DFACE
8
PhareG
62
5.000000
10
40.577236
20
25.235617
30
22.662891
11
40.577236
21
28.235617
31
21.662893
12
41.577236
22
27.508823
32
21.018406
13
41.577236
23
25.430363
33
21.711226
0
3DFACE
8
PhareG
62
5.000000
10
40.577236
20
28.235617
30
21.662893
11
40.577236
21
28.869593
31
18.564816
12
41.577236
22
27.948053
32
18.871996
13
41.577236
23
27.508823
33
21.018406
0
3DFACE
8
PhareG
62
5.000000
10
40.577236
20
28.869593
30
18.564816
11
40.577236
21
26.503569
31
16.466740
12
41.577236
22
26.308825
32
17.418406
13
41.577236
23
27.948053
33
18.871996
0
3DFACE
8
PhareG
62
5.000000
10
40.577236
20
26.503569
30
16.466740
11
40.577236
21
23.503567
31
17.466738
12
41.577236
22
24.230362
32
18.111225
13
41.577236
23
26.308825
33
17.418406
0
3DFACE
8
PhareG
62
5.000000
10
40.577236
20
23.503567
30
17.466738
11
40.577236
21
22.869593
31
20.564814
12
41.577236
22
23.791134
32
20.257635
13
41.577236
23
24.230362
33
18.111225
0
3DFACE
8
PhareG
62
5.000000
10
41.577236
20
23.791134
30
20.257635
11
41.577236
21
25.430363
31
21.711226
12
41.577236
22
27.508823
32
21.018406
13
41.577236
23
27.508823
33
21.018406
0
3DFACE
8
PhareG
62
5.000000
10
41.577236
20
23.791134
30
20.257635
11
41.577236
21
27.508823
31
21.018406
12
41.577236
22
27.948053
32
18.871996
13
41.577236
23
27.948053
33
18.871996
0
3DFACE
8
PhareG
62
5.000000
10
41.577236
20
23.791134
30
20.257635
11
41.577236
21
27.948053
31
18.871996
12
41.577236
22
26.308825
32
17.418406
13
41.577236
23
26.308825
33
17.418406
0
3DFACE
8
PhareG
62
5.000000
10
41.577236
20
23.791134
30
20.257635
11
41.577236
21
26.308825
31
17.418406
12
41.577236
22
24.230362
32
18.111225
13
41.577236
23
24.230362
33
18.111225
0
ENDSEC
0
EOF
