0
SECTION
2
ENTITIES
0
3DFACE
8
Hel2
62
1.000000
10
44.644238
20
-0.288774
30
28.468561
11
44.644238
21
-0.288774
31
44.960449
12
43.839775
22
1.653360
32
45.774864
13
43.839775
23
1.653360
33
28.468561
0
3DFACE
8
Hel3
62
2.000000
10
44.644238
20
6.742939
30
19.787605
11
44.644238
21
20.455446
31
10.625210
12
43.839775
22
20.053612
32
8.557920
13
43.839775
23
5.663948
33
18.172781
0
3DFACE
8
Hel1
62
3.000000
10
43.839775
20
-6.582510
30
19.812229
11
44.644238
21
-5.503516
31
18.197407
12
44.644238
22
-19.216021
32
9.035002
13
43.839775
23
-20.972174
33
10.197364
0
3DFACE
8
Capot
62
4.000000
10
44.282566
20
-4.176632
30
29.449745
11
14.282564
21
-3.706738
31
28.596432
12
14.282564
22
4.372854
32
28.432858
13
44.282566
23
4.876899
33
29.266455
0
3DFACE
8
Capot
62
4.000000
10
44.282566
20
4.876899
30
29.266455
11
14.282564
21
4.372854
31
28.432858
12
14.282564
22
8.270990
32
21.353939
13
44.282566
23
9.244929
33
21.334221
0
3DFACE
8
Capot
62
4.000000
10
44.282566
20
9.244929
30
21.334221
11
14.282564
21
8.270990
31
21.353939
12
14.282564
22
4.089535
32
14.438594
13
44.282566
23
4.559429
33
13.585279
0
3DFACE
8
Capot
62
4.000000
10
44.282566
20
4.559429
30
13.585279
11
14.282564
21
4.089535
31
14.438594
12
14.282564
22
-3.990056
32
14.602168
13
44.282566
23
-4.494101
33
13.768572
0
3DFACE
8
Capot
62
4.000000
10
44.282566
20
-4.494101
30
13.768572
11
14.282564
21
-3.990056
31
14.602168
12
14.282564
22
-7.888193
32
21.681086
13
44.282566
23
-8.862130
33
21.700804
0
3DFACE
8
Capot
62
4.000000
10
44.282566
20
-8.862130
30
21.700804
11
14.282564
21
-7.888193
31
21.681086
12
14.282564
22
-3.706738
32
28.596432
13
44.282566
23
-4.176632
33
29.449745
0
3DFACE
8
Capot
62
4.000000
10
44.282566
20
-4.176632
30
29.449745
11
44.282566
21
4.876899
31
29.266455
12
44.282566
22
9.244929
32
21.334221
13
44.282566
23
9.244929
33
21.334221
0
3DFACE
8
Capot
62
4.000000
10
44.282566
20
-4.176632
30
29.449745
11
44.282566
21
9.244929
31
21.334221
12
44.282566
22
4.559429
32
13.585279
13
44.282566
23
4.559429
33
13.585279
0
3DFACE
8
Capot
62
4.000000
10
44.282566
20
-4.176632
30
29.449745
11
44.282566
21
4.559429
31
13.585279
12
44.282566
22
-4.494101
32
13.768572
13
44.282566
23
-4.494101
33
13.768572
0
3DFACE
8
Capot
62
4.000000
10
44.282566
20
-4.176632
30
29.449745
11
44.282566
21
-4.494101
31
13.768572
12
44.282566
22
-8.862130
32
21.700804
13
44.282566
23
-8.862130
33
21.700804
0
3DFACE
8
FuselageAv
62
5.000000
10
14.282564
20
4.372854
30
28.432858
11
-0.717435
21
4.014444
31
27.840115
12
-0.717435
22
7.578456
32
21.367960
13
14.282564
23
8.270990
33
21.353939
0
3DFACE
8
FuselageAv
62
5.000000
10
14.282564
20
8.270990
30
21.353939
11
-0.717435
21
7.578456
31
21.367960
12
-0.717435
22
3.755410
32
15.045356
13
14.282564
23
4.089535
33
14.438594
0
3DFACE
8
FuselageAv
62
5.000000
10
14.282564
20
4.089535
30
14.438594
11
-0.717435
21
3.755410
31
15.045356
12
-0.717435
22
-3.631647
32
15.194910
13
14.282564
23
-3.990056
33
14.602168
0
3DFACE
8
FuselageAv
62
5.000000
10
14.282564
20
-3.990056
30
14.602168
11
-0.717435
21
-3.631647
31
15.194910
12
-0.717435
22
-7.195658
32
21.667065
13
14.282564
23
-7.888193
33
21.681086
0
3DFACE
8
FuselageAv
62
5.000000
10
14.282564
20
-7.888193
30
21.681086
11
-0.717435
21
-7.195658
31
21.667065
12
-0.717435
22
-3.372613
32
27.989668
13
14.282564
23
-3.706738
33
28.596432
0
3DFACE
8
FuselageAv
62
5.000000
10
14.282564
20
-3.706738
30
28.596432
11
-0.717435
21
-3.372613
31
27.989668
12
-0.717435
22
4.014444
32
27.840115
13
14.282564
23
4.372854
33
28.432858
0
3DFACE
8
Cabine
62
6.000000
10
-0.717435
20
7.578456
30
21.367960
11
-20.717436
21
5.039154
31
20.619370
12
-20.717436
22
2.530281
32
16.470161
13
-0.717435
23
3.755410
33
15.045356
0
3DFACE
8
Cabine
62
6.000000
10
-0.717435
20
3.755410
30
15.045356
11
-20.717436
21
2.530281
31
16.470161
12
-20.717436
22
-2.317474
32
16.568306
13
-0.717435
23
-3.631647
33
15.194910
0
3DFACE
8
Cabine
62
6.000000
10
-0.717435
20
-3.631647
30
15.194910
11
-20.717436
21
-2.317474
31
16.568306
12
-20.717436
22
-4.656356
32
20.815657
13
-0.717435
23
-7.195658
33
21.667065
0
3DFACE
8
Cabine
62
6.000000
10
-0.717435
20
-7.195658
30
21.667065
11
-20.717436
21
-4.656356
31
20.815657
12
-20.717436
22
-2.147483
32
24.964863
13
-0.717435
23
-3.372613
33
27.989668
0
3DFACE
8
Cabine
62
6.000000
10
-0.717435
20
-3.372613
30
27.989668
11
-20.717436
21
-2.147483
31
24.964863
12
-20.717436
22
2.700272
32
24.866718
13
-0.717435
23
4.014444
33
27.840115
0
3DFACE
8
Cabine
62
6.000000
10
-0.717435
20
4.014444
30
27.840115
11
-20.717436
21
2.700272
31
24.866718
12
-20.717436
22
5.039154
32
20.619370
13
-0.717435
23
7.578456
33
21.367960
0
3DFACE
8
FuselageAr
62
7.000000
10
-20.717436
20
2.530281
30
16.470161
11
-44.917431
21
0.414150
31
19.513002
12
-44.917431
22
-0.047542
32
19.522348
13
-20.717436
23
-2.317474
33
16.568306
0
3DFACE
8
FuselageAr
62
7.000000
10
-20.717436
20
-2.317474
30
16.568306
11
-44.917431
21
-0.047542
31
19.522348
12
-44.917431
22
-0.270293
32
19.926859
13
-20.717436
23
-4.656356
33
20.815657
0
3DFACE
8
FuselageAr
62
7.000000
10
-20.717436
20
-4.656356
30
20.815657
11
-44.917431
21
-0.270293
31
19.926859
12
-44.917431
22
-0.031352
32
20.322023
13
-20.717436
23
-2.147483
33
24.964863
0
3DFACE
8
FuselageAr
62
7.000000
10
-20.717436
20
-2.147483
30
24.964863
11
-44.917431
21
-0.031352
31
20.322023
12
-44.917431
22
0.430340
32
20.312677
13
-20.717436
23
2.700272
33
24.866718
0
3DFACE
8
FuselageAr
62
7.000000
10
-20.717436
20
2.700272
30
24.866718
11
-44.917431
21
0.430340
31
20.312677
12
-44.917431
22
0.653091
32
19.908167
13
-20.717436
23
5.039154
33
20.619370
0
3DFACE
8
FuselageAr
62
7.000000
10
-20.717436
20
5.039154
30
20.619370
11
-44.917431
21
0.653091
31
19.908167
12
-44.917431
22
0.414150
32
19.513002
13
-20.717436
23
2.530281
33
16.470161
0
3DFACE
8
RoueAr
62
8.000000
10
-38.509758
20
0.142415
30
14.978230
11
-40.786411
21
0.142415
31
13.955523
12
-42.462578
22
0.142415
32
15.804708
13
-42.462578
23
0.142415
33
15.804708
0
3DFACE
8
RoueAr
62
8.000000
10
-38.509758
20
0.142415
30
14.978230
11
-42.462578
21
0.142415
31
15.804708
12
-41.221870
22
0.142415
32
17.970274
13
-41.221870
23
0.142415
33
17.970274
0
3DFACE
8
RoueAr
62
8.000000
10
-38.509758
20
0.142415
30
14.978230
11
-41.221870
21
0.142415
31
17.970274
12
-38.778893
22
0.142415
32
17.459480
13
-38.778893
23
0.142415
33
17.459480
0
3DFACE
8
Gouv
62
9.000000
10
-42.095222
20
0.036305
30
23.176725
11
-40.128464
21
0.036305
31
35.862289
12
-36.194958
22
0.036305
32
37.612698
13
-36.194958
23
0.036305
33
37.612698
0
3DFACE
8
Gouv
62
9.000000
10
-42.095222
20
0.036305
30
23.176725
11
-36.194958
21
0.036305
31
37.612698
12
-32.458122
22
0.036305
32
35.862289
13
-32.458122
23
0.036305
33
35.862289
0
3DFACE
8
Gouv
62
9.000000
10
-42.095222
20
0.036305
30
23.176725
11
-32.458122
21
0.036305
31
35.862289
12
-24.523026
22
0.036307
32
25.814753
13
-24.523026
23
0.036307
33
25.814753
0
3DFACE
8
Gouv
62
9.000000
10
-42.095222
20
0.036305
30
23.176725
11
-24.523026
21
0.036307
31
25.814753
12
-20.717436
22
-2.147483
32
24.964863
13
-20.717436
23
-2.147483
33
24.964863
0
3DFACE
8
Gouv
62
9.000000
10
-42.095222
20
0.036305
30
23.176725
11
-20.717436
21
-2.147483
31
24.964863
12
-44.917431
22
-0.031352
32
20.322023
13
-44.917431
23
-0.031352
33
20.322023
0
3DFACE
8
RoueG
62
10.000000
10
13.524076
20
-13.114888
30
-1.947922
11
13.980075
21
-12.570684
31
3.577502
12
19.016390
22
-12.337290
32
5.947209
13
19.016390
23
-12.337290
33
5.947209
0
3DFACE
8
RoueG
62
10.000000
10
13.524076
20
-13.114888
30
-1.947922
11
19.016390
21
-12.337290
31
5.947209
12
23.596697
22
-12.648099
32
2.791491
13
23.596697
23
-12.648099
33
2.791491
0
3DFACE
8
RoueG
62
10.000000
10
13.524076
20
-13.114888
30
-1.947922
11
23.596697
21
-12.648099
31
2.791491
12
23.140697
22
-13.192305
32
-2.733932
13
23.140697
23
-13.192305
33
-2.733932
0
3DFACE
8
RoueG
62
10.000000
10
13.524076
20
-13.114888
30
-1.947922
11
23.140697
21
-13.192305
31
-2.733932
12
18.104387
22
-13.425697
32
-5.103641
13
18.104387
23
-13.425697
33
-5.103641
0
3DFACE
8
RoueD
62
11.000000
10
18.104387
20
13.305298
30
-5.103641
11
23.140697
21
13.071903
31
-2.733932
12
23.596697
22
12.527699
32
2.791491
13
23.596697
23
12.527699
33
2.791491
0
3DFACE
8
RoueD
62
11.000000
10
18.104387
20
13.305298
30
-5.103641
11
23.596697
21
12.527699
31
2.791491
12
19.016390
22
12.216888
32
5.947209
13
19.016390
23
12.216888
33
5.947209
0
3DFACE
8
RoueD
62
11.000000
10
18.104387
20
13.305298
30
-5.103641
11
19.016390
21
12.216888
31
5.947209
12
13.980075
22
12.450284
32
3.577502
13
13.980075
23
12.450284
33
3.577502
0
3DFACE
8
RoueD
62
11.000000
10
18.104387
20
13.305298
30
-5.103641
11
13.980075
21
12.450284
31
3.577502
12
13.524076
22
12.994488
32
-1.947922
13
13.524076
23
12.994488
33
-1.947922
0
3DFACE
8
PiedRoues
62
12.000000
10
19.869354
20
9.301953
30
9.552126
11
18.208832
21
9.301953
31
9.552126
12
16.848618
22
12.077849
32
-1.844045
13
20.575962
23
12.077849
33
-2.020696
0
3DFACE
8
PiedRoues
62
12.000000
10
19.869354
20
9.301953
30
9.552126
11
19.869354
21
6.140903
31
12.238438
12
18.208832
22
6.140903
32
12.238438
13
18.208832
23
9.301953
33
9.552126
0
3DFACE
8
PiedRoues
62
12.000000
10
20.522964
20
-11.979012
30
-1.732155
11
16.230335
21
-11.979012
31
-1.590834
12
18.208832
22
-9.030746
32
9.758550
13
19.869354
23
-9.030746
33
9.758550
0
3DFACE
8
PiedRoues
62
12.000000
10
18.208832
20
-9.030746
30
9.758550
11
18.208832
21
-5.810008
31
12.373002
12
19.869354
22
-5.810008
32
12.373002
13
19.869354
23
-9.030746
33
9.758550
0
3DFACE
8
PiedRoues
62
12.000000
10
18.208832
20
-5.810008
30
12.373002
11
18.208832
21
6.140903
31
12.238438
12
19.869354
22
6.140903
32
12.238438
13
19.869354
23
-5.810008
33
12.373002
0
3DFACE
8
StabD
62
13.000000
10
-44.631664
20
2.217741
30
19.565813
11
-43.302067
21
15.759643
31
19.565813
12
-39.760952
22
19.571136
32
19.565813
13
-39.760952
23
19.571136
33
19.565813
0
3DFACE
8
StabD
62
13.000000
10
-44.631664
20
2.217741
30
19.565813
11
-39.760952
21
19.571136
31
19.565813
12
-32.189785
22
19.812702
32
19.548147
13
-32.189785
23
19.812702
33
19.548147
0
3DFACE
8
StabD
62
13.000000
10
-44.631664
20
2.217741
30
19.565813
11
-32.189785
21
19.812702
31
19.548147
12
-24.392548
22
3.456325
32
19.548147
13
-24.392548
23
3.456325
33
19.548147
0
3DFACE
8
StabG
62
14.000000
10
-24.392548
20
-3.576703
30
19.548147
11
-32.189785
21
-19.933079
31
19.548147
12
-39.760952
22
-19.691517
32
19.565813
13
-39.760952
23
-19.691517
33
19.565813
0
3DFACE
8
StabG
62
14.000000
10
-24.392548
20
-3.576703
30
19.548147
11
-39.760952
21
-19.691517
31
19.565813
12
-43.302067
22
-15.880025
32
19.565813
13
-43.302067
23
-15.880025
33
19.565813
0
3DFACE
8
StabG
62
14.000000
10
-24.392548
20
-3.576703
30
19.548147
11
-43.302067
21
-15.880025
31
19.565813
12
-44.631664
22
-2.338119
32
19.565813
13
-44.631664
23
-2.338119
33
19.565813
0
3DFACE
8
AileG1
62
15.000000
10
14.075192
20
-7.416021
30
18.742393
11
11.275554
21
-29.550426
31
18.754787
12
-6.920103
22
-29.550426
32
17.998070
13
-11.892553
23
-5.384531
33
17.576488
0
3DFACE
8
AileG2
62
16.000000
10
11.275554
20
-29.550426
30
18.754787
11
8.761773
21
-51.399612
31
20.937424
12
-1.574177
22
-49.303989
32
20.219563
13
-6.920103
23
-29.550426
33
17.998070
0
3DFACE
8
AileD1
62
17.000000
10
-11.892553
20
5.196885
30
17.576488
11
-6.920103
21
29.362783
31
17.998070
12
11.275554
22
29.362783
32
18.754787
13
14.075192
23
7.228375
33
18.742393
0
3DFACE
8
AileD2
62
18.000000
10
-6.920103
20
29.362783
30
17.998070
11
-1.574177
21
49.116348
31
20.219563
12
8.388377
22
51.179943
32
20.927832
13
11.275554
23
29.362783
33
18.754787
0
3DFACE
8
Verriere
62
19.000000
10
-20.450144
20
0.042476
30
24.867062
11
-20.450144
21
0.042476
31
24.867062
12
-11.092146
22
5.482297
32
23.659437
13
-12.312041
23
6.627732
33
31.883301
0
3DFACE
8
Verriere
62
19.000000
10
-12.312041
20
6.627732
30
31.883301
11
-11.092146
21
5.482297
31
23.659437
12
-3.196048
22
5.482297
32
25.668051
13
-4.415943
23
6.627732
33
33.891911
0
3DFACE
8
Verriere
62
19.000000
10
-4.415943
20
6.627732
30
33.891911
11
-3.196048
21
5.482297
31
25.668051
12
-0.457947
22
0.042476
32
29.284288
13
-0.457947
23
0.042476
33
29.284288
0
3DFACE
8
Verriere
62
19.000000
10
-20.450144
20
0.042476
30
24.867062
11
-20.450144
21
0.042476
31
24.867062
12
-12.312041
22
6.627732
32
31.883301
13
-12.921988
23
0.042475
33
35.995224
0
3DFACE
8
Verriere
62
19.000000
10
-12.921988
20
0.042475
30
35.995224
11
-12.312041
21
6.627732
31
31.883301
12
-4.415943
22
6.627732
32
33.891911
13
-5.025890
23
0.042475
33
38.003841
0
3DFACE
8
Verriere
62
19.000000
10
-5.025890
20
0.042475
30
38.003841
11
-4.415943
21
6.627732
31
33.891911
12
-0.457947
22
0.042476
32
29.284288
13
-0.457947
23
0.042476
33
29.284288
0
3DFACE
8
Verriere
62
19.000000
10
-20.450144
20
0.042476
30
24.867062
11
-20.450144
21
0.042476
31
24.867062
12
-12.921988
22
0.042475
32
35.995224
13
-12.312041
23
-6.542780
33
31.883301
0
3DFACE
8
Verriere
62
19.000000
10
-12.312041
20
-6.542780
30
31.883301
11
-12.921988
21
0.042475
31
35.995224
12
-5.025890
22
0.042475
32
38.003841
13
-4.415943
23
-6.542780
33
33.891911
0
3DFACE
8
Verriere
62
19.000000
10
-4.415943
20
-6.542780
30
33.891911
11
-5.025890
21
0.042475
31
38.003841
12
-0.457947
22
0.042476
32
29.284288
13
-0.457947
23
0.042476
33
29.284288
0
3DFACE
8
Verriere
62
19.000000
10
-20.450144
20
0.042476
30
24.867062
11
-20.450144
21
0.042476
31
24.867062
12
-12.312041
22
-6.542780
32
31.883301
13
-11.092146
23
-5.397345
33
23.659435
0
3DFACE
8
Verriere
62
19.000000
10
-11.092146
20
-5.397345
30
23.659435
11
-12.312041
21
-6.542780
31
31.883301
12
-4.415943
22
-6.542780
32
33.891911
13
-3.196048
23
-5.397345
33
25.668049
0
3DFACE
8
Verriere
62
19.000000
10
-3.196048
20
-5.397345
30
25.668049
11
-4.415943
21
-6.542780
31
33.891911
12
-0.457947
22
0.042476
32
29.284288
13
-0.457947
23
0.042476
33
29.284288
0
ENDSEC
0
EOF
