0
SECTION
2
ENTITIES
0
3DFACE
8
Moyeu
62
1.000000
10
29.589527
20
0.488746
30
112.303955
11
53.489571
21
8.564215
31
119.542000
12
53.489571
22
-15.662200
32
119.542000
13
29.589527
23
-7.586725
33
112.303955
0
3DFACE
8
Moyeu
62
1.000000
10
29.589527
20
-7.586725
30
112.303955
11
53.489571
21
-15.662200
31
119.542000
12
54.381119
22
-15.662200
32
101.394066
13
29.886707
23
-7.586725
33
106.254646
0
3DFACE
8
Moyeu
62
1.000000
10
29.886707
20
-7.586725
30
106.254646
11
54.381119
21
-15.662200
31
101.394066
12
54.381119
22
8.564215
32
101.394066
13
29.886707
23
0.488746
33
106.254646
0
3DFACE
8
Moyeu
62
1.000000
10
29.886707
20
0.488746
30
106.254646
11
54.381119
21
8.564215
31
101.394066
12
53.489571
22
8.564215
32
119.542000
13
29.589527
23
0.488746
33
112.303955
0
3DFACE
8
Moyeu
62
1.000000
10
54.381119
20
8.564215
30
101.394066
11
54.381119
21
-15.662200
31
101.394066
12
53.489571
22
-15.662200
32
119.542000
13
53.489571
23
8.564215
33
119.542000
0
3DFACE
8
Pale3
62
2.000000
10
53.489571
20
8.564215
30
119.542000
11
53.222828
21
103.451004
31
124.971992
12
54.381119
22
8.564218
32
101.394073
13
54.381119
23
8.564218
33
101.394073
0
3DFACE
8
Pale3
62
2.000000
10
54.381119
20
8.564218
30
101.394073
11
53.222828
21
103.451004
31
124.971992
12
54.272873
22
98.865280
32
103.597786
13
54.272873
23
98.865280
33
103.597786
0
3DFACE
8
Pale3
62
2.000000
10
54.272873
20
98.865280
30
103.597786
11
55.322918
21
103.451012
31
82.223557
12
54.381119
22
8.564218
32
101.394073
13
54.381119
23
8.564218
33
101.394073
0
3DFACE
8
Pale2
62
3.000000
10
53.489571
20
-15.662200
30
119.542000
11
48.797615
21
-20.363272
31
215.049026
12
53.489571
22
2.507613
32
119.542000
13
53.489571
23
2.507613
33
119.542000
0
3DFACE
8
Pale2
62
3.000000
10
53.489571
20
2.507613
30
119.542000
11
48.797615
21
-20.363272
31
215.049026
12
49.022629
22
1.036724
32
210.468857
13
49.022629
23
1.036724
33
210.468857
0
3DFACE
8
Pale2
62
3.000000
10
49.022629
20
1.036724
30
210.468857
11
48.797619
21
22.436720
31
215.049026
12
53.489571
22
2.507613
32
119.542000
13
53.489571
23
2.507613
33
119.542000
0
3DFACE
8
Pale1
62
4.000000
10
54.381119
20
-15.662194
30
101.394073
11
54.647865
21
-110.548996
31
95.964119
12
53.489571
22
-15.662200
32
119.542000
13
53.489571
23
-15.662200
33
119.542000
0
3DFACE
8
Pale1
62
4.000000
10
53.489571
20
-15.662200
30
119.542000
11
54.647865
21
-110.548996
31
95.964119
12
53.597813
22
-105.963272
32
117.338333
13
53.597813
23
-105.963272
33
117.338333
0
3DFACE
8
Pale1
62
4.000000
10
53.597813
20
-105.963272
30
117.338333
11
52.547775
21
-110.548996
31
138.712555
12
53.489571
22
-15.662200
32
119.542000
13
53.489571
23
-15.662200
33
119.542000
0
3DFACE
8
Pale4
62
5.000000
10
54.381119
20
8.564218
30
101.394073
11
59.073082
21
13.265291
31
5.887027
12
54.381119
22
-9.605595
32
101.394073
13
54.381119
23
-9.605595
33
101.394073
0
3DFACE
8
Pale4
62
5.000000
10
54.381119
20
-9.605595
30
101.394073
11
59.073082
21
13.265291
31
5.887027
12
58.848072
22
-8.134706
32
10.467222
13
58.848072
23
-8.134706
33
10.467222
0
3DFACE
8
Pale4
62
5.000000
10
58.848072
20
-8.134706
30
10.467222
11
59.073078
21
-29.534702
31
5.887027
12
54.381119
22
-9.605595
32
101.394073
13
54.381119
23
-9.605595
33
101.394073
0
3DFACE
8
Sac2
62
6.000000
10
13.328703
20
-64.931633
30
11.835964
11
13.328703
21
-64.931633
31
11.835964
12
0.751944
22
-70.141098
32
6.809234
13
-0.558588
23
-57.947948
33
5.133657
0
3DFACE
8
Sac2
62
6.000000
10
-0.558588
20
-57.947948
30
5.133657
11
0.751944
21
-70.141098
31
6.809234
12
-2.344116
22
-71.423523
32
-20.000000
13
-0.558588
23
-57.947948
33
-18.324423
0
3DFACE
8
Sac2
62
6.000000
10
-0.558588
20
-57.947948
30
-18.324423
11
-2.344116
21
-71.423523
31
-20.000000
12
13.328703
22
-64.931633
32
-18.324427
13
13.328703
23
-64.931633
33
-18.324427
0
3DFACE
8
Sac2
62
6.000000
10
13.328703
20
-64.931633
30
11.835964
11
13.328703
21
-64.931633
31
11.835964
12
-0.558588
22
-57.947948
32
5.133657
13
18.210295
23
-50.173618
33
5.133657
0
3DFACE
8
Sac2
62
6.000000
10
18.210295
20
-50.173618
30
5.133657
11
-0.558588
21
-57.947948
31
5.133657
12
-0.558588
22
-57.947948
32
-18.324423
13
18.210295
23
-50.173618
33
-18.324423
0
3DFACE
8
Sac2
62
6.000000
10
18.210295
20
-50.173618
30
-18.324423
11
-0.558588
21
-57.947948
31
-18.324423
12
13.328703
22
-64.931633
32
-18.324427
13
13.328703
23
-64.931633
33
-18.324427
0
3DFACE
8
Sac2
62
6.000000
10
13.328703
20
-64.931633
30
11.835964
11
13.328703
21
-64.931633
31
11.835964
12
18.210295
22
-50.173618
32
5.133657
13
25.905464
23
-59.722176
33
6.809234
0
3DFACE
8
Sac2
62
6.000000
10
25.905464
20
-59.722176
30
6.809234
11
18.210295
21
-50.173618
31
5.133657
12
18.210295
22
-50.173618
32
-18.324423
13
30.549557
23
-57.798531
33
-20.000000
0
3DFACE
8
Sac2
62
6.000000
10
30.549557
20
-57.798531
30
-20.000000
11
18.210295
21
-50.173618
31
-18.324423
12
13.328703
22
-64.931633
32
-18.324427
13
13.328703
23
-64.931633
33
-18.324427
0
3DFACE
8
Sac2
62
6.000000
10
13.328703
20
-64.931633
30
11.835964
11
13.328703
21
-64.931633
31
11.835964
12
25.905464
22
-59.722176
32
6.809234
13
27.215994
23
-71.915321
33
5.133657
0
3DFACE
8
Sac2
62
6.000000
10
27.215994
20
-71.915321
30
5.133657
11
25.905464
21
-59.722176
31
6.809234
12
30.549557
22
-57.798531
32
-20.000000
13
27.215994
23
-71.915321
33
-18.324423
0
3DFACE
8
Sac2
62
6.000000
10
27.215994
20
-71.915321
30
-18.324423
11
30.549557
21
-57.798531
31
-20.000000
12
13.328703
22
-64.931633
32
-18.324427
13
13.328703
23
-64.931633
33
-18.324427
0
3DFACE
8
Sac2
62
6.000000
10
13.328703
20
-64.931633
30
11.835964
11
13.328703
21
-64.931633
31
11.835964
12
27.215994
22
-71.915321
32
5.133657
13
8.447109
23
-79.689651
33
5.133657
0
3DFACE
8
Sac2
62
6.000000
10
8.447109
20
-79.689651
30
5.133657
11
27.215994
21
-71.915321
31
5.133657
12
27.215994
22
-71.915321
32
-18.324423
13
8.447109
23
-79.689651
33
-18.324423
0
3DFACE
8
Sac2
62
6.000000
10
8.447109
20
-79.689651
30
-18.324423
11
27.215994
21
-71.915321
31
-18.324423
12
13.328703
22
-64.931633
32
-18.324427
13
13.328703
23
-64.931633
33
-18.324427
0
3DFACE
8
Sac2
62
6.000000
10
13.328703
20
-64.931633
30
11.835964
11
13.328703
21
-64.931633
31
11.835964
12
8.447109
22
-79.689651
32
5.133657
13
0.751944
23
-70.141098
33
6.809234
0
3DFACE
8
Sac2
62
6.000000
10
0.751944
20
-70.141098
30
6.809234
11
8.447109
21
-79.689651
31
5.133657
12
8.447109
22
-79.689651
32
-18.324423
13
-2.344116
23
-71.423523
33
-20.000000
0
3DFACE
8
Sac2
62
6.000000
10
-2.344116
20
-71.423523
30
-20.000000
11
8.447109
21
-79.689651
31
-18.324423
12
13.328703
22
-64.931633
32
-18.324427
13
13.328703
23
-64.931633
33
-18.324427
0
3DFACE
8
Sac3
62
7.000000
10
-5.098919
20
-84.962700
30
11.835964
11
-5.098919
21
-84.962700
31
11.835964
12
-18.125734
22
-88.914330
32
6.809234
13
-18.234816
23
-76.651436
33
5.133657
0
3DFACE
8
Sac3
62
7.000000
10
-18.234816
20
-76.651436
30
5.133657
11
-18.125734
21
-88.914330
31
6.809234
12
-21.332588
22
-89.887115
32
-20.000000
13
-18.234816
23
-76.651436
33
-18.324423
0
3DFACE
8
Sac3
62
7.000000
10
-18.234816
20
-76.651436
30
-18.324423
11
-21.332588
21
-89.887115
31
-20.000000
12
-5.098919
22
-84.962700
32
-18.324427
13
-5.098919
23
-84.962700
33
-18.324427
0
3DFACE
8
Sac3
62
7.000000
10
-5.098919
20
-84.962700
30
11.835964
11
-5.098919
21
-84.962700
31
11.835964
12
-18.234816
22
-76.651436
32
5.133657
13
1.205705
23
-70.754227
33
5.133657
0
3DFACE
8
Sac3
62
7.000000
10
1.205705
20
-70.754227
30
5.133657
11
-18.234816
21
-76.651436
31
5.133657
12
-18.234816
22
-76.651436
32
-18.324423
13
1.205705
23
-70.754227
33
-18.324423
0
3DFACE
8
Sac3
62
7.000000
10
1.205705
20
-70.754227
30
-18.324423
11
-18.234816
21
-76.651436
31
-18.324423
12
-5.098919
22
-84.962700
32
-18.324427
13
-5.098919
23
-84.962700
33
-18.324427
0
3DFACE
8
Sac3
62
7.000000
10
-5.098919
20
-84.962700
30
11.835964
11
-5.098919
21
-84.962700
31
11.835964
12
1.205705
22
-70.754227
32
5.133657
13
7.927895
23
-81.011055
33
6.809234
0
3DFACE
8
Sac3
62
7.000000
10
7.927895
20
-81.011055
30
6.809234
11
1.205705
21
-70.754227
31
5.133657
12
1.205705
22
-70.754227
32
-18.324423
13
12.738178
23
-79.551872
33
-20.000000
0
3DFACE
8
Sac3
62
7.000000
10
12.738178
20
-79.551872
30
-20.000000
11
1.205705
21
-70.754227
31
-18.324423
12
-5.098919
22
-84.962700
32
-18.324427
13
-5.098919
23
-84.962700
33
-18.324427
0
3DFACE
8
Sac3
62
7.000000
10
-5.098919
20
-84.962700
30
11.835964
11
-5.098919
21
-84.962700
31
11.835964
12
7.927895
22
-81.011055
32
6.809234
13
8.036979
23
-93.273941
33
5.133657
0
3DFACE
8
Sac3
62
7.000000
10
8.036979
20
-93.273941
30
5.133657
11
7.927895
21
-81.011055
31
6.809234
12
12.738178
22
-79.551872
32
-20.000000
13
8.036979
23
-93.273941
33
-18.324423
0
3DFACE
8
Sac3
62
7.000000
10
8.036979
20
-93.273941
30
-18.324423
11
12.738178
21
-79.551872
31
-20.000000
12
-5.098919
22
-84.962700
32
-18.324427
13
-5.098919
23
-84.962700
33
-18.324427
0
3DFACE
8
Sac3
62
7.000000
10
-5.098919
20
-84.962700
30
11.835964
11
-5.098919
21
-84.962700
31
11.835964
12
8.036979
22
-93.273941
32
5.133657
13
-11.403545
23
-99.171165
33
5.133657
0
3DFACE
8
Sac3
62
7.000000
10
-11.403545
20
-99.171165
30
5.133657
11
8.036979
21
-93.273941
31
5.133657
12
8.036979
22
-93.273941
32
-18.324423
13
-11.403545
23
-99.171165
33
-18.324423
0
3DFACE
8
Sac3
62
7.000000
10
-11.403545
20
-99.171165
30
-18.324423
11
8.036979
21
-93.273941
31
-18.324423
12
-5.098919
22
-84.962700
32
-18.324427
13
-5.098919
23
-84.962700
33
-18.324427
0
3DFACE
8
Sac3
62
7.000000
10
-5.098919
20
-84.962700
30
11.835964
11
-5.098919
21
-84.962700
31
11.835964
12
-11.403545
22
-99.171165
32
5.133657
13
-18.125734
23
-88.914330
33
6.809234
0
3DFACE
8
Sac3
62
7.000000
10
-18.125734
20
-88.914330
30
6.809234
11
-11.403545
21
-99.171165
31
5.133657
12
-11.403545
22
-99.171165
32
-18.324423
13
-21.332588
23
-89.887115
33
-20.000000
0
3DFACE
8
Sac3
62
7.000000
10
-21.332588
20
-89.887115
30
-20.000000
11
-11.403545
21
-99.171165
31
-18.324423
12
-5.098919
22
-84.962700
32
-18.324427
13
-5.098919
23
-84.962700
33
-18.324427
0
3DFACE
8
Sac1
62
8.000000
10
-20.123915
20
-62.959850
30
11.835964
11
-20.123915
21
-62.959850
31
11.835964
12
-33.736897
22
-62.959850
32
6.809234
13
-30.281559
23
-51.193325
33
5.133657
0
3DFACE
8
Sac1
62
8.000000
10
-30.281559
20
-51.193325
30
5.133657
11
-33.736897
21
-62.959850
31
6.809234
12
-37.088055
22
-62.959850
32
-20.000000
13
-30.281559
23
-51.193325
33
-18.324423
0
3DFACE
8
Sac1
62
8.000000
10
-30.281559
20
-51.193325
30
-18.324423
11
-37.088055
21
-62.959850
31
-20.000000
12
-20.123915
22
-62.959850
32
-18.324427
13
-20.123915
23
-62.959850
33
-18.324427
0
3DFACE
8
Sac1
62
8.000000
10
-20.123915
20
-62.959850
30
11.835964
11
-20.123915
21
-62.959850
31
11.835964
12
-30.281559
22
-51.193325
32
5.133657
13
-9.966266
23
-51.193329
33
5.133657
0
3DFACE
8
Sac1
62
8.000000
10
-9.966266
20
-51.193329
30
5.133657
11
-30.281559
21
-51.193325
31
5.133657
12
-30.281559
22
-51.193325
32
-18.324423
13
-9.966266
23
-51.193329
33
-18.324423
0
3DFACE
8
Sac1
62
8.000000
10
-9.966266
20
-51.193329
30
-18.324423
11
-30.281559
21
-51.193325
31
-18.324423
12
-20.123915
22
-62.959850
32
-18.324427
13
-20.123915
23
-62.959850
33
-18.324427
0
3DFACE
8
Sac1
62
8.000000
10
-20.123915
20
-62.959850
30
11.835964
11
-20.123915
21
-62.959850
31
11.835964
12
-9.966266
22
-51.193329
32
5.133657
13
-6.510932
23
-62.959854
33
6.809234
0
3DFACE
8
Sac1
62
8.000000
10
-6.510932
20
-62.959854
30
6.809234
11
-9.966266
21
-51.193329
31
5.133657
12
-9.966266
22
-51.193329
32
-18.324423
13
-1.484201
23
-62.959854
33
-20.000000
0
3DFACE
8
Sac1
62
8.000000
10
-1.484201
20
-62.959854
30
-20.000000
11
-9.966266
21
-51.193329
31
-18.324423
12
-20.123915
22
-62.959850
32
-18.324427
13
-20.123915
23
-62.959850
33
-18.324427
0
3DFACE
8
Sac1
62
8.000000
10
-20.123915
20
-62.959850
30
11.835964
11
-20.123915
21
-62.959850
31
11.835964
12
-6.510932
22
-62.959854
32
6.809234
13
-9.966276
23
-74.726379
33
5.133657
0
3DFACE
8
Sac1
62
8.000000
10
-9.966276
20
-74.726379
30
5.133657
11
-6.510932
21
-62.959854
31
6.809234
12
-1.484201
22
-62.959854
32
-20.000000
13
-9.966276
23
-74.726379
33
-18.324423
0
3DFACE
8
Sac1
62
8.000000
10
-9.966276
20
-74.726379
30
-18.324423
11
-1.484201
21
-62.959854
31
-20.000000
12
-20.123915
22
-62.959850
32
-18.324427
13
-20.123915
23
-62.959850
33
-18.324427
0
3DFACE
8
Sac1
62
8.000000
10
-20.123915
20
-62.959850
30
11.835964
11
-20.123915
21
-62.959850
31
11.835964
12
-9.966276
22
-74.726379
32
5.133657
13
-30.281569
23
-74.726379
33
5.133657
0
3DFACE
8
Sac1
62
8.000000
10
-30.281569
20
-74.726379
30
5.133657
11
-9.966276
21
-74.726379
31
5.133657
12
-9.966276
22
-74.726379
32
-18.324423
13
-30.281569
23
-74.726379
33
-18.324423
0
3DFACE
8
Sac1
62
8.000000
10
-30.281569
20
-74.726379
30
-18.324423
11
-9.966276
21
-74.726379
31
-18.324423
12
-20.123915
22
-62.959850
32
-18.324427
13
-20.123915
23
-62.959850
33
-18.324427
0
3DFACE
8
Sac1
62
8.000000
10
-20.123915
20
-62.959850
30
11.835964
11
-20.123915
21
-62.959850
31
11.835964
12
-30.281569
22
-74.726379
32
5.133657
13
-33.736897
23
-62.959850
33
6.809234
0
3DFACE
8
Sac1
62
8.000000
10
-33.736897
20
-62.959850
30
6.809234
11
-30.281569
21
-74.726379
31
5.133657
12
-30.281569
22
-74.726379
32
-18.324423
13
-37.088055
23
-62.959850
33
-20.000000
0
3DFACE
8
Sac1
62
8.000000
10
-37.088055
20
-62.959850
30
-20.000000
11
-30.281569
21
-74.726379
31
-18.324423
12
-20.123915
22
-62.959850
32
-18.324427
13
-20.123915
23
-62.959850
33
-18.324427
0
3DFACE
8
Sac4
62
9.000000
10
-4.562631
20
-61.671612
30
40.014919
11
-4.562631
21
-61.671612
31
40.014919
12
-18.161028
22
-64.563995
32
35.855698
13
-16.552130
23
-52.974255
33
31.819954
0
3DFACE
8
Sac4
62
9.000000
10
-16.552130
20
-52.974255
30
31.819954
11
-18.161028
21
-64.563995
31
35.855698
12
-22.240599
22
-70.210815
32
9.751372
13
-17.223629
23
-57.501141
33
8.812613
0
3DFACE
8
Sac4
62
9.000000
10
-17.223629
20
-57.501141
30
8.812613
11
-22.240599
21
-70.210815
31
9.751372
12
-5.425991
22
-67.491913
32
10.434049
13
-5.425991
23
-67.491913
33
10.434049
0
3DFACE
8
Sac4
62
9.000000
10
-4.562631
20
-61.671612
30
40.014919
11
-4.562631
21
-61.671612
31
40.014919
12
-16.552130
22
-52.974255
32
31.819954
13
3.526654
23
-50.105469
33
30.669470
0
3DFACE
8
Sac4
62
9.000000
10
3.526654
20
-50.105469
30
30.669470
11
-16.552130
21
-52.974255
31
31.819954
12
-17.223629
22
-57.501141
32
8.812613
13
2.855152
23
-54.632362
33
7.662128
0
3DFACE
8
Sac4
62
9.000000
10
2.855152
20
-54.632362
30
7.662128
11
-17.223629
21
-57.501141
31
8.812613
12
-5.425991
22
-67.491913
32
10.434049
13
-5.425991
23
-67.491913
33
10.434049
0
3DFACE
8
Sac4
62
9.000000
10
-4.562631
20
-61.671612
30
40.014919
11
-4.562631
21
-61.671612
31
40.014919
12
3.526654
22
-50.105469
32
30.669470
13
8.747978
23
-60.719341
33
34.313850
0
3DFACE
8
Sac4
62
9.000000
10
8.747978
20
-60.719341
30
34.313850
11
3.526654
21
-50.105469
31
30.669470
12
2.855152
22
-54.632362
32
7.662128
13
9.597606
23
-65.183090
33
6.059496
0
3DFACE
8
Sac4
62
9.000000
10
9.597606
20
-65.183090
30
6.059496
11
2.855152
21
-54.632362
31
7.662128
12
-5.425991
22
-67.491913
32
10.434049
13
-5.425991
23
-67.491913
33
10.434049
0
3DFACE
8
Sac4
62
9.000000
10
-4.562631
20
-61.671612
30
40.014919
11
-4.562631
21
-61.671612
31
40.014919
12
8.747978
22
-60.719341
32
34.313850
13
7.043149
23
-72.955780
33
35.062828
0
3DFACE
8
Sac4
62
9.000000
10
7.043149
20
-72.955780
30
35.062828
11
8.747978
21
-60.719341
31
34.313850
12
9.597606
22
-65.183090
32
6.059496
13
6.371649
23
-77.482666
33
12.055490
0
3DFACE
8
Sac4
62
9.000000
10
6.371649
20
-77.482666
30
12.055490
11
9.597606
21
-65.183090
31
6.059496
12
-5.425991
22
-67.491913
32
10.434049
13
-5.425991
23
-67.491913
33
10.434049
0
3DFACE
8
Sac4
62
9.000000
10
-4.562631
20
-61.671612
30
40.014919
11
-4.562631
21
-61.671612
31
40.014919
12
7.043149
22
-72.955780
32
35.062828
13
-13.035634
23
-75.824562
33
36.213318
0
3DFACE
8
Sac4
62
9.000000
10
-13.035634
20
-75.824562
30
36.213318
11
7.043149
21
-72.955780
31
35.062828
12
6.371649
22
-77.482666
32
12.055490
13
-13.707136
23
-80.351456
33
13.205975
0
3DFACE
8
Sac4
62
9.000000
10
-13.707136
20
-80.351456
30
13.205975
11
6.371649
21
-77.482666
31
12.055490
12
-5.425991
22
-67.491913
32
10.434049
13
-5.425991
23
-67.491913
33
10.434049
0
3DFACE
8
Sac4
62
9.000000
10
-4.562631
20
-61.671612
30
40.014919
11
-4.562631
21
-61.671612
31
40.014919
12
-13.035634
22
-75.824562
32
36.213318
13
-18.161028
23
-64.563995
33
35.855698
0
3DFACE
8
Sac4
62
9.000000
10
-18.161028
20
-64.563995
30
35.855698
11
-13.035634
21
-75.824562
31
36.213318
12
-13.707136
22
-80.351456
32
13.205975
13
-22.240599
23
-70.210815
33
9.751372
0
3DFACE
8
Sac4
62
9.000000
10
-22.240599
20
-70.210815
30
9.751372
11
-13.707136
21
-80.351456
31
13.205975
12
-5.425991
22
-67.491913
32
10.434049
13
-5.425991
23
-67.491913
33
10.434049
0
3DFACE
8
Moulin
62
10.000000
10
17.528688
20
-57.942123
30
-18.324423
11
-27.519739
21
-57.679790
31
-18.324423
12
-19.094355
22
-37.669506
32
88.675591
13
9.336928
23
-37.835079
33
88.675591
0
3DFACE
8
Moulin
62
10.000000
10
-27.519739
20
-57.679790
30
-18.324423
11
-59.188286
21
-25.640238
31
-18.324423
12
-39.081230
22
-17.448475
32
88.675591
13
-19.094355
23
-37.669506
33
88.675591
0
3DFACE
8
Moulin
62
10.000000
10
-59.188286
20
-25.640238
30
-18.324423
11
-58.925941
21
19.408192
31
-18.324423
12
-38.915661
22
10.982806
32
88.675591
13
-39.081230
23
-17.448475
33
88.675591
0
3DFACE
8
Moulin
62
10.000000
10
-58.925941
20
19.408192
30
-18.324423
11
-26.886395
21
51.076740
31
-18.324423
12
-18.694632
22
30.969677
32
88.675591
13
-38.915661
23
10.982806
33
88.675591
0
3DFACE
8
Moulin
62
10.000000
10
-26.886395
20
51.076740
30
-18.324423
11
18.162033
21
50.814400
31
-18.324423
12
9.736648
22
30.804106
32
88.675591
13
-18.694632
23
30.969677
33
88.675591
0
3DFACE
8
Moulin
62
10.000000
10
18.162033
20
50.814400
30
-18.324423
11
49.830578
21
18.774845
31
-18.324423
12
29.723528
22
10.583085
32
88.675591
13
9.736648
23
30.804106
33
88.675591
0
3DFACE
8
Moulin
62
10.000000
10
49.830578
20
18.774845
30
-18.324423
11
49.568237
21
-26.273582
31
-18.324423
12
29.557953
22
-17.848196
32
88.675591
13
29.723528
23
10.583085
33
88.675591
0
3DFACE
8
Moulin
62
10.000000
10
49.568237
20
-26.273582
30
-18.324423
11
17.528688
21
-57.942123
31
-18.324423
12
9.336928
22
-37.835079
32
88.675591
13
29.557953
23
-17.848196
33
88.675591
0
3DFACE
8
Moulin
62
10.000000
10
9.336928
20
-37.835079
30
88.675591
11
-19.094355
21
-37.669506
31
88.675591
12
-19.094355
22
-37.669506
32
108.864250
13
9.336928
23
-37.835079
33
108.864250
0
3DFACE
8
Moulin
62
10.000000
10
-19.094355
20
-37.669506
30
88.675591
11
-39.081230
21
-17.448475
31
88.675591
12
-39.081230
22
-17.448475
32
108.864250
13
-19.094355
23
-37.669506
33
108.864250
0
3DFACE
8
Moulin
62
10.000000
10
-39.081230
20
-17.448475
30
88.675591
11
-38.915661
21
10.982806
31
88.675591
12
-38.915661
22
10.982806
32
108.864250
13
-39.081230
23
-17.448475
33
108.864250
0
3DFACE
8
Moulin
62
10.000000
10
-38.915661
20
10.982806
30
88.675591
11
-18.694632
21
30.969677
31
88.675591
12
-18.694632
22
30.969677
32
108.864250
13
-38.915661
23
10.982806
33
108.864250
0
3DFACE
8
Moulin
62
10.000000
10
-18.694632
20
30.969677
30
88.675591
11
9.736648
21
30.804106
31
88.675591
12
9.736648
22
30.804106
32
108.864250
13
-18.694632
23
30.969677
33
108.864250
0
3DFACE
8
Moulin
62
10.000000
10
9.736648
20
30.804106
30
88.675591
11
29.723528
21
10.583085
31
88.675591
12
29.723528
22
10.583085
32
120.977440
13
9.736648
23
30.804106
33
108.864250
0
3DFACE
8
Moulin
62
10.000000
10
29.723528
20
10.583085
30
88.675591
11
29.557953
21
-17.848196
31
88.675591
12
29.557953
22
-17.848196
32
120.977440
13
29.723528
23
10.583085
33
120.977440
0
3DFACE
8
Moulin
62
10.000000
10
29.557953
20
-17.848196
30
88.675591
11
9.336928
21
-37.835079
31
88.675591
12
9.336928
22
-37.835079
32
108.864250
13
29.557953
23
-17.848196
33
120.977440
0
3DFACE
8
Moulin
62
10.000000
10
9.336928
20
-37.835079
30
108.864250
11
-19.094355
21
-37.669506
31
108.864250
12
-16.550442
22
-31.627712
32
127.034042
13
6.863555
23
-31.764063
33
127.034042
0
3DFACE
8
Moulin
62
10.000000
10
-19.094355
20
-37.669506
30
108.864250
11
-39.081230
21
-17.448475
31
108.864250
12
-33.010223
22
-14.975101
32
127.034042
13
-16.550442
23
-31.627712
33
127.034042
0
3DFACE
8
Moulin
62
10.000000
10
-39.081230
20
-17.448475
30
108.864250
11
-38.915661
21
10.982806
31
108.864250
12
-32.873867
22
8.438894
32
127.034042
13
-33.010223
23
-14.975101
33
127.034042
0
3DFACE
8
Moulin
62
10.000000
10
-38.915661
20
10.982806
30
108.864250
11
-18.694632
21
30.969677
31
108.864250
12
-16.221260
22
24.898676
32
127.034042
13
-32.873867
23
8.438894
33
127.034042
0
3DFACE
8
Moulin
62
10.000000
10
-18.694632
20
30.969677
30
108.864250
11
9.736648
21
30.804106
31
108.864250
12
7.192736
22
24.762321
32
127.034042
13
-16.221260
23
24.898676
33
127.034042
0
3DFACE
8
Moulin
62
10.000000
10
9.736648
20
30.804106
30
108.864250
11
29.723528
21
10.583085
31
120.977440
12
23.652519
22
8.109712
32
133.090637
13
7.192736
23
24.762321
33
127.034042
0
3DFACE
8
Moulin
62
10.000000
10
29.723528
20
10.583085
30
120.977440
11
29.557953
21
-17.848196
31
120.977440
12
23.516159
22
-15.304285
32
133.090637
13
23.652519
23
8.109712
33
133.090637
0
3DFACE
8
Moulin
62
10.000000
10
29.557953
20
-17.848196
30
120.977440
11
9.336928
21
-37.835079
31
108.864250
12
6.863555
22
-31.764063
32
127.034042
13
23.516159
23
-15.304285
33
133.090637
0
3DFACE
8
Moulin
62
10.000000
10
6.863555
20
-31.764063
30
127.034042
11
-16.550442
21
-31.627712
31
127.034042
12
-8.918706
22
-13.502344
32
137.128387
13
-0.556564
23
-13.551042
33
137.128387
0
3DFACE
8
Moulin
62
10.000000
10
-16.550442
20
-31.627712
30
127.034042
11
-33.010223
21
-14.975101
31
127.034042
12
-14.797198
22
-7.554983
32
137.128387
13
-8.918706
23
-13.502344
33
137.128387
0
3DFACE
8
Moulin
62
10.000000
10
-33.010223
20
-14.975101
30
127.034042
11
-32.873867
21
8.438894
31
127.034042
12
-14.748501
22
0.807158
32
137.128387
13
-14.797198
23
-7.554983
33
137.128387
0
3DFACE
8
Moulin
62
10.000000
10
-32.873867
20
8.438894
30
127.034042
11
-16.221260
21
24.898676
31
127.034042
12
-8.801141
22
6.685651
32
137.128387
13
-14.748501
23
0.807158
33
137.128387
0
3DFACE
8
Moulin
62
10.000000
10
-16.221260
20
24.898676
30
127.034042
11
7.192736
21
24.762321
31
127.034042
12
-0.438999
22
6.636954
32
137.128387
13
-8.801141
23
6.685651
33
137.128387
0
3DFACE
8
Moulin
62
10.000000
10
7.192736
20
24.762321
30
127.034042
11
23.652519
21
8.109712
31
133.090637
12
5.439494
22
0.689593
32
137.128387
13
-0.438999
23
6.636954
33
137.128387
0
3DFACE
8
Moulin
62
10.000000
10
23.652519
20
8.109712
30
133.090637
11
23.516159
21
-15.304285
31
133.090637
12
5.390795
22
-7.672549
32
137.128387
13
5.439494
23
0.689593
33
137.128387
0
3DFACE
8
Moulin
62
10.000000
10
23.516159
20
-15.304285
30
133.090637
11
6.863555
21
-31.764063
31
127.034042
12
-0.556564
22
-13.551042
32
137.128387
13
5.390795
23
-7.672549
33
137.128387
0
3DFACE
8
Moulin
62
10.000000
10
-0.556564
20
-13.551042
30
137.128387
11
-8.918706
21
-13.502344
31
137.128387
12
-14.797198
22
-7.554983
32
137.128387
13
-14.797198
23
-7.554983
33
137.128387
0
3DFACE
8
Moulin
62
10.000000
10
-0.556564
20
-13.551042
30
137.128387
11
-14.797198
21
-7.554983
31
137.128387
12
-14.748501
22
0.807158
32
137.128387
13
-14.748501
23
0.807158
33
137.128387
0
3DFACE
8
Moulin
62
10.000000
10
-0.556564
20
-13.551042
30
137.128387
11
-14.748501
21
0.807158
31
137.128387
12
-8.801141
22
6.685651
32
137.128387
13
-8.801141
23
6.685651
33
137.128387
0
3DFACE
8
Moulin
62
10.000000
10
-0.556564
20
-13.551042
30
137.128387
11
-8.801141
21
6.685651
31
137.128387
12
-0.438999
22
6.636954
32
137.128387
13
-0.438999
23
6.636954
33
137.128387
0
3DFACE
8
Moulin
62
10.000000
10
-0.556564
20
-13.551042
30
137.128387
11
-0.438999
21
6.636954
31
137.128387
12
5.439494
22
0.689593
32
137.128387
13
5.439494
23
0.689593
33
137.128387
0
3DFACE
8
Moulin
62
10.000000
10
-0.556564
20
-13.551042
30
137.128387
11
5.439494
21
0.689593
31
137.128387
12
5.390795
22
-7.672549
32
137.128387
13
5.390795
23
-7.672549
33
137.128387
0
3DFACE
8
Moulin
62
10.000000
10
-59.188282
20
12.718252
30
-18.324423
11
-45.447018
21
12.718251
31
53.043991
12
-45.447018
22
-19.583633
32
53.043991
13
-59.188282
23
-19.583632
33
-18.324423
0
ENDSEC
0
EOF
