0
SECTION
2
ENTITIES
0
3DFACE
8
Fenetre2
62
1.000000
10
-4.320288
20
52.908043
30
66.565536
11
1.097534
21
52.918602
31
66.618637
12
5.213023
22
53.606094
32
70.074898
13
5.213023
23
53.606094
33
70.074898
0
3DFACE
8
Fenetre2
62
1.000000
10
-4.320288
20
52.908043
30
66.565536
11
5.213023
21
53.606094
31
70.074898
12
6.100501
22
54.648838
32
75.317123
13
6.100501
23
54.648838
33
75.317123
0
3DFACE
8
Fenetre2
62
1.000000
10
-4.320288
20
52.908043
30
66.565536
11
6.100501
21
54.648838
31
75.317123
12
3.344703
22
55.558918
32
79.892387
13
3.344703
23
55.558918
33
79.892387
0
3DFACE
8
Fenetre2
62
1.000000
10
-4.320288
20
52.908043
30
66.565536
11
3.344703
21
55.558918
31
79.892387
12
-1.764903
22
55.910496
32
81.659889
13
-1.764903
23
55.910496
33
81.659889
0
3DFACE
8
Fenetre2
62
1.000000
10
-4.320288
20
52.908043
30
66.565536
11
-1.764903
21
55.910496
31
81.659889
12
-6.837475
22
55.539066
32
79.792587
13
-6.837475
23
55.539066
33
79.792587
0
3DFACE
8
Fenetre2
62
1.000000
10
-4.320288
20
52.908043
30
66.565536
11
-6.837475
21
55.539066
31
79.792587
12
-9.499497
22
54.618427
32
75.164215
13
-9.499497
23
54.618427
33
75.164215
0
3DFACE
8
Fenetre2
62
1.000000
10
-4.320288
20
52.908043
30
66.565536
11
-9.499497
21
54.618427
31
75.164215
12
-8.505382
22
53.579353
32
69.940453
13
-8.505382
23
53.579353
33
69.940453
0
3DFACE
8
Fenetre2
62
1.000000
10
5.970501
20
54.323040
30
73.679207
11
5.970501
21
54.527885
31
74.709038
12
-9.479496
22
54.527885
32
74.709038
13
-9.479496
23
54.323040
33
73.679207
0
3DFACE
8
Fenetre2
62
1.000000
10
-2.084904
20
52.909996
30
66.575356
11
-1.154904
21
52.909996
31
66.575356
12
-1.154904
22
55.926102
32
81.738358
13
-2.084904
23
55.926102
33
81.738358
0
3DFACE
8
Fenetre2
62
1.000000
10
7.119457
20
55.553036
30
75.300819
11
4.003655
21
56.582001
31
80.473785
12
3.344703
22
55.558918
32
79.892387
13
6.100500
23
54.648838
33
75.317123
0
3DFACE
8
Fenetre2
62
1.000000
10
4.003655
20
56.582001
30
80.473785
11
-1.773448
21
56.979507
31
82.472183
12
-1.764904
22
55.910496
32
81.659889
13
3.344703
23
55.558918
33
79.892387
0
3DFACE
8
Fenetre2
62
1.000000
10
-1.773448
20
56.979507
30
82.472183
11
-7.508677
21
56.559555
31
80.360947
12
-6.837474
22
55.539066
32
79.792587
13
-1.764904
23
55.910496
33
81.659889
0
3DFACE
8
Fenetre2
62
1.000000
10
-7.508677
20
56.559555
30
80.360947
11
-10.518454
21
55.518646
31
75.127953
12
-9.499497
22
54.618427
32
75.164215
13
-6.837474
23
55.539066
33
79.792587
0
3DFACE
8
Fenetre2
62
1.000000
10
-10.518454
20
55.518646
30
75.127953
11
-9.394471
21
54.343834
31
69.221771
12
-8.505382
22
53.579353
32
69.940453
13
-9.499497
23
54.618427
33
75.164215
0
3DFACE
8
Fenetre2
62
1.000000
10
-9.394471
20
54.343834
30
69.221771
11
-4.662655
21
53.584827
31
65.405975
12
-4.320288
22
52.908043
32
66.565536
13
-8.505382
23
53.579353
33
69.940453
0
3DFACE
8
Fenetre2
62
1.000000
10
-4.662655
20
53.584827
30
65.405975
11
1.462926
21
53.596767
31
65.466011
12
1.097534
22
52.918602
32
66.618637
13
-4.320288
23
52.908043
33
66.565536
0
3DFACE
8
Fenetre2
62
1.000000
10
1.462926
20
53.596767
30
65.466011
11
6.116044
21
54.374073
31
69.373795
12
5.213023
22
53.606094
32
70.074898
13
1.097534
23
52.918602
33
66.618637
0
3DFACE
8
Fenetre2
62
1.000000
10
6.116044
20
54.374073
30
69.373795
11
7.119457
21
55.553036
31
75.300819
12
6.100500
22
54.648838
32
75.317123
13
5.213023
23
53.606094
33
70.074898
0
3DFACE
8
Rebord
62
2.000000
10
-50.920258
20
49.999996
30
17.799999
11
-50.920258
21
49.999996
31
14.789029
12
-50.920258
22
54.799995
32
14.789029
13
-50.920258
23
54.799995
33
17.799999
0
3DFACE
8
Rebord
62
2.000000
10
-50.920258
20
54.799995
30
17.799999
11
-50.920258
21
54.799995
31
14.789029
12
-11.200008
22
54.799995
32
14.789029
13
-11.200008
23
54.799995
33
17.799999
0
3DFACE
8
Rebord
62
2.000000
10
-11.200008
20
54.799995
30
17.799999
11
-11.200008
21
54.799995
31
14.789029
12
-11.200008
22
49.999996
32
14.789029
13
-11.200008
23
49.999996
33
17.799999
0
3DFACE
8
Rebord
62
2.000000
10
-11.200008
20
49.999996
30
17.799999
11
-50.920258
21
49.999996
31
17.799999
12
-50.920258
22
54.799995
32
17.799999
13
-11.200008
23
54.799995
33
17.799999
0
3DFACE
8
Rebord
62
2.000000
10
-11.200008
20
54.799995
30
14.789029
11
-50.920258
21
54.799995
31
14.789029
12
-50.920258
22
49.999996
32
14.789029
13
-11.200008
23
49.999996
33
14.789029
0
3DFACE
8
Cheminee
62
3.000000
10
-22.373144
20
-53.331661
30
82.879738
11
-12.426857
21
-54.931664
31
93.920250
12
-12.426857
22
-54.931664
32
110.320251
13
-22.026854
23
-54.931664
33
110.320251
0
3DFACE
8
Cheminee
62
3.000000
10
-12.426857
20
-54.931664
30
93.920250
11
-12.426857
21
-67.324989
31
93.920250
12
-12.426857
22
-67.331673
32
110.320251
13
-12.426857
23
-54.931664
33
110.320251
0
3DFACE
8
Cheminee
62
3.000000
10
-12.426857
20
-67.324989
30
93.920250
11
-22.373144
21
-65.724998
31
82.879738
12
-22.026854
22
-67.331673
32
110.320251
13
-12.426857
23
-67.331673
33
110.320251
0
3DFACE
8
Cheminee
62
3.000000
10
-22.373144
20
-65.724998
30
82.879738
11
-22.373144
21
-53.331661
31
82.879738
12
-22.026854
22
-54.931664
32
110.320251
13
-22.026854
23
-67.331673
33
110.320251
0
3DFACE
8
Cheminee
62
3.000000
10
-12.426857
20
-54.931664
30
110.320251
11
-12.426857
21
-67.331673
31
110.320251
12
-9.826855
22
-70.690010
32
111.320251
13
-9.826855
23
-51.573322
33
111.320251
0
3DFACE
8
Cheminee
62
3.000000
10
-12.426857
20
-67.331673
30
110.320251
11
-22.026854
21
-67.331673
31
110.320251
12
-24.626856
22
-70.690010
32
111.320251
13
-9.826855
23
-70.690010
33
111.320251
0
3DFACE
8
Cheminee
62
3.000000
10
-22.026854
20
-67.331673
30
110.320251
11
-22.026854
21
-54.931664
31
110.320251
12
-24.626856
22
-51.573322
32
111.320251
13
-24.626856
23
-70.690010
33
111.320251
0
3DFACE
8
Cheminee
62
3.000000
10
-22.026854
20
-54.931664
30
110.320251
11
-12.426857
21
-54.931664
31
110.320251
12
-9.826855
22
-51.573322
32
111.320251
13
-24.626856
23
-51.573322
33
111.320251
0
3DFACE
8
Cheminee
62
3.000000
10
-9.826855
20
-51.573322
30
111.320251
11
-9.826855
21
-70.690010
31
111.320251
12
-9.826855
22
-70.690010
32
117.520256
13
-9.826855
23
-51.573322
33
117.520256
0
3DFACE
8
Cheminee
62
3.000000
10
-9.826855
20
-70.690010
30
111.320251
11
-24.626856
21
-70.690010
31
111.320251
12
-24.626856
22
-70.690010
32
117.520256
13
-9.826855
23
-70.690010
33
117.520256
0
3DFACE
8
Cheminee
62
3.000000
10
-24.626856
20
-70.690010
30
111.320251
11
-24.626856
21
-51.573322
31
111.320251
12
-24.626856
22
-51.573322
32
117.520256
13
-24.626856
23
-70.690010
33
117.520256
0
3DFACE
8
Cheminee
62
3.000000
10
-24.626856
20
-51.573322
30
111.320251
11
-9.826855
21
-51.573322
31
111.320251
12
-9.826855
22
-51.573322
32
117.520256
13
-24.626856
23
-51.573322
33
117.520256
0
3DFACE
8
Cheminee
62
3.000000
10
-9.826855
20
-51.573322
30
117.520256
11
-9.826855
21
-70.690010
31
117.520256
12
-11.626855
22
-68.365005
32
118.320251
13
-11.626855
23
-53.898327
33
118.320251
0
3DFACE
8
Cheminee
62
3.000000
10
-9.826855
20
-70.690010
30
117.520256
11
-24.626856
21
-70.690010
31
117.520256
12
-22.826855
22
-68.365005
32
118.320251
13
-11.626855
23
-68.365005
33
118.320251
0
3DFACE
8
Cheminee
62
3.000000
10
-24.626856
20
-70.690010
30
117.520256
11
-24.626856
21
-51.573322
31
117.520256
12
-22.826855
22
-53.898327
32
118.320251
13
-22.826855
23
-68.365005
33
118.320251
0
3DFACE
8
Cheminee
62
3.000000
10
-24.626856
20
-51.573322
30
117.520256
11
-9.826855
21
-51.573322
31
117.520256
12
-11.626855
22
-53.898327
32
118.320251
13
-22.826855
23
-53.898327
33
118.320251
0
3DFACE
8
Cheminee
62
3.000000
10
-11.626855
20
-53.898327
30
118.320251
11
-11.626855
21
-68.365005
31
118.320251
12
-22.826855
22
-68.365005
32
118.320251
13
-22.826855
23
-53.898327
33
118.320251
0
3DFACE
8
Cheminee2
62
4.000000
10
5.999997
20
-56.275002
30
31.000000
11
5.999997
21
-58.725002
31
31.000000
12
2.208849
22
-58.725002
32
51.232670
13
2.208849
23
-56.275002
33
51.232670
0
3DFACE
8
Cheminee2
62
4.000000
10
5.999997
20
-58.725002
30
31.000000
11
-8.000003
21
-58.725002
31
31.000000
12
-10.208855
22
-58.725002
32
44.767330
13
2.208849
23
-58.725002
33
51.232670
0
3DFACE
8
Cheminee2
62
4.000000
10
-8.000003
20
-58.725002
30
31.000000
11
-8.000003
21
-56.275002
31
31.000000
12
-10.208855
22
-56.275002
32
44.767330
13
-10.208855
23
-58.725002
33
44.767330
0
3DFACE
8
Cheminee2
62
4.000000
10
2.208849
20
-56.275002
30
51.232670
11
2.208849
21
-58.725002
31
51.232670
12
-9.580812
22
-60.724998
32
62.791759
13
-9.580812
23
-58.275002
33
62.791759
0
3DFACE
8
Cheminee2
62
4.000000
10
2.208849
20
-58.725002
30
51.232670
11
-10.208855
21
-58.725002
31
44.767330
12
-22.419191
22
-60.724998
32
57.208237
13
-9.580812
23
-60.724998
33
62.791759
0
3DFACE
8
Cheminee2
62
4.000000
10
-10.208855
20
-58.725002
30
44.767330
11
-10.208855
21
-56.275002
31
44.767330
12
-22.419191
22
-58.275002
32
57.208237
13
-22.419191
23
-60.724998
33
57.208237
0
3DFACE
8
Cheminee2
62
4.000000
10
-9.580812
20
-58.275002
30
62.791759
11
-9.580812
21
-60.724998
31
62.791759
12
-12.426857
22
-67.324989
32
93.920250
13
-12.426857
23
-64.875000
33
93.920250
0
3DFACE
8
Cheminee2
62
4.000000
10
-9.580812
20
-60.724998
30
62.791759
11
-22.419191
21
-60.724998
31
57.208237
12
-22.373144
22
-65.724998
32
82.879738
13
-12.426857
23
-67.324989
33
93.920250
0
3DFACE
8
Cheminee2
62
4.000000
10
-22.419191
20
-60.724998
30
57.208237
11
-22.419191
21
-58.275002
31
57.208237
12
-22.373144
22
-63.275002
32
82.879738
13
-22.373144
23
-65.724998
33
82.879738
0
3DFACE
8
Cheminee2
62
4.000000
10
19.000000
20
-54.000000
30
0.000000
11
19.000000
21
-61.000004
31
0.000000
12
15.999996
22
-60.475002
32
23.000000
13
15.999996
23
-54.525002
33
23.000000
0
3DFACE
8
Cheminee2
62
4.000000
10
19.000000
20
-61.000004
30
0.000000
11
-21.000006
21
-61.000004
31
0.000000
12
-18.000002
22
-60.475002
32
23.000000
13
15.999996
23
-60.475002
33
23.000000
0
3DFACE
8
Cheminee2
62
4.000000
10
-21.000006
20
-61.000004
30
0.000000
11
-21.000006
21
-54.000000
31
0.000000
12
-18.000002
22
-54.525002
32
23.000000
13
-18.000002
23
-60.475002
33
23.000000
0
3DFACE
8
Cheminee2
62
4.000000
10
15.999996
20
-54.525002
30
23.000000
11
15.999996
21
-60.475002
31
23.000000
12
5.999997
22
-58.725002
32
31.000000
13
5.999997
23
-56.275002
33
31.000000
0
3DFACE
8
Cheminee2
62
4.000000
10
15.999996
20
-60.475002
30
23.000000
11
-18.000002
21
-60.475002
31
23.000000
12
-8.000003
22
-58.725002
32
31.000000
13
5.999997
23
-58.725002
33
31.000000
0
3DFACE
8
Cheminee2
62
4.000000
10
-18.000002
20
-60.475002
30
23.000000
11
-18.000002
21
-54.525002
31
23.000000
12
-8.000003
22
-56.275002
32
31.000000
13
-8.000003
23
-58.725002
33
31.000000
0
3DFACE
8
Murs
62
5.000000
10
31.646999
20
54.400711
30
70.971169
11
-1.000006
21
60.120804
31
105.298660
12
-33.483955
22
54.400719
32
70.971169
13
-33.483955
23
54.400719
33
70.971169
0
3DFACE
8
Murs
62
5.000000
10
-33.483955
20
-59.083153
30
70.971169
11
-1.000006
21
-65.879196
31
105.298660
12
31.646999
22
-59.083153
32
70.971169
13
31.646999
23
-59.083153
33
70.971169
0
3DFACE
8
Murs
62
5.000000
10
74.918465
20
51.633858
30
45.000000
11
31.646999
21
54.400711
31
70.971169
12
-33.483955
22
54.400719
32
70.971169
13
-72.918472
23
51.633858
33
45.000000
0
3DFACE
8
Murs
62
5.000000
10
-72.918472
20
-55.633862
30
45.000000
11
-33.483955
21
-59.083153
31
70.971169
12
31.646999
22
-59.083153
32
70.971169
13
74.918465
23
-55.633862
33
45.000000
0
3DFACE
8
Murs
62
5.000000
10
74.918465
20
51.633858
30
45.000000
11
54.000000
21
49.999996
31
0.000000
12
54.000000
22
-54.000000
32
0.000000
13
74.918465
23
-55.633862
33
45.000000
0
3DFACE
8
Murs
62
5.000000
10
74.918465
20
-55.633862
30
45.000000
11
54.000000
21
-54.000000
31
0.000000
12
-52.000004
22
-54.000000
32
0.000000
13
-72.918472
23
-55.633862
33
45.000000
0
3DFACE
8
Murs
62
5.000000
10
-72.918472
20
-55.633862
30
45.000000
11
-52.000004
21
-54.000000
31
0.000000
12
-52.000004
22
49.999996
32
0.000000
13
-72.918472
23
51.633858
33
45.000000
0
3DFACE
8
Murs
62
5.000000
10
-72.918472
20
51.633858
30
45.000000
11
-52.000004
21
49.999996
31
0.000000
12
54.000000
22
49.999996
32
0.000000
13
74.918465
23
51.633858
33
45.000000
0
3DFACE
8
Fenetre
62
6.000000
10
-12.200007
20
49.999996
30
17.799999
11
-12.200007
21
49.999996
31
39.399998
12
-49.600002
22
49.999996
32
39.399998
13
-49.600002
23
49.999996
33
17.799999
0
3DFACE
8
Fenetre
62
6.000000
10
-14.000010
20
49.999996
30
36.399998
11
-29.800005
21
49.999996
31
36.399998
12
-29.800005
22
49.999996
32
20.600006
13
-14.000010
23
49.999996
33
20.600006
0
3DFACE
8
Fenetre
62
6.000000
10
-33.400024
20
49.999996
30
20.399992
11
-33.400024
21
49.999996
31
36.399998
12
-48.000004
22
49.999996
32
36.399998
13
-48.000004
23
49.999996
33
20.399992
0
3DFACE
8
Toit
62
7.000000
10
90.999992
20
51.879204
30
33.701332
11
90.999992
21
-55.879208
31
33.701332
12
33.999996
22
-63.292633
32
70.971169
13
33.999996
23
59.292637
33
70.971169
0
3DFACE
8
Toit
62
7.000000
10
33.999996
20
59.292637
30
70.971169
11
33.999996
21
-63.292633
31
70.971169
12
-1.000006
22
-70.120773
32
105.298668
13
-1.000006
23
66.120804
33
105.298660
0
3DFACE
8
Toit
62
7.000000
10
-1.000006
20
66.120804
30
105.298660
11
-1.000006
21
-70.120773
31
105.298668
12
-35.000008
22
-63.487720
32
71.951965
13
-35.000008
23
59.487732
33
71.951965
0
3DFACE
8
Toit
62
7.000000
10
-35.000008
20
59.487732
30
71.951965
11
-35.000008
21
-63.487720
31
71.951965
12
-87.000008
22
-56.464478
32
36.643688
13
-87.000008
23
52.464481
33
36.643688
0
3DFACE
8
Porte
62
8.000000
10
39.199993
20
49.999996
30
32.000000
11
32.619297
21
49.999996
31
37.936676
12
23.999994
22
49.999996
32
40.000000
13
23.999994
23
49.999996
33
40.000000
0
3DFACE
8
Porte
62
8.000000
10
39.199993
20
49.999996
30
32.000000
11
23.999994
21
49.999996
31
40.000000
12
15.078762
22
49.999996
32
37.587639
13
15.078762
23
49.999996
33
37.587639
0
3DFACE
8
Porte
62
8.000000
10
39.199993
20
49.999996
30
32.000000
11
15.078762
21
49.999996
31
37.587639
12
8.399994
22
49.999996
32
31.199999
13
8.399994
23
49.999996
33
31.199999
0
3DFACE
8
Porte
62
8.000000
10
39.199993
20
49.999996
30
32.000000
11
8.399994
21
49.999996
31
31.199999
12
9.999994
22
49.999996
32
0.400000
13
9.999994
23
49.999996
33
0.400000
0
3DFACE
8
Porte
62
8.000000
10
39.199993
20
49.999996
30
32.000000
11
9.999994
21
49.999996
31
0.400000
12
36.999992
22
49.999996
32
0.200001
13
36.999992
23
49.999996
33
0.200001
0
3DFACE
8
Porte
62
8.000000
10
34.819996
20
53.679581
30
17.910002
11
34.819996
21
53.679581
31
17.910002
12
32.533688
22
52.647182
32
17.910002
13
33.676842
23
52.647182
33
15.930002
0
3DFACE
8
Porte
62
8.000000
10
33.676842
20
52.647182
30
15.930002
11
32.533688
21
52.647182
31
17.910002
12
32.533688
22
50.582390
32
17.910002
13
33.676842
23
50.582390
33
15.930002
0
3DFACE
8
Porte
62
8.000000
10
34.819996
20
53.679581
30
17.910002
11
34.819996
21
53.679581
31
17.910002
12
33.676842
22
52.647182
32
15.930002
13
35.963150
23
52.647182
33
15.930002
0
3DFACE
8
Porte
62
8.000000
10
35.963150
20
52.647182
30
15.930002
11
33.676842
21
52.647182
31
15.930002
12
33.676842
22
50.582390
32
15.930002
13
35.963150
23
50.582390
33
15.930002
0
3DFACE
8
Porte
62
8.000000
10
34.819996
20
53.679581
30
17.910002
11
34.819996
21
53.679581
31
17.910002
12
35.963150
22
52.647182
32
15.930002
13
37.106300
23
52.647182
33
17.910002
0
3DFACE
8
Porte
62
8.000000
10
37.106300
20
52.647182
30
17.910002
11
35.963150
21
52.647182
31
15.930002
12
35.963150
22
50.582390
32
15.930002
13
37.106300
23
50.582390
33
17.910002
0
3DFACE
8
Porte
62
8.000000
10
34.819996
20
53.679581
30
17.910002
11
34.819996
21
53.679581
31
17.910002
12
37.106300
22
52.647182
32
17.910002
13
35.963146
23
52.647182
33
19.890001
0
3DFACE
8
Porte
62
8.000000
10
35.963146
20
52.647182
30
19.890001
11
37.106300
21
52.647182
31
17.910002
12
37.106300
22
50.582390
32
17.910002
13
35.963146
23
50.582390
33
19.890001
0
3DFACE
8
Porte
62
8.000000
10
34.819996
20
53.679581
30
17.910002
11
34.819996
21
53.679581
31
17.910002
12
35.963146
22
52.647182
32
19.890001
13
33.676838
23
52.647182
33
19.890001
0
3DFACE
8
Porte
62
8.000000
10
33.676838
20
52.647182
30
19.890001
11
35.963146
21
52.647182
31
19.890001
12
35.963146
22
50.582390
32
19.890001
13
33.676838
23
50.582390
33
19.890001
0
3DFACE
8
Porte
62
8.000000
10
34.819996
20
53.679581
30
17.910002
11
34.819996
21
53.679581
31
17.910002
12
33.676838
22
52.647182
32
19.890001
13
32.533688
23
52.647182
33
17.910002
0
3DFACE
8
Porte
62
8.000000
10
32.533688
20
52.647182
30
17.910002
11
33.676838
21
52.647182
31
19.890001
12
33.676838
22
50.582390
32
19.890001
13
32.533688
23
50.582390
33
17.910002
0
ENDSEC
0
EOF
