0
SECTION
2
ENTITIES
0
3DFACE
8
CanonD
62
1.000000
10
22.992109
20
12.735688
30
19.392565
11
22.992109
21
12.763338
31
20.172609
12
17.404110
22
12.763338
32
20.172609
13
17.404110
23
12.735688
33
19.392565
0
3DFACE
8
MitrailleuseD
62
2.000000
10
17.106161
20
11.970707
30
19.902245
11
17.106161
21
11.970707
31
18.302246
12
11.622060
22
11.970707
32
18.302246
13
11.622060
23
11.970707
33
19.902245
0
3DFACE
8
MitrailleuseD
62
2.000000
10
11.622060
20
11.970707
30
19.902245
11
11.622060
21
11.970707
31
18.302246
12
11.622060
22
13.570706
32
18.302246
13
11.622060
23
13.570706
33
19.902245
0
3DFACE
8
MitrailleuseD
62
2.000000
10
11.622060
20
13.570706
30
19.902245
11
11.622060
21
13.570706
31
18.302246
12
17.106161
22
13.570706
32
18.302246
13
17.106161
23
13.570706
33
19.902245
0
3DFACE
8
MitrailleuseD
62
2.000000
10
17.106161
20
13.570706
30
19.902245
11
17.106161
21
13.570706
31
18.302246
12
17.106161
22
11.970707
32
18.302246
13
17.106161
23
11.970707
33
19.902245
0
3DFACE
8
MitrailleuseD
62
2.000000
10
17.106161
20
11.970707
30
19.902245
11
11.622060
21
11.970707
31
19.902245
12
11.622060
22
13.570706
32
19.902245
13
17.106161
23
13.570706
33
19.902245
0
3DFACE
8
MitrailleuseD
62
2.000000
10
17.106161
20
13.570706
30
18.302246
11
11.622060
21
13.570706
31
18.302246
12
11.622060
22
11.970707
32
18.302246
13
17.106161
23
11.970707
33
18.302246
0
3DFACE
8
MitSocleD
62
3.000000
10
10.914109
20
13.115702
30
16.541090
11
14.798108
21
13.115702
31
16.817089
12
15.212109
22
13.115702
32
18.301088
13
11.832109
23
13.115702
33
18.301088
0
3DFACE
8
CanonG
62
4.000000
10
17.404110
20
-13.194273
30
19.392565
11
17.404110
21
-13.221924
31
20.172609
12
22.992109
22
-13.221924
32
20.172609
13
22.992109
23
-13.194273
33
19.392565
0
3DFACE
8
MitrailleuseG
62
5.000000
10
11.622060
20
-12.429293
30
19.902245
11
11.622060
21
-12.429293
31
18.302246
12
17.106161
22
-12.429293
32
18.302246
13
17.106161
23
-12.429293
33
19.902245
0
3DFACE
8
MitrailleuseG
62
5.000000
10
11.622060
20
-14.029292
30
19.902245
11
11.622060
21
-14.029292
31
18.302246
12
11.622060
22
-12.429293
32
18.302246
13
11.622060
23
-12.429293
33
19.902245
0
3DFACE
8
MitrailleuseG
62
5.000000
10
17.106161
20
-14.029292
30
19.902245
11
17.106161
21
-14.029292
31
18.302246
12
11.622060
22
-14.029292
32
18.302246
13
11.622060
23
-14.029292
33
19.902245
0
3DFACE
8
MitrailleuseG
62
5.000000
10
17.106161
20
-12.429293
30
19.902245
11
17.106161
21
-12.429293
31
18.302246
12
17.106161
22
-14.029292
32
18.302246
13
17.106161
23
-14.029292
33
19.902245
0
3DFACE
8
MitrailleuseG
62
5.000000
10
17.106161
20
-14.029292
30
19.902245
11
11.622060
21
-14.029292
31
19.902245
12
11.622060
22
-12.429293
32
19.902245
13
17.106161
23
-12.429293
33
19.902245
0
3DFACE
8
MitrailleuseG
62
5.000000
10
17.106161
20
-12.429293
30
18.302246
11
11.622060
21
-12.429293
31
18.302246
12
11.622060
22
-14.029292
32
18.302246
13
17.106161
23
-14.029292
33
18.302246
0
3DFACE
8
MitSocleG
62
6.000000
10
11.832109
20
-13.574286
30
18.301088
11
15.212109
21
-13.574286
31
18.301088
12
14.798108
22
-13.574286
32
16.817089
13
10.914109
23
-13.574286
33
16.541090
0
3DFACE
8
CacheRoueD
62
7.000000
10
12.447363
20
16.086504
30
3.660598
11
17.202763
21
17.602827
31
0.876465
12
20.680353
22
17.023643
32
1.423501
13
21.437086
23
16.086504
33
2.472435
0
3DFACE
8
CacheRoueD
62
7.000000
10
21.437086
20
16.086504
30
2.472435
11
20.680353
21
16.086504
31
4.565882
12
19.029219
22
16.086504
32
5.960941
13
19.029219
23
16.086504
33
5.960941
0
3DFACE
8
CacheRoueD
62
7.000000
10
21.437086
20
16.086504
30
2.472435
11
19.029219
21
16.086504
31
5.960941
12
17.202763
22
16.086504
32
5.960941
13
17.202763
23
16.086504
33
5.960941
0
3DFACE
8
CacheRoueD
62
7.000000
10
21.437086
20
16.086504
30
2.472435
11
17.202763
21
16.086504
31
5.960941
12
12.447363
22
16.086504
32
3.660598
13
12.447363
23
16.086504
33
3.660598
0
3DFACE
8
TubeD1
62
8.000000
10
17.736919
20
15.504745
30
2.355757
11
18.172188
21
15.435689
31
1.660275
12
26.297857
22
3.010357
32
12.462962
13
25.685942
23
3.363647
33
13.027546
0
3DFACE
8
RoueD
62
9.000000
10
14.760195
20
15.915533
30
2.334811
11
20.433607
21
15.915533
31
2.175304
12
19.844967
22
15.915533
32
0.523161
13
19.844967
23
15.915533
33
0.523161
0
3DFACE
8
RoueD
62
9.000000
10
14.760195
20
15.915533
30
2.334811
11
19.844967
21
15.915533
31
0.523161
12
18.397640
22
15.915533
32
-0.467456
13
18.397640
23
15.915533
33
-0.467456
0
3DFACE
8
RoueD
62
9.000000
10
14.760195
20
15.915533
30
2.334811
11
18.397640
21
15.915533
31
-0.467456
12
16.644461
22
15.915533
32
-0.418165
13
16.644461
23
15.915533
33
-0.418165
0
3DFACE
8
RoueD
62
9.000000
10
14.760195
20
15.915533
30
2.334811
11
16.644461
21
15.915533
31
-0.418165
12
15.255080
22
15.915533
32
0.652205
13
15.255080
23
15.915533
33
0.652205
0
3DFACE
8
TubeD2
62
10.000000
10
10.182175
20
1.050487
30
13.498545
11
9.081314
21
1.050487
31
13.569542
12
17.206985
22
15.435689
32
1.660275
13
17.736919
23
15.504745
33
2.355757
0
3DFACE
8
CacheRoueG
62
11.000000
10
21.437086
20
-16.165531
30
2.472435
11
20.680353
21
-17.102669
31
1.423501
12
17.202763
22
-17.681854
32
0.876465
13
12.447363
23
-16.165531
33
3.660598
0
3DFACE
8
CacheRoueG
62
11.000000
10
12.447363
20
-16.165531
30
3.660598
11
17.202763
21
-16.165531
31
5.960941
12
19.029219
22
-16.165531
32
5.960941
13
19.029219
23
-16.165531
33
5.960941
0
3DFACE
8
CacheRoueG
62
11.000000
10
12.447363
20
-16.165531
30
3.660598
11
19.029219
21
-16.165531
31
5.960941
12
20.680353
22
-16.165531
32
4.565882
13
20.680353
23
-16.165531
33
4.565882
0
3DFACE
8
CacheRoueG
62
11.000000
10
12.447363
20
-16.165531
30
3.660598
11
20.680353
21
-16.165531
31
4.565882
12
21.437086
22
-16.165531
32
2.472435
13
21.437086
23
-16.165531
33
2.472435
0
3DFACE
8
TubeG1
62
12.000000
10
25.685942
20
-3.442674
30
13.027546
11
26.297857
21
-3.089384
31
12.462962
12
18.172188
22
-15.514716
32
1.660275
13
17.736919
23
-15.583773
33
2.355757
0
3DFACE
8
TubeG3
62
13.000000
10
17.599281
20
-15.691824
30
5.029806
11
7.401081
21
-15.691824
31
13.568010
12
11.230167
22
-15.722745
32
13.702289
13
19.671991
23
-15.722691
33
5.055639
0
3DFACE
8
RoueG
62
14.000000
10
15.255080
20
-15.994560
30
0.652205
11
16.644461
21
-15.994560
31
-0.418165
12
18.397640
22
-15.994560
32
-0.467456
13
18.397640
23
-15.994560
33
-0.467456
0
3DFACE
8
RoueG
62
14.000000
10
15.255080
20
-15.994560
30
0.652205
11
18.397640
21
-15.994560
31
-0.467456
12
19.844967
22
-15.994560
32
0.523161
13
19.844967
23
-15.994560
33
0.523161
0
3DFACE
8
RoueG
62
14.000000
10
15.255080
20
-15.994560
30
0.652205
11
19.844967
21
-15.994560
31
0.523161
12
20.433607
22
-15.994560
32
2.175304
13
20.433607
23
-15.994560
33
2.175304
0
3DFACE
8
RoueG
62
14.000000
10
15.255080
20
-15.994560
30
0.652205
11
20.433607
21
-15.994560
31
2.175304
12
14.760195
22
-15.994560
32
2.334811
13
14.760195
23
-15.994560
33
2.334811
0
3DFACE
8
TubeG2
62
15.000000
10
17.736919
20
-15.583773
30
2.355757
11
17.206985
21
-15.514716
31
1.660275
12
9.081314
22
-1.129514
32
13.569542
13
10.182175
23
-1.129514
33
13.498545
0
3DFACE
8
HB0
62
16.000000
10
7.847558
20
1.042903
30
13.139484
11
7.847558
21
1.042903
31
9.139484
12
1.056002
22
1.042903
32
9.139484
13
1.056002
23
1.042903
33
13.139484
0
3DFACE
8
HB0
62
16.000000
10
1.056002
20
1.042903
30
13.139484
11
1.056002
21
1.042903
31
9.139484
12
1.056002
22
5.042903
32
9.139484
13
1.056002
23
5.042903
33
13.139484
0
3DFACE
8
HB0
62
16.000000
10
1.056002
20
5.042903
30
13.139484
11
1.056002
21
5.042903
31
9.139484
12
7.847558
22
5.042903
32
9.139484
13
7.847558
23
5.042903
33
13.139484
0
3DFACE
8
HB0
62
16.000000
10
7.847558
20
5.042903
30
13.139484
11
7.847558
21
5.042903
31
9.139484
12
7.847558
22
1.042903
32
9.139484
13
7.847558
23
1.042903
33
13.139484
0
3DFACE
8
HB0
62
16.000000
10
7.847558
20
1.042903
30
13.139484
11
1.056002
21
1.042903
31
13.139484
12
1.056002
22
5.042903
32
13.139484
13
7.847558
23
5.042903
33
13.139484
0
3DFACE
8
HB0
62
16.000000
10
7.847558
20
5.042903
30
9.139484
11
1.056002
21
5.042903
31
9.139484
12
1.056002
22
1.042903
32
9.139484
13
7.847558
23
1.042903
33
9.139484
0
3DFACE
8
HB1
62
17.000000
10
1.056002
20
-0.568851
30
13.139484
11
1.056002
21
-0.568851
31
9.139484
12
7.847558
22
-0.568851
32
9.139484
13
7.847558
23
-0.568851
33
13.139484
0
3DFACE
8
HB1
62
17.000000
10
1.056002
20
-4.568851
30
13.139484
11
1.056002
21
-4.568851
31
9.139484
12
1.056002
22
-0.568851
32
9.139484
13
1.056002
23
-0.568851
33
13.139484
0
3DFACE
8
HB1
62
17.000000
10
7.847558
20
-4.568851
30
13.139484
11
7.847558
21
-4.568851
31
9.139484
12
1.056002
22
-4.568851
32
9.139484
13
1.056002
23
-4.568851
33
13.139484
0
3DFACE
8
HB1
62
17.000000
10
7.847558
20
-0.568851
30
13.139484
11
7.847558
21
-0.568851
31
9.139484
12
7.847558
22
-4.568851
32
9.139484
13
7.847558
23
-4.568851
33
13.139484
0
3DFACE
8
HB1
62
17.000000
10
7.847558
20
-4.568851
30
13.139484
11
1.056002
21
-4.568851
31
13.139484
12
1.056002
22
-0.568851
32
13.139484
13
7.847558
23
-0.568851
33
13.139484
0
3DFACE
8
HB1
62
17.000000
10
7.847558
20
-0.568851
30
9.139484
11
1.056002
21
-0.568851
31
9.139484
12
1.056002
22
-4.568851
32
9.139484
13
7.847558
23
-4.568851
33
9.139484
0
3DFACE
8
HB0a1
62
18.000000
10
-1.244772
20
2.492223
30
11.103544
11
-1.944772
21
3.197402
31
8.935040
12
-0.144772
22
3.197402
32
8.935040
13
0.555228
23
2.492223
33
11.103544
0
3DFACE
8
HB0a4
62
19.000000
10
-1.244772
20
2.515306
30
11.095883
11
-1.944772
21
4.704362
31
11.520077
12
-0.144772
22
4.704362
32
11.520077
13
0.555228
23
2.515306
33
11.095883
0
3DFACE
8
HB0a3
62
20.000000
10
-1.244772
20
2.460126
30
11.090501
11
-1.944772
21
2.004866
31
13.287917
12
-0.144772
22
2.004866
32
13.287917
13
0.555228
23
2.460126
33
11.090501
0
3DFACE
8
HB0a2
62
21.000000
10
-1.244772
20
2.426084
30
11.099227
11
-1.944772
21
0.237026
31
10.588424
12
-0.144772
22
0.237026
32
10.588424
13
0.555228
23
2.426084
33
11.099227
0
3DFACE
8
HB1a1
62
22.000000
10
0.555228
20
-2.018170
30
11.103544
11
-0.144772
21
-2.723349
31
8.935040
12
-1.944772
22
-2.723349
32
8.935040
13
-1.244772
23
-2.018170
33
11.103544
0
3DFACE
8
HB1a4
62
23.000000
10
0.555228
20
-2.041254
30
11.095883
11
-0.144772
21
-4.230309
31
11.520077
12
-1.944772
22
-4.230309
32
11.520077
13
-1.244772
23
-2.041254
33
11.095883
0
3DFACE
8
HB1a3
62
24.000000
10
0.555228
20
-1.986073
30
11.090501
11
-0.144772
21
-1.530814
31
13.287917
12
-1.944772
22
-1.530814
32
13.287917
13
-1.244772
23
-1.986073
33
11.090501
0
3DFACE
8
HB1a2
62
25.000000
10
0.555228
20
-1.952032
30
11.099227
11
-0.144772
21
0.237026
31
10.588424
12
-1.944772
22
0.237026
32
10.588424
13
-1.244772
23
-1.952032
33
11.099227
0
3DFACE
8
Moyeu
62
26.000000
10
32.008770
20
-0.879335
30
19.038973
11
31.942181
21
-1.202617
31
20.243645
12
32.824055
22
-1.202617
32
20.292393
13
32.890648
23
-0.879335
33
19.087725
0
3DFACE
8
Moyeu
62
26.000000
10
31.942181
20
-1.202617
30
20.243645
11
31.893429
21
-0.319392
31
21.125521
12
32.775307
22
-0.319392
32
21.174269
13
32.824055
23
-1.202617
33
20.292393
0
3DFACE
8
Moyeu
62
26.000000
10
31.893429
20
-0.319392
30
21.125521
11
31.911274
21
0.887115
31
20.802731
12
32.793148
22
0.887115
32
20.851479
13
32.775307
23
-0.319392
33
21.174269
0
3DFACE
8
Moyeu
62
26.000000
10
31.911274
20
0.887115
30
20.802731
11
31.977867
21
1.210397
31
19.598061
12
32.859745
22
1.210397
32
19.646812
13
32.793148
23
0.887115
33
20.851479
0
3DFACE
8
Moyeu
62
26.000000
10
31.977867
20
1.210397
30
19.598061
11
32.026615
21
0.327172
31
18.716185
12
32.908497
22
0.327172
32
18.764935
13
32.859745
23
1.210397
33
19.646812
0
3DFACE
8
Moyeu
62
26.000000
10
32.026615
20
0.327172
30
18.716185
11
32.008770
21
-0.879335
31
19.038973
12
32.890648
22
-0.879335
32
19.087725
13
32.908497
23
0.327172
33
18.764935
0
3DFACE
8
Moyeu
62
26.000000
10
32.890648
20
-0.879335
30
19.087725
11
32.824055
21
-1.202617
31
20.292393
12
32.775307
22
-0.319392
32
21.174269
13
32.775307
23
-0.319392
33
21.174269
0
3DFACE
8
Moyeu
62
26.000000
10
32.890648
20
-0.879335
30
19.087725
11
32.775307
21
-0.319392
31
21.174269
12
32.793148
22
0.887115
32
20.851479
13
32.793148
23
0.887115
33
20.851479
0
3DFACE
8
Moyeu
62
26.000000
10
32.890648
20
-0.879335
30
19.087725
11
32.793148
21
0.887115
31
20.851479
12
32.859745
22
1.210397
32
19.646812
13
32.859745
23
1.210397
33
19.646812
0
3DFACE
8
Moyeu
62
26.000000
10
32.890648
20
-0.879335
30
19.087725
11
32.859745
21
1.210397
31
19.646812
12
32.908497
22
0.327172
32
18.764935
13
32.908497
23
0.327172
33
18.764935
0
3DFACE
8
Helice1
62
27.000000
10
31.869730
20
-0.302421
30
29.807123
11
32.243069
21
1.430087
31
29.175928
12
32.549904
22
1.256836
32
21.535122
13
32.549904
23
1.256836
33
21.535122
0
3DFACE
8
Helice1
62
27.000000
10
31.869730
20
-0.302421
30
29.807123
11
32.549904
21
1.256836
31
21.535122
12
32.431767
22
0.563833
32
21.089224
13
32.431767
23
0.563833
33
21.089224
0
3DFACE
8
Helice1
62
27.000000
10
31.869730
20
-0.302421
30
29.807123
11
32.431767
21
0.563833
31
21.089224
12
32.249977
22
-0.302421
32
21.295696
13
32.249977
23
-0.302421
33
21.295696
0
3DFACE
8
Helice1
62
27.000000
10
31.869730
20
-0.302421
30
29.807123
11
31.880047
21
0.044081
31
31.121277
12
32.115749
22
1.083586
32
30.480671
13
32.243069
23
1.430087
33
29.175928
0
3DFACE
8
Helice2
62
28.000000
10
32.657600
20
-1.185646
30
10.959607
11
32.329842
21
-1.012395
31
18.597916
12
32.447060
22
-0.319392
32
19.037619
13
32.447060
23
-0.319392
33
19.037619
0
3DFACE
8
Helice2
62
28.000000
10
32.657600
20
-1.185646
30
10.959607
11
32.447060
21
-0.319392
31
19.037619
12
32.629803
22
0.546862
32
18.823502
13
32.629803
23
0.546862
33
18.823502
0
3DFACE
8
Helice2
62
28.000000
10
32.657600
20
-1.185646
30
10.959607
11
32.629803
21
0.546862
31
18.823502
12
33.033447
22
0.546862
32
10.313153
13
33.033447
23
0.546862
33
10.313153
0
3DFACE
8
Helice2
62
28.000000
10
33.033447
20
0.546862
30
10.313153
11
33.026588
21
0.200361
31
9.002231
12
32.788662
22
-0.839144
32
9.651959
13
32.657600
23
-1.185646
33
10.959607
0
3DFACE
8
Fuselage
62
29.000000
10
-4.713890
20
2.009579
30
14.349823
11
-15.063889
21
0.460295
31
16.390381
12
-15.063889
22
0.065731
32
15.801836
13
-4.713890
23
0.028753
33
13.528367
0
3DFACE
8
Fuselage
62
29.000000
10
-4.713890
20
0.028753
30
13.528367
11
-15.063889
21
0.065731
31
15.801836
12
-15.063889
22
-0.325321
32
16.442450
13
-4.713890
23
-1.934435
33
14.422495
0
3DFACE
8
Fuselage
62
29.000000
10
-4.713890
20
-1.934435
30
14.422495
11
-15.063889
21
-0.325321
31
16.442450
12
-15.063889
22
-0.563490
32
18.067535
13
-4.713890
23
-3.130115
33
16.690680
0
3DFACE
8
Fuselage
62
29.000000
10
-4.713890
20
-3.130115
30
16.690680
11
-15.063889
21
-0.563490
31
18.067535
12
-15.063889
22
-0.557806
32
20.056358
13
-4.713890
23
-3.101576
33
19.466551
0
3DFACE
8
Fuselage
62
29.000000
10
-4.713890
20
-3.101576
30
19.466551
11
-15.063889
21
-0.557806
31
20.056358
12
-15.063889
22
-0.310438
32
21.649263
13
-4.713890
23
-1.859721
33
21.689821
0
3DFACE
8
Fuselage
62
29.000000
10
-4.713890
20
-1.859721
30
21.689821
11
-15.063889
21
-0.310438
31
21.649263
12
-15.063889
22
0.084126
32
22.237812
13
-4.713890
23
0.121105
33
22.511276
0
3DFACE
8
Fuselage
62
29.000000
10
-4.713890
20
0.121105
30
22.511276
11
-15.063889
21
0.084126
31
22.237812
12
-15.063889
22
0.475178
32
21.597195
13
-4.713890
23
2.084293
33
21.617149
0
3DFACE
8
Fuselage
62
29.000000
10
-4.713890
20
2.084293
30
21.617149
11
-15.063889
21
0.475178
31
21.597195
12
-15.063889
22
0.713347
32
19.972113
13
-4.713890
23
3.279972
33
19.348967
0
3DFACE
8
Fuselage
62
29.000000
10
-4.713890
20
3.279972
30
19.348967
11
-15.063889
21
0.713347
31
19.972113
12
-15.063889
22
0.707663
32
17.983288
13
-4.713890
23
3.251434
33
16.573095
0
3DFACE
8
Fuselage
62
29.000000
10
-4.713890
20
3.251434
30
16.573095
11
-15.063889
21
0.707663
31
17.983288
12
-15.063889
22
0.460295
32
16.390381
13
-4.713890
23
2.009579
33
14.349823
0
3DFACE
8
FinFuselage
62
30.000000
10
-15.063889
20
0.065731
30
15.801836
11
-22.843893
21
0.074780
31
16.499077
12
-22.843893
22
0.068469
32
17.000889
13
-15.063889
23
-0.325321
33
16.442450
0
3DFACE
8
FinFuselage
62
30.000000
10
-15.063889
20
-0.325321
30
16.442450
11
-22.843893
21
0.068469
31
17.000889
12
-22.843893
22
0.064626
32
18.273867
13
-15.063889
23
-0.563490
33
18.067535
0
3DFACE
8
FinFuselage
62
30.000000
10
-15.063889
20
-0.563490
30
18.067535
11
-22.843893
21
0.064626
31
18.273867
12
-22.843893
22
0.064717
32
19.831774
13
-15.063889
23
-0.557806
33
20.056358
0
3DFACE
8
FinFuselage
62
30.000000
10
-15.063889
20
-0.557806
30
20.056358
11
-22.843893
21
0.064717
31
19.831774
12
-22.843893
22
0.068709
32
21.079544
13
-15.063889
23
-0.310438
33
21.649263
0
3DFACE
8
FinFuselage
62
30.000000
10
-15.063889
20
-0.310438
30
21.649263
11
-22.843893
21
0.068709
31
21.079544
12
-22.843893
22
0.075077
32
21.540571
13
-15.063889
23
0.084126
33
22.237812
0
3DFACE
8
FinFuselage
62
30.000000
10
-15.063889
20
0.084126
30
22.237812
11
-22.843893
21
0.075077
31
21.540571
12
-22.843893
22
0.081388
32
21.038757
13
-15.063889
23
0.475178
33
21.597195
0
3DFACE
8
FinFuselage
62
30.000000
10
-15.063889
20
0.475178
30
21.597195
11
-22.843893
21
0.081388
31
21.038757
12
-22.843893
22
0.085232
32
19.765779
13
-15.063889
23
0.713347
33
19.972113
0
3DFACE
8
FinFuselage
62
30.000000
10
-15.063889
20
0.713347
30
19.972113
11
-22.843893
21
0.085232
31
19.765779
12
-22.843893
22
0.085140
32
18.207872
13
-15.063889
23
0.707663
33
17.983288
0
3DFACE
8
FinFuselage
62
30.000000
10
-15.063889
20
0.707663
30
17.983288
11
-22.843893
21
0.085140
31
18.207872
12
-22.843893
22
0.081148
32
16.960102
13
-15.063889
23
0.460295
33
16.390381
0
3DFACE
8
FinFuselage
62
30.000000
10
-15.063889
20
0.460295
30
16.390381
11
-22.843893
21
0.081148
31
16.960102
12
-22.843893
22
0.074780
32
16.499077
13
-15.063889
23
0.065731
33
15.801836
0
3DFACE
8
Capot
62
31.000000
10
15.286110
20
-2.631751
30
14.400219
11
15.286110
21
-4.242371
31
16.682449
12
28.156235
22
-5.325071
32
16.948086
13
17.686110
23
-2.631751
33
9.200217
0
3DFACE
8
Capot
62
31.000000
10
15.286110
20
-4.242371
30
16.682449
11
15.286110
21
-4.203929
31
19.475510
12
28.156235
22
-5.276989
32
20.974455
13
28.156235
23
-5.325071
33
16.948086
0
3DFACE
8
Capot
62
31.000000
10
15.286110
20
-4.203929
30
19.475510
11
15.286110
21
-2.531109
31
21.712547
12
28.156235
22
-3.681834
32
24.199280
13
28.156235
23
-5.276989
33
20.974455
0
3DFACE
8
Capot
62
31.000000
10
15.286110
20
-2.531109
30
21.712547
11
15.286110
21
0.137129
31
22.539089
12
28.156235
22
0.164595
32
24.514166
13
28.156235
23
-3.681834
33
24.199280
0
3DFACE
8
Capot
62
31.000000
10
15.286110
20
0.137129
30
22.539089
11
15.286110
21
2.781609
31
21.639425
12
28.156235
22
3.976774
32
24.093870
13
28.156235
23
0.164595
33
24.514166
0
3DFACE
8
Capot
62
31.000000
10
15.286110
20
2.781609
30
21.639425
11
15.286110
21
4.392228
31
19.357197
12
28.156235
22
5.474928
32
20.803898
13
28.156235
23
3.976774
33
24.093870
0
3DFACE
8
Capot
62
31.000000
10
15.286110
20
4.392228
30
19.357197
11
15.286110
21
4.353786
31
16.564137
12
28.156235
22
5.426847
32
16.777531
13
28.156235
23
5.474928
33
20.803898
0
3DFACE
8
Capot
62
31.000000
10
15.286110
20
4.353786
30
16.564137
11
15.286110
21
2.680967
31
14.327097
12
17.686110
22
2.680967
32
9.127098
13
28.156235
23
5.426847
33
16.777531
0
3DFACE
8
Capot
62
31.000000
10
15.286110
20
2.680967
30
14.327097
11
15.286110
21
0.012729
31
13.500555
12
17.686110
22
0.012729
32
9.100555
13
17.686110
23
2.680967
33
9.127098
0
3DFACE
8
Capot
62
31.000000
10
15.286110
20
0.012729
30
13.500555
11
15.286110
21
-2.631751
31
14.400219
12
17.686110
22
-2.631751
32
9.200217
13
17.686110
23
0.012729
33
9.100555
0
3DFACE
8
Capot
62
31.000000
10
17.686110
20
-2.631751
30
9.200217
11
28.156235
21
-5.325071
31
16.948086
12
30.751043
22
-4.627386
32
17.419353
13
26.686110
23
-1.970118
33
10.985011
0
3DFACE
8
Capot
62
31.000000
10
28.156235
20
-5.325071
30
16.948086
11
28.156235
21
-5.276989
31
20.974455
12
30.751043
22
-4.585515
32
20.461494
13
30.751043
23
-4.627386
33
17.419353
0
3DFACE
8
Capot
62
31.000000
10
28.156235
20
-5.276989
30
20.974455
11
28.156235
21
-3.681834
31
24.199280
12
30.751043
22
-2.763514
32
22.898033
13
30.751043
23
-4.585515
33
20.461494
0
3DFACE
8
Capot
62
31.000000
10
28.156235
20
-3.681834
30
24.199280
11
28.156235
21
0.164595
31
24.514166
12
30.751043
22
0.142676
32
23.798286
13
30.751043
23
-2.763514
33
22.898033
0
3DFACE
8
Capot
62
31.000000
10
28.156235
20
0.164595
30
24.514166
11
28.156235
21
3.976774
31
24.093870
12
30.751043
22
3.022990
32
22.818388
13
30.751043
23
0.142676
33
23.798286
0
3DFACE
8
Capot
62
31.000000
10
28.156235
20
3.976774
30
24.093870
11
28.156235
21
5.474928
31
20.803898
12
30.751043
22
4.777243
32
20.332630
13
30.751043
23
3.022990
33
22.818388
0
3DFACE
8
Capot
62
31.000000
10
28.156235
20
5.474928
30
20.803898
11
28.156235
21
5.426847
31
16.777531
12
30.751043
22
4.735374
32
17.290489
13
30.751043
23
4.777243
33
20.332630
0
3DFACE
8
Capot
62
31.000000
10
28.156235
20
5.426847
30
16.777531
11
17.686110
21
2.680967
31
9.127098
12
26.686110
22
2.043935
32
10.929764
13
30.751043
23
4.735374
33
17.290489
0
3DFACE
8
Capot
62
31.000000
10
17.686110
20
2.680967
30
9.127098
11
17.686110
21
0.012729
31
9.100555
12
26.686110
22
0.027933
32
11.105267
13
26.686110
23
2.043935
33
10.929764
0
3DFACE
8
Capot
62
31.000000
10
17.686110
20
0.012729
30
9.100555
11
17.686110
21
-2.631751
31
9.200217
12
26.686110
22
-1.970118
32
10.985011
13
26.686110
23
0.027933
33
11.105267
0
3DFACE
8
Capot
62
31.000000
10
26.686110
20
-1.970118
30
10.985011
11
30.751043
21
-4.627386
31
17.419353
12
31.615980
22
-2.829442
32
17.976301
13
31.615976
23
-1.745932
33
16.440981
0
3DFACE
8
Capot
62
31.000000
10
30.751043
20
-4.627386
30
17.419353
11
30.751043
21
-4.585515
31
20.461494
12
31.615980
22
-2.803581
32
19.855270
13
31.615980
23
-2.829442
33
17.976301
0
3DFACE
8
Capot
62
31.000000
10
30.751043
20
-4.585515
30
20.461494
11
30.751043
21
-2.763514
31
22.898033
12
31.615980
22
-1.678227
32
21.360193
13
31.615980
23
-2.803581
33
19.855270
0
3DFACE
8
Capot
62
31.000000
10
30.751043
20
-2.763514
30
22.898033
11
30.751043
21
0.142676
31
23.798286
12
31.615980
22
0.116773
32
21.916233
13
31.615980
23
-1.678227
33
21.360193
0
3DFACE
8
Capot
62
31.000000
10
30.751043
20
0.142676
30
23.798286
11
30.751043
21
3.022990
31
22.818388
12
31.615980
22
1.895789
32
21.311001
13
31.615980
23
0.116773
33
21.916233
0
3DFACE
8
Capot
62
31.000000
10
30.751043
20
3.022990
30
22.818388
11
30.751043
21
4.777243
31
20.332630
12
31.615980
22
2.979299
32
19.775681
13
31.615980
23
1.895789
33
21.311001
0
3DFACE
8
Capot
62
31.000000
10
30.751043
20
4.777243
30
20.332630
11
30.751043
21
4.735374
31
17.290489
12
31.615980
22
2.953438
32
17.896711
13
31.615980
23
2.979299
33
19.775681
0
3DFACE
8
Capot
62
31.000000
10
30.751043
20
4.735374
30
17.290489
11
26.686110
21
2.043935
31
10.929764
12
31.615986
22
1.828085
32
16.391792
13
31.615980
23
2.953438
33
17.896711
0
3DFACE
8
Capot
62
31.000000
10
26.686110
20
2.043935
30
10.929764
11
26.686110
21
0.027933
31
11.105267
12
31.615986
22
0.033085
32
15.835752
13
31.615986
23
1.828085
33
16.391792
0
3DFACE
8
Capot
62
31.000000
10
26.686110
20
0.027933
30
11.105267
11
26.686110
21
-1.970118
31
10.985011
12
31.615976
22
-1.745932
32
16.440981
13
31.615986
23
0.033085
33
15.835752
0
3DFACE
8
Capot
62
31.000000
10
31.615976
20
-1.745932
30
16.440981
11
31.615980
21
-2.829442
31
17.976301
12
31.615980
22
-2.803581
32
19.855270
13
31.615980
23
-2.803581
33
19.855270
0
3DFACE
8
Capot
62
31.000000
10
31.615976
20
-1.745932
30
16.440981
11
31.615980
21
-2.803581
31
19.855270
12
31.615980
22
-1.678227
32
21.360193
13
31.615980
23
-1.678227
33
21.360193
0
3DFACE
8
Capot
62
31.000000
10
31.615976
20
-1.745932
30
16.440981
11
31.615980
21
-1.678227
31
21.360193
12
31.615980
22
0.116773
32
21.916233
13
31.615980
23
0.116773
33
21.916233
0
3DFACE
8
Capot
62
31.000000
10
31.615976
20
-1.745932
30
16.440981
11
31.615980
21
0.116773
31
21.916233
12
31.615980
22
1.895789
32
21.311001
13
31.615980
23
1.895789
33
21.311001
0
3DFACE
8
Capot
62
31.000000
10
31.615976
20
-1.745932
30
16.440981
11
31.615980
21
1.895789
31
21.311001
12
31.615980
22
2.979299
32
19.775681
13
31.615980
23
2.979299
33
19.775681
0
3DFACE
8
Capot
62
31.000000
10
31.615976
20
-1.745932
30
16.440981
11
31.615980
21
2.979299
31
19.775681
12
31.615980
22
2.953438
32
17.896711
13
31.615980
23
2.953438
33
17.896711
0
3DFACE
8
Capot
62
31.000000
10
31.615976
20
-1.745932
30
16.440981
11
31.615980
21
2.953438
31
17.896711
12
31.615986
22
1.828085
32
16.391792
13
31.615986
23
1.828085
33
16.391792
0
3DFACE
8
Capot
62
31.000000
10
31.615976
20
-1.745932
30
16.440981
11
31.615986
21
1.828085
31
16.391792
12
31.615986
22
0.033085
32
15.835752
13
31.615986
23
0.033085
33
15.835752
0
3DFACE
8
Cockpit
62
32.000000
10
-4.713890
20
2.084291
30
21.617149
11
-4.713890
21
3.279970
31
19.348967
12
15.286110
22
4.392228
32
19.357197
13
15.286110
23
2.781609
33
21.639425
0
3DFACE
8
Cockpit
62
32.000000
10
-4.713890
20
3.279970
30
19.348967
11
-4.713890
21
3.251433
31
16.573095
12
15.286110
22
4.353785
32
16.564137
13
15.286110
23
4.392228
33
19.357197
0
3DFACE
8
Cockpit
62
32.000000
10
-4.713890
20
3.251433
30
16.573095
11
-4.713890
21
2.009579
31
14.349823
12
15.286110
22
2.680968
32
14.327097
13
15.286110
23
4.353785
33
16.564137
0
3DFACE
8
Cockpit
62
32.000000
10
-4.713890
20
2.009579
30
14.349823
11
-4.713890
21
0.028754
31
13.528367
12
15.286110
22
0.012728
32
13.500555
13
15.286110
23
2.680968
33
14.327097
0
3DFACE
8
Cockpit
62
32.000000
10
-4.713890
20
0.028754
30
13.528367
11
-4.713890
21
-1.934436
31
14.422495
12
15.286110
22
-2.631750
32
14.400219
13
15.286110
23
0.012728
33
13.500555
0
3DFACE
8
Cockpit
62
32.000000
10
-4.713890
20
-1.934436
30
14.422495
11
-4.713890
21
-3.130115
31
16.690680
12
15.286110
22
-4.242373
32
16.682449
13
15.286110
23
-2.631750
33
14.400219
0
3DFACE
8
Cockpit
62
32.000000
10
-4.713890
20
-3.130115
30
16.690680
11
-4.713890
21
-3.101578
31
19.466551
12
15.286110
22
-4.203929
32
19.475510
13
15.286110
23
-4.242373
33
16.682449
0
3DFACE
8
Cockpit
62
32.000000
10
-4.713890
20
-3.101578
30
19.466551
11
-4.713890
21
-1.859720
31
21.689821
12
15.286110
22
-2.531109
32
21.712547
13
15.286110
23
-4.203929
33
19.475510
0
3DFACE
8
Cockpit
62
32.000000
10
-4.713890
20
0.121105
30
22.511276
11
-3.443808
21
0.136802
31
23.215269
12
-1.843808
22
-1.712845
32
21.942301
13
-1.843808
23
-1.712845
33
21.942301
0
3DFACE
8
Cockpit
62
32.000000
10
6.416028
20
-1.712845
30
21.953737
11
6.416028
21
0.136961
31
22.926754
12
15.286110
22
0.137131
32
22.539089
13
15.286110
23
0.137131
33
22.539089
0
3DFACE
8
Cockpit
62
32.000000
10
6.416028
20
-1.712845
30
21.953737
11
15.286110
21
0.137131
31
22.539089
12
15.286110
22
-2.531109
32
21.712547
13
15.286110
23
-2.531109
33
21.712547
0
3DFACE
8
Cockpit
62
32.000000
10
6.416028
20
-1.712845
30
21.953737
11
15.286110
21
-2.531109
31
21.712547
12
-4.713890
22
-1.859720
32
21.689821
13
-4.713890
23
-1.859720
33
21.689821
0
3DFACE
8
Cockpit
62
32.000000
10
-4.713890
20
-1.859720
30
21.689821
11
-4.713890
21
0.121105
31
22.511276
12
-1.843808
22
-1.712845
32
21.942301
13
-1.843808
23
-1.712845
33
21.942301
0
3DFACE
8
Cockpit
62
32.000000
10
-1.843808
20
-1.712845
30
21.942301
11
6.416028
21
-1.712845
31
21.953737
12
-4.713890
22
-1.859720
32
21.689821
13
-4.713890
23
-1.859720
33
21.689821
0
3DFACE
8
Cockpit
62
32.000000
10
15.286110
20
0.137131
30
22.539089
11
6.416028
21
0.136961
31
22.926754
12
6.416028
22
1.986340
32
21.897587
13
6.416028
23
1.986340
33
21.897587
0
3DFACE
8
Cockpit
62
32.000000
10
-1.843808
20
1.986340
30
21.886045
11
-3.443808
21
0.136802
31
23.215269
12
-4.713890
22
0.121105
32
22.511276
13
-4.713890
23
0.121105
33
22.511276
0
3DFACE
8
Cockpit
62
32.000000
10
-1.843808
20
1.986340
30
21.886045
11
-4.713890
21
0.121105
31
22.511276
12
-4.713890
22
2.084291
32
21.617149
13
-4.713890
23
2.084291
33
21.617149
0
3DFACE
8
Cockpit
62
32.000000
10
-1.843808
20
1.986340
30
21.886045
11
-4.713890
21
2.084291
31
21.617149
12
15.286110
22
2.781609
32
21.639425
13
15.286110
23
2.781609
33
21.639425
0
3DFACE
8
Cockpit
62
32.000000
10
15.286110
20
2.781609
30
21.639425
11
15.286110
21
0.137131
31
22.539089
12
6.416028
22
1.986340
32
21.897587
13
6.416028
23
1.986340
33
21.897587
0
3DFACE
8
Cockpit
62
32.000000
10
6.416028
20
1.986340
30
21.897587
11
-1.843808
21
1.986340
31
21.886045
12
15.286110
22
2.781609
32
21.639425
13
15.286110
23
2.781609
33
21.639425
0
3DFACE
8
RoueArriere
62
33.000000
10
-22.344744
20
-1.032266
30
13.082889
11
-22.221775
21
-1.032266
31
13.683824
12
-22.415745
22
-1.032266
32
14.265731
13
-22.415745
23
-1.032266
33
14.265731
0
3DFACE
8
RoueArriere
62
33.000000
10
-22.344744
20
-1.032266
30
13.082889
11
-22.415745
21
-1.032266
31
14.265731
12
-22.874685
22
-1.032266
32
14.672689
13
-22.874685
23
-1.032266
33
14.672689
0
3DFACE
8
RoueArriere
62
33.000000
10
-22.344744
20
-1.032266
30
13.082889
11
-22.874685
21
-1.032266
31
14.672689
12
-23.475613
22
-1.032266
32
14.795663
13
-23.475613
23
-1.032266
33
14.795663
0
3DFACE
8
RoueArriere
62
33.000000
10
-22.344744
20
-1.032266
30
13.082889
11
-23.475613
21
-1.032266
31
14.795663
12
-24.057520
22
-1.032266
32
14.601690
13
-24.057520
23
-1.032266
33
14.601690
0
3DFACE
8
RoueArriere
62
33.000000
10
-22.344744
20
-1.032266
30
13.082889
11
-24.057520
21
-1.032266
31
14.601690
12
-24.464483
22
-1.032266
32
14.142756
13
-24.464483
23
-1.032266
33
14.142756
0
3DFACE
8
RoueArriere
62
33.000000
10
-22.344744
20
-1.032266
30
13.082889
11
-24.464483
21
-1.032266
31
14.142756
12
-24.587448
22
-1.032266
32
13.541822
13
-24.587448
23
-1.032266
33
13.541822
0
3DFACE
8
RoueArriere
62
33.000000
10
-22.344744
20
-1.032266
30
13.082889
11
-24.587448
21
-1.032266
31
13.541822
12
-24.393484
22
-1.032266
32
12.959915
13
-24.393484
23
-1.032266
33
12.959915
0
3DFACE
8
RoueArriere
62
33.000000
10
-22.344744
20
-1.032266
30
13.082889
11
-24.393484
21
-1.032266
31
12.959915
12
-23.934546
22
-1.032266
32
12.552957
13
-23.934546
23
-1.032266
33
12.552957
0
3DFACE
8
RoueArriere
62
33.000000
10
-22.344744
20
-1.032266
30
13.082889
11
-23.934546
21
-1.032266
31
12.552957
12
-23.333614
22
-1.032266
32
12.429981
13
-23.333614
23
-1.032266
33
12.429981
0
3DFACE
8
RoueArriere
62
33.000000
10
-22.344744
20
-1.032266
30
13.082889
11
-23.333614
21
-1.032266
31
12.429981
12
-22.751709
22
-1.032266
32
12.623954
13
-22.751709
23
-1.032266
33
12.623954
0
3DFACE
8
RouePied
62
34.000000
10
-23.759262
20
-1.034960
30
13.466611
11
-22.172577
21
0.715183
31
13.470674
12
-21.976149
22
0.476783
32
13.896086
13
-23.520330
23
-1.074782
33
13.933215
0
3DFACE
8
RouePied
62
34.000000
10
-22.172577
20
0.715183
30
13.470674
11
-19.124815
21
-0.053279
31
16.112635
12
-19.879801
22
-0.445209
32
16.112635
13
-21.976149
23
0.476783
33
13.896086
0
3DFACE
8
Gouvernail
62
35.000000
10
-9.423221
20
0.018308
30
22.457544
11
-23.093481
21
0.005881
31
34.804398
12
-22.843893
22
0.075077
32
21.540571
13
-22.843893
23
0.075077
33
21.540571
0
3DFACE
8
Empenage
62
36.000000
10
-23.093481
20
0.005881
30
34.804398
11
-28.749519
21
0.005881
31
30.929468
12
-31.866098
22
0.005881
32
26.310844
13
-31.866098
23
0.005881
33
26.310844
0
3DFACE
8
Empenage
62
36.000000
10
-23.093481
20
0.005881
30
34.804398
11
-31.866098
21
0.005881
31
26.310844
12
-31.367287
22
0.005881
32
19.398338
13
-31.367287
23
0.005881
33
19.398338
0
3DFACE
8
Empenage
62
36.000000
10
-23.093481
20
0.005881
30
34.804398
11
-31.367287
21
0.005881
31
19.398338
12
-22.843893
22
0.074780
32
16.499077
13
-22.843893
23
0.074780
33
16.499077
0
3DFACE
8
AileronD
62
37.000000
10
-22.915298
20
1.076760
30
21.804804
11
-24.348019
21
1.558839
31
21.327070
12
-27.476839
22
5.586537
32
21.327070
13
-27.476839
23
5.586537
33
21.327070
0
3DFACE
8
AileronD
62
37.000000
10
-22.915298
20
1.076760
30
21.804804
11
-27.476839
21
5.586537
31
21.327070
12
-28.106932
22
8.387263
32
21.327070
13
-28.106932
23
8.387263
33
21.327070
0
3DFACE
8
AileronD
62
37.000000
10
-22.915298
20
1.076760
30
21.804804
11
-28.106932
21
8.387263
31
21.327070
12
-26.547888
22
13.117490
32
21.327070
13
-26.547888
23
13.117490
33
21.327070
0
3DFACE
8
AileronD
62
37.000000
10
-22.915298
20
1.076760
30
21.804804
11
-26.547888
21
13.117490
31
21.327070
12
-22.965048
22
15.166714
32
21.327070
13
-22.965048
23
15.166714
33
21.327070
0
3DFACE
8
AileronD
62
37.000000
10
-22.915298
20
1.076760
30
21.804804
11
-22.965048
21
15.166714
31
21.327070
12
-18.700687
22
14.819185
32
21.372269
13
-18.700687
23
14.819185
33
21.372269
0
3DFACE
8
AileronD
62
37.000000
10
-22.915298
20
1.076760
30
21.804804
11
-18.700687
21
14.819185
31
21.372269
12
-14.879436
22
11.335104
32
21.372269
13
-14.879436
23
11.335104
33
21.372269
0
3DFACE
8
AileronD
62
37.000000
10
-22.915298
20
1.076760
30
21.804804
11
-14.879436
21
11.335104
31
21.372269
12
-12.406863
22
6.052785
32
21.372269
13
-12.406863
23
6.052785
33
21.372269
0
3DFACE
8
AileronD
62
37.000000
10
-22.915298
20
1.076760
30
21.804804
11
-12.406863
21
6.052785
31
21.372269
12
-11.170574
22
0.658077
32
21.372269
13
-11.170574
23
0.658077
33
21.372269
0
3DFACE
8
AileronG
62
38.000000
10
-22.915298
20
-0.931969
30
21.327070
11
-24.348019
21
-1.414048
31
21.804804
12
-27.476839
22
-5.441746
32
21.804804
13
-27.476839
23
-5.441746
33
21.804804
0
3DFACE
8
AileronG
62
38.000000
10
-22.915298
20
-0.931969
30
21.327070
11
-27.476839
21
-5.441746
31
21.804804
12
-28.106932
22
-8.242473
32
21.804804
13
-28.106932
23
-8.242473
33
21.804804
0
3DFACE
8
AileronG
62
38.000000
10
-22.915298
20
-0.931969
30
21.327070
11
-28.106932
21
-8.242473
31
21.804804
12
-26.547888
22
-12.972699
32
21.804804
13
-26.547888
23
-12.972699
33
21.804804
0
3DFACE
8
AileronG
62
38.000000
10
-22.915298
20
-0.931969
30
21.327070
11
-26.547888
21
-12.972699
31
21.804804
12
-22.965048
22
-15.021923
32
21.804802
13
-22.965048
23
-15.021923
33
21.804802
0
3DFACE
8
AileronG
62
38.000000
10
-22.915298
20
-0.931969
30
21.327070
11
-22.965048
21
-15.021923
31
21.804802
12
-18.700687
22
-14.674395
32
21.759605
13
-18.700687
23
-14.674395
33
21.759605
0
3DFACE
8
AileronG
62
38.000000
10
-22.915298
20
-0.931969
30
21.327070
11
-18.700687
21
-14.674395
31
21.759605
12
-14.879436
22
-11.190313
32
21.759605
13
-14.879436
23
-11.190313
33
21.759605
0
3DFACE
8
AileronG
62
38.000000
10
-22.915298
20
-0.931969
30
21.327070
11
-14.879436
21
-11.190313
31
21.759605
12
-12.406863
22
-5.907995
32
21.759605
13
-12.406863
23
-5.907995
33
21.759605
0
3DFACE
8
AileronG
62
38.000000
10
-22.915298
20
-0.931969
30
21.327070
11
-12.406863
21
-5.907995
31
21.759605
12
-11.170574
22
-0.513286
32
21.759607
13
-11.170574
23
-0.513286
33
21.759607
0
3DFACE
8
Tete
62
39.000000
10
-0.181117
20
0.234952
30
30.298788
11
-0.181117
21
0.234952
31
30.298788
12
-2.783270
22
0.234952
32
29.220942
13
-2.021117
23
2.074952
33
29.220942
0
3DFACE
8
Tete
62
39.000000
10
-2.021117
20
2.074952
30
29.220942
11
-2.783270
21
0.234952
31
29.220942
12
-3.861117
22
0.234952
32
26.618788
13
-2.783270
23
2.837105
33
26.618788
0
3DFACE
8
Tete
62
39.000000
10
-2.783270
20
2.837105
30
26.618788
11
-3.861117
21
0.234952
31
26.618788
12
-2.783270
22
0.234952
32
24.016634
13
-2.021117
23
2.074952
33
24.016634
0
3DFACE
8
Tete
62
39.000000
10
-2.021117
20
2.074952
30
24.016634
11
-2.783270
21
0.234952
31
24.016634
12
-0.181117
22
0.234952
32
22.938787
13
-0.181117
23
0.234952
33
22.938787
0
3DFACE
8
Tete
62
39.000000
10
-0.181117
20
0.234952
30
30.298788
11
-0.181117
21
0.234952
31
30.298788
12
-2.021117
22
2.074952
32
29.220942
13
-0.181117
23
2.837105
33
29.220942
0
3DFACE
8
Tete
62
39.000000
10
-0.181117
20
2.837105
30
29.220942
11
-2.021117
21
2.074952
31
29.220942
12
-2.783270
22
2.837105
32
26.618788
13
-0.181117
23
3.914952
33
26.618788
0
3DFACE
8
Tete
62
39.000000
10
-0.181117
20
3.914952
30
26.618788
11
-2.783270
21
2.837105
31
26.618788
12
-2.021117
22
2.074952
32
24.016634
13
-0.181117
23
2.837105
33
24.016634
0
3DFACE
8
Tete
62
39.000000
10
-0.181117
20
2.837105
30
24.016634
11
-2.021117
21
2.074952
31
24.016634
12
-0.181117
22
0.234952
32
22.938787
13
-0.181117
23
0.234952
33
22.938787
0
3DFACE
8
Tete
62
39.000000
10
-0.181117
20
0.234952
30
30.298788
11
-0.181117
21
0.234952
31
30.298788
12
-0.181117
22
2.837105
32
29.220942
13
1.658883
23
2.074952
33
29.220942
0
3DFACE
8
Tete
62
39.000000
10
1.658883
20
2.074952
30
29.220942
11
-0.181117
21
2.837105
31
29.220942
12
-0.181117
22
3.914952
32
26.618788
13
2.421036
23
2.837105
33
26.618788
0
3DFACE
8
Tete
62
39.000000
10
2.421036
20
2.837105
30
26.618788
11
-0.181117
21
3.914952
31
26.618788
12
-0.181117
22
2.837105
32
24.016634
13
1.658883
23
2.074952
33
24.016634
0
3DFACE
8
Tete
62
39.000000
10
1.658883
20
2.074952
30
24.016634
11
-0.181117
21
2.837105
31
24.016634
12
-0.181117
22
0.234952
32
22.938787
13
-0.181117
23
0.234952
33
22.938787
0
3DFACE
8
Tete
62
39.000000
10
-0.181117
20
0.234952
30
30.298788
11
-0.181117
21
0.234952
31
30.298788
12
1.658883
22
2.074952
32
29.220942
13
2.421036
23
0.234952
33
29.220942
0
3DFACE
8
Tete
62
39.000000
10
2.421036
20
0.234952
30
29.220942
11
1.658883
21
2.074952
31
29.220942
12
2.421036
22
2.837105
32
26.618788
13
3.498883
23
0.234952
33
26.618788
0
3DFACE
8
Tete
62
39.000000
10
3.498883
20
0.234952
30
26.618788
11
2.421036
21
2.837105
31
26.618788
12
1.658883
22
2.074952
32
24.016634
13
2.421036
23
0.234952
33
24.016634
0
3DFACE
8
Tete
62
39.000000
10
2.421036
20
0.234952
30
24.016634
11
1.658883
21
2.074952
31
24.016634
12
-0.181117
22
0.234952
32
22.938787
13
-0.181117
23
0.234952
33
22.938787
0
3DFACE
8
Tete
62
39.000000
10
-0.181117
20
0.234952
30
30.298788
11
-0.181117
21
0.234952
31
30.298788
12
2.421036
22
0.234952
32
29.220942
13
1.658883
23
-1.605048
33
29.220942
0
3DFACE
8
Tete
62
39.000000
10
1.658883
20
-1.605048
30
29.220942
11
2.421036
21
0.234952
31
29.220942
12
3.498883
22
0.234952
32
26.618788
13
2.421036
23
-2.367201
33
26.618788
0
3DFACE
8
Tete
62
39.000000
10
2.421036
20
-2.367201
30
26.618788
11
3.498883
21
0.234952
31
26.618788
12
2.421036
22
0.234952
32
24.016634
13
1.658883
23
-1.605048
33
24.016634
0
3DFACE
8
Tete
62
39.000000
10
1.658883
20
-1.605048
30
24.016634
11
2.421036
21
0.234952
31
24.016634
12
-0.181117
22
0.234952
32
22.938787
13
-0.181117
23
0.234952
33
22.938787
0
3DFACE
8
Tete
62
39.000000
10
-0.181117
20
0.234952
30
30.298788
11
-0.181117
21
0.234952
31
30.298788
12
1.658883
22
-1.605048
32
29.220942
13
-0.181117
23
-2.367201
33
29.220942
0
3DFACE
8
Tete
62
39.000000
10
-0.181117
20
-2.367201
30
29.220942
11
1.658883
21
-1.605048
31
29.220942
12
2.421036
22
-2.367201
32
26.618788
13
-0.181117
23
-3.445048
33
26.618788
0
3DFACE
8
Tete
62
39.000000
10
-0.181117
20
-3.445048
30
26.618788
11
2.421036
21
-2.367201
31
26.618788
12
1.658883
22
-1.605048
32
24.016634
13
-0.181117
23
-2.367201
33
24.016634
0
3DFACE
8
Tete
62
39.000000
10
-0.181117
20
-2.367201
30
24.016634
11
1.658883
21
-1.605048
31
24.016634
12
-0.181117
22
0.234952
32
22.938787
13
-0.181117
23
0.234952
33
22.938787
0
3DFACE
8
Tete
62
39.000000
10
-0.181117
20
0.234952
30
30.298788
11
-0.181117
21
0.234952
31
30.298788
12
-0.181117
22
-2.367201
32
29.220942
13
-2.021116
23
-1.605048
33
29.220942
0
3DFACE
8
Tete
62
39.000000
10
-2.021116
20
-1.605048
30
29.220942
11
-0.181117
21
-2.367201
31
29.220942
12
-0.181117
22
-3.445048
32
26.618788
13
-2.783270
23
-2.367201
33
26.618788
0
3DFACE
8
Tete
62
39.000000
10
-2.783270
20
-2.367201
30
26.618788
11
-0.181117
21
-3.445048
31
26.618788
12
-0.181117
22
-2.367201
32
24.016634
13
-2.021116
23
-1.605048
33
24.016634
0
3DFACE
8
Tete
62
39.000000
10
-2.021116
20
-1.605048
30
24.016634
11
-0.181117
21
-2.367201
31
24.016634
12
-0.181117
22
0.234952
32
22.938787
13
-0.181117
23
0.234952
33
22.938787
0
3DFACE
8
Tete
62
39.000000
10
-0.181117
20
0.234952
30
30.298788
11
-0.181117
21
0.234952
31
30.298788
12
-2.021116
22
-1.605048
32
29.220942
13
-2.783270
23
0.234952
33
29.220942
0
3DFACE
8
Tete
62
39.000000
10
-2.783270
20
0.234952
30
29.220942
11
-2.021116
21
-1.605048
31
29.220942
12
-2.783270
22
-2.367201
32
26.618788
13
-3.861117
23
0.234952
33
26.618788
0
3DFACE
8
Tete
62
39.000000
10
-3.861117
20
0.234952
30
26.618788
11
-2.783270
21
-2.367201
31
26.618788
12
-2.021116
22
-1.605048
32
24.016634
13
-2.783270
23
0.234952
33
24.016634
0
3DFACE
8
Tete
62
39.000000
10
-2.783270
20
0.234952
30
24.016634
11
-2.021116
21
-1.605048
31
24.016634
12
-0.181117
22
0.234952
32
22.938787
13
-0.181117
23
0.234952
33
22.938787
0
3DFACE
8
AileG1
62
40.000000
10
22.870623
20
-3.342360
30
15.354080
11
21.268183
21
-28.742359
31
15.178564
12
18.648476
22
-49.642361
32
15.531361
13
18.648476
23
-49.642361
33
15.531361
0
3DFACE
8
AileG1
62
40.000000
10
22.870623
20
-3.342360
30
15.354080
11
18.648476
21
-49.642361
31
15.531361
12
14.414050
22
-50.742359
32
15.224722
13
14.414050
23
-50.742359
33
15.224722
0
3DFACE
8
AileG1
62
40.000000
10
22.870623
20
-3.342360
30
15.354080
11
14.414050
21
-50.742359
31
15.224722
12
9.497453
22
-39.842358
32
14.901364
13
9.497453
23
-39.842358
33
14.901364
0
3DFACE
8
AileG1
62
40.000000
10
22.870623
20
-3.342360
30
15.354080
11
9.497453
21
-39.842358
31
14.901364
12
6.143362
22
-29.042355
32
14.554486
13
6.143362
23
-29.042355
33
14.554486
0
3DFACE
8
AileG1
62
40.000000
10
22.870623
20
-3.342360
30
15.354080
11
6.143362
21
-29.042355
31
14.554486
12
4.443362
22
-8.454544
32
14.554486
13
4.443362
23
-8.454544
33
14.554486
0
3DFACE
8
AileG1
62
40.000000
10
22.870623
20
-3.342360
30
15.354080
11
4.443362
21
-8.454544
31
14.554486
12
2.770624
22
-3.342360
32
14.223885
13
2.770624
23
-3.342360
33
14.223885
0
3DFACE
8
TubeD3
62
41.000000
10
19.671991
20
15.643663
30
5.055639
11
11.230167
21
15.643718
31
13.702289
12
7.401081
22
15.612797
32
13.568010
13
17.599281
23
15.612797
33
5.029806
0
3DFACE
8
AileD1
62
42.000000
10
22.863842
20
3.017639
30
15.388622
11
21.251915
21
28.417637
31
15.406226
12
18.679405
22
49.317642
32
14.798349
13
18.679405
23
49.317642
33
14.798349
0
3DFACE
8
AileD1
62
42.000000
10
22.863842
20
3.017639
30
15.388622
11
18.679405
21
49.317642
31
14.798349
12
14.435311
22
50.417641
32
14.688465
13
14.435311
23
50.417641
33
14.688465
0
3DFACE
8
AileD1
62
42.000000
10
22.863842
20
3.017639
30
15.388622
11
14.435311
21
50.417641
31
14.688465
12
9.510694
22
39.517639
32
14.528356
13
9.510694
23
39.517639
33
14.528356
0
3DFACE
8
AileD1
62
42.000000
10
22.863842
20
3.017639
30
15.388622
11
9.510694
21
39.517639
31
14.528356
12
6.138754
22
28.717632
32
14.544805
13
6.138754
23
28.717632
33
14.544805
0
3DFACE
8
AileD1
62
42.000000
10
22.863842
20
3.017639
30
15.388622
11
6.138754
21
28.717632
31
14.544805
12
4.446940
22
8.129820
32
14.378178
13
4.446940
23
8.129820
33
14.378178
0
3DFACE
8
AileD1
62
42.000000
10
22.863842
20
3.017639
30
15.388622
11
4.446940
21
8.129820
31
14.378178
12
2.749852
22
3.017639
32
14.543231
13
2.749852
23
3.017639
33
14.543231
0
ENDSEC
0
EOF
