0
SECTION
2
ENTITIES
0
3DFACE
8
Corp
62
1.000000
10
7.339307
20
30.329920
30
-9.151744
11
11.499307
21
26.039734
31
-18.543167
12
-17.500694
22
23.773338
32
-18.543167
13
-17.500694
23
23.773338
33
-12.711743
0
3DFACE
8
Corp
62
1.000000
10
-17.500694
20
23.773338
30
-12.711743
11
-17.500694
21
23.773338
31
-18.543167
12
-17.500694
22
44.246181
32
-18.543167
13
-17.500694
23
44.246181
33
-12.711743
0
3DFACE
8
Corp
62
1.000000
10
-17.500694
20
44.246181
30
-12.711743
11
-17.500694
21
44.246181
31
-18.543167
12
11.499307
22
41.979786
32
-18.543167
13
7.339307
23
37.689602
33
-9.151744
0
3DFACE
8
Corp
62
1.000000
10
7.339307
20
37.689602
30
-9.151744
11
11.499307
21
41.979786
31
-18.543167
12
11.499307
22
26.039734
32
-18.543167
13
7.339307
23
30.329920
33
-9.151744
0
3DFACE
8
Corp
62
1.000000
10
7.339307
20
30.329920
30
-9.151744
11
-17.500694
21
23.773338
31
-12.711743
12
-17.500694
22
44.246181
32
-12.711743
13
7.339307
23
37.689602
33
-9.151744
0
3DFACE
8
Corp
62
1.000000
10
11.499307
20
41.979786
30
-18.543167
11
-17.500694
21
44.246181
31
-18.543167
12
-17.500694
22
23.773338
32
-18.543167
13
11.499307
23
26.039734
33
-18.543167
0
3DFACE
8
Corp
62
1.000000
10
-22.900694
20
24.979786
30
9.488256
11
-22.900694
21
41.979786
31
9.488256
12
-16.500694
22
41.979786
32
-2.711743
13
-16.500694
23
24.979786
33
-2.711743
0
3DFACE
8
Corp
62
1.000000
10
-16.500694
20
24.979786
30
-2.711743
11
-16.500694
21
41.979786
31
-2.711743
12
-3.500693
22
41.979786
32
-8.711743
13
-3.500693
23
24.979786
33
-8.711743
0
3DFACE
8
Corp
62
1.000000
10
-3.500693
20
24.979786
30
-8.711743
11
-3.500693
21
41.979786
31
-8.711743
12
-21.500694
22
41.979786
32
-7.711743
13
-21.500694
23
24.979786
33
-7.711743
0
3DFACE
8
Corp
62
1.000000
10
-21.500694
20
24.979786
30
-7.711743
11
-21.500694
21
41.979786
31
-7.711743
12
-22.900694
22
41.979786
32
9.488256
13
-22.900694
23
24.979786
33
9.488256
0
3DFACE
8
Corp
62
1.000000
10
-0.573893
20
40.216587
30
-17.197748
11
6.226108
21
40.216587
31
-12.097749
12
0.106107
22
40.216587
32
-11.757749
13
0.106107
23
40.216587
33
-11.757749
0
3DFACE
8
Corp
62
1.000000
10
-0.573893
20
40.216587
30
-17.197748
11
0.106107
21
40.216587
31
-11.757749
12
-1.933893
22
40.216587
32
-4.617748
13
-1.933893
23
40.216587
33
-4.617748
0
3DFACE
8
Corp
62
1.000000
10
-12.793893
20
40.216587
30
0.122251
11
-15.833892
21
39.178890
31
9.002252
12
-20.913893
22
39.178890
32
7.642251
13
-20.913893
23
39.178890
33
7.642251
0
3DFACE
8
Corp
62
1.000000
10
-12.793893
20
40.216587
30
0.122251
11
-20.913893
21
39.178890
31
7.642251
12
-16.853891
22
40.216587
32
-3.277749
13
-16.853891
23
40.216587
33
-3.277749
0
3DFACE
8
Corp
62
1.000000
10
-12.793893
20
40.216587
30
0.122251
11
-16.853891
21
40.216587
31
-3.277749
12
-4.313893
22
40.216587
32
-7.337749
13
-4.313893
23
40.216587
33
-7.337749
0
3DFACE
8
Corp
62
1.000000
10
-4.313893
20
40.216587
30
-7.337749
11
-0.573893
21
40.216587
31
-17.197748
12
-1.933893
22
40.216587
32
-4.617748
13
-1.933893
23
40.216587
33
-4.617748
0
3DFACE
8
Corp
62
1.000000
10
-1.933893
20
40.216587
30
-4.617748
11
-12.793893
21
40.216587
31
0.122251
12
-4.313893
22
40.216587
32
-7.337749
13
-4.313893
23
40.216587
33
-7.337749
0
3DFACE
8
Corp
62
1.000000
10
-16.853891
20
27.956589
30
-3.277749
11
-20.913893
21
29.474287
31
7.642251
12
-15.833892
22
29.474287
32
9.002252
13
-15.833892
23
29.474287
33
9.002252
0
3DFACE
8
Corp
62
1.000000
10
-16.853891
20
27.956589
30
-3.277749
11
-15.833892
21
29.474287
31
9.002252
12
-12.793893
22
27.956589
32
0.122251
13
-12.793893
23
27.956589
33
0.122251
0
3DFACE
8
Corp
62
1.000000
10
-16.853891
20
27.956589
30
-3.277749
11
-12.793893
21
27.956589
31
0.122251
12
-1.933893
22
27.956589
32
-4.617749
13
-1.933893
23
27.956589
33
-4.617749
0
3DFACE
8
Corp
62
1.000000
10
0.106107
20
27.956589
30
-11.757749
11
6.226108
21
27.956589
31
-12.097749
12
-0.573893
22
27.956589
32
-17.197748
13
-0.573893
23
27.956589
33
-17.197748
0
3DFACE
8
Corp
62
1.000000
10
-4.313893
20
27.956589
30
-7.337749
11
-16.853891
21
27.956589
31
-3.277749
12
-1.933893
22
27.956589
32
-4.617749
13
-1.933893
23
27.956589
33
-4.617749
0
3DFACE
8
Corp
62
1.000000
10
-4.313893
20
27.956589
30
-7.337749
11
-1.933893
21
27.956589
31
-4.617749
12
0.106107
22
27.956589
32
-11.757749
13
0.106107
23
27.956589
33
-11.757749
0
3DFACE
8
Corp
62
1.000000
10
-4.313893
20
27.956589
30
-7.337749
11
0.106107
21
27.956589
31
-11.757749
12
-0.573893
22
27.956589
32
-17.197748
13
-0.573893
23
27.956589
33
-17.197748
0
3DFACE
8
Corp
62
1.000000
10
-20.913893
20
29.474287
30
7.642251
11
-20.913893
21
34.456585
31
9.362250
12
-15.833892
22
34.456585
32
10.722253
13
-15.833892
23
29.474287
33
9.002253
0
3DFACE
8
Corp
62
1.000000
10
-15.833892
20
29.474287
30
9.002253
11
-15.833892
21
34.456585
31
10.722253
12
-12.793893
22
34.896587
32
0.122252
13
-12.793893
23
27.956589
33
0.122252
0
3DFACE
8
Corp
62
1.000000
10
-12.793893
20
27.956589
30
0.122252
11
-12.793893
21
34.896587
31
0.122252
12
-3.963892
22
34.416584
32
-4.657751
13
-1.933893
23
27.956589
33
-4.617749
0
3DFACE
8
Corp
62
1.000000
10
-1.933893
20
27.956589
30
-4.617749
11
-3.963892
21
34.416584
31
-4.657751
12
-0.365893
22
34.516582
32
-13.285740
13
0.106107
23
27.956589
33
-11.757748
0
3DFACE
8
Corp
62
1.000000
10
0.106107
20
27.956589
30
-11.757748
11
-0.365893
21
34.516582
31
-13.285740
12
0.426107
22
34.516582
32
-13.285740
13
6.226108
23
27.956589
33
-11.757748
0
3DFACE
8
Corp
62
1.000000
10
-20.913893
20
34.456585
30
9.362250
11
-20.913893
21
39.178890
31
7.642251
12
-15.833892
22
39.178890
32
9.002253
13
-15.833892
23
34.456585
33
10.722253
0
3DFACE
8
Corp
62
1.000000
10
-15.833892
20
34.456585
30
10.722253
11
-15.833892
21
39.178890
31
9.002253
12
-12.793893
22
40.216587
32
0.122252
13
-12.793893
23
34.896587
33
0.122252
0
3DFACE
8
Corp
62
1.000000
10
-12.793893
20
34.896587
30
0.122252
11
-12.793893
21
40.216587
31
0.122252
12
-1.933893
22
40.216587
32
-4.617749
13
-3.963892
23
34.416584
33
-4.657751
0
3DFACE
8
Corp
62
1.000000
10
-3.963892
20
34.416584
30
-4.657751
11
-1.933893
21
40.216587
31
-4.617749
12
0.106107
22
40.216587
32
-11.757748
13
-0.365893
23
34.516582
33
-13.285740
0
3DFACE
8
Corp
62
1.000000
10
-0.365893
20
34.516582
30
-13.285740
11
0.106107
21
40.216587
31
-11.757748
12
6.226108
22
40.216587
32
-11.757748
13
0.426107
23
34.516582
33
-13.285740
0
3DFACE
8
Corp
62
1.000000
10
-18.473892
20
34.456585
30
17.502249
11
-18.473892
21
34.456585
31
17.502249
12
-21.764788
22
34.456585
32
15.602250
13
-20.119339
23
37.306587
33
15.602250
0
3DFACE
8
Corp
62
1.000000
10
-20.119339
20
37.306587
30
15.602250
11
-21.764788
21
34.456585
31
15.602250
12
-21.764788
22
34.456585
32
11.802251
13
-20.119339
23
37.306587
33
11.802251
0
3DFACE
8
Corp
62
1.000000
10
-20.119339
20
37.306587
30
11.802251
11
-21.764788
21
34.456585
31
11.802251
12
-18.473892
22
34.456585
32
9.902251
13
-18.473892
23
34.456585
33
9.902251
0
3DFACE
8
Corp
62
1.000000
10
-18.473892
20
34.456585
30
17.502249
11
-18.473892
21
34.456585
31
17.502249
12
-20.119339
22
37.306587
32
15.602250
13
-16.828444
23
37.306587
33
15.602250
0
3DFACE
8
Corp
62
1.000000
10
-16.828444
20
37.306587
30
15.602250
11
-20.119339
21
37.306587
31
15.602250
12
-20.119339
22
37.306587
32
11.802251
13
-16.828444
23
37.306587
33
11.802251
0
3DFACE
8
Corp
62
1.000000
10
-16.828444
20
37.306587
30
11.802251
11
-20.119339
21
37.306587
31
11.802251
12
-18.473892
22
34.456585
32
9.902251
13
-18.473892
23
34.456585
33
9.902251
0
3DFACE
8
Corp
62
1.000000
10
-18.473892
20
34.456585
30
17.502249
11
-18.473892
21
34.456585
31
17.502249
12
-16.828444
22
37.306587
32
15.602250
13
-15.182995
23
34.456585
33
15.602250
0
3DFACE
8
Corp
62
1.000000
10
-15.182995
20
34.456585
30
15.602250
11
-16.828444
21
37.306587
31
15.602250
12
-16.828444
22
37.306587
32
11.802251
13
-15.182995
23
34.456585
33
11.802251
0
3DFACE
8
Corp
62
1.000000
10
-15.182995
20
34.456585
30
11.802251
11
-16.828444
21
37.306587
31
11.802251
12
-18.473892
22
34.456585
32
9.902251
13
-18.473892
23
34.456585
33
9.902251
0
3DFACE
8
Corp
62
1.000000
10
-18.473892
20
34.456585
30
17.502249
11
-18.473892
21
34.456585
31
17.502249
12
-15.182995
22
34.456585
32
15.602250
13
-16.828444
23
31.606586
33
15.602250
0
3DFACE
8
Corp
62
1.000000
10
-16.828444
20
31.606586
30
15.602250
11
-15.182995
21
34.456585
31
15.602250
12
-15.182995
22
34.456585
32
11.802251
13
-16.828444
23
31.606586
33
11.802251
0
3DFACE
8
Corp
62
1.000000
10
-16.828444
20
31.606586
30
11.802251
11
-15.182995
21
34.456585
31
11.802251
12
-18.473892
22
34.456585
32
9.902251
13
-18.473892
23
34.456585
33
9.902251
0
3DFACE
8
Corp
62
1.000000
10
-18.473892
20
34.456585
30
17.502249
11
-18.473892
21
34.456585
31
17.502249
12
-16.828444
22
31.606586
32
15.602250
13
-20.119339
23
31.606586
33
15.602250
0
3DFACE
8
Corp
62
1.000000
10
-20.119339
20
31.606586
30
15.602250
11
-16.828444
21
31.606586
31
15.602250
12
-16.828444
22
31.606586
32
11.802251
13
-20.119339
23
31.606586
33
11.802251
0
3DFACE
8
Corp
62
1.000000
10
-20.119339
20
31.606586
30
11.802251
11
-16.828444
21
31.606586
31
11.802251
12
-18.473892
22
34.456585
32
9.902251
13
-18.473892
23
34.456585
33
9.902251
0
3DFACE
8
Corp
62
1.000000
10
-18.473892
20
34.456585
30
17.502249
11
-18.473892
21
34.456585
31
17.502249
12
-20.119339
22
31.606586
32
15.602250
13
-21.764788
23
34.456585
33
15.602250
0
3DFACE
8
Corp
62
1.000000
10
-21.764788
20
34.456585
30
15.602250
11
-20.119339
21
31.606586
31
15.602250
12
-20.119339
22
31.606586
32
11.802251
13
-21.764788
23
34.456585
33
11.802251
0
3DFACE
8
Corp
62
1.000000
10
-21.764788
20
34.456585
30
11.802251
11
-20.119339
21
31.606586
31
11.802251
12
-18.473892
22
34.456585
32
9.902251
13
-18.473892
23
34.456585
33
9.902251
0
3DFACE
8
BrasD
62
2.000000
10
-9.657553
20
41.868179
30
4.248198
11
-9.426130
21
41.491528
31
6.493767
12
-15.833892
22
38.837345
32
8.819713
13
-15.978030
23
39.185326
33
6.562252
0
3DFACE
8
BrasD
62
2.000000
10
-9.426130
20
41.491528
30
6.493767
11
-9.575278
21
39.724834
31
5.046511
12
-15.157807
22
37.205132
32
7.364792
13
-15.833892
23
38.837345
33
8.819713
0
3DFACE
8
BrasD
62
2.000000
10
-9.575278
20
39.724834
30
5.046511
11
-9.657553
21
41.868179
31
4.248198
12
-15.978030
22
39.185326
32
6.562252
13
-15.157807
23
37.205132
33
7.364792
0
3DFACE
8
BrasD
62
2.000000
10
-2.448508
20
41.868179
30
5.148746
11
-3.315178
21
41.491528
31
7.233217
12
-9.426130
22
41.491528
32
6.493767
13
-9.657553
23
41.868179
33
4.248198
0
3DFACE
8
BrasD
62
2.000000
10
-3.315178
20
41.491528
30
7.233217
11
-2.756610
21
39.724834
31
5.889790
12
-9.575278
22
39.724834
32
5.046511
13
-9.426130
23
41.491528
33
6.493767
0
3DFACE
8
BrasD
62
2.000000
10
-2.756610
20
39.724834
30
5.889790
11
-2.448508
21
41.868179
31
5.148746
12
-9.657553
22
41.868179
32
4.248198
13
-9.575278
23
39.724834
33
5.046511
0
3DFACE
8
BrasD
62
2.000000
10
-0.044855
20
40.817039
30
6.983151
11
-1.438829
21
40.809822
31
8.758812
12
-3.315178
22
41.491528
32
7.233217
13
-2.448508
23
41.868179
33
5.148746
0
3DFACE
8
BrasD
62
2.000000
10
-1.438829
20
40.809822
30
8.758812
11
-0.540417
21
40.775967
31
7.614412
12
-2.756610
22
39.724834
32
5.889790
13
-3.315178
23
41.491528
33
7.233217
0
3DFACE
8
BrasD
62
2.000000
10
-0.540417
20
40.775967
30
7.614412
11
-0.044855
21
40.817039
31
6.983151
12
-2.448508
22
41.868179
32
5.148746
13
-2.756610
23
39.724834
33
5.889790
0
3DFACE
8
BrasG
62
3.000000
10
-16.117077
20
28.790619
30
6.562252
11
-15.972939
21
29.138597
31
8.819713
12
-9.565177
22
26.484419
32
6.493767
13
-9.796599
23
26.107763
33
4.248198
0
3DFACE
8
BrasG
62
3.000000
10
-15.972939
20
29.138597
30
8.819713
11
-15.296854
21
30.770811
31
7.364792
12
-9.714325
22
28.251112
32
5.046511
13
-9.565177
23
26.484419
33
6.493767
0
3DFACE
8
BrasG
62
3.000000
10
-15.296854
20
30.770811
30
7.364792
11
-16.117077
21
28.790619
31
6.562252
12
-9.796599
22
26.107763
32
4.248198
13
-9.714325
23
28.251112
33
5.046511
0
3DFACE
8
BrasG
62
3.000000
10
-9.796599
20
26.107763
30
4.248198
11
-9.565177
21
26.484419
31
6.493767
12
-3.454225
22
26.484415
32
7.233217
13
-2.587554
23
26.107763
33
5.148746
0
3DFACE
8
BrasG
62
3.000000
10
-9.565177
20
26.484419
30
6.493767
11
-9.714325
21
28.251112
31
5.046511
12
-2.895656
22
28.251112
32
5.889790
13
-3.454225
23
26.484415
33
7.233217
0
3DFACE
8
BrasG
62
3.000000
10
-9.714325
20
28.251112
30
5.046511
11
-9.796599
21
26.107763
31
4.248198
12
-2.587554
22
26.107763
32
5.148746
13
-2.895656
23
28.251112
33
5.889790
0
3DFACE
8
BrasG
62
3.000000
10
-2.587554
20
26.107763
30
5.148746
11
-3.454225
21
26.484415
31
7.233217
12
-1.577876
22
27.166124
32
8.758812
13
-0.183902
23
27.158905
33
6.983151
0
3DFACE
8
BrasG
62
3.000000
10
-3.454225
20
26.484415
30
7.233217
11
-2.895656
21
28.251112
31
5.889790
12
-0.679464
22
27.199976
32
7.614412
13
-1.577876
23
27.166124
33
8.758812
0
3DFACE
8
BrasG
62
3.000000
10
-2.895656
20
28.251112
30
5.889790
11
-2.587554
21
26.107763
31
5.148746
12
-0.183902
22
27.158905
32
6.983151
13
-0.679464
23
27.199976
33
7.614412
0
3DFACE
8
Volant
62
4.000000
10
-6.176805
20
33.061283
30
-5.800697
11
-6.380709
21
33.186386
31
-4.274340
12
-4.829344
22
28.438683
32
-1.972573
13
-5.321772
23
27.408260
33
-2.692430
0
3DFACE
8
Volant
62
4.000000
10
-6.380709
20
33.186386
30
-4.274340
11
-4.953325
21
33.186386
31
-4.865582
12
-3.880856
22
27.819105
32
-2.920930
13
-4.829344
23
28.438683
33
-1.972573
0
3DFACE
8
Volant
62
4.000000
10
-4.953325
20
33.186386
30
-4.865582
11
-6.176805
21
33.061283
31
-5.800697
12
-5.321772
22
27.408260
32
-2.692430
13
-3.880856
23
27.819105
33
-2.920930
0
3DFACE
8
Volant
62
4.000000
10
-5.321772
20
27.408260
30
-2.692430
11
-4.829344
21
28.438683
31
-1.972573
12
-2.641885
22
26.911354
32
2.691979
13
-3.555351
23
25.865561
33
3.176652
0
3DFACE
8
Volant
62
4.000000
10
-4.829344
20
28.438683
30
-1.972573
11
-3.880856
21
27.819105
31
-2.920930
12
-2.147746
22
25.579214
32
2.622705
13
-2.641885
23
26.911354
33
2.691979
0
3DFACE
8
Volant
62
4.000000
10
-3.880856
20
27.819105
30
-2.920930
11
-5.321772
21
27.408260
31
-2.692430
12
-3.555351
22
25.865561
32
3.176652
13
-2.147746
23
25.579214
33
2.622705
0
3DFACE
8
Volant
62
4.000000
10
-3.555351
20
25.865561
30
3.176652
11
-2.641885
21
26.911354
31
2.691979
12
-0.652005
22
29.204369
32
7.249828
13
-1.234220
23
28.500765
33
8.410425
0
3DFACE
8
Volant
62
4.000000
10
-2.641885
20
26.911354
30
2.691979
11
-2.147746
21
25.579214
31
2.622705
12
0.242982
22
28.350866
32
7.994435
13
-0.652005
23
29.204369
33
7.249828
0
3DFACE
8
Volant
62
4.000000
10
-2.147746
20
25.579214
30
2.622705
11
-3.555351
21
25.865561
31
3.176652
12
-1.234220
22
28.500765
32
8.410425
13
0.242982
23
28.350866
33
7.994435
0
3DFACE
8
Volant
62
4.000000
10
-1.234220
20
28.500765
30
8.410425
11
-0.652005
21
29.204369
31
7.249828
12
-0.220721
22
34.546509
32
8.850875
13
-0.223362
23
34.671604
33
10.293865
0
3DFACE
8
Volant
62
4.000000
10
-0.652005
20
29.204369
30
7.249828
11
0.242982
21
28.350866
31
7.994435
12
1.101520
22
34.650730
32
9.504444
13
-0.220721
23
34.546509
33
8.850875
0
3DFACE
8
Volant
62
4.000000
10
0.242982
20
28.350866
30
7.994435
11
-1.234220
21
28.500765
31
8.410425
12
-0.223362
22
34.671604
32
10.293865
13
1.101520
23
34.650730
33
9.504444
0
3DFACE
8
Volant
62
4.000000
10
-0.223362
20
34.671604
30
10.293865
11
-0.220721
21
34.546509
31
8.850875
12
-0.656544
22
39.625259
32
6.328350
13
-1.926782
23
39.930187
33
7.127884
0
3DFACE
8
Volant
62
4.000000
10
-0.220721
20
34.546509
30
8.850875
11
1.101520
21
34.650730
31
9.504444
12
-0.657319
22
40.655685
32
7.252500
13
-0.656544
23
39.625259
33
6.328350
0
3DFACE
8
Volant
62
4.000000
10
1.101520
20
34.650730
30
9.504444
11
-0.223362
21
34.671604
31
10.293865
12
-1.926782
22
39.930187
32
7.127884
13
-0.657319
23
40.655685
33
7.252500
0
3DFACE
8
Volant
62
4.000000
10
-1.926782
20
39.930187
30
7.127884
11
-0.656544
21
39.625259
31
6.328350
12
-2.986127
22
40.867565
32
1.415981
13
-4.131660
23
41.708393
33
1.805005
0
3DFACE
8
Volant
62
4.000000
10
-0.656544
20
39.625259
30
6.328350
11
-0.657319
21
40.655685
31
7.252500
12
-2.820211
22
42.199703
32
1.211848
13
-2.986127
23
40.867565
33
1.415981
0
3DFACE
8
Volant
62
4.000000
10
-0.657319
20
40.655685
30
7.252500
11
-1.926782
21
39.930187
31
7.127884
12
-4.131660
22
41.708393
32
1.805005
13
-2.820211
23
42.199703
33
1.211848
0
3DFACE
8
Volant
62
4.000000
10
-4.131660
20
41.708393
30
1.805005
11
-2.986127
21
40.867565
31
1.415981
12
-4.282095
22
38.617832
32
-3.547615
13
-5.600679
23
38.441826
33
-2.771441
0
3DFACE
8
Volant
62
4.000000
10
-2.986127
20
40.867565
30
1.415981
11
-2.820211
21
42.199703
31
1.211848
12
-5.536456
22
39.295330
32
-3.913368
13
-4.282095
23
38.617832
33
-3.547615
0
3DFACE
8
Volant
62
4.000000
10
-2.820211
20
42.199703
30
1.211848
11
-4.131660
21
41.708393
31
1.805005
12
-5.600679
22
38.441826
32
-2.771441
13
-5.536456
23
39.295330
33
-3.913368
0
3DFACE
8
Volant
62
4.000000
10
-5.600679
20
38.441826
30
-2.771441
11
-4.282095
21
38.617832
31
-3.547615
12
-6.380709
22
33.186386
32
-4.274340
13
-6.176805
23
33.061283
33
-5.800697
0
3DFACE
8
Volant
62
4.000000
10
-4.282095
20
38.617832
30
-3.547615
11
-5.536456
21
39.295330
31
-3.913368
12
-4.953325
22
33.186386
32
-4.865582
13
-6.380709
23
33.186386
33
-4.274340
0
3DFACE
8
Volant
62
4.000000
10
-5.536456
20
39.295330
30
-3.913368
11
-5.600679
21
38.441826
31
-2.771441
12
-6.176805
22
33.061283
32
-5.800697
13
-4.953325
23
33.186386
33
-4.865582
0
3DFACE
8
PhareG
62
5.000000
10
29.135349
20
30.430479
30
-0.891363
11
29.135349
21
26.995480
31
-2.874562
12
31.273962
22
26.995480
32
-2.874562
13
31.273962
23
30.430479
33
-0.891363
0
3DFACE
8
PhareG
62
5.000000
10
31.273962
20
30.430479
30
-0.891363
11
31.273962
21
26.995480
31
-2.874562
12
32.343269
22
26.995480
32
1.091834
13
32.343269
23
26.995480
33
1.091834
0
3DFACE
8
PhareG
62
5.000000
10
29.135349
20
30.430477
30
3.075032
11
29.135349
21
30.430479
31
-0.891363
12
31.273962
22
30.430479
32
-0.891363
13
31.273962
23
30.430477
33
3.075032
0
3DFACE
8
PhareG
62
5.000000
10
31.273962
20
30.430477
30
3.075032
11
31.273962
21
30.430479
31
-0.891363
12
32.343269
22
26.995480
32
1.091834
13
32.343269
23
26.995480
33
1.091834
0
3DFACE
8
PhareG
62
5.000000
10
29.135349
20
26.995478
30
5.058229
11
29.135349
21
30.430477
31
3.075032
12
31.273962
22
30.430477
32
3.075032
13
31.273962
23
26.995478
33
5.058229
0
3DFACE
8
PhareG
62
5.000000
10
31.273962
20
26.995478
30
5.058229
11
31.273962
21
30.430477
31
3.075032
12
32.343269
22
26.995480
32
1.091834
13
32.343269
23
26.995480
33
1.091834
0
3DFACE
8
PhareG
62
5.000000
10
29.135349
20
23.560480
30
3.075030
11
29.135349
21
26.995478
31
5.058229
12
31.273962
22
26.995478
32
5.058229
13
31.273962
23
23.560480
33
3.075030
0
3DFACE
8
PhareG
62
5.000000
10
31.273962
20
23.560480
30
3.075030
11
31.273962
21
26.995478
31
5.058229
12
32.343269
22
26.995480
32
1.091834
13
32.343269
23
26.995480
33
1.091834
0
3DFACE
8
PhareG
62
5.000000
10
29.135349
20
23.560482
30
-0.891365
11
29.135349
21
23.560480
31
3.075030
12
31.273962
22
23.560480
32
3.075030
13
31.273962
23
23.560482
33
-0.891365
0
3DFACE
8
PhareG
62
5.000000
10
31.273962
20
23.560482
30
-0.891365
11
31.273962
21
23.560480
31
3.075030
12
32.343269
22
26.995480
32
1.091834
13
32.343269
23
26.995480
33
1.091834
0
3DFACE
8
PhareG
62
5.000000
10
29.135349
20
26.995480
30
-2.874562
11
29.135349
21
23.560482
31
-0.891365
12
31.273962
22
23.560482
32
-0.891365
13
31.273962
23
26.995480
33
-2.874562
0
3DFACE
8
PhareG
62
5.000000
10
31.273962
20
26.995480
30
-2.874562
11
31.273962
21
23.560482
31
-0.891365
12
32.343269
22
26.995480
32
1.091834
13
32.343269
23
26.995480
33
1.091834
0
3DFACE
8
PhareD
62
6.000000
10
29.135349
20
42.170479
30
-0.891363
11
29.135349
21
38.735481
31
-2.874562
12
31.273962
22
38.735481
32
-2.874562
13
31.273962
23
42.170479
33
-0.891363
0
3DFACE
8
PhareD
62
6.000000
10
31.273962
20
42.170479
30
-0.891363
11
31.273962
21
38.735481
31
-2.874562
12
32.343269
22
38.735481
32
1.091834
13
32.343269
23
38.735481
33
1.091834
0
3DFACE
8
PhareD
62
6.000000
10
29.135349
20
42.170479
30
3.075032
11
29.135349
21
42.170479
31
-0.891363
12
31.273962
22
42.170479
32
-0.891363
13
31.273962
23
42.170479
33
3.075032
0
3DFACE
8
PhareD
62
6.000000
10
31.273962
20
42.170479
30
3.075032
11
31.273962
21
42.170479
31
-0.891363
12
32.343269
22
38.735481
32
1.091834
13
32.343269
23
38.735481
33
1.091834
0
3DFACE
8
PhareD
62
6.000000
10
29.135349
20
38.735481
30
5.058229
11
29.135349
21
42.170479
31
3.075032
12
31.273962
22
42.170479
32
3.075032
13
31.273962
23
38.735481
33
5.058229
0
3DFACE
8
PhareD
62
6.000000
10
31.273962
20
38.735481
30
5.058229
11
31.273962
21
42.170479
31
3.075032
12
32.343269
22
38.735481
32
1.091834
13
32.343269
23
38.735481
33
1.091834
0
3DFACE
8
PhareD
62
6.000000
10
29.135349
20
35.300480
30
3.075030
11
29.135349
21
38.735481
31
5.058229
12
31.273962
22
38.735481
32
5.058229
13
31.273962
23
35.300480
33
3.075030
0
3DFACE
8
PhareD
62
6.000000
10
31.273962
20
35.300480
30
3.075030
11
31.273962
21
38.735481
31
5.058229
12
32.343269
22
38.735481
32
1.091834
13
32.343269
23
38.735481
33
1.091834
0
3DFACE
8
PhareD
62
6.000000
10
29.135349
20
35.300480
30
-0.891365
11
29.135349
21
35.300480
31
3.075030
12
31.273962
22
35.300480
32
3.075030
13
31.273962
23
35.300480
33
-0.891365
0
3DFACE
8
PhareD
62
6.000000
10
31.273962
20
35.300480
30
-0.891365
11
31.273962
21
35.300480
31
3.075030
12
32.343269
22
38.735481
32
1.091834
13
32.343269
23
38.735481
33
1.091834
0
3DFACE
8
PhareD
62
6.000000
10
29.135349
20
38.735481
30
-2.874562
11
29.135349
21
35.300480
31
-0.891365
12
31.273962
22
35.300480
32
-0.891365
13
31.273962
23
38.735481
33
-2.874562
0
3DFACE
8
PhareD
62
6.000000
10
31.273962
20
38.735481
30
-2.874562
11
31.273962
21
35.300480
31
-0.891365
12
32.343269
22
38.735481
32
1.091834
13
32.343269
23
38.735481
33
1.091834
0
3DFACE
8
EssG
62
7.000000
10
-34.713894
20
12.416587
30
-0.757749
11
-34.713894
21
21.416588
31
-0.757749
12
-28.713892
22
21.416588
32
5.242251
13
-28.713892
23
12.416587
33
5.242251
0
3DFACE
8
EssG
62
7.000000
10
-28.713892
20
12.416587
30
5.242251
11
-28.713892
21
21.416588
31
5.242251
12
-10.713893
22
21.416588
32
5.242251
13
-10.713893
23
12.416587
33
5.242251
0
3DFACE
8
EssG
62
7.000000
10
-10.713893
20
12.416587
30
5.242251
11
-10.713893
21
21.416588
31
5.242251
12
-6.713892
22
21.416588
32
-0.757749
13
-6.713892
23
12.416587
33
-0.757749
0
3DFACE
8
EssD
62
8.000000
10
-28.713892
20
54.929638
30
5.242251
11
-28.713892
21
45.929638
31
5.242251
12
-34.713894
22
45.929638
32
-0.757749
13
-34.713894
23
54.929638
33
-0.757749
0
3DFACE
8
EssD
62
8.000000
10
-10.713893
20
54.929638
30
5.242251
11
-10.713893
21
45.929638
31
5.242251
12
-28.713892
22
45.929638
32
5.242251
13
-28.713892
23
54.929638
33
5.242251
0
3DFACE
8
EssD
62
8.000000
10
-6.713892
20
54.929638
30
-0.757749
11
-6.713892
21
45.929638
31
-0.757749
12
-10.713893
22
45.929638
32
5.242251
13
-10.713893
23
54.929638
33
5.242251
0
3DFACE
8
Capot
62
9.000000
10
29.499308
20
22.596281
30
5.520596
11
29.499308
21
25.875481
31
-18.543167
12
11.499307
22
25.875481
32
-18.543167
13
-0.620693
23
25.875481
33
5.900596
0
3DFACE
8
Capot
62
9.000000
10
-0.620693
20
25.875481
30
5.900596
11
11.499307
21
25.875481
31
-18.543167
12
11.499307
22
40.190735
32
-18.543167
13
-0.620693
23
40.190735
33
5.900596
0
3DFACE
8
Capot
62
9.000000
10
-0.620693
20
40.190735
30
5.900596
11
11.499307
21
40.190735
31
-18.543167
12
29.499308
22
40.190735
32
-18.543167
13
29.499308
23
43.469936
33
5.520596
0
3DFACE
8
Capot
62
9.000000
10
29.499308
20
43.469936
30
5.520596
11
29.499308
21
40.190735
31
-18.543167
12
29.499308
22
25.875481
32
-18.543167
13
29.499308
23
22.596281
33
5.520596
0
3DFACE
8
Capot
62
9.000000
10
29.499308
20
22.596281
30
5.520596
11
-0.620693
21
25.875481
31
5.900596
12
-0.620693
22
40.190735
32
5.900596
13
29.499308
23
43.469936
33
5.520596
0
3DFACE
8
Capot
62
9.000000
10
29.499308
20
40.190735
30
-18.543167
11
11.499307
21
40.190735
31
-18.543167
12
11.499307
22
25.875481
32
-18.543167
13
29.499308
23
25.875481
33
-18.543167
0
3DFACE
8
RoueArD
62
10.000000
10
-24.628336
20
56.170776
30
-17.901821
11
-21.402599
21
56.170776
31
-20.399916
12
-20.877619
22
57.411915
32
-18.474987
13
-22.895990
23
57.411915
33
-16.911909
0
3DFACE
8
RoueArD
62
10.000000
10
-21.402599
20
56.170776
30
-20.399916
11
-17.355240
21
56.170776
31
-19.885393
12
-18.345152
22
57.411915
32
-18.153048
13
-20.877619
23
57.411915
33
-18.474987
0
3DFACE
8
RoueArD
62
10.000000
10
-17.355240
20
56.170776
30
-19.885393
11
-14.857146
21
56.170776
31
-16.659657
12
-16.782074
22
57.411915
32
-16.134676
13
-18.345152
23
57.411915
33
-18.153048
0
3DFACE
8
RoueArD
62
10.000000
10
-14.857146
20
56.170776
30
-16.659657
11
-15.371668
21
56.170776
31
-12.612296
12
-17.104013
22
57.411915
32
-13.602208
13
-16.782074
23
57.411915
33
-16.134676
0
3DFACE
8
RoueArD
62
10.000000
10
-15.371668
20
56.170776
30
-12.612296
11
-18.597406
21
56.170776
31
-10.114202
12
-19.122385
22
57.411915
32
-12.039131
13
-17.104013
23
57.411915
33
-13.602208
0
3DFACE
8
RoueArD
62
10.000000
10
-18.597406
20
56.170776
30
-10.114202
11
-22.644766
21
56.170776
31
-10.628724
12
-21.654852
22
57.411915
32
-12.361071
13
-19.122385
23
57.411915
33
-12.039131
0
3DFACE
8
RoueArD
62
10.000000
10
-22.644766
20
56.170776
30
-10.628724
11
-25.142859
21
56.170776
31
-13.854463
12
-23.217930
22
57.411915
32
-14.379442
13
-21.654852
23
57.411915
33
-12.361071
0
3DFACE
8
RoueArD
62
10.000000
10
-25.142859
20
56.170776
30
-13.854463
11
-24.628336
21
56.170776
31
-17.901821
12
-22.895990
22
57.411915
32
-16.911909
13
-23.217930
23
57.411915
33
-14.379442
0
3DFACE
8
RoueArD
62
10.000000
10
-26.171116
20
58.239342
30
-18.783409
11
-21.870132
21
58.239342
31
-22.114201
12
-21.402599
22
56.170776
32
-20.399916
13
-24.628336
23
56.170776
33
-17.901821
0
3DFACE
8
RoueArD
62
10.000000
10
-21.870132
20
58.239342
30
-22.114201
11
-16.473652
21
58.239342
31
-21.428171
12
-17.355240
22
56.170776
32
-19.885393
13
-21.402599
23
56.170776
33
-20.399916
0
3DFACE
8
RoueArD
62
10.000000
10
-16.473652
20
58.239342
30
-21.428171
11
-13.142860
21
58.239342
31
-17.127190
12
-14.857146
22
56.170776
32
-16.659657
13
-17.355240
23
56.170776
33
-19.885393
0
3DFACE
8
RoueArD
62
10.000000
10
-13.142860
20
58.239342
30
-17.127190
11
-13.828890
21
58.239342
31
-11.730708
12
-15.371668
22
56.170776
32
-12.612296
13
-14.857146
23
56.170776
33
-16.659657
0
3DFACE
8
RoueArD
62
10.000000
10
-13.828890
20
58.239342
30
-11.730708
11
-18.129871
21
58.239342
31
-8.399918
12
-18.597406
22
56.170776
32
-10.114202
13
-15.371668
23
56.170776
33
-12.612296
0
3DFACE
8
RoueArD
62
10.000000
10
-18.129871
20
58.239342
30
-8.399918
11
-23.526352
21
58.239342
31
-9.085946
12
-22.644766
22
56.170776
32
-10.628724
13
-18.597406
23
56.170776
33
-10.114202
0
3DFACE
8
RoueArD
62
10.000000
10
-23.526352
20
58.239342
30
-9.085946
11
-26.857145
21
58.239342
31
-13.386930
12
-25.142859
22
56.170776
32
-13.854463
13
-22.644766
23
56.170776
33
-10.628724
0
3DFACE
8
RoueArD
62
10.000000
10
-26.857145
20
58.239342
30
-13.386930
11
-26.171116
21
58.239342
31
-18.783409
12
-24.628336
22
56.170776
32
-17.901821
13
-25.142859
23
56.170776
33
-13.854463
0
3DFACE
8
RoueArD
62
10.000000
10
-31.570839
20
58.239342
30
-21.868965
11
-23.506495
21
58.239342
31
-28.114201
12
-21.870132
22
58.239342
32
-22.114201
13
-26.171116
23
58.239342
33
-18.783409
0
3DFACE
8
RoueArD
62
10.000000
10
-23.506495
20
58.239342
30
-28.114201
11
-13.388096
21
58.239342
31
-26.827896
12
-16.473652
22
58.239342
32
-21.428171
13
-21.870132
23
58.239342
33
-22.114201
0
3DFACE
8
RoueArD
62
10.000000
10
-13.388096
20
58.239342
30
-26.827896
11
-7.142862
21
58.239342
31
-18.763550
12
-13.142860
22
58.239342
32
-17.127190
13
-16.473652
23
58.239342
33
-21.428171
0
3DFACE
8
RoueArD
62
10.000000
10
-7.142862
20
58.239342
30
-18.763550
11
-8.429166
21
58.239342
31
-8.645151
12
-13.828890
22
58.239342
32
-11.730708
13
-13.142860
23
58.239342
33
-17.127190
0
3DFACE
8
RoueArD
62
10.000000
10
-8.429166
20
58.239342
30
-8.645151
11
-16.493509
21
58.239342
31
-2.399919
12
-18.129871
22
58.239342
32
-8.399918
13
-13.828890
23
58.239342
33
-11.730708
0
3DFACE
8
RoueArD
62
10.000000
10
-16.493509
20
58.239342
30
-2.399919
11
-26.611910
21
58.239342
31
-3.686223
12
-23.526352
22
58.239342
32
-9.085946
13
-18.129871
23
58.239342
33
-8.399918
0
3DFACE
8
RoueArD
62
10.000000
10
-26.611910
20
58.239342
30
-3.686223
11
-32.857147
21
58.239342
31
-11.750566
12
-26.857145
22
58.239342
32
-13.386930
13
-23.526352
23
58.239342
33
-9.085946
0
3DFACE
8
RoueArD
62
10.000000
10
-32.857147
20
58.239342
30
-11.750566
11
-31.570839
21
58.239342
31
-21.868965
12
-26.171116
22
58.239342
32
-18.783409
13
-26.857145
23
58.239342
33
-13.386930
0
3DFACE
8
RoueArD
62
10.000000
10
-33.499313
20
54.929638
30
-22.970951
11
-24.090912
21
54.929638
31
-30.257059
12
-23.506495
22
58.239342
32
-28.114201
13
-31.570839
23
58.239342
33
-21.868965
0
3DFACE
8
RoueArD
62
10.000000
10
-24.090912
20
54.929638
30
-30.257059
11
-12.286111
21
54.929638
31
-28.756369
12
-13.388096
22
58.239342
32
-26.827896
13
-23.506495
23
58.239342
33
-28.114201
0
3DFACE
8
RoueArD
62
10.000000
10
-12.286111
20
54.929638
30
-28.756369
11
-5.000004
21
54.929638
31
-19.347967
12
-7.142862
22
58.239342
32
-18.763550
13
-13.388096
23
58.239342
33
-26.827896
0
3DFACE
8
RoueArD
62
10.000000
10
-5.000004
20
54.929638
30
-19.347967
11
-6.500692
21
54.929638
31
-7.543167
12
-8.429166
22
58.239342
32
-8.645151
13
-7.142862
23
58.239342
33
-18.763550
0
3DFACE
8
RoueArD
62
10.000000
10
-6.500692
20
54.929638
30
-7.543167
11
-15.909094
21
54.929638
31
-0.257060
12
-16.493509
22
58.239342
32
-2.399919
13
-8.429166
23
58.239342
33
-8.645151
0
3DFACE
8
RoueArD
62
10.000000
10
-15.909094
20
54.929638
30
-0.257060
11
-27.713894
21
54.929638
31
-1.757749
12
-26.611910
22
58.239342
32
-3.686223
13
-16.493509
23
58.239342
33
-2.399919
0
3DFACE
8
RoueArD
62
10.000000
10
-27.713894
20
54.929638
30
-1.757749
11
-35.000004
21
54.929638
31
-11.166152
12
-32.857147
22
58.239342
32
-11.750566
13
-26.611910
23
58.239342
33
-3.686223
0
3DFACE
8
RoueArD
62
10.000000
10
-35.000004
20
54.929638
30
-11.166152
11
-33.499313
21
54.929638
31
-22.970951
12
-31.570839
22
58.239342
32
-21.868965
13
-32.857147
23
58.239342
33
-11.750566
0
3DFACE
8
RoueArD
62
10.000000
10
-33.499313
20
44.173115
30
-22.970951
11
-24.090912
21
44.173115
31
-30.257059
12
-24.090912
22
54.929638
32
-30.257059
13
-33.499313
23
54.929638
33
-22.970951
0
3DFACE
8
RoueArD
62
10.000000
10
-24.090912
20
44.173115
30
-30.257059
11
-12.286111
21
44.173115
31
-28.756369
12
-12.286111
22
54.929638
32
-28.756369
13
-24.090912
23
54.929638
33
-30.257059
0
3DFACE
8
RoueArD
62
10.000000
10
-12.286111
20
44.173115
30
-28.756369
11
-5.000004
21
44.173115
31
-19.347967
12
-5.000004
22
54.929638
32
-19.347967
13
-12.286111
23
54.929638
33
-28.756369
0
3DFACE
8
RoueArD
62
10.000000
10
-5.000004
20
44.173115
30
-19.347967
11
-6.500692
21
44.173115
31
-7.543167
12
-6.500692
22
54.929638
32
-7.543167
13
-5.000004
23
54.929638
33
-19.347967
0
3DFACE
8
RoueArD
62
10.000000
10
-6.500692
20
44.173115
30
-7.543167
11
-15.909094
21
44.173115
31
-0.257060
12
-15.909094
22
54.929638
32
-0.257060
13
-6.500692
23
54.929638
33
-7.543167
0
3DFACE
8
RoueArD
62
10.000000
10
-15.909094
20
44.173115
30
-0.257060
11
-27.713894
21
44.173115
31
-1.757749
12
-27.713894
22
54.929638
32
-1.757749
13
-15.909094
23
54.929638
33
-0.257060
0
3DFACE
8
RoueArD
62
10.000000
10
-27.713894
20
44.173115
30
-1.757749
11
-35.000004
21
44.173115
31
-11.166152
12
-35.000004
22
54.929638
32
-11.166152
13
-27.713894
23
54.929638
33
-1.757749
0
3DFACE
8
RoueArD
62
10.000000
10
-35.000004
20
44.173115
30
-11.166152
11
-33.499313
21
44.173115
31
-22.970951
12
-33.499313
22
54.929638
32
-22.970951
13
-35.000004
23
54.929638
33
-11.166152
0
3DFACE
8
RoueArD
62
10.000000
10
-22.895990
20
57.411915
30
-16.911909
11
-20.877619
21
57.411915
31
-18.474987
12
-18.345152
22
57.411915
32
-18.153048
13
-18.345152
23
57.411915
33
-18.153048
0
3DFACE
8
RoueArD
62
10.000000
10
-22.895990
20
57.411915
30
-16.911909
11
-18.345152
21
57.411915
31
-18.153048
12
-16.782074
22
57.411915
32
-16.134676
13
-16.782074
23
57.411915
33
-16.134676
0
3DFACE
8
RoueArD
62
10.000000
10
-22.895990
20
57.411915
30
-16.911909
11
-16.782074
21
57.411915
31
-16.134676
12
-17.104013
22
57.411915
32
-13.602208
13
-17.104013
23
57.411915
33
-13.602208
0
3DFACE
8
RoueArD
62
10.000000
10
-22.895990
20
57.411915
30
-16.911909
11
-17.104013
21
57.411915
31
-13.602208
12
-19.122385
22
57.411915
32
-12.039131
13
-19.122385
23
57.411915
33
-12.039131
0
3DFACE
8
RoueArD
62
10.000000
10
-22.895990
20
57.411915
30
-16.911909
11
-19.122385
21
57.411915
31
-12.039131
12
-21.654852
22
57.411915
32
-12.361071
13
-21.654852
23
57.411915
33
-12.361071
0
3DFACE
8
RoueArD
62
10.000000
10
-22.895990
20
57.411915
30
-16.911909
11
-21.654852
21
57.411915
31
-12.361071
12
-23.217930
22
57.411915
32
-14.379442
13
-23.217930
23
57.411915
33
-14.379442
0
3DFACE
8
RoueArD
62
10.000000
10
-24.090912
20
44.173115
30
-30.257059
11
-33.499313
21
44.173115
31
-22.970951
12
-35.000004
22
44.173115
32
-11.166152
13
-35.000004
23
44.173115
33
-11.166152
0
3DFACE
8
RoueArD
62
10.000000
10
-24.090912
20
44.173115
30
-30.257059
11
-35.000004
21
44.173115
31
-11.166152
12
-27.713894
22
44.173115
32
-1.757749
13
-27.713894
23
44.173115
33
-1.757749
0
3DFACE
8
RoueArD
62
10.000000
10
-24.090912
20
44.173115
30
-30.257059
11
-27.713894
21
44.173115
31
-1.757749
12
-15.909094
22
44.173115
32
-0.257060
13
-15.909094
23
44.173115
33
-0.257060
0
3DFACE
8
RoueArD
62
10.000000
10
-24.090912
20
44.173115
30
-30.257059
11
-15.909094
21
44.173115
31
-0.257060
12
-6.500692
22
44.173115
32
-7.543167
13
-6.500692
23
44.173115
33
-7.543167
0
3DFACE
8
RoueArD
62
10.000000
10
-24.090912
20
44.173115
30
-30.257059
11
-6.500692
21
44.173115
31
-7.543167
12
-5.000004
22
44.173115
32
-19.347967
13
-5.000004
23
44.173115
33
-19.347967
0
3DFACE
8
RoueArD
62
10.000000
10
-24.090912
20
44.173115
30
-30.257059
11
-5.000004
21
44.173115
31
-19.347967
12
-12.286111
22
44.173115
32
-28.756369
13
-12.286111
23
44.173115
33
-28.756369
0
3DFACE
8
RoueArG
62
11.000000
10
-6.500692
20
23.173113
30
-7.543167
11
-15.909094
21
23.173113
31
-0.257060
12
-27.713894
22
23.173113
32
-1.757749
13
-27.713894
23
23.173113
33
-1.757749
0
3DFACE
8
RoueArG
62
11.000000
10
-6.500692
20
23.173113
30
-7.543167
11
-27.713894
21
23.173113
31
-1.757749
12
-35.000004
22
23.173113
32
-11.166152
13
-35.000004
23
23.173113
33
-11.166152
0
3DFACE
8
RoueArG
62
11.000000
10
-6.500692
20
23.173113
30
-7.543167
11
-35.000004
21
23.173113
31
-11.166152
12
-33.499313
22
23.173113
32
-22.970951
13
-33.499313
23
23.173113
33
-22.970951
0
3DFACE
8
RoueArG
62
11.000000
10
-6.500692
20
23.173113
30
-7.543167
11
-33.499313
21
23.173113
31
-22.970951
12
-24.090912
22
23.173113
32
-30.257059
13
-24.090912
23
23.173113
33
-30.257059
0
3DFACE
8
RoueArG
62
11.000000
10
-6.500692
20
23.173113
30
-7.543167
11
-24.090912
21
23.173113
31
-30.257059
12
-12.286111
22
23.173113
32
-28.756369
13
-12.286111
23
23.173113
33
-28.756369
0
3DFACE
8
RoueArG
62
11.000000
10
-6.500692
20
23.173113
30
-7.543167
11
-12.286111
21
23.173113
31
-28.756369
12
-5.000004
22
23.173113
32
-19.347967
13
-5.000004
23
23.173113
33
-19.347967
0
3DFACE
8
RoueArG
62
11.000000
10
-22.895990
20
9.934312
30
-16.911909
11
-20.877619
21
9.934312
31
-18.474987
12
-21.402599
22
11.175449
32
-20.399916
13
-24.628336
23
11.175449
33
-17.901821
0
3DFACE
8
RoueArG
62
11.000000
10
-20.877619
20
9.934312
30
-18.474987
11
-18.345152
21
9.934312
31
-18.153048
12
-17.355240
22
11.175449
32
-19.885393
13
-21.402599
23
11.175449
33
-20.399916
0
3DFACE
8
RoueArG
62
11.000000
10
-18.345152
20
9.934312
30
-18.153048
11
-16.782074
21
9.934312
31
-16.134676
12
-14.857146
22
11.175449
32
-16.659657
13
-17.355240
23
11.175449
33
-19.885393
0
3DFACE
8
RoueArG
62
11.000000
10
-16.782074
20
9.934312
30
-16.134676
11
-17.104013
21
9.934312
31
-13.602208
12
-15.371668
22
11.175449
32
-12.612296
13
-14.857146
23
11.175449
33
-16.659657
0
3DFACE
8
RoueArG
62
11.000000
10
-17.104013
20
9.934312
30
-13.602208
11
-19.122385
21
9.934312
31
-12.039131
12
-18.597406
22
11.175449
32
-10.114202
13
-15.371668
23
11.175449
33
-12.612296
0
3DFACE
8
RoueArG
62
11.000000
10
-19.122385
20
9.934312
30
-12.039131
11
-21.654852
21
9.934312
31
-12.361071
12
-22.644766
22
11.175449
32
-10.628724
13
-18.597406
23
11.175449
33
-10.114202
0
3DFACE
8
RoueArG
62
11.000000
10
-21.654852
20
9.934312
30
-12.361071
11
-23.217930
21
9.934312
31
-14.379442
12
-25.142859
22
11.175449
32
-13.854463
13
-22.644766
23
11.175449
33
-10.628724
0
3DFACE
8
RoueArG
62
11.000000
10
-23.217930
20
9.934312
30
-14.379442
11
-22.895990
21
9.934312
31
-16.911909
12
-24.628336
22
11.175449
32
-17.901821
13
-25.142859
23
11.175449
33
-13.854463
0
3DFACE
8
RoueArG
62
11.000000
10
-24.628336
20
11.175449
30
-17.901821
11
-21.402599
21
11.175449
31
-20.399916
12
-21.870132
22
9.106887
32
-22.114201
13
-26.171116
23
9.106887
33
-18.783409
0
3DFACE
8
RoueArG
62
11.000000
10
-21.402599
20
11.175449
30
-20.399916
11
-17.355240
21
11.175449
31
-19.885393
12
-16.473652
22
9.106887
32
-21.428171
13
-21.870132
23
9.106887
33
-22.114201
0
3DFACE
8
RoueArG
62
11.000000
10
-17.355240
20
11.175449
30
-19.885393
11
-14.857146
21
11.175449
31
-16.659657
12
-13.142860
22
9.106887
32
-17.127190
13
-16.473652
23
9.106887
33
-21.428171
0
3DFACE
8
RoueArG
62
11.000000
10
-14.857146
20
11.175449
30
-16.659657
11
-15.371668
21
11.175449
31
-12.612296
12
-13.828890
22
9.106887
32
-11.730708
13
-13.142860
23
9.106887
33
-17.127190
0
3DFACE
8
RoueArG
62
11.000000
10
-15.371668
20
11.175449
30
-12.612296
11
-18.597406
21
11.175449
31
-10.114202
12
-18.129871
22
9.106887
32
-8.399918
13
-13.828890
23
9.106887
33
-11.730708
0
3DFACE
8
RoueArG
62
11.000000
10
-18.597406
20
11.175449
30
-10.114202
11
-22.644766
21
11.175449
31
-10.628724
12
-23.526352
22
9.106887
32
-9.085946
13
-18.129871
23
9.106887
33
-8.399918
0
3DFACE
8
RoueArG
62
11.000000
10
-22.644766
20
11.175449
30
-10.628724
11
-25.142859
21
11.175449
31
-13.854463
12
-26.857145
22
9.106887
32
-13.386930
13
-23.526352
23
9.106887
33
-9.085946
0
3DFACE
8
RoueArG
62
11.000000
10
-25.142859
20
11.175449
30
-13.854463
11
-24.628336
21
11.175449
31
-17.901821
12
-26.171116
22
9.106887
32
-18.783409
13
-26.857145
23
9.106887
33
-13.386930
0
3DFACE
8
RoueArG
62
11.000000
10
-26.171116
20
9.106887
30
-18.783409
11
-21.870132
21
9.106887
31
-22.114201
12
-23.506495
22
9.106887
32
-28.114201
13
-31.570839
23
9.106887
33
-21.868965
0
3DFACE
8
RoueArG
62
11.000000
10
-21.870132
20
9.106887
30
-22.114201
11
-16.473652
21
9.106887
31
-21.428171
12
-13.388096
22
9.106887
32
-26.827896
13
-23.506495
23
9.106887
33
-28.114201
0
3DFACE
8
RoueArG
62
11.000000
10
-16.473652
20
9.106887
30
-21.428171
11
-13.142860
21
9.106887
31
-17.127190
12
-7.142862
22
9.106887
32
-18.763550
13
-13.388096
23
9.106887
33
-26.827896
0
3DFACE
8
RoueArG
62
11.000000
10
-13.142860
20
9.106887
30
-17.127190
11
-13.828890
21
9.106887
31
-11.730708
12
-8.429166
22
9.106887
32
-8.645151
13
-7.142862
23
9.106887
33
-18.763550
0
3DFACE
8
RoueArG
62
11.000000
10
-13.828890
20
9.106887
30
-11.730708
11
-18.129871
21
9.106887
31
-8.399918
12
-16.493509
22
9.106887
32
-2.399919
13
-8.429166
23
9.106887
33
-8.645151
0
3DFACE
8
RoueArG
62
11.000000
10
-18.129871
20
9.106887
30
-8.399918
11
-23.526352
21
9.106887
31
-9.085946
12
-26.611910
22
9.106887
32
-3.686223
13
-16.493509
23
9.106887
33
-2.399919
0
3DFACE
8
RoueArG
62
11.000000
10
-23.526352
20
9.106887
30
-9.085946
11
-26.857145
21
9.106887
31
-13.386930
12
-32.857147
22
9.106887
32
-11.750566
13
-26.611910
23
9.106887
33
-3.686223
0
3DFACE
8
RoueArG
62
11.000000
10
-26.857145
20
9.106887
30
-13.386930
11
-26.171116
21
9.106887
31
-18.783409
12
-31.570839
22
9.106887
32
-21.868965
13
-32.857147
23
9.106887
33
-11.750566
0
3DFACE
8
RoueArG
62
11.000000
10
-31.570839
20
9.106887
30
-21.868965
11
-23.506495
21
9.106887
31
-28.114201
12
-24.090912
22
12.416587
32
-30.257059
13
-33.499313
23
12.416587
33
-22.970951
0
3DFACE
8
RoueArG
62
11.000000
10
-23.506495
20
9.106887
30
-28.114201
11
-13.388096
21
9.106887
31
-26.827896
12
-12.286111
22
12.416587
32
-28.756369
13
-24.090912
23
12.416587
33
-30.257059
0
3DFACE
8
RoueArG
62
11.000000
10
-13.388096
20
9.106887
30
-26.827896
11
-7.142862
21
9.106887
31
-18.763550
12
-5.000004
22
12.416587
32
-19.347967
13
-12.286111
23
12.416587
33
-28.756369
0
3DFACE
8
RoueArG
62
11.000000
10
-7.142862
20
9.106887
30
-18.763550
11
-8.429166
21
9.106887
31
-8.645151
12
-6.500692
22
12.416587
32
-7.543167
13
-5.000004
23
12.416587
33
-19.347967
0
3DFACE
8
RoueArG
62
11.000000
10
-8.429166
20
9.106887
30
-8.645151
11
-16.493509
21
9.106887
31
-2.399919
12
-15.909094
22
12.416587
32
-0.257060
13
-6.500692
23
12.416587
33
-7.543167
0
3DFACE
8
RoueArG
62
11.000000
10
-16.493509
20
9.106887
30
-2.399919
11
-26.611910
21
9.106887
31
-3.686223
12
-27.713894
22
12.416587
32
-1.757749
13
-15.909094
23
12.416587
33
-0.257060
0
3DFACE
8
RoueArG
62
11.000000
10
-26.611910
20
9.106887
30
-3.686223
11
-32.857147
21
9.106887
31
-11.750566
12
-35.000004
22
12.416587
32
-11.166152
13
-27.713894
23
12.416587
33
-1.757749
0
3DFACE
8
RoueArG
62
11.000000
10
-32.857147
20
9.106887
30
-11.750566
11
-31.570839
21
9.106887
31
-21.868965
12
-33.499313
22
12.416587
32
-22.970951
13
-35.000004
23
12.416587
33
-11.166152
0
3DFACE
8
RoueArG
62
11.000000
10
-33.499313
20
12.416587
30
-22.970951
11
-24.090912
21
12.416587
31
-30.257059
12
-24.090912
22
23.173113
32
-30.257059
13
-33.499313
23
23.173113
33
-22.970951
0
3DFACE
8
RoueArG
62
11.000000
10
-24.090912
20
12.416587
30
-30.257059
11
-12.286111
21
12.416587
31
-28.756369
12
-12.286111
22
23.173113
32
-28.756369
13
-24.090912
23
23.173113
33
-30.257059
0
3DFACE
8
RoueArG
62
11.000000
10
-12.286111
20
12.416587
30
-28.756369
11
-5.000004
21
12.416587
31
-19.347967
12
-5.000004
22
23.173113
32
-19.347967
13
-12.286111
23
23.173113
33
-28.756369
0
3DFACE
8
RoueArG
62
11.000000
10
-5.000004
20
12.416587
30
-19.347967
11
-6.500692
21
12.416587
31
-7.543167
12
-6.500692
22
23.173113
32
-7.543167
13
-5.000004
23
23.173113
33
-19.347967
0
3DFACE
8
RoueArG
62
11.000000
10
-6.500692
20
12.416587
30
-7.543167
11
-15.909094
21
12.416587
31
-0.257060
12
-15.909094
22
23.173113
32
-0.257060
13
-6.500692
23
23.173113
33
-7.543167
0
3DFACE
8
RoueArG
62
11.000000
10
-15.909094
20
12.416587
30
-0.257060
11
-27.713894
21
12.416587
31
-1.757749
12
-27.713894
22
23.173113
32
-1.757749
13
-15.909094
23
23.173113
33
-0.257060
0
3DFACE
8
RoueArG
62
11.000000
10
-27.713894
20
12.416587
30
-1.757749
11
-35.000004
21
12.416587
31
-11.166152
12
-35.000004
22
23.173113
32
-11.166152
13
-27.713894
23
23.173113
33
-1.757749
0
3DFACE
8
RoueArG
62
11.000000
10
-35.000004
20
12.416587
30
-11.166152
11
-33.499313
21
12.416587
31
-22.970951
12
-33.499313
22
23.173113
32
-22.970951
13
-35.000004
23
23.173113
33
-11.166152
0
3DFACE
8
RoueArG
62
11.000000
10
-23.217930
20
9.934312
30
-14.379442
11
-21.654852
21
9.934312
31
-12.361071
12
-19.122385
22
9.934312
32
-12.039131
13
-19.122385
23
9.934312
33
-12.039131
0
3DFACE
8
RoueArG
62
11.000000
10
-23.217930
20
9.934312
30
-14.379442
11
-19.122385
21
9.934312
31
-12.039131
12
-17.104013
22
9.934312
32
-13.602208
13
-17.104013
23
9.934312
33
-13.602208
0
3DFACE
8
RoueArG
62
11.000000
10
-23.217930
20
9.934312
30
-14.379442
11
-17.104013
21
9.934312
31
-13.602208
12
-16.782074
22
9.934312
32
-16.134676
13
-16.782074
23
9.934312
33
-16.134676
0
3DFACE
8
RoueArG
62
11.000000
10
-23.217930
20
9.934312
30
-14.379442
11
-16.782074
21
9.934312
31
-16.134676
12
-18.345152
22
9.934312
32
-18.153048
13
-18.345152
23
9.934312
33
-18.153048
0
3DFACE
8
RoueArG
62
11.000000
10
-23.217930
20
9.934312
30
-14.379442
11
-18.345152
21
9.934312
31
-18.153048
12
-20.877619
22
9.934312
32
-18.474987
13
-20.877619
23
9.934312
33
-18.474987
0
3DFACE
8
RoueArG
62
11.000000
10
-23.217930
20
9.934312
30
-14.379442
11
-20.877619
21
9.934312
31
-18.474987
12
-22.895990
22
9.934312
32
-16.911909
13
-22.895990
23
9.934312
33
-16.911909
0
3DFACE
8
RoueAD
62
12.000000
10
20.759142
20
54.130943
30
-21.347967
11
15.468602
21
54.931271
31
-21.347967
12
18.769638
22
54.931271
32
-28.202642
13
21.964466
23
54.130943
33
-23.850849
0
3DFACE
8
RoueAD
62
12.000000
10
21.964466
20
54.130943
30
-23.850849
11
18.769638
21
54.931271
31
-28.202642
12
26.187000
22
54.931271
32
-29.895609
13
24.672806
23
54.130943
33
-24.469009
0
3DFACE
8
RoueAD
62
12.000000
10
24.672806
20
54.130943
30
-24.469009
11
26.187000
21
54.931271
31
-29.895609
12
32.135265
22
54.931271
32
-25.152025
13
26.844728
23
54.130943
33
-22.736961
0
3DFACE
8
RoueAD
62
12.000000
10
26.844728
20
54.130943
30
-22.736961
11
32.135265
21
54.931271
31
-25.152025
12
32.135265
22
54.931271
32
-17.543909
13
26.844728
23
54.130943
33
-19.958971
0
3DFACE
8
RoueAD
62
12.000000
10
26.844728
20
54.130943
30
-19.958971
11
32.135265
21
54.931271
31
-17.543909
12
26.187000
22
54.931271
32
-12.800324
13
24.672806
23
54.130943
33
-18.226923
0
3DFACE
8
RoueAD
62
12.000000
10
24.672806
20
54.130943
30
-18.226923
11
26.187000
21
54.931271
31
-12.800324
12
18.769638
22
54.931271
32
-14.493292
13
21.964466
23
54.130943
33
-18.845085
0
3DFACE
8
RoueAD
62
12.000000
10
21.964466
20
54.130943
30
-18.845085
11
18.769638
21
54.931271
31
-14.493292
12
15.468602
22
54.931271
32
-21.347967
13
20.759142
23
54.130943
33
-21.347967
0
3DFACE
8
RoueAD
62
12.000000
10
15.468602
20
54.931271
30
-21.347967
11
13.801934
21
51.729965
31
-21.347967
12
17.763178
22
51.729965
32
-29.573578
13
18.769638
23
54.931271
33
-28.202642
0
3DFACE
8
RoueAD
62
12.000000
10
18.769638
20
54.931271
30
-28.202642
11
17.763178
21
51.729965
31
-29.573578
12
26.664015
22
51.729965
32
-31.605139
13
26.187000
23
54.931271
33
-29.895609
0
3DFACE
8
RoueAD
62
12.000000
10
26.187000
20
54.931271
30
-29.895609
11
26.664015
21
51.729965
31
-31.605139
12
33.801933
22
51.729965
32
-25.912834
13
32.135265
23
54.931271
33
-25.152025
0
3DFACE
8
RoueAD
62
12.000000
10
32.135265
20
54.931271
30
-25.152025
11
33.801933
21
51.729965
31
-25.912834
12
33.801933
22
51.729965
32
-16.783098
13
32.135265
23
54.931271
33
-17.543909
0
3DFACE
8
RoueAD
62
12.000000
10
32.135265
20
54.931271
30
-17.543909
11
33.801933
21
51.729965
31
-16.783098
12
26.664015
22
51.729965
32
-11.090796
13
26.187000
23
54.931271
33
-12.800324
0
3DFACE
8
RoueAD
62
12.000000
10
26.187000
20
54.931271
30
-12.800324
11
26.664015
21
51.729965
31
-11.090796
12
17.763178
22
51.729965
32
-13.122357
13
18.769638
23
54.931271
33
-14.493292
0
3DFACE
8
RoueAD
62
12.000000
10
18.769638
20
54.931271
30
-14.493292
11
17.763178
21
51.729965
31
-13.122357
12
13.801934
22
51.729965
32
-21.347967
13
15.468602
23
54.931271
33
-21.347967
0
3DFACE
8
RoueAD
62
12.000000
10
13.801934
20
51.729965
30
-21.347967
11
15.468601
21
46.928005
31
-21.347967
12
18.769638
22
46.928005
32
-28.202642
13
17.763178
23
51.729965
33
-29.573578
0
3DFACE
8
RoueAD
62
12.000000
10
17.763178
20
51.729965
30
-29.573578
11
18.769638
21
46.928005
31
-28.202642
12
26.187000
22
46.928005
32
-29.895609
13
26.664015
23
51.729965
33
-31.605139
0
3DFACE
8
RoueAD
62
12.000000
10
26.664015
20
51.729965
30
-31.605139
11
26.187000
21
46.928005
31
-29.895609
12
32.135265
22
46.928005
32
-25.152025
13
33.801933
23
51.729965
33
-25.912834
0
3DFACE
8
RoueAD
62
12.000000
10
33.801933
20
51.729965
30
-25.912834
11
32.135265
21
46.928005
31
-25.152025
12
32.135265
22
46.928005
32
-17.543909
13
33.801933
23
51.729965
33
-16.783098
0
3DFACE
8
RoueAD
62
12.000000
10
33.801933
20
51.729965
30
-16.783098
11
32.135265
21
46.928005
31
-17.543909
12
26.187000
22
46.928005
32
-12.800324
13
26.664015
23
51.729965
33
-11.090796
0
3DFACE
8
RoueAD
62
12.000000
10
26.664015
20
51.729965
30
-11.090796
11
26.187000
21
46.928005
31
-12.800324
12
18.769638
22
46.928005
32
-14.493292
13
17.763178
23
51.729965
33
-13.122357
0
3DFACE
8
RoueAD
62
12.000000
10
17.763178
20
51.729965
30
-13.122357
11
18.769638
21
46.928005
31
-14.493292
12
15.468601
22
46.928005
32
-21.347967
13
13.801934
23
51.729965
33
-21.347967
0
3DFACE
8
RoueAD
62
12.000000
10
20.759142
20
54.130943
30
-21.347967
11
21.964466
21
54.130943
31
-23.850849
12
24.672806
22
54.130943
32
-24.469009
13
24.672806
23
54.130943
33
-24.469009
0
3DFACE
8
RoueAD
62
12.000000
10
20.759142
20
54.130943
30
-21.347967
11
24.672806
21
54.130943
31
-24.469009
12
26.844728
22
54.130943
32
-22.736961
13
26.844728
23
54.130943
33
-22.736961
0
3DFACE
8
RoueAD
62
12.000000
10
20.759142
20
54.130943
30
-21.347967
11
26.844728
21
54.130943
31
-22.736961
12
26.844728
22
54.130943
32
-19.958971
13
26.844728
23
54.130943
33
-19.958971
0
3DFACE
8
RoueAD
62
12.000000
10
20.759142
20
54.130943
30
-21.347967
11
26.844728
21
54.130943
31
-19.958971
12
24.672806
22
54.130943
32
-18.226923
13
24.672806
23
54.130943
33
-18.226923
0
3DFACE
8
RoueAD
62
12.000000
10
20.759142
20
54.130943
30
-21.347967
11
24.672806
21
54.130943
31
-18.226923
12
21.964466
22
54.130943
32
-18.845085
13
21.964466
23
54.130943
33
-18.845085
0
3DFACE
8
RoueAD
62
12.000000
10
18.769638
20
46.928005
30
-14.493292
11
26.187000
21
46.928005
31
-12.800324
12
32.135265
22
46.928005
32
-17.543909
13
32.135265
23
46.928005
33
-17.543909
0
3DFACE
8
RoueAD
62
12.000000
10
18.769638
20
46.928005
30
-14.493292
11
32.135265
21
46.928005
31
-17.543909
12
32.135265
22
46.928005
32
-25.152025
13
32.135265
23
46.928005
33
-25.152025
0
3DFACE
8
RoueAD
62
12.000000
10
18.769638
20
46.928005
30
-14.493292
11
32.135265
21
46.928005
31
-25.152025
12
26.187000
22
46.928005
32
-29.895609
13
26.187000
23
46.928005
33
-29.895609
0
3DFACE
8
RoueAD
62
12.000000
10
18.769638
20
46.928005
30
-14.493292
11
26.187000
21
46.928005
31
-29.895609
12
18.769638
22
46.928005
32
-28.202642
13
18.769638
23
46.928005
33
-28.202642
0
3DFACE
8
RoueAD
62
12.000000
10
18.769638
20
46.928005
30
-14.493292
11
18.769638
21
46.928005
31
-28.202642
12
15.468601
22
46.928005
32
-21.347967
13
15.468601
23
46.928005
33
-21.347967
0
3DFACE
8
RoueAG
62
13.000000
10
21.964466
20
13.215281
30
-23.850849
11
18.769638
21
12.414954
31
-28.202642
12
15.468602
22
12.414954
32
-21.347967
13
20.759142
23
13.215281
33
-21.347967
0
3DFACE
8
RoueAG
62
13.000000
10
24.672806
20
13.215281
30
-24.469009
11
26.187000
21
12.414954
31
-29.895609
12
18.769638
22
12.414954
32
-28.202642
13
21.964466
23
13.215281
33
-23.850849
0
3DFACE
8
RoueAG
62
13.000000
10
26.844728
20
13.215281
30
-22.736961
11
32.135265
21
12.414954
31
-25.152025
12
26.187000
22
12.414954
32
-29.895609
13
24.672806
23
13.215281
33
-24.469009
0
3DFACE
8
RoueAG
62
13.000000
10
26.844728
20
13.215281
30
-19.958971
11
32.135265
21
12.414954
31
-17.543909
12
32.135265
22
12.414954
32
-25.152025
13
26.844728
23
13.215281
33
-22.736961
0
3DFACE
8
RoueAG
62
13.000000
10
24.672806
20
13.215281
30
-18.226923
11
26.187000
21
12.414954
31
-12.800324
12
32.135265
22
12.414954
32
-17.543909
13
26.844728
23
13.215281
33
-19.958971
0
3DFACE
8
RoueAG
62
13.000000
10
21.964466
20
13.215281
30
-18.845085
11
18.769638
21
12.414954
31
-14.493292
12
26.187000
22
12.414954
32
-12.800324
13
24.672806
23
13.215281
33
-18.226923
0
3DFACE
8
RoueAG
62
13.000000
10
20.759142
20
13.215281
30
-21.347967
11
15.468602
21
12.414954
31
-21.347967
12
18.769638
22
12.414954
32
-14.493292
13
21.964466
23
13.215281
33
-18.845085
0
3DFACE
8
RoueAG
62
13.000000
10
18.769638
20
12.414954
30
-28.202642
11
17.763178
21
15.616261
31
-29.573578
12
13.801934
22
15.616261
32
-21.347967
13
15.468602
23
12.414954
33
-21.347967
0
3DFACE
8
RoueAG
62
13.000000
10
26.187000
20
12.414954
30
-29.895609
11
26.664015
21
15.616261
31
-31.605139
12
17.763178
22
15.616261
32
-29.573578
13
18.769638
23
12.414954
33
-28.202642
0
3DFACE
8
RoueAG
62
13.000000
10
32.135265
20
12.414954
30
-25.152025
11
33.801933
21
15.616261
31
-25.912834
12
26.664015
22
15.616261
32
-31.605139
13
26.187000
23
12.414954
33
-29.895609
0
3DFACE
8
RoueAG
62
13.000000
10
32.135265
20
12.414954
30
-17.543909
11
33.801933
21
15.616261
31
-16.783098
12
33.801933
22
15.616261
32
-25.912834
13
32.135265
23
12.414954
33
-25.152025
0
3DFACE
8
RoueAG
62
13.000000
10
26.187000
20
12.414954
30
-12.800324
11
26.664015
21
15.616261
31
-11.090796
12
33.801933
22
15.616261
32
-16.783098
13
32.135265
23
12.414954
33
-17.543909
0
3DFACE
8
RoueAG
62
13.000000
10
18.769638
20
12.414954
30
-14.493292
11
17.763178
21
15.616261
31
-13.122357
12
26.664015
22
15.616261
32
-11.090796
13
26.187000
23
12.414954
33
-12.800324
0
3DFACE
8
RoueAG
62
13.000000
10
15.468602
20
12.414954
30
-21.347967
11
13.801934
21
15.616261
31
-21.347967
12
17.763178
22
15.616261
32
-13.122357
13
18.769638
23
12.414954
33
-14.493292
0
3DFACE
8
RoueAG
62
13.000000
10
17.763178
20
15.616261
30
-29.573578
11
18.769638
21
20.418221
31
-28.202642
12
15.468601
22
20.418221
32
-21.347967
13
13.801934
23
15.616261
33
-21.347967
0
3DFACE
8
RoueAG
62
13.000000
10
26.664015
20
15.616261
30
-31.605139
11
26.187000
21
20.418221
31
-29.895609
12
18.769638
22
20.418221
32
-28.202642
13
17.763178
23
15.616261
33
-29.573578
0
3DFACE
8
RoueAG
62
13.000000
10
33.801933
20
15.616261
30
-25.912834
11
32.135265
21
20.418221
31
-25.152025
12
26.187000
22
20.418221
32
-29.895609
13
26.664015
23
15.616261
33
-31.605139
0
3DFACE
8
RoueAG
62
13.000000
10
33.801933
20
15.616261
30
-16.783098
11
32.135265
21
20.418221
31
-17.543909
12
32.135265
22
20.418221
32
-25.152025
13
33.801933
23
15.616261
33
-25.912834
0
3DFACE
8
RoueAG
62
13.000000
10
26.664015
20
15.616261
30
-11.090796
11
26.187000
21
20.418221
31
-12.800324
12
32.135265
22
20.418221
32
-17.543909
13
33.801933
23
15.616261
33
-16.783098
0
3DFACE
8
RoueAG
62
13.000000
10
17.763178
20
15.616261
30
-13.122357
11
18.769638
21
20.418221
31
-14.493292
12
26.187000
22
20.418221
32
-12.800324
13
26.664015
23
15.616261
33
-11.090796
0
3DFACE
8
RoueAG
62
13.000000
10
13.801934
20
15.616261
30
-21.347967
11
15.468601
21
20.418221
31
-21.347967
12
18.769638
22
20.418221
32
-14.493292
13
17.763178
23
15.616261
33
-13.122357
0
3DFACE
8
RoueAG
62
13.000000
10
21.964466
20
13.215281
30
-18.845085
11
24.672806
21
13.215281
31
-18.226923
12
26.844728
22
13.215281
32
-19.958971
13
26.844728
23
13.215281
33
-19.958971
0
3DFACE
8
RoueAG
62
13.000000
10
21.964466
20
13.215281
30
-18.845085
11
26.844728
21
13.215281
31
-19.958971
12
26.844728
22
13.215281
32
-22.736961
13
26.844728
23
13.215281
33
-22.736961
0
3DFACE
8
RoueAG
62
13.000000
10
21.964466
20
13.215281
30
-18.845085
11
26.844728
21
13.215281
31
-22.736961
12
24.672806
22
13.215281
32
-24.469009
13
24.672806
23
13.215281
33
-24.469009
0
3DFACE
8
RoueAG
62
13.000000
10
21.964466
20
13.215281
30
-18.845085
11
24.672806
21
13.215281
31
-24.469009
12
21.964466
22
13.215281
32
-23.850849
13
21.964466
23
13.215281
33
-23.850849
0
3DFACE
8
RoueAG
62
13.000000
10
21.964466
20
13.215281
30
-18.845085
11
21.964466
21
13.215281
31
-23.850849
12
20.759142
22
13.215281
32
-21.347967
13
20.759142
23
13.215281
33
-21.347967
0
3DFACE
8
RoueAG
62
13.000000
10
15.468601
20
20.418221
30
-21.347967
11
18.769638
21
20.418221
31
-28.202642
12
26.187000
22
20.418221
32
-29.895609
13
26.187000
23
20.418221
33
-29.895609
0
3DFACE
8
RoueAG
62
13.000000
10
15.468601
20
20.418221
30
-21.347967
11
26.187000
21
20.418221
31
-29.895609
12
32.135265
22
20.418221
32
-25.152025
13
32.135265
23
20.418221
33
-25.152025
0
3DFACE
8
RoueAG
62
13.000000
10
15.468601
20
20.418221
30
-21.347967
11
32.135265
21
20.418221
31
-25.152025
12
32.135265
22
20.418221
32
-17.543909
13
32.135265
23
20.418221
33
-17.543909
0
3DFACE
8
RoueAG
62
13.000000
10
15.468601
20
20.418221
30
-21.347967
11
32.135265
21
20.418221
31
-17.543909
12
26.187000
22
20.418221
32
-12.800324
13
26.187000
23
20.418221
33
-12.800324
0
3DFACE
8
RoueAG
62
13.000000
10
15.468601
20
20.418221
30
-21.347967
11
26.187000
21
20.418221
31
-12.800324
12
18.769638
22
20.418221
32
-14.493292
13
18.769638
23
20.418221
33
-14.493292
0
ENDSEC
0
EOF
