0
SECTION
2
ENTITIES
0
3DFACE
8
Usine
62
1.000000
10
163.891663
20
-203.004166
30
122.099625
11
148.438553
21
-177.394928
31
-18.000002
12
-299.687836
22
-177.394928
32
-18.000002
13
-314.674988
23
-203.004166
33
122.099625
0
3DFACE
8
Usine
62
1.000000
10
-314.674988
20
-203.004166
30
122.099625
11
-299.687836
21
-177.394928
31
-18.000002
12
-299.687836
22
249.953278
32
-18.000002
13
-314.674988
23
275.562531
33
122.099625
0
3DFACE
8
Usine
62
1.000000
10
-314.674988
20
275.562531
30
122.099625
11
-299.687836
21
249.953278
31
-18.000002
12
148.438553
22
249.953278
32
-18.000002
13
163.891663
23
275.562531
33
122.099625
0
3DFACE
8
Usine
62
1.000000
10
163.891663
20
275.562531
30
122.099625
11
148.438553
21
249.953278
31
-18.000002
12
148.438553
22
-177.394928
32
-18.000002
13
163.891663
23
-203.004166
33
122.099625
0
3DFACE
8
Usine
62
1.000000
10
-50.975071
20
-203.004135
30
79.666672
11
-50.975071
21
-203.004135
31
106.525002
12
110.174988
22
-203.004120
32
106.525002
13
110.174988
23
-203.004120
33
79.666672
0
3DFACE
8
Usine
62
1.000000
10
-287.816681
20
-203.004166
30
77.224991
11
-287.816681
21
-203.004166
31
106.525002
12
-102.250008
22
-203.004135
32
106.525002
13
-102.250008
23
-203.004135
33
77.224991
0
3DFACE
8
Usine
62
1.000000
10
-299.687836
20
16.656042
30
-15.558333
11
-299.687836
21
149.657211
31
-15.558333
12
-314.674988
22
163.245789
32
91.875000
13
-314.674988
23
14.304169
33
91.875000
0
3DFACE
8
Usine
62
1.000000
10
-322.000000
20
163.245789
30
91.875000
11
-306.546906
21
149.657211
31
-15.558333
12
-306.546906
22
234.690842
32
-15.558333
13
-322.000000
23
258.470856
33
91.875023
0
3DFACE
8
Usine
62
1.000000
10
-306.546906
20
-57.475796
30
-15.558333
11
-306.546906
21
16.656042
31
-15.558333
12
-322.000000
22
14.304169
32
91.875000
13
-322.000000
23
-68.712494
33
91.875023
0
3DFACE
8
Usine
62
1.000000
10
-99.808281
20
275.562531
30
67.458321
11
-99.808281
21
275.562531
31
94.316666
12
-260.958344
22
275.562531
32
94.316666
13
-260.958344
23
275.562531
33
67.458321
0
3DFACE
8
Usine
62
1.000000
10
137.033340
20
275.562531
30
65.016655
11
137.033340
21
275.562531
31
94.316666
12
-48.533337
22
275.562531
32
94.316666
13
-48.533337
23
275.562531
33
65.016655
0
3DFACE
8
Usine
62
1.000000
10
-85.158333
20
278.004181
30
122.099625
11
-85.158333
21
-203.004166
31
122.099625
12
-85.158333
22
-203.004166
32
227.091354
13
-85.158333
23
278.004181
33
227.091354
0
3DFACE
8
Usine
62
1.000000
10
163.891663
20
-203.004166
30
122.099625
11
163.891663
21
-203.004166
31
227.091354
12
163.891663
22
278.004181
32
227.091354
13
163.891663
23
278.004181
33
122.099625
0
3DFACE
8
Usine
62
1.000000
10
-85.158333
20
278.004181
30
122.099625
11
163.891663
21
278.004181
31
227.091354
12
163.891663
22
-203.004166
32
227.091354
13
-85.158333
23
-203.004166
33
122.099625
0
3DFACE
8
Usine
62
1.000000
10
-314.674988
20
-203.004166
30
122.099625
11
-314.674988
21
275.562531
31
122.099625
12
-85.158333
22
278.004181
32
227.091354
13
-85.158333
23
-203.004166
33
227.091354
0
3DFACE
8
Usine
62
1.000000
10
-85.158333
20
278.004181
30
122.099625
11
-85.158333
21
278.004181
31
227.091354
12
-314.674988
22
275.562531
32
122.099625
13
-314.674988
23
275.562531
33
122.099625
0
3DFACE
8
Usine
62
1.000000
10
163.891663
20
275.562531
30
122.099625
11
163.891663
21
278.004181
31
227.091354
12
-85.158333
22
278.004181
32
122.099625
13
-85.158333
23
278.004181
33
122.099625
0
3DFACE
8
Usine
62
1.000000
10
-85.158333
20
-203.004166
30
122.099625
11
-314.674988
21
-203.004166
31
122.099625
12
-85.158333
22
-203.004166
32
227.091354
13
-85.158333
23
-203.004166
33
227.091354
0
3DFACE
8
Usine
62
1.000000
10
163.891663
20
-203.004166
30
122.099625
11
-85.158333
21
-203.004166
31
122.099625
12
163.891663
22
-203.004166
32
227.091354
13
163.891663
23
-203.004166
33
227.091354
0
3DFACE
8
Cheminee
62
2.000000
10
178.541656
20
-156.612503
30
-18.000002
11
191.970825
21
-133.352509
31
-18.000002
12
189.529160
22
-129.123398
32
35.716663
13
173.658325
23
-156.612503
33
35.716663
0
3DFACE
8
Cheminee
62
2.000000
10
191.970825
20
-133.352509
30
-18.000002
11
218.829163
21
-133.352509
31
-18.000002
12
221.270828
22
-129.123398
32
35.716663
13
189.529160
23
-129.123398
33
35.716663
0
3DFACE
8
Cheminee
62
2.000000
10
218.829163
20
-133.352509
30
-18.000002
11
232.258316
21
-156.612503
31
-18.000002
12
237.141663
22
-156.612503
32
35.716663
13
221.270828
23
-129.123398
33
35.716663
0
3DFACE
8
Cheminee
62
2.000000
10
232.258316
20
-156.612503
30
-18.000002
11
218.829163
21
-179.872513
31
-18.000002
12
221.270828
22
-184.101593
32
35.716663
13
237.141663
23
-156.612503
33
35.716663
0
3DFACE
8
Cheminee
62
2.000000
10
218.829163
20
-179.872513
30
-18.000002
11
191.970825
21
-179.872513
31
-18.000002
12
189.529175
22
-184.101593
32
35.716663
13
221.270828
23
-184.101593
33
35.716663
0
3DFACE
8
Cheminee
62
2.000000
10
191.970825
20
-179.872513
30
-18.000002
11
178.541656
21
-156.612503
31
-18.000002
12
173.658325
22
-156.612503
32
35.716663
13
189.529175
23
-184.101593
33
35.716663
0
3DFACE
8
Cheminee
62
2.000000
10
173.658325
20
-156.612503
30
35.716663
11
189.529160
21
-129.123398
31
35.716663
12
193.191666
22
-123.258713
32
201.749985
13
180.983353
23
-144.404175
33
201.749985
0
3DFACE
8
Cheminee
62
2.000000
10
189.529160
20
-129.123398
30
35.716663
11
221.270828
21
-129.123398
31
35.716663
12
217.608353
22
-123.258713
32
201.749985
13
193.191666
23
-123.258713
33
201.749985
0
3DFACE
8
Cheminee
62
2.000000
10
221.270828
20
-129.123398
30
35.716663
11
237.141663
21
-156.612503
31
35.716663
12
229.816666
22
-144.404175
32
201.749985
13
217.608353
23
-123.258713
33
201.749985
0
3DFACE
8
Cheminee
62
2.000000
10
237.141663
20
-156.612503
30
35.716663
11
221.270828
21
-184.101593
31
35.716663
12
217.608353
22
-165.549622
32
201.749985
13
229.816666
23
-144.404175
33
201.749985
0
3DFACE
8
Cheminee
62
2.000000
10
221.270828
20
-184.101593
30
35.716663
11
189.529175
21
-184.101593
31
35.716663
12
193.191666
22
-165.549622
32
201.749985
13
217.608353
23
-165.549622
33
201.749985
0
3DFACE
8
Cheminee
62
2.000000
10
189.529175
20
-184.101593
30
35.716663
11
173.658325
21
-156.612503
31
35.716663
12
180.983353
22
-144.404175
32
201.749985
13
193.191666
23
-165.549622
33
201.749985
0
3DFACE
8
Cheminee
62
2.000000
10
180.983353
20
-144.404175
30
201.749985
11
193.191666
21
-123.258713
31
201.749985
12
207.841660
22
-132.371140
32
399.524963
13
198.074982
23
-149.287506
33
399.524963
0
3DFACE
8
Cheminee
62
2.000000
10
193.191666
20
-123.258713
30
201.749985
11
217.608353
21
-123.258713
31
201.749985
12
227.375000
22
-132.371140
32
399.524963
13
207.841660
23
-132.371140
33
399.524963
0
3DFACE
8
Cheminee
62
2.000000
10
217.608353
20
-123.258713
30
201.749985
11
229.816666
21
-144.404175
31
201.749985
12
237.141663
22
-149.287506
32
399.524963
13
227.375000
23
-132.371140
33
399.524963
0
3DFACE
8
Cheminee
62
2.000000
10
229.816666
20
-144.404175
30
201.749985
11
217.608353
21
-165.549622
31
201.749985
12
227.375000
22
-166.203873
32
399.524963
13
237.141663
23
-149.287506
33
399.524963
0
3DFACE
8
Cheminee
62
2.000000
10
217.608353
20
-165.549622
30
201.749985
11
193.191666
21
-165.549622
31
201.749985
12
207.841660
22
-166.203873
32
399.524963
13
227.375000
23
-166.203873
33
399.524963
0
3DFACE
8
Cheminee
62
2.000000
10
193.191666
20
-165.549622
30
201.749985
11
180.983353
21
-144.404175
31
201.749985
12
198.074982
22
-149.287506
32
399.524963
13
207.841660
23
-166.203873
33
399.524963
0
3DFACE
8
Cheminee
62
2.000000
10
207.841660
20
-132.371140
30
399.524963
11
227.375000
21
-132.371140
31
399.524963
12
240.804169
22
-109.111122
32
411.733368
13
194.412506
23
-109.111122
33
411.733368
0
3DFACE
8
Cheminee
62
2.000000
10
227.375000
20
-132.371140
30
399.524963
11
237.141663
21
-149.287506
31
399.524963
12
264.000000
22
-149.287506
32
411.733368
13
240.804169
23
-109.111122
33
411.733368
0
3DFACE
8
Cheminee
62
2.000000
10
237.141663
20
-149.287506
30
399.524963
11
227.375000
21
-166.203873
31
399.524963
12
240.804169
22
-189.463898
32
411.733368
13
264.000000
23
-149.287506
33
411.733368
0
3DFACE
8
Cheminee
62
2.000000
10
227.375000
20
-166.203873
30
399.524963
11
207.841660
21
-166.203873
31
399.524963
12
194.412506
22
-189.463898
32
411.733368
13
240.804169
23
-189.463898
33
411.733368
0
3DFACE
8
Cheminee
62
2.000000
10
207.841660
20
-166.203873
30
399.524963
11
198.074982
21
-149.287506
31
399.524963
12
171.216644
22
-149.287506
32
411.733368
13
194.412506
23
-189.463898
33
411.733368
0
3DFACE
8
Cheminee
62
2.000000
10
198.074982
20
-149.287506
30
399.524963
11
207.841660
21
-132.371140
31
399.524963
12
194.412506
22
-109.111122
32
411.733368
13
171.216644
23
-149.287506
33
411.733368
0
3DFACE
8
Cheminee
62
2.000000
10
194.412506
20
-109.111122
30
411.733368
11
240.804169
21
-109.111122
31
411.733368
12
233.479172
22
-121.798393
32
445.916656
13
201.737488
23
-121.798393
33
445.916656
0
3DFACE
8
Cheminee
62
2.000000
10
240.804169
20
-109.111122
30
411.733368
11
264.000000
21
-149.287506
31
411.733368
12
249.350021
22
-149.287506
32
445.916656
13
233.479172
23
-121.798393
33
445.916656
0
3DFACE
8
Cheminee
62
2.000000
10
264.000000
20
-149.287506
30
411.733368
11
240.804169
21
-189.463898
31
411.733368
12
233.479172
22
-176.776611
32
445.916656
13
249.350021
23
-149.287506
33
445.916656
0
3DFACE
8
Cheminee
62
2.000000
10
240.804169
20
-189.463898
30
411.733368
11
194.412506
21
-189.463898
31
411.733368
12
201.737488
22
-176.776611
32
445.916656
13
233.479172
23
-176.776611
33
445.916656
0
3DFACE
8
Cheminee
62
2.000000
10
194.412506
20
-189.463898
30
411.733368
11
171.216644
21
-149.287506
31
411.733368
12
185.866653
22
-149.287506
32
445.916656
13
201.737488
23
-176.776611
33
445.916656
0
3DFACE
8
Cheminee
62
2.000000
10
171.216644
20
-149.287506
30
411.733368
11
194.412506
21
-109.111122
31
411.733368
12
201.737488
22
-121.798393
32
445.916656
13
185.866653
23
-149.287506
33
445.916656
0
3DFACE
8
Cheminee
62
2.000000
10
201.737488
20
-121.798393
30
445.916656
11
233.479172
21
-121.798393
31
445.916656
12
249.350021
22
-149.287506
32
445.916656
13
249.350021
23
-149.287506
33
445.916656
0
3DFACE
8
Cheminee
62
2.000000
10
201.737488
20
-121.798393
30
445.916656
11
249.350021
21
-149.287506
31
445.916656
12
233.479172
22
-176.776611
32
445.916656
13
233.479172
23
-176.776611
33
445.916656
0
3DFACE
8
Cheminee
62
2.000000
10
201.737488
20
-121.798393
30
445.916656
11
233.479172
21
-176.776611
31
445.916656
12
201.737488
22
-176.776611
32
445.916656
13
201.737488
23
-176.776611
33
445.916656
0
3DFACE
8
Cheminee
62
2.000000
10
201.737488
20
-121.798393
30
445.916656
11
201.737488
21
-176.776611
31
445.916656
12
185.866653
22
-149.287506
32
445.916656
13
185.866653
23
-149.287506
33
445.916656
0
ENDSEC
0
EOF
