0
SECTION
2
ENTITIES
0
3DFACE
8
ProfG
62
1.000000
10
-39.859409
20
-19.484455
30
19.848457
11
-43.117661
21
-15.854483
31
19.848457
12
-43.813042
22
-9.543941
32
19.848457
13
-43.813042
23
-9.543941
33
19.848457
0
3DFACE
8
ProfG
62
1.000000
10
-39.859409
20
-19.484455
30
19.848457
11
-43.813042
21
-9.543941
31
19.848457
12
-44.285885
22
-2.561666
32
19.848457
13
-44.285885
23
-2.561666
33
19.848457
0
3DFACE
8
ProfG
62
1.000000
10
-39.859409
20
-19.484455
30
19.848457
11
-44.285885
21
-2.561666
31
19.848457
12
-39.891109
22
-2.239617
32
19.848457
13
-39.891109
23
-2.239617
33
19.848457
0
3DFACE
8
ProfG
62
1.000000
10
-44.053017
20
-2.524091
30
19.212511
11
-43.624146
21
-9.660805
31
19.212511
12
-42.993458
22
-15.808272
32
19.212511
13
-42.993458
23
-15.808272
33
19.212511
0
3DFACE
8
ProfG
62
1.000000
10
-44.053017
20
-2.524091
30
19.212511
11
-42.993458
21
-15.808272
31
19.212511
12
-39.797184
22
-19.429625
32
19.212511
13
-39.797184
23
-19.429625
33
19.212511
0
3DFACE
8
ProfG
62
1.000000
10
-44.053017
20
-2.524091
30
19.212511
11
-39.797184
21
-19.429625
31
19.212511
12
-39.925728
22
-2.241449
32
19.212511
13
-39.925728
23
-2.241449
33
19.212511
0
3DFACE
8
ProfG
62
1.000000
10
-42.993458
20
-15.808272
30
19.212511
11
-43.302067
21
-15.880025
31
19.565813
12
-39.760952
22
-19.691517
32
19.565813
13
-39.797184
23
-19.429625
33
19.212511
0
3DFACE
8
ProfG
62
1.000000
10
-43.624146
20
-9.660805
30
19.212511
11
-44.093494
21
-9.537593
31
19.565813
12
-43.302067
22
-15.880025
32
19.565813
13
-42.993458
23
-15.808272
33
19.212511
0
3DFACE
8
ProfG
62
1.000000
10
-44.053017
20
-2.524091
30
19.212511
11
-44.631664
21
-2.338119
31
19.565813
12
-44.093494
22
-9.537593
32
19.565813
13
-43.624146
23
-9.660805
33
19.212511
0
3DFACE
8
ProfG
62
1.000000
10
-39.925728
20
-2.241449
30
19.212511
11
-39.629848
21
-2.085549
31
19.565813
12
-44.631664
22
-2.338119
32
19.565813
13
-44.053017
23
-2.524091
33
19.212511
0
3DFACE
8
ProfG
62
1.000000
10
-43.302067
20
-15.880025
30
19.565813
11
-43.117661
21
-15.854483
31
19.848457
12
-39.859409
22
-19.484455
32
19.848457
13
-39.760952
23
-19.691517
33
19.565813
0
3DFACE
8
ProfG
62
1.000000
10
-44.093494
20
-9.537593
30
19.565813
11
-43.813042
21
-9.543941
31
19.848457
12
-43.117661
22
-15.854483
32
19.848457
13
-43.302067
23
-15.880025
33
19.565813
0
3DFACE
8
ProfG
62
1.000000
10
-44.631664
20
-2.338119
30
19.565813
11
-44.285885
21
-2.561666
31
19.848457
12
-43.813042
22
-9.543941
32
19.848457
13
-44.093494
23
-9.537593
33
19.565813
0
3DFACE
8
ProfG
62
1.000000
10
-39.629848
20
-2.085549
30
19.565813
11
-39.891109
21
-2.239617
31
19.848457
12
-44.285885
22
-2.561666
32
19.848457
13
-44.631664
23
-2.338119
33
19.565813
0
3DFACE
8
StabG
62
2.000000
10
-39.987026
20
-2.065181
30
19.548147
11
-39.894855
21
-19.619713
31
19.548147
12
-39.573814
22
-19.376627
32
19.212511
13
-39.662136
23
-2.365104
33
19.212511
0
3DFACE
8
StabG
62
2.000000
10
-39.894855
20
-19.619713
30
19.548147
11
-37.572277
21
-20.983772
31
19.548147
12
-37.348000
22
-20.683849
32
19.212511
13
-39.573814
23
-19.376627
33
19.212511
0
3DFACE
8
StabG
62
2.000000
10
-37.572277
20
-20.983772
30
19.548147
11
-34.567665
21
-20.983772
31
19.548147
12
-34.468586
22
-20.683849
32
19.212511
13
-37.348000
23
-20.683849
33
19.212511
0
3DFACE
8
StabG
62
2.000000
10
-34.567665
20
-20.983772
30
19.548147
11
-32.189785
21
-19.933079
31
19.548147
12
-32.189785
22
-19.676939
32
19.212511
13
-34.468586
23
-20.683849
33
19.212511
0
3DFACE
8
StabG
62
2.000000
10
-32.189785
20
-19.933079
30
19.548147
11
-24.392548
21
-3.576703
31
19.548147
12
-24.717436
22
-3.813646
32
19.212511
13
-32.189785
23
-19.676939
33
19.212511
0
3DFACE
8
StabG
62
2.000000
10
-39.785374
20
-2.251339
30
19.795460
11
-39.695580
21
-19.468838
31
19.795460
12
-39.894855
22
-19.619713
32
19.548147
13
-39.987026
23
-2.065181
33
19.548147
0
3DFACE
8
StabG
62
2.000000
10
-39.695580
20
-19.468838
30
19.795460
11
-37.433075
21
-20.797613
31
19.795460
12
-37.572277
22
-20.983772
32
19.548147
13
-39.894855
23
-19.619713
33
19.548147
0
3DFACE
8
StabG
62
2.000000
10
-37.433075
20
-20.797613
30
19.795460
11
-34.506172
21
-20.797613
31
19.795460
12
-34.567665
22
-20.983772
32
19.548147
13
-37.572277
23
-20.983772
33
19.548147
0
3DFACE
8
StabG
62
2.000000
10
-34.506172
20
-20.797613
30
19.795460
11
-32.189785
21
-19.774097
31
19.795460
12
-32.189785
22
-19.933079
32
19.548147
13
-34.567665
23
-20.983772
33
19.548147
0
3DFACE
8
StabG
62
2.000000
10
-32.189785
20
-19.774097
30
19.795460
11
-24.594200
21
-3.723770
31
19.795460
12
-24.392548
22
-3.576703
32
19.548147
13
-32.189785
23
-19.933079
33
19.548147
0
3DFACE
8
StabG
62
2.000000
10
-24.594200
20
-3.723770
30
19.795460
11
-32.189785
21
-19.774097
31
19.795460
12
-34.506172
22
-20.797613
32
19.795460
13
-34.506172
23
-20.797613
33
19.795460
0
3DFACE
8
StabG
62
2.000000
10
-24.594200
20
-3.723770
30
19.795460
11
-34.506172
21
-20.797613
31
19.795460
12
-37.433075
22
-20.797613
32
19.795460
13
-37.433075
23
-20.797613
33
19.795460
0
3DFACE
8
StabG
62
2.000000
10
-24.594200
20
-3.723770
30
19.795460
11
-37.433075
21
-20.797613
31
19.795460
12
-39.695580
22
-19.468838
32
19.795460
13
-39.695580
23
-19.468838
33
19.795460
0
3DFACE
8
StabG
62
2.000000
10
-24.594200
20
-3.723770
30
19.795460
11
-39.695580
21
-19.468838
31
19.795460
12
-39.785374
22
-2.251339
32
19.795460
13
-39.785374
23
-2.251339
33
19.795460
0
3DFACE
8
StabG
62
2.000000
10
-39.662136
20
-2.365104
30
19.212511
11
-39.573814
21
-19.376627
31
19.212511
12
-37.348000
22
-20.683849
32
19.212511
13
-37.348000
23
-20.683849
33
19.212511
0
3DFACE
8
StabG
62
2.000000
10
-39.662136
20
-2.365104
30
19.212511
11
-37.348000
21
-20.683849
31
19.212511
12
-34.468586
22
-20.683849
32
19.212511
13
-34.468586
23
-20.683849
33
19.212511
0
3DFACE
8
StabG
62
2.000000
10
-39.662136
20
-2.365104
30
19.212511
11
-34.468586
21
-20.683849
31
19.212511
12
-32.189785
22
-19.676939
32
19.212511
13
-32.189785
23
-19.676939
33
19.212511
0
3DFACE
8
StabG
62
2.000000
10
-39.662136
20
-2.365104
30
19.212511
11
-32.189785
21
-19.676939
31
19.212511
12
-24.717436
22
-3.813646
32
19.212511
13
-24.717436
23
-3.813646
33
19.212511
0
3DFACE
8
AileD1
62
3.000000
10
12.573654
20
7.228375
30
17.417505
11
14.075192
21
7.228375
31
18.742393
12
12.149958
22
11.591662
32
18.747242
13
10.854654
23
11.591662
33
17.604326
0
3DFACE
8
AileD1
62
3.000000
10
10.854654
20
11.591662
30
17.604326
11
12.149958
21
11.591662
31
18.747242
12
11.275554
22
29.362783
32
18.754787
13
10.300992
23
29.362783
33
17.894880
0
3DFACE
8
AileD1
62
3.000000
10
-4.108766
20
29.362783
30
17.126698
11
-6.920103
21
29.362783
31
17.998070
12
-4.796693
22
29.362783
32
19.305130
13
-4.796693
23
29.362783
33
19.305130
0
3DFACE
8
AileD1
62
3.000000
10
-4.796693
20
29.362783
30
19.305130
11
-5.013621
21
11.591662
31
19.478708
12
-4.099288
22
11.591662
32
16.583319
13
-4.108766
23
29.362783
33
17.126698
0
3DFACE
8
AileD1
62
3.000000
10
-10.320623
20
11.591662
30
17.741478
11
-4.099288
21
11.591662
31
16.583319
12
-5.013621
22
11.591662
32
19.478708
13
-5.013621
23
11.591662
33
19.478708
0
3DFACE
8
AileD1
62
3.000000
10
14.075192
20
7.228375
30
18.742393
11
12.379338
21
7.228375
31
20.226261
12
10.687027
22
11.591662
32
20.027308
13
12.149958
23
11.591662
33
18.747242
0
3DFACE
8
AileD1
62
3.000000
10
12.379338
20
7.228375
30
20.226261
11
4.059062
21
6.733751
31
21.321499
12
3.783815
22
11.591662
32
20.972120
13
10.687027
23
11.591662
33
20.027308
0
3DFACE
8
AileD1
62
3.000000
10
4.059062
20
6.733751
30
21.321499
11
-5.550770
21
6.009481
31
19.590315
12
-5.013621
22
11.591662
32
19.478708
13
3.783815
23
11.591662
33
20.972120
0
3DFACE
8
AileD1
62
3.000000
10
-5.550770
20
6.009481
30
19.590315
11
-11.892553
21
5.196885
31
17.576488
12
-10.320623
22
11.591662
32
17.741478
13
-5.013621
23
11.591662
33
19.478708
0
3DFACE
8
AileD1
62
3.000000
10
-11.892553
20
5.196885
30
17.576488
11
-4.490862
21
6.009481
31
16.233942
12
-4.099288
22
11.591662
32
16.583319
13
-10.320623
23
11.591662
33
17.741478
0
3DFACE
8
AileD1
62
3.000000
10
-4.490862
20
6.009481
30
16.233942
11
5.048308
21
6.733751
31
16.622572
12
4.637191
22
11.591662
32
16.918577
13
-4.099288
23
11.591662
33
16.583319
0
3DFACE
8
AileD1
62
3.000000
10
5.048308
20
6.733751
30
16.622572
11
12.573654
21
7.228375
31
17.417505
12
10.854654
22
11.591662
32
17.604326
13
4.637191
23
11.591662
33
16.918577
0
3DFACE
8
AileD1
62
3.000000
10
12.149958
20
11.591662
30
18.747242
11
10.687027
21
11.591662
31
20.027308
12
10.174870
22
29.362783
32
19.717886
13
11.275554
23
29.362783
33
18.754787
0
3DFACE
8
AileD1
62
3.000000
10
10.687027
20
11.591662
30
20.027308
11
3.783815
21
11.591662
31
20.972120
12
4.981026
22
29.362783
32
20.428745
13
10.174870
23
29.362783
33
19.717886
0
3DFACE
8
AileD1
62
3.000000
10
3.783815
20
11.591662
30
20.972120
11
-5.013621
21
11.591662
31
19.478708
12
-4.796693
22
29.362783
32
19.305130
13
4.981026
23
29.362783
33
20.428745
0
3DFACE
8
AileD1
62
3.000000
10
-4.099288
20
11.591662
30
16.583319
11
4.637191
21
11.591662
31
16.918577
12
5.623089
22
29.362783
32
17.378937
13
-4.108766
23
29.362783
33
17.126698
0
3DFACE
8
AileD1
62
3.000000
10
4.637191
20
11.591662
30
16.918577
11
10.854654
21
11.591662
31
17.604326
12
10.300992
22
29.362783
32
17.894880
13
5.623089
23
29.362783
33
17.378937
0
3DFACE
8
Moyeux
62
4.000000
10
46.243393
20
-1.093484
30
24.385075
11
46.243393
21
1.233364
31
24.386713
12
46.950001
22
0.054750
32
21.611649
13
46.950001
23
0.054750
33
21.611649
0
3DFACE
8
Moyeux
62
4.000000
10
46.243393
20
-2.736020
30
20.411741
11
46.243393
21
-2.737657
31
22.738586
12
46.950001
22
0.054750
32
21.611649
13
46.950001
23
0.054750
33
21.611649
0
3DFACE
8
Moyeux
62
4.000000
10
46.950001
20
0.054750
30
21.611649
11
46.243393
21
-1.089532
31
18.767567
12
46.243393
22
-2.736020
32
20.411741
13
46.243393
23
-2.736020
33
20.411741
0
3DFACE
8
Moyeux
62
4.000000
10
46.243393
20
1.237316
30
18.769203
11
46.243393
21
-1.089532
31
18.767567
12
46.950001
22
0.054750
32
21.611649
13
46.950001
23
0.054750
33
21.611649
0
3DFACE
8
Moyeux
62
4.000000
10
46.243393
20
1.237316
30
18.769203
11
46.950001
21
0.054750
31
21.611649
12
46.243393
22
2.881488
32
20.415695
13
46.243393
23
2.881488
33
20.415695
0
3DFACE
8
Moyeux
62
4.000000
10
46.243393
20
2.879851
30
22.742540
11
46.243393
21
2.881488
31
20.415695
12
46.950001
22
0.054750
32
21.611649
13
46.950001
23
0.054750
33
21.611649
0
3DFACE
8
Moyeux
62
4.000000
10
46.950001
20
0.054750
30
21.611649
11
46.243393
21
1.233364
31
24.386713
12
46.243393
22
2.879851
32
22.742540
13
46.243393
23
2.879851
33
22.742540
0
3DFACE
8
Moyeux
62
4.000000
10
46.950001
20
0.054750
30
21.611649
11
46.243393
21
-2.737657
31
22.738586
12
46.243393
22
-1.093484
32
24.385075
13
46.243393
23
-1.093484
33
24.385075
0
3DFACE
8
Moyeux
62
4.000000
10
44.282566
20
-6.872500
30
24.447891
11
44.282566
21
-2.808601
31
28.517511
12
46.243393
22
-1.093484
32
24.385075
13
46.243393
23
-2.737657
33
22.738586
0
3DFACE
8
Moyeux
62
4.000000
10
44.282566
20
-2.808601
30
28.517511
11
44.282566
21
2.942666
31
28.521557
12
46.243393
22
1.233364
32
24.386713
13
46.243393
23
-1.093484
33
24.385075
0
3DFACE
8
Moyeux
62
4.000000
10
44.282566
20
2.942666
30
28.521557
11
44.282566
21
7.012285
31
24.457657
12
46.243393
22
2.879851
32
22.742540
13
46.243393
23
1.233364
33
24.386713
0
3DFACE
8
Moyeux
62
4.000000
10
44.282566
20
7.012285
30
24.457657
11
44.282566
21
7.016332
31
18.706388
12
46.243393
22
2.881488
32
20.415695
13
46.243393
23
2.879851
33
22.742540
0
3DFACE
8
Moyeux
62
4.000000
10
44.282566
20
7.016332
30
18.706388
11
44.282566
21
2.952433
31
14.636770
12
46.243393
22
1.237316
32
18.769203
13
46.243393
23
2.881488
33
20.415695
0
3DFACE
8
Moyeux
62
4.000000
10
44.282566
20
2.952433
30
14.636770
11
44.282566
21
-2.798833
31
14.632723
12
46.243393
22
-1.089532
32
18.767567
13
46.243393
23
1.237316
33
18.769203
0
3DFACE
8
Moyeux
62
4.000000
10
44.282566
20
-2.798833
30
14.632723
11
44.282566
21
-6.868454
31
18.696625
12
46.243393
22
-2.736020
32
20.411741
13
46.243393
23
-1.089532
33
18.767567
0
3DFACE
8
Moyeux
62
4.000000
10
44.282566
20
-6.868454
30
18.696625
11
44.282566
21
-6.872500
31
24.447891
12
46.243393
22
-2.737657
32
22.738586
13
46.243393
23
-2.736020
33
20.411741
0
3DFACE
8
FuselageAr
62
5.000000
10
-20.725117
20
-3.972218
30
18.874092
11
-43.195164
21
-1.587639
31
19.210175
12
-43.195164
22
-1.588606
32
20.585392
13
-20.725117
23
-3.974576
33
22.225340
0
3DFACE
8
FuselageAr
62
5.000000
10
-20.725117
20
-3.974576
30
22.225340
11
-43.195164
21
-1.588606
31
20.585392
12
-43.195164
22
-0.616862
32
21.558506
13
-20.725117
23
-1.606553
33
24.596699
0
3DFACE
8
FuselageAr
62
5.000000
10
-20.725117
20
-1.606553
30
24.596699
11
-43.195164
21
-0.616862
31
21.558506
12
-43.195164
22
0.758359
32
21.559477
13
-20.725117
23
1.744694
33
24.599052
0
3DFACE
8
FuselageAr
62
5.000000
10
-20.725117
20
1.744694
30
24.599052
11
-43.195164
21
0.758359
31
21.559477
12
-43.195164
22
1.731471
32
20.587732
13
-20.725117
23
4.116050
33
22.231030
0
3DFACE
8
FuselageAr
62
5.000000
10
-20.725117
20
4.116050
30
22.231030
11
-43.195164
21
1.731471
31
20.587732
12
-43.195164
22
1.732438
32
19.212511
13
-20.725117
23
4.118408
33
18.879784
0
3DFACE
8
FuselageAr
62
5.000000
10
-20.725117
20
4.118408
30
18.879784
11
-43.195164
21
1.732438
31
19.212511
12
-43.195164
22
0.760694
32
18.239397
13
-20.725117
23
1.750385
33
16.508430
0
3DFACE
8
FuselageAr
62
5.000000
10
-20.725117
20
1.750385
30
16.508430
11
-43.195164
21
0.760694
31
18.239397
12
-43.195164
22
-0.614527
32
18.238430
13
-20.725117
23
-1.600862
33
16.506069
0
3DFACE
8
FuselageAr
62
5.000000
10
-20.725117
20
-1.600862
30
16.506069
11
-43.195164
21
-0.614527
31
18.238430
12
-43.195164
22
-1.587639
32
19.210175
13
-20.725117
23
-3.972218
33
18.874092
0
3DFACE
8
FuselageAr
62
5.000000
10
-43.195164
20
0.758359
30
21.559477
11
-43.195164
21
-0.616862
31
21.558506
12
-45.050003
22
0.196748
32
20.010349
13
-45.050003
23
0.196748
33
20.010349
0
3DFACE
8
FuselageAr
62
5.000000
10
-45.050003
20
0.196748
30
20.010349
11
-43.195164
21
-0.616862
31
21.558506
12
-43.195164
22
-1.588606
32
20.585392
13
-43.195164
23
-1.588606
33
20.585392
0
3DFACE
8
FuselageAr
62
5.000000
10
-43.195164
20
-1.588606
30
20.585392
11
-43.195164
21
-1.587639
31
19.210175
12
-45.050003
22
0.196748
32
20.010349
13
-45.050003
23
0.196748
33
20.010349
0
3DFACE
8
FuselageAr
62
5.000000
10
-45.050003
20
0.196748
30
20.010349
11
-43.195164
21
-1.587639
31
19.210175
12
-43.195164
22
-0.614527
32
18.238430
13
-43.195164
23
-0.614527
33
18.238430
0
3DFACE
8
FuselageAr
62
5.000000
10
-43.195164
20
0.760694
30
18.239397
11
-45.050003
21
0.196748
31
20.010349
12
-43.195164
22
-0.614527
32
18.238430
13
-43.195164
23
-0.614527
33
18.238430
0
3DFACE
8
FuselageAr
62
5.000000
10
-43.195164
20
0.760694
30
18.239397
11
-43.195164
21
1.732438
31
19.212511
12
-45.050003
22
0.196748
32
20.010349
13
-45.050003
23
0.196748
33
20.010349
0
3DFACE
8
FuselageAr
62
5.000000
10
-45.050003
20
0.196748
30
20.010349
11
-43.195164
21
1.732438
31
19.212511
12
-43.195164
22
1.731471
32
20.587732
13
-43.195164
23
1.731471
33
20.587732
0
3DFACE
8
FuselageAr
62
5.000000
10
-43.195164
20
1.731471
30
20.587732
11
-43.195164
21
0.758359
31
21.559477
12
-45.050003
22
0.196748
32
20.010349
13
-45.050003
23
0.196748
33
20.010349
0
3DFACE
8
Gouv
62
6.000000
10
-21.237402
20
-0.546645
30
24.349384
11
-24.770430
21
-0.546643
31
25.532949
12
-24.523026
22
0.036307
32
25.814753
13
-19.352959
23
0.036305
33
24.656015
0
3DFACE
8
Gouv
62
6.000000
10
-24.770430
20
-0.546643
30
25.532949
11
-28.709755
21
-0.546645
31
29.666586
12
-28.308271
22
0.036305
32
29.745682
13
-24.523026
23
0.036307
33
25.814753
0
3DFACE
8
Gouv
62
6.000000
10
-28.709755
20
-0.546645
30
29.666586
11
-32.437096
21
-0.546645
31
35.160442
12
-32.458122
22
0.036305
32
35.862289
13
-28.308271
23
0.036305
33
29.745682
0
3DFACE
8
Gouv
62
6.000000
10
-32.437096
20
-0.546645
30
35.160442
11
-35.793468
21
-0.546645
31
36.732639
12
-36.194958
22
0.036305
32
37.612698
13
-32.458122
23
0.036305
33
35.862289
0
3DFACE
8
Gouv
62
6.000000
10
-35.793468
20
-0.546645
30
36.732639
11
-39.326500
21
-0.546645
31
35.160442
12
-40.128464
22
0.036305
32
35.862289
13
-36.194958
23
0.036305
33
37.612698
0
3DFACE
8
Gouv
62
6.000000
10
-39.326500
20
-0.546645
30
35.160442
11
-40.315750
21
-0.546643
31
29.065973
12
-41.229847
22
0.036305
32
29.076986
13
-40.128464
23
0.036305
33
35.862289
0
3DFACE
8
Gouv
62
6.000000
10
-40.315750
20
-0.546643
30
29.065973
11
-41.093014
21
-0.546643
31
23.766432
12
-42.095222
22
0.036305
32
23.176725
13
-41.229847
23
0.036305
33
29.076986
0
3DFACE
8
Gouv
62
6.000000
10
-41.093014
20
-0.546643
30
23.766432
11
-43.265827
21
-0.546645
31
21.204990
12
-44.249348
22
0.036305
32
20.890215
13
-42.095222
23
0.036305
33
23.176725
0
3DFACE
8
Gouv
62
6.000000
10
-19.352959
20
0.036305
30
24.656015
11
-24.523026
21
0.036307
31
25.814753
12
-24.614653
22
0.583927
32
25.461403
13
-21.008059
23
0.583925
33
24.253197
0
3DFACE
8
Gouv
62
6.000000
10
-24.523026
20
0.036307
30
25.814753
11
-28.308271
21
0.036305
31
29.745682
12
-28.636000
22
0.583925
32
29.681114
13
-24.614653
23
0.583927
33
25.461403
0
3DFACE
8
Gouv
62
6.000000
10
-28.308271
20
0.036305
30
29.745682
11
-32.458122
21
0.036305
31
35.862289
12
-32.440956
22
0.583925
32
35.289368
13
-28.636000
23
0.583925
33
29.681114
0
3DFACE
8
Gouv
62
6.000000
10
-32.458122
20
0.036305
30
35.862289
11
-36.194958
21
0.036305
31
37.612698
12
-35.867229
22
0.583927
32
36.894302
13
-32.440956
23
0.583925
33
35.289368
0
3DFACE
8
Gouv
62
6.000000
10
-36.194958
20
0.036305
30
37.612698
11
-40.128464
21
0.036305
31
35.862289
12
-39.473824
22
0.583925
32
35.289368
13
-35.867229
23
0.583927
33
36.894302
0
3DFACE
8
Gouv
62
6.000000
10
-40.128464
20
0.036305
30
35.862289
11
-41.229847
21
0.036305
31
29.076986
12
-40.483665
22
0.583925
32
29.067995
13
-39.473824
23
0.583925
33
35.289368
0
3DFACE
8
Gouv
62
6.000000
10
-41.229847
20
0.036305
30
29.076986
11
-42.095222
21
0.036305
31
23.176725
12
-41.277119
22
0.583925
32
23.658104
13
-40.483665
23
0.583925
33
29.067995
0
3DFACE
8
Gouv
62
6.000000
10
-42.095222
20
0.036305
30
23.176725
11
-44.249348
21
0.036305
31
20.890215
12
-43.495167
22
0.583925
32
21.043324
13
-41.277119
23
0.583925
33
23.658104
0
3DFACE
8
Gouv
62
6.000000
10
-41.093014
20
-0.546643
30
23.766432
11
-40.315750
21
-0.546643
31
29.065973
12
-39.326500
22
-0.546645
32
35.160442
13
-39.326500
23
-0.546645
33
35.160442
0
3DFACE
8
Gouv
62
6.000000
10
-41.093014
20
-0.546643
30
23.766432
11
-39.326500
21
-0.546645
31
35.160442
12
-35.793468
22
-0.546645
32
36.732639
13
-35.793468
23
-0.546645
33
36.732639
0
3DFACE
8
Gouv
62
6.000000
10
-41.093014
20
-0.546643
30
23.766432
11
-35.793468
21
-0.546645
31
36.732639
12
-32.437096
22
-0.546645
32
35.160442
13
-32.437096
23
-0.546645
33
35.160442
0
3DFACE
8
Gouv
62
6.000000
10
-41.093014
20
-0.546643
30
23.766432
11
-32.437096
21
-0.546645
31
35.160442
12
-28.709755
22
-0.546645
32
29.666586
13
-28.709755
23
-0.546645
33
29.666586
0
3DFACE
8
Gouv
62
6.000000
10
-41.093014
20
-0.546643
30
23.766432
11
-28.709755
21
-0.546645
31
29.666586
12
-24.770430
22
-0.546643
32
25.532949
13
-24.770430
23
-0.546643
33
25.532949
0
3DFACE
8
Gouv
62
6.000000
10
-41.093014
20
-0.546643
30
23.766432
11
-24.770430
21
-0.546643
31
25.532949
12
-21.237402
22
-0.546645
32
24.349384
13
-21.237402
23
-0.546645
33
24.349384
0
3DFACE
8
Gouv
62
6.000000
10
-41.093014
20
-0.546643
30
23.766432
11
-21.237402
21
-0.546645
31
24.349384
12
-43.265827
22
-0.546645
32
21.204990
13
-43.265827
23
-0.546645
33
21.204990
0
3DFACE
8
Gouv
62
6.000000
10
-28.636000
20
0.583925
30
29.681114
11
-32.440956
21
0.583925
31
35.289368
12
-35.867229
22
0.583927
32
36.894302
13
-35.867229
23
0.583927
33
36.894302
0
3DFACE
8
Gouv
62
6.000000
10
-28.636000
20
0.583925
30
29.681114
11
-35.867229
21
0.583927
31
36.894302
12
-39.473824
22
0.583925
32
35.289368
13
-39.473824
23
0.583925
33
35.289368
0
3DFACE
8
Gouv
62
6.000000
10
-28.636000
20
0.583925
30
29.681114
11
-39.473824
21
0.583925
31
35.289368
12
-40.483665
22
0.583925
32
29.067995
13
-40.483665
23
0.583925
33
29.067995
0
3DFACE
8
Gouv
62
6.000000
10
-28.636000
20
0.583925
30
29.681114
11
-40.483665
21
0.583925
31
29.067995
12
-41.277119
22
0.583925
32
23.658104
13
-41.277119
23
0.583925
33
23.658104
0
3DFACE
8
Gouv
62
6.000000
10
-28.636000
20
0.583925
30
29.681114
11
-41.277119
21
0.583925
31
23.658104
12
-43.495167
22
0.583925
32
21.043324
13
-43.495167
23
0.583925
33
21.043324
0
3DFACE
8
Gouv
62
6.000000
10
-43.495167
20
0.583925
30
21.043324
11
-21.008059
21
0.583925
31
24.253197
12
-24.614653
22
0.583927
32
25.461403
13
-24.614653
23
0.583927
33
25.461403
0
3DFACE
8
Gouv
62
6.000000
10
-24.614653
20
0.583927
30
25.461403
11
-28.636000
21
0.583925
31
29.681114
12
-43.495167
22
0.583925
32
21.043324
13
-43.495167
23
0.583925
33
21.043324
0
3DFACE
8
AileG2
62
7.000000
10
9.674031
20
-49.310608
30
20.152483
11
10.310581
21
-49.255543
31
20.711443
12
11.275554
22
-29.550426
32
18.754787
13
10.300992
23
-29.550426
33
17.894880
0
3DFACE
8
AileG2
62
7.000000
10
8.431160
20
-51.428200
30
20.931173
11
10.310581
21
-49.255543
31
20.711443
12
9.674031
22
-49.310608
32
20.152483
13
9.674031
23
-49.310608
33
20.152483
0
3DFACE
8
AileG2
62
7.000000
10
10.310581
20
-49.255543
30
20.711443
11
9.591655
21
-49.193890
31
21.337469
12
10.174870
22
-29.550426
32
19.717886
13
11.275554
23
-29.550426
33
18.754787
0
3DFACE
8
AileG2
62
7.000000
10
9.591655
20
-49.193890
30
21.337469
11
6.199217
21
-49.148384
31
21.799545
12
4.981026
22
-29.550426
32
20.428745
13
10.174870
23
-29.550426
33
19.717886
0
3DFACE
8
AileG2
62
7.000000
10
6.199217
20
-49.148384
30
21.799545
11
0.747357
21
-49.220318
31
21.069176
12
-4.796693
22
-29.550426
32
19.305130
13
4.981026
23
-29.550426
33
20.428745
0
3DFACE
8
AileG2
62
7.000000
10
0.747357
20
-49.220318
30
21.069176
11
-1.574177
21
-49.303989
31
20.219563
12
-6.920103
22
-29.550426
32
17.998070
13
-4.796693
23
-29.550426
33
19.305130
0
3DFACE
8
AileG2
62
7.000000
10
-1.574177
20
-49.303989
30
20.219563
11
1.196686
21
-49.359783
31
19.653151
12
-4.108766
22
-29.550426
32
17.126698
13
-6.920103
23
-29.550426
33
17.998070
0
3DFACE
8
AileG2
62
7.000000
10
1.196686
20
-49.359783
30
19.653151
11
6.618590
21
-49.343632
31
19.817110
12
5.623089
22
-29.550426
32
17.378937
13
-4.108766
23
-29.550426
33
17.126698
0
3DFACE
8
AileG2
62
7.000000
10
6.618590
20
-49.343632
30
19.817110
11
9.674031
21
-49.310608
31
20.152483
12
10.300992
22
-29.550426
32
17.894880
13
5.623089
23
-29.550426
33
17.378937
0
3DFACE
8
AileG2
62
7.000000
10
8.761773
20
-51.399612
30
20.937424
11
8.388377
21
-51.367584
31
20.944422
12
9.591655
22
-49.193890
32
21.337469
13
10.310581
23
-49.255543
33
20.711443
0
3DFACE
8
AileG2
62
7.000000
10
8.388377
20
-51.367584
30
20.944422
11
6.626415
21
-51.343948
31
20.949589
12
6.199217
22
-49.148384
32
21.799545
13
9.591655
23
-49.193890
33
21.337469
0
3DFACE
8
AileG2
62
7.000000
10
6.626415
20
-51.343948
30
20.949589
11
3.794827
21
-51.381306
31
20.941425
12
0.747357
22
-49.220318
32
21.069176
13
6.199217
23
-49.148384
33
21.799545
0
3DFACE
8
AileG2
62
7.000000
10
3.794827
20
-51.381306
30
20.941425
11
2.589069
21
-51.424767
31
20.931919
12
-1.574177
22
-49.303989
32
20.219563
13
0.747357
23
-49.220318
33
21.069176
0
3DFACE
8
AileG2
62
7.000000
10
2.589069
20
-51.424767
30
20.931919
11
4.028199
21
-51.453747
31
20.925589
12
1.196686
22
-49.359783
32
19.653151
13
-1.574177
23
-49.303989
33
20.219563
0
3DFACE
8
AileG2
62
7.000000
10
4.028199
20
-51.453747
30
20.925589
11
6.844227
21
-51.445354
31
20.927422
12
6.618590
22
-49.343632
32
19.817110
13
1.196686
23
-49.359783
33
19.653151
0
3DFACE
8
AileG2
62
7.000000
10
6.844227
20
-51.445354
30
20.927422
11
8.431160
21
-51.428200
31
20.931173
12
9.674031
22
-49.310608
32
20.152483
13
6.618590
23
-49.343632
33
19.817110
0
3DFACE
8
AileD2
62
8.000000
10
10.300992
20
29.362783
30
17.894880
11
11.275554
21
29.362783
31
18.754787
12
10.310581
22
49.067902
32
20.711443
13
9.674031
23
49.122955
33
20.152483
0
3DFACE
8
AileD2
62
8.000000
10
9.674031
20
49.122955
30
20.152483
11
10.310581
21
49.067902
31
20.711443
12
8.761773
22
51.211967
32
20.937824
13
8.761773
23
51.211967
33
20.937824
0
3DFACE
8
AileD2
62
8.000000
10
11.275554
20
29.362783
30
18.754787
11
10.174870
21
29.362783
31
19.717886
12
9.591655
22
49.006245
32
21.337469
13
10.310581
23
49.067902
33
20.711443
0
3DFACE
8
AileD2
62
8.000000
10
10.174870
20
29.362783
30
19.717886
11
4.981026
21
29.362783
31
20.428745
12
6.199217
22
48.960735
32
21.799545
13
9.591655
23
49.006245
33
21.337469
0
3DFACE
8
AileD2
62
8.000000
10
4.981026
20
29.362783
30
20.428745
11
-4.796693
21
29.362783
31
19.305130
12
0.747357
22
49.032673
32
21.069176
13
6.199217
23
48.960735
33
21.799545
0
3DFACE
8
AileD2
62
8.000000
10
-4.796693
20
29.362783
30
19.305130
11
-6.920103
21
29.362783
31
17.998070
12
-1.574177
22
49.116348
32
20.219563
13
0.747357
23
49.032673
33
21.069176
0
3DFACE
8
AileD2
62
8.000000
10
-6.920103
20
29.362783
30
17.998070
11
-4.108766
21
29.362783
31
17.126698
12
1.196686
22
49.172138
32
19.653151
13
-1.574177
23
49.116348
33
20.219563
0
3DFACE
8
AileD2
62
8.000000
10
-4.108766
20
29.362783
30
17.126698
11
5.623089
21
29.362783
31
17.378937
12
6.618590
22
49.155987
32
19.817110
13
1.196686
23
49.172138
33
19.653151
0
3DFACE
8
AileD2
62
8.000000
10
5.623089
20
29.362783
30
17.378937
11
10.300992
21
29.362783
31
17.894880
12
9.674031
22
49.122955
32
20.152483
13
6.618590
23
49.155987
33
19.817110
0
3DFACE
8
AileD2
62
8.000000
10
10.310581
20
49.067902
30
20.711443
11
9.591655
21
49.006245
31
21.337469
12
8.388377
22
51.179943
32
20.927832
13
8.761773
23
51.211967
33
20.937824
0
3DFACE
8
AileD2
62
8.000000
10
9.591655
20
49.006245
30
21.337469
11
6.199217
21
48.960735
31
21.799545
12
6.626415
22
51.156303
32
20.920456
13
8.388377
23
51.179943
33
20.927832
0
3DFACE
8
AileD2
62
8.000000
10
6.199217
20
48.960735
30
21.799545
11
0.747357
21
49.032673
31
21.069176
12
3.794827
22
51.193661
32
20.932114
13
6.626415
23
51.156303
33
20.920456
0
3DFACE
8
AileD2
62
8.000000
10
0.747357
20
49.032673
30
21.069176
11
-1.574177
21
49.116348
31
20.219563
12
2.589069
22
51.237125
32
20.945679
13
3.794827
23
51.193661
33
20.932114
0
3DFACE
8
AileD2
62
8.000000
10
-1.574177
20
49.116348
30
20.219563
11
1.196686
21
49.172138
31
19.653151
12
4.028199
22
51.266102
32
20.954723
13
2.589069
23
51.237125
33
20.945679
0
3DFACE
8
AileD2
62
8.000000
10
1.196686
20
49.172138
30
19.653151
11
6.618590
21
49.155987
31
19.817110
12
6.844227
22
51.257710
32
20.952108
13
4.028199
23
51.266102
33
20.954723
0
3DFACE
8
AileD2
62
8.000000
10
6.618590
20
49.155987
30
19.817110
11
9.674031
21
49.122955
31
20.152483
12
8.431160
22
51.240555
32
20.946753
13
6.844227
23
51.257710
33
20.952108
0
3DFACE
8
InclinG
62
9.000000
10
-5.151009
20
-29.550426
30
19.052197
11
-5.384589
21
-11.779308
31
19.302057
12
-4.766309
22
-11.779308
32
18.436466
13
-4.585724
23
-29.550426
33
18.433916
0
3DFACE
8
InclinG
62
9.000000
10
-6.740870
20
-29.550426
30
18.045282
11
-10.189505
21
-11.779308
31
17.729862
12
-5.384589
22
-11.779308
32
19.302057
13
-5.151009
23
-29.550426
33
19.052197
0
3DFACE
8
InclinG
62
9.000000
10
-4.638720
20
-29.550426
30
17.303347
11
-4.854635
21
-11.779308
31
16.775946
12
-10.189505
22
-11.779308
32
17.729862
13
-6.740870
23
-29.550426
33
18.045282
0
3DFACE
8
InclinG
62
9.000000
10
-4.338413
20
-29.550426
30
18.027618
11
-4.483666
21
-11.779308
31
17.570875
12
-4.854635
22
-11.779308
32
16.775946
13
-4.638720
23
-29.550426
33
17.303347
0
3DFACE
8
InclinG
62
9.000000
10
-7.648734
20
-25.489122
30
17.944313
11
-8.043734
21
-23.259121
31
17.944313
12
-5.215734
22
-22.283123
32
19.590315
13
-5.265733
23
-24.799122
33
19.590315
0
3DFACE
8
InclinG
62
9.000000
10
-8.219734
20
-22.352121
30
17.944313
11
-8.687734
21
-20.216122
31
17.944313
12
-5.291734
22
-19.076122
32
19.590315
13
-5.226733
23
-21.353123
33
19.590315
0
3DFACE
8
AileG1
62
10.000000
10
10.854654
20
-11.779308
30
17.604326
11
12.149958
21
-11.779308
31
18.747242
12
14.075192
22
-7.416021
32
18.742393
13
12.573654
23
-7.416021
33
17.417505
0
3DFACE
8
AileG1
62
10.000000
10
10.300992
20
-29.550426
30
17.894880
11
11.275554
21
-29.550426
31
18.754787
12
12.149958
22
-11.779308
32
18.747242
13
10.854654
23
-11.779308
33
17.604326
0
3DFACE
8
AileG1
62
10.000000
10
-4.796693
20
-29.550426
30
19.305130
11
-6.920103
21
-29.550426
31
17.998070
12
-4.108766
22
-29.550426
32
17.126698
13
-4.108766
23
-29.550426
33
17.126698
0
3DFACE
8
AileG1
62
10.000000
10
-4.108766
20
-29.550426
30
17.126698
11
-4.099288
21
-11.779308
31
16.583319
12
-5.013621
22
-11.779308
32
19.478708
13
-4.796693
23
-29.550426
33
19.305130
0
3DFACE
8
AileG1
62
10.000000
10
-5.013621
20
-11.779308
30
19.478708
11
-4.099288
21
-11.779308
31
16.583319
12
-10.320623
22
-11.779308
32
17.741478
13
-10.320623
23
-11.779308
33
17.741478
0
3DFACE
8
AileG1
62
10.000000
10
12.149958
20
-11.779308
30
18.747242
11
10.687027
21
-11.779308
31
20.027308
12
12.379338
22
-7.416021
32
20.226261
13
14.075192
23
-7.416021
33
18.742393
0
3DFACE
8
AileG1
62
10.000000
10
10.687027
20
-11.779308
30
20.027308
11
3.783815
21
-11.779308
31
20.972120
12
4.059062
22
-6.921397
32
21.321499
13
12.379338
23
-7.416021
33
20.226261
0
3DFACE
8
AileG1
62
10.000000
10
3.783815
20
-11.779308
30
20.972120
11
-5.013621
21
-11.779308
31
19.478708
12
-5.550770
22
-6.197126
32
19.590315
13
4.059062
23
-6.921397
33
21.321499
0
3DFACE
8
AileG1
62
10.000000
10
-5.013621
20
-11.779308
30
19.478708
11
-10.320623
21
-11.779308
31
17.741478
12
-11.892553
22
-5.384531
32
17.576488
13
-5.550770
23
-6.197126
33
19.590315
0
3DFACE
8
AileG1
62
10.000000
10
-10.320623
20
-11.779308
30
17.741478
11
-4.099288
21
-11.779308
31
16.583319
12
-4.490862
22
-6.197126
32
16.233942
13
-11.892553
23
-5.384531
33
17.576488
0
3DFACE
8
AileG1
62
10.000000
10
-4.099288
20
-11.779308
30
16.583319
11
4.637191
21
-11.779308
31
16.918577
12
5.048308
22
-6.921397
32
16.622572
13
-4.490862
23
-6.197126
33
16.233942
0
3DFACE
8
AileG1
62
10.000000
10
4.637191
20
-11.779308
30
16.918577
11
10.854654
21
-11.779308
31
17.604326
12
12.573654
22
-7.416021
32
17.417505
13
5.048308
23
-6.921397
33
16.622572
0
3DFACE
8
AileG1
62
10.000000
10
11.275554
20
-29.550426
30
18.754787
11
10.174870
21
-29.550426
31
19.717886
12
10.687027
22
-11.779308
32
20.027308
13
12.149958
23
-11.779308
33
18.747242
0
3DFACE
8
AileG1
62
10.000000
10
10.174870
20
-29.550426
30
19.717886
11
4.981026
21
-29.550426
31
20.428745
12
3.783815
22
-11.779308
32
20.972120
13
10.687027
23
-11.779308
33
20.027308
0
3DFACE
8
AileG1
62
10.000000
10
4.981026
20
-29.550426
30
20.428745
11
-4.796693
21
-29.550426
31
19.305130
12
-5.013621
22
-11.779308
32
19.478708
13
3.783815
23
-11.779308
33
20.972120
0
3DFACE
8
AileG1
62
10.000000
10
-4.108766
20
-29.550426
30
17.126698
11
5.623089
21
-29.550426
31
17.378937
12
4.637191
22
-11.779308
32
16.918577
13
-4.099288
23
-11.779308
33
16.583319
0
3DFACE
8
AileG1
62
10.000000
10
5.623089
20
-29.550426
30
17.378937
11
10.300992
21
-29.550426
31
17.894880
12
10.854654
22
-11.779308
32
17.604326
13
4.637191
23
-11.779308
33
16.918577
0
3DFACE
8
AileG1
62
10.000000
10
11.947485
20
-12.327927
30
18.608671
11
11.947485
21
-14.583926
31
18.608671
12
10.721986
22
-15.495679
32
19.991262
13
10.721986
23
-13.239679
33
19.991262
0
3DFACE
8
AileG1
62
10.000000
10
10.721986
20
-13.239679
30
19.991262
11
10.721986
21
-15.495679
31
19.991262
12
3.432144
22
-18.222736
32
20.853498
13
3.432144
23
-15.966738
33
20.853498
0
3DFACE
8
AileG1
62
10.000000
10
3.432144
20
-15.966738
30
20.853498
11
3.432144
21
-18.222736
31
20.853498
12
-5.041733
22
-21.231123
32
19.590315
13
-5.041733
23
-18.975122
33
19.590315
0
3DFACE
8
AileG1
62
10.000000
10
11.947485
20
-15.669927
30
18.608671
11
11.947485
21
-17.925926
31
18.608671
12
10.721986
22
-18.837677
32
19.991262
13
10.721986
23
-16.581680
33
19.991262
0
3DFACE
8
AileG1
62
10.000000
10
10.721986
20
-16.581680
30
19.991262
11
10.721986
21
-18.837677
31
19.991262
12
3.432144
22
-21.564735
32
20.802498
13
3.432144
23
-19.308739
33
20.802498
0
3DFACE
8
AileG1
62
10.000000
10
3.432144
20
-19.308739
30
20.802498
11
3.432144
21
-21.564735
31
20.802498
12
-5.041733
22
-24.573122
32
19.590315
13
-5.041733
23
-22.317122
33
19.590315
0
3DFACE
8
Cabine
62
11.000000
10
-0.728187
20
-6.391160
30
18.894720
11
-20.725117
21
-3.972215
31
18.874092
12
-20.725117
22
-3.974579
32
22.225340
13
-0.728187
23
-6.394928
33
24.250465
0
3DFACE
8
Cabine
62
11.000000
10
-0.728187
20
-6.394928
30
24.250465
11
-20.725117
21
-3.974579
31
22.225340
12
-20.725117
22
-1.606553
32
24.596699
13
-1.488187
23
-2.610507
33
27.800217
0
3DFACE
8
Cabine
62
11.000000
10
-1.488187
20
-2.610507
30
27.800217
11
-20.725117
21
-1.606553
31
24.596699
12
-20.725117
22
1.744692
32
24.599052
13
-1.488187
23
2.745243
33
27.803980
0
3DFACE
8
Cabine
62
11.000000
10
-1.488187
20
2.745243
30
27.803980
11
-20.725117
21
1.744692
31
24.599052
12
-20.725117
22
4.116051
32
22.231030
13
-0.728187
23
6.534989
33
24.259562
0
3DFACE
8
Cabine
62
11.000000
10
-0.728187
20
6.534989
30
24.259562
11
-20.725117
21
4.116051
31
22.231030
12
-20.725117
22
4.118408
32
18.879784
13
-0.728187
23
6.538756
33
18.903814
0
3DFACE
8
Cabine
62
11.000000
10
-0.728187
20
6.538756
30
18.903814
11
-20.725117
21
4.118408
31
18.879784
12
-20.725117
22
1.750382
32
16.508430
13
-0.728187
23
2.754336
33
15.114067
0
3DFACE
8
Cabine
62
11.000000
10
-0.728187
20
2.754336
30
15.114067
11
-20.725117
21
1.750382
31
16.508430
12
-20.725117
22
-1.600864
32
16.506069
13
-0.728187
23
-2.601407
33
15.110301
0
3DFACE
8
Cabine
62
11.000000
10
-0.728187
20
-2.601407
30
15.110301
11
-20.725117
21
-1.600864
31
16.506069
12
-20.725117
22
-3.972215
32
18.874092
13
-0.728187
23
-6.391160
33
18.894720
0
3DFACE
8
Cabine
62
11.000000
10
-14.514186
20
2.046084
30
16.094067
11
-14.514186
21
-1.893233
31
16.090302
12
-12.914186
22
-1.893233
32
15.998300
13
-12.914186
23
2.046084
33
16.002068
0
3DFACE
8
Cabine
62
11.000000
10
-14.514186
20
-1.893233
30
16.090302
11
-12.154186
21
-4.679699
31
18.969721
12
-10.554186
22
-4.679699
32
18.877720
13
-12.914186
23
-1.893233
33
15.998300
0
3DFACE
8
Cabine
62
11.000000
10
-12.154186
20
-4.679699
30
18.969721
11
-8.607180
21
-5.426033
31
23.603466
12
-6.617186
22
-5.426033
32
23.876465
13
-10.554186
23
-4.679699
33
18.877720
0
3DFACE
8
Cabine
62
11.000000
10
-8.607180
20
-5.426033
30
23.603466
11
-6.171187
21
-2.588121
31
27.103216
12
-4.181187
22
-2.588121
32
27.376215
13
-6.617186
23
-5.426033
33
23.876465
0
3DFACE
8
Cabine
62
11.000000
10
-6.171187
20
2.722927
30
27.106979
11
-8.607180
21
5.566660
31
23.612562
12
-6.617186
22
5.566660
32
23.885561
13
-4.181187
23
2.722927
33
27.379978
0
3DFACE
8
Cabine
62
11.000000
10
-8.607180
20
5.566660
30
23.612562
11
-12.154186
21
5.162592
31
18.978815
12
-10.554186
22
5.162592
32
18.886814
13
-6.617186
23
5.566660
33
23.885561
0
3DFACE
8
Cabine
62
11.000000
10
-12.154186
20
5.162592
30
18.978815
11
-14.514186
21
2.046084
31
16.094067
12
-12.914186
22
2.046084
32
16.002068
13
-10.554186
23
5.162592
33
18.886814
0
3DFACE
8
Cabine
62
11.000000
10
-17.234186
20
2.046084
30
16.324068
11
-17.234186
21
-1.893233
31
16.320303
12
-15.634186
22
-1.893233
32
16.228302
13
-15.634186
23
2.046084
33
16.232067
0
3DFACE
8
Cabine
62
11.000000
10
-17.234186
20
-1.893233
30
16.320303
11
-15.182187
21
-4.780972
31
18.641720
12
-13.582187
22
-4.780972
32
18.549721
13
-15.634186
23
-1.893233
33
16.228302
0
3DFACE
8
Cabine
62
11.000000
10
-15.182187
20
-4.780972
30
18.641720
11
-11.801187
21
-5.426033
31
23.126467
12
-9.811186
22
-5.426033
32
23.399466
13
-13.582187
23
-4.780972
33
18.549721
0
3DFACE
8
Cabine
62
11.000000
10
-11.801187
20
-5.426033
30
23.126467
11
-9.142187
21
-2.588121
31
26.579216
12
-7.152187
22
-2.588121
32
26.852215
13
-9.811186
23
-5.426033
33
23.399466
0
3DFACE
8
Cabine
62
11.000000
10
-9.142187
20
2.722927
30
26.582979
11
-11.801187
21
5.566660
31
23.135563
12
-9.811186
22
5.566660
32
23.408562
13
-7.152187
23
2.722927
33
26.855978
0
3DFACE
8
Cabine
62
11.000000
10
-11.801187
20
5.566660
30
23.135563
11
-15.182187
21
4.592138
31
18.650816
12
-13.582187
22
4.592138
32
18.558815
13
-9.811186
23
5.566660
33
23.408562
0
3DFACE
8
Cabine
62
11.000000
10
-15.182187
20
4.592138
30
18.650816
11
-17.234186
21
2.046084
31
16.324068
12
-15.634186
22
2.046084
32
16.232067
13
-13.582187
23
4.592138
33
18.558815
0
3DFACE
8
Verriere
62
12.000000
10
0.062521
20
0.042476
30
28.131638
11
0.062521
21
0.042476
31
28.131638
12
-3.337002
22
0.042476
32
35.832485
13
-2.924324
23
3.714067
33
33.831490
0
3DFACE
8
Verriere
62
12.000000
10
-2.924324
20
3.714067
30
33.831490
11
-3.337002
21
0.042476
31
35.832485
12
-7.782353
22
0.042476
32
37.921448
13
-7.198738
23
5.234890
33
35.091618
0
3DFACE
8
Verriere
62
12.000000
10
-7.198738
20
5.234890
30
35.091618
11
-7.782353
21
0.042476
31
37.921448
12
-13.639055
22
0.042476
32
35.806862
13
-13.093573
23
3.714067
33
33.161938
0
3DFACE
8
Verriere
62
12.000000
10
-13.093573
20
3.714067
30
33.161938
11
-13.639055
21
0.042476
31
35.806862
12
-21.203705
22
0.042476
32
24.773027
13
-21.203705
23
0.042476
33
24.773027
0
3DFACE
8
Verriere
62
12.000000
10
0.062521
20
0.042476
30
28.131638
11
0.062521
21
0.042476
31
28.131638
12
-2.924324
22
3.714067
32
33.831490
13
-1.928029
23
5.234890
33
29.000660
0
3DFACE
8
Verriere
62
12.000000
10
-1.928029
20
5.234890
30
29.000660
11
-2.924324
21
3.714067
31
33.831490
12
-7.198738
22
5.234890
32
35.091618
13
-5.789764
23
6.615762
33
28.259794
0
3DFACE
8
Verriere
62
12.000000
10
-5.789764
20
6.615762
30
28.259794
11
-7.198738
21
5.234890
31
35.091618
12
-13.093573
22
3.714067
32
33.161938
13
-11.776667
23
5.234890
33
26.776512
0
3DFACE
8
Verriere
62
12.000000
10
-11.776667
20
5.234890
30
26.776512
11
-13.093573
21
3.714067
31
33.161938
12
-21.203705
22
0.042476
32
24.773027
13
-21.203705
23
0.042476
33
24.773027
0
3DFACE
8
Verriere
62
12.000000
10
0.062521
20
0.042476
30
28.131638
11
0.062521
21
0.042476
31
28.131638
12
-1.928029
22
5.234890
32
29.000660
13
-0.931734
23
3.714067
33
26.925591
0
3DFACE
8
Verriere
62
12.000000
10
-0.931734
20
3.714067
30
26.925591
11
-1.928029
21
5.234890
31
29.000660
12
-5.789764
22
6.615762
32
28.259794
13
-4.380791
23
5.234890
33
24.130730
0
3DFACE
8
Verriere
62
12.000000
10
-4.380791
20
5.234890
30
24.130730
11
-5.789764
21
6.615762
31
28.259794
12
-11.776667
22
5.234890
32
26.776512
13
-10.459758
23
3.714067
33
23.517817
0
3DFACE
8
Verriere
62
12.000000
10
-10.459758
20
3.714067
30
23.517817
11
-11.776667
21
5.234890
31
26.776512
12
-21.203705
22
0.042476
32
24.773027
13
-21.203705
23
0.042476
33
24.773027
0
3DFACE
8
Verriere
62
12.000000
10
0.062521
20
0.042476
30
28.131638
11
0.062521
21
0.042476
31
28.131638
12
-0.931734
22
-3.629115
32
26.925591
13
-1.928029
23
-5.149938
33
29.000660
0
3DFACE
8
Verriere
62
12.000000
10
-1.928029
20
-5.149938
30
29.000660
11
-0.931734
21
-3.629115
31
26.925591
12
-4.380791
22
-5.149938
32
24.130730
13
-5.789764
23
-6.530810
33
28.259794
0
3DFACE
8
Verriere
62
12.000000
10
-5.789764
20
-6.530810
30
28.259794
11
-4.380791
21
-5.149938
31
24.130730
12
-10.459758
22
-3.629115
32
23.517817
13
-11.776667
23
-5.149938
33
26.776512
0
3DFACE
8
Verriere
62
12.000000
10
-11.776667
20
-5.149938
30
26.776512
11
-10.459758
21
-3.629115
31
23.517817
12
-21.203705
22
0.042476
32
24.773027
13
-21.203705
23
0.042476
33
24.773027
0
3DFACE
8
Verriere
62
12.000000
10
0.062521
20
0.042476
30
28.131638
11
0.062521
21
0.042476
31
28.131638
12
-1.928029
22
-5.149938
32
29.000660
13
-2.924324
23
-3.629115
33
33.831490
0
3DFACE
8
Verriere
62
12.000000
10
-2.924324
20
-3.629115
30
33.831490
11
-1.928029
21
-5.149938
31
29.000660
12
-5.789764
22
-6.530810
32
28.259794
13
-7.198738
23
-5.149938
33
35.091618
0
3DFACE
8
Verriere
62
12.000000
10
-7.198738
20
-5.149938
30
35.091618
11
-5.789764
21
-6.530810
31
28.259794
12
-11.776667
22
-5.149938
32
26.776512
13
-13.093573
23
-3.629115
33
33.161938
0
3DFACE
8
Verriere
62
12.000000
10
-13.093573
20
-3.629115
30
33.161938
11
-11.776667
21
-5.149938
31
26.776512
12
-21.203705
22
0.042476
32
24.773027
13
-21.203705
23
0.042476
33
24.773027
0
3DFACE
8
Verriere
62
12.000000
10
0.062521
20
0.042476
30
28.131638
11
0.062521
21
0.042476
31
28.131638
12
-2.924324
22
-3.629115
32
33.831490
13
-3.337002
23
0.042476
33
35.832485
0
3DFACE
8
Verriere
62
12.000000
10
-3.337002
20
0.042476
30
35.832485
11
-2.924324
21
-3.629115
31
33.831490
12
-7.198738
22
-5.149938
32
35.091618
13
-7.782353
23
0.042476
33
37.921448
0
3DFACE
8
Verriere
62
12.000000
10
-7.782353
20
0.042476
30
37.921448
11
-7.198738
21
-5.149938
31
35.091618
12
-13.093573
22
-3.629115
32
33.161938
13
-13.639055
23
0.042476
33
35.806862
0
3DFACE
8
Verriere
62
12.000000
10
-13.639055
20
0.042476
30
35.806862
11
-13.093573
21
-3.629115
31
33.161938
12
-21.203705
22
0.042476
32
24.773027
13
-21.203705
23
0.042476
33
24.773027
0
3DFACE
8
Verriere
62
12.000000
10
0.062521
20
-0.355581
30
27.931639
11
-2.924324
21
-4.027184
31
33.631489
12
-2.924324
22
-3.427185
32
34.431477
13
0.062521
23
0.244419
33
28.731638
0
3DFACE
8
Verriere
62
12.000000
10
-2.924324
20
-4.027184
30
33.631489
11
-7.198738
21
-5.548004
31
34.891617
12
-7.198738
22
-4.948004
32
35.691605
13
-2.924324
23
-3.427185
33
34.431477
0
3DFACE
8
Verriere
62
12.000000
10
-7.198738
20
-5.548004
30
34.891617
11
-12.844131
21
-4.229417
31
32.696136
12
-12.844131
22
-3.629418
32
33.496120
13
-7.198738
23
-4.948004
33
35.691605
0
3DFACE
8
Verriere
62
12.000000
10
-12.844131
20
-4.229417
30
32.696136
11
-20.725117
21
-0.606552
31
24.396698
12
-20.725117
22
-0.006552
32
25.196699
13
-12.844131
23
-3.629418
33
33.496120
0
3DFACE
8
Verriere
62
12.000000
10
0.062521
20
-0.557523
30
28.631638
11
-2.924324
21
3.114080
31
34.331474
12
-2.924324
22
3.714079
32
33.531487
13
0.062521
23
0.042476
33
27.831638
0
3DFACE
8
Verriere
62
12.000000
10
-2.924324
20
3.114080
30
34.331474
11
-7.198738
21
4.634899
31
35.591602
12
-7.198738
22
5.234900
32
34.791618
13
-2.924324
23
3.714079
33
33.531487
0
3DFACE
8
Verriere
62
12.000000
10
-7.198738
20
4.634899
30
35.591602
11
-12.844131
21
3.316313
31
33.396122
12
-12.844131
22
3.916312
32
32.596134
13
-7.198738
23
5.234900
33
34.791618
0
3DFACE
8
Verriere
62
12.000000
10
-12.844131
20
3.316313
30
33.396122
11
-20.725117
21
-0.406553
31
25.096699
12
-20.725117
22
0.193447
32
24.296700
13
-12.844131
23
3.916312
33
32.596134
0
3DFACE
8
Capot
62
13.000000
10
13.951536
20
-7.080374
30
18.608671
11
13.951536
21
-7.084543
31
24.535545
12
17.466898
22
-9.452361
32
25.297518
13
17.466898
23
-9.446811
33
17.844103
0
3DFACE
8
Capot
62
13.000000
10
13.951536
20
-7.084543
30
24.535545
11
13.951536
21
-2.896556
31
28.729435
12
18.226896
22
-3.878716
32
29.291588
13
17.466898
23
-9.452361
33
25.297518
0
3DFACE
8
Capot
62
13.000000
10
13.951536
20
-2.896556
30
28.729435
11
13.951536
21
3.030323
31
28.733597
12
18.226896
22
4.009153
32
29.296831
13
18.226896
23
-3.878716
33
29.291588
0
3DFACE
8
Capot
62
13.000000
10
13.951536
20
3.030323
30
28.733597
11
13.951536
21
7.224206
31
24.545610
12
17.466898
22
9.590642
32
25.310179
13
18.226896
23
4.009153
33
29.296831
0
3DFACE
8
Capot
62
13.000000
10
13.951536
20
7.224206
30
24.545610
11
13.951536
21
7.228375
31
18.618734
12
17.466898
22
9.596191
32
17.856760
13
17.466898
23
9.590642
33
25.310179
0
3DFACE
8
Capot
62
13.000000
10
13.951536
20
7.228375
30
18.618734
11
13.951536
21
3.040388
31
14.424851
12
17.466898
22
4.022549
32
12.582693
13
17.466898
23
9.596191
33
17.856760
0
3DFACE
8
Capot
62
13.000000
10
13.951536
20
3.040388
30
14.424851
11
13.951536
21
-2.886490
31
14.420680
12
17.466898
22
-3.865320
32
12.577449
13
17.466898
23
4.022549
33
12.582693
0
3DFACE
8
Capot
62
13.000000
10
13.951536
20
-2.886490
30
14.420680
11
13.951536
21
-7.080374
31
18.608671
12
17.466898
22
-9.446811
32
17.844103
13
17.466898
23
-3.865320
33
12.577449
0
3DFACE
8
Capot
62
13.000000
10
17.466898
20
-9.446811
30
17.844103
11
17.466898
21
-9.452361
31
25.297518
12
38.329426
22
-9.452361
32
25.514378
13
38.329426
23
-9.446811
33
17.626507
0
3DFACE
8
Capot
62
13.000000
10
17.466898
20
-9.452361
30
25.297518
11
18.226896
21
-3.878716
31
29.291588
12
39.089424
22
-3.878716
32
29.815870
13
38.329426
23
-9.452361
33
25.514378
0
3DFACE
8
Capot
62
13.000000
10
18.226896
20
-3.878716
30
29.291588
11
18.226896
21
4.009153
31
29.296831
12
39.089424
22
4.009153
32
29.821419
13
39.089424
23
-3.878716
33
29.815870
0
3DFACE
8
Capot
62
13.000000
10
18.226896
20
4.009153
30
29.296831
11
17.466898
21
9.590642
31
25.310179
12
38.329426
22
9.590642
32
25.527773
13
39.089424
23
4.009153
33
29.821419
0
3DFACE
8
Capot
62
13.000000
10
17.466898
20
9.590642
30
25.310179
11
17.466898
21
9.596191
31
17.856760
12
38.329426
22
9.596191
32
17.639904
13
38.329426
23
9.590642
33
25.527773
0
3DFACE
8
Capot
62
13.000000
10
17.466898
20
9.596191
30
17.856760
11
17.466898
21
4.022549
31
12.582693
12
38.329426
22
4.022549
32
12.058414
13
38.329426
23
9.596191
33
17.639904
0
3DFACE
8
Capot
62
13.000000
10
17.466898
20
4.022549
30
12.582693
11
17.466898
21
-3.865320
31
12.577449
12
38.329426
22
-3.865320
32
12.052863
13
38.329426
23
4.022549
33
12.058414
0
3DFACE
8
Capot
62
13.000000
10
17.466898
20
-3.865320
30
12.577449
11
17.466898
21
-9.446811
31
17.844103
12
38.329426
22
-9.446811
32
17.626507
13
38.329426
23
-3.865320
33
12.052863
0
3DFACE
8
Capot
62
13.000000
10
38.329426
20
-9.446811
30
17.626507
11
38.329426
21
-9.452361
31
25.514378
12
44.282566
22
-6.872500
32
24.447891
13
44.282566
23
-6.868454
33
18.696625
0
3DFACE
8
Capot
62
13.000000
10
38.329426
20
-9.452361
30
25.514378
11
39.089424
21
-3.878716
31
29.815870
12
44.282566
22
-2.808601
32
28.517511
13
44.282566
23
-6.872500
33
24.447891
0
3DFACE
8
Capot
62
13.000000
10
39.089424
20
-3.878716
30
29.815870
11
39.089424
21
4.009153
31
29.821419
12
44.282566
22
2.942666
32
28.521557
13
44.282566
23
-2.808601
33
28.517511
0
3DFACE
8
Capot
62
13.000000
10
39.089424
20
4.009153
30
29.821419
11
38.329426
21
9.590642
31
25.527773
12
44.282566
22
7.012285
32
24.457657
13
44.282566
23
2.942666
33
28.521557
0
3DFACE
8
Capot
62
13.000000
10
38.329426
20
9.590642
30
25.527773
11
38.329426
21
9.596191
31
17.639904
12
44.282566
22
7.016332
32
18.706388
13
44.282566
23
7.012285
33
24.457657
0
3DFACE
8
Capot
62
13.000000
10
38.329426
20
9.596191
30
17.639904
11
38.329426
21
4.022549
31
12.058414
12
44.282566
22
2.952433
32
14.636770
13
44.282566
23
7.016332
33
18.706388
0
3DFACE
8
Capot
62
13.000000
10
38.329426
20
4.022549
30
12.058414
11
38.329426
21
-3.865320
31
12.052863
12
44.282566
22
-2.798833
32
14.632723
13
44.282566
23
2.952433
33
14.636770
0
3DFACE
8
Capot
62
13.000000
10
38.329426
20
-3.865320
30
12.052863
11
38.329426
21
-9.446811
31
17.626507
12
44.282566
22
-6.868454
32
18.696625
13
44.282566
23
-2.798833
33
14.632723
0
3DFACE
8
Capot
62
13.000000
10
44.282566
20
-6.868454
30
18.696625
11
44.282566
21
-6.872500
31
24.447891
12
44.282566
22
-2.808601
32
28.517511
13
44.282566
23
-2.808601
33
28.517511
0
3DFACE
8
Capot
62
13.000000
10
44.282566
20
-6.868454
30
18.696625
11
44.282566
21
-2.808601
31
28.517511
12
44.282566
22
2.942666
32
28.521557
13
44.282566
23
2.942666
33
28.521557
0
3DFACE
8
Capot
62
13.000000
10
44.282566
20
-6.868454
30
18.696625
11
44.282566
21
2.942666
31
28.521557
12
44.282566
22
7.012285
32
24.457657
13
44.282566
23
7.012285
33
24.457657
0
3DFACE
8
Capot
62
13.000000
10
44.282566
20
-6.868454
30
18.696625
11
44.282566
21
7.012285
31
24.457657
12
44.282566
22
7.016332
32
18.706388
13
44.282566
23
7.016332
33
18.706388
0
3DFACE
8
Capot
62
13.000000
10
44.282566
20
-6.868454
30
18.696625
11
44.282566
21
7.016332
31
18.706388
12
44.282566
22
2.952433
32
14.636770
13
44.282566
23
2.952433
33
14.636770
0
3DFACE
8
Capot
62
13.000000
10
44.282566
20
-6.868454
30
18.696625
11
44.282566
21
2.952433
31
14.636770
12
44.282566
22
-2.798833
32
14.632723
13
44.282566
23
-2.798833
33
14.632723
0
3DFACE
8
Capot
62
13.000000
10
37.829422
20
-9.376493
30
21.417883
11
36.729424
21
-8.456813
31
22.334478
12
36.729424
22
-9.376493
32
23.117884
13
36.729424
23
-9.376493
33
23.117884
0
3DFACE
8
Capot
62
13.000000
10
36.729424
20
-8.350140
30
20.482807
11
36.729424
21
-8.456813
31
22.334478
12
37.829422
22
-9.376493
32
21.417883
13
37.829422
23
-9.376493
33
21.417883
0
3DFACE
8
Capot
62
13.000000
10
37.829422
20
-9.376493
30
21.417883
11
36.729424
21
-9.188061
31
19.527773
12
36.729424
22
-8.350140
32
20.482807
13
36.729424
23
-8.350140
33
20.482807
0
3DFACE
8
Capot
62
13.000000
10
18.529423
20
-9.376493
30
21.417883
11
20.729425
21
-9.376493
31
23.117884
12
20.729425
22
-8.456813
32
22.334478
13
20.729425
23
-8.456813
33
22.334478
0
3DFACE
8
Capot
62
13.000000
10
18.529423
20
-9.376493
30
21.417883
11
20.729425
21
-8.456813
31
22.334478
12
20.729425
22
-8.350140
32
20.482807
13
20.729425
23
-8.350140
33
20.482807
0
3DFACE
8
Capot
62
13.000000
10
20.729425
20
-8.350140
30
20.482807
11
20.729425
21
-9.188061
31
19.527773
12
18.529423
22
-9.376493
32
21.417883
13
18.529423
23
-9.376493
33
21.417883
0
3DFACE
8
Capot
62
13.000000
10
36.729424
20
9.579075
30
23.117884
11
36.729424
21
8.659394
31
22.334478
12
37.829422
22
9.579075
32
21.417883
13
37.829422
23
9.579075
33
21.417883
0
3DFACE
8
Capot
62
13.000000
10
37.829422
20
9.579075
30
21.417883
11
36.729424
21
8.659394
31
22.334478
12
36.729424
22
8.552722
32
20.482807
13
36.729424
23
8.552722
33
20.482807
0
3DFACE
8
Capot
62
13.000000
10
36.729424
20
8.552722
30
20.482807
11
36.729424
21
9.390642
31
19.527773
12
37.829422
22
9.579075
32
21.417883
13
37.829422
23
9.579075
33
21.417883
0
3DFACE
8
Capot
62
13.000000
10
20.729425
20
8.659394
30
22.334478
11
20.729425
21
9.579075
31
23.117884
12
18.529423
22
9.579075
32
21.417883
13
18.529423
23
9.579075
33
21.417883
0
3DFACE
8
Capot
62
13.000000
10
20.729425
20
8.552722
30
20.482807
11
20.729425
21
8.659394
31
22.334478
12
18.529423
22
9.579075
32
21.417883
13
18.529423
23
9.579075
33
21.417883
0
3DFACE
8
Capot
62
13.000000
10
18.529423
20
9.579075
30
21.417883
11
20.729425
21
9.390642
31
19.527773
12
20.729425
22
8.552722
32
20.482807
13
20.729425
23
8.552722
33
20.482807
0
3DFACE
8
Capot
62
13.000000
10
36.729424
20
-9.188061
30
19.527773
11
20.729425
21
-9.188061
31
19.527773
12
20.729425
22
-8.350140
32
20.482807
13
36.729424
23
-8.350140
33
20.482807
0
3DFACE
8
Capot
62
13.000000
10
36.729424
20
-8.350140
30
20.482807
11
20.729425
21
-8.350140
31
20.482807
12
20.729425
22
-8.456813
32
22.334478
13
36.729424
23
-8.456813
33
22.334478
0
3DFACE
8
Capot
62
13.000000
10
36.729424
20
-8.456813
30
22.334478
11
20.729425
21
-8.456813
31
22.334478
12
20.729425
22
-9.376493
32
23.117884
13
36.729424
23
-9.376493
33
23.117884
0
3DFACE
8
Capot
62
13.000000
10
36.729424
20
8.552722
30
20.482807
11
20.729425
21
8.552722
31
20.482807
12
20.729425
22
9.390642
32
19.527773
13
36.729424
23
9.390642
33
19.527773
0
3DFACE
8
Capot
62
13.000000
10
36.729424
20
8.659394
30
22.334478
11
20.729425
21
8.659394
31
22.334478
12
20.729425
22
8.552722
32
20.482807
13
36.729424
23
8.552722
33
20.482807
0
3DFACE
8
Capot
62
13.000000
10
36.729424
20
9.579075
30
23.117884
11
20.729425
21
9.579075
31
23.117884
12
20.729425
22
8.659394
32
22.334478
13
36.729424
23
8.659394
33
22.334478
0
3DFACE
8
StabD
62
14.000000
10
-39.662136
20
2.244727
30
19.212511
11
-39.573814
21
19.256250
31
19.212511
12
-39.894855
22
19.499334
32
19.548147
13
-39.987026
23
1.944804
33
19.548147
0
3DFACE
8
StabD
62
14.000000
10
-39.573814
20
19.256250
30
19.212511
11
-37.348000
21
20.563471
31
19.212511
12
-37.572277
22
20.863392
32
19.548147
13
-39.894855
23
19.499334
33
19.548147
0
3DFACE
8
StabD
62
14.000000
10
-37.348000
20
20.563471
30
19.212511
11
-34.468586
21
20.563471
31
19.212511
12
-34.567665
22
20.863392
32
19.548147
13
-37.572277
23
20.863392
33
19.548147
0
3DFACE
8
StabD
62
14.000000
10
-34.468586
20
20.563471
30
19.212511
11
-32.189785
21
19.556557
31
19.212511
12
-32.189785
22
19.812702
32
19.548147
13
-34.567665
23
20.863392
33
19.548147
0
3DFACE
8
StabD
62
14.000000
10
-32.189785
20
19.556557
30
19.212511
11
-24.717436
21
3.693268
31
19.212511
12
-24.392548
22
3.456325
32
19.548147
13
-32.189785
23
19.812702
33
19.548147
0
3DFACE
8
StabD
62
14.000000
10
-39.987026
20
1.944804
30
19.548147
11
-39.894855
21
19.499334
31
19.548147
12
-39.695580
22
19.348455
32
19.795460
13
-39.785374
23
2.130961
33
19.795460
0
3DFACE
8
StabD
62
14.000000
10
-39.894855
20
19.499334
30
19.548147
11
-37.572277
21
20.863392
31
19.548147
12
-37.433075
22
20.677235
32
19.795460
13
-39.695580
23
19.348455
33
19.795460
0
3DFACE
8
StabD
62
14.000000
10
-37.572277
20
20.863392
30
19.548147
11
-34.567665
21
20.863392
31
19.548147
12
-34.506172
22
20.677235
32
19.795460
13
-37.433075
23
20.677235
33
19.795460
0
3DFACE
8
StabD
62
14.000000
10
-34.567665
20
20.863392
30
19.548147
11
-32.189785
21
19.812702
31
19.548147
12
-32.189785
22
19.653715
32
19.795460
13
-34.506172
23
20.677235
33
19.795460
0
3DFACE
8
StabD
62
14.000000
10
-32.189785
20
19.812702
30
19.548147
11
-24.392548
21
3.456325
31
19.548147
12
-24.594200
22
3.603392
32
19.795460
13
-32.189785
23
19.653715
33
19.795460
0
3DFACE
8
StabD
62
14.000000
10
-39.785374
20
2.130961
30
19.795460
11
-39.695580
21
19.348455
31
19.795460
12
-37.433075
22
20.677235
32
19.795460
13
-37.433075
23
20.677235
33
19.795460
0
3DFACE
8
StabD
62
14.000000
10
-39.785374
20
2.130961
30
19.795460
11
-37.433075
21
20.677235
31
19.795460
12
-34.506172
22
20.677235
32
19.795460
13
-34.506172
23
20.677235
33
19.795460
0
3DFACE
8
StabD
62
14.000000
10
-39.785374
20
2.130961
30
19.795460
11
-34.506172
21
20.677235
31
19.795460
12
-32.189785
22
19.653715
32
19.795460
13
-32.189785
23
19.653715
33
19.795460
0
3DFACE
8
StabD
62
14.000000
10
-39.785374
20
2.130961
30
19.795460
11
-32.189785
21
19.653715
31
19.795460
12
-24.594200
22
3.603392
32
19.795460
13
-24.594200
23
3.603392
33
19.795460
0
3DFACE
8
StabD
62
14.000000
10
-24.717436
20
3.693268
30
19.212511
11
-32.189785
21
19.556557
31
19.212511
12
-34.468586
22
20.563471
32
19.212511
13
-34.468586
23
20.563471
33
19.212511
0
3DFACE
8
StabD
62
14.000000
10
-24.717436
20
3.693268
30
19.212511
11
-34.468586
21
20.563471
31
19.212511
12
-37.348000
22
20.563471
32
19.212511
13
-37.348000
23
20.563471
33
19.212511
0
3DFACE
8
StabD
62
14.000000
10
-24.717436
20
3.693268
30
19.212511
11
-37.348000
21
20.563471
31
19.212511
12
-39.573814
22
19.256250
32
19.212511
13
-39.573814
23
19.256250
33
19.212511
0
3DFACE
8
StabD
62
14.000000
10
-24.717436
20
3.693268
30
19.212511
11
-39.573814
21
19.256250
31
19.212511
12
-39.662136
22
2.244727
32
19.212511
13
-39.662136
23
2.244727
33
19.212511
0
3DFACE
8
StabD
62
14.000000
10
-39.694199
20
11.003392
30
19.795460
11
-39.694199
21
12.903393
31
19.795460
12
-26.694201
22
8.003393
32
19.795460
13
-25.594200
23
5.803392
33
19.795460
0
3DFACE
8
ProfD
62
15.000000
10
-39.891109
20
2.119239
30
19.848457
11
-44.285885
21
2.441288
31
19.848457
12
-43.813042
22
9.423561
32
19.848457
13
-43.813042
23
9.423561
33
19.848457
0
3DFACE
8
ProfD
62
15.000000
10
-39.891109
20
2.119239
30
19.848457
11
-43.813042
21
9.423561
31
19.848457
12
-43.117661
22
15.734104
32
19.848457
13
-43.117661
23
15.734104
33
19.848457
0
3DFACE
8
ProfD
62
15.000000
10
-39.891109
20
2.119239
30
19.848457
11
-43.117661
21
15.734104
31
19.848457
12
-39.859409
22
19.364075
32
19.848457
13
-39.859409
23
19.364075
33
19.848457
0
3DFACE
8
ProfD
62
15.000000
10
-39.925728
20
2.121072
30
19.212511
11
-39.797184
21
19.309246
31
19.212511
12
-42.993458
22
15.687893
32
19.212511
13
-42.993458
23
15.687893
33
19.212511
0
3DFACE
8
ProfD
62
15.000000
10
-39.925728
20
2.121072
30
19.212511
11
-42.993458
21
15.687893
31
19.212511
12
-43.624146
22
9.540426
32
19.212511
13
-43.624146
23
9.540426
33
19.212511
0
3DFACE
8
ProfD
62
15.000000
10
-39.925728
20
2.121072
30
19.212511
11
-43.624146
21
9.540426
31
19.212511
12
-44.053017
22
2.403714
32
19.212511
13
-44.053017
23
2.403714
33
19.212511
0
3DFACE
8
ProfD
62
15.000000
10
-39.797184
20
19.309246
30
19.212511
11
-39.760952
21
19.571136
31
19.565813
12
-43.302067
22
15.759643
32
19.565813
13
-42.993458
23
15.687893
33
19.212511
0
3DFACE
8
ProfD
62
15.000000
10
-42.993458
20
15.687893
30
19.212511
11
-43.302067
21
15.759643
31
19.565813
12
-44.093494
22
9.417216
32
19.565813
13
-43.624146
23
9.540426
33
19.212511
0
3DFACE
8
ProfD
62
15.000000
10
-43.624146
20
9.540426
30
19.212511
11
-44.093494
21
9.417216
31
19.565813
12
-44.631664
22
2.217741
32
19.565813
13
-44.053017
23
2.403714
33
19.212511
0
3DFACE
8
ProfD
62
15.000000
10
-44.053017
20
2.403714
30
19.212511
11
-44.631664
21
2.217741
31
19.565813
12
-39.629848
22
1.965172
32
19.565813
13
-39.925728
23
2.121072
33
19.212511
0
3DFACE
8
ProfD
62
15.000000
10
-39.760952
20
19.571136
30
19.565813
11
-39.859409
21
19.364075
31
19.848457
12
-43.117661
22
15.734104
32
19.848457
13
-43.302067
23
15.759643
33
19.565813
0
3DFACE
8
ProfD
62
15.000000
10
-43.302067
20
15.759643
30
19.565813
11
-43.117661
21
15.734104
31
19.848457
12
-43.813042
22
9.423561
32
19.848457
13
-44.093494
23
9.417216
33
19.565813
0
3DFACE
8
ProfD
62
15.000000
10
-44.093494
20
9.417216
30
19.565813
11
-43.813042
21
9.423561
31
19.848457
12
-44.285885
22
2.441288
32
19.848457
13
-44.631664
23
2.217741
33
19.565813
0
3DFACE
8
ProfD
62
15.000000
10
-44.631664
20
2.217741
30
19.565813
11
-44.285885
21
2.441288
31
19.848457
12
-39.891109
22
2.119239
32
19.848457
13
-39.629848
23
1.965172
33
19.565813
0
3DFACE
8
ProfD
62
15.000000
10
-39.894196
20
11.203393
30
19.795460
11
-43.494198
21
12.603393
31
19.795460
12
-43.194199
22
14.303392
32
19.795460
13
-39.994198
23
13.003392
33
19.795460
0
3DFACE
8
B3
62
16.000000
10
12.480993
20
-22.697216
30
15.113789
11
12.480993
21
-22.697216
31
15.113789
12
11.363154
22
-20.854513
32
15.113789
13
11.363154
23
-21.775866
33
13.517961
0
3DFACE
8
B3
62
16.000000
10
11.363154
20
-21.775866
30
13.517961
11
11.363154
21
-20.854513
31
15.113789
12
-0.242679
22
-20.854513
32
15.113787
13
-0.242679
23
-21.775866
33
13.517960
0
3DFACE
8
B3
62
16.000000
10
-0.242679
20
-21.775866
30
13.517960
11
-0.242679
21
-20.854513
31
15.113787
12
-1.360518
22
-22.697216
32
15.113787
13
-1.360518
23
-22.697216
33
15.113787
0
3DFACE
8
B3
62
16.000000
10
12.480993
20
-22.697216
30
15.113789
11
12.480993
21
-22.697216
31
15.113789
12
11.363154
22
-21.775866
32
13.517961
13
11.363154
23
-23.618567
33
13.517962
0
3DFACE
8
B3
62
16.000000
10
11.363154
20
-23.618567
30
13.517962
11
11.363154
21
-21.775866
31
13.517961
12
-0.242679
22
-21.775866
32
13.517960
13
-0.242679
23
-23.618567
33
13.517961
0
3DFACE
8
B3
62
16.000000
10
-0.242679
20
-23.618567
30
13.517961
11
-0.242679
21
-21.775866
31
13.517960
12
-1.360518
22
-22.697216
32
15.113787
13
-1.360518
23
-22.697216
33
15.113787
0
3DFACE
8
B3
62
16.000000
10
12.480993
20
-22.697216
30
15.113789
11
12.480993
21
-22.697216
31
15.113789
12
11.363154
22
-23.618567
32
13.517962
13
11.363154
23
-24.539917
33
15.113789
0
3DFACE
8
B3
62
16.000000
10
11.363154
20
-24.539917
30
15.113789
11
11.363154
21
-23.618567
31
13.517962
12
-0.242679
22
-23.618567
32
13.517961
13
-0.242679
23
-24.539917
33
15.113787
0
3DFACE
8
B3
62
16.000000
10
-0.242679
20
-24.539917
30
15.113787
11
-0.242679
21
-23.618567
31
13.517961
12
-1.360518
22
-22.697216
32
15.113787
13
-1.360518
23
-22.697216
33
15.113787
0
3DFACE
8
B3
62
16.000000
10
12.480993
20
-22.697216
30
15.113789
11
12.480993
21
-22.697216
31
15.113789
12
11.363154
22
-24.539917
32
15.113789
13
11.363154
23
-23.618567
33
16.709616
0
3DFACE
8
B3
62
16.000000
10
11.363154
20
-23.618567
30
16.709616
11
11.363154
21
-24.539917
31
15.113789
12
-0.242679
22
-24.539917
32
15.113787
13
-0.242679
23
-23.618567
33
16.709614
0
3DFACE
8
B3
62
16.000000
10
-0.242679
20
-23.618567
30
16.709614
11
-0.242679
21
-24.539917
31
15.113787
12
-1.360518
22
-22.697216
32
15.113787
13
-1.360518
23
-22.697216
33
15.113787
0
3DFACE
8
B3
62
16.000000
10
12.480993
20
-22.697216
30
15.113789
11
12.480993
21
-22.697216
31
15.113789
12
11.363154
22
-23.618567
32
16.709616
13
11.363154
23
-21.775866
33
16.709614
0
3DFACE
8
B3
62
16.000000
10
11.363154
20
-21.775866
30
16.709614
11
11.363154
21
-23.618567
31
16.709616
12
-0.242679
22
-23.618567
32
16.709614
13
-0.242679
23
-21.775866
33
16.709614
0
3DFACE
8
B3
62
16.000000
10
-0.242679
20
-21.775866
30
16.709614
11
-0.242679
21
-23.618567
31
16.709614
12
-1.360518
22
-22.697216
32
15.113787
13
-1.360518
23
-22.697216
33
15.113787
0
3DFACE
8
B3
62
16.000000
10
12.480993
20
-22.697216
30
15.113789
11
12.480993
21
-22.697216
31
15.113789
12
11.363154
22
-21.775866
32
16.709614
13
11.363154
23
-20.854513
33
15.113789
0
3DFACE
8
B3
62
16.000000
10
11.363154
20
-20.854513
30
15.113789
11
11.363154
21
-21.775866
31
16.709614
12
-0.242679
22
-21.775866
32
16.709614
13
-0.242679
23
-20.854513
33
15.113787
0
3DFACE
8
B3
62
16.000000
10
-0.242679
20
-20.854513
30
15.113787
11
-0.242679
21
-21.775866
31
16.709614
12
-1.360518
22
-22.697216
32
15.113787
13
-1.360518
23
-22.697216
33
15.113787
0
3DFACE
8
B3L
62
17.000000
10
-1.360518
20
-21.774450
30
13.960328
11
-3.239008
21
-21.774450
31
13.960328
12
-3.239008
22
-23.234756
32
13.737918
13
-1.360518
23
-23.234756
33
13.737918
0
3DFACE
8
B3L
62
17.000000
10
-1.360518
20
-23.234756
30
13.737918
11
-3.239008
21
-23.234756
31
13.737918
12
-3.239008
22
-24.157526
32
14.891376
13
-1.360518
23
-24.157526
33
14.891376
0
3DFACE
8
B3L
62
17.000000
10
-1.360518
20
-24.157526
30
14.891376
11
-3.239008
21
-24.157526
31
14.891376
12
-3.239008
22
-23.619984
32
16.267246
13
-1.360518
23
-23.619984
33
16.267246
0
3DFACE
8
B3L
62
17.000000
10
-1.360518
20
-23.619984
30
16.267246
11
-3.239008
21
-23.619984
31
16.267246
12
-3.239008
22
-22.159674
32
16.489656
13
-1.360518
23
-22.159674
33
16.489656
0
3DFACE
8
B3L
62
17.000000
10
-1.360518
20
-22.159674
30
16.489656
11
-3.239008
21
-22.159674
31
16.489656
12
-3.239008
22
-21.236910
32
15.336198
13
-1.360518
23
-21.236910
33
15.336198
0
3DFACE
8
B3L
62
17.000000
10
-1.360518
20
-21.236910
30
15.336198
11
-3.239008
21
-21.236910
31
15.336198
12
-3.239008
22
-21.774450
32
13.960328
13
-1.360518
23
-21.774450
33
13.960328
0
3DFACE
8
B2
62
18.000000
10
12.480993
20
-18.197214
30
15.113789
11
12.480993
21
-18.197214
31
15.113789
12
11.363154
22
-16.354511
32
15.113789
13
11.363154
23
-17.275864
33
13.517961
0
3DFACE
8
B2
62
18.000000
10
11.363154
20
-17.275864
30
13.517961
11
11.363154
21
-16.354511
31
15.113789
12
-0.242679
22
-16.354511
32
15.113787
13
-0.242679
23
-17.275864
33
13.517960
0
3DFACE
8
B2
62
18.000000
10
-0.242679
20
-17.275864
30
13.517960
11
-0.242679
21
-16.354511
31
15.113787
12
-1.360518
22
-18.197214
32
15.113787
13
-1.360518
23
-18.197214
33
15.113787
0
3DFACE
8
B2
62
18.000000
10
12.480993
20
-18.197214
30
15.113789
11
12.480993
21
-18.197214
31
15.113789
12
11.363154
22
-17.275864
32
13.517961
13
11.363154
23
-19.118567
33
13.517962
0
3DFACE
8
B2
62
18.000000
10
11.363154
20
-19.118567
30
13.517962
11
11.363154
21
-17.275864
31
13.517961
12
-0.242679
22
-17.275864
32
13.517960
13
-0.242679
23
-19.118567
33
13.517961
0
3DFACE
8
B2
62
18.000000
10
-0.242679
20
-19.118567
30
13.517961
11
-0.242679
21
-17.275864
31
13.517960
12
-1.360518
22
-18.197214
32
15.113787
13
-1.360518
23
-18.197214
33
15.113787
0
3DFACE
8
B2
62
18.000000
10
12.480993
20
-18.197214
30
15.113789
11
12.480993
21
-18.197214
31
15.113789
12
11.363154
22
-19.118567
32
13.517962
13
11.363154
23
-20.039917
33
15.113789
0
3DFACE
8
B2
62
18.000000
10
11.363154
20
-20.039917
30
15.113789
11
11.363154
21
-19.118567
31
13.517962
12
-0.242679
22
-19.118567
32
13.517961
13
-0.242679
23
-20.039917
33
15.113787
0
3DFACE
8
B2
62
18.000000
10
-0.242679
20
-20.039917
30
15.113787
11
-0.242679
21
-19.118567
31
13.517961
12
-1.360518
22
-18.197214
32
15.113787
13
-1.360518
23
-18.197214
33
15.113787
0
3DFACE
8
B2
62
18.000000
10
12.480993
20
-18.197214
30
15.113789
11
12.480993
21
-18.197214
31
15.113789
12
11.363154
22
-20.039917
32
15.113789
13
11.363154
23
-19.118567
33
16.709616
0
3DFACE
8
B2
62
18.000000
10
11.363154
20
-19.118567
30
16.709616
11
11.363154
21
-20.039917
31
15.113789
12
-0.242679
22
-20.039917
32
15.113787
13
-0.242679
23
-19.118567
33
16.709614
0
3DFACE
8
B2
62
18.000000
10
-0.242679
20
-19.118567
30
16.709614
11
-0.242679
21
-20.039917
31
15.113787
12
-1.360518
22
-18.197214
32
15.113787
13
-1.360518
23
-18.197214
33
15.113787
0
3DFACE
8
B2
62
18.000000
10
12.480993
20
-18.197214
30
15.113789
11
12.480993
21
-18.197214
31
15.113789
12
11.363154
22
-19.118567
32
16.709616
13
11.363154
23
-17.275862
33
16.709614
0
3DFACE
8
B2
62
18.000000
10
11.363154
20
-17.275862
30
16.709614
11
11.363154
21
-19.118567
31
16.709616
12
-0.242679
22
-19.118567
32
16.709614
13
-0.242679
23
-17.275862
33
16.709614
0
3DFACE
8
B2
62
18.000000
10
-0.242679
20
-17.275862
30
16.709614
11
-0.242679
21
-19.118567
31
16.709614
12
-1.360518
22
-18.197214
32
15.113787
13
-1.360518
23
-18.197214
33
15.113787
0
3DFACE
8
B2
62
18.000000
10
12.480993
20
-18.197214
30
15.113789
11
12.480993
21
-18.197214
31
15.113789
12
11.363154
22
-17.275862
32
16.709614
13
11.363154
23
-16.354511
33
15.113789
0
3DFACE
8
B2
62
18.000000
10
11.363154
20
-16.354511
30
15.113789
11
11.363154
21
-17.275862
31
16.709614
12
-0.242679
22
-17.275862
32
16.709614
13
-0.242679
23
-16.354511
33
15.113787
0
3DFACE
8
B2
62
18.000000
10
-0.242679
20
-16.354511
30
15.113787
11
-0.242679
21
-17.275862
31
16.709614
12
-1.360518
22
-18.197214
32
15.113787
13
-1.360518
23
-18.197214
33
15.113787
0
3DFACE
8
B2L
62
19.000000
10
-1.360518
20
-17.274448
30
13.960328
11
-3.239008
21
-17.274448
31
13.960328
12
-3.239008
22
-18.734756
32
13.737918
13
-1.360518
23
-18.734756
33
13.737918
0
3DFACE
8
B2L
62
19.000000
10
-1.360518
20
-18.734756
30
13.737918
11
-3.239008
21
-18.734756
31
13.737918
12
-3.239008
22
-19.657522
32
14.891376
13
-1.360518
23
-19.657522
33
14.891376
0
3DFACE
8
B2L
62
19.000000
10
-1.360518
20
-19.657522
30
14.891376
11
-3.239008
21
-19.657522
31
14.891376
12
-3.239008
22
-19.119982
32
16.267246
13
-1.360518
23
-19.119982
33
16.267246
0
3DFACE
8
B2L
62
19.000000
10
-1.360518
20
-19.119982
30
16.267246
11
-3.239008
21
-19.119982
31
16.267246
12
-3.239008
22
-17.659674
32
16.489656
13
-1.360518
23
-17.659674
33
16.489656
0
3DFACE
8
B2L
62
19.000000
10
-1.360518
20
-17.659674
30
16.489656
11
-3.239008
21
-17.659674
31
16.489656
12
-3.239008
22
-16.736906
32
15.336198
13
-1.360518
23
-16.736906
33
15.336198
0
3DFACE
8
B2L
62
19.000000
10
-1.360518
20
-16.736906
30
15.336198
11
-3.239008
21
-16.736906
31
15.336198
12
-3.239008
22
-17.274448
32
13.960328
13
-1.360518
23
-17.274448
33
13.960328
0
3DFACE
8
B0
62
20.000000
10
12.480993
20
18.042782
30
15.113789
11
12.480993
21
18.042782
31
15.113789
12
11.363154
22
19.885487
32
15.113789
13
11.363154
23
18.964132
33
13.517961
0
3DFACE
8
B0
62
20.000000
10
11.363154
20
18.964132
30
13.517961
11
11.363154
21
19.885487
31
15.113789
12
-0.242679
22
19.885487
32
15.113787
13
-0.242679
23
18.964132
33
13.517960
0
3DFACE
8
B0
62
20.000000
10
-0.242679
20
18.964132
30
13.517960
11
-0.242679
21
19.885487
31
15.113787
12
-1.360518
22
18.042782
32
15.113787
13
-1.360518
23
18.042782
33
15.113787
0
3DFACE
8
B0
62
20.000000
10
12.480993
20
18.042782
30
15.113789
11
12.480993
21
18.042782
31
15.113789
12
11.363154
22
18.964132
32
13.517961
13
11.363154
23
17.121431
33
13.517962
0
3DFACE
8
B0
62
20.000000
10
11.363154
20
17.121431
30
13.517962
11
11.363154
21
18.964132
31
13.517961
12
-0.242679
22
18.964132
32
13.517960
13
-0.242679
23
17.121431
33
13.517961
0
3DFACE
8
B0
62
20.000000
10
-0.242679
20
17.121431
30
13.517961
11
-0.242679
21
18.964132
31
13.517960
12
-1.360518
22
18.042782
32
15.113787
13
-1.360518
23
18.042782
33
15.113787
0
3DFACE
8
B0
62
20.000000
10
12.480993
20
18.042782
30
15.113789
11
12.480993
21
18.042782
31
15.113789
12
11.363154
22
17.121431
32
13.517962
13
11.363154
23
16.200081
33
15.113789
0
3DFACE
8
B0
62
20.000000
10
11.363154
20
16.200081
30
15.113789
11
11.363154
21
17.121431
31
13.517962
12
-0.242679
22
17.121431
32
13.517961
13
-0.242679
23
16.200081
33
15.113787
0
3DFACE
8
B0
62
20.000000
10
-0.242679
20
16.200081
30
15.113787
11
-0.242679
21
17.121431
31
13.517961
12
-1.360518
22
18.042782
32
15.113787
13
-1.360518
23
18.042782
33
15.113787
0
3DFACE
8
B0
62
20.000000
10
12.480993
20
18.042782
30
15.113789
11
12.480993
21
18.042782
31
15.113789
12
11.363154
22
16.200081
32
15.113789
13
11.363154
23
17.121431
33
16.709616
0
3DFACE
8
B0
62
20.000000
10
11.363154
20
17.121431
30
16.709616
11
11.363154
21
16.200081
31
15.113789
12
-0.242679
22
16.200081
32
15.113787
13
-0.242679
23
17.121431
33
16.709614
0
3DFACE
8
B0
62
20.000000
10
-0.242679
20
17.121431
30
16.709614
11
-0.242679
21
16.200081
31
15.113787
12
-1.360518
22
18.042782
32
15.113787
13
-1.360518
23
18.042782
33
15.113787
0
3DFACE
8
B0
62
20.000000
10
12.480993
20
18.042782
30
15.113789
11
12.480993
21
18.042782
31
15.113789
12
11.363154
22
17.121431
32
16.709616
13
11.363154
23
18.964134
33
16.709614
0
3DFACE
8
B0
62
20.000000
10
11.363154
20
18.964134
30
16.709614
11
11.363154
21
17.121431
31
16.709616
12
-0.242679
22
17.121431
32
16.709614
13
-0.242679
23
18.964134
33
16.709614
0
3DFACE
8
B0
62
20.000000
10
-0.242679
20
18.964134
30
16.709614
11
-0.242679
21
17.121431
31
16.709614
12
-1.360518
22
18.042782
32
15.113787
13
-1.360518
23
18.042782
33
15.113787
0
3DFACE
8
B0
62
20.000000
10
12.480993
20
18.042782
30
15.113789
11
12.480993
21
18.042782
31
15.113789
12
11.363154
22
18.964134
32
16.709614
13
11.363154
23
19.885487
33
15.113789
0
3DFACE
8
B0
62
20.000000
10
11.363154
20
19.885487
30
15.113789
11
11.363154
21
18.964134
31
16.709614
12
-0.242679
22
18.964134
32
16.709614
13
-0.242679
23
19.885487
33
15.113787
0
3DFACE
8
B0
62
20.000000
10
-0.242679
20
19.885487
30
15.113787
11
-0.242679
21
18.964134
31
16.709614
12
-1.360518
22
18.042782
32
15.113787
13
-1.360518
23
18.042782
33
15.113787
0
3DFACE
8
B0L
62
21.000000
10
-1.360518
20
18.965549
30
13.960328
11
-3.239008
21
18.965549
31
13.960328
12
-3.239008
22
17.505241
32
13.737918
13
-1.360518
23
17.505241
33
13.737918
0
3DFACE
8
B0L
62
21.000000
10
-1.360518
20
17.505241
30
13.737918
11
-3.239008
21
17.505241
31
13.737918
12
-3.239008
22
16.582474
32
14.891376
13
-1.360518
23
16.582474
33
14.891376
0
3DFACE
8
B0L
62
21.000000
10
-1.360518
20
16.582474
30
14.891376
11
-3.239008
21
16.582474
31
14.891376
12
-3.239008
22
17.120014
32
16.267246
13
-1.360518
23
17.120014
33
16.267246
0
3DFACE
8
B0L
62
21.000000
10
-1.360518
20
17.120014
30
16.267246
11
-3.239008
21
17.120014
31
16.267246
12
-3.239008
22
18.580324
32
16.489656
13
-1.360518
23
18.580324
33
16.489656
0
3DFACE
8
B0L
62
21.000000
10
-1.360518
20
18.580324
30
16.489656
11
-3.239008
21
18.580324
31
16.489656
12
-3.239008
22
19.503090
32
15.336198
13
-1.360518
23
19.503090
33
15.336198
0
3DFACE
8
B0L
62
21.000000
10
-1.360518
20
19.503090
30
15.336198
11
-3.239008
21
19.503090
31
15.336198
12
-3.239008
22
18.965549
32
13.960328
13
-1.360518
23
18.965549
33
13.960328
0
3DFACE
8
B1
62
22.000000
10
12.480993
20
21.862783
30
15.113789
11
12.480993
21
21.862783
31
15.113789
12
11.363154
22
23.705486
32
15.113789
13
11.363154
23
22.784134
33
13.517961
0
3DFACE
8
B1
62
22.000000
10
11.363154
20
22.784134
30
13.517961
11
11.363154
21
23.705486
31
15.113789
12
-0.242679
22
23.705486
32
15.113787
13
-0.242679
23
22.784134
33
13.517960
0
3DFACE
8
B1
62
22.000000
10
-0.242679
20
22.784134
30
13.517960
11
-0.242679
21
23.705486
31
15.113787
12
-1.360518
22
21.862783
32
15.113787
13
-1.360518
23
21.862783
33
15.113787
0
3DFACE
8
B1
62
22.000000
10
12.480993
20
21.862783
30
15.113789
11
12.480993
21
21.862783
31
15.113789
12
11.363154
22
22.784134
32
13.517961
13
11.363154
23
20.941433
33
13.517962
0
3DFACE
8
B1
62
22.000000
10
11.363154
20
20.941433
30
13.517962
11
11.363154
21
22.784134
31
13.517961
12
-0.242679
22
22.784134
32
13.517960
13
-0.242679
23
20.941433
33
13.517961
0
3DFACE
8
B1
62
22.000000
10
-0.242679
20
20.941433
30
13.517961
11
-0.242679
21
22.784134
31
13.517960
12
-1.360518
22
21.862783
32
15.113787
13
-1.360518
23
21.862783
33
15.113787
0
3DFACE
8
B1
62
22.000000
10
12.480993
20
21.862783
30
15.113789
11
12.480993
21
21.862783
31
15.113789
12
11.363154
22
20.941433
32
13.517962
13
11.363154
23
20.020082
33
15.113789
0
3DFACE
8
B1
62
22.000000
10
11.363154
20
20.020082
30
15.113789
11
11.363154
21
20.941433
31
13.517962
12
-0.242679
22
20.941433
32
13.517961
13
-0.242679
23
20.020082
33
15.113787
0
3DFACE
8
B1
62
22.000000
10
-0.242679
20
20.020082
30
15.113787
11
-0.242679
21
20.941433
31
13.517961
12
-1.360518
22
21.862783
32
15.113787
13
-1.360518
23
21.862783
33
15.113787
0
3DFACE
8
B1
62
22.000000
10
12.480993
20
21.862783
30
15.113789
11
12.480993
21
21.862783
31
15.113789
12
11.363154
22
20.020082
32
15.113789
13
11.363154
23
20.941433
33
16.709616
0
3DFACE
8
B1
62
22.000000
10
11.363154
20
20.941433
30
16.709616
11
11.363154
21
20.020082
31
15.113789
12
-0.242679
22
20.020082
32
15.113787
13
-0.242679
23
20.941433
33
16.709614
0
3DFACE
8
B1
62
22.000000
10
-0.242679
20
20.941433
30
16.709614
11
-0.242679
21
20.020082
31
15.113787
12
-1.360518
22
21.862783
32
15.113787
13
-1.360518
23
21.862783
33
15.113787
0
3DFACE
8
B1
62
22.000000
10
12.480993
20
21.862783
30
15.113789
11
12.480993
21
21.862783
31
15.113789
12
11.363154
22
20.941433
32
16.709616
13
11.363154
23
22.784136
33
16.709614
0
3DFACE
8
B1
62
22.000000
10
11.363154
20
22.784136
30
16.709614
11
11.363154
21
20.941433
31
16.709616
12
-0.242679
22
20.941433
32
16.709614
13
-0.242679
23
22.784136
33
16.709614
0
3DFACE
8
B1
62
22.000000
10
-0.242679
20
22.784136
30
16.709614
11
-0.242679
21
20.941433
31
16.709614
12
-1.360518
22
21.862783
32
15.113787
13
-1.360518
23
21.862783
33
15.113787
0
3DFACE
8
B1
62
22.000000
10
12.480993
20
21.862783
30
15.113789
11
12.480993
21
21.862783
31
15.113789
12
11.363154
22
22.784136
32
16.709614
13
11.363154
23
23.705486
33
15.113789
0
3DFACE
8
B1
62
22.000000
10
11.363154
20
23.705486
30
15.113789
11
11.363154
21
22.784136
31
16.709614
12
-0.242679
22
22.784136
32
16.709614
13
-0.242679
23
23.705486
33
15.113787
0
3DFACE
8
B1
62
22.000000
10
-0.242679
20
23.705486
30
15.113787
11
-0.242679
21
22.784136
31
16.709614
12
-1.360518
22
21.862783
32
15.113787
13
-1.360518
23
21.862783
33
15.113787
0
3DFACE
8
B1L
62
23.000000
10
-1.360518
20
22.785551
30
13.960328
11
-3.239008
21
22.785551
31
13.960328
12
-3.239008
22
21.325243
32
13.737918
13
-1.360518
23
21.325243
33
13.737918
0
3DFACE
8
B1L
62
23.000000
10
-1.360518
20
21.325243
30
13.737918
11
-3.239008
21
21.325243
31
13.737918
12
-3.239008
22
20.402475
32
14.891376
13
-1.360518
23
20.402475
33
14.891376
0
3DFACE
8
B1L
62
23.000000
10
-1.360518
20
20.402475
30
14.891376
11
-3.239008
21
20.402475
31
14.891376
12
-3.239008
22
20.940016
32
16.267246
13
-1.360518
23
20.940016
33
16.267246
0
3DFACE
8
B1L
62
23.000000
10
-1.360518
20
20.940016
30
16.267246
11
-3.239008
21
20.940016
31
16.267246
12
-3.239008
22
22.400324
32
16.489656
13
-1.360518
23
22.400324
33
16.489656
0
3DFACE
8
B1L
62
23.000000
10
-1.360518
20
22.400324
30
16.489656
11
-3.239008
21
22.400324
31
16.489656
12
-3.239008
22
23.323092
32
15.336198
13
-1.360518
23
23.323092
33
15.336198
0
3DFACE
8
B1L
62
23.000000
10
-1.360518
20
23.323092
30
15.336198
11
-3.239008
21
23.323092
31
15.336198
12
-3.239008
22
22.785551
32
13.960328
13
-1.360518
23
22.785551
33
13.960328
0
3DFACE
8
Canon1
62
24.000000
10
10.919379
20
15.433470
30
19.283197
11
10.481290
21
15.816492
31
19.986052
12
14.321868
22
15.783093
32
20.083542
13
14.321868
23
15.371233
33
19.265491
0
3DFACE
8
Canon1
62
24.000000
10
10.481290
20
15.816492
30
19.986052
11
10.513938
21
16.838108
31
19.933664
12
14.321868
22
16.881639
32
20.022570
13
14.321868
23
15.783093
33
20.083542
0
3DFACE
8
Canon1
62
24.000000
10
10.513938
20
16.838108
30
19.933664
11
10.972210
21
17.086481
31
19.198429
12
14.321868
22
17.148716
32
19.166830
13
14.321868
23
16.881639
33
20.022570
0
3DFACE
8
Canon1
62
24.000000
10
10.972210
20
17.086481
30
19.198429
11
11.222785
21
16.218369
31
18.796421
12
14.321868
22
16.215233
32
18.698931
13
14.321868
23
17.148716
33
19.166830
0
3DFACE
8
Canon1
62
24.000000
10
11.222785
20
16.218369
30
18.796421
11
10.919379
21
15.433470
31
19.283197
12
14.321868
22
15.371233
32
19.265491
13
14.321868
23
16.215233
33
18.698931
0
3DFACE
8
Canon1
62
24.000000
10
14.321868
20
15.371233
30
19.265491
11
14.321868
21
15.783093
31
20.083542
12
14.926703
22
15.906162
32
19.904881
13
14.926703
23
15.600590
33
19.297941
0
3DFACE
8
Canon1
62
24.000000
10
14.321868
20
15.783093
30
20.083542
11
14.321868
21
16.881639
31
20.022570
12
14.926703
22
16.721209
32
19.859644
13
14.926703
23
15.906162
33
19.904881
0
3DFACE
8
Canon1
62
24.000000
10
14.321868
20
16.881639
30
20.022570
11
14.321868
21
17.148716
31
19.166830
12
14.926703
22
16.919361
32
19.224745
13
14.926703
23
16.721209
33
19.859644
0
3DFACE
8
Canon1
62
24.000000
10
14.321868
20
17.148716
30
19.166830
11
14.321868
21
16.215233
31
18.698931
12
14.926703
22
16.226778
32
18.877592
13
14.926703
23
16.919361
33
19.224745
0
3DFACE
8
Canon1
62
24.000000
10
14.321868
20
16.215233
30
18.698931
11
14.321868
21
15.371233
31
19.265491
12
14.926703
22
15.600590
32
19.297941
13
14.926703
23
16.226778
33
18.877592
0
3DFACE
8
Canon1
62
24.000000
10
14.926703
20
15.600590
30
19.297941
11
14.926703
21
15.906162
31
19.904881
12
14.926703
22
16.721209
32
19.859644
13
14.926703
23
16.721209
33
19.859644
0
3DFACE
8
Canon1
62
24.000000
10
14.926703
20
15.600590
30
19.297941
11
14.926703
21
16.721209
31
19.859644
12
14.926703
22
16.919361
32
19.224745
13
14.926703
23
16.919361
33
19.224745
0
3DFACE
8
Canon1
62
24.000000
10
14.926703
20
15.600590
30
19.297941
11
14.926703
21
16.919361
31
19.224745
12
14.926703
22
16.226778
32
18.877592
13
14.926703
23
16.226778
33
18.877592
0
3DFACE
8
Canon2
62
25.000000
10
10.919379
20
17.783934
30
19.283197
11
10.481290
21
18.166956
31
19.986052
12
14.321868
22
18.133560
32
20.083542
13
14.321868
23
17.721697
33
19.265491
0
3DFACE
8
Canon2
62
25.000000
10
10.481290
20
18.166956
30
19.986052
11
10.513938
21
19.188574
31
19.933664
12
14.321868
22
19.232109
32
20.022570
13
14.321868
23
18.133560
33
20.083542
0
3DFACE
8
Canon2
62
25.000000
10
10.513938
20
19.188574
30
19.933664
11
10.972210
21
19.436943
31
19.198429
12
14.321868
22
19.499182
32
19.166830
13
14.321868
23
19.232109
33
20.022570
0
3DFACE
8
Canon2
62
25.000000
10
10.972210
20
19.436943
30
19.198429
11
11.222785
21
18.568830
31
18.796421
12
14.321868
22
18.565699
32
18.698931
13
14.321868
23
19.499182
33
19.166830
0
3DFACE
8
Canon2
62
25.000000
10
11.222785
20
18.568830
30
18.796421
11
10.919379
21
17.783934
31
19.283197
12
14.321868
22
17.721697
32
19.265491
13
14.321868
23
18.565699
33
18.698931
0
3DFACE
8
Canon2
62
25.000000
10
14.321868
20
17.721697
30
19.265491
11
14.321868
21
18.133560
31
20.083542
12
14.926703
22
18.256626
32
19.904881
13
14.926703
23
17.951054
33
19.297941
0
3DFACE
8
Canon2
62
25.000000
10
14.321868
20
18.133560
30
20.083542
11
14.321868
21
19.232109
31
20.022570
12
14.926703
22
19.071672
32
19.859644
13
14.926703
23
18.256626
33
19.904881
0
3DFACE
8
Canon2
62
25.000000
10
14.321868
20
19.232109
30
20.022570
11
14.321868
21
19.499182
31
19.166830
12
14.926703
22
19.269825
32
19.224745
13
14.926703
23
19.071672
33
19.859644
0
3DFACE
8
Canon2
62
25.000000
10
14.321868
20
19.499182
30
19.166830
11
14.321868
21
18.565699
31
18.698931
12
14.926703
22
18.577242
32
18.877592
13
14.926703
23
19.269825
33
19.224745
0
3DFACE
8
Canon2
62
25.000000
10
14.321868
20
18.565699
30
18.698931
11
14.321868
21
17.721697
31
19.265491
12
14.926703
22
17.951054
32
19.297941
13
14.926703
23
18.577242
33
18.877592
0
3DFACE
8
Canon2
62
25.000000
10
14.926703
20
17.951054
30
19.297941
11
14.926703
21
18.256626
31
19.904881
12
14.926703
22
19.071672
32
19.859644
13
14.926703
23
19.071672
33
19.859644
0
3DFACE
8
Canon2
62
25.000000
10
14.926703
20
17.951054
30
19.297941
11
14.926703
21
19.071672
31
19.859644
12
14.926703
22
19.269825
32
19.224745
13
14.926703
23
19.269825
33
19.224745
0
3DFACE
8
Canon2
62
25.000000
10
14.926703
20
17.951054
30
19.297941
11
14.926703
21
19.269825
31
19.224745
12
14.926703
22
18.577242
32
18.877592
13
14.926703
23
18.577242
33
18.877592
0
3DFACE
8
Canon4
62
26.000000
10
14.321868
20
-17.966005
30
19.267462
11
14.321868
21
-18.459335
31
20.088358
12
10.481290
22
-18.499338
32
19.990528
13
10.919379
23
-18.040560
33
19.285231
0
3DFACE
8
Canon4
62
26.000000
10
14.321868
20
-18.459335
30
20.088358
11
14.321868
21
-19.775169
31
20.027172
12
10.513938
22
-19.723022
32
19.937960
13
10.481290
23
-18.499338
33
19.990528
0
3DFACE
8
Canon4
62
26.000000
10
14.321868
20
-19.775169
30
20.027172
11
14.321868
21
-20.095064
31
19.168457
12
10.972210
22
-20.020517
32
19.200167
13
10.513938
23
-19.723022
33
19.937960
0
3DFACE
8
Canon4
62
26.000000
10
14.321868
20
-20.095064
30
19.168457
11
14.321868
21
-18.976946
31
18.698931
12
11.222785
22
-18.980694
32
18.796761
13
10.972210
23
-20.020517
33
19.200167
0
3DFACE
8
Canon4
62
26.000000
10
14.321868
20
-18.976946
30
18.698931
11
14.321868
21
-17.966005
31
19.267462
12
10.919379
22
-18.040560
32
19.285231
13
11.222785
23
-18.980694
33
18.796761
0
3DFACE
8
Canon4
62
26.000000
10
14.926703
20
-18.240730
30
19.300024
11
14.926703
21
-18.606741
31
19.909075
12
14.321868
22
-18.459335
32
20.088358
13
14.321868
23
-17.966005
33
19.267462
0
3DFACE
8
Canon4
62
26.000000
10
14.926703
20
-18.606741
30
19.909075
11
14.926703
21
-19.583000
31
19.863682
12
14.321868
22
-19.775169
32
20.027172
13
14.321868
23
-18.459335
33
20.088358
0
3DFACE
8
Canon4
62
26.000000
10
14.926703
20
-19.583000
30
19.863682
11
14.926703
21
-19.820351
31
19.226574
12
14.321868
22
-20.095064
32
19.168457
13
14.321868
23
-19.775169
33
20.027172
0
3DFACE
8
Canon4
62
26.000000
10
14.926703
20
-19.820351
30
19.226574
11
14.926703
21
-18.990774
31
18.878212
12
14.321868
22
-18.976946
32
18.698931
13
14.321868
23
-20.095064
33
19.168457
0
3DFACE
8
Canon4
62
26.000000
10
14.926703
20
-18.990774
30
18.878212
11
14.926703
21
-18.240730
31
19.300024
12
14.321868
22
-17.966005
32
19.267462
13
14.321868
23
-18.976946
33
18.698931
0
3DFACE
8
Canon4
62
26.000000
10
14.926703
20
-18.990774
30
18.878212
11
14.926703
21
-19.820351
31
19.226574
12
14.926703
22
-19.583000
32
19.863682
13
14.926703
23
-19.583000
33
19.863682
0
3DFACE
8
Canon4
62
26.000000
10
14.926703
20
-18.990774
30
18.878212
11
14.926703
21
-19.583000
31
19.863682
12
14.926703
22
-18.606741
32
19.909075
13
14.926703
23
-18.606741
33
19.909075
0
3DFACE
8
Canon4
62
26.000000
10
14.926703
20
-18.990774
30
18.878212
11
14.926703
21
-18.606741
31
19.909075
12
14.926703
22
-18.240730
32
19.300024
13
14.926703
23
-18.240730
33
19.300024
0
3DFACE
8
Canon3
62
27.000000
10
14.321868
20
-15.150640
30
19.267462
11
14.321868
21
-15.643963
31
20.088358
12
10.481290
22
-15.683967
32
19.990528
13
10.919379
23
-15.225188
33
19.285231
0
3DFACE
8
Canon3
62
27.000000
10
14.321868
20
-15.643963
30
20.088358
11
14.321868
21
-16.959799
31
20.027172
12
10.513938
22
-16.907650
32
19.937960
13
10.481290
23
-15.683967
33
19.990528
0
3DFACE
8
Canon3
62
27.000000
10
14.321868
20
-16.959799
30
20.027172
11
14.321868
21
-17.279694
31
19.168457
12
10.972210
22
-17.205145
32
19.200167
13
10.513938
23
-16.907650
33
19.937960
0
3DFACE
8
Canon3
62
27.000000
10
14.321868
20
-17.279694
30
19.168457
11
14.321868
21
-16.161579
31
18.698931
12
11.222785
22
-16.165327
32
18.796761
13
10.972210
23
-17.205145
33
19.200167
0
3DFACE
8
Canon3
62
27.000000
10
14.321868
20
-16.161579
30
18.698931
11
14.321868
21
-15.150640
31
19.267462
12
10.919379
22
-15.225188
32
19.285231
13
11.222785
23
-16.165327
33
18.796761
0
3DFACE
8
Canon3
62
27.000000
10
14.926703
20
-15.425358
30
19.300024
11
14.926703
21
-15.791372
31
19.909075
12
14.321868
22
-15.643963
32
20.088358
13
14.321868
23
-15.150640
33
19.267462
0
3DFACE
8
Canon3
62
27.000000
10
14.926703
20
-15.791372
30
19.909075
11
14.926703
21
-16.767630
31
19.863682
12
14.321868
22
-16.959799
32
20.027172
13
14.321868
23
-15.643963
33
20.088358
0
3DFACE
8
Canon3
62
27.000000
10
14.926703
20
-16.767630
30
19.863682
11
14.926703
21
-17.004980
31
19.226574
12
14.321868
22
-17.279694
32
19.168457
13
14.321868
23
-16.959799
33
20.027172
0
3DFACE
8
Canon3
62
27.000000
10
14.926703
20
-17.004980
30
19.226574
11
14.926703
21
-16.175404
31
18.878212
12
14.321868
22
-16.161579
32
18.698931
13
14.321868
23
-17.279694
33
19.168457
0
3DFACE
8
Canon3
62
27.000000
10
14.926703
20
-16.175404
30
18.878212
11
14.926703
21
-15.425358
31
19.300024
12
14.321868
22
-15.150640
32
19.267462
13
14.321868
23
-16.161579
33
18.698931
0
3DFACE
8
Canon3
62
27.000000
10
14.926703
20
-16.175404
30
18.878212
11
14.926703
21
-17.004980
31
19.226574
12
14.926703
22
-16.767630
32
19.863682
13
14.926703
23
-16.767630
33
19.863682
0
3DFACE
8
Canon3
62
27.000000
10
14.926703
20
-16.175404
30
18.878212
11
14.926703
21
-16.767630
31
19.863682
12
14.926703
22
-15.791372
32
19.909075
13
14.926703
23
-15.791372
33
19.909075
0
3DFACE
8
Canon3
62
27.000000
10
14.926703
20
-16.175404
30
18.878212
11
14.926703
21
-15.791372
31
19.909075
12
14.926703
22
-15.425358
32
19.300024
13
14.926703
23
-15.425358
33
19.300024
0
3DFACE
8
FuselageAv
62
28.000000
10
-0.728187
20
-2.601408
30
15.110301
11
-0.728187
21
-6.391157
31
18.894720
12
13.951536
22
-7.080374
32
18.608671
13
13.951536
23
-2.886490
33
14.420680
0
3DFACE
8
FuselageAv
62
28.000000
10
-0.728187
20
-6.391157
30
18.894720
11
-0.728187
21
-6.394924
31
24.250465
12
13.951536
22
-7.084543
32
24.535545
13
13.951536
23
-7.080374
33
18.608671
0
3DFACE
8
FuselageAv
62
28.000000
10
-0.728187
20
-6.394924
30
24.250465
11
-1.488187
21
-2.610504
31
27.800217
12
13.951536
22
-2.896556
32
28.729435
13
13.951536
23
-7.084543
33
24.535545
0
3DFACE
8
FuselageAv
62
28.000000
10
-1.488187
20
-2.610504
30
27.800217
11
-1.488187
21
2.745241
31
27.803980
12
13.951536
22
3.030323
32
28.733597
13
13.951536
23
-2.896556
33
28.729435
0
3DFACE
8
FuselageAv
62
28.000000
10
-1.488187
20
2.745241
30
27.803980
11
-0.728187
21
6.534988
31
24.259562
12
13.951536
22
7.224206
32
24.545610
13
13.951536
23
3.030323
33
28.733597
0
3DFACE
8
FuselageAv
62
28.000000
10
-0.728187
20
6.534988
30
24.259562
11
-0.728187
21
6.538756
31
18.903814
12
13.951536
22
7.228375
32
18.618734
13
13.951536
23
7.224206
33
24.545610
0
3DFACE
8
FuselageAv
62
28.000000
10
-0.728187
20
6.538756
30
18.903814
11
-0.728187
21
2.754337
31
15.114067
12
13.951536
22
3.040388
32
14.424851
13
13.951536
23
7.228375
33
18.618734
0
3DFACE
8
FuselageAv
62
28.000000
10
-0.728187
20
2.754337
30
15.114067
11
-0.728187
21
-2.601408
31
15.110301
12
13.951536
22
-2.886490
32
14.420680
13
13.951536
23
3.040388
33
14.424851
0
3DFACE
8
B6
62
29.000000
10
-3.276856
20
0.242785
30
12.943375
11
-3.276856
21
0.242785
31
12.943375
12
-4.389311
22
2.085488
32
13.052941
13
-4.545730
23
1.164136
33
11.464798
0
3DFACE
8
B6
62
29.000000
10
-4.545730
20
1.164136
30
11.464798
11
-4.389311
21
2.085488
31
13.052941
12
-15.939260
22
2.085488
32
14.190510
13
-16.095678
23
1.164136
33
12.602367
0
3DFACE
8
B6
62
29.000000
10
-16.095678
20
1.164136
30
12.602367
11
-15.939260
21
2.085488
31
14.190510
12
-17.051716
22
0.242785
32
14.300076
13
-17.051716
23
0.242785
33
14.300076
0
3DFACE
8
B6
62
29.000000
10
-3.276856
20
0.242785
30
12.943375
11
-3.276856
21
0.242785
31
12.943375
12
-4.545730
22
1.164136
32
11.464798
13
-4.545730
23
-0.678566
33
11.464799
0
3DFACE
8
B6
62
29.000000
10
-4.545730
20
-0.678566
30
11.464799
11
-4.545730
21
1.164136
31
11.464798
12
-16.095678
22
1.164136
32
12.602367
13
-16.095678
23
-0.678566
33
12.602368
0
3DFACE
8
B6
62
29.000000
10
-16.095678
20
-0.678566
30
12.602368
11
-16.095678
21
1.164136
31
12.602367
12
-17.051716
22
0.242785
32
14.300076
13
-17.051716
23
0.242785
33
14.300076
0
3DFACE
8
B6
62
29.000000
10
-3.276856
20
0.242785
30
12.943375
11
-3.276856
21
0.242785
31
12.943375
12
-4.545730
22
-0.678566
32
11.464799
13
-4.389311
23
-1.599917
33
13.052941
0
3DFACE
8
B6
62
29.000000
10
-4.389311
20
-1.599917
30
13.052941
11
-4.545730
21
-0.678566
31
11.464799
12
-16.095678
22
-0.678566
32
12.602368
13
-15.939260
23
-1.599917
33
14.190510
0
3DFACE
8
B6
62
29.000000
10
-15.939260
20
-1.599917
30
14.190510
11
-16.095678
21
-0.678566
31
12.602368
12
-17.051716
22
0.242785
32
14.300076
13
-17.051716
23
0.242785
33
14.300076
0
3DFACE
8
B6
62
29.000000
10
-3.276856
20
0.242785
30
12.943375
11
-3.276856
21
0.242785
31
12.943375
12
-4.389311
22
-1.599917
32
13.052941
13
-4.232894
23
-0.678566
33
14.641085
0
3DFACE
8
B6
62
29.000000
10
-4.232894
20
-0.678566
30
14.641085
11
-4.389311
21
-1.599917
31
13.052941
12
-15.939260
22
-1.599917
32
14.190510
13
-15.782842
23
-0.678566
33
15.778652
0
3DFACE
8
B6
62
29.000000
10
-15.782842
20
-0.678566
30
15.778652
11
-15.939260
21
-1.599917
31
14.190510
12
-17.051716
22
0.242785
32
14.300076
13
-17.051716
23
0.242785
33
14.300076
0
3DFACE
8
B6
62
29.000000
10
-3.276856
20
0.242785
30
12.943375
11
-3.276856
21
0.242785
31
12.943375
12
-4.232894
22
-0.678566
32
14.641085
13
-4.232894
23
1.164137
33
14.641083
0
3DFACE
8
B6
62
29.000000
10
-4.232894
20
1.164137
30
14.641083
11
-4.232894
21
-0.678566
31
14.641085
12
-15.782842
22
-0.678566
32
15.778652
13
-15.782842
23
1.164137
33
15.778652
0
3DFACE
8
B6
62
29.000000
10
-15.782842
20
1.164137
30
15.778652
11
-15.782842
21
-0.678566
31
15.778652
12
-17.051716
22
0.242785
32
14.300076
13
-17.051716
23
0.242785
33
14.300076
0
3DFACE
8
B6
62
29.000000
10
-3.276856
20
0.242785
30
12.943375
11
-3.276856
21
0.242785
31
12.943375
12
-4.232894
22
1.164137
32
14.641083
13
-4.389311
23
2.085488
33
13.052941
0
3DFACE
8
B6
62
29.000000
10
-4.389311
20
2.085488
30
13.052941
11
-4.232894
21
1.164137
31
14.641083
12
-15.782842
22
1.164137
32
15.778652
13
-15.939260
23
2.085488
33
14.190510
0
3DFACE
8
B6
62
29.000000
10
-15.939260
20
2.085488
30
14.190510
11
-15.782842
21
1.164137
31
15.778652
12
-17.051716
22
0.242785
32
14.300076
13
-17.051716
23
0.242785
33
14.300076
0
3DFACE
8
B6L
62
30.000000
10
-17.164774
20
1.165552
30
13.152173
11
-19.034218
21
1.165552
31
13.336296
12
-19.056019
22
-0.294756
32
13.114958
13
-17.186575
23
-0.294756
33
12.930834
0
3DFACE
8
B6L
62
30.000000
10
-17.186575
20
-0.294756
30
12.930834
11
-19.056019
21
-0.294756
31
13.114958
12
-18.942961
22
-1.217523
32
14.262862
13
-17.073517
23
-1.217523
33
14.078738
0
3DFACE
8
B6L
62
30.000000
10
-17.073517
20
-1.217523
30
14.078738
11
-18.942961
21
-1.217523
31
14.262862
12
-18.808100
22
-0.679982
32
15.632106
13
-16.938656
23
-0.679982
33
15.447982
0
3DFACE
8
B6L
62
30.000000
10
-16.938656
20
-0.679982
30
15.447982
11
-18.808100
21
-0.679982
31
15.632106
12
-18.786301
22
0.780326
32
15.853445
13
-16.916855
23
0.780326
33
15.669322
0
3DFACE
8
B6L
62
30.000000
10
-16.916855
20
0.780326
30
15.669322
11
-18.786301
21
0.780326
31
15.853445
12
-18.899361
22
1.703093
32
14.705542
13
-17.029915
23
1.703093
33
14.521417
0
3DFACE
8
B6L
62
30.000000
10
-17.029915
20
1.703093
30
14.521417
11
-18.899361
21
1.703093
31
14.705542
12
-19.034218
22
1.165552
32
13.336296
13
-17.164774
23
1.165552
33
13.152173
0
3DFACE
8
B5
62
31.000000
10
14.540993
20
2.302785
30
12.393789
11
14.540993
21
2.302785
31
12.393789
12
13.423154
22
4.145488
32
12.393789
13
13.423154
23
3.224136
33
10.797961
0
3DFACE
8
B5
62
31.000000
10
13.423154
20
3.224136
30
10.797961
11
13.423154
21
4.145488
31
12.393789
12
1.817320
22
4.145488
32
12.393787
13
1.817320
23
3.224136
33
10.797960
0
3DFACE
8
B5
62
31.000000
10
1.817320
20
3.224136
30
10.797960
11
1.817320
21
4.145488
31
12.393787
12
0.699482
22
2.302785
32
12.393787
13
0.699482
23
2.302785
33
12.393787
0
3DFACE
8
B5
62
31.000000
10
14.540993
20
2.302785
30
12.393789
11
14.540993
21
2.302785
31
12.393789
12
13.423154
22
3.224136
32
10.797961
13
13.423154
23
1.381434
33
10.797962
0
3DFACE
8
B5
62
31.000000
10
13.423154
20
1.381434
30
10.797962
11
13.423154
21
3.224136
31
10.797961
12
1.817320
22
3.224136
32
10.797960
13
1.817320
23
1.381434
33
10.797961
0
3DFACE
8
B5
62
31.000000
10
1.817320
20
1.381434
30
10.797961
11
1.817320
21
3.224136
31
10.797960
12
0.699482
22
2.302785
32
12.393787
13
0.699482
23
2.302785
33
12.393787
0
3DFACE
8
B5
62
31.000000
10
14.540993
20
2.302785
30
12.393789
11
14.540993
21
2.302785
31
12.393789
12
13.423154
22
1.381434
32
10.797962
13
13.423154
23
0.460083
33
12.393789
0
3DFACE
8
B5
62
31.000000
10
13.423154
20
0.460083
30
12.393789
11
13.423154
21
1.381434
31
10.797962
12
1.817320
22
1.381434
32
10.797961
13
1.817320
23
0.460083
33
12.393787
0
3DFACE
8
B5
62
31.000000
10
1.817320
20
0.460083
30
12.393787
11
1.817320
21
1.381434
31
10.797961
12
0.699482
22
2.302785
32
12.393787
13
0.699482
23
2.302785
33
12.393787
0
3DFACE
8
B5
62
31.000000
10
14.540993
20
2.302785
30
12.393789
11
14.540993
21
2.302785
31
12.393789
12
13.423154
22
0.460083
32
12.393789
13
13.423154
23
1.381434
33
13.989616
0
3DFACE
8
B5
62
31.000000
10
13.423154
20
1.381434
30
13.989616
11
13.423154
21
0.460083
31
12.393789
12
1.817320
22
0.460083
32
12.393787
13
1.817320
23
1.381434
33
13.989614
0
3DFACE
8
B5
62
31.000000
10
1.817320
20
1.381434
30
13.989614
11
1.817320
21
0.460083
31
12.393787
12
0.699482
22
2.302785
32
12.393787
13
0.699482
23
2.302785
33
12.393787
0
3DFACE
8
B5
62
31.000000
10
14.540993
20
2.302785
30
12.393789
11
14.540993
21
2.302785
31
12.393789
12
13.423154
22
1.381434
32
13.989616
13
13.423154
23
3.224138
33
13.989614
0
3DFACE
8
B5
62
31.000000
10
13.423154
20
3.224138
30
13.989614
11
13.423154
21
1.381434
31
13.989616
12
1.817320
22
1.381434
32
13.989614
13
1.817320
23
3.224138
33
13.989614
0
3DFACE
8
B5
62
31.000000
10
1.817320
20
3.224138
30
13.989614
11
1.817320
21
1.381434
31
13.989614
12
0.699482
22
2.302785
32
12.393787
13
0.699482
23
2.302785
33
12.393787
0
3DFACE
8
B5
62
31.000000
10
14.540993
20
2.302785
30
12.393789
11
14.540993
21
2.302785
31
12.393789
12
13.423154
22
3.224138
32
13.989614
13
13.423154
23
4.145488
33
12.393789
0
3DFACE
8
B5
62
31.000000
10
13.423154
20
4.145488
30
12.393789
11
13.423154
21
3.224138
31
13.989614
12
1.817320
22
3.224138
32
13.989614
13
1.817320
23
4.145488
33
12.393787
0
3DFACE
8
B5
62
31.000000
10
1.817320
20
4.145488
30
12.393787
11
1.817320
21
3.224138
31
13.989614
12
0.699482
22
2.302785
32
12.393787
13
0.699482
23
2.302785
33
12.393787
0
3DFACE
8
B5L
62
32.000000
10
0.699482
20
3.225552
30
11.240329
11
-1.179008
21
3.225552
31
11.240329
12
-1.179008
22
1.765244
32
11.017919
13
0.699482
23
1.765244
33
11.017919
0
3DFACE
8
B5L
62
32.000000
10
0.699482
20
1.765244
30
11.017919
11
-1.179008
21
1.765244
31
11.017919
12
-1.179008
22
0.842477
32
12.171377
13
0.699482
23
0.842477
33
12.171377
0
3DFACE
8
B5L
62
32.000000
10
0.699482
20
0.842477
30
12.171377
11
-1.179008
21
0.842477
31
12.171377
12
-1.179008
22
1.380018
32
13.547246
13
0.699482
23
1.380018
33
13.547246
0
3DFACE
8
B5L
62
32.000000
10
0.699482
20
1.380018
30
13.547246
11
-1.179008
21
1.380018
31
13.547246
12
-1.179008
22
2.840326
32
13.769656
13
0.699482
23
2.840326
33
13.769656
0
3DFACE
8
B5L
62
32.000000
10
0.699482
20
2.840326
30
13.769656
11
-1.179008
21
2.840326
31
13.769656
12
-1.179008
22
3.763093
32
12.616198
13
0.699482
23
3.763093
33
12.616198
0
3DFACE
8
B5L
62
32.000000
10
0.699482
20
3.763093
30
12.616198
11
-1.179008
21
3.763093
31
12.616198
12
-1.179008
22
3.225552
32
11.240329
13
0.699482
23
3.225552
33
11.240329
0
3DFACE
8
B4
62
33.000000
10
14.540993
20
-1.857215
30
12.393789
11
14.540993
21
-1.857215
31
12.393789
12
13.423154
22
-0.014512
32
12.393789
13
13.423154
23
-0.935864
33
10.797961
0
3DFACE
8
B4
62
33.000000
10
13.423154
20
-0.935864
30
10.797961
11
13.423154
21
-0.014512
31
12.393789
12
1.817320
22
-0.014512
32
12.393787
13
1.817320
23
-0.935864
33
10.797960
0
3DFACE
8
B4
62
33.000000
10
1.817320
20
-0.935864
30
10.797960
11
1.817320
21
-0.014512
31
12.393787
12
0.699482
22
-1.857215
32
12.393787
13
0.699482
23
-1.857215
33
12.393787
0
3DFACE
8
B4
62
33.000000
10
14.540993
20
-1.857215
30
12.393789
11
14.540993
21
-1.857215
31
12.393789
12
13.423154
22
-0.935864
32
10.797961
13
13.423154
23
-2.778566
33
10.797962
0
3DFACE
8
B4
62
33.000000
10
13.423154
20
-2.778566
30
10.797962
11
13.423154
21
-0.935864
31
10.797961
12
1.817320
22
-0.935864
32
10.797960
13
1.817320
23
-2.778566
33
10.797961
0
3DFACE
8
B4
62
33.000000
10
1.817320
20
-2.778566
30
10.797961
11
1.817320
21
-0.935864
31
10.797960
12
0.699482
22
-1.857215
32
12.393787
13
0.699482
23
-1.857215
33
12.393787
0
3DFACE
8
B4
62
33.000000
10
14.540993
20
-1.857215
30
12.393789
11
14.540993
21
-1.857215
31
12.393789
12
13.423154
22
-2.778566
32
10.797962
13
13.423154
23
-3.699917
33
12.393789
0
3DFACE
8
B4
62
33.000000
10
13.423154
20
-3.699917
30
12.393789
11
13.423154
21
-2.778566
31
10.797962
12
1.817320
22
-2.778566
32
10.797961
13
1.817320
23
-3.699917
33
12.393787
0
3DFACE
8
B4
62
33.000000
10
1.817320
20
-3.699917
30
12.393787
11
1.817320
21
-2.778566
31
10.797961
12
0.699482
22
-1.857215
32
12.393787
13
0.699482
23
-1.857215
33
12.393787
0
3DFACE
8
B4
62
33.000000
10
14.540993
20
-1.857215
30
12.393789
11
14.540993
21
-1.857215
31
12.393789
12
13.423154
22
-3.699917
32
12.393789
13
13.423154
23
-2.778566
33
13.989616
0
3DFACE
8
B4
62
33.000000
10
13.423154
20
-2.778566
30
13.989616
11
13.423154
21
-3.699917
31
12.393789
12
1.817320
22
-3.699917
32
12.393787
13
1.817320
23
-2.778566
33
13.989614
0
3DFACE
8
B4
62
33.000000
10
1.817320
20
-2.778566
30
13.989614
11
1.817320
21
-3.699917
31
12.393787
12
0.699482
22
-1.857215
32
12.393787
13
0.699482
23
-1.857215
33
12.393787
0
3DFACE
8
B4
62
33.000000
10
14.540993
20
-1.857215
30
12.393789
11
14.540993
21
-1.857215
31
12.393789
12
13.423154
22
-2.778566
32
13.989616
13
13.423154
23
-0.935862
33
13.989614
0
3DFACE
8
B4
62
33.000000
10
13.423154
20
-0.935862
30
13.989614
11
13.423154
21
-2.778566
31
13.989616
12
1.817320
22
-2.778566
32
13.989614
13
1.817320
23
-0.935862
33
13.989614
0
3DFACE
8
B4
62
33.000000
10
1.817320
20
-0.935862
30
13.989614
11
1.817320
21
-2.778566
31
13.989614
12
0.699482
22
-1.857215
32
12.393787
13
0.699482
23
-1.857215
33
12.393787
0
3DFACE
8
B4
62
33.000000
10
14.540993
20
-1.857215
30
12.393789
11
14.540993
21
-1.857215
31
12.393789
12
13.423154
22
-0.935862
32
13.989614
13
13.423154
23
-0.014512
33
12.393789
0
3DFACE
8
B4
62
33.000000
10
13.423154
20
-0.014512
30
12.393789
11
13.423154
21
-0.935862
31
13.989614
12
1.817320
22
-0.935862
32
13.989614
13
1.817320
23
-0.014512
33
12.393787
0
3DFACE
8
B4
62
33.000000
10
1.817320
20
-0.014512
30
12.393787
11
1.817320
21
-0.935862
31
13.989614
12
0.699482
22
-1.857215
32
12.393787
13
0.699482
23
-1.857215
33
12.393787
0
3DFACE
8
B4L
62
34.000000
10
0.699482
20
-0.934448
30
11.240329
11
-1.179008
21
-0.934448
31
11.240329
12
-1.179008
22
-2.394756
32
11.017919
13
0.699482
23
-2.394756
33
11.017919
0
3DFACE
8
B4L
62
34.000000
10
0.699482
20
-2.394756
30
11.017919
11
-1.179008
21
-2.394756
31
11.017919
12
-1.179008
22
-3.317523
32
12.171377
13
0.699482
23
-3.317523
33
12.171377
0
3DFACE
8
B4L
62
34.000000
10
0.699482
20
-3.317523
30
12.171377
11
-1.179008
21
-3.317523
31
12.171377
12
-1.179008
22
-2.779982
32
13.547246
13
0.699482
23
-2.779982
33
13.547246
0
3DFACE
8
B4L
62
34.000000
10
0.699482
20
-2.779982
30
13.547246
11
-1.179008
21
-2.779982
31
13.547246
12
-1.179008
22
-1.319674
32
13.769656
13
0.699482
23
-1.319674
33
13.769656
0
3DFACE
8
B4L
62
34.000000
10
0.699482
20
-1.319674
30
13.769656
11
-1.179008
21
-1.319674
31
13.769656
12
-1.179008
22
-0.396907
32
12.616198
13
0.699482
23
-0.396907
33
12.616198
0
3DFACE
8
B4L
62
34.000000
10
0.699482
20
-0.396907
30
12.616198
11
-1.179008
21
-0.396907
31
12.616198
12
-1.179008
22
-0.934448
32
11.240329
13
0.699482
23
-0.934448
33
11.240329
0
3DFACE
8
PosCam
62
35.000000
10
-10.254898
20
0.042476
30
33.106133
11
-9.350926
21
0.042476
31
32.195381
12
-10.283403
22
0.042476
32
31.845631
13
-10.283403
23
0.042476
33
31.845631
0
3DFACE
8
CharnInclinG
62
36.000000
10
-4.639822
20
-11.693347
30
18.436466
11
-4.766309
21
-11.973624
31
18.436466
12
-4.945792
22
-11.723948
32
18.436466
13
-4.945792
23
-11.723948
33
18.436466
0
3DFACE
8
CharnInclinD
62
37.000000
10
-4.945792
20
11.536301
30
18.436466
11
-4.766309
21
11.785979
31
18.436466
12
-4.639822
22
11.505702
32
18.436466
13
-4.639822
23
11.505702
33
18.436466
0
3DFACE
8
InclinD
62
38.000000
10
-4.585724
20
29.362783
30
18.433916
11
-4.766309
21
11.591662
31
18.436466
12
-5.384589
22
11.591662
32
19.302057
13
-5.151009
23
29.362783
33
19.052197
0
3DFACE
8
InclinD
62
38.000000
10
-5.151009
20
29.362783
30
19.052197
11
-5.384589
21
11.591662
31
19.302057
12
-10.189505
22
11.591662
32
17.729862
13
-6.740870
23
29.362783
33
18.045282
0
3DFACE
8
InclinD
62
38.000000
10
-6.740870
20
29.362783
30
18.045282
11
-10.189505
21
11.591662
31
17.729862
12
-4.854635
22
11.591662
32
16.775946
13
-4.638720
23
29.362783
33
17.303347
0
3DFACE
8
InclinD
62
38.000000
10
-4.638720
20
29.362783
30
17.303347
11
-4.854635
21
11.591662
31
16.775946
12
-4.483666
22
11.591662
32
17.570875
13
-4.338413
23
29.362783
33
18.027618
0
3DFACE
8
PiedRoues
62
39.000000
10
20.575962
20
12.077849
30
-2.020696
11
20.646622
21
11.362613
31
2.136153
12
16.777956
22
11.362613
32
2.030163
13
16.848618
23
12.077849
33
-1.844045
0
3DFACE
8
PiedRoues
62
39.000000
10
20.646622
20
11.362613
30
2.136153
11
19.869354
21
9.301953
31
9.552126
12
18.208832
22
9.301953
32
9.552126
13
16.777956
23
11.362613
33
2.030163
0
3DFACE
8
PiedRoues
62
39.000000
10
19.869354
20
9.301953
30
9.552126
11
19.869354
21
6.140903
31
12.238438
12
18.208832
22
6.140903
32
12.238438
13
18.208832
23
9.301953
33
9.552126
0
3DFACE
8
PiedRoues
62
39.000000
10
19.869354
20
6.140903
30
12.238438
11
19.869354
21
2.255338
31
11.801158
12
18.208832
22
2.255338
32
11.801158
13
18.208832
23
6.140903
33
12.238438
0
3DFACE
8
PiedRoues
62
39.000000
10
19.869354
20
2.255338
30
11.801158
11
19.869354
21
-1.892714
31
11.847864
12
18.208832
22
-1.892714
32
11.847864
13
18.208832
23
2.255338
33
11.801158
0
3DFACE
8
PiedRoues
62
39.000000
10
19.869354
20
-1.892714
30
11.847864
11
19.869354
21
-5.810008
31
12.373002
12
18.208832
22
-5.810008
32
12.373002
13
18.208832
23
-1.892714
33
11.847864
0
3DFACE
8
PiedRoues
62
39.000000
10
19.869354
20
-5.810008
30
12.373002
11
19.869354
21
-9.030746
31
9.758550
12
18.208832
22
-9.030746
32
9.758550
13
18.208832
23
-5.810008
33
12.373002
0
3DFACE
8
PiedRoues
62
39.000000
10
19.869354
20
-9.030746
30
9.758550
11
20.558298
21
-11.171947
31
1.594958
12
16.477650
22
-11.171947
32
1.700949
13
18.208832
23
-9.030746
33
9.758550
0
3DFACE
8
PiedRoues
62
39.000000
10
20.558298
20
-11.171947
30
1.594958
11
20.522964
21
-11.979012
31
-1.732155
12
16.230335
22
-11.979012
32
-1.590834
13
16.477650
23
-11.171947
33
1.700949
0
3DFACE
8
RoueAr
62
40.000000
10
-38.904034
20
0.760694
30
15.174662
11
-38.509758
21
0.142415
31
14.978230
12
-38.778893
22
0.142415
32
17.459480
13
-39.119473
23
0.760694
33
17.160927
0
3DFACE
8
RoueAr
62
40.000000
10
-39.119473
20
0.760694
30
17.160927
11
-38.778893
21
0.142415
31
17.459480
12
-41.221870
22
0.142415
32
17.970274
13
-41.075096
23
0.760694
33
17.569820
0
3DFACE
8
RoueAr
62
40.000000
10
-41.075096
20
0.760694
30
17.569820
11
-41.221870
21
0.142415
31
17.970274
12
-42.462578
22
0.142415
32
15.804708
13
-42.068310
23
0.760694
33
15.836265
0
3DFACE
8
RoueAr
62
40.000000
10
-42.068310
20
0.760694
30
15.836265
11
-42.462578
21
0.142415
31
15.804708
12
-40.786411
22
0.142415
32
13.955523
13
-40.726513
23
0.760694
33
14.355974
0
3DFACE
8
RoueAr
62
40.000000
10
-40.726513
20
0.760694
30
14.355974
11
-40.786411
21
0.142415
31
13.955523
12
-38.509758
22
0.142415
32
14.978230
13
-38.904034
23
0.760694
33
15.174662
0
3DFACE
8
RoueAr
62
40.000000
10
-38.509758
20
0.142415
30
14.978230
11
-38.901310
21
-0.811503
31
15.173309
12
-39.117123
22
-0.811503
32
17.162985
13
-38.778893
23
0.142415
33
17.459480
0
3DFACE
8
RoueAr
62
40.000000
10
-38.778893
20
0.142415
30
17.459480
11
-39.117123
21
-0.811503
31
17.162985
12
-41.076118
22
-0.811503
32
17.572584
13
-41.221870
23
0.142415
33
17.970274
0
3DFACE
8
RoueAr
62
40.000000
10
-41.221870
20
0.142415
30
17.970274
11
-41.076118
21
-0.811503
31
17.572584
12
-42.071026
22
-0.811503
32
15.836047
13
-42.462578
23
0.142415
33
15.804708
0
3DFACE
8
RoueAr
62
40.000000
10
-42.462578
20
0.142415
30
15.804708
11
-42.071026
21
-0.811503
31
15.836047
12
-40.726925
22
-0.811503
32
14.353211
13
-40.786411
23
0.142415
33
13.955523
0
3DFACE
8
RoueAr
62
40.000000
10
-40.786411
20
0.142415
30
13.955523
11
-40.726925
21
-0.811503
31
14.353211
12
-38.901310
22
-0.811503
32
15.173309
13
-38.509758
23
0.142415
33
14.978230
0
3DFACE
8
RoueAr
62
40.000000
10
-40.726925
20
-0.811503
30
14.353211
11
-42.071026
21
-0.811503
31
15.836047
12
-41.076118
22
-0.811503
32
17.572584
13
-41.076118
23
-0.811503
33
17.572584
0
3DFACE
8
RoueAr
62
40.000000
10
-40.726925
20
-0.811503
30
14.353211
11
-41.076118
21
-0.811503
31
17.572584
12
-39.117123
22
-0.811503
32
17.162985
13
-39.117123
23
-0.811503
33
17.162985
0
3DFACE
8
RoueAr
62
40.000000
10
-40.726925
20
-0.811503
30
14.353211
11
-39.117123
21
-0.811503
31
17.162985
12
-38.901310
22
-0.811503
32
15.173309
13
-38.901310
23
-0.811503
33
15.173309
0
3DFACE
8
RoueAr
62
40.000000
10
-38.904034
20
0.760694
30
15.174662
11
-39.119473
21
0.760694
31
17.160927
12
-41.075096
22
0.760694
32
17.569820
13
-41.075096
23
0.760694
33
17.569820
0
3DFACE
8
RoueAr
62
40.000000
10
-38.904034
20
0.760694
30
15.174662
11
-41.075096
21
0.760694
31
17.569820
12
-42.068310
22
0.760694
32
15.836265
13
-42.068310
23
0.760694
33
15.836265
0
3DFACE
8
RoueAr
62
40.000000
10
-38.904034
20
0.760694
30
15.174662
11
-42.068310
21
0.760694
31
15.836265
12
-40.726513
22
0.760694
32
14.355974
13
-40.726513
23
0.760694
33
14.355974
0
3DFACE
8
Hel2
62
41.000000
10
43.839775
20
1.653360
30
45.774864
11
43.562607
21
2.322499
31
43.512604
12
45.002525
22
-1.153758
32
39.915607
13
44.644238
23
-0.288774
33
44.960449
0
3DFACE
8
Hel2
62
41.000000
10
43.562607
20
2.322499
30
43.512604
11
43.839775
21
1.653360
31
28.468561
12
44.644238
22
-0.288774
32
28.468561
13
45.002525
23
-1.153758
33
39.915607
0
3DFACE
8
Hel1
62
42.000000
10
43.839775
20
-20.972174
30
10.197364
11
43.562607
21
-19.462927
31
12.010579
12
45.002525
22
-14.540830
32
11.118558
13
44.644238
23
-19.216021
33
9.035002
0
3DFACE
8
Hel1
62
42.000000
10
43.562607
20
-19.462927
30
12.010579
11
43.839775
21
-6.582510
31
19.812229
12
44.644238
22
-5.503516
32
18.197407
13
45.002525
23
-14.540830
33
11.118558
0
3DFACE
8
Hel3
62
43.000000
10
43.839775
20
20.053612
30
8.557920
11
43.562607
21
17.800859
31
9.258397
12
45.002525
22
16.741373
32
14.147182
13
44.644238
23
20.455446
33
10.625210
0
3DFACE
8
Hel3
62
43.000000
10
43.562607
20
17.800859
30
9.258397
11
43.839775
21
5.663948
31
18.172781
12
44.644238
22
6.742939
32
19.787605
13
45.002525
23
16.741373
33
14.147182
0
3DFACE
8
CharnProf
62
44.000000
10
-39.761703
20
-0.455623
30
19.565813
11
-39.753506
21
-0.319036
31
19.565813
12
-39.639317
22
-0.394428
32
19.565813
13
-39.639317
23
-0.394428
33
19.565813
0
3DFACE
8
RoueD
62
45.000000
10
20.719313
20
12.285275
30
1.400601
11
21.814987
21
11.658319
31
1.859393
12
21.520306
22
12.009997
32
-1.711281
13
20.523842
23
12.518559
33
-0.967993
0
3DFACE
8
RoueD
62
45.000000
10
18.755863
20
12.152039
30
2.753369
11
18.855066
21
11.457465
31
3.898701
12
21.814987
22
11.658319
32
1.859393
13
20.719313
23
12.285275
33
1.400601
0
3DFACE
8
RoueD
62
45.000000
10
16.596937
20
12.252089
30
1.737542
11
15.600472
21
11.608291
31
2.367334
12
18.855066
22
11.457465
32
3.898701
13
18.755863
23
12.152039
33
2.753369
0
3DFACE
8
RoueD
62
45.000000
10
16.401461
20
12.485374
30
-0.631053
11
15.305790
21
11.959970
31
-1.203341
12
15.600472
22
11.608291
32
2.367334
13
16.596937
23
12.252089
33
1.737542
0
3DFACE
8
RoueD
62
45.000000
10
18.364914
20
12.618609
30
-1.983822
11
18.265709
21
12.160826
31
-3.242651
12
15.305790
22
11.959970
32
-1.203341
13
16.401461
23
12.485374
33
-0.631053
0
3DFACE
8
RoueD
62
45.000000
10
20.523842
20
12.518559
30
-0.967993
11
21.520306
21
12.009997
31
-1.711281
12
18.265709
22
12.160826
32
-3.242651
13
18.364914
23
12.618609
33
-1.983822
0
3DFACE
8
RoueD
62
45.000000
10
21.814987
20
11.658319
30
1.859393
11
23.596697
21
12.527699
31
2.791491
12
23.140697
22
13.071903
32
-2.733932
13
21.520306
23
12.009997
33
-1.711281
0
3DFACE
8
RoueD
62
45.000000
10
18.855066
20
11.457465
30
3.898701
11
19.016390
21
12.216888
31
5.947209
12
23.596697
22
12.527699
32
2.791491
13
21.814987
23
11.658319
33
1.859393
0
3DFACE
8
RoueD
62
45.000000
10
15.600472
20
11.608291
30
2.367334
11
13.980075
21
12.450284
31
3.577502
12
19.016390
22
12.216888
32
5.947209
13
18.855066
23
11.457465
33
3.898701
0
3DFACE
8
RoueD
62
45.000000
10
15.305790
20
11.959970
30
-1.203341
11
13.524076
21
12.994488
31
-1.947922
12
13.980075
22
12.450284
32
3.577502
13
15.600472
23
11.608291
33
2.367334
0
3DFACE
8
RoueD
62
45.000000
10
18.265709
20
12.160826
30
-3.242651
11
18.104387
21
13.305298
31
-5.103641
12
13.524076
22
12.994488
32
-1.947922
13
15.305790
23
11.959970
33
-1.203341
0
3DFACE
8
RoueD
62
45.000000
10
21.520306
20
12.009997
30
-1.711281
11
23.140697
21
13.071903
31
-2.733932
12
18.104387
22
13.305298
32
-5.103641
13
18.265709
23
12.160826
33
-3.242651
0
3DFACE
8
RoueD
62
45.000000
10
23.596697
20
12.527699
30
2.791491
11
22.931524
21
14.211907
31
2.641354
12
22.535755
22
14.684233
32
-2.154297
13
23.140697
23
13.071903
33
-2.733932
0
3DFACE
8
RoueD
62
45.000000
10
19.016390
20
12.216888
30
5.947209
11
18.956161
21
13.942147
31
5.380279
12
22.931524
22
14.211907
32
2.641354
13
23.596697
23
12.527699
33
2.791491
0
3DFACE
8
RoueD
62
45.000000
10
13.980075
20
12.450284
30
3.577502
11
14.585023
21
14.144715
31
3.323553
12
18.956161
22
13.942147
32
5.380279
13
19.016390
23
12.216888
33
5.947209
0
3DFACE
8
RoueD
62
45.000000
10
13.524076
20
12.994488
30
-1.947922
11
14.189252
21
14.617045
31
-1.472099
12
14.585023
22
14.144715
32
3.323553
13
13.980075
23
12.450284
33
3.577502
0
3DFACE
8
RoueD
62
45.000000
10
18.104387
20
13.305298
30
-5.103641
11
18.164614
21
14.886805
31
-4.211024
12
14.189252
22
14.617045
32
-1.472099
13
13.524076
23
12.994488
33
-1.947922
0
3DFACE
8
RoueD
62
45.000000
10
23.140697
20
13.071903
30
-2.733932
11
22.535755
21
14.684233
31
-2.154297
12
18.164614
22
14.886805
32
-4.211024
13
18.104387
23
13.305298
33
-5.103641
0
3DFACE
8
RoueD
62
45.000000
10
22.931524
20
14.211907
30
2.641354
11
21.173569
21
13.892554
31
1.774715
12
20.936964
22
14.174926
32
-1.092250
13
22.535755
23
14.684233
33
-2.154297
0
3DFACE
8
RoueD
62
45.000000
10
18.956161
20
13.942147
30
5.380279
11
18.796991
21
13.731285
31
3.412115
12
21.173569
22
13.892554
32
1.774715
13
22.931524
23
14.211907
33
2.641354
0
3DFACE
8
RoueD
62
45.000000
10
14.585023
20
14.144715
30
3.323553
11
16.183813
21
13.852386
31
2.182551
12
18.796991
22
13.731285
32
3.412115
13
18.956161
23
13.942147
33
5.380279
0
3DFACE
8
RoueD
62
45.000000
10
14.189252
20
14.617045
30
-1.472099
11
15.947206
21
14.134756
31
-0.684414
12
16.183813
22
13.852386
32
2.182551
13
14.585023
23
14.144715
33
3.323553
0
3DFACE
8
RoueD
62
45.000000
10
18.164614
20
14.886805
30
-4.211024
11
18.323782
21
14.296027
31
-2.321816
12
15.947206
22
14.134756
32
-0.684414
13
14.189252
23
14.617045
33
-1.472099
0
3DFACE
8
RoueD
62
45.000000
10
22.535755
20
14.684233
30
-2.154297
11
20.936964
21
14.174926
31
-1.092250
12
18.323782
22
14.296027
32
-2.321816
13
18.164614
23
14.886805
33
-4.211024
0
3DFACE
8
RoueD
62
45.000000
10
20.936964
20
14.174926
30
-1.092250
11
21.173569
21
13.892554
31
1.774715
12
18.796991
22
13.731285
32
3.412115
13
18.796991
23
13.731285
33
3.412115
0
3DFACE
8
RoueD
62
45.000000
10
20.936964
20
14.174926
30
-1.092250
11
18.796991
21
13.731285
31
3.412115
12
16.183813
22
13.852386
32
2.182551
13
16.183813
23
13.852386
33
2.182551
0
3DFACE
8
RoueD
62
45.000000
10
20.936964
20
14.174926
30
-1.092250
11
16.183813
21
13.852386
31
2.182551
12
15.947206
22
14.134756
32
-0.684414
13
15.947206
23
14.134756
33
-0.684414
0
3DFACE
8
RoueD
62
45.000000
10
20.936964
20
14.174926
30
-1.092250
11
15.947206
21
14.134756
31
-0.684414
12
18.323782
22
14.296027
32
-2.321816
13
18.323782
23
14.296027
33
-2.321816
0
3DFACE
8
RoueG
62
46.000000
10
20.523842
20
-12.638961
30
-0.967993
11
21.520306
21
-12.130399
31
-1.711281
12
21.814987
22
-11.778721
32
1.859393
13
20.719313
23
-12.405676
33
1.400601
0
3DFACE
8
RoueG
62
46.000000
10
20.719313
20
-12.405676
30
1.400601
11
21.814987
21
-11.778721
31
1.859393
12
18.855066
22
-11.577867
32
3.898701
13
18.755863
23
-12.272439
33
2.753369
0
3DFACE
8
RoueG
62
46.000000
10
18.755863
20
-12.272439
30
2.753369
11
18.855066
21
-11.577867
31
3.898701
12
15.600472
22
-11.728692
32
2.367334
13
16.596937
23
-12.372490
33
1.737542
0
3DFACE
8
RoueG
62
46.000000
10
16.596937
20
-12.372490
30
1.737542
11
15.600472
21
-11.728692
31
2.367334
12
15.305790
22
-12.080372
32
-1.203341
13
16.401461
23
-12.605774
33
-0.631053
0
3DFACE
8
RoueG
62
46.000000
10
16.401461
20
-12.605774
30
-0.631053
11
15.305790
21
-12.080372
31
-1.203341
12
18.265709
22
-12.281226
32
-3.242651
13
18.364914
23
-12.739011
33
-1.983822
0
3DFACE
8
RoueG
62
46.000000
10
18.364914
20
-12.739011
30
-1.983822
11
18.265709
21
-12.281226
31
-3.242651
12
21.520306
22
-12.130399
32
-1.711281
13
20.523842
23
-12.638961
33
-0.967993
0
3DFACE
8
RoueG
62
46.000000
10
21.520306
20
-12.130399
30
-1.711281
11
23.140697
21
-13.192305
31
-2.733932
12
23.596697
22
-12.648099
32
2.791491
13
21.814987
23
-11.778721
33
1.859393
0
3DFACE
8
RoueG
62
46.000000
10
21.814987
20
-11.778721
30
1.859393
11
23.596697
21
-12.648099
31
2.791491
12
19.016390
22
-12.337290
32
5.947209
13
18.855066
23
-11.577867
33
3.898701
0
3DFACE
8
RoueG
62
46.000000
10
18.855066
20
-11.577867
30
3.898701
11
19.016390
21
-12.337290
31
5.947209
12
13.980075
22
-12.570684
32
3.577502
13
15.600472
23
-11.728692
33
2.367334
0
3DFACE
8
RoueG
62
46.000000
10
15.600472
20
-11.728692
30
2.367334
11
13.980075
21
-12.570684
31
3.577502
12
13.524076
22
-13.114888
32
-1.947922
13
15.305790
23
-12.080372
33
-1.203341
0
3DFACE
8
RoueG
62
46.000000
10
15.305790
20
-12.080372
30
-1.203341
11
13.524076
21
-13.114888
31
-1.947922
12
18.104387
22
-13.425697
32
-5.103641
13
18.265709
23
-12.281226
33
-3.242651
0
3DFACE
8
RoueG
62
46.000000
10
18.265709
20
-12.281226
30
-3.242651
11
18.104387
21
-13.425697
31
-5.103641
12
23.140697
22
-13.192305
32
-2.733932
13
21.520306
23
-12.130399
33
-1.711281
0
3DFACE
8
RoueG
62
46.000000
10
23.140697
20
-13.192305
30
-2.733932
11
22.535755
21
-14.804637
31
-2.154297
12
22.931524
22
-14.332309
32
2.641354
13
23.596697
23
-12.648099
33
2.791491
0
3DFACE
8
RoueG
62
46.000000
10
23.596697
20
-12.648099
30
2.791491
11
22.931524
21
-14.332309
31
2.641354
12
18.956161
22
-14.062549
32
5.380279
13
19.016390
23
-12.337290
33
5.947209
0
3DFACE
8
RoueG
62
46.000000
10
19.016390
20
-12.337290
30
5.947209
11
18.956161
21
-14.062549
31
5.380279
12
14.585023
22
-14.265117
32
3.323553
13
13.980075
23
-12.570684
33
3.577502
0
3DFACE
8
RoueG
62
46.000000
10
13.980075
20
-12.570684
30
3.577502
11
14.585023
21
-14.265117
31
3.323553
12
14.189252
22
-14.737449
32
-1.472099
13
13.524076
23
-13.114888
33
-1.947922
0
3DFACE
8
RoueG
62
46.000000
10
13.524076
20
-13.114888
30
-1.947922
11
14.189252
21
-14.737449
31
-1.472099
12
18.164614
22
-15.007206
32
-4.211024
13
18.104387
23
-13.425697
33
-5.103641
0
3DFACE
8
RoueG
62
46.000000
10
18.104387
20
-13.425697
30
-5.103641
11
18.164614
21
-15.007206
31
-4.211024
12
22.535755
22
-14.804637
32
-2.154297
13
23.140697
23
-13.192305
33
-2.733932
0
3DFACE
8
RoueG
62
46.000000
10
22.535755
20
-14.804637
30
-2.154297
11
20.936964
21
-14.295327
31
-1.092250
12
21.173569
22
-14.012955
32
1.774715
13
22.931524
23
-14.332309
33
2.641354
0
3DFACE
8
RoueG
62
46.000000
10
22.931524
20
-14.332309
30
2.641354
11
21.173569
21
-14.012955
31
1.774715
12
18.796991
22
-13.851685
32
3.412115
13
18.956161
23
-14.062549
33
5.380279
0
3DFACE
8
RoueG
62
46.000000
10
18.956161
20
-14.062549
30
5.380279
11
18.796991
21
-13.851685
31
3.412115
12
16.183813
22
-13.972786
32
2.182551
13
14.585023
23
-14.265117
33
3.323553
0
3DFACE
8
RoueG
62
46.000000
10
14.585023
20
-14.265117
30
3.323553
11
16.183813
21
-13.972786
31
2.182551
12
15.947206
22
-14.255157
32
-0.684414
13
14.189252
23
-14.737449
33
-1.472099
0
3DFACE
8
RoueG
62
46.000000
10
14.189252
20
-14.737449
30
-1.472099
11
15.947206
21
-14.255157
31
-0.684414
12
18.323782
22
-14.416430
32
-2.321816
13
18.164614
23
-15.007206
33
-4.211024
0
3DFACE
8
RoueG
62
46.000000
10
18.164614
20
-15.007206
30
-4.211024
11
18.323782
21
-14.416430
31
-2.321816
12
20.936964
22
-14.295327
32
-1.092250
13
22.535755
23
-14.804637
33
-2.154297
0
3DFACE
8
RoueG
62
46.000000
10
18.323782
20
-14.416430
30
-2.321816
11
15.947206
21
-14.255157
31
-0.684414
12
16.183813
22
-13.972786
32
2.182551
13
16.183813
23
-13.972786
33
2.182551
0
3DFACE
8
RoueG
62
46.000000
10
18.323782
20
-14.416430
30
-2.321816
11
16.183813
21
-13.972786
31
2.182551
12
18.796991
22
-13.851685
32
3.412115
13
18.796991
23
-13.851685
33
3.412115
0
3DFACE
8
RoueG
62
46.000000
10
18.323782
20
-14.416430
30
-2.321816
11
18.796991
21
-13.851685
31
3.412115
12
21.173569
22
-14.012955
32
1.774715
13
21.173569
23
-14.012955
33
1.774715
0
3DFACE
8
RoueG
62
46.000000
10
18.323782
20
-14.416430
30
-2.321816
11
21.173569
21
-14.012955
31
1.774715
12
20.936964
22
-14.295327
32
-1.092250
13
20.936964
23
-14.295327
33
-1.092250
0
3DFACE
8
TabBord
62
47.000000
10
-0.658197
20
-1.821041
30
27.080538
11
-0.639551
21
-3.026317
31
26.285503
12
-0.460385
22
0.042462
32
27.400921
13
-0.460385
23
0.042462
33
27.400921
0
3DFACE
8
TabBord
62
47.000000
10
-1.388619
20
-3.385323
30
26.274956
11
-0.802851
21
-3.201128
31
22.835943
12
-0.639551
22
-3.026317
32
26.285503
13
-0.658197
23
-1.821041
33
27.080538
0
3DFACE
8
TabBord
62
47.000000
10
-3.283663
20
-4.456545
30
24.906857
11
-3.283663
21
-3.159648
31
22.270416
12
-0.802851
22
-3.201128
32
22.835943
13
-1.388619
23
-3.385323
33
26.274956
0
3DFACE
8
TabBord
62
47.000000
10
-5.976603
20
-4.805157
30
23.665682
11
-5.976603
21
-3.006737
31
20.608711
12
-3.283663
22
-3.159648
32
22.270416
13
-3.283663
23
-4.456545
33
24.906857
0
3DFACE
8
TabBord
62
47.000000
10
-11.073287
20
-4.336593
30
23.088028
11
-11.073287
21
-2.352784
31
20.148708
12
-5.976603
22
-3.006737
32
20.608711
13
-5.976603
23
-4.805157
33
23.665682
0
3DFACE
8
TabBord
62
47.000000
10
-15.276983
20
-3.385323
30
23.093468
11
-15.276983
21
-1.476003
31
20.627777
12
-11.073287
22
-2.352784
32
20.148708
13
-11.073287
23
-4.336593
33
23.088028
0
3DFACE
8
TabBord
62
47.000000
10
-18.635559
20
-3.231221
30
23.687721
11
-18.635559
21
-1.561051
31
21.417013
12
-15.276983
22
-1.476003
32
20.627777
13
-15.276983
23
-3.385323
33
23.093468
0
3DFACE
8
TabBord
62
47.000000
10
-20.287930
20
0.024784
30
24.260738
11
-20.314491
21
0.058839
31
24.256699
12
-18.635559
22
-1.561051
32
21.417013
13
-18.635559
23
-3.231221
33
23.687721
0
3DFACE
8
TabBord
62
47.000000
10
-0.639551
20
-3.026317
30
26.285503
11
-0.639551
21
3.111240
31
26.285492
12
-0.460385
22
0.042462
32
27.400921
13
-0.460385
23
0.042462
33
27.400921
0
3DFACE
8
TabBord
62
47.000000
10
-3.283663
20
-3.159648
30
22.270416
11
-3.283721
21
3.244572
31
22.270369
12
-0.802851
22
3.286052
32
22.835945
13
-0.802851
23
-3.201128
33
22.835943
0
3DFACE
8
TabBord
62
47.000000
10
-5.976603
20
-3.006737
30
20.608711
11
-5.976603
21
3.091661
31
20.608711
12
-3.283721
22
3.244572
32
22.270369
13
-3.283663
23
-3.159648
33
22.270416
0
3DFACE
8
TabBord
62
47.000000
10
-11.073287
20
-2.352784
30
20.148708
11
-11.073218
21
2.437721
31
20.148729
12
-5.976603
22
3.091661
32
20.608711
13
-5.976603
23
-3.006737
33
20.608711
0
3DFACE
8
TabBord
62
47.000000
10
-15.276983
20
-1.476003
30
20.627777
11
-15.276983
21
1.560927
31
20.627777
12
-11.073218
22
2.437721
32
20.148729
13
-11.073287
23
-2.352784
33
20.148708
0
3DFACE
8
TabBord
62
47.000000
10
-18.635559
20
-1.561051
30
21.417013
11
-18.635574
21
1.645988
31
21.417007
12
-15.276983
22
1.560927
32
20.627777
13
-15.276983
23
-1.476003
33
20.627777
0
3DFACE
8
TabBord
62
47.000000
10
-20.314491
20
0.058839
30
24.256699
11
-20.314491
21
0.043749
31
24.256699
12
-18.635574
22
1.645988
32
21.417007
13
-18.635559
23
-1.561051
33
21.417013
0
3DFACE
8
TabBord
62
47.000000
10
-0.639551
20
3.111240
30
26.285492
11
-0.658197
21
1.905965
31
27.080538
12
-0.460385
22
0.042462
32
27.400921
13
-0.460385
23
0.042462
33
27.400921
0
3DFACE
8
TabBord
62
47.000000
10
-0.802851
20
3.286052
30
22.835945
11
-1.388619
21
3.470247
31
26.274956
12
-0.658197
22
1.905965
32
27.080538
13
-0.639551
23
3.111240
33
26.285492
0
3DFACE
8
TabBord
62
47.000000
10
-3.283721
20
3.244572
30
22.270369
11
-3.283721
21
4.541483
31
24.906830
12
-1.388619
22
3.470247
32
26.274956
13
-0.802851
23
3.286052
33
22.835945
0
3DFACE
8
TabBord
62
47.000000
10
-5.976603
20
3.091661
30
20.608711
11
-5.976603
21
4.890080
31
23.665682
12
-3.283721
22
4.541483
32
24.906830
13
-3.283721
23
3.244572
33
22.270369
0
3DFACE
8
TabBord
62
47.000000
10
-11.073218
20
2.437721
30
20.148729
11
-11.073218
21
4.421517
31
23.088051
12
-5.976603
22
4.890080
32
23.665682
13
-5.976603
23
3.091661
33
20.608711
0
3DFACE
8
TabBord
62
47.000000
10
-15.276983
20
1.560927
30
20.627777
11
-15.276983
21
3.470247
31
23.093468
12
-11.073218
22
4.421517
32
23.088051
13
-11.073218
23
2.437721
33
20.148729
0
3DFACE
8
TabBord
62
47.000000
10
-18.635574
20
1.645988
30
21.417007
11
-18.635574
21
3.316159
31
23.687721
12
-15.276983
22
3.470247
32
23.093468
13
-15.276983
23
1.560927
33
20.627777
0
3DFACE
8
TabBord
62
47.000000
10
-20.314491
20
0.043749
30
24.256699
11
-20.314491
21
0.042462
31
24.265329
12
-18.635574
22
3.316159
32
23.687721
13
-18.635574
23
1.645988
33
21.417007
0
3DFACE
8
TabBord
62
47.000000
10
-13.455435
20
3.714052
30
32.912636
11
-14.511253
21
2.179073
31
34.436665
12
-14.289569
22
2.179005
32
34.659061
13
-13.233755
23
3.714052
33
33.135040
0
3DFACE
8
TabBord
62
47.000000
10
-14.511253
20
2.179073
30
34.436665
11
-15.008833
21
0.042476
31
35.154896
12
-14.787151
22
0.042462
32
35.377296
13
-14.289569
23
2.179005
33
34.659061
0
3DFACE
8
TabBord
62
47.000000
10
-15.008833
20
0.042476
30
35.154896
11
-14.511255
21
-2.094026
31
34.436665
12
-14.289570
22
-2.094094
32
34.659061
13
-14.787151
23
0.042462
33
35.377296
0
3DFACE
8
TabBord
62
47.000000
10
-14.511255
20
-2.094026
30
34.436665
11
-13.455435
21
-3.629128
31
32.912636
12
-13.233755
22
-3.629128
32
33.135040
13
-14.289570
23
-2.094094
33
34.659061
0
3DFACE
8
TabBord
62
47.000000
10
-0.855511
20
-2.147032
30
31.150141
11
-1.317926
21
-2.368901
31
31.067923
12
-0.453293
22
-0.939016
32
28.191710
13
0.062521
23
-0.381503
33
28.166969
0
3DFACE
8
TabBord
62
47.000000
10
-1.317926
20
-2.368901
30
31.067923
11
-0.855515
21
-2.712350
31
30.973494
12
0.062521
22
-1.582741
32
27.919657
13
-0.453293
23
-0.939016
33
28.191710
0
3DFACE
8
TabBord
62
47.000000
10
-2.924324
20
-3.629128
30
33.831490
11
-3.266400
21
-3.831361
31
33.526745
12
-1.317926
22
-2.368901
32
31.067923
13
-0.855511
23
-2.147032
33
31.150141
0
3DFACE
8
TabBord
62
47.000000
10
-3.266400
20
-3.831361
30
33.526745
11
-2.924324
21
-4.123763
31
33.478188
12
-0.855515
22
-2.712350
32
30.973494
13
-1.317926
23
-2.368901
33
31.067923
0
3DFACE
8
TabBord
62
47.000000
10
-4.868733
20
-4.625285
30
34.807117
11
-5.097700
21
-4.769527
31
34.445641
12
-3.266400
22
-3.831361
32
33.526745
13
-2.924324
23
-3.629128
33
33.831490
0
3DFACE
8
TabBord
62
47.000000
10
-5.097700
20
-4.769527
30
34.445641
11
-4.868701
21
-5.119920
31
34.453819
12
-2.924324
22
-4.123763
32
33.478188
13
-3.266400
23
-3.831361
33
33.526745
0
3DFACE
8
TabBord
62
47.000000
10
-7.198738
20
-5.149948
30
35.091618
11
-7.292182
21
-5.263724
31
34.713573
12
-5.097700
22
-4.769527
32
34.445641
13
-4.868733
23
-4.625285
33
34.807117
0
3DFACE
8
TabBord
62
47.000000
10
-7.292182
20
-5.263724
30
34.713573
11
-7.198738
21
-5.644583
31
34.738316
12
-4.868701
22
-5.119920
32
34.453819
13
-5.097700
23
-4.769527
33
34.445641
0
3DFACE
8
TabBord
62
47.000000
10
-10.328290
20
-4.650727
30
34.518238
11
-10.239702
21
-4.793463
31
34.173553
12
-7.292182
22
-5.263724
32
34.713573
13
-7.198738
23
-5.149948
33
35.091618
0
3DFACE
8
TabBord
62
47.000000
10
-10.239702
20
-4.793463
30
34.173553
11
-10.328302
21
-5.145375
31
34.164932
12
-7.198738
22
-5.644583
32
34.738316
13
-7.292182
23
-5.263724
33
34.713573
0
3DFACE
8
TabBord
62
47.000000
10
-13.093573
20
-3.629128
30
33.161938
11
-12.844131
21
-3.831361
31
32.896137
12
-10.239702
22
-4.793463
32
34.173553
13
-10.328290
23
-4.650727
33
34.518238
0
3DFACE
8
TabBord
62
47.000000
10
-12.844131
20
-3.831361
30
32.896137
11
-13.093573
21
-4.123763
31
32.808632
12
-10.328302
22
-5.145375
32
34.164932
13
-10.239702
23
-4.793463
33
34.173553
0
3DFACE
8
TabBord
62
47.000000
10
-17.672915
20
-1.832187
30
29.428070
11
-17.157118
21
-2.138843
31
29.379463
12
-12.844131
22
-3.831361
32
32.896137
13
-13.093573
23
-3.629128
33
33.161938
0
3DFACE
8
TabBord
62
47.000000
10
-17.157118
20
-2.138843
30
29.379463
11
-17.672920
21
-2.326835
31
29.074766
12
-13.093573
22
-4.123763
32
32.808632
13
-12.844131
23
-3.831361
33
32.896137
0
3DFACE
8
TabBord
62
47.000000
10
-21.203705
20
0.042462
30
24.773027
11
-21.203705
21
-0.204862
31
24.596378
12
-17.157118
22
-2.138843
32
29.379463
13
-17.672915
23
-1.832187
33
29.428070
0
3DFACE
8
TabBord
62
47.000000
10
-21.203705
20
-0.204862
30
24.596378
11
-21.203705
21
-0.452173
31
24.419724
12
-17.672920
22
-2.326835
32
29.074766
13
-17.157118
23
-2.138843
33
29.379463
0
3DFACE
8
TabBord
62
47.000000
10
0.062521
20
0.466454
30
28.166969
11
-0.453293
21
1.023967
31
28.191710
12
-1.317926
22
2.453852
32
31.067923
13
-0.855511
23
2.231983
33
31.150141
0
3DFACE
8
TabBord
62
47.000000
10
-0.453293
20
1.023967
30
28.191710
11
0.062521
21
1.667692
31
27.919657
12
-0.855515
22
2.797301
32
30.973494
13
-1.317926
23
2.453852
33
31.067923
0
3DFACE
8
TabBord
62
47.000000
10
-0.855511
20
2.231983
30
31.150141
11
-1.317926
21
2.453852
31
31.067923
12
-3.266400
22
3.916312
32
33.526745
13
-2.924324
23
3.714079
33
33.831490
0
3DFACE
8
TabBord
62
47.000000
10
-1.317926
20
2.453852
30
31.067923
11
-0.855515
21
2.797301
31
30.973494
12
-2.924324
22
4.208714
32
33.478188
13
-3.266400
23
3.916312
33
33.526745
0
3DFACE
8
TabBord
62
47.000000
10
-2.924324
20
3.714079
30
33.831490
11
-3.266400
21
3.916312
31
33.526745
12
-5.097700
22
4.854479
32
34.445641
13
-4.868733
23
4.710236
33
34.807117
0
3DFACE
8
TabBord
62
47.000000
10
-3.266400
20
3.916312
30
33.526745
11
-2.924324
21
4.208714
31
33.478188
12
-4.868701
22
5.204870
32
34.453819
13
-5.097700
23
4.854479
33
34.445641
0
3DFACE
8
TabBord
62
47.000000
10
-4.868733
20
4.710236
30
34.807117
11
-5.097700
21
4.854479
31
34.445641
12
-7.292182
22
5.348675
32
34.713573
13
-7.198738
23
5.234900
33
35.091618
0
3DFACE
8
TabBord
62
47.000000
10
-5.097700
20
4.854479
30
34.445641
11
-4.868701
21
5.204870
31
34.453819
12
-7.198738
22
5.729534
32
34.738316
13
-7.292182
23
5.348675
33
34.713573
0
3DFACE
8
TabBord
62
47.000000
10
-7.198738
20
5.234900
30
35.091618
11
-7.292182
21
5.348675
31
34.713573
12
-10.239702
22
4.878414
32
34.173553
13
-10.328290
23
4.735678
33
34.518238
0
3DFACE
8
TabBord
62
47.000000
10
-7.292182
20
5.348675
30
34.713573
11
-7.198738
21
5.729534
31
34.738316
12
-10.328302
22
5.230326
32
34.164932
13
-10.239702
23
4.878414
33
34.173553
0
3DFACE
8
TabBord
62
47.000000
10
-10.328290
20
4.735678
30
34.518238
11
-10.239702
21
4.878414
31
34.173553
12
-12.844131
22
3.916312
32
32.896137
13
-13.093573
23
3.714079
33
33.161938
0
3DFACE
8
TabBord
62
47.000000
10
-10.239702
20
4.878414
30
34.173553
11
-10.328302
21
5.230326
31
34.164932
12
-13.093573
22
4.208714
32
32.808632
13
-12.844131
23
3.916312
33
32.896137
0
3DFACE
8
TabBord
62
47.000000
10
-13.093573
20
3.714079
30
33.161938
11
-12.844131
21
3.916312
31
32.896137
12
-17.157118
22
2.223794
32
29.379463
13
-17.672915
23
1.917138
33
29.428070
0
3DFACE
8
TabBord
62
47.000000
10
-12.844131
20
3.916312
30
32.896137
11
-13.093573
21
4.208714
31
32.808632
12
-17.672920
22
2.411787
32
29.074766
13
-17.157118
23
2.223794
33
29.379463
0
3DFACE
8
TabBord
62
47.000000
10
-17.672915
20
1.917138
30
29.428070
11
-17.157118
21
2.223794
31
29.379463
12
-21.203705
22
0.289813
32
24.596378
13
-21.203705
23
0.042489
33
24.773027
0
3DFACE
8
TabBord
62
47.000000
10
-17.157118
20
2.223794
30
29.379463
11
-17.672920
21
2.411787
31
29.074766
12
-21.203705
22
0.537124
32
24.419724
13
-21.203705
23
0.289813
33
24.596378
0
3DFACE
8
TabBord
62
47.000000
10
-15.276983
20
3.470247
30
23.093468
11
-15.771276
21
3.714052
31
23.977110
12
-11.268520
22
4.732980
32
23.971308
13
-11.073218
23
4.421517
33
23.088051
0
3DFACE
8
TabBord
62
47.000000
10
-18.635574
20
3.316159
30
23.687721
11
-19.368746
21
3.548995
31
24.613630
12
-15.771276
22
3.714052
32
23.977110
13
-15.276983
23
3.470247
33
23.093468
0
3DFACE
8
TabBord
62
47.000000
10
-20.314491
20
0.042462
30
24.265329
11
-21.167074
21
0.042462
31
25.232319
12
-19.368746
22
3.548995
32
24.613630
13
-18.635574
23
3.316159
33
23.687721
0
3DFACE
8
TabBord
62
47.000000
10
-18.635559
20
-3.231221
30
23.687721
11
-19.368729
21
-3.464058
31
24.613634
12
-21.167074
22
0.042462
32
25.232319
13
-20.314491
23
0.042462
33
24.265329
0
3DFACE
8
TabBord
62
47.000000
10
-15.276983
20
-3.385323
30
23.093468
11
-15.771276
21
-3.629128
31
23.977110
12
-19.368729
22
-3.464058
32
24.613634
13
-18.635559
23
-3.231221
33
23.687721
0
3DFACE
8
TabBord
62
47.000000
10
-11.073287
20
-4.336593
30
23.088028
11
-11.268592
21
-4.648057
31
23.971279
12
-15.771276
22
-3.629128
32
23.977110
13
-15.276983
23
-3.385323
33
23.093468
0
3DFACE
8
TabBord
62
47.000000
10
-5.976603
20
-4.805157
30
23.665682
11
-5.809407
21
-5.149948
31
24.590027
12
-11.268592
22
-4.648057
32
23.971279
13
-11.073287
23
-4.336593
33
23.088028
0
3DFACE
8
TabBord
62
47.000000
10
-3.283663
20
-4.456545
30
24.906857
11
-2.924931
21
-4.776538
31
25.919474
12
-5.809407
22
-5.149948
32
24.590027
13
-5.976603
23
-4.805157
33
23.665682
0
3DFACE
8
TabBord
62
47.000000
10
-1.388619
20
-3.385323
30
26.274956
11
-0.895102
21
-3.629128
31
27.384882
12
-2.924931
22
-4.776538
32
25.919474
13
-3.283663
23
-4.456545
33
24.906857
0
3DFACE
8
TabBord
62
47.000000
10
-0.658197
20
-1.821041
30
27.080538
11
-0.112729
21
-1.953576
31
28.247759
12
-0.895102
22
-3.629128
32
27.384882
13
-1.388619
23
-3.385323
33
26.274956
0
3DFACE
8
TabBord
62
47.000000
10
-0.460385
20
0.042462
30
27.400917
11
0.099152
21
0.042462
31
28.590927
12
-0.112729
22
-1.953576
32
28.247759
13
-0.658197
23
-1.821041
33
27.080538
0
3DFACE
8
TabBord
62
47.000000
10
-0.658197
20
1.905965
30
27.080538
11
-0.112729
21
2.038514
31
28.247759
12
0.099152
22
0.042462
32
28.590927
13
-0.460385
23
0.042462
33
27.400917
0
3DFACE
8
TabBord
62
47.000000
10
-1.388619
20
3.470247
30
26.274956
11
-0.895102
21
3.714052
31
27.384882
12
-0.112729
22
2.038514
32
28.247759
13
-0.658197
23
1.905965
33
27.080538
0
3DFACE
8
TabBord
62
47.000000
10
-3.283721
20
4.541483
30
24.906830
11
-2.924994
21
4.861475
31
25.919449
12
-0.895102
22
3.714052
32
27.384882
13
-1.388619
23
3.470247
33
26.274956
0
3DFACE
8
TabBord
62
47.000000
10
-5.976603
20
4.890080
30
23.665682
11
-5.809407
21
5.234872
31
24.590027
12
-2.924994
22
4.861475
32
25.919449
13
-3.283721
23
4.541483
33
24.906830
0
3DFACE
8
TabBord
62
47.000000
10
-11.073218
20
4.421517
30
23.088051
11
-11.268520
21
4.732980
31
23.971308
12
-5.809407
22
5.234872
32
24.590027
13
-5.976603
23
4.890080
33
23.665682
0
3DFACE
8
TabBord
62
47.000000
10
-0.802851
20
3.286052
30
22.835945
11
-0.639551
21
3.111240
31
26.285492
12
-0.639551
22
-3.026317
32
26.285503
13
-0.802851
23
-3.201128
33
22.835943
0
ENDSEC
0
EOF
