0
SECTION
2
ENTITIES
0
3DFACE
8
Helice1
62
1.000000
10
1.476792
20
0.941341
30
1.217017
11
1.476792
21
0.941339
31
-17.536795
12
0.443206
22
0.941339
32
-17.536795
13
0.443206
23
0.941341
33
1.217017
0
3DFACE
8
Helice1
62
1.000000
10
0.443206
20
0.941341
30
1.217017
11
0.443206
21
0.941339
31
-17.536795
12
0.443206
22
-0.810588
32
-17.536795
13
0.443206
23
-0.810586
33
1.217017
0
3DFACE
8
Helice1
62
1.000000
10
0.443206
20
-0.810586
30
1.217017
11
0.443206
21
-0.810588
31
-17.536795
12
1.476792
22
-0.810588
32
-17.536795
13
1.476792
23
-0.810586
33
1.217017
0
3DFACE
8
Helice1
62
1.000000
10
1.476792
20
-0.810586
30
1.217017
11
1.476792
21
-0.810588
31
-17.536795
12
1.476792
22
0.941339
32
-17.536795
13
1.476792
23
0.941341
33
1.217017
0
3DFACE
8
Helice1
62
1.000000
10
1.476792
20
0.941341
30
1.217017
11
0.443206
21
0.941341
31
1.217017
12
0.443206
22
-0.810586
32
1.217017
13
1.476792
23
-0.810586
33
1.217017
0
3DFACE
8
Helice1
62
1.000000
10
1.476792
20
-0.810588
30
-17.536795
11
0.443206
21
-0.810588
31
-17.536795
12
0.443206
22
0.941339
32
-17.536795
13
1.476792
23
0.941339
33
-17.536795
0
3DFACE
8
Navion1
62
2.000000
10
-20.522099
20
64.674866
30
-8.183293
11
-20.522099
21
64.817932
31
-9.635893
12
-29.917900
22
64.817932
32
-9.635893
13
-29.917900
23
64.674866
33
-8.183293
0
3DFACE
8
Navion1
62
2.000000
10
-29.917900
20
64.674866
30
-8.183293
11
-29.917900
21
64.817932
31
-9.635893
12
-33.617901
22
3.594173
32
-15.665901
13
-33.617901
23
3.451104
33
-14.213303
0
3DFACE
8
Navion1
62
2.000000
10
-33.617901
20
3.451104
30
-14.213303
11
-33.617901
21
3.594173
31
-15.665901
12
-16.062099
22
3.594173
32
-15.665901
13
-16.062099
23
3.451104
33
-14.213303
0
3DFACE
8
Navion1
62
2.000000
10
-16.062099
20
3.451104
30
-14.213303
11
-16.062099
21
3.594173
31
-15.665901
12
-20.522099
22
64.817932
32
-9.635893
13
-20.522099
23
64.674866
33
-8.183293
0
3DFACE
8
Navion1
62
2.000000
10
-20.522099
20
64.674866
30
-8.183293
11
-29.917900
21
64.674866
31
-8.183293
12
-33.617901
22
3.451104
32
-14.213303
13
-16.062099
23
3.451104
33
-14.213303
0
3DFACE
8
Navion1
62
2.000000
10
-16.062099
20
3.594173
30
-15.665901
11
-33.617901
21
3.594173
31
-15.665901
12
-29.917900
22
64.817932
32
-9.635893
13
-20.522099
23
64.817932
33
-9.635893
0
3DFACE
8
Navion1
62
2.000000
10
-16.262098
20
-3.342060
30
-14.213302
11
-16.262098
21
-3.485128
31
-15.665901
12
-33.817902
22
-3.485128
32
-15.665901
13
-33.817902
23
-3.342060
33
-14.213302
0
3DFACE
8
Navion1
62
2.000000
10
-33.817902
20
-3.342060
30
-14.213302
11
-33.817902
21
-3.485128
31
-15.665901
12
-29.477900
22
-64.708885
32
-9.635881
13
-29.477900
23
-64.565819
33
-8.183283
0
3DFACE
8
Navion1
62
2.000000
10
-29.477900
20
-64.565819
30
-8.183283
11
-29.477900
21
-64.708885
31
-9.635881
12
-20.702099
22
-64.708885
32
-9.635881
13
-20.702099
23
-64.565819
33
-8.183283
0
3DFACE
8
Navion1
62
2.000000
10
-20.702099
20
-64.565819
30
-8.183283
11
-20.702099
21
-64.708885
31
-9.635881
12
-16.262098
22
-3.485128
32
-15.665901
13
-16.262098
23
-3.342060
33
-14.213302
0
3DFACE
8
Navion1
62
2.000000
10
-16.262098
20
-3.342060
30
-14.213302
11
-33.817902
21
-3.342060
31
-14.213302
12
-29.477900
22
-64.565819
32
-8.183283
13
-20.702099
23
-64.565819
33
-8.183283
0
3DFACE
8
Navion1
62
2.000000
10
-20.702099
20
-64.708885
30
-9.635881
11
-29.477900
21
-64.708885
31
-9.635881
12
-33.817902
22
-3.485128
32
-15.665901
13
-16.262098
23
-3.485128
33
-15.665901
0
3DFACE
8
Navion1
62
2.000000
10
0.000000
20
1.059326
30
-9.419629
11
-8.480000
21
7.494674
31
-14.997338
12
-8.480000
22
0.070505
32
-2.096378
13
0.000000
23
0.054808
33
-7.674080
0
3DFACE
8
Navion1
62
2.000000
10
0.000000
20
0.054808
30
-7.674080
11
-8.480000
21
0.070505
31
-2.096378
12
-8.480000
22
-7.389973
32
-14.976370
13
0.000000
23
-0.954623
33
-9.416793
0
3DFACE
8
Navion1
62
2.000000
10
0.000000
20
-0.954623
30
-9.416793
11
-8.480000
21
-7.389973
31
-14.976370
12
-8.480000
22
7.494674
32
-14.997338
13
0.000000
23
1.059326
33
-9.419629
0
3DFACE
8
Navion1
62
2.000000
10
-8.480000
20
7.494674
30
-14.997338
11
-22.100000
21
5.414521
31
-16.214409
12
-22.100000
22
0.065431
32
-6.919302
13
-8.480000
23
0.070505
33
-2.096378
0
3DFACE
8
Navion1
62
2.000000
10
-8.480000
20
0.070505
30
-2.096378
11
-22.100000
21
0.065431
31
-6.919302
12
-22.100000
22
-5.309820
32
-16.199301
13
-8.480000
23
-7.389973
33
-14.976370
0
3DFACE
8
Navion1
62
2.000000
10
-8.480000
20
-7.389973
30
-14.976370
11
-22.100000
21
-5.309820
31
-16.199301
12
-22.100000
22
5.414521
32
-16.214409
13
-8.480000
23
7.494674
33
-14.997338
0
3DFACE
8
Navion1
62
2.000000
10
-22.100000
20
5.414521
30
-16.214409
11
-38.400002
21
7.841365
31
-15.297827
12
-38.400002
22
0.071350
32
-1.795890
13
-22.100000
23
0.065431
33
-6.919302
0
3DFACE
8
Navion1
62
2.000000
10
-22.100000
20
0.065431
30
-6.919302
11
-38.400002
21
0.071350
31
-1.795890
12
-38.400002
22
-7.736664
32
-15.275881
13
-22.100000
23
-5.309820
33
-16.199301
0
3DFACE
8
Navion1
62
2.000000
10
-22.100000
20
-5.309820
30
-16.199301
11
-38.400002
21
-7.736664
31
-15.275881
12
-38.400002
22
7.841365
32
-15.297827
13
-22.100000
23
5.414521
33
-16.214409
0
3DFACE
8
Navion1
62
2.000000
10
-38.400002
20
7.841365
30
-15.297827
11
-62.439999
21
0.422157
31
3.792623
12
-62.439999
22
0.053254
32
4.433665
13
-38.400002
23
0.071350
33
-1.795890
0
3DFACE
8
Navion1
62
2.000000
10
-38.400002
20
0.071350
30
-1.795890
11
-62.439999
21
0.053254
31
4.433665
12
-62.439999
22
-0.317452
32
3.793666
13
-38.400002
23
-7.736664
33
-15.275881
0
3DFACE
8
Navion1
62
2.000000
10
-38.400002
20
-7.736664
30
-15.275881
11
-62.439999
21
-0.317452
31
3.793666
12
-62.439999
22
0.422157
32
3.792623
13
-38.400002
23
7.841365
33
-15.297827
0
3DFACE
8
Navion1
62
2.000000
10
0.000000
20
1.059326
30
-9.419629
11
0.000000
21
0.054808
31
-7.674080
12
0.000000
22
-0.954623
32
-9.416793
13
0.000000
23
-0.954623
33
-9.416793
0
3DFACE
8
Bombe1
62
3.000000
10
-43.566963
20
-1.244412
30
-20.427141
11
-43.566963
21
-1.405971
31
-19.719305
12
-45.651745
22
0.225431
32
-19.719305
13
-45.651745
23
0.225431
33
-19.719305
0
3DFACE
8
Bombe1
62
3.000000
10
-37.725544
20
-2.423135
30
-20.994785
11
-37.725544
21
-2.714254
31
-19.719301
12
-43.566963
22
-1.405971
32
-19.719305
13
-43.566963
23
-1.244412
33
-20.427141
0
3DFACE
8
Bombe1
62
3.000000
10
-29.284452
20
-3.077276
30
-21.309801
11
-29.284452
21
-3.440298
31
-19.719301
12
-37.725544
22
-2.714254
32
-19.719301
13
-37.725544
23
-2.423135
33
-20.994785
0
3DFACE
8
Bombe1
62
3.000000
10
-19.915545
20
-3.077276
30
-21.309801
11
-19.915545
21
-3.440298
31
-19.719301
12
-29.284452
22
-3.440298
32
-19.719301
13
-29.284452
23
-3.077276
33
-21.309801
0
3DFACE
8
Bombe1
62
3.000000
10
-11.474451
20
-2.423135
30
-20.994785
11
-11.474451
21
-2.714254
31
-19.719301
12
-19.915545
22
-3.440298
32
-19.719301
13
-19.915545
23
-3.077276
33
-21.309801
0
3DFACE
8
Bombe1
62
3.000000
10
-5.633033
20
-1.244412
30
-20.427141
11
-5.633033
21
-1.405971
31
-19.719305
12
-11.474451
22
-2.714254
32
-19.719301
13
-11.474451
23
-2.423135
33
-20.994785
0
3DFACE
8
Bombe1
62
3.000000
10
-3.548255
20
0.225431
30
-19.719305
11
-5.633033
21
-1.405971
31
-19.719305
12
-5.633033
22
-1.244412
32
-20.427141
13
-5.633033
23
-1.244412
33
-20.427141
0
3DFACE
8
Bombe1
62
3.000000
10
-43.566963
20
-0.791732
30
-20.994785
11
-43.566963
21
-1.244412
31
-20.427141
12
-45.651745
22
0.225431
32
-19.719305
13
-45.651745
23
0.225431
33
-19.719305
0
3DFACE
8
Bombe1
62
3.000000
10
-37.725544
20
-1.607435
30
-22.017641
11
-37.725544
21
-2.423135
31
-20.994785
12
-43.566963
22
-1.244412
32
-20.427141
13
-43.566963
23
-0.791732
33
-20.994785
0
3DFACE
8
Bombe1
62
3.000000
10
-29.284452
20
-2.060114
30
-22.585287
11
-29.284452
21
-3.077276
31
-21.309801
12
-37.725544
22
-2.423135
32
-20.994785
13
-37.725544
23
-1.607435
33
-22.017641
0
3DFACE
8
Bombe1
62
3.000000
10
-19.915545
20
-2.060114
30
-22.585287
11
-19.915545
21
-3.077276
31
-21.309801
12
-29.284452
22
-3.077276
32
-21.309801
13
-29.284452
23
-2.060114
33
-22.585287
0
3DFACE
8
Bombe1
62
3.000000
10
-11.474451
20
-1.607435
30
-22.017641
11
-11.474451
21
-2.423135
31
-20.994785
12
-19.915545
22
-3.077276
32
-21.309801
13
-19.915545
23
-2.060114
33
-22.585287
0
3DFACE
8
Bombe1
62
3.000000
10
-5.633033
20
-0.791731
30
-20.994785
11
-5.633033
21
-1.244412
31
-20.427141
12
-11.474451
22
-2.423135
32
-20.994785
13
-11.474451
23
-1.607435
33
-22.017641
0
3DFACE
8
Bombe1
62
3.000000
10
-3.548255
20
0.225431
30
-19.719305
11
-5.633033
21
-1.244412
31
-20.427141
12
-5.633033
22
-0.791731
32
-20.994785
13
-5.633033
23
-0.791731
33
-20.994785
0
3DFACE
8
Bombe1
62
3.000000
10
-43.566963
20
-0.137590
30
-21.309801
11
-43.566963
21
-0.791732
31
-20.994785
12
-45.651745
22
0.225431
32
-19.719305
13
-45.651745
23
0.225431
33
-19.719305
0
3DFACE
8
Bombe1
62
3.000000
10
-37.725544
20
-0.428712
30
-22.585287
11
-37.725544
21
-1.607435
31
-22.017641
12
-43.566963
22
-0.791732
32
-20.994785
13
-43.566963
23
-0.137590
33
-21.309801
0
3DFACE
8
Bombe1
62
3.000000
10
-29.284452
20
-0.590272
30
-23.293125
11
-29.284452
21
-2.060114
31
-22.585287
12
-37.725544
22
-1.607435
32
-22.017641
13
-37.725544
23
-0.428712
33
-22.585287
0
3DFACE
8
Bombe1
62
3.000000
10
-19.915545
20
-0.590272
30
-23.293125
11
-19.915545
21
-2.060114
31
-22.585287
12
-29.284452
22
-2.060114
32
-22.585287
13
-29.284452
23
-0.590272
33
-23.293125
0
3DFACE
8
Bombe1
62
3.000000
10
-11.474451
20
-0.428712
30
-22.585287
11
-11.474451
21
-1.607435
31
-22.017641
12
-19.915545
22
-2.060114
32
-22.585287
13
-19.915545
23
-0.590272
33
-23.293125
0
3DFACE
8
Bombe1
62
3.000000
10
-5.633033
20
-0.137590
30
-21.309801
11
-5.633033
21
-0.791731
31
-20.994785
12
-11.474451
22
-1.607435
32
-22.017641
13
-11.474451
23
-0.428712
33
-22.585287
0
3DFACE
8
Bombe1
62
3.000000
10
-3.548255
20
0.225431
30
-19.719305
11
-5.633033
21
-0.791731
31
-20.994785
12
-5.633033
22
-0.137590
32
-21.309801
13
-5.633033
23
-0.137590
33
-21.309801
0
3DFACE
8
Bombe1
62
3.000000
10
-43.566963
20
0.588452
30
-21.309801
11
-43.566963
21
-0.137590
31
-21.309801
12
-45.651745
22
0.225431
32
-19.719305
13
-45.651745
23
0.225431
33
-19.719305
0
3DFACE
8
Bombe1
62
3.000000
10
-37.725544
20
0.879570
30
-22.585287
11
-37.725544
21
-0.428712
31
-22.585287
12
-43.566963
22
-0.137590
32
-21.309801
13
-43.566963
23
0.588452
33
-21.309801
0
3DFACE
8
Bombe1
62
3.000000
10
-29.284452
20
1.041130
30
-23.293125
11
-29.284452
21
-0.590272
31
-23.293125
12
-37.725544
22
-0.428712
32
-22.585287
13
-37.725544
23
0.879570
33
-22.585287
0
3DFACE
8
Bombe1
62
3.000000
10
-19.915545
20
1.041130
30
-23.293125
11
-19.915545
21
-0.590272
31
-23.293125
12
-29.284452
22
-0.590272
32
-23.293125
13
-29.284452
23
1.041130
33
-23.293125
0
3DFACE
8
Bombe1
62
3.000000
10
-11.474451
20
0.879571
30
-22.585287
11
-11.474451
21
-0.428712
31
-22.585287
12
-19.915545
22
-0.590272
32
-23.293125
13
-19.915545
23
1.041130
33
-23.293125
0
3DFACE
8
Bombe1
62
3.000000
10
-5.633033
20
0.588453
30
-21.309801
11
-5.633033
21
-0.137590
31
-21.309801
12
-11.474451
22
-0.428712
32
-22.585287
13
-11.474451
23
0.879571
33
-22.585287
0
3DFACE
8
Bombe1
62
3.000000
10
-3.548255
20
0.225431
30
-19.719305
11
-5.633033
21
-0.137590
31
-21.309801
12
-5.633033
22
0.588453
32
-21.309801
13
-5.633033
23
0.588453
33
-21.309801
0
3DFACE
8
Bombe1
62
3.000000
10
-43.566963
20
1.242594
30
-20.994785
11
-43.566963
21
0.588452
31
-21.309801
12
-45.651745
22
0.225431
32
-19.719305
13
-45.651745
23
0.225431
33
-19.719305
0
3DFACE
8
Bombe1
62
3.000000
10
-37.725544
20
2.058293
30
-22.017643
11
-37.725544
21
0.879570
31
-22.585287
12
-43.566963
22
0.588452
32
-21.309801
13
-43.566963
23
1.242594
33
-20.994785
0
3DFACE
8
Bombe1
62
3.000000
10
-29.284452
20
2.510973
30
-22.585287
11
-29.284452
21
1.041130
31
-23.293125
12
-37.725544
22
0.879570
32
-22.585287
13
-37.725544
23
2.058293
33
-22.017643
0
3DFACE
8
Bombe1
62
3.000000
10
-19.915545
20
2.510973
30
-22.585287
11
-19.915545
21
1.041130
31
-23.293125
12
-29.284452
22
1.041130
32
-23.293125
13
-29.284452
23
2.510973
33
-22.585287
0
3DFACE
8
Bombe1
62
3.000000
10
-11.474451
20
2.058293
30
-22.017643
11
-11.474451
21
0.879571
31
-22.585287
12
-19.915545
22
1.041130
32
-23.293125
13
-19.915545
23
2.510973
33
-22.585287
0
3DFACE
8
Bombe1
62
3.000000
10
-5.633033
20
1.242594
30
-20.994785
11
-5.633033
21
0.588453
31
-21.309801
12
-11.474451
22
0.879571
32
-22.585287
13
-11.474451
23
2.058293
33
-22.017643
0
3DFACE
8
Bombe1
62
3.000000
10
-3.548255
20
0.225431
30
-19.719305
11
-5.633033
21
0.588453
31
-21.309801
12
-5.633033
22
1.242594
32
-20.994785
13
-5.633033
23
1.242594
33
-20.994785
0
3DFACE
8
Bombe1
62
3.000000
10
-43.566963
20
1.695272
30
-20.427141
11
-43.566963
21
1.242594
31
-20.994785
12
-45.651745
22
0.225431
32
-19.719305
13
-45.651745
23
0.225431
33
-19.719305
0
3DFACE
8
Bombe1
62
3.000000
10
-37.725544
20
2.873995
30
-20.994787
11
-37.725544
21
2.058293
31
-22.017643
12
-43.566963
22
1.242594
32
-20.994785
13
-43.566963
23
1.695272
33
-20.427141
0
3DFACE
8
Bombe1
62
3.000000
10
-29.284452
20
3.528136
30
-21.309803
11
-29.284452
21
2.510973
31
-22.585287
12
-37.725544
22
2.058293
32
-22.017643
13
-37.725544
23
2.873995
33
-20.994787
0
3DFACE
8
Bombe1
62
3.000000
10
-19.915545
20
3.528136
30
-21.309803
11
-19.915545
21
2.510973
31
-22.585287
12
-29.284452
22
2.510973
32
-22.585287
13
-29.284452
23
3.528136
33
-21.309803
0
3DFACE
8
Bombe1
62
3.000000
10
-11.474451
20
2.873995
30
-20.994787
11
-11.474451
21
2.058293
31
-22.017643
12
-19.915545
22
2.510973
32
-22.585287
13
-19.915545
23
3.528136
33
-21.309803
0
3DFACE
8
Bombe1
62
3.000000
10
-5.633033
20
1.695274
30
-20.427141
11
-5.633033
21
1.242594
31
-20.994785
12
-11.474451
22
2.058293
32
-22.017643
13
-11.474451
23
2.873995
33
-20.994787
0
3DFACE
8
Bombe1
62
3.000000
10
-3.548255
20
0.225431
30
-19.719305
11
-5.633033
21
1.242594
31
-20.994785
12
-5.633033
22
1.695274
32
-20.427141
13
-5.633033
23
1.695274
33
-20.427141
0
3DFACE
8
Bombe1
62
3.000000
10
-43.566963
20
1.856833
30
-19.719301
11
-43.566963
21
1.695272
31
-20.427141
12
-45.651745
22
0.225431
32
-19.719305
13
-45.651745
23
0.225431
33
-19.719305
0
3DFACE
8
Bombe1
62
3.000000
10
-37.725544
20
3.165118
30
-19.719305
11
-37.725544
21
2.873995
31
-20.994787
12
-43.566963
22
1.695272
32
-20.427141
13
-43.566963
23
1.856833
33
-19.719301
0
3DFACE
8
Bombe1
62
3.000000
10
-29.284452
20
3.891159
30
-19.719305
11
-29.284452
21
3.528136
31
-21.309803
12
-37.725544
22
2.873995
32
-20.994787
13
-37.725544
23
3.165118
33
-19.719305
0
3DFACE
8
Bombe1
62
3.000000
10
-19.915545
20
3.891159
30
-19.719305
11
-19.915545
21
3.528136
31
-21.309803
12
-29.284452
22
3.528136
32
-21.309803
13
-29.284452
23
3.891159
33
-19.719305
0
3DFACE
8
Bombe1
62
3.000000
10
-11.474451
20
3.165118
30
-19.719305
11
-11.474451
21
2.873995
31
-20.994787
12
-19.915545
22
3.528136
32
-21.309803
13
-19.915545
23
3.891159
33
-19.719305
0
3DFACE
8
Bombe1
62
3.000000
10
-5.633033
20
1.856834
30
-19.719301
11
-5.633033
21
1.695274
31
-20.427141
12
-11.474451
22
2.873995
32
-20.994787
13
-11.474451
23
3.165118
33
-19.719305
0
3DFACE
8
Bombe1
62
3.000000
10
-3.548255
20
0.225431
30
-19.719305
11
-5.633033
21
1.695274
31
-20.427141
12
-5.633033
22
1.856834
32
-19.719301
13
-5.633033
23
1.856834
33
-19.719301
0
3DFACE
8
Bombe1
62
3.000000
10
-43.566963
20
1.695273
30
-19.011463
11
-43.566963
21
1.856833
31
-19.719301
12
-45.651745
22
0.225431
32
-19.719305
13
-45.651745
23
0.225431
33
-19.719305
0
3DFACE
8
Bombe1
62
3.000000
10
-37.725544
20
2.873997
30
-18.443821
11
-37.725544
21
3.165118
31
-19.719305
12
-43.566963
22
1.856833
32
-19.719301
13
-43.566963
23
1.695273
33
-19.011463
0
3DFACE
8
Bombe1
62
3.000000
10
-29.284452
20
3.528138
30
-18.128807
11
-29.284452
21
3.891159
31
-19.719305
12
-37.725544
22
3.165118
32
-19.719305
13
-37.725544
23
2.873997
33
-18.443821
0
3DFACE
8
Bombe1
62
3.000000
10
-19.915545
20
3.528138
30
-18.128807
11
-19.915545
21
3.891159
31
-19.719305
12
-29.284452
22
3.891159
32
-19.719305
13
-29.284452
23
3.528138
33
-18.128807
0
3DFACE
8
Bombe1
62
3.000000
10
-11.474451
20
2.873997
30
-18.443821
11
-11.474451
21
3.165118
31
-19.719305
12
-19.915545
22
3.891159
32
-19.719305
13
-19.915545
23
3.528138
33
-18.128807
0
3DFACE
8
Bombe1
62
3.000000
10
-5.633033
20
1.695274
30
-19.011463
11
-5.633033
21
1.856834
31
-19.719301
12
-11.474451
22
3.165118
32
-19.719305
13
-11.474451
23
2.873997
33
-18.443821
0
3DFACE
8
Bombe1
62
3.000000
10
-3.548255
20
0.225431
30
-19.719305
11
-5.633033
21
1.856834
31
-19.719301
12
-5.633033
22
1.695274
32
-19.011463
13
-5.633033
23
1.695274
33
-19.011463
0
3DFACE
8
Bombe1
62
3.000000
10
-43.566963
20
1.242594
30
-18.443819
11
-43.566963
21
1.695273
31
-19.011463
12
-45.651745
22
0.225431
32
-19.719305
13
-45.651745
23
0.225431
33
-19.719305
0
3DFACE
8
Bombe1
62
3.000000
10
-37.725544
20
2.058296
30
-17.420963
11
-37.725544
21
2.873997
31
-18.443821
12
-43.566963
22
1.695273
32
-19.011463
13
-43.566963
23
1.242594
33
-18.443819
0
3DFACE
8
Bombe1
62
3.000000
10
-29.284452
20
2.510976
30
-16.853325
11
-29.284452
21
3.528138
31
-18.128807
12
-37.725544
22
2.873997
32
-18.443821
13
-37.725544
23
2.058296
33
-17.420963
0
3DFACE
8
Bombe1
62
3.000000
10
-19.915545
20
2.510976
30
-16.853325
11
-19.915545
21
3.528138
31
-18.128807
12
-29.284452
22
3.528138
32
-18.128807
13
-29.284452
23
2.510976
33
-16.853325
0
3DFACE
8
Bombe1
62
3.000000
10
-11.474451
20
2.058296
30
-17.420963
11
-11.474451
21
2.873997
31
-18.443821
12
-19.915545
22
3.528138
32
-18.128807
13
-19.915545
23
2.510976
33
-16.853325
0
3DFACE
8
Bombe1
62
3.000000
10
-5.633033
20
1.242594
30
-18.443819
11
-5.633033
21
1.695274
31
-19.011463
12
-11.474451
22
2.873997
32
-18.443821
13
-11.474451
23
2.058296
33
-17.420963
0
3DFACE
8
Bombe1
62
3.000000
10
-3.548255
20
0.225431
30
-19.719305
11
-5.633033
21
1.695274
31
-19.011463
12
-5.633033
22
1.242594
32
-18.443819
13
-5.633033
23
1.242594
33
-18.443819
0
3DFACE
8
Bombe1
62
3.000000
10
-43.566963
20
0.588451
30
-18.128803
11
-43.566963
21
1.242594
31
-18.443819
12
-45.651745
22
0.225431
32
-19.719305
13
-45.651745
23
0.225431
33
-19.719305
0
3DFACE
8
Bombe1
62
3.000000
10
-37.725544
20
0.879573
30
-16.853321
11
-37.725544
21
2.058296
31
-17.420963
12
-43.566963
22
1.242594
32
-18.443819
13
-43.566963
23
0.588451
33
-18.128803
0
3DFACE
8
Bombe1
62
3.000000
10
-29.284452
20
1.041133
30
-16.145483
11
-29.284452
21
2.510976
31
-16.853325
12
-37.725544
22
2.058296
32
-17.420963
13
-37.725544
23
0.879573
33
-16.853321
0
3DFACE
8
Bombe1
62
3.000000
10
-19.915545
20
1.041133
30
-16.145483
11
-19.915545
21
2.510976
31
-16.853325
12
-29.284452
22
2.510976
32
-16.853325
13
-29.284452
23
1.041133
33
-16.145483
0
3DFACE
8
Bombe1
62
3.000000
10
-11.474451
20
0.879573
30
-16.853321
11
-11.474451
21
2.058296
31
-17.420963
12
-19.915545
22
2.510976
32
-16.853325
13
-19.915545
23
1.041133
33
-16.145483
0
3DFACE
8
Bombe1
62
3.000000
10
-5.633033
20
0.588452
30
-18.128803
11
-5.633033
21
1.242594
31
-18.443819
12
-11.474451
22
2.058296
32
-17.420963
13
-11.474451
23
0.879573
33
-16.853321
0
3DFACE
8
Bombe1
62
3.000000
10
-3.548255
20
0.225431
30
-19.719305
11
-5.633033
21
1.242594
31
-18.443819
12
-5.633033
22
0.588452
32
-18.128803
13
-5.633033
23
0.588452
33
-18.128803
0
3DFACE
8
Bombe1
62
3.000000
10
-43.566963
20
-0.137591
30
-18.128803
11
-43.566963
21
0.588451
31
-18.128803
12
-45.651745
22
0.225431
32
-19.719305
13
-45.651745
23
0.225431
33
-19.719305
0
3DFACE
8
Bombe1
62
3.000000
10
-37.725544
20
-0.428709
30
-16.853321
11
-37.725544
21
0.879573
31
-16.853321
12
-43.566963
22
0.588451
32
-18.128803
13
-43.566963
23
-0.137591
33
-18.128803
0
3DFACE
8
Bombe1
62
3.000000
10
-29.284452
20
-0.590269
30
-16.145483
11
-29.284452
21
1.041133
31
-16.145483
12
-37.725544
22
0.879573
32
-16.853321
13
-37.725544
23
-0.428709
33
-16.853321
0
3DFACE
8
Bombe1
62
3.000000
10
-19.915545
20
-0.590269
30
-16.145483
11
-19.915545
21
1.041133
31
-16.145483
12
-29.284452
22
1.041133
32
-16.145483
13
-29.284452
23
-0.590269
33
-16.145483
0
3DFACE
8
Bombe1
62
3.000000
10
-11.474451
20
-0.428709
30
-16.853321
11
-11.474451
21
0.879573
31
-16.853321
12
-19.915545
22
1.041133
32
-16.145483
13
-19.915545
23
-0.590269
33
-16.145483
0
3DFACE
8
Bombe1
62
3.000000
10
-5.633033
20
-0.137591
30
-18.128803
11
-5.633033
21
0.588452
31
-18.128803
12
-11.474451
22
0.879573
32
-16.853321
13
-11.474451
23
-0.428709
33
-16.853321
0
3DFACE
8
Bombe1
62
3.000000
10
-3.548255
20
0.225431
30
-19.719305
11
-5.633033
21
0.588452
31
-18.128803
12
-5.633033
22
-0.137591
32
-18.128803
13
-5.633033
23
-0.137591
33
-18.128803
0
3DFACE
8
Bombe1
62
3.000000
10
-43.566963
20
-0.791734
30
-18.443821
11
-43.566963
21
-0.137591
31
-18.128803
12
-45.651745
22
0.225431
32
-19.719305
13
-45.651745
23
0.225431
33
-19.719305
0
3DFACE
8
Bombe1
62
3.000000
10
-37.725544
20
-1.607432
30
-17.420963
11
-37.725544
21
-0.428709
31
-16.853321
12
-43.566963
22
-0.137591
32
-18.128803
13
-43.566963
23
-0.791734
33
-18.443821
0
3DFACE
8
Bombe1
62
3.000000
10
-29.284452
20
-2.060111
30
-16.853323
11
-29.284452
21
-0.590269
31
-16.145483
12
-37.725544
22
-0.428709
32
-16.853321
13
-37.725544
23
-1.607432
33
-17.420963
0
3DFACE
8
Bombe1
62
3.000000
10
-19.915545
20
-2.060111
30
-16.853323
11
-19.915545
21
-0.590269
31
-16.145483
12
-29.284452
22
-0.590269
32
-16.145483
13
-29.284452
23
-2.060111
33
-16.853323
0
3DFACE
8
Bombe1
62
3.000000
10
-11.474451
20
-1.607432
30
-17.420963
11
-11.474451
21
-0.428709
31
-16.853321
12
-19.915545
22
-0.590269
32
-16.145483
13
-19.915545
23
-2.060111
33
-16.853323
0
3DFACE
8
Bombe1
62
3.000000
10
-5.633033
20
-0.791733
30
-18.443821
11
-5.633033
21
-0.137591
31
-18.128803
12
-11.474451
22
-0.428709
32
-16.853321
13
-11.474451
23
-1.607432
33
-17.420963
0
3DFACE
8
Bombe1
62
3.000000
10
-3.548255
20
0.225431
30
-19.719305
11
-5.633033
21
-0.137591
31
-18.128803
12
-5.633033
22
-0.791733
32
-18.443821
13
-5.633033
23
-0.791733
33
-18.443821
0
3DFACE
8
Bombe1
62
3.000000
10
-43.566963
20
-1.244413
30
-19.011465
11
-43.566963
21
-0.791734
31
-18.443821
12
-45.651745
22
0.225431
32
-19.719305
13
-45.651745
23
0.225431
33
-19.719305
0
3DFACE
8
Bombe1
62
3.000000
10
-37.725544
20
-2.423134
30
-18.443819
11
-37.725544
21
-1.607432
31
-17.420963
12
-43.566963
22
-0.791734
32
-18.443821
13
-43.566963
23
-1.244413
33
-19.011465
0
3DFACE
8
Bombe1
62
3.000000
10
-29.284452
20
-3.077274
30
-18.128803
11
-29.284452
21
-2.060111
31
-16.853323
12
-37.725544
22
-1.607432
32
-17.420963
13
-37.725544
23
-2.423134
33
-18.443819
0
3DFACE
8
Bombe1
62
3.000000
10
-19.915545
20
-3.077274
30
-18.128803
11
-19.915545
21
-2.060111
31
-16.853323
12
-29.284452
22
-2.060111
32
-16.853323
13
-29.284452
23
-3.077274
33
-18.128803
0
3DFACE
8
Bombe1
62
3.000000
10
-11.474451
20
-2.423134
30
-18.443819
11
-11.474451
21
-1.607432
31
-17.420963
12
-19.915545
22
-2.060111
32
-16.853323
13
-19.915545
23
-3.077274
33
-18.128803
0
3DFACE
8
Bombe1
62
3.000000
10
-5.633033
20
-1.244413
30
-19.011465
11
-5.633033
21
-0.791733
31
-18.443821
12
-11.474451
22
-1.607432
32
-17.420963
13
-11.474451
23
-2.423134
33
-18.443819
0
3DFACE
8
Bombe1
62
3.000000
10
-3.548255
20
0.225431
30
-19.719305
11
-5.633033
21
-0.791733
31
-18.443821
12
-5.633033
22
-1.244413
32
-19.011465
13
-5.633033
23
-1.244413
33
-19.011465
0
3DFACE
8
Bombe1
62
3.000000
10
-43.566963
20
-1.405971
30
-19.719305
11
-43.566963
21
-1.244413
31
-19.011465
12
-45.651745
22
0.225431
32
-19.719305
13
-45.651745
23
0.225431
33
-19.719305
0
3DFACE
8
Bombe1
62
3.000000
10
-37.725544
20
-2.714254
30
-19.719301
11
-37.725544
21
-2.423134
31
-18.443819
12
-43.566963
22
-1.244413
32
-19.011465
13
-43.566963
23
-1.405971
33
-19.719305
0
3DFACE
8
Bombe1
62
3.000000
10
-29.284452
20
-3.440298
30
-19.719301
11
-29.284452
21
-3.077274
31
-18.128803
12
-37.725544
22
-2.423134
32
-18.443819
13
-37.725544
23
-2.714254
33
-19.719301
0
3DFACE
8
Bombe1
62
3.000000
10
-19.915545
20
-3.440298
30
-19.719301
11
-19.915545
21
-3.077274
31
-18.128803
12
-29.284452
22
-3.077274
32
-18.128803
13
-29.284452
23
-3.440298
33
-19.719301
0
3DFACE
8
Bombe1
62
3.000000
10
-11.474451
20
-2.714254
30
-19.719301
11
-11.474451
21
-2.423134
31
-18.443819
12
-19.915545
22
-3.077274
32
-18.128803
13
-19.915545
23
-3.440298
33
-19.719301
0
3DFACE
8
Bombe1
62
3.000000
10
-5.633033
20
-1.405971
30
-19.719305
11
-5.633033
21
-1.244413
31
-19.011465
12
-11.474451
22
-2.423134
32
-18.443819
13
-11.474451
23
-2.714254
33
-19.719301
0
3DFACE
8
Bombe1
62
3.000000
10
-3.548255
20
0.225431
30
-19.719305
11
-5.633033
21
-1.244413
31
-19.011465
12
-5.633033
22
-1.405971
32
-19.719305
13
-5.633033
23
-1.405971
33
-19.719305
0
ENDSEC
0
EOF
