0
SECTION
2
ENTITIES
0
3DFACE
8
Cockpit
62
1.000000
10
-14.592734
20
2.463427
30
24.331432
11
-18.850428
21
4.290598
31
24.561432
12
-18.915043
22
3.924656
32
24.575977
13
-14.592734
23
2.091826
33
24.345978
0
3DFACE
8
Cockpit
62
1.000000
10
-14.592734
20
2.290225
30
24.660521
11
-18.880548
21
4.120035
31
24.890520
12
-18.850428
22
4.290598
32
24.561432
13
-14.592734
23
2.463427
33
24.331432
0
3DFACE
8
Cockpit
62
1.000000
10
-14.592734
20
2.091826
30
24.345978
11
-18.915043
21
3.924656
31
24.575977
12
-18.880548
22
4.120035
32
24.890520
13
-14.592734
23
2.290225
33
24.660521
0
3DFACE
8
Cockpit
62
1.000000
10
-18.850428
20
4.290598
30
24.561432
11
-23.022238
21
4.083185
31
24.331432
12
-23.003233
22
3.712072
32
24.345978
13
-18.915043
23
3.924656
33
24.575977
0
3DFACE
8
Cockpit
62
1.000000
10
-18.880548
20
4.120035
30
24.890520
11
-23.013384
21
3.910211
31
24.660521
12
-23.022238
22
4.083185
32
24.331432
13
-18.850428
23
4.290598
33
24.561432
0
3DFACE
8
Cockpit
62
1.000000
10
-18.915043
20
3.924656
30
24.575977
11
-23.003233
21
3.712072
31
24.345978
12
-23.013384
22
3.910211
32
24.660521
13
-18.880548
23
4.120035
33
24.890520
0
3DFACE
8
Cockpit
62
1.000000
10
-13.142735
20
2.549495
30
19.614407
11
-13.372734
21
2.839493
31
19.614407
12
-14.592734
22
2.267540
32
24.325077
13
-14.362735
23
1.996491
33
24.221956
0
3DFACE
8
Cockpit
62
1.000000
10
-13.372734
20
2.839493
30
19.614407
11
-13.082736
21
3.069495
31
19.614407
12
-14.302736
22
2.482500
32
24.406858
13
-14.592734
23
2.267540
33
24.325077
0
3DFACE
8
Cockpit
62
1.000000
10
-13.082736
20
3.069495
30
19.614407
11
-12.852735
21
2.779497
31
19.614407
12
-14.072735
22
2.211450
32
24.303738
13
-14.302736
23
2.482500
33
24.406858
0
3DFACE
8
Cockpit
62
1.000000
10
-12.852735
20
2.779497
30
19.614407
11
-13.142735
21
2.549495
31
19.614407
12
-14.362735
22
1.996491
32
24.221956
13
-14.072735
23
2.211450
33
24.303738
0
3DFACE
8
Cockpit
62
1.000000
10
-14.362735
20
1.996491
30
24.221956
11
-14.592734
21
2.267540
31
24.325077
12
-14.542734
22
0.963670
32
26.200863
13
-14.312735
23
0.826771
33
25.945204
0
3DFACE
8
Cockpit
62
1.000000
10
-14.592734
20
2.267540
30
24.325077
11
-14.302736
21
2.482500
31
24.406858
12
-14.252737
22
1.072221
32
26.403614
13
-14.542734
23
0.963670
33
26.200863
0
3DFACE
8
Cockpit
62
1.000000
10
-14.302736
20
2.482500
30
24.406858
11
-14.072735
21
2.211450
31
24.303738
12
-14.022736
22
0.935323
32
26.147955
13
-14.252737
23
1.072221
33
26.403614
0
3DFACE
8
Cockpit
62
1.000000
10
-14.072735
20
2.211450
30
24.303738
11
-14.362735
21
1.996491
31
24.221956
12
-14.312735
22
0.826771
32
25.945204
13
-14.022736
23
0.935323
33
26.147955
0
3DFACE
8
Cockpit
62
1.000000
10
-14.312735
20
0.826771
30
25.945204
11
-14.542734
21
0.963670
31
26.200863
12
-14.542734
22
-0.653530
32
26.231436
13
-14.312735
23
-0.527580
33
25.970215
0
3DFACE
8
Cockpit
62
1.000000
10
-14.542734
20
0.963670
30
26.200863
11
-14.252737
21
1.072221
31
26.403614
12
-14.252737
22
-0.753427
32
26.438601
13
-14.542734
23
-0.653530
33
26.231436
0
3DFACE
8
Cockpit
62
1.000000
10
-14.252737
20
1.072221
30
26.403614
11
-14.022736
21
0.935323
31
26.147955
12
-14.022736
22
-0.627477
32
26.177382
13
-14.252737
23
-0.753427
33
26.438601
0
3DFACE
8
Cockpit
62
1.000000
10
-14.022736
20
0.935323
30
26.147955
11
-14.312735
21
0.826771
31
25.945204
12
-14.312735
22
-0.527580
32
25.970215
13
-14.022736
23
-0.627477
33
26.177382
0
3DFACE
8
Cockpit
62
1.000000
10
-14.312735
20
-0.527580
30
25.970215
11
-14.542734
21
-0.653530
31
26.231436
12
-14.592734
22
-2.008176
32
24.465977
13
-14.362735
23
-1.740603
33
24.354189
0
3DFACE
8
Cockpit
62
1.000000
10
-14.542734
20
-0.653530
30
26.231436
11
-14.252737
21
-0.753427
31
26.438601
12
-14.302736
22
-2.220403
32
24.554623
13
-14.592734
23
-2.008176
33
24.465977
0
3DFACE
8
Cockpit
62
1.000000
10
-14.252737
20
-0.753427
30
26.438601
11
-14.022736
21
-0.627477
31
26.177382
12
-14.072735
22
-1.952830
32
24.442835
13
-14.302736
23
-2.220403
33
24.554623
0
3DFACE
8
Cockpit
62
1.000000
10
-14.022736
20
-0.627477
30
26.177382
11
-14.312735
21
-0.527580
31
25.970215
12
-14.362735
22
-1.740603
32
24.354189
13
-14.072735
23
-1.952830
33
24.442835
0
3DFACE
8
Cockpit
62
1.000000
10
-14.362735
20
-1.740603
30
24.354189
11
-14.592734
21
-2.008176
31
24.465977
12
-13.372734
22
-2.670213
32
19.708544
13
-13.142735
23
-2.382986
33
19.668642
0
3DFACE
8
Cockpit
62
1.000000
10
-14.592734
20
-2.008176
30
24.465977
11
-14.302736
21
-2.220403
31
24.554623
12
-13.082736
22
-2.898025
32
19.740173
13
-13.372734
23
-2.670213
33
19.708544
0
3DFACE
8
Cockpit
62
1.000000
10
-14.302736
20
-2.220403
30
24.554623
11
-14.072735
21
-1.952830
31
24.442835
12
-12.852735
22
-2.610798
32
19.700272
13
-13.082736
23
-2.898025
33
19.740173
0
3DFACE
8
Cockpit
62
1.000000
10
-14.072735
20
-1.952830
30
24.442835
11
-14.362735
21
-1.740603
31
24.354189
12
-13.142735
22
-2.382986
32
19.668642
13
-12.852735
23
-2.610798
33
19.700272
0
3DFACE
8
Cockpit
62
1.000000
10
-14.182737
20
1.292220
30
26.163614
11
-19.008945
21
1.872219
31
28.152824
12
-19.044628
22
1.611506
32
27.844353
13
-14.182737
23
1.031507
33
25.853088
0
3DFACE
8
Cockpit
62
1.000000
10
-14.182737
20
1.031507
30
25.853088
11
-19.044628
21
1.611506
31
27.844353
12
-19.000845
22
1.472937
32
28.222872
13
-14.182737
23
0.892938
33
26.234135
0
3DFACE
8
Cockpit
62
1.000000
10
-14.182737
20
0.892938
30
26.234135
11
-19.000845
21
1.472937
31
28.222872
12
-19.008945
22
1.872219
32
28.152824
13
-14.182737
23
1.292220
33
26.163614
0
3DFACE
8
Cockpit
62
1.000000
10
-19.008945
20
1.872219
30
28.152824
11
-22.685488
21
1.822218
31
27.762939
12
-22.652493
22
1.561505
32
27.454166
13
-19.044628
23
1.611506
33
27.844353
0
3DFACE
8
Cockpit
62
1.000000
10
-19.044628
20
1.611506
30
27.844353
11
-22.652493
21
1.561505
31
27.454166
12
-22.692980
22
1.422936
32
27.833055
13
-19.000845
23
1.472937
33
28.222872
0
3DFACE
8
Cockpit
62
1.000000
10
-19.000845
20
1.472937
30
28.222872
11
-22.692980
21
1.422936
31
27.833055
12
-22.685488
22
1.822218
32
27.762939
13
-19.008945
23
1.872219
33
28.152824
0
3DFACE
8
Cockpit
62
1.000000
10
-14.182737
20
-0.635632
30
25.853088
11
-19.044628
21
-1.215631
31
27.844353
12
-19.008945
22
-1.476344
32
28.152824
13
-14.182737
23
-0.896345
33
26.163614
0
3DFACE
8
Cockpit
62
1.000000
10
-14.182737
20
-0.497063
30
26.234135
11
-19.000845
21
-1.077062
31
28.222872
12
-19.044628
22
-1.215631
32
27.844353
13
-14.182737
23
-0.635632
33
25.853088
0
3DFACE
8
Cockpit
62
1.000000
10
-14.182737
20
-0.896345
30
26.163614
11
-19.008945
21
-1.476344
31
28.152824
12
-19.000845
22
-1.077062
32
28.222872
13
-14.182737
23
-0.497063
33
26.234135
0
3DFACE
8
Cockpit
62
1.000000
10
-19.044628
20
-1.215631
30
27.844353
11
-22.652493
21
-1.165630
31
27.454166
12
-22.685488
22
-1.426343
32
27.762939
13
-19.008945
23
-1.476344
33
28.152824
0
3DFACE
8
Cockpit
62
1.000000
10
-19.000845
20
-1.077062
30
28.222872
11
-22.692980
21
-1.027061
31
27.833055
12
-22.652493
22
-1.165630
32
27.454166
13
-19.044628
23
-1.215631
33
27.844353
0
3DFACE
8
Cockpit
62
1.000000
10
-19.008945
20
-1.476344
30
28.152824
11
-22.685488
21
-1.426343
31
27.762939
12
-22.692980
22
-1.027061
32
27.833055
13
-19.000845
23
-1.077062
33
28.222872
0
3DFACE
8
Cockpit
62
1.000000
10
-14.592734
20
-1.778174
30
24.345978
11
-18.915043
21
-3.611004
31
24.575977
12
-18.850428
22
-3.976947
32
24.561432
13
-14.592734
23
-2.149776
33
24.331432
0
3DFACE
8
Cockpit
62
1.000000
10
-14.592734
20
-2.149776
30
24.331432
11
-18.850428
21
-3.976947
31
24.561432
12
-18.880548
22
-3.806384
32
24.890520
13
-14.592734
23
-1.976573
33
24.660521
0
3DFACE
8
Cockpit
62
1.000000
10
-14.592734
20
-1.976573
30
24.660521
11
-18.880548
21
-3.806384
31
24.890520
12
-18.915043
22
-3.611004
32
24.575977
13
-14.592734
23
-1.778174
33
24.345978
0
3DFACE
8
Cockpit
62
1.000000
10
-18.915043
20
-3.611004
30
24.575977
11
-23.003233
21
-3.398421
31
24.345978
12
-23.022238
22
-3.769533
32
24.331432
13
-18.850428
23
-3.976947
33
24.561432
0
3DFACE
8
Cockpit
62
1.000000
10
-18.850428
20
-3.976947
30
24.561432
11
-23.022238
21
-3.769533
31
24.331432
12
-23.013384
22
-3.596560
32
24.660521
13
-18.880548
23
-3.806384
33
24.890520
0
3DFACE
8
Cockpit
62
1.000000
10
-18.880548
20
-3.806384
30
24.890520
11
-23.013384
21
-3.596560
31
24.660521
12
-23.003233
22
-3.398421
32
24.345978
13
-18.915043
23
-3.611004
33
24.575977
0
3DFACE
8
LBomb19
62
2.000000
10
-21.474377
20
2.833676
30
3.269789
11
-21.474377
21
3.439724
31
4.319498
12
-24.299732
22
2.227625
32
4.319498
13
-24.299732
23
2.227625
33
4.319498
0
3DFACE
8
LBomb19
62
2.000000
10
-15.823671
20
2.833676
30
3.269789
11
-15.823671
21
3.439726
31
4.319498
12
-21.474377
22
3.439724
32
4.319498
13
-21.474377
23
2.833676
33
3.269789
0
3DFACE
8
LBomb19
62
2.000000
10
-12.998321
20
2.227625
30
4.319498
11
-12.998321
21
2.227625
31
4.319498
12
-15.823671
22
3.439726
32
4.319498
13
-15.823671
23
2.833676
33
3.269789
0
3DFACE
8
LBomb19
62
2.000000
10
-21.474377
20
1.621576
30
3.269789
11
-21.474377
21
2.833676
31
3.269789
12
-24.299732
22
2.227625
32
4.319498
13
-24.299732
23
2.227625
33
4.319498
0
3DFACE
8
LBomb19
62
2.000000
10
-15.823671
20
1.621576
30
3.269789
11
-15.823671
21
2.833676
31
3.269789
12
-21.474377
22
2.833676
32
3.269789
13
-21.474377
23
1.621576
33
3.269789
0
3DFACE
8
LBomb19
62
2.000000
10
-12.998321
20
2.227625
30
4.319498
11
-12.998321
21
2.227625
31
4.319498
12
-15.823671
22
2.833676
32
3.269789
13
-15.823671
23
1.621576
33
3.269789
0
3DFACE
8
LBomb19
62
2.000000
10
-21.474377
20
1.015525
30
4.319498
11
-21.474377
21
1.621576
31
3.269789
12
-24.299732
22
2.227625
32
4.319498
13
-24.299732
23
2.227625
33
4.319498
0
3DFACE
8
LBomb19
62
2.000000
10
-15.823671
20
1.015527
30
4.319499
11
-15.823671
21
1.621576
31
3.269789
12
-21.474377
22
1.621576
32
3.269789
13
-21.474377
23
1.015525
33
4.319498
0
3DFACE
8
LBomb19
62
2.000000
10
-12.998321
20
2.227625
30
4.319498
11
-12.998321
21
2.227625
31
4.319498
12
-15.823671
22
1.621576
32
3.269789
13
-15.823671
23
1.015527
33
4.319499
0
3DFACE
8
LBomb19
62
2.000000
10
-21.474377
20
1.621576
30
5.369208
11
-21.474377
21
1.015525
31
4.319498
12
-24.299732
22
2.227625
32
4.319498
13
-24.299732
23
2.227625
33
4.319498
0
3DFACE
8
LBomb19
62
2.000000
10
-15.823671
20
1.621578
30
5.369207
11
-15.823671
21
1.015527
31
4.319499
12
-21.474377
22
1.015525
32
4.319498
13
-21.474377
23
1.621576
33
5.369208
0
3DFACE
8
LBomb19
62
2.000000
10
-12.998321
20
2.227625
30
4.319498
11
-12.998321
21
2.227625
31
4.319498
12
-15.823671
22
1.015527
32
4.319499
13
-15.823671
23
1.621578
33
5.369207
0
3DFACE
8
LBomb19
62
2.000000
10
-21.474377
20
2.833676
30
5.369208
11
-21.474377
21
1.621576
31
5.369208
12
-24.299732
22
2.227625
32
4.319498
13
-24.299732
23
2.227625
33
4.319498
0
3DFACE
8
LBomb19
62
2.000000
10
-15.823671
20
2.833676
30
5.369207
11
-15.823671
21
1.621578
31
5.369207
12
-21.474377
22
1.621576
32
5.369208
13
-21.474377
23
2.833676
33
5.369208
0
3DFACE
8
LBomb19
62
2.000000
10
-12.998321
20
2.227625
30
4.319498
11
-12.998321
21
2.227625
31
4.319498
12
-15.823671
22
1.621578
32
5.369207
13
-15.823671
23
2.833676
33
5.369207
0
3DFACE
8
LBomb19
62
2.000000
10
-21.474377
20
3.439724
30
4.319498
11
-21.474377
21
2.833676
31
5.369208
12
-24.299732
22
2.227625
32
4.319498
13
-24.299732
23
2.227625
33
4.319498
0
3DFACE
8
LBomb19
62
2.000000
10
-15.823671
20
3.439726
30
4.319498
11
-15.823671
21
2.833676
31
5.369207
12
-21.474377
22
2.833676
32
5.369208
13
-21.474377
23
3.439724
33
4.319498
0
3DFACE
8
LBomb19
62
2.000000
10
-12.998321
20
2.227625
30
4.319498
11
-12.998321
21
2.227625
31
4.319498
12
-15.823671
22
2.833676
32
5.369207
13
-15.823671
23
3.439726
33
4.319498
0
3DFACE
8
LBomb17
62
3.000000
10
-23.214378
20
0.223675
30
5.749789
11
-23.214378
21
0.829724
31
6.799498
12
-26.039732
22
-0.382375
32
6.799498
13
-26.039732
23
-0.382375
33
6.799498
0
3DFACE
8
LBomb17
62
3.000000
10
-17.563673
20
0.223675
30
5.749789
11
-17.563673
21
0.829726
31
6.799498
12
-23.214378
22
0.829724
32
6.799498
13
-23.214378
23
0.223675
33
5.749789
0
3DFACE
8
LBomb17
62
3.000000
10
-14.738321
20
-0.382375
30
6.799498
11
-14.738321
21
-0.382375
31
6.799498
12
-17.563673
22
0.829726
32
6.799498
13
-17.563673
23
0.223675
33
5.749789
0
3DFACE
8
LBomb17
62
3.000000
10
-23.214378
20
-0.988425
30
5.749789
11
-23.214378
21
0.223675
31
5.749789
12
-26.039732
22
-0.382375
32
6.799498
13
-26.039732
23
-0.382375
33
6.799498
0
3DFACE
8
LBomb17
62
3.000000
10
-17.563673
20
-0.988425
30
5.749789
11
-17.563673
21
0.223675
31
5.749789
12
-23.214378
22
0.223675
32
5.749789
13
-23.214378
23
-0.988425
33
5.749789
0
3DFACE
8
LBomb17
62
3.000000
10
-14.738321
20
-0.382375
30
6.799498
11
-14.738321
21
-0.382375
31
6.799498
12
-17.563673
22
0.223675
32
5.749789
13
-17.563673
23
-0.988425
33
5.749789
0
3DFACE
8
LBomb17
62
3.000000
10
-23.214378
20
-1.594475
30
6.799498
11
-23.214378
21
-0.988425
31
5.749789
12
-26.039732
22
-0.382375
32
6.799498
13
-26.039732
23
-0.382375
33
6.799498
0
3DFACE
8
LBomb17
62
3.000000
10
-17.563673
20
-1.594473
30
6.799498
11
-17.563673
21
-0.988425
31
5.749789
12
-23.214378
22
-0.988425
32
5.749789
13
-23.214378
23
-1.594475
33
6.799498
0
3DFACE
8
LBomb17
62
3.000000
10
-14.738321
20
-0.382375
30
6.799498
11
-14.738321
21
-0.382375
31
6.799498
12
-17.563673
22
-0.988425
32
5.749789
13
-17.563673
23
-1.594473
33
6.799498
0
3DFACE
8
LBomb17
62
3.000000
10
-23.214378
20
-0.988425
30
7.849207
11
-23.214378
21
-1.594475
31
6.799498
12
-26.039732
22
-0.382375
32
6.799498
13
-26.039732
23
-0.382375
33
6.799498
0
3DFACE
8
LBomb17
62
3.000000
10
-17.563673
20
-0.988423
30
7.849206
11
-17.563673
21
-1.594473
31
6.799498
12
-23.214378
22
-1.594475
32
6.799498
13
-23.214378
23
-0.988425
33
7.849207
0
3DFACE
8
LBomb17
62
3.000000
10
-14.738321
20
-0.382375
30
6.799498
11
-14.738321
21
-0.382375
31
6.799498
12
-17.563673
22
-1.594473
32
6.799498
13
-17.563673
23
-0.988423
33
7.849206
0
3DFACE
8
LBomb17
62
3.000000
10
-23.214378
20
0.223675
30
7.849207
11
-23.214378
21
-0.988425
31
7.849207
12
-26.039732
22
-0.382375
32
6.799498
13
-26.039732
23
-0.382375
33
6.799498
0
3DFACE
8
LBomb17
62
3.000000
10
-17.563673
20
0.223675
30
7.849206
11
-17.563673
21
-0.988423
31
7.849206
12
-23.214378
22
-0.988425
32
7.849207
13
-23.214378
23
0.223675
33
7.849207
0
3DFACE
8
LBomb17
62
3.000000
10
-14.738321
20
-0.382375
30
6.799498
11
-14.738321
21
-0.382375
31
6.799498
12
-17.563673
22
-0.988423
32
7.849206
13
-17.563673
23
0.223675
33
7.849206
0
3DFACE
8
LBomb17
62
3.000000
10
-23.214378
20
0.829724
30
6.799498
11
-23.214378
21
0.223675
31
7.849207
12
-26.039732
22
-0.382375
32
6.799498
13
-26.039732
23
-0.382375
33
6.799498
0
3DFACE
8
LBomb17
62
3.000000
10
-17.563673
20
0.829726
30
6.799498
11
-17.563673
21
0.223675
31
7.849206
12
-23.214378
22
0.223675
32
7.849207
13
-23.214378
23
0.829724
33
6.799498
0
3DFACE
8
LBomb17
62
3.000000
10
-14.738321
20
-0.382375
30
6.799498
11
-14.738321
21
-0.382375
31
6.799498
12
-17.563673
22
0.223675
32
7.849206
13
-17.563673
23
0.829726
33
6.799498
0
3DFACE
8
LBomb15
62
4.000000
10
-22.834377
20
4.623675
30
5.749789
11
-22.834377
21
5.229723
31
6.799498
12
-25.659733
22
4.017625
32
6.799498
13
-25.659733
23
4.017625
33
6.799498
0
3DFACE
8
LBomb15
62
4.000000
10
-17.183672
20
4.623675
30
5.749789
11
-17.183672
21
5.229725
31
6.799498
12
-22.834377
22
5.229723
32
6.799498
13
-22.834377
23
4.623675
33
5.749789
0
3DFACE
8
LBomb15
62
4.000000
10
-14.358321
20
4.017625
30
6.799498
11
-14.358321
21
4.017625
31
6.799498
12
-17.183672
22
5.229725
32
6.799498
13
-17.183672
23
4.623675
33
5.749789
0
3DFACE
8
LBomb15
62
4.000000
10
-22.834377
20
3.411575
30
5.749789
11
-22.834377
21
4.623675
31
5.749789
12
-25.659733
22
4.017625
32
6.799498
13
-25.659733
23
4.017625
33
6.799498
0
3DFACE
8
LBomb15
62
4.000000
10
-17.183672
20
3.411575
30
5.749789
11
-17.183672
21
4.623675
31
5.749789
12
-22.834377
22
4.623675
32
5.749789
13
-22.834377
23
3.411575
33
5.749789
0
3DFACE
8
LBomb15
62
4.000000
10
-14.358321
20
4.017625
30
6.799498
11
-14.358321
21
4.017625
31
6.799498
12
-17.183672
22
4.623675
32
5.749789
13
-17.183672
23
3.411575
33
5.749789
0
3DFACE
8
LBomb15
62
4.000000
10
-22.834377
20
2.805525
30
6.799498
11
-22.834377
21
3.411575
31
5.749789
12
-25.659733
22
4.017625
32
6.799498
13
-25.659733
23
4.017625
33
6.799498
0
3DFACE
8
LBomb15
62
4.000000
10
-17.183672
20
2.805526
30
6.799498
11
-17.183672
21
3.411575
31
5.749789
12
-22.834377
22
3.411575
32
5.749789
13
-22.834377
23
2.805525
33
6.799498
0
3DFACE
8
LBomb15
62
4.000000
10
-14.358321
20
4.017625
30
6.799498
11
-14.358321
21
4.017625
31
6.799498
12
-17.183672
22
3.411575
32
5.749789
13
-17.183672
23
2.805526
33
6.799498
0
3DFACE
8
LBomb15
62
4.000000
10
-22.834377
20
3.411575
30
7.849207
11
-22.834377
21
2.805525
31
6.799498
12
-25.659733
22
4.017625
32
6.799498
13
-25.659733
23
4.017625
33
6.799498
0
3DFACE
8
LBomb15
62
4.000000
10
-17.183672
20
3.411577
30
7.849206
11
-17.183672
21
2.805526
31
6.799498
12
-22.834377
22
2.805525
32
6.799498
13
-22.834377
23
3.411575
33
7.849207
0
3DFACE
8
LBomb15
62
4.000000
10
-14.358321
20
4.017625
30
6.799498
11
-14.358321
21
4.017625
31
6.799498
12
-17.183672
22
2.805526
32
6.799498
13
-17.183672
23
3.411577
33
7.849206
0
3DFACE
8
LBomb15
62
4.000000
10
-22.834377
20
4.623675
30
7.849207
11
-22.834377
21
3.411575
31
7.849207
12
-25.659733
22
4.017625
32
6.799498
13
-25.659733
23
4.017625
33
6.799498
0
3DFACE
8
LBomb15
62
4.000000
10
-17.183672
20
4.623675
30
7.849206
11
-17.183672
21
3.411577
31
7.849206
12
-22.834377
22
3.411575
32
7.849207
13
-22.834377
23
4.623675
33
7.849207
0
3DFACE
8
LBomb15
62
4.000000
10
-14.358321
20
4.017625
30
6.799498
11
-14.358321
21
4.017625
31
6.799498
12
-17.183672
22
3.411577
32
7.849206
13
-17.183672
23
4.623675
33
7.849206
0
3DFACE
8
LBomb15
62
4.000000
10
-22.834377
20
5.229723
30
6.799498
11
-22.834377
21
4.623675
31
7.849207
12
-25.659733
22
4.017625
32
6.799498
13
-25.659733
23
4.017625
33
6.799498
0
3DFACE
8
LBomb15
62
4.000000
10
-17.183672
20
5.229725
30
6.799498
11
-17.183672
21
4.623675
31
7.849206
12
-22.834377
22
4.623675
32
7.849207
13
-22.834377
23
5.229723
33
6.799498
0
3DFACE
8
LBomb15
62
4.000000
10
-14.358321
20
4.017625
30
6.799498
11
-14.358321
21
4.017625
31
6.799498
12
-17.183672
22
4.623675
32
7.849206
13
-17.183672
23
5.229725
33
6.799498
0
3DFACE
8
LBomb21
62
5.000000
10
-20.864378
20
-1.246324
30
3.549789
11
-20.864378
21
-0.640276
31
4.599498
12
-23.689732
22
-1.852375
32
4.599498
13
-23.689732
23
-1.852375
33
4.599498
0
3DFACE
8
LBomb21
62
5.000000
10
-15.213672
20
-1.246324
30
3.549789
11
-15.213672
21
-0.640274
31
4.599498
12
-20.864378
22
-0.640276
32
4.599498
13
-20.864378
23
-1.246324
33
3.549789
0
3DFACE
8
LBomb21
62
5.000000
10
-12.388321
20
-1.852375
30
4.599498
11
-12.388321
21
-1.852375
31
4.599498
12
-15.213672
22
-0.640274
32
4.599498
13
-15.213672
23
-1.246324
33
3.549789
0
3DFACE
8
LBomb21
62
5.000000
10
-20.864378
20
-2.458424
30
3.549789
11
-20.864378
21
-1.246324
31
3.549789
12
-23.689732
22
-1.852375
32
4.599498
13
-23.689732
23
-1.852375
33
4.599498
0
3DFACE
8
LBomb21
62
5.000000
10
-15.213672
20
-2.458424
30
3.549789
11
-15.213672
21
-1.246324
31
3.549789
12
-20.864378
22
-1.246324
32
3.549789
13
-20.864378
23
-2.458424
33
3.549789
0
3DFACE
8
LBomb21
62
5.000000
10
-12.388321
20
-1.852375
30
4.599498
11
-12.388321
21
-1.852375
31
4.599498
12
-15.213672
22
-1.246324
32
3.549789
13
-15.213672
23
-2.458424
33
3.549789
0
3DFACE
8
LBomb21
62
5.000000
10
-20.864378
20
-3.064475
30
4.599498
11
-20.864378
21
-2.458424
31
3.549789
12
-23.689732
22
-1.852375
32
4.599498
13
-23.689732
23
-1.852375
33
4.599498
0
3DFACE
8
LBomb21
62
5.000000
10
-15.213672
20
-3.064473
30
4.599498
11
-15.213672
21
-2.458424
31
3.549789
12
-20.864378
22
-2.458424
32
3.549789
13
-20.864378
23
-3.064475
33
4.599498
0
3DFACE
8
LBomb21
62
5.000000
10
-12.388321
20
-1.852375
30
4.599498
11
-12.388321
21
-1.852375
31
4.599498
12
-15.213672
22
-2.458424
32
3.549789
13
-15.213672
23
-3.064473
33
4.599498
0
3DFACE
8
LBomb21
62
5.000000
10
-20.864378
20
-2.458424
30
5.649208
11
-20.864378
21
-3.064475
31
4.599498
12
-23.689732
22
-1.852375
32
4.599498
13
-23.689732
23
-1.852375
33
4.599498
0
3DFACE
8
LBomb21
62
5.000000
10
-15.213672
20
-2.458422
30
5.649207
11
-15.213672
21
-3.064473
31
4.599498
12
-20.864378
22
-3.064475
32
4.599498
13
-20.864378
23
-2.458424
33
5.649208
0
3DFACE
8
LBomb21
62
5.000000
10
-12.388321
20
-1.852375
30
4.599498
11
-12.388321
21
-1.852375
31
4.599498
12
-15.213672
22
-3.064473
32
4.599498
13
-15.213672
23
-2.458422
33
5.649207
0
3DFACE
8
LBomb21
62
5.000000
10
-20.864378
20
-1.246324
30
5.649208
11
-20.864378
21
-2.458424
31
5.649208
12
-23.689732
22
-1.852375
32
4.599498
13
-23.689732
23
-1.852375
33
4.599498
0
3DFACE
8
LBomb21
62
5.000000
10
-15.213672
20
-1.246324
30
5.649207
11
-15.213672
21
-2.458422
31
5.649207
12
-20.864378
22
-2.458424
32
5.649208
13
-20.864378
23
-1.246324
33
5.649208
0
3DFACE
8
LBomb21
62
5.000000
10
-12.388321
20
-1.852375
30
4.599498
11
-12.388321
21
-1.852375
31
4.599498
12
-15.213672
22
-2.458422
32
5.649207
13
-15.213672
23
-1.246324
33
5.649207
0
3DFACE
8
LBomb21
62
5.000000
10
-20.864378
20
-0.640276
30
4.599498
11
-20.864378
21
-1.246324
31
5.649208
12
-23.689732
22
-1.852375
32
4.599498
13
-23.689732
23
-1.852375
33
4.599498
0
3DFACE
8
LBomb21
62
5.000000
10
-15.213672
20
-0.640274
30
4.599498
11
-15.213672
21
-1.246324
31
5.649207
12
-20.864378
22
-1.246324
32
5.649208
13
-20.864378
23
-0.640276
33
4.599498
0
3DFACE
8
LBomb21
62
5.000000
10
-12.388321
20
-1.852375
30
4.599498
11
-12.388321
21
-1.852375
31
4.599498
12
-15.213672
22
-1.246324
32
5.649207
13
-15.213672
23
-0.640274
33
4.599498
0
3DFACE
8
LBomb16
62
6.000000
10
-23.214378
20
3.043675
30
5.749789
11
-23.214378
21
3.649724
31
6.799498
12
-26.039732
22
2.437625
32
6.799498
13
-26.039732
23
2.437625
33
6.799498
0
3DFACE
8
LBomb16
62
6.000000
10
-17.563673
20
3.043675
30
5.749789
11
-17.563673
21
3.649725
31
6.799498
12
-23.214378
22
3.649724
32
6.799498
13
-23.214378
23
3.043675
33
5.749789
0
3DFACE
8
LBomb16
62
6.000000
10
-14.738321
20
2.437625
30
6.799498
11
-14.738321
21
2.437625
31
6.799498
12
-17.563673
22
3.649725
32
6.799498
13
-17.563673
23
3.043675
33
5.749789
0
3DFACE
8
LBomb16
62
6.000000
10
-23.214378
20
1.831575
30
5.749789
11
-23.214378
21
3.043675
31
5.749789
12
-26.039732
22
2.437625
32
6.799498
13
-26.039732
23
2.437625
33
6.799498
0
3DFACE
8
LBomb16
62
6.000000
10
-17.563673
20
1.831575
30
5.749789
11
-17.563673
21
3.043675
31
5.749789
12
-23.214378
22
3.043675
32
5.749789
13
-23.214378
23
1.831575
33
5.749789
0
3DFACE
8
LBomb16
62
6.000000
10
-14.738321
20
2.437625
30
6.799498
11
-14.738321
21
2.437625
31
6.799498
12
-17.563673
22
3.043675
32
5.749789
13
-17.563673
23
1.831575
33
5.749789
0
3DFACE
8
LBomb16
62
6.000000
10
-23.214378
20
1.225525
30
6.799498
11
-23.214378
21
1.831575
31
5.749789
12
-26.039732
22
2.437625
32
6.799498
13
-26.039732
23
2.437625
33
6.799498
0
3DFACE
8
LBomb16
62
6.000000
10
-17.563673
20
1.225527
30
6.799498
11
-17.563673
21
1.831575
31
5.749789
12
-23.214378
22
1.831575
32
5.749789
13
-23.214378
23
1.225525
33
6.799498
0
3DFACE
8
LBomb16
62
6.000000
10
-14.738321
20
2.437625
30
6.799498
11
-14.738321
21
2.437625
31
6.799498
12
-17.563673
22
1.831575
32
5.749789
13
-17.563673
23
1.225527
33
6.799498
0
3DFACE
8
LBomb16
62
6.000000
10
-23.214378
20
1.831575
30
7.849207
11
-23.214378
21
1.225525
31
6.799498
12
-26.039732
22
2.437625
32
6.799498
13
-26.039732
23
2.437625
33
6.799498
0
3DFACE
8
LBomb16
62
6.000000
10
-17.563673
20
1.831577
30
7.849206
11
-17.563673
21
1.225527
31
6.799498
12
-23.214378
22
1.225525
32
6.799498
13
-23.214378
23
1.831575
33
7.849207
0
3DFACE
8
LBomb16
62
6.000000
10
-14.738321
20
2.437625
30
6.799498
11
-14.738321
21
2.437625
31
6.799498
12
-17.563673
22
1.225527
32
6.799498
13
-17.563673
23
1.831577
33
7.849206
0
3DFACE
8
LBomb16
62
6.000000
10
-23.214378
20
3.043675
30
7.849207
11
-23.214378
21
1.831575
31
7.849207
12
-26.039732
22
2.437625
32
6.799498
13
-26.039732
23
2.437625
33
6.799498
0
3DFACE
8
LBomb16
62
6.000000
10
-17.563673
20
3.043675
30
7.849206
11
-17.563673
21
1.831577
31
7.849206
12
-23.214378
22
1.831575
32
7.849207
13
-23.214378
23
3.043675
33
7.849207
0
3DFACE
8
LBomb16
62
6.000000
10
-14.738321
20
2.437625
30
6.799498
11
-14.738321
21
2.437625
31
6.799498
12
-17.563673
22
1.831577
32
7.849206
13
-17.563673
23
3.043675
33
7.849206
0
3DFACE
8
LBomb16
62
6.000000
10
-23.214378
20
3.649724
30
6.799498
11
-23.214378
21
3.043675
31
7.849207
12
-26.039732
22
2.437625
32
6.799498
13
-26.039732
23
2.437625
33
6.799498
0
3DFACE
8
LBomb16
62
6.000000
10
-17.563673
20
3.649725
30
6.799498
11
-17.563673
21
3.043675
31
7.849206
12
-23.214378
22
3.043675
32
7.849207
13
-23.214378
23
3.649724
33
6.799498
0
3DFACE
8
LBomb16
62
6.000000
10
-14.738321
20
2.437625
30
6.799498
11
-14.738321
21
2.437625
31
6.799498
12
-17.563673
22
3.043675
32
7.849206
13
-17.563673
23
3.649725
33
6.799498
0
3DFACE
8
LBomb18
62
7.000000
10
-22.844378
20
-2.396324
30
5.749789
11
-22.844378
21
-1.790276
31
6.799498
12
-25.669731
22
-3.002375
32
6.799498
13
-25.669731
23
-3.002375
33
6.799498
0
3DFACE
8
LBomb18
62
7.000000
10
-17.193672
20
-2.396324
30
5.749789
11
-17.193672
21
-1.790274
31
6.799498
12
-22.844378
22
-1.790276
32
6.799498
13
-22.844378
23
-2.396324
33
5.749789
0
3DFACE
8
LBomb18
62
7.000000
10
-14.368320
20
-3.002375
30
6.799498
11
-14.368320
21
-3.002375
31
6.799498
12
-17.193672
22
-1.790274
32
6.799498
13
-17.193672
23
-2.396324
33
5.749789
0
3DFACE
8
LBomb18
62
7.000000
10
-22.844378
20
-3.608425
30
5.749789
11
-22.844378
21
-2.396324
31
5.749789
12
-25.669731
22
-3.002375
32
6.799498
13
-25.669731
23
-3.002375
33
6.799498
0
3DFACE
8
LBomb18
62
7.000000
10
-17.193672
20
-3.608425
30
5.749789
11
-17.193672
21
-2.396324
31
5.749789
12
-22.844378
22
-2.396324
32
5.749789
13
-22.844378
23
-3.608425
33
5.749789
0
3DFACE
8
LBomb18
62
7.000000
10
-14.368320
20
-3.002375
30
6.799498
11
-14.368320
21
-3.002375
31
6.799498
12
-17.193672
22
-2.396324
32
5.749789
13
-17.193672
23
-3.608425
33
5.749789
0
3DFACE
8
LBomb18
62
7.000000
10
-22.844378
20
-4.214475
30
6.799498
11
-22.844378
21
-3.608425
31
5.749789
12
-25.669731
22
-3.002375
32
6.799498
13
-25.669731
23
-3.002375
33
6.799498
0
3DFACE
8
LBomb18
62
7.000000
10
-17.193672
20
-4.214473
30
6.799498
11
-17.193672
21
-3.608425
31
5.749789
12
-22.844378
22
-3.608425
32
5.749789
13
-22.844378
23
-4.214475
33
6.799498
0
3DFACE
8
LBomb18
62
7.000000
10
-14.368320
20
-3.002375
30
6.799498
11
-14.368320
21
-3.002375
31
6.799498
12
-17.193672
22
-3.608425
32
5.749789
13
-17.193672
23
-4.214473
33
6.799498
0
3DFACE
8
LBomb18
62
7.000000
10
-22.844378
20
-3.608425
30
7.849207
11
-22.844378
21
-4.214475
31
6.799498
12
-25.669731
22
-3.002375
32
6.799498
13
-25.669731
23
-3.002375
33
6.799498
0
3DFACE
8
LBomb18
62
7.000000
10
-17.193672
20
-3.608423
30
7.849206
11
-17.193672
21
-4.214473
31
6.799498
12
-22.844378
22
-4.214475
32
6.799498
13
-22.844378
23
-3.608425
33
7.849207
0
3DFACE
8
LBomb18
62
7.000000
10
-14.368320
20
-3.002375
30
6.799498
11
-14.368320
21
-3.002375
31
6.799498
12
-17.193672
22
-4.214473
32
6.799498
13
-17.193672
23
-3.608423
33
7.849206
0
3DFACE
8
LBomb18
62
7.000000
10
-22.844378
20
-2.396324
30
7.849207
11
-22.844378
21
-3.608425
31
7.849207
12
-25.669731
22
-3.002375
32
6.799498
13
-25.669731
23
-3.002375
33
6.799498
0
3DFACE
8
LBomb18
62
7.000000
10
-17.193672
20
-2.396324
30
7.849206
11
-17.193672
21
-3.608423
31
7.849206
12
-22.844378
22
-3.608425
32
7.849207
13
-22.844378
23
-2.396324
33
7.849207
0
3DFACE
8
LBomb18
62
7.000000
10
-14.368320
20
-3.002375
30
6.799498
11
-14.368320
21
-3.002375
31
6.799498
12
-17.193672
22
-3.608423
32
7.849206
13
-17.193672
23
-2.396324
33
7.849206
0
3DFACE
8
LBomb18
62
7.000000
10
-22.844378
20
-1.790276
30
6.799498
11
-22.844378
21
-2.396324
31
7.849207
12
-25.669731
22
-3.002375
32
6.799498
13
-25.669731
23
-3.002375
33
6.799498
0
3DFACE
8
LBomb18
62
7.000000
10
-17.193672
20
-1.790274
30
6.799498
11
-17.193672
21
-2.396324
31
7.849206
12
-22.844378
22
-2.396324
32
7.849207
13
-22.844378
23
-1.790276
33
6.799498
0
3DFACE
8
LBomb18
62
7.000000
10
-14.368320
20
-3.002375
30
6.799498
11
-14.368320
21
-3.002375
31
6.799498
12
-17.193672
22
-2.396324
32
7.849206
13
-17.193672
23
-1.790274
33
6.799498
0
3DFACE
8
FuselageCabine
62
8.000000
10
-14.120001
20
0.454122
30
8.731467
11
-35.509998
21
0.435685
31
9.651764
12
-35.509998
22
-3.178884
32
11.064829
13
-14.120001
23
-3.816594
33
10.401044
0
3DFACE
8
FuselageCabine
62
8.000000
10
-14.120001
20
-3.816594
30
10.401044
11
-35.509998
21
-3.178884
31
11.064829
12
-35.509998
22
-4.735582
32
14.619903
13
-14.120001
23
-5.655878
33
14.601465
0
3DFACE
8
FuselageCabine
62
8.000000
10
-14.120001
20
-5.655878
30
14.601465
11
-35.509998
21
-4.735582
31
14.619903
12
-35.509998
22
-3.322517
32
18.234472
13
-14.120001
23
-3.986300
33
18.872181
0
3DFACE
8
FuselageCabine
62
8.000000
10
-14.120001
20
-3.986300
30
18.872181
11
-35.509998
21
-3.322517
31
18.234472
12
-35.509998
22
0.232558
32
19.791168
13
-14.120001
23
0.214121
33
20.711464
0
3DFACE
8
FuselageCabine
62
8.000000
10
-14.120001
20
0.214121
30
20.711464
11
-35.509998
21
0.232558
31
19.791168
12
-35.509998
22
3.847127
32
18.378103
13
-14.120001
23
4.484837
33
19.041887
0
3DFACE
8
FuselageCabine
62
8.000000
10
-14.120001
20
4.484837
30
19.041887
11
-35.509998
21
3.847127
31
18.378103
12
-35.509998
22
5.403825
32
14.823030
13
-14.120001
23
6.324120
33
14.841466
0
3DFACE
8
FuselageCabine
62
8.000000
10
-14.120001
20
6.324120
30
14.841466
11
-35.509998
21
5.403825
31
14.823030
12
-35.509998
22
3.990760
32
11.208459
13
-14.120001
23
4.654543
33
10.570750
0
3DFACE
8
FuselageCabine
62
8.000000
10
-14.120001
20
4.654543
30
10.570750
11
-35.509998
21
3.990760
31
11.208459
12
-35.509998
22
0.435685
32
9.651764
13
-14.120001
23
0.454122
33
8.731467
0
3DFACE
8
FuselageArriere
62
9.000000
10
-35.509998
20
0.605685
30
9.771768
11
-67.729996
21
0.523135
31
16.264954
12
-67.729996
22
-0.087835
32
16.503567
13
-35.509998
23
-2.895498
33
11.139161
0
3DFACE
8
FuselageArriere
62
9.000000
10
-35.509998
20
-2.895498
30
11.139161
11
-67.729996
21
-0.087835
31
16.503567
12
-67.729996
22
-0.351130
32
17.104313
13
-35.509998
23
-4.404315
33
14.581765
0
3DFACE
8
FuselageArriere
62
9.000000
10
-35.509998
20
-4.404315
30
14.581765
11
-67.729996
21
-0.351130
31
17.104313
12
-67.729996
22
-0.112514
32
17.715282
13
-35.509998
23
-3.036921
33
18.082947
0
3DFACE
8
FuselageArriere
62
9.000000
10
-35.509998
20
-3.036921
30
18.082947
11
-67.729996
21
-0.112514
31
17.715282
12
-67.729996
22
0.488233
32
17.978577
13
-35.509998
23
0.405682
33
19.591764
0
3DFACE
8
FuselageArriere
62
9.000000
10
-35.509998
20
0.405682
30
19.591764
11
-67.729996
21
0.488233
31
17.978577
12
-67.729996
22
1.099204
32
17.739964
13
-35.509998
23
3.906865
33
18.224373
0
3DFACE
8
FuselageArriere
62
9.000000
10
-35.509998
20
3.906865
30
18.224373
11
-67.729996
21
1.099204
31
17.739964
12
-67.729996
22
1.362498
32
17.139217
13
-35.509998
23
5.415683
33
14.781768
0
3DFACE
8
FuselageArriere
62
9.000000
10
-35.509998
20
5.415683
30
14.781768
11
-67.729996
21
1.362498
31
17.139217
12
-67.729996
22
1.123883
32
16.528248
13
-35.509998
23
4.048290
33
11.280586
0
3DFACE
8
FuselageArriere
62
9.000000
10
-35.509998
20
4.048290
30
11.280586
11
-67.729996
21
1.123883
31
16.528248
12
-67.729996
22
0.523135
32
16.264954
13
-35.509998
23
0.605685
33
9.771768
0
3DFACE
8
FuselageArriere
62
9.000000
10
-67.729996
20
1.123883
30
16.528248
11
-67.729996
21
1.362498
31
17.139217
12
-67.729996
22
1.099204
32
17.739964
13
-67.729996
23
1.099204
33
17.739964
0
3DFACE
8
FuselageArriere
62
9.000000
10
-67.729996
20
1.123883
30
16.528248
11
-67.729996
21
1.099204
31
17.739964
12
-67.729996
22
0.488233
32
17.978577
13
-67.729996
23
0.488233
33
17.978577
0
3DFACE
8
FuselageArriere
62
9.000000
10
-67.729996
20
1.123883
30
16.528248
11
-67.729996
21
0.488233
31
17.978577
12
-67.729996
22
-0.112514
32
17.715282
13
-67.729996
23
-0.112514
33
17.715282
0
3DFACE
8
FuselageArriere
62
9.000000
10
-67.729996
20
1.123883
30
16.528248
11
-67.729996
21
-0.112514
31
17.715282
12
-67.729996
22
-0.351130
32
17.104313
13
-67.729996
23
-0.351130
33
17.104313
0
3DFACE
8
FuselageArriere
62
9.000000
10
-67.729996
20
1.123883
30
16.528248
11
-67.729996
21
-0.351130
31
17.104313
12
-67.729996
22
-0.087835
32
16.503567
13
-67.729996
23
-0.087835
33
16.503567
0
3DFACE
8
FuselageArriere
62
9.000000
10
-67.729996
20
1.123883
30
16.528248
11
-67.729996
21
-0.087835
31
16.503567
12
-67.729996
22
0.523135
32
16.264954
13
-67.729996
23
0.523135
33
16.264954
0
3DFACE
8
HBomb1A2
62
10.000000
10
-32.663353
20
8.183536
30
4.409347
11
-35.713352
21
6.309701
31
2.535516
12
-36.883350
22
8.035041
32
4.260852
13
-36.883350
23
8.035041
33
4.260852
0
3DFACE
8
HBomb1A3
62
11.000000
10
-32.663353
20
10.829701
30
4.449348
11
-35.713352
21
12.703535
31
2.575518
12
-36.883350
22
10.978196
32
4.300854
13
-36.883350
23
10.978196
33
4.300854
0
3DFACE
8
HBomb2A1
62
12.000000
10
-32.663353
20
6.036619
30
7.167436
11
-35.713352
21
6.036619
31
9.817436
12
-36.883350
22
6.036619
32
7.377438
13
-36.883350
23
6.036619
33
7.377438
0
3DFACE
8
HBomb2A2
62
13.000000
10
-32.663353
20
4.603536
30
4.609347
11
-35.713352
21
2.729702
31
2.735516
12
-36.883350
22
4.455041
32
4.460853
13
-36.883350
23
4.455041
33
4.460853
0
3DFACE
8
HBomb2A3
62
14.000000
10
-32.663353
20
7.249702
30
4.649349
11
-35.713352
21
9.123535
31
2.775518
12
-36.883350
22
7.398196
32
4.500854
13
-36.883350
23
7.398196
33
4.500854
0
3DFACE
8
HBomb2A4
62
15.000000
10
-32.663353
20
8.098491
30
5.235108
11
-36.623344
21
8.202584
31
5.224182
12
-36.623344
22
6.449813
32
3.420823
13
-32.663353
23
6.436728
33
3.525386
0
3DFACE
8
HBomb2A4
62
15.000000
10
-32.663353
20
6.436728
30
3.525386
11
-36.623344
21
6.449813
31
3.420823
12
-36.623344
22
4.193080
32
4.530539
13
-32.663353
23
4.297174
33
4.577485
0
3DFACE
8
HBomb2A4
62
15.000000
10
-32.663353
20
4.297174
30
4.577485
11
-36.623344
21
4.193080
31
4.530539
12
-36.623344
22
4.551116
32
7.019735
13
-32.663353
23
4.636619
33
6.937434
0
3DFACE
8
HBomb2A4
62
15.000000
10
-32.663353
20
4.636619
30
6.937434
11
-36.623344
21
4.551116
31
7.019735
12
-36.623344
22
7.029122
32
7.448434
13
-32.663353
23
6.985958
33
7.343871
0
3DFACE
8
HBomb2A4
62
15.000000
10
-32.663353
20
6.985958
30
7.343871
11
-36.623344
21
7.029122
31
7.448434
12
-36.623344
22
8.202584
32
5.224182
13
-32.663353
23
8.098491
33
5.235108
0
3DFACE
8
HBomb3
62
16.000000
10
-35.543350
20
-5.289869
30
5.480304
11
-35.543350
21
-5.289869
31
5.480304
12
-33.182129
22
-3.812016
32
5.480304
13
-33.182129
23
-4.244869
33
6.525302
0
3DFACE
8
HBomb3
62
16.000000
10
-33.182129
20
-4.244869
30
6.525302
11
-33.182129
21
-3.812016
31
5.480304
12
-27.481655
22
-3.199870
32
5.480304
13
-27.481655
23
-3.812016
33
6.958156
0
3DFACE
8
HBomb3
62
16.000000
10
-27.481655
20
-3.812016
30
6.958156
11
-27.481655
21
-3.199870
31
5.480304
12
-21.781185
22
-3.812016
32
5.480304
13
-21.781185
23
-4.244869
33
6.525306
0
3DFACE
8
HBomb3
62
16.000000
10
-21.781185
20
-4.244869
30
6.525306
11
-21.781185
21
-3.812016
31
5.480304
12
-19.419962
22
-5.289868
32
5.480304
13
-19.419962
23
-5.289868
33
5.480304
0
3DFACE
8
HBomb3
62
16.000000
10
-35.543350
20
-5.289869
30
5.480304
11
-35.543350
21
-5.289869
31
5.480304
12
-33.182129
22
-4.244869
32
6.525302
13
-33.182129
23
-5.289869
33
6.958156
0
3DFACE
8
HBomb3
62
16.000000
10
-33.182129
20
-5.289869
30
6.958156
11
-33.182129
21
-4.244869
31
6.525302
12
-27.481655
22
-3.812016
32
6.958156
13
-27.481655
23
-5.289868
33
7.570304
0
3DFACE
8
HBomb3
62
16.000000
10
-27.481655
20
-5.289868
30
7.570304
11
-27.481655
21
-3.812016
31
6.958156
12
-21.781185
22
-4.244869
32
6.525306
13
-21.781185
23
-5.289869
33
6.958159
0
3DFACE
8
HBomb3
62
16.000000
10
-21.781185
20
-5.289869
30
6.958159
11
-21.781185
21
-4.244869
31
6.525306
12
-19.419962
22
-5.289868
32
5.480304
13
-19.419962
23
-5.289868
33
5.480304
0
3DFACE
8
HBomb3
62
16.000000
10
-35.543350
20
-5.289869
30
5.480304
11
-35.543350
21
-5.289869
31
5.480304
12
-33.182129
22
-5.289869
32
6.958156
13
-33.182129
23
-6.334869
33
6.525302
0
3DFACE
8
HBomb3
62
16.000000
10
-33.182129
20
-6.334869
30
6.525302
11
-33.182129
21
-5.289869
31
6.958156
12
-27.481655
22
-5.289868
32
7.570304
13
-27.481655
23
-6.767721
33
6.958156
0
3DFACE
8
HBomb3
62
16.000000
10
-27.481655
20
-6.767721
30
6.958156
11
-27.481655
21
-5.289868
31
7.570304
12
-21.781185
22
-5.289869
32
6.958159
13
-21.781185
23
-6.334870
33
6.525306
0
3DFACE
8
HBomb3
62
16.000000
10
-21.781185
20
-6.334870
30
6.525306
11
-21.781185
21
-5.289869
31
6.958159
12
-19.419962
22
-5.289868
32
5.480304
13
-19.419962
23
-5.289868
33
5.480304
0
3DFACE
8
HBomb3
62
16.000000
10
-35.543350
20
-5.289869
30
5.480304
11
-35.543350
21
-5.289869
31
5.480304
12
-33.182129
22
-6.334869
32
6.525302
13
-33.182129
23
-6.767723
33
5.480304
0
3DFACE
8
HBomb3
62
16.000000
10
-33.182129
20
-6.767723
30
5.480304
11
-33.182129
21
-6.334869
31
6.525302
12
-27.481655
22
-6.767721
32
6.958156
13
-27.481655
23
-7.379867
33
5.480304
0
3DFACE
8
HBomb3
62
16.000000
10
-27.481655
20
-7.379867
30
5.480304
11
-27.481655
21
-6.767721
31
6.958156
12
-21.781185
22
-6.334870
32
6.525306
13
-21.781185
23
-6.767723
33
5.480304
0
3DFACE
8
HBomb3
62
16.000000
10
-21.781185
20
-6.767723
30
5.480304
11
-21.781185
21
-6.334870
31
6.525306
12
-19.419962
22
-5.289868
32
5.480304
13
-19.419962
23
-5.289868
33
5.480304
0
3DFACE
8
HBomb3
62
16.000000
10
-35.543350
20
-5.289869
30
5.480304
11
-35.543350
21
-5.289869
31
5.480304
12
-33.182129
22
-6.767723
32
5.480304
13
-33.182129
23
-6.334869
33
4.435302
0
3DFACE
8
HBomb3
62
16.000000
10
-33.182129
20
-6.334869
30
4.435302
11
-33.182129
21
-6.767723
31
5.480304
12
-27.481655
22
-7.379867
32
5.480304
13
-27.481655
23
-6.767721
33
4.002452
0
3DFACE
8
HBomb3
62
16.000000
10
-27.481655
20
-6.767721
30
4.002452
11
-27.481655
21
-7.379867
31
5.480304
12
-21.781185
22
-6.767723
32
5.480304
13
-21.781185
23
-6.334869
33
4.435306
0
3DFACE
8
HBomb3
62
16.000000
10
-21.781185
20
-6.334869
30
4.435306
11
-21.781185
21
-6.767723
31
5.480304
12
-19.419962
22
-5.289868
32
5.480304
13
-19.419962
23
-5.289868
33
5.480304
0
3DFACE
8
HBomb3
62
16.000000
10
-35.543350
20
-5.289869
30
5.480304
11
-35.543350
21
-5.289869
31
5.480304
12
-33.182129
22
-6.334869
32
4.435302
13
-33.182129
23
-5.289869
33
4.002449
0
3DFACE
8
HBomb3
62
16.000000
10
-33.182129
20
-5.289869
30
4.002449
11
-33.182129
21
-6.334869
31
4.435302
12
-27.481655
22
-6.767721
32
4.002452
13
-27.481655
23
-5.289869
33
3.390304
0
3DFACE
8
HBomb3
62
16.000000
10
-27.481655
20
-5.289869
30
3.390304
11
-27.481655
21
-6.767721
31
4.002452
12
-21.781185
22
-6.334869
32
4.435306
13
-21.781185
23
-5.289869
33
4.002452
0
3DFACE
8
HBomb3
62
16.000000
10
-21.781185
20
-5.289869
30
4.002452
11
-21.781185
21
-6.334869
31
4.435306
12
-19.419962
22
-5.289868
32
5.480304
13
-19.419962
23
-5.289868
33
5.480304
0
3DFACE
8
HBomb3
62
16.000000
10
-35.543350
20
-5.289869
30
5.480304
11
-35.543350
21
-5.289869
31
5.480304
12
-33.182129
22
-5.289869
32
4.002449
13
-33.182129
23
-4.244869
33
4.435302
0
3DFACE
8
HBomb3
62
16.000000
10
-33.182129
20
-4.244869
30
4.435302
11
-33.182129
21
-5.289869
31
4.002449
12
-27.481655
22
-5.289869
32
3.390304
13
-27.481655
23
-3.812017
33
4.002452
0
3DFACE
8
HBomb3
62
16.000000
10
-27.481655
20
-3.812017
30
4.002452
11
-27.481655
21
-5.289869
31
3.390304
12
-21.781185
22
-5.289869
32
4.002452
13
-21.781185
23
-4.244869
33
4.435306
0
3DFACE
8
HBomb3
62
16.000000
10
-21.781185
20
-4.244869
30
4.435306
11
-21.781185
21
-5.289869
31
4.002452
12
-19.419962
22
-5.289868
32
5.480304
13
-19.419962
23
-5.289868
33
5.480304
0
3DFACE
8
HBomb3
62
16.000000
10
-35.543350
20
-5.289869
30
5.480304
11
-35.543350
21
-5.289869
31
5.480304
12
-33.182129
22
-4.244869
32
4.435302
13
-33.182129
23
-3.812016
33
5.480304
0
3DFACE
8
HBomb3
62
16.000000
10
-33.182129
20
-3.812016
30
5.480304
11
-33.182129
21
-4.244869
31
4.435302
12
-27.481655
22
-3.812017
32
4.002452
13
-27.481655
23
-3.199870
33
5.480304
0
3DFACE
8
HBomb3
62
16.000000
10
-27.481655
20
-3.199870
30
5.480304
11
-27.481655
21
-3.812017
31
4.002452
12
-21.781185
22
-4.244869
32
4.435306
13
-21.781185
23
-3.812016
33
5.480304
0
3DFACE
8
HBomb3
62
16.000000
10
-21.781185
20
-3.812016
30
5.480304
11
-21.781185
21
-4.244869
31
4.435306
12
-19.419962
22
-5.289868
32
5.480304
13
-19.419962
23
-5.289868
33
5.480304
0
3DFACE
8
HBomb3A1
62
17.000000
10
-32.663353
20
-5.453382
30
7.267435
11
-35.713352
21
-5.453382
31
9.917437
12
-36.883350
22
-5.453382
32
7.477438
13
-36.883350
23
-5.453382
33
7.477438
0
3DFACE
8
HBomb3A2
62
18.000000
10
-32.663353
20
-6.886465
30
4.709347
11
-35.713352
21
-8.760299
31
2.835516
12
-36.883350
22
-7.034959
32
4.560853
13
-36.883350
23
-7.034959
33
4.560853
0
3DFACE
8
HBomb3A3
62
19.000000
10
-32.663353
20
-4.240298
30
4.749349
11
-35.713352
21
-2.366465
31
2.875517
12
-36.883350
22
-4.091804
32
4.600854
13
-36.883350
23
-4.091804
33
4.600854
0
3DFACE
8
HBomb3A4
62
20.000000
10
-32.663353
20
-3.391509
30
5.335107
11
-36.623344
21
-3.287416
31
5.324182
12
-36.623344
22
-5.040188
32
3.520823
13
-32.663353
23
-5.053271
33
3.625386
0
3DFACE
8
HBomb3A4
62
20.000000
10
-32.663353
20
-5.053271
30
3.625386
11
-36.623344
21
-5.040188
31
3.520823
12
-36.623344
22
-7.296920
32
4.630538
13
-32.663353
23
-7.192826
33
4.677485
0
3DFACE
8
HBomb3A4
62
20.000000
10
-32.663353
20
-7.192826
30
4.677485
11
-36.623344
21
-7.296920
31
4.630538
12
-36.623344
22
-6.938885
32
7.119735
13
-32.663353
23
-6.853382
33
7.037434
0
3DFACE
8
HBomb3A4
62
20.000000
10
-32.663353
20
-6.853382
30
7.037434
11
-36.623344
21
-6.938885
31
7.119735
12
-36.623344
22
-4.460878
32
7.548434
13
-32.663353
23
-4.504042
33
7.443870
0
3DFACE
8
HBomb3A4
62
20.000000
10
-32.663353
20
-4.504042
30
7.443870
11
-36.623344
21
-4.460878
31
7.548434
12
-36.623344
22
-3.287416
32
5.324182
13
-32.663353
23
-3.391509
33
5.335107
0
3DFACE
8
HBomb4
62
21.000000
10
-35.543350
20
-9.279869
30
5.690304
11
-35.543350
21
-9.279869
31
5.690304
12
-33.182129
22
-7.802015
32
5.690304
13
-33.182129
23
-8.234868
33
6.735302
0
3DFACE
8
HBomb4
62
21.000000
10
-33.182129
20
-8.234868
30
6.735302
11
-33.182129
21
-7.802015
31
5.690304
12
-27.481655
22
-7.189869
32
5.690304
13
-27.481655
23
-7.802016
33
7.168156
0
3DFACE
8
HBomb4
62
21.000000
10
-27.481655
20
-7.802016
30
7.168156
11
-27.481655
21
-7.189869
31
5.690304
12
-21.781185
22
-7.802016
32
5.690304
13
-21.781185
23
-8.234869
33
6.735306
0
3DFACE
8
HBomb4
62
21.000000
10
-21.781185
20
-8.234869
30
6.735306
11
-21.781185
21
-7.802016
31
5.690304
12
-19.419962
22
-9.279868
32
5.690304
13
-19.419962
23
-9.279868
33
5.690304
0
3DFACE
8
HBomb4
62
21.000000
10
-35.543350
20
-9.279869
30
5.690304
11
-35.543350
21
-9.279869
31
5.690304
12
-33.182129
22
-8.234868
32
6.735302
13
-33.182129
23
-9.279869
33
7.168156
0
3DFACE
8
HBomb4
62
21.000000
10
-33.182129
20
-9.279869
30
7.168156
11
-33.182129
21
-8.234868
31
6.735302
12
-27.481655
22
-7.802016
32
7.168156
13
-27.481655
23
-9.279868
33
7.780304
0
3DFACE
8
HBomb4
62
21.000000
10
-27.481655
20
-9.279868
30
7.780304
11
-27.481655
21
-7.802016
31
7.168156
12
-21.781185
22
-8.234869
32
6.735306
13
-21.781185
23
-9.279870
33
7.168160
0
3DFACE
8
HBomb4
62
21.000000
10
-21.781185
20
-9.279870
30
7.168160
11
-21.781185
21
-8.234869
31
6.735306
12
-19.419962
22
-9.279868
32
5.690304
13
-19.419962
23
-9.279868
33
5.690304
0
3DFACE
8
HBomb4
62
21.000000
10
-35.543350
20
-9.279869
30
5.690304
11
-35.543350
21
-9.279869
31
5.690304
12
-33.182129
22
-9.279869
32
7.168156
13
-33.182129
23
-10.324869
33
6.735302
0
3DFACE
8
HBomb4
62
21.000000
10
-33.182129
20
-10.324869
30
6.735302
11
-33.182129
21
-9.279869
31
7.168156
12
-27.481655
22
-9.279868
32
7.780304
13
-27.481655
23
-10.757720
33
7.168156
0
3DFACE
8
HBomb4
62
21.000000
10
-27.481655
20
-10.757720
30
7.168156
11
-27.481655
21
-9.279868
31
7.780304
12
-21.781185
22
-9.279870
32
7.168160
13
-21.781185
23
-10.324870
33
6.735306
0
3DFACE
8
HBomb4
62
21.000000
10
-21.781185
20
-10.324870
30
6.735306
11
-21.781185
21
-9.279870
31
7.168160
12
-19.419962
22
-9.279868
32
5.690304
13
-19.419962
23
-9.279868
33
5.690304
0
3DFACE
8
HBomb4
62
21.000000
10
-35.543350
20
-9.279869
30
5.690304
11
-35.543350
21
-9.279869
31
5.690304
12
-33.182129
22
-10.324869
32
6.735302
13
-33.182129
23
-10.757722
33
5.690304
0
3DFACE
8
HBomb4
62
21.000000
10
-33.182129
20
-10.757722
30
5.690304
11
-33.182129
21
-10.324869
31
6.735302
12
-27.481655
22
-10.757720
32
7.168156
13
-27.481655
23
-11.369866
33
5.690304
0
3DFACE
8
HBomb4
62
21.000000
10
-27.481655
20
-11.369866
30
5.690304
11
-27.481655
21
-10.757720
31
7.168156
12
-21.781185
22
-10.324870
32
6.735306
13
-21.781185
23
-10.757722
33
5.690304
0
3DFACE
8
HBomb4
62
21.000000
10
-21.781185
20
-10.757722
30
5.690304
11
-21.781185
21
-10.324870
31
6.735306
12
-19.419962
22
-9.279868
32
5.690304
13
-19.419962
23
-9.279868
33
5.690304
0
3DFACE
8
HBomb4
62
21.000000
10
-35.543350
20
-9.279869
30
5.690304
11
-35.543350
21
-9.279869
31
5.690304
12
-33.182129
22
-10.757722
32
5.690304
13
-33.182129
23
-10.324869
33
4.645302
0
3DFACE
8
HBomb4
62
21.000000
10
-33.182129
20
-10.324869
30
4.645302
11
-33.182129
21
-10.757722
31
5.690304
12
-27.481655
22
-11.369866
32
5.690304
13
-27.481655
23
-10.757720
33
4.212452
0
3DFACE
8
HBomb4
62
21.000000
10
-27.481655
20
-10.757720
30
4.212452
11
-27.481655
21
-11.369866
31
5.690304
12
-21.781185
22
-10.757722
32
5.690304
13
-21.781185
23
-10.324869
33
4.645306
0
3DFACE
8
HBomb4
62
21.000000
10
-21.781185
20
-10.324869
30
4.645306
11
-21.781185
21
-10.757722
31
5.690304
12
-19.419962
22
-9.279868
32
5.690304
13
-19.419962
23
-9.279868
33
5.690304
0
3DFACE
8
HBomb4
62
21.000000
10
-35.543350
20
-9.279869
30
5.690304
11
-35.543350
21
-9.279869
31
5.690304
12
-33.182129
22
-10.324869
32
4.645302
13
-33.182129
23
-9.279869
33
4.212448
0
3DFACE
8
HBomb4
62
21.000000
10
-33.182129
20
-9.279869
30
4.212448
11
-33.182129
21
-10.324869
31
4.645302
12
-27.481655
22
-10.757720
32
4.212452
13
-27.481655
23
-9.279869
33
3.600304
0
3DFACE
8
HBomb4
62
21.000000
10
-27.481655
20
-9.279869
30
3.600304
11
-27.481655
21
-10.757720
31
4.212452
12
-21.781185
22
-10.324869
32
4.645306
13
-21.781185
23
-9.279869
33
4.212452
0
3DFACE
8
HBomb4
62
21.000000
10
-21.781185
20
-9.279869
30
4.212452
11
-21.781185
21
-10.324869
31
4.645306
12
-19.419962
22
-9.279868
32
5.690304
13
-19.419962
23
-9.279868
33
5.690304
0
3DFACE
8
HBomb4
62
21.000000
10
-35.543350
20
-9.279869
30
5.690304
11
-35.543350
21
-9.279869
31
5.690304
12
-33.182129
22
-9.279869
32
4.212448
13
-33.182129
23
-8.234868
33
4.645302
0
3DFACE
8
HBomb4
62
21.000000
10
-33.182129
20
-8.234868
30
4.645302
11
-33.182129
21
-9.279869
31
4.212448
12
-27.481655
22
-9.279869
32
3.600304
13
-27.481655
23
-7.802017
33
4.212452
0
3DFACE
8
HBomb4
62
21.000000
10
-27.481655
20
-7.802017
30
4.212452
11
-27.481655
21
-9.279869
31
3.600304
12
-21.781185
22
-9.279869
32
4.212452
13
-21.781185
23
-8.234868
33
4.645306
0
3DFACE
8
HBomb4
62
21.000000
10
-21.781185
20
-8.234868
30
4.645306
11
-21.781185
21
-9.279869
31
4.212452
12
-19.419962
22
-9.279868
32
5.690304
13
-19.419962
23
-9.279868
33
5.690304
0
3DFACE
8
HBomb4
62
21.000000
10
-35.543350
20
-9.279869
30
5.690304
11
-35.543350
21
-9.279869
31
5.690304
12
-33.182129
22
-8.234868
32
4.645302
13
-33.182129
23
-7.802015
33
5.690304
0
3DFACE
8
HBomb4
62
21.000000
10
-33.182129
20
-7.802015
30
5.690304
11
-33.182129
21
-8.234868
31
4.645302
12
-27.481655
22
-7.802017
32
4.212452
13
-27.481655
23
-7.189869
33
5.690304
0
3DFACE
8
HBomb4
62
21.000000
10
-27.481655
20
-7.189869
30
5.690304
11
-27.481655
21
-7.802017
31
4.212452
12
-21.781185
22
-8.234868
32
4.645306
13
-21.781185
23
-7.802016
33
5.690304
0
3DFACE
8
HBomb4
62
21.000000
10
-21.781185
20
-7.802016
30
5.690304
11
-21.781185
21
-8.234868
31
4.645306
12
-19.419962
22
-9.279868
32
5.690304
13
-19.419962
23
-9.279868
33
5.690304
0
3DFACE
8
HBomb4A1
62
22.000000
10
-32.663353
20
-9.443381
30
7.477436
11
-35.713352
21
-9.443381
31
10.127436
12
-36.883350
22
-9.443381
32
7.687438
13
-36.883350
23
-9.443381
33
7.687438
0
3DFACE
8
HBomb4A2
62
23.000000
10
-32.663353
20
-10.876464
30
4.919347
11
-35.713352
21
-12.750299
31
3.045516
12
-36.883350
22
-11.024959
32
4.770852
13
-36.883350
23
-11.024959
33
4.770852
0
3DFACE
8
HBomb4A3
62
24.000000
10
-32.663353
20
-8.230298
30
4.959349
11
-35.713352
21
-6.356465
31
3.085517
12
-36.883350
22
-8.081803
32
4.810853
13
-36.883350
23
-8.081803
33
4.810853
0
3DFACE
8
HBomb4A4
62
25.000000
10
-32.663353
20
-7.381509
30
5.545108
11
-36.623344
21
-7.277415
31
5.534182
12
-36.623344
22
-9.030188
32
3.730823
13
-32.663353
23
-9.043272
33
3.835386
0
3DFACE
8
HBomb4A4
62
25.000000
10
-32.663353
20
-9.043272
30
3.835386
11
-36.623344
21
-9.030188
31
3.730823
12
-36.623344
22
-11.286920
32
4.840538
13
-32.663353
23
-11.182826
33
4.887485
0
3DFACE
8
HBomb4A4
62
25.000000
10
-32.663353
20
-11.182826
30
4.887485
11
-36.623344
21
-11.286920
31
4.840538
12
-36.623344
22
-10.928885
32
7.329735
13
-32.663353
23
-10.843381
33
7.247434
0
3DFACE
8
HBomb4A4
62
25.000000
10
-32.663353
20
-10.843381
30
7.247434
11
-36.623344
21
-10.928885
31
7.329735
12
-36.623344
22
-8.450877
32
7.758434
13
-32.663353
23
-8.494041
33
7.653871
0
3DFACE
8
HBomb4A4
62
25.000000
10
-32.663353
20
-8.494041
30
7.653871
11
-36.623344
21
-8.450877
31
7.758434
12
-36.623344
22
-7.277415
32
5.534182
13
-32.663353
23
-7.381509
33
5.545108
0
3DFACE
8
HBomb5
62
26.000000
10
-41.933350
20
-1.469869
30
5.180305
11
-41.933350
21
-1.469869
31
5.180305
12
-39.572132
22
0.007984
32
5.180305
13
-39.572132
23
-0.424869
33
6.225303
0
3DFACE
8
HBomb5
62
26.000000
10
-39.572132
20
-0.424869
30
6.225303
11
-39.572132
21
0.007984
31
5.180305
12
-33.871658
22
0.620130
32
5.180305
13
-33.871658
23
0.007984
33
6.658156
0
3DFACE
8
HBomb5
62
26.000000
10
-33.871658
20
0.007984
30
6.658156
11
-33.871658
21
0.620130
31
5.180305
12
-28.171188
22
0.007984
32
5.180305
13
-28.171188
23
-0.424870
33
6.225307
0
3DFACE
8
HBomb5
62
26.000000
10
-28.171188
20
-0.424870
30
6.225307
11
-28.171188
21
0.007984
31
5.180305
12
-25.809963
22
-1.469868
32
5.180305
13
-25.809963
23
-1.469868
33
5.180305
0
3DFACE
8
HBomb5
62
26.000000
10
-41.933350
20
-1.469869
30
5.180305
11
-41.933350
21
-1.469869
31
5.180305
12
-39.572132
22
-0.424869
32
6.225303
13
-39.572132
23
-1.469869
33
6.658156
0
3DFACE
8
HBomb5
62
26.000000
10
-39.572132
20
-1.469869
30
6.658156
11
-39.572132
21
-0.424869
31
6.225303
12
-33.871658
22
0.007984
32
6.658156
13
-33.871658
23
-1.469868
33
7.270305
0
3DFACE
8
HBomb5
62
26.000000
10
-33.871658
20
-1.469868
30
7.270305
11
-33.871658
21
0.007984
31
6.658156
12
-28.171188
22
-0.424870
32
6.225307
13
-28.171188
23
-1.469870
33
6.658160
0
3DFACE
8
HBomb5
62
26.000000
10
-28.171188
20
-1.469870
30
6.658160
11
-28.171188
21
-0.424870
31
6.225307
12
-25.809963
22
-1.469868
32
5.180305
13
-25.809963
23
-1.469868
33
5.180305
0
3DFACE
8
HBomb5
62
26.000000
10
-41.933350
20
-1.469869
30
5.180305
11
-41.933350
21
-1.469869
31
5.180305
12
-39.572132
22
-1.469869
32
6.658156
13
-39.572132
23
-2.514869
33
6.225303
0
3DFACE
8
HBomb5
62
26.000000
10
-39.572132
20
-2.514869
30
6.225303
11
-39.572132
21
-1.469869
31
6.658156
12
-33.871658
22
-1.469868
32
7.270305
13
-33.871658
23
-2.947721
33
6.658156
0
3DFACE
8
HBomb5
62
26.000000
10
-33.871658
20
-2.947721
30
6.658156
11
-33.871658
21
-1.469868
31
7.270305
12
-28.171188
22
-1.469870
32
6.658160
13
-28.171188
23
-2.514870
33
6.225307
0
3DFACE
8
HBomb5
62
26.000000
10
-28.171188
20
-2.514870
30
6.225307
11
-28.171188
21
-1.469870
31
6.658160
12
-25.809963
22
-1.469868
32
5.180305
13
-25.809963
23
-1.469868
33
5.180305
0
3DFACE
8
HBomb5
62
26.000000
10
-41.933350
20
-1.469869
30
5.180305
11
-41.933350
21
-1.469869
31
5.180305
12
-39.572132
22
-2.514869
32
6.225303
13
-39.572132
23
-2.947723
33
5.180305
0
3DFACE
8
HBomb5
62
26.000000
10
-39.572132
20
-2.947723
30
5.180305
11
-39.572132
21
-2.514869
31
6.225303
12
-33.871658
22
-2.947721
32
6.658156
13
-33.871658
23
-3.559866
33
5.180305
0
3DFACE
8
HBomb5
62
26.000000
10
-33.871658
20
-3.559866
30
5.180305
11
-33.871658
21
-2.947721
31
6.658156
12
-28.171188
22
-2.514870
32
6.225307
13
-28.171188
23
-2.947723
33
5.180305
0
3DFACE
8
HBomb5
62
26.000000
10
-28.171188
20
-2.947723
30
5.180305
11
-28.171188
21
-2.514870
31
6.225307
12
-25.809963
22
-1.469868
32
5.180305
13
-25.809963
23
-1.469868
33
5.180305
0
3DFACE
8
HBomb5
62
26.000000
10
-41.933350
20
-1.469869
30
5.180305
11
-41.933350
21
-1.469869
31
5.180305
12
-39.572132
22
-2.947723
32
5.180305
13
-39.572132
23
-2.514869
33
4.135302
0
3DFACE
8
HBomb5
62
26.000000
10
-39.572132
20
-2.514869
30
4.135302
11
-39.572132
21
-2.947723
31
5.180305
12
-33.871658
22
-3.559866
32
5.180305
13
-33.871658
23
-2.947721
33
3.702453
0
3DFACE
8
HBomb5
62
26.000000
10
-33.871658
20
-2.947721
30
3.702453
11
-33.871658
21
-3.559866
31
5.180305
12
-28.171188
22
-2.947723
32
5.180305
13
-28.171188
23
-2.514869
33
4.135306
0
3DFACE
8
HBomb5
62
26.000000
10
-28.171188
20
-2.514869
30
4.135306
11
-28.171188
21
-2.947723
31
5.180305
12
-25.809963
22
-1.469868
32
5.180305
13
-25.809963
23
-1.469868
33
5.180305
0
3DFACE
8
HBomb5
62
26.000000
10
-41.933350
20
-1.469869
30
5.180305
11
-41.933350
21
-1.469869
31
5.180305
12
-39.572132
22
-2.514869
32
4.135302
13
-39.572132
23
-1.469869
33
3.702449
0
3DFACE
8
HBomb5
62
26.000000
10
-39.572132
20
-1.469869
30
3.702449
11
-39.572132
21
-2.514869
31
4.135302
12
-33.871658
22
-2.947721
32
3.702453
13
-33.871658
23
-1.469869
33
3.090304
0
3DFACE
8
HBomb5
62
26.000000
10
-33.871658
20
-1.469869
30
3.090304
11
-33.871658
21
-2.947721
31
3.702453
12
-28.171188
22
-2.514869
32
4.135306
13
-28.171188
23
-1.469869
33
3.702453
0
3DFACE
8
HBomb5
62
26.000000
10
-28.171188
20
-1.469869
30
3.702453
11
-28.171188
21
-2.514869
31
4.135306
12
-25.809963
22
-1.469868
32
5.180305
13
-25.809963
23
-1.469868
33
5.180305
0
3DFACE
8
HBomb5
62
26.000000
10
-41.933350
20
-1.469869
30
5.180305
11
-41.933350
21
-1.469869
31
5.180305
12
-39.572132
22
-1.469869
32
3.702449
13
-39.572132
23
-0.424869
33
4.135302
0
3DFACE
8
HBomb5
62
26.000000
10
-39.572132
20
-0.424869
30
4.135302
11
-39.572132
21
-1.469869
31
3.702449
12
-33.871658
22
-1.469869
32
3.090304
13
-33.871658
23
0.007984
33
3.702453
0
3DFACE
8
HBomb5
62
26.000000
10
-33.871658
20
0.007984
30
3.702453
11
-33.871658
21
-1.469869
31
3.090304
12
-28.171188
22
-1.469869
32
3.702453
13
-28.171188
23
-0.424869
33
4.135306
0
3DFACE
8
HBomb5
62
26.000000
10
-28.171188
20
-0.424869
30
4.135306
11
-28.171188
21
-1.469869
31
3.702453
12
-25.809963
22
-1.469868
32
5.180305
13
-25.809963
23
-1.469868
33
5.180305
0
3DFACE
8
HBomb5
62
26.000000
10
-41.933350
20
-1.469869
30
5.180305
11
-41.933350
21
-1.469869
31
5.180305
12
-39.572132
22
-0.424869
32
4.135302
13
-39.572132
23
0.007984
33
5.180305
0
3DFACE
8
HBomb5
62
26.000000
10
-39.572132
20
0.007984
30
5.180305
11
-39.572132
21
-0.424869
31
4.135302
12
-33.871658
22
0.007984
32
3.702453
13
-33.871658
23
0.620130
33
5.180305
0
3DFACE
8
HBomb5
62
26.000000
10
-33.871658
20
0.620130
30
5.180305
11
-33.871658
21
0.007984
31
3.702453
12
-28.171188
22
-0.424869
32
4.135306
13
-28.171188
23
0.007984
33
5.180305
0
3DFACE
8
HBomb5
62
26.000000
10
-28.171188
20
0.007984
30
5.180305
11
-28.171188
21
-0.424869
31
4.135306
12
-25.809963
22
-1.469868
32
5.180305
13
-25.809963
23
-1.469868
33
5.180305
0
3DFACE
8
HBomb5A1
62
27.000000
10
-39.053352
20
-1.633381
30
6.967436
11
-42.103352
21
-1.633381
31
9.617437
12
-43.273350
22
-1.633381
32
7.177438
13
-43.273350
23
-1.633381
33
7.177438
0
3DFACE
8
HBomb5A2
62
28.000000
10
-39.053352
20
-3.066464
30
4.409347
11
-42.103352
21
-4.940299
31
2.535516
12
-43.273350
22
-3.214959
32
4.260852
13
-43.273350
23
-3.214959
33
4.260852
0
3DFACE
8
HBomb5A3
62
29.000000
10
-39.053352
20
-0.420298
30
4.449348
11
-42.103352
21
1.453535
31
2.575518
12
-43.273350
22
-0.271804
32
4.300854
13
-43.273350
23
-0.271804
33
4.300854
0
3DFACE
8
HBomb5A4
62
30.000000
10
-39.053352
20
0.428491
30
5.035108
11
-43.013348
21
0.532584
31
5.024182
12
-43.013348
22
-1.220188
32
3.220823
13
-39.053352
23
-1.233272
33
3.325387
0
3DFACE
8
HBomb5A4
62
30.000000
10
-39.053352
20
-1.233272
30
3.325387
11
-43.013348
21
-1.220188
31
3.220823
12
-43.013348
22
-3.476920
32
4.330538
13
-39.053352
23
-3.372827
33
4.377485
0
3DFACE
8
HBomb5A4
62
30.000000
10
-39.053352
20
-3.372827
30
4.377485
11
-43.013348
21
-3.476920
31
4.330538
12
-43.013348
22
-3.118885
32
6.819736
13
-39.053352
23
-3.033381
33
6.737434
0
3DFACE
8
HBomb5A4
62
30.000000
10
-39.053352
20
-3.033381
30
6.737434
11
-43.013348
21
-3.118885
31
6.819736
12
-43.013348
22
-0.640878
32
7.248434
13
-39.053352
23
-0.684042
33
7.143871
0
3DFACE
8
HBomb5A4
62
30.000000
10
-39.053352
20
-0.684042
30
7.143871
11
-43.013348
21
-0.640878
31
7.248434
12
-43.013348
22
0.532584
32
5.024182
13
-39.053352
23
0.428491
33
5.035108
0
3DFACE
8
HBomb6
62
31.000000
10
-41.853348
20
2.520131
30
5.180305
11
-41.853348
21
2.520131
31
5.180305
12
-39.492126
22
3.997985
32
5.180305
13
-39.492126
23
3.565131
33
6.225303
0
3DFACE
8
HBomb6
62
31.000000
10
-39.492126
20
3.565131
30
6.225303
11
-39.492126
21
3.997985
31
5.180305
12
-33.791653
22
4.610130
32
5.180305
13
-33.791653
23
3.997984
33
6.658156
0
3DFACE
8
HBomb6
62
31.000000
10
-33.791653
20
3.997984
30
6.658156
11
-33.791653
21
4.610130
31
5.180305
12
-28.091185
22
3.997984
32
5.180305
13
-28.091185
23
3.565130
33
6.225307
0
3DFACE
8
HBomb6
62
31.000000
10
-28.091185
20
3.565130
30
6.225307
11
-28.091185
21
3.997984
31
5.180305
12
-25.729961
22
2.520132
32
5.180305
13
-25.729961
23
2.520132
33
5.180305
0
3DFACE
8
HBomb6
62
31.000000
10
-41.853348
20
2.520131
30
5.180305
11
-41.853348
21
2.520131
31
5.180305
12
-39.492126
22
3.565131
32
6.225303
13
-39.492126
23
2.520131
33
6.658156
0
3DFACE
8
HBomb6
62
31.000000
10
-39.492126
20
2.520131
30
6.658156
11
-39.492126
21
3.565131
31
6.225303
12
-33.791653
22
3.997984
32
6.658156
13
-33.791653
23
2.520132
33
7.270305
0
3DFACE
8
HBomb6
62
31.000000
10
-33.791653
20
2.520132
30
7.270305
11
-33.791653
21
3.997984
31
6.658156
12
-28.091185
22
3.565130
32
6.225307
13
-28.091185
23
2.520130
33
6.658160
0
3DFACE
8
HBomb6
62
31.000000
10
-28.091185
20
2.520130
30
6.658160
11
-28.091185
21
3.565130
31
6.225307
12
-25.729961
22
2.520132
32
5.180305
13
-25.729961
23
2.520132
33
5.180305
0
3DFACE
8
HBomb6
62
31.000000
10
-41.853348
20
2.520131
30
5.180305
11
-41.853348
21
2.520131
31
5.180305
12
-39.492126
22
2.520131
32
6.658156
13
-39.492126
23
1.475131
33
6.225303
0
3DFACE
8
HBomb6
62
31.000000
10
-39.492126
20
1.475131
30
6.225303
11
-39.492126
21
2.520131
31
6.658156
12
-33.791653
22
2.520132
32
7.270305
13
-33.791653
23
1.042279
33
6.658156
0
3DFACE
8
HBomb6
62
31.000000
10
-33.791653
20
1.042279
30
6.658156
11
-33.791653
21
2.520132
31
7.270305
12
-28.091185
22
2.520130
32
6.658160
13
-28.091185
23
1.475130
33
6.225307
0
3DFACE
8
HBomb6
62
31.000000
10
-28.091185
20
1.475130
30
6.225307
11
-28.091185
21
2.520130
31
6.658160
12
-25.729961
22
2.520132
32
5.180305
13
-25.729961
23
2.520132
33
5.180305
0
3DFACE
8
HBomb6
62
31.000000
10
-41.853348
20
2.520131
30
5.180305
11
-41.853348
21
2.520131
31
5.180305
12
-39.492126
22
1.475131
32
6.225303
13
-39.492126
23
1.042277
33
5.180305
0
3DFACE
8
HBomb6
62
31.000000
10
-39.492126
20
1.042277
30
5.180305
11
-39.492126
21
1.475131
31
6.225303
12
-33.791653
22
1.042279
32
6.658156
13
-33.791653
23
0.430134
33
5.180305
0
3DFACE
8
HBomb6
62
31.000000
10
-33.791653
20
0.430134
30
5.180305
11
-33.791653
21
1.042279
31
6.658156
12
-28.091185
22
1.475130
32
6.225307
13
-28.091185
23
1.042277
33
5.180305
0
3DFACE
8
HBomb6
62
31.000000
10
-28.091185
20
1.042277
30
5.180305
11
-28.091185
21
1.475130
31
6.225307
12
-25.729961
22
2.520132
32
5.180305
13
-25.729961
23
2.520132
33
5.180305
0
3DFACE
8
HBomb6
62
31.000000
10
-41.853348
20
2.520131
30
5.180305
11
-41.853348
21
2.520131
31
5.180305
12
-39.492126
22
1.042277
32
5.180305
13
-39.492126
23
1.475131
33
4.135302
0
3DFACE
8
HBomb6
62
31.000000
10
-39.492126
20
1.475131
30
4.135302
11
-39.492126
21
1.042277
31
5.180305
12
-33.791653
22
0.430134
32
5.180305
13
-33.791653
23
1.042279
33
3.702453
0
3DFACE
8
HBomb6
62
31.000000
10
-33.791653
20
1.042279
30
3.702453
11
-33.791653
21
0.430134
31
5.180305
12
-28.091185
22
1.042277
32
5.180305
13
-28.091185
23
1.475131
33
4.135306
0
3DFACE
8
HBomb6
62
31.000000
10
-28.091185
20
1.475131
30
4.135306
11
-28.091185
21
1.042277
31
5.180305
12
-25.729961
22
2.520132
32
5.180305
13
-25.729961
23
2.520132
33
5.180305
0
3DFACE
8
HBomb6
62
31.000000
10
-41.853348
20
2.520131
30
5.180305
11
-41.853348
21
2.520131
31
5.180305
12
-39.492126
22
1.475131
32
4.135302
13
-39.492126
23
2.520131
33
3.702449
0
3DFACE
8
HBomb6
62
31.000000
10
-39.492126
20
2.520131
30
3.702449
11
-39.492126
21
1.475131
31
4.135302
12
-33.791653
22
1.042279
32
3.702453
13
-33.791653
23
2.520131
33
3.090304
0
3DFACE
8
HBomb6
62
31.000000
10
-33.791653
20
2.520131
30
3.090304
11
-33.791653
21
1.042279
31
3.702453
12
-28.091185
22
1.475131
32
4.135306
13
-28.091185
23
2.520131
33
3.702453
0
3DFACE
8
HBomb6
62
31.000000
10
-28.091185
20
2.520131
30
3.702453
11
-28.091185
21
1.475131
31
4.135306
12
-25.729961
22
2.520132
32
5.180305
13
-25.729961
23
2.520132
33
5.180305
0
3DFACE
8
HBomb6
62
31.000000
10
-41.853348
20
2.520131
30
5.180305
11
-41.853348
21
2.520131
31
5.180305
12
-39.492126
22
2.520131
32
3.702449
13
-39.492126
23
3.565131
33
4.135302
0
3DFACE
8
HBomb6
62
31.000000
10
-39.492126
20
3.565131
30
4.135302
11
-39.492126
21
2.520131
31
3.702449
12
-33.791653
22
2.520131
32
3.090304
13
-33.791653
23
3.997984
33
3.702453
0
3DFACE
8
HBomb6
62
31.000000
10
-33.791653
20
3.997984
30
3.702453
11
-33.791653
21
2.520131
31
3.090304
12
-28.091185
22
2.520131
32
3.702453
13
-28.091185
23
3.565131
33
4.135306
0
3DFACE
8
HBomb6
62
31.000000
10
-28.091185
20
3.565131
30
4.135306
11
-28.091185
21
2.520131
31
3.702453
12
-25.729961
22
2.520132
32
5.180305
13
-25.729961
23
2.520132
33
5.180305
0
3DFACE
8
HBomb6
62
31.000000
10
-41.853348
20
2.520131
30
5.180305
11
-41.853348
21
2.520131
31
5.180305
12
-39.492126
22
3.565131
32
4.135302
13
-39.492126
23
3.997985
33
5.180305
0
3DFACE
8
HBomb6
62
31.000000
10
-39.492126
20
3.997985
30
5.180305
11
-39.492126
21
3.565131
31
4.135302
12
-33.791653
22
3.997984
32
3.702453
13
-33.791653
23
4.610130
33
5.180305
0
3DFACE
8
HBomb6
62
31.000000
10
-33.791653
20
4.610130
30
5.180305
11
-33.791653
21
3.997984
31
3.702453
12
-28.091185
22
3.565131
32
4.135306
13
-28.091185
23
3.997984
33
5.180305
0
3DFACE
8
HBomb6
62
31.000000
10
-28.091185
20
3.997984
30
5.180305
11
-28.091185
21
3.565131
31
4.135306
12
-25.729961
22
2.520132
32
5.180305
13
-25.729961
23
2.520132
33
5.180305
0
3DFACE
8
HBomb6A1
62
32.000000
10
-38.973351
20
2.356619
30
6.967436
11
-42.023350
21
2.356619
31
9.617437
12
-43.193348
22
2.356619
32
7.177438
13
-43.193348
23
2.356619
33
7.177438
0
3DFACE
8
HBomb6A2
62
33.000000
10
-38.973351
20
0.923536
30
4.409347
11
-42.023350
21
-0.950299
31
2.535516
12
-43.193348
22
0.775041
32
4.260852
13
-43.193348
23
0.775041
33
4.260852
0
3DFACE
8
HBomb6A3
62
34.000000
10
-38.973351
20
3.569702
30
4.449348
11
-42.023350
21
5.443535
31
2.575518
12
-43.193348
22
3.718196
32
4.300854
13
-43.193348
23
3.718196
33
4.300854
0
3DFACE
8
HBomb6A4
62
35.000000
10
-38.973351
20
4.418491
30
5.035108
11
-42.933346
21
4.522584
31
5.024182
12
-42.933346
22
2.769813
32
3.220823
13
-38.973351
23
2.756728
33
3.325387
0
3DFACE
8
HBomb6A4
62
35.000000
10
-38.973351
20
2.756728
30
3.325387
11
-42.933346
21
2.769813
31
3.220823
12
-42.933346
22
0.513080
32
4.330538
13
-38.973351
23
0.617174
33
4.377485
0
3DFACE
8
HBomb6A4
62
35.000000
10
-38.973351
20
0.617174
30
4.377485
11
-42.933346
21
0.513080
31
4.330538
12
-42.933346
22
0.871115
32
6.819736
13
-38.973351
23
0.956619
33
6.737434
0
3DFACE
8
HBomb6A4
62
35.000000
10
-38.973351
20
0.956619
30
6.737434
11
-42.933346
21
0.871115
31
6.819736
12
-42.933346
22
3.349122
32
7.248434
13
-38.973351
23
3.305958
33
7.143871
0
3DFACE
8
HBomb6A4
62
35.000000
10
-38.973351
20
3.305958
30
7.143871
11
-42.933346
21
3.349122
31
7.248434
12
-42.933346
22
4.522584
32
5.024182
13
-38.973351
23
4.418491
33
5.035108
0
3DFACE
8
AileDroite
62
36.000000
10
-37.292122
20
18.424669
30
8.603401
11
-37.292122
21
18.291565
31
7.987478
12
-14.612118
22
18.291565
32
7.987478
13
-14.612118
23
18.424669
33
8.603401
0
3DFACE
8
AileDroite
62
36.000000
10
-40.242123
20
1.360831
30
11.426290
11
-40.242123
21
1.227727
31
9.156366
12
-37.292122
22
18.291565
32
7.987478
13
-37.292122
23
18.424669
33
8.603401
0
3DFACE
8
AileDroite
62
36.000000
10
-11.442118
20
1.360831
30
11.426290
11
-11.442118
21
1.227727
31
9.156366
12
-40.242123
22
1.227727
32
9.156366
13
-40.242123
23
1.360831
33
11.426290
0
3DFACE
8
AileDroite
62
36.000000
10
-14.612118
20
18.424669
30
8.603401
11
-14.612118
21
18.291565
31
7.987478
12
-11.442118
22
1.227727
32
9.156366
13
-11.442118
23
1.360831
33
11.426290
0
3DFACE
8
AileDroite
62
36.000000
10
-11.442118
20
1.360831
30
11.426290
11
-40.242123
21
1.360831
31
11.426290
12
-37.292122
22
18.424669
32
8.603401
13
-14.612118
23
18.424669
33
8.603401
0
3DFACE
8
AileDroite
62
36.000000
10
-14.612118
20
18.291565
30
7.987478
11
-37.292122
21
18.291565
31
7.987478
12
-40.242123
22
1.227727
32
9.156366
13
-11.442118
23
1.227727
33
9.156366
0
3DFACE
8
PiedArriere
62
37.000000
10
-52.589085
20
-0.011361
30
13.669417
11
-54.644440
21
-0.011361
31
13.480258
12
-54.694000
22
-0.944617
32
13.607594
13
-52.602474
23
-0.944617
33
13.805395
0
3DFACE
8
PiedArriere
62
37.000000
10
-52.602474
20
-0.944617
30
13.805395
11
-54.694000
21
-0.944617
31
13.607594
12
-54.962349
22
-0.359657
32
14.297113
13
-52.674999
23
-0.359657
33
14.541735
0
3DFACE
8
PiedArriere
62
37.000000
10
-52.674999
20
-0.359657
30
14.541735
11
-54.962349
21
-0.359657
31
14.297113
12
-54.644440
22
-0.011361
32
13.480258
13
-52.589085
23
-0.011361
33
13.669417
0
3DFACE
8
PiedArriere
62
37.000000
10
-54.644440
20
-0.011361
30
13.480258
11
-56.615688
21
-0.011361
31
10.705024
12
-56.697590
22
-0.944617
32
10.814395
13
-54.694000
23
-0.944617
33
13.607594
0
3DFACE
8
PiedArriere
62
37.000000
10
-54.694000
20
-0.944617
30
13.607594
11
-56.697590
21
-0.944617
31
10.814395
12
-57.141083
22
-0.359657
32
11.406651
13
-54.962349
23
-0.359657
33
14.297113
0
3DFACE
8
PiedArriere
62
37.000000
10
-54.962349
20
-0.359657
30
14.297113
11
-57.141083
21
-0.359657
31
11.406651
12
-56.615688
22
-0.011361
32
10.705024
13
-54.644440
23
-0.011361
33
13.480258
0
3DFACE
8
AileGauche
62
38.000000
10
-14.612118
20
-19.199215
30
8.603401
11
-14.612118
21
-19.066111
31
8.125478
12
-37.292122
22
-19.066111
32
8.125478
13
-37.292122
23
-19.199215
33
8.603401
0
3DFACE
8
AileGauche
62
38.000000
10
-37.292122
20
-19.199215
30
8.603401
11
-37.292122
21
-19.066111
31
8.125478
12
-40.242123
22
-2.002273
32
9.156366
13
-40.242123
23
-2.135376
33
11.426290
0
3DFACE
8
AileGauche
62
38.000000
10
-40.242123
20
-2.135376
30
11.426290
11
-40.242123
21
-2.002273
31
9.156366
12
-11.442118
22
-2.002273
32
9.156366
13
-11.442118
23
-2.135376
33
11.426290
0
3DFACE
8
AileGauche
62
38.000000
10
-11.442118
20
-2.135376
30
11.426290
11
-11.442118
21
-2.002273
31
9.156366
12
-14.612118
22
-19.066111
32
8.125478
13
-14.612118
23
-19.199215
33
8.603401
0
3DFACE
8
AileGauche
62
38.000000
10
-14.612118
20
-19.199215
30
8.603401
11
-37.292122
21
-19.199215
31
8.603401
12
-40.242123
22
-2.135376
32
11.426290
13
-11.442118
23
-2.135376
33
11.426290
0
3DFACE
8
AileGauche
62
38.000000
10
-11.442118
20
-2.002273
30
9.156366
11
-40.242123
21
-2.002273
31
9.156366
12
-37.292122
22
-19.066111
32
8.125478
13
-14.612118
23
-19.066111
33
8.125478
0
3DFACE
8
HBomb1
62
39.000000
10
-35.543350
20
9.780130
30
5.180305
11
-35.543350
21
9.780130
31
5.180305
12
-33.182129
22
11.257984
32
5.180305
13
-33.182129
23
10.825130
33
6.225303
0
3DFACE
8
HBomb1
62
39.000000
10
-33.182129
20
10.825130
30
6.225303
11
-33.182129
21
11.257984
31
5.180305
12
-27.481655
22
11.870131
32
5.180305
13
-27.481655
23
11.257983
33
6.658156
0
3DFACE
8
HBomb1
62
39.000000
10
-27.481655
20
11.257983
30
6.658156
11
-27.481655
21
11.870131
31
5.180305
12
-21.781185
22
11.257983
32
5.180305
13
-21.781185
23
10.825130
33
6.225307
0
3DFACE
8
HBomb1
62
39.000000
10
-21.781185
20
10.825130
30
6.225307
11
-21.781185
21
11.257983
31
5.180305
12
-19.419962
22
9.780131
32
5.180305
13
-19.419962
23
9.780131
33
5.180305
0
3DFACE
8
HBomb1
62
39.000000
10
-35.543350
20
9.780130
30
5.180305
11
-35.543350
21
9.780130
31
5.180305
12
-33.182129
22
10.825130
32
6.225303
13
-33.182129
23
9.780130
33
6.658156
0
3DFACE
8
HBomb1
62
39.000000
10
-33.182129
20
9.780130
30
6.658156
11
-33.182129
21
10.825130
31
6.225303
12
-27.481655
22
11.257983
32
6.658156
13
-27.481655
23
9.780131
33
7.270305
0
3DFACE
8
HBomb1
62
39.000000
10
-27.481655
20
9.780131
30
7.270305
11
-27.481655
21
11.257983
31
6.658156
12
-21.781185
22
10.825130
32
6.225307
13
-21.781185
23
9.780129
33
6.658160
0
3DFACE
8
HBomb1
62
39.000000
10
-21.781185
20
9.780129
30
6.658160
11
-21.781185
21
10.825130
31
6.225307
12
-19.419962
22
9.780131
32
5.180305
13
-19.419962
23
9.780131
33
5.180305
0
3DFACE
8
HBomb1
62
39.000000
10
-35.543350
20
9.780130
30
5.180305
11
-35.543350
21
9.780130
31
5.180305
12
-33.182129
22
9.780130
32
6.658156
13
-33.182129
23
8.735130
33
6.225303
0
3DFACE
8
HBomb1
62
39.000000
10
-33.182129
20
8.735130
30
6.225303
11
-33.182129
21
9.780130
31
6.658156
12
-27.481655
22
9.780131
32
7.270305
13
-27.481655
23
8.302279
33
6.658156
0
3DFACE
8
HBomb1
62
39.000000
10
-27.481655
20
8.302279
30
6.658156
11
-27.481655
21
9.780131
31
7.270305
12
-21.781185
22
9.780129
32
6.658160
13
-21.781185
23
8.735129
33
6.225307
0
3DFACE
8
HBomb1
62
39.000000
10
-21.781185
20
8.735129
30
6.225307
11
-21.781185
21
9.780129
31
6.658160
12
-19.419962
22
9.780131
32
5.180305
13
-19.419962
23
9.780131
33
5.180305
0
3DFACE
8
HBomb1
62
39.000000
10
-35.543350
20
9.780130
30
5.180305
11
-35.543350
21
9.780130
31
5.180305
12
-33.182129
22
8.735130
32
6.225303
13
-33.182129
23
8.302278
33
5.180305
0
3DFACE
8
HBomb1
62
39.000000
10
-33.182129
20
8.302278
30
5.180305
11
-33.182129
21
8.735130
31
6.225303
12
-27.481655
22
8.302279
32
6.658156
13
-27.481655
23
7.690133
33
5.180305
0
3DFACE
8
HBomb1
62
39.000000
10
-27.481655
20
7.690133
30
5.180305
11
-27.481655
21
8.302279
31
6.658156
12
-21.781185
22
8.735129
32
6.225307
13
-21.781185
23
8.302278
33
5.180305
0
3DFACE
8
HBomb1
62
39.000000
10
-21.781185
20
8.302278
30
5.180305
11
-21.781185
21
8.735129
31
6.225307
12
-19.419962
22
9.780131
32
5.180305
13
-19.419962
23
9.780131
33
5.180305
0
3DFACE
8
HBomb1
62
39.000000
10
-35.543350
20
9.780130
30
5.180305
11
-35.543350
21
9.780130
31
5.180305
12
-33.182129
22
8.302278
32
5.180305
13
-33.182129
23
8.735130
33
4.135302
0
3DFACE
8
HBomb1
62
39.000000
10
-33.182129
20
8.735130
30
4.135302
11
-33.182129
21
8.302278
31
5.180305
12
-27.481655
22
7.690133
32
5.180305
13
-27.481655
23
8.302279
33
3.702453
0
3DFACE
8
HBomb1
62
39.000000
10
-27.481655
20
8.302279
30
3.702453
11
-27.481655
21
7.690133
31
5.180305
12
-21.781185
22
8.302278
32
5.180305
13
-21.781185
23
8.735130
33
4.135306
0
3DFACE
8
HBomb1
62
39.000000
10
-21.781185
20
8.735130
30
4.135306
11
-21.781185
21
8.302278
31
5.180305
12
-19.419962
22
9.780131
32
5.180305
13
-19.419962
23
9.780131
33
5.180305
0
3DFACE
8
HBomb1
62
39.000000
10
-35.543350
20
9.780130
30
5.180305
11
-35.543350
21
9.780130
31
5.180305
12
-33.182129
22
8.735130
32
4.135302
13
-33.182129
23
9.780130
33
3.702449
0
3DFACE
8
HBomb1
62
39.000000
10
-33.182129
20
9.780130
30
3.702449
11
-33.182129
21
8.735130
31
4.135302
12
-27.481655
22
8.302279
32
3.702453
13
-27.481655
23
9.780130
33
3.090304
0
3DFACE
8
HBomb1
62
39.000000
10
-27.481655
20
9.780130
30
3.090304
11
-27.481655
21
8.302279
31
3.702453
12
-21.781185
22
8.735130
32
4.135306
13
-21.781185
23
9.780130
33
3.702453
0
3DFACE
8
HBomb1
62
39.000000
10
-21.781185
20
9.780130
30
3.702453
11
-21.781185
21
8.735130
31
4.135306
12
-19.419962
22
9.780131
32
5.180305
13
-19.419962
23
9.780131
33
5.180305
0
3DFACE
8
HBomb1
62
39.000000
10
-35.543350
20
9.780130
30
5.180305
11
-35.543350
21
9.780130
31
5.180305
12
-33.182129
22
9.780130
32
3.702449
13
-33.182129
23
10.825130
33
4.135302
0
3DFACE
8
HBomb1
62
39.000000
10
-33.182129
20
10.825130
30
4.135302
11
-33.182129
21
9.780130
31
3.702449
12
-27.481655
22
9.780130
32
3.090304
13
-27.481655
23
11.257983
33
3.702453
0
3DFACE
8
HBomb1
62
39.000000
10
-27.481655
20
11.257983
30
3.702453
11
-27.481655
21
9.780130
31
3.090304
12
-21.781185
22
9.780130
32
3.702453
13
-21.781185
23
10.825130
33
4.135306
0
3DFACE
8
HBomb1
62
39.000000
10
-21.781185
20
10.825130
30
4.135306
11
-21.781185
21
9.780130
31
3.702453
12
-19.419962
22
9.780131
32
5.180305
13
-19.419962
23
9.780131
33
5.180305
0
3DFACE
8
HBomb1
62
39.000000
10
-35.543350
20
9.780130
30
5.180305
11
-35.543350
21
9.780130
31
5.180305
12
-33.182129
22
10.825130
32
4.135302
13
-33.182129
23
11.257984
33
5.180305
0
3DFACE
8
HBomb1
62
39.000000
10
-33.182129
20
11.257984
30
5.180305
11
-33.182129
21
10.825130
31
4.135302
12
-27.481655
22
11.257983
32
3.702453
13
-27.481655
23
11.870131
33
5.180305
0
3DFACE
8
HBomb1
62
39.000000
10
-27.481655
20
11.870131
30
5.180305
11
-27.481655
21
11.257983
31
3.702453
12
-21.781185
22
10.825130
32
4.135306
13
-21.781185
23
11.257983
33
5.180305
0
3DFACE
8
HBomb1
62
39.000000
10
-21.781185
20
11.257983
30
5.180305
11
-21.781185
21
10.825130
31
4.135306
12
-19.419962
22
9.780131
32
5.180305
13
-19.419962
23
9.780131
33
5.180305
0
3DFACE
8
HBomb1A4
62
40.000000
10
-32.663353
20
11.678491
30
5.035108
11
-36.623344
21
11.782584
31
5.024182
12
-36.623344
22
10.029812
32
3.220823
13
-32.663353
23
10.016727
33
3.325387
0
3DFACE
8
HBomb1A4
62
40.000000
10
-32.663353
20
10.016727
30
3.325387
11
-36.623344
21
10.029812
31
3.220823
12
-36.623344
22
7.773080
32
4.330538
13
-32.663353
23
7.877173
33
4.377485
0
3DFACE
8
HBomb1A4
62
40.000000
10
-32.663353
20
7.877173
30
4.377485
11
-36.623344
21
7.773080
31
4.330538
12
-36.623344
22
8.131115
32
6.819736
13
-32.663353
23
8.216619
33
6.737434
0
3DFACE
8
HBomb1A4
62
40.000000
10
-32.663353
20
8.216619
30
6.737434
11
-36.623344
21
8.131115
31
6.819736
12
-36.623344
22
10.609122
32
7.248434
13
-32.663353
23
10.565958
33
7.143871
0
3DFACE
8
HBomb1A4
62
40.000000
10
-32.663353
20
10.565958
30
7.143871
11
-36.623344
21
10.609122
31
7.248434
12
-36.623344
22
11.782584
32
5.024182
13
-32.663353
23
11.678491
33
5.035108
0
3DFACE
8
HBomb2
62
41.000000
10
-35.543350
20
6.200131
30
5.380304
11
-35.543350
21
6.200131
31
5.380304
12
-33.182129
22
7.677985
32
5.380304
13
-33.182129
23
7.245131
33
6.425303
0
3DFACE
8
HBomb2
62
41.000000
10
-33.182129
20
7.245131
30
6.425303
11
-33.182129
21
7.677985
31
5.380304
12
-27.481655
22
8.290131
32
5.380304
13
-27.481655
23
7.677984
33
6.858156
0
3DFACE
8
HBomb2
62
41.000000
10
-27.481655
20
7.677984
30
6.858156
11
-27.481655
21
8.290131
31
5.380304
12
-21.781185
22
7.677984
32
5.380304
13
-21.781185
23
7.245131
33
6.425306
0
3DFACE
8
HBomb2
62
41.000000
10
-21.781185
20
7.245131
30
6.425306
11
-21.781185
21
7.677984
31
5.380304
12
-19.419962
22
6.200132
32
5.380304
13
-19.419962
23
6.200132
33
5.380304
0
3DFACE
8
HBomb2
62
41.000000
10
-35.543350
20
6.200131
30
5.380304
11
-35.543350
21
6.200131
31
5.380304
12
-33.182129
22
7.245131
32
6.425303
13
-33.182129
23
6.200131
33
6.858156
0
3DFACE
8
HBomb2
62
41.000000
10
-33.182129
20
6.200131
30
6.858156
11
-33.182129
21
7.245131
31
6.425303
12
-27.481655
22
7.677984
32
6.858156
13
-27.481655
23
6.200132
33
7.470304
0
3DFACE
8
HBomb2
62
41.000000
10
-27.481655
20
6.200132
30
7.470304
11
-27.481655
21
7.677984
31
6.858156
12
-21.781185
22
7.245131
32
6.425306
13
-21.781185
23
6.200130
33
6.858160
0
3DFACE
8
HBomb2
62
41.000000
10
-21.781185
20
6.200130
30
6.858160
11
-21.781185
21
7.245131
31
6.425306
12
-19.419962
22
6.200132
32
5.380304
13
-19.419962
23
6.200132
33
5.380304
0
3DFACE
8
HBomb2
62
41.000000
10
-35.543350
20
6.200131
30
5.380304
11
-35.543350
21
6.200131
31
5.380304
12
-33.182129
22
6.200131
32
6.858156
13
-33.182129
23
5.155131
33
6.425303
0
3DFACE
8
HBomb2
62
41.000000
10
-33.182129
20
5.155131
30
6.425303
11
-33.182129
21
6.200131
31
6.858156
12
-27.481655
22
6.200132
32
7.470304
13
-27.481655
23
4.722280
33
6.858156
0
3DFACE
8
HBomb2
62
41.000000
10
-27.481655
20
4.722280
30
6.858156
11
-27.481655
21
6.200132
31
7.470304
12
-21.781185
22
6.200130
32
6.858160
13
-21.781185
23
5.155130
33
6.425306
0
3DFACE
8
HBomb2
62
41.000000
10
-21.781185
20
5.155130
30
6.425306
11
-21.781185
21
6.200130
31
6.858160
12
-19.419962
22
6.200132
32
5.380304
13
-19.419962
23
6.200132
33
5.380304
0
3DFACE
8
HBomb2
62
41.000000
10
-35.543350
20
6.200131
30
5.380304
11
-35.543350
21
6.200131
31
5.380304
12
-33.182129
22
5.155131
32
6.425303
13
-33.182129
23
4.722278
33
5.380304
0
3DFACE
8
HBomb2
62
41.000000
10
-33.182129
20
4.722278
30
5.380304
11
-33.182129
21
5.155131
31
6.425303
12
-27.481655
22
4.722280
32
6.858156
13
-27.481655
23
4.110134
33
5.380304
0
3DFACE
8
HBomb2
62
41.000000
10
-27.481655
20
4.110134
30
5.380304
11
-27.481655
21
4.722280
31
6.858156
12
-21.781185
22
5.155130
32
6.425306
13
-21.781185
23
4.722278
33
5.380304
0
3DFACE
8
HBomb2
62
41.000000
10
-21.781185
20
4.722278
30
5.380304
11
-21.781185
21
5.155130
31
6.425306
12
-19.419962
22
6.200132
32
5.380304
13
-19.419962
23
6.200132
33
5.380304
0
3DFACE
8
HBomb2
62
41.000000
10
-35.543350
20
6.200131
30
5.380304
11
-35.543350
21
6.200131
31
5.380304
12
-33.182129
22
4.722278
32
5.380304
13
-33.182129
23
5.155131
33
4.335302
0
3DFACE
8
HBomb2
62
41.000000
10
-33.182129
20
5.155131
30
4.335302
11
-33.182129
21
4.722278
31
5.380304
12
-27.481655
22
4.110134
32
5.380304
13
-27.481655
23
4.722280
33
3.902452
0
3DFACE
8
HBomb2
62
41.000000
10
-27.481655
20
4.722280
30
3.902452
11
-27.481655
21
4.110134
31
5.380304
12
-21.781185
22
4.722278
32
5.380304
13
-21.781185
23
5.155131
33
4.335306
0
3DFACE
8
HBomb2
62
41.000000
10
-21.781185
20
5.155131
30
4.335306
11
-21.781185
21
4.722278
31
5.380304
12
-19.419962
22
6.200132
32
5.380304
13
-19.419962
23
6.200132
33
5.380304
0
3DFACE
8
HBomb2
62
41.000000
10
-35.543350
20
6.200131
30
5.380304
11
-35.543350
21
6.200131
31
5.380304
12
-33.182129
22
5.155131
32
4.335302
13
-33.182129
23
6.200131
33
3.902449
0
3DFACE
8
HBomb2
62
41.000000
10
-33.182129
20
6.200131
30
3.902449
11
-33.182129
21
5.155131
31
4.335302
12
-27.481655
22
4.722280
32
3.902452
13
-27.481655
23
6.200131
33
3.290304
0
3DFACE
8
HBomb2
62
41.000000
10
-27.481655
20
6.200131
30
3.290304
11
-27.481655
21
4.722280
31
3.902452
12
-21.781185
22
5.155131
32
4.335306
13
-21.781185
23
6.200131
33
3.902452
0
3DFACE
8
HBomb2
62
41.000000
10
-21.781185
20
6.200131
30
3.902452
11
-21.781185
21
5.155131
31
4.335306
12
-19.419962
22
6.200132
32
5.380304
13
-19.419962
23
6.200132
33
5.380304
0
3DFACE
8
HBomb2
62
41.000000
10
-35.543350
20
6.200131
30
5.380304
11
-35.543350
21
6.200131
31
5.380304
12
-33.182129
22
6.200131
32
3.902449
13
-33.182129
23
7.245131
33
4.335302
0
3DFACE
8
HBomb2
62
41.000000
10
-33.182129
20
7.245131
30
4.335302
11
-33.182129
21
6.200131
31
3.902449
12
-27.481655
22
6.200131
32
3.290304
13
-27.481655
23
7.677983
33
3.902452
0
3DFACE
8
HBomb2
62
41.000000
10
-27.481655
20
7.677983
30
3.902452
11
-27.481655
21
6.200131
31
3.290304
12
-21.781185
22
6.200131
32
3.902452
13
-21.781185
23
7.245131
33
4.335306
0
3DFACE
8
HBomb2
62
41.000000
10
-21.781185
20
7.245131
30
4.335306
11
-21.781185
21
6.200131
31
3.902452
12
-19.419962
22
6.200132
32
5.380304
13
-19.419962
23
6.200132
33
5.380304
0
3DFACE
8
HBomb2
62
41.000000
10
-35.543350
20
6.200131
30
5.380304
11
-35.543350
21
6.200131
31
5.380304
12
-33.182129
22
7.245131
32
4.335302
13
-33.182129
23
7.677985
33
5.380304
0
3DFACE
8
HBomb2
62
41.000000
10
-33.182129
20
7.677985
30
5.380304
11
-33.182129
21
7.245131
31
4.335302
12
-27.481655
22
7.677983
32
3.902452
13
-27.481655
23
8.290131
33
5.380304
0
3DFACE
8
HBomb2
62
41.000000
10
-27.481655
20
8.290131
30
5.380304
11
-27.481655
21
7.677983
31
3.902452
12
-21.781185
22
7.245131
32
4.335306
13
-21.781185
23
7.677984
33
5.380304
0
3DFACE
8
HBomb2
62
41.000000
10
-21.781185
20
7.677984
30
5.380304
11
-21.781185
21
7.245131
31
4.335306
12
-19.419962
22
6.200132
32
5.380304
13
-19.419962
23
6.200132
33
5.380304
0
3DFACE
8
RoueDroite
62
42.000000
10
-31.934362
20
18.536285
30
-3.252573
11
-29.434664
21
18.536285
31
-5.367562
12
-28.969423
22
19.516283
32
-4.068469
13
-30.768118
23
19.516283
33
-2.546597
0
3DFACE
8
RoueDroite
62
42.000000
10
-29.434664
20
18.536285
30
-5.367562
11
-26.160295
21
18.536285
31
-5.380962
12
-26.613304
22
19.516283
32
-4.078111
13
-28.969423
23
19.516283
33
-4.068469
0
3DFACE
8
RoueDroite
62
42.000000
10
-26.160295
20
18.536285
30
-5.380962
11
-23.643373
21
18.536285
31
-3.286503
12
-24.802216
22
19.516283
32
-2.571012
13
-26.613304
23
19.516283
33
-4.078111
0
3DFACE
8
RoueDroite
62
42.000000
10
-23.643373
20
18.536285
30
-3.286503
11
-23.061588
21
18.536285
31
-0.064207
12
-24.383583
22
19.516283
32
-0.252362
13
-24.802216
23
19.516283
33
-2.571012
0
3DFACE
8
RoueDroite
62
42.000000
10
-23.061588
20
18.536285
30
-0.064207
11
-24.687168
21
18.536285
31
2.778178
12
-25.553293
22
19.516283
32
1.792918
13
-24.383583
23
19.516283
33
-0.252362
0
3DFACE
8
RoueDroite
62
42.000000
10
-24.687168
20
18.536285
30
2.778178
11
-27.759485
21
18.536285
31
3.910669
12
-27.764025
22
19.516283
32
2.607819
13
-25.553293
23
19.516283
33
1.792918
0
3DFACE
8
RoueDroite
62
42.000000
10
-27.759485
20
18.536285
30
3.910669
11
-30.840969
21
18.536285
31
2.803360
12
-29.981350
22
19.516283
32
1.811038
13
-27.764025
23
19.516283
33
2.607819
0
3DFACE
8
RoueDroite
62
42.000000
10
-30.840969
20
18.536285
30
2.803360
11
-32.489754
21
18.536285
31
-0.025627
12
-31.167759
22
19.516283
32
-0.224601
13
-29.981350
23
19.516283
33
1.811038
0
3DFACE
8
RoueDroite
62
42.000000
10
-32.489754
20
18.536285
30
-0.025627
11
-31.934362
21
18.536285
31
-3.252573
12
-30.768118
22
19.516283
32
-2.546597
13
-31.167759
23
19.516283
33
-0.224601
0
3DFACE
8
RoueDroite
62
42.000000
10
-30.840914
20
17.566284
30
-2.590664
11
-28.998465
21
17.566284
31
-4.149556
12
-29.434664
22
18.536285
32
-5.367562
13
-31.934362
23
18.536285
33
-3.252573
0
3DFACE
8
RoueDroite
62
42.000000
10
-28.998465
20
17.566284
30
-4.149556
11
-26.585026
21
17.566284
31
-4.159432
12
-26.160295
22
18.536285
32
-5.380962
13
-29.434664
23
18.536285
33
-5.367562
0
3DFACE
8
RoueDroite
62
42.000000
10
-26.585026
20
17.566284
30
-4.159432
11
-24.729881
21
17.566284
31
-2.615672
12
-23.643373
22
18.536285
32
-3.286503
13
-26.160295
23
18.536285
33
-5.380962
0
3DFACE
8
RoueDroite
62
42.000000
10
-24.729881
20
17.566284
30
-2.615672
11
-24.301067
21
17.566284
31
-0.240618
12
-23.061588
22
18.536285
32
-0.064207
13
-23.643373
23
18.536285
33
-3.286503
0
3DFACE
8
RoueDroite
62
42.000000
10
-24.301067
20
17.566284
30
-0.240618
11
-25.499229
21
17.566284
31
1.854417
12
-24.687168
22
18.536285
32
2.778178
13
-23.061588
23
18.536285
33
-0.064207
0
3DFACE
8
RoueDroite
62
42.000000
10
-25.499229
20
17.566284
30
1.854417
11
-27.763741
21
17.566284
31
2.689141
12
-27.759485
22
18.536285
32
3.910669
13
-24.687168
23
18.536285
33
2.778178
0
3DFACE
8
RoueDroite
62
42.000000
10
-27.763741
20
17.566284
30
2.689141
11
-30.035006
21
17.566284
31
1.872977
12
-30.840969
22
18.536285
32
2.803360
13
-27.759485
23
18.536285
33
3.910669
0
3DFACE
8
RoueDroite
62
42.000000
10
-30.035006
20
17.566284
30
1.872977
11
-31.250275
21
17.566284
31
-0.212182
12
-32.489754
22
18.536285
32
-0.025627
13
-30.840969
23
18.536285
33
2.803360
0
3DFACE
8
RoueDroite
62
42.000000
10
-31.250275
20
17.566284
30
-0.212182
11
-30.840914
21
17.566284
31
-2.590664
12
-31.934362
22
18.536285
32
-3.252573
13
-32.489754
23
18.536285
33
-0.025627
0
3DFACE
8
RoueDroite
62
42.000000
10
-31.250275
20
17.566284
30
-0.212182
11
-30.035006
21
17.566284
31
1.872977
12
-27.763741
22
17.566284
32
2.689141
13
-27.763741
23
17.566284
33
2.689141
0
3DFACE
8
RoueDroite
62
42.000000
10
-31.250275
20
17.566284
30
-0.212182
11
-27.763741
21
17.566284
31
2.689141
12
-25.499229
22
17.566284
32
1.854417
13
-25.499229
23
17.566284
33
1.854417
0
3DFACE
8
RoueDroite
62
42.000000
10
-31.250275
20
17.566284
30
-0.212182
11
-25.499229
21
17.566284
31
1.854417
12
-24.301067
22
17.566284
32
-0.240618
13
-24.301067
23
17.566284
33
-0.240618
0
3DFACE
8
RoueDroite
62
42.000000
10
-31.250275
20
17.566284
30
-0.212182
11
-24.301067
21
17.566284
31
-0.240618
12
-24.729881
22
17.566284
32
-2.615672
13
-24.729881
23
17.566284
33
-2.615672
0
3DFACE
8
RoueDroite
62
42.000000
10
-31.250275
20
17.566284
30
-0.212182
11
-24.729881
21
17.566284
31
-2.615672
12
-26.585026
22
17.566284
32
-4.159432
13
-26.585026
23
17.566284
33
-4.159432
0
3DFACE
8
RoueDroite
62
42.000000
10
-31.250275
20
17.566284
30
-0.212182
11
-26.585026
21
17.566284
31
-4.159432
12
-28.998465
22
17.566284
32
-4.149556
13
-28.998465
23
17.566284
33
-4.149556
0
3DFACE
8
RoueDroite
62
42.000000
10
-31.250275
20
17.566284
30
-0.212182
11
-28.998465
21
17.566284
31
-4.149556
12
-30.840914
22
17.566284
32
-2.590664
13
-30.840914
23
17.566284
33
-2.590664
0
3DFACE
8
RoueDroite
62
42.000000
10
-30.768118
20
19.516283
30
-2.546597
11
-28.969423
21
19.516283
31
-4.068469
12
-26.613304
22
19.516283
32
-4.078111
13
-26.613304
23
19.516283
33
-4.078111
0
3DFACE
8
RoueDroite
62
42.000000
10
-30.768118
20
19.516283
30
-2.546597
11
-26.613304
21
19.516283
31
-4.078111
12
-24.802216
22
19.516283
32
-2.571012
13
-24.802216
23
19.516283
33
-2.571012
0
3DFACE
8
RoueDroite
62
42.000000
10
-30.768118
20
19.516283
30
-2.546597
11
-24.802216
21
19.516283
31
-2.571012
12
-24.383583
22
19.516283
32
-0.252362
13
-24.383583
23
19.516283
33
-0.252362
0
3DFACE
8
RoueDroite
62
42.000000
10
-30.768118
20
19.516283
30
-2.546597
11
-24.383583
21
19.516283
31
-0.252362
12
-25.553293
22
19.516283
32
1.792918
13
-25.553293
23
19.516283
33
1.792918
0
3DFACE
8
RoueDroite
62
42.000000
10
-30.768118
20
19.516283
30
-2.546597
11
-25.553293
21
19.516283
31
1.792918
12
-27.764025
22
19.516283
32
2.607819
13
-27.764025
23
19.516283
33
2.607819
0
3DFACE
8
RoueDroite
62
42.000000
10
-30.768118
20
19.516283
30
-2.546597
11
-27.764025
21
19.516283
31
2.607819
12
-29.981350
22
19.516283
32
1.811038
13
-29.981350
23
19.516283
33
1.811038
0
3DFACE
8
RoueDroite
62
42.000000
10
-30.768118
20
19.516283
30
-2.546597
11
-29.981350
21
19.516283
31
1.811038
12
-31.167759
22
19.516283
32
-0.224601
13
-31.167759
23
19.516283
33
-0.224601
0
3DFACE
8
RoueGauche
62
43.000000
10
-30.768118
20
-19.193710
30
-3.026597
11
-28.969423
21
-19.193710
31
-4.548468
12
-29.434664
22
-18.213713
32
-5.847561
13
-31.934362
23
-18.213713
33
-3.732573
0
3DFACE
8
RoueGauche
62
43.000000
10
-28.969423
20
-19.193710
30
-4.548468
11
-26.613304
21
-19.193710
31
-4.558110
12
-26.160295
22
-18.213713
32
-5.860961
13
-29.434664
23
-18.213713
33
-5.847561
0
3DFACE
8
RoueGauche
62
43.000000
10
-26.613304
20
-19.193710
30
-4.558110
11
-24.802216
21
-19.193710
31
-3.051012
12
-23.643373
22
-18.213713
32
-3.766503
13
-26.160295
23
-18.213713
33
-5.860961
0
3DFACE
8
RoueGauche
62
43.000000
10
-24.802216
20
-19.193710
30
-3.051012
11
-24.383583
21
-19.193710
31
-0.732362
12
-23.061588
22
-18.213713
32
-0.544207
13
-23.643373
23
-18.213713
33
-3.766503
0
3DFACE
8
RoueGauche
62
43.000000
10
-24.383583
20
-19.193710
30
-0.732362
11
-25.553293
21
-19.193710
31
1.312918
12
-24.687168
22
-18.213713
32
2.298179
13
-23.061588
23
-18.213713
33
-0.544207
0
3DFACE
8
RoueGauche
62
43.000000
10
-25.553293
20
-19.193710
30
1.312918
11
-27.764025
21
-19.193710
31
2.127819
12
-27.759485
22
-18.213713
32
3.430670
13
-24.687168
23
-18.213713
33
2.298179
0
3DFACE
8
RoueGauche
62
43.000000
10
-27.764025
20
-19.193710
30
2.127819
11
-29.981350
21
-19.193710
31
1.331038
12
-30.840969
22
-18.213713
32
2.323361
13
-27.759485
23
-18.213713
33
3.430670
0
3DFACE
8
RoueGauche
62
43.000000
10
-29.981350
20
-19.193710
30
1.331038
11
-31.167759
21
-19.193710
31
-0.704601
12
-32.489754
22
-18.213713
32
-0.505627
13
-30.840969
23
-18.213713
33
2.323361
0
3DFACE
8
RoueGauche
62
43.000000
10
-31.167759
20
-19.193710
30
-0.704601
11
-30.768118
21
-19.193710
31
-3.026597
12
-31.934362
22
-18.213713
32
-3.732573
13
-32.489754
23
-18.213713
33
-0.505627
0
3DFACE
8
RoueGauche
62
43.000000
10
-31.934362
20
-18.213713
30
-3.732573
11
-29.434664
21
-18.213713
31
-5.847561
12
-28.998465
22
-17.243711
32
-4.629556
13
-30.840914
23
-17.243711
33
-3.070663
0
3DFACE
8
RoueGauche
62
43.000000
10
-29.434664
20
-18.213713
30
-5.847561
11
-26.160295
21
-18.213713
31
-5.860961
12
-26.585026
22
-17.243711
32
-4.639432
13
-28.998465
23
-17.243711
33
-4.629556
0
3DFACE
8
RoueGauche
62
43.000000
10
-26.160295
20
-18.213713
30
-5.860961
11
-23.643373
21
-18.213713
31
-3.766503
12
-24.729881
22
-17.243711
32
-3.095672
13
-26.585026
23
-17.243711
33
-4.639432
0
3DFACE
8
RoueGauche
62
43.000000
10
-23.643373
20
-18.213713
30
-3.766503
11
-23.061588
21
-18.213713
31
-0.544207
12
-24.301067
22
-17.243711
32
-0.720617
13
-24.729881
23
-17.243711
33
-3.095672
0
3DFACE
8
RoueGauche
62
43.000000
10
-23.061588
20
-18.213713
30
-0.544207
11
-24.687168
21
-18.213713
31
2.298179
12
-25.499229
22
-17.243711
32
1.374417
13
-24.301067
23
-17.243711
33
-0.720617
0
3DFACE
8
RoueGauche
62
43.000000
10
-24.687168
20
-18.213713
30
2.298179
11
-27.759485
21
-18.213713
31
3.430670
12
-27.763741
22
-17.243711
32
2.209141
13
-25.499229
23
-17.243711
33
1.374417
0
3DFACE
8
RoueGauche
62
43.000000
10
-27.759485
20
-18.213713
30
3.430670
11
-30.840969
21
-18.213713
31
2.323361
12
-30.035006
22
-17.243711
32
1.392977
13
-27.763741
23
-17.243711
33
2.209141
0
3DFACE
8
RoueGauche
62
43.000000
10
-30.840969
20
-18.213713
30
2.323361
11
-32.489754
21
-18.213713
31
-0.505627
12
-31.250275
22
-17.243711
32
-0.692181
13
-30.035006
23
-17.243711
33
1.392977
0
3DFACE
8
RoueGauche
62
43.000000
10
-32.489754
20
-18.213713
30
-0.505627
11
-31.934362
21
-18.213713
31
-3.732573
12
-30.840914
22
-17.243711
32
-3.070663
13
-31.250275
23
-17.243711
33
-0.692181
0
3DFACE
8
RoueGauche
62
43.000000
10
-30.840914
20
-17.243711
30
-3.070663
11
-28.998465
21
-17.243711
31
-4.629556
12
-26.585026
22
-17.243711
32
-4.639432
13
-26.585026
23
-17.243711
33
-4.639432
0
3DFACE
8
RoueGauche
62
43.000000
10
-30.840914
20
-17.243711
30
-3.070663
11
-26.585026
21
-17.243711
31
-4.639432
12
-24.729881
22
-17.243711
32
-3.095672
13
-24.729881
23
-17.243711
33
-3.095672
0
3DFACE
8
RoueGauche
62
43.000000
10
-30.840914
20
-17.243711
30
-3.070663
11
-24.729881
21
-17.243711
31
-3.095672
12
-24.301067
22
-17.243711
32
-0.720617
13
-24.301067
23
-17.243711
33
-0.720617
0
3DFACE
8
RoueGauche
62
43.000000
10
-30.840914
20
-17.243711
30
-3.070663
11
-24.301067
21
-17.243711
31
-0.720617
12
-25.499229
22
-17.243711
32
1.374417
13
-25.499229
23
-17.243711
33
1.374417
0
3DFACE
8
RoueGauche
62
43.000000
10
-30.840914
20
-17.243711
30
-3.070663
11
-25.499229
21
-17.243711
31
1.374417
12
-27.763741
22
-17.243711
32
2.209141
13
-27.763741
23
-17.243711
33
2.209141
0
3DFACE
8
RoueGauche
62
43.000000
10
-30.840914
20
-17.243711
30
-3.070663
11
-27.763741
21
-17.243711
31
2.209141
12
-30.035006
22
-17.243711
32
1.392977
13
-30.035006
23
-17.243711
33
1.392977
0
3DFACE
8
RoueGauche
62
43.000000
10
-30.840914
20
-17.243711
30
-3.070663
11
-30.035006
21
-17.243711
31
1.392977
12
-31.250275
22
-17.243711
32
-0.692181
13
-31.250275
23
-17.243711
33
-0.692181
0
3DFACE
8
RoueGauche
62
43.000000
10
-31.167759
20
-19.193710
30
-0.704601
11
-29.981350
21
-19.193710
31
1.331038
12
-27.764025
22
-19.193710
32
2.127819
13
-27.764025
23
-19.193710
33
2.127819
0
3DFACE
8
RoueGauche
62
43.000000
10
-31.167759
20
-19.193710
30
-0.704601
11
-27.764025
21
-19.193710
31
2.127819
12
-25.553293
22
-19.193710
32
1.312918
13
-25.553293
23
-19.193710
33
1.312918
0
3DFACE
8
RoueGauche
62
43.000000
10
-31.167759
20
-19.193710
30
-0.704601
11
-25.553293
21
-19.193710
31
1.312918
12
-24.383583
22
-19.193710
32
-0.732362
13
-24.383583
23
-19.193710
33
-0.732362
0
3DFACE
8
RoueGauche
62
43.000000
10
-31.167759
20
-19.193710
30
-0.704601
11
-24.383583
21
-19.193710
31
-0.732362
12
-24.802216
22
-19.193710
32
-3.051012
13
-24.802216
23
-19.193710
33
-3.051012
0
3DFACE
8
RoueGauche
62
43.000000
10
-31.167759
20
-19.193710
30
-0.704601
11
-24.802216
21
-19.193710
31
-3.051012
12
-26.613304
22
-19.193710
32
-4.558110
13
-26.613304
23
-19.193710
33
-4.558110
0
3DFACE
8
RoueGauche
62
43.000000
10
-31.167759
20
-19.193710
30
-0.704601
11
-26.613304
21
-19.193710
31
-4.558110
12
-28.969423
22
-19.193710
32
-4.548468
13
-28.969423
23
-19.193710
33
-4.548468
0
3DFACE
8
RoueGauche
62
43.000000
10
-31.167759
20
-19.193710
30
-0.704601
11
-28.969423
21
-19.193710
31
-4.548468
12
-30.768118
22
-19.193710
32
-3.026597
13
-30.768118
23
-19.193710
33
-3.026597
0
3DFACE
8
LBomb20
62
44.000000
10
-21.474377
20
0.903676
30
3.949788
11
-21.474377
21
1.509724
31
4.999497
12
-24.299732
22
0.297625
32
4.999497
13
-24.299732
23
0.297625
33
4.999497
0
3DFACE
8
LBomb20
62
44.000000
10
-15.823671
20
0.903676
30
3.949789
11
-15.823671
21
1.509726
31
4.999497
12
-21.474377
22
1.509724
32
4.999497
13
-21.474377
23
0.903676
33
3.949788
0
3DFACE
8
LBomb20
62
44.000000
10
-12.998321
20
0.297625
30
4.999497
11
-12.998321
21
0.297625
31
4.999497
12
-15.823671
22
1.509726
32
4.999497
13
-15.823671
23
0.903676
33
3.949789
0
3DFACE
8
LBomb20
62
44.000000
10
-21.474377
20
-0.308424
30
3.949788
11
-21.474377
21
0.903676
31
3.949788
12
-24.299732
22
0.297625
32
4.999497
13
-24.299732
23
0.297625
33
4.999497
0
3DFACE
8
LBomb20
62
44.000000
10
-15.823671
20
-0.308424
30
3.949789
11
-15.823671
21
0.903676
31
3.949789
12
-21.474377
22
0.903676
32
3.949788
13
-21.474377
23
-0.308424
33
3.949788
0
3DFACE
8
LBomb20
62
44.000000
10
-12.998321
20
0.297625
30
4.999497
11
-12.998321
21
0.297625
31
4.999497
12
-15.823671
22
0.903676
32
3.949789
13
-15.823671
23
-0.308424
33
3.949789
0
3DFACE
8
LBomb20
62
44.000000
10
-21.474377
20
-0.914475
30
4.999497
11
-21.474377
21
-0.308424
31
3.949788
12
-24.299732
22
0.297625
32
4.999497
13
-24.299732
23
0.297625
33
4.999497
0
3DFACE
8
LBomb20
62
44.000000
10
-15.823671
20
-0.914473
30
4.999498
11
-15.823671
21
-0.308424
31
3.949789
12
-21.474377
22
-0.308424
32
3.949788
13
-21.474377
23
-0.914475
33
4.999497
0
3DFACE
8
LBomb20
62
44.000000
10
-12.998321
20
0.297625
30
4.999497
11
-12.998321
21
0.297625
31
4.999497
12
-15.823671
22
-0.308424
32
3.949789
13
-15.823671
23
-0.914473
33
4.999498
0
3DFACE
8
LBomb20
62
44.000000
10
-21.474377
20
-0.308424
30
6.049207
11
-21.474377
21
-0.914475
31
4.999497
12
-24.299732
22
0.297625
32
4.999497
13
-24.299732
23
0.297625
33
4.999497
0
3DFACE
8
LBomb20
62
44.000000
10
-15.823671
20
-0.308422
30
6.049206
11
-15.823671
21
-0.914473
31
4.999498
12
-21.474377
22
-0.914475
32
4.999497
13
-21.474377
23
-0.308424
33
6.049207
0
3DFACE
8
LBomb20
62
44.000000
10
-12.998321
20
0.297625
30
4.999497
11
-12.998321
21
0.297625
31
4.999497
12
-15.823671
22
-0.914473
32
4.999498
13
-15.823671
23
-0.308422
33
6.049206
0
3DFACE
8
LBomb20
62
44.000000
10
-21.474377
20
0.903676
30
6.049207
11
-21.474377
21
-0.308424
31
6.049207
12
-24.299732
22
0.297625
32
4.999497
13
-24.299732
23
0.297625
33
4.999497
0
3DFACE
8
LBomb20
62
44.000000
10
-15.823671
20
0.903676
30
6.049206
11
-15.823671
21
-0.308422
31
6.049206
12
-21.474377
22
-0.308424
32
6.049207
13
-21.474377
23
0.903676
33
6.049207
0
3DFACE
8
LBomb20
62
44.000000
10
-12.998321
20
0.297625
30
4.999497
11
-12.998321
21
0.297625
31
4.999497
12
-15.823671
22
-0.308422
32
6.049206
13
-15.823671
23
0.903676
33
6.049206
0
3DFACE
8
LBomb20
62
44.000000
10
-21.474377
20
1.509724
30
4.999497
11
-21.474377
21
0.903676
31
6.049207
12
-24.299732
22
0.297625
32
4.999497
13
-24.299732
23
0.297625
33
4.999497
0
3DFACE
8
LBomb20
62
44.000000
10
-15.823671
20
1.509726
30
4.999497
11
-15.823671
21
0.903676
31
6.049206
12
-21.474377
22
0.903676
32
6.049207
13
-21.474377
23
1.509724
33
4.999497
0
3DFACE
8
LBomb20
62
44.000000
10
-12.998321
20
0.297625
30
4.999497
11
-12.998321
21
0.297625
31
4.999497
12
-15.823671
22
0.903676
32
6.049206
13
-15.823671
23
1.509726
33
4.999497
0
3DFACE
8
RoueArriere
62
45.000000
10
-57.678478
20
-0.680067
30
11.672652
11
-57.678478
21
-0.680067
31
11.672652
12
-59.389748
22
-0.680067
32
10.684652
13
-58.534115
23
0.267069
33
10.684652
0
3DFACE
8
RoueArriere
62
45.000000
10
-58.534115
20
0.267069
30
10.684652
11
-59.389748
21
-0.680067
31
10.684652
12
-59.389748
22
-0.680067
32
8.708651
13
-58.534115
23
0.267069
33
8.708651
0
3DFACE
8
RoueArriere
62
45.000000
10
-58.534115
20
0.267069
30
8.708651
11
-59.389748
21
-0.680067
31
8.708651
12
-57.678478
22
-0.680067
32
7.720650
13
-57.678478
23
-0.680067
33
7.720650
0
3DFACE
8
RoueArriere
62
45.000000
10
-57.678478
20
-0.680067
30
11.672652
11
-57.678478
21
-0.680067
31
11.672652
12
-58.534115
22
0.267069
32
10.684652
13
-56.822845
23
0.267069
33
10.684652
0
3DFACE
8
RoueArriere
62
45.000000
10
-56.822845
20
0.267069
30
10.684652
11
-58.534115
21
0.267069
31
10.684652
12
-58.534115
22
0.267069
32
8.708651
13
-56.822845
23
0.267069
33
8.708651
0
3DFACE
8
RoueArriere
62
45.000000
10
-56.822845
20
0.267069
30
8.708651
11
-58.534115
21
0.267069
31
8.708651
12
-57.678478
22
-0.680067
32
7.720650
13
-57.678478
23
-0.680067
33
7.720650
0
3DFACE
8
RoueArriere
62
45.000000
10
-57.678478
20
-0.680067
30
11.672652
11
-57.678478
21
-0.680067
31
11.672652
12
-56.822845
22
0.267069
32
10.684652
13
-55.967213
23
-0.680067
33
10.684652
0
3DFACE
8
RoueArriere
62
45.000000
10
-55.967213
20
-0.680067
30
10.684652
11
-56.822845
21
0.267069
31
10.684652
12
-56.822845
22
0.267069
32
8.708651
13
-55.967213
23
-0.680067
33
8.708651
0
3DFACE
8
RoueArriere
62
45.000000
10
-55.967213
20
-0.680067
30
8.708651
11
-56.822845
21
0.267069
31
8.708651
12
-57.678478
22
-0.680067
32
7.720650
13
-57.678478
23
-0.680067
33
7.720650
0
3DFACE
8
RoueArriere
62
45.000000
10
-57.678478
20
-0.680067
30
11.672652
11
-57.678478
21
-0.680067
31
11.672652
12
-55.967213
22
-0.680067
32
10.684652
13
-56.822845
23
-1.627203
33
10.684652
0
3DFACE
8
RoueArriere
62
45.000000
10
-56.822845
20
-1.627203
30
10.684652
11
-55.967213
21
-0.680067
31
10.684652
12
-55.967213
22
-0.680067
32
8.708651
13
-56.822845
23
-1.627203
33
8.708651
0
3DFACE
8
RoueArriere
62
45.000000
10
-56.822845
20
-1.627203
30
8.708651
11
-55.967213
21
-0.680067
31
8.708651
12
-57.678478
22
-0.680067
32
7.720650
13
-57.678478
23
-0.680067
33
7.720650
0
3DFACE
8
RoueArriere
62
45.000000
10
-57.678478
20
-0.680067
30
11.672652
11
-57.678478
21
-0.680067
31
11.672652
12
-56.822845
22
-1.627203
32
10.684652
13
-58.534115
23
-1.627203
33
10.684652
0
3DFACE
8
RoueArriere
62
45.000000
10
-58.534115
20
-1.627203
30
10.684652
11
-56.822845
21
-1.627203
31
10.684652
12
-56.822845
22
-1.627203
32
8.708651
13
-58.534115
23
-1.627203
33
8.708651
0
3DFACE
8
RoueArriere
62
45.000000
10
-58.534115
20
-1.627203
30
8.708651
11
-56.822845
21
-1.627203
31
8.708651
12
-57.678478
22
-0.680067
32
7.720650
13
-57.678478
23
-0.680067
33
7.720650
0
3DFACE
8
RoueArriere
62
45.000000
10
-57.678478
20
-0.680067
30
11.672652
11
-57.678478
21
-0.680067
31
11.672652
12
-58.534115
22
-1.627203
32
10.684652
13
-59.389748
23
-0.680067
33
10.684652
0
3DFACE
8
RoueArriere
62
45.000000
10
-59.389748
20
-0.680067
30
10.684652
11
-58.534115
21
-1.627203
31
10.684652
12
-58.534115
22
-1.627203
32
8.708651
13
-59.389748
23
-0.680067
33
8.708651
0
3DFACE
8
RoueArriere
62
45.000000
10
-59.389748
20
-0.680067
30
8.708651
11
-58.534115
21
-1.627203
31
8.708651
12
-57.678478
22
-0.680067
32
7.720650
13
-57.678478
23
-0.680067
33
7.720650
0
3DFACE
8
HBomb1A1
62
46.000000
10
-32.663353
20
9.616618
30
6.967436
11
-35.713352
21
9.616618
31
9.617437
12
-36.883350
22
9.616618
32
7.177438
13
-36.883350
23
9.616618
33
7.177438
0
3DFACE
8
EssieuDroit
62
47.000000
10
-21.692118
20
19.716288
30
-2.718596
11
-33.764118
21
19.716288
31
-2.718596
12
-33.444118
22
19.716288
32
-1.116595
13
-33.444118
23
19.716288
33
-1.116595
0
3DFACE
8
EssieuDroit
62
47.000000
10
-21.692118
20
19.716288
30
-2.718596
11
-33.444118
21
19.716288
31
-1.116595
12
-31.198120
22
19.716288
32
0.275402
13
-31.198120
23
19.716288
33
0.275402
0
3DFACE
8
EssieuDroit
62
47.000000
10
-21.692118
20
19.716288
30
-2.718596
11
-31.198120
21
19.716288
31
0.275402
12
-32.162121
22
19.716288
32
7.751403
13
-32.162121
23
19.716288
33
7.751403
0
3DFACE
8
EssieuDroit
62
47.000000
10
-32.162121
20
19.716288
30
7.751403
11
-23.294117
21
19.716288
31
7.965405
12
-24.470118
22
19.716288
32
0.379403
13
-24.470118
23
19.716288
33
0.379403
0
3DFACE
8
EssieuDroit
62
47.000000
10
-24.470118
20
19.716288
30
0.379403
11
-22.012117
21
19.716288
31
-1.010595
12
-21.692118
22
19.716288
32
-2.718596
13
-21.692118
23
19.716288
33
-2.718596
0
3DFACE
8
EssieuDroit
62
47.000000
10
-24.470118
20
19.716288
30
0.379403
11
-21.692118
21
19.716288
31
-2.718596
12
-32.162121
22
19.716288
32
7.751403
13
-32.162121
23
19.716288
33
7.751403
0
3DFACE
8
EssieuDroit
62
47.000000
10
-24.470118
20
19.716288
30
0.379403
11
-22.012117
21
19.716288
31
-1.010595
12
-21.692118
22
19.716288
32
-2.718596
13
-21.692118
23
19.716288
33
-2.718596
0
3DFACE
8
EssieuDroit
62
47.000000
10
-24.470118
20
19.716288
30
0.379403
11
-21.692118
21
19.716288
31
-2.718596
12
-33.764118
22
19.716288
32
-2.718596
13
-33.764118
23
19.716288
33
-2.718596
0
3DFACE
8
EssieuDroit
62
47.000000
10
-24.470118
20
19.716288
30
0.379403
11
-33.764118
21
19.716288
31
-2.718596
12
-33.444118
22
19.716288
32
-1.116595
13
-33.444118
23
19.716288
33
-1.116595
0
3DFACE
8
EssieuDroit
62
47.000000
10
-24.470118
20
19.716288
30
0.379403
11
-33.444118
21
19.716288
31
-1.116595
12
-31.198120
22
19.716288
32
0.275402
13
-31.198120
23
19.716288
33
0.275402
0
3DFACE
8
EssieuDroit
62
47.000000
10
-24.470118
20
19.716288
30
0.379403
11
-31.198120
21
19.716288
31
0.275402
12
-32.162121
22
19.716288
32
7.751403
13
-32.162121
23
19.716288
33
7.751403
0
3DFACE
8
EssieuDroit
62
47.000000
10
-24.470118
20
19.716288
30
0.379403
11
-32.162121
21
19.716288
31
7.751403
12
-23.294117
22
19.716288
32
7.965405
13
-23.294117
23
19.716288
33
7.965405
0
3DFACE
8
EssieuDroit
62
47.000000
10
-24.470118
20
19.716288
30
0.379403
11
-22.012117
21
19.716288
31
-1.010595
12
-21.692118
22
19.716288
32
-2.718596
13
-21.692118
23
19.716288
33
-2.718596
0
3DFACE
8
EssieuDroit
62
47.000000
10
-24.470118
20
19.716288
30
0.379403
11
-21.692118
21
19.716288
31
-2.718596
12
-33.764118
22
19.716288
32
-2.718596
13
-33.764118
23
19.716288
33
-2.718596
0
3DFACE
8
EssieuDroit
62
47.000000
10
-24.470118
20
19.716288
30
0.379403
11
-33.764118
21
19.716288
31
-2.718596
12
-33.444118
22
19.716288
32
-1.116595
13
-33.444118
23
19.716288
33
-1.116595
0
3DFACE
8
EssieuDroit
62
47.000000
10
-24.470118
20
19.716288
30
0.379403
11
-33.444118
21
19.716288
31
-1.116595
12
-31.198120
22
19.716288
32
0.275402
13
-31.198120
23
19.716288
33
0.275402
0
3DFACE
8
EssieuDroit
62
47.000000
10
-24.470118
20
19.716288
30
0.379403
11
-31.198120
21
19.716288
31
0.275402
12
-32.162121
22
19.716288
32
7.751403
13
-32.162121
23
19.716288
33
7.751403
0
3DFACE
8
EssieuDroit
62
47.000000
10
-24.470118
20
19.716288
30
0.379403
11
-32.162121
21
19.716288
31
7.751403
12
-23.294117
22
19.716288
32
7.965405
13
-23.294117
23
19.716288
33
7.965405
0
3DFACE
8
EssieuGauche
62
48.000000
10
-21.692118
20
-19.863712
30
-2.718596
11
-33.764118
21
-19.863712
31
-2.718596
12
-33.444118
22
-19.863712
32
-1.116595
13
-33.444118
23
-19.863712
33
-1.116595
0
3DFACE
8
EssieuGauche
62
48.000000
10
-21.692118
20
-19.863712
30
-2.718596
11
-33.444118
21
-19.863712
31
-1.116595
12
-31.198120
22
-19.863712
32
0.275402
13
-31.198120
23
-19.863712
33
0.275402
0
3DFACE
8
EssieuGauche
62
48.000000
10
-21.692118
20
-19.863712
30
-2.718596
11
-31.198120
21
-19.863712
31
0.275402
12
-32.162121
22
-19.863712
32
7.751403
13
-32.162121
23
-19.863712
33
7.751403
0
3DFACE
8
EssieuGauche
62
48.000000
10
-32.162121
20
-19.863712
30
7.751403
11
-23.294117
21
-19.863712
31
7.965405
12
-24.470118
22
-19.863712
32
0.379403
13
-24.470118
23
-19.863712
33
0.379403
0
3DFACE
8
EssieuGauche
62
48.000000
10
-24.470118
20
-19.863712
30
0.379403
11
-22.012117
21
-19.863712
31
-1.010595
12
-21.692118
22
-19.863712
32
-2.718596
13
-21.692118
23
-19.863712
33
-2.718596
0
3DFACE
8
EssieuGauche
62
48.000000
10
-24.470118
20
-19.863712
30
0.379403
11
-21.692118
21
-19.863712
31
-2.718596
12
-32.162121
22
-19.863712
32
7.751403
13
-32.162121
23
-19.863712
33
7.751403
0
3DFACE
8
EssieuGauche
62
48.000000
10
-24.470118
20
-19.863712
30
0.379403
11
-22.012117
21
-19.863712
31
-1.010595
12
-21.692118
22
-19.863712
32
-2.718596
13
-21.692118
23
-19.863712
33
-2.718596
0
3DFACE
8
EssieuGauche
62
48.000000
10
-24.470118
20
-19.863712
30
0.379403
11
-21.692118
21
-19.863712
31
-2.718596
12
-33.764118
22
-19.863712
32
-2.718596
13
-33.764118
23
-19.863712
33
-2.718596
0
3DFACE
8
EssieuGauche
62
48.000000
10
-24.470118
20
-19.863712
30
0.379403
11
-33.764118
21
-19.863712
31
-2.718596
12
-33.444118
22
-19.863712
32
-1.116595
13
-33.444118
23
-19.863712
33
-1.116595
0
3DFACE
8
EssieuGauche
62
48.000000
10
-24.470118
20
-19.863712
30
0.379403
11
-33.444118
21
-19.863712
31
-1.116595
12
-31.198120
22
-19.863712
32
0.275402
13
-31.198120
23
-19.863712
33
0.275402
0
3DFACE
8
EssieuGauche
62
48.000000
10
-24.470118
20
-19.863712
30
0.379403
11
-31.198120
21
-19.863712
31
0.275402
12
-32.162121
22
-19.863712
32
7.751403
13
-32.162121
23
-19.863712
33
7.751403
0
3DFACE
8
EssieuGauche
62
48.000000
10
-24.470118
20
-19.863712
30
0.379403
11
-32.162121
21
-19.863712
31
7.751403
12
-23.294117
22
-19.863712
32
7.965405
13
-23.294117
23
-19.863712
33
7.965405
0
3DFACE
8
EssieuGauche
62
48.000000
10
-24.470118
20
-19.863712
30
0.379403
11
-22.012117
21
-19.863712
31
-1.010595
12
-21.692118
22
-19.863712
32
-2.718596
13
-21.692118
23
-19.863712
33
-2.718596
0
3DFACE
8
EssieuGauche
62
48.000000
10
-24.470118
20
-19.863712
30
0.379403
11
-21.692118
21
-19.863712
31
-2.718596
12
-33.764118
22
-19.863712
32
-2.718596
13
-33.764118
23
-19.863712
33
-2.718596
0
3DFACE
8
EssieuGauche
62
48.000000
10
-24.470118
20
-19.863712
30
0.379403
11
-33.764118
21
-19.863712
31
-2.718596
12
-33.444118
22
-19.863712
32
-1.116595
13
-33.444118
23
-19.863712
33
-1.116595
0
3DFACE
8
EssieuGauche
62
48.000000
10
-24.470118
20
-19.863712
30
0.379403
11
-33.444118
21
-19.863712
31
-1.116595
12
-31.198120
22
-19.863712
32
0.275402
13
-31.198120
23
-19.863712
33
0.275402
0
3DFACE
8
EssieuGauche
62
48.000000
10
-24.470118
20
-19.863712
30
0.379403
11
-31.198120
21
-19.863712
31
0.275402
12
-32.162121
22
-19.863712
32
7.751403
13
-32.162121
23
-19.863712
33
7.751403
0
3DFACE
8
EssieuGauche
62
48.000000
10
-24.470118
20
-19.863712
30
0.379403
11
-32.162121
21
-19.863712
31
7.751403
12
-23.294117
22
-19.863712
32
7.965405
13
-23.294117
23
-19.863712
33
7.965405
0
3DFACE
8
CharniereGauche
62
49.000000
10
-32.162121
20
-20.503712
30
6.981403
11
-32.162121
21
-19.860121
31
8.152979
12
-23.582121
22
-19.860054
32
8.151363
13
-23.582121
23
-20.501869
33
6.983019
0
3DFACE
8
CharniereGauche
62
49.000000
10
-32.162121
20
-19.860121
30
8.152979
11
-32.162121
21
-19.167301
31
7.009826
12
-23.582121
22
-19.169144
32
7.011363
13
-23.582121
23
-19.860054
33
8.151363
0
3DFACE
8
CharniereGauche
62
49.000000
10
-32.162121
20
-19.167301
30
7.009826
11
-32.162121
21
-20.503712
31
6.981403
12
-23.582121
22
-20.501869
32
6.983019
13
-23.582121
23
-19.169144
33
7.011363
0
3DFACE
8
CharniereDroite
62
50.000000
10
-32.162121
20
19.086288
30
6.871403
11
-32.162121
21
19.729879
31
8.042979
12
-23.582121
22
19.729946
32
8.041364
13
-23.582121
23
19.088131
33
6.873019
0
3DFACE
8
CharniereDroite
62
50.000000
10
-32.162121
20
19.729879
30
8.042979
11
-32.162121
21
20.422699
31
6.899826
12
-23.582121
22
20.420856
32
6.901363
13
-23.582121
23
19.729946
33
8.041364
0
3DFACE
8
CharniereDroite
62
50.000000
10
-32.162121
20
20.422699
30
6.899826
11
-32.162121
21
19.086288
31
6.871403
12
-23.582121
22
19.088131
32
6.873019
13
-23.582121
23
20.420856
33
6.901363
0
3DFACE
8
MoyeuPale
62
51.000000
10
1.867711
20
-0.098493
30
14.846996
11
1.867711
21
-0.098493
31
14.846996
12
0.880443
22
1.611508
32
14.846996
13
0.880443
23
0.756506
33
13.366092
0
3DFACE
8
MoyeuPale
62
51.000000
10
1.867711
20
-0.098493
30
14.846996
11
1.867711
21
-0.098493
31
14.846996
12
0.880443
22
0.756506
32
13.366092
13
0.880443
23
-0.953493
33
13.366092
0
3DFACE
8
MoyeuPale
62
51.000000
10
1.867711
20
-0.098493
30
14.846996
11
1.867711
21
-0.098493
31
14.846996
12
0.880443
22
-0.953493
32
13.366092
13
0.880443
23
-1.808493
33
14.846996
0
3DFACE
8
MoyeuPale
62
51.000000
10
1.867711
20
-0.098493
30
14.846996
11
1.867711
21
-0.098493
31
14.846996
12
0.880443
22
-1.808493
32
14.846996
13
0.880443
23
-0.953493
33
16.327896
0
3DFACE
8
MoyeuPale
62
51.000000
10
1.867711
20
-0.098493
30
14.846996
11
1.867711
21
-0.098493
31
14.846996
12
0.880443
22
-0.953493
32
16.327896
13
0.880443
23
0.756506
33
16.327896
0
3DFACE
8
MoyeuPale
62
51.000000
10
1.867711
20
-0.098493
30
14.846996
11
1.867711
21
-0.098493
31
14.846996
12
0.880443
22
0.756506
32
16.327896
13
0.880443
23
1.611508
33
14.846996
0
3DFACE
8
MoyeuPale
62
51.000000
10
-0.450543
20
0.756506
30
13.366089
11
0.880443
21
0.756506
31
13.366092
12
0.880443
22
1.611508
32
14.846996
13
-0.450543
23
1.611508
33
14.846996
0
3DFACE
8
MoyeuPale
62
51.000000
10
-0.450543
20
-0.953493
30
13.366089
11
0.880443
21
-0.953493
31
13.366092
12
0.880443
22
0.756506
32
13.366092
13
-0.450543
23
0.756506
33
13.366089
0
3DFACE
8
MoyeuPale
62
51.000000
10
-0.450543
20
-1.808493
30
14.846996
11
0.880443
21
-1.808493
31
14.846996
12
0.880443
22
-0.953493
32
13.366092
13
-0.450543
23
-0.953493
33
13.366089
0
3DFACE
8
MoyeuPale
62
51.000000
10
-0.450543
20
-0.953493
30
16.327898
11
0.880443
21
-0.953493
31
16.327896
12
0.880443
22
-1.808493
32
14.846996
13
-0.450543
23
-1.808493
33
14.846996
0
3DFACE
8
MoyeuPale
62
51.000000
10
-0.450543
20
0.756506
30
16.327898
11
0.880443
21
0.756506
31
16.327896
12
0.880443
22
-0.953493
32
16.327896
13
-0.450543
23
-0.953493
33
16.327898
0
3DFACE
8
MoyeuPale
62
51.000000
10
-0.450543
20
1.611508
30
14.846996
11
0.880443
21
1.611508
31
14.846996
12
0.880443
22
0.756506
32
16.327896
13
-0.450543
23
0.756506
33
16.327898
0
3DFACE
8
Pale3
62
52.000000
10
1.388846
20
1.264292
30
14.397881
11
1.594822
21
3.433445
31
13.546562
12
1.723155
22
5.427006
32
12.587127
13
1.723155
23
5.427006
33
12.587127
0
3DFACE
8
Pale3
62
52.000000
10
1.388846
20
1.264292
30
14.397881
11
1.723155
21
5.427006
31
12.587127
12
1.773845
22
7.244979
32
11.519576
13
1.773845
23
7.244979
33
11.519576
0
3DFACE
8
Pale3
62
52.000000
10
1.388846
20
1.264292
30
14.397881
11
1.773845
21
7.244979
31
11.519576
12
1.746889
22
8.887362
32
10.343904
13
1.746889
23
8.887362
33
10.343904
0
3DFACE
8
Pale3
62
52.000000
10
1.388846
20
1.264292
30
14.397881
11
1.746889
21
8.887362
31
10.343904
12
1.642291
22
10.354153
32
9.060120
13
1.642291
23
10.354153
33
9.060120
0
3DFACE
8
Pale3
62
52.000000
10
1.388846
20
1.264292
30
14.397881
11
1.642291
21
10.354153
31
9.060120
12
1.499871
22
11.463788
32
7.905165
13
1.499871
23
11.463788
33
7.905165
0
3DFACE
8
Pale3
62
52.000000
10
1.388846
20
1.264292
30
14.397881
11
1.499871
21
11.463788
31
7.905165
12
1.359456
22
12.034682
32
7.116002
13
1.359456
23
12.034682
33
7.116002
0
3DFACE
8
Pale3
62
52.000000
10
1.388846
20
1.264292
30
14.397881
11
1.359456
21
12.034682
31
7.116002
12
1.221043
22
12.066853
32
6.692615
13
1.221043
23
12.066853
33
6.692615
0
3DFACE
8
Pale3
62
52.000000
10
1.388846
20
1.264292
30
14.397881
11
1.221043
21
12.066853
31
6.692615
12
1.084631
22
11.560287
32
6.635012
13
1.084631
23
11.560287
33
6.635012
0
3DFACE
8
Pale3
62
52.000000
10
1.388846
20
1.264292
30
14.397881
11
1.084631
21
11.560287
31
6.635012
12
0.950223
22
10.514995
32
6.943194
13
0.950223
23
10.514995
33
6.943194
0
3DFACE
8
Pale3
62
52.000000
10
1.388846
20
1.264292
30
14.397881
11
0.950223
21
10.514995
31
6.943194
12
0.843775
22
9.080224
32
7.592804
13
0.843775
23
9.080224
33
7.592804
0
3DFACE
8
Pale3
62
52.000000
10
1.388846
20
1.264292
30
14.397881
11
0.843775
21
9.080224
31
7.592804
12
0.791249
22
7.405245
32
8.559476
13
0.791249
23
7.405245
33
8.559476
0
3DFACE
8
Pale3
62
52.000000
10
1.388846
20
1.264292
30
14.397881
11
0.791249
21
7.405245
31
8.559476
12
0.792648
22
5.490047
32
9.843230
13
0.792648
23
5.490047
33
9.843230
0
3DFACE
8
Pale3
62
52.000000
10
1.388846
20
1.264292
30
14.397881
11
0.792648
21
5.490047
31
9.843230
12
0.847967
22
3.334641
32
11.444050
13
0.847967
23
3.334641
33
11.444050
0
3DFACE
8
Pale3
62
52.000000
10
1.388846
20
1.264292
30
14.397881
11
0.847967
21
3.334641
31
11.444050
12
0.957205
22
0.939015
32
13.361935
13
0.957205
23
0.939015
33
13.361935
0
3DFACE
8
Pale2
62
53.000000
10
1.388846
20
-0.621095
30
16.068880
11
1.594822
21
-1.118367
31
18.345432
12
1.723155
22
-1.428190
32
20.536051
13
1.723155
23
-1.428190
33
20.536051
0
3DFACE
8
Pale2
62
53.000000
10
1.388846
20
-0.621095
30
16.068880
11
1.723155
21
-1.428190
31
20.536051
12
1.773845
22
-1.550566
32
22.640739
13
1.773845
23
-1.550566
33
22.640739
0
3DFACE
8
Pale2
62
53.000000
10
1.388846
20
-0.621095
30
16.068880
11
1.773845
21
-1.550566
31
22.640739
12
1.746889
22
-1.485488
32
24.659500
13
1.746889
23
-1.485488
33
24.659500
0
3DFACE
8
Pale2
62
53.000000
10
1.388846
20
-0.621095
30
16.068880
11
1.746889
21
-1.485488
31
24.659500
12
1.642291
22
-1.232967
32
26.592325
13
1.642291
23
-1.232967
33
26.592325
0
3DFACE
8
Pale2
62
53.000000
10
1.388846
20
-0.621095
30
16.068880
11
1.642291
21
-1.232967
31
26.592325
12
1.499871
22
-0.889137
32
28.156610
13
1.499871
23
-0.889137
33
28.156610
0
3DFACE
8
Pale2
62
53.000000
10
1.388846
20
-0.621095
30
16.068880
11
1.499871
21
-0.889137
31
28.156610
12
1.359456
22
-0.550144
32
29.069727
13
1.359456
23
-0.550144
33
29.069727
0
3DFACE
8
Pale2
62
53.000000
10
1.388846
20
-0.621095
30
16.068880
11
1.359456
21
-0.550144
31
29.069727
12
1.221043
22
-0.215984
32
29.331697
13
1.221043
23
-0.215984
33
29.331697
0
3DFACE
8
Pale2
62
53.000000
10
1.388846
20
-0.621095
30
16.068880
11
1.221043
21
-0.215984
31
29.331697
12
1.084631
22
0.113342
32
28.942507
13
1.084631
23
0.113342
33
28.942507
0
3DFACE
8
Pale2
62
53.000000
10
1.388846
20
-0.621095
30
16.068880
11
1.084631
21
0.113342
31
28.942507
12
0.950223
22
0.437832
32
27.902161
13
0.950223
23
0.437832
33
27.902161
0
3DFACE
8
Pale2
62
53.000000
10
1.388846
20
-0.621095
30
16.068880
11
0.950223
21
0.437832
31
27.902161
12
0.843775
22
0.694819
32
26.348289
13
0.843775
23
0.694819
33
26.348289
0
3DFACE
8
Pale2
62
53.000000
10
1.388846
20
-0.621095
30
16.068880
11
0.843775
21
0.694819
31
26.348289
12
0.791249
22
0.821629
32
24.418541
13
0.791249
23
0.821629
33
24.418541
0
3DFACE
8
Pale2
62
53.000000
10
1.388846
20
-0.621095
30
16.068880
11
0.791249
21
0.821629
31
24.418541
12
0.792648
22
0.818253
32
22.112896
13
0.792648
23
0.818253
33
22.112896
0
3DFACE
8
Pale2
62
53.000000
10
1.388846
20
-0.621095
30
16.068880
11
0.792648
21
0.818253
31
22.112896
12
0.847967
22
0.684701
32
19.431374
13
0.847967
23
0.684701
33
19.431374
0
3DFACE
8
Pale2
62
53.000000
10
1.388846
20
-0.621095
30
16.068880
11
0.847967
21
0.684701
31
19.431374
12
0.957205
22
0.420977
32
16.373964
13
0.957205
23
0.420977
33
16.373964
0
3DFACE
8
Pale1
62
54.000000
10
1.388846
20
-0.308079
30
13.871125
11
1.594822
21
-1.924694
31
12.192873
12
1.723155
22
-3.573998
32
10.718223
13
1.723155
23
-3.573998
33
10.718223
0
3DFACE
8
Pale1
62
54.000000
10
1.388846
20
-0.308079
30
13.871125
11
1.723155
21
-3.573998
31
10.718223
12
1.773845
22
-5.255995
32
9.447168
13
1.773845
23
-5.255995
33
9.447168
0
3DFACE
8
Pale1
62
54.000000
10
1.388846
20
-0.308079
30
13.871125
11
1.773845
21
-5.255995
31
9.447168
12
1.746889
22
-6.970688
32
8.379714
13
1.746889
23
-6.970688
33
8.379714
0
3DFACE
8
Pale1
62
54.000000
10
1.388846
20
-0.308079
30
13.871125
11
1.746889
21
-6.970688
31
8.379714
12
1.642291
22
-8.718067
32
7.515860
13
1.642291
23
-8.718067
33
7.515860
0
3DFACE
8
Pale1
62
54.000000
10
1.388846
20
-0.308079
30
13.871125
11
1.642291
21
-8.718067
31
7.515860
12
1.499871
22
-10.209744
32
6.932673
13
1.499871
23
-10.209744
33
6.932673
0
3DFACE
8
Pale1
62
54.000000
10
1.388846
20
-0.308079
30
13.871125
11
1.499871
21
-10.209744
31
6.932673
12
1.359456
22
-11.157308
32
6.707235
13
1.359456
23
-11.157308
33
6.707235
0
3DFACE
8
Pale1
62
54.000000
10
1.388846
20
-0.308079
30
13.871125
11
1.359456
21
-11.157308
31
6.707235
12
1.221043
22
-11.560777
32
6.839535
13
1.221043
23
-11.560777
33
6.839535
0
3DFACE
8
Pale1
62
54.000000
10
1.388846
20
-0.308079
30
13.871125
11
1.221043
21
-11.560777
31
6.839535
12
1.084631
22
-11.420140
32
7.329585
13
1.084631
23
-11.420140
33
7.329585
0
3DFACE
8
Pale1
62
54.000000
10
1.388846
20
-0.308079
30
13.871125
11
1.084631
21
-11.420140
31
7.329585
12
0.950223
22
-10.735402
32
8.177372
13
0.950223
23
-10.735402
33
8.177372
0
3DFACE
8
Pale1
62
54.000000
10
1.388846
20
-0.308079
30
13.871125
11
0.950223
21
-10.735402
31
8.177372
12
0.843775
22
-9.586179
32
9.254333
13
0.843775
23
-9.586179
33
9.254333
0
3DFACE
8
Pale1
62
54.000000
10
1.388846
20
-0.308079
30
13.871125
11
0.843775
21
-9.586179
31
9.254333
12
0.791249
22
-8.052102
32
10.431884
13
0.791249
23
-8.052102
33
10.431884
0
3DFACE
8
Pale1
62
54.000000
10
1.388846
20
-0.308079
30
13.871125
11
0.791249
21
-8.052102
31
10.431884
12
0.792648
22
-6.133154
32
11.710023
13
0.792648
23
-6.133154
33
11.710023
0
3DFACE
8
Pale1
62
54.000000
10
1.388846
20
-0.308079
30
13.871125
11
0.792648
21
-6.133154
31
11.710023
12
0.847967
22
-3.829352
32
13.088753
13
0.847967
23
-3.829352
33
13.088753
0
3DFACE
8
Pale1
62
54.000000
10
1.388846
20
-0.308079
30
13.871125
11
0.847967
21
-3.829352
31
13.088753
12
0.957205
22
-1.140691
32
14.568081
13
0.957205
23
-1.140691
33
14.568081
0
3DFACE
8
Verriere
62
55.000000
10
-10.963444
20
-0.022166
30
20.490120
11
-13.081065
21
-2.578842
31
19.783968
12
-14.301004
22
-2.050752
32
24.486057
13
-10.971885
23
0.007559
33
20.661913
0
3DFACE
8
Verriere
62
55.000000
10
-10.971885
20
0.007559
30
20.661913
11
-14.301004
21
-2.050752
31
24.486057
12
-14.392504
22
-0.672299
32
26.348576
13
-10.977035
23
0.085148
33
20.766750
0
3DFACE
8
Verriere
62
55.000000
10
-10.977035
20
0.085148
30
20.766750
11
-14.392504
21
-0.672299
31
26.348576
12
-14.389904
22
1.019258
32
26.295652
13
-10.976889
23
0.180362
33
20.763769
0
3DFACE
8
Verriere
62
55.000000
10
-10.976889
20
0.180362
30
20.763769
11
-14.389904
21
1.019258
31
26.295652
12
-14.294215
22
2.364644
32
24.347891
13
-10.971503
23
0.256090
33
20.654135
0
3DFACE
8
Verriere
62
55.000000
10
-10.971503
20
0.256090
30
20.654135
11
-14.294215
21
2.364644
31
24.347891
12
-13.072734
22
2.839494
32
19.614407
13
-10.962976
23
0.282818
33
20.480574
0
3DFACE
8
Verriere
62
55.000000
10
-13.081065
20
-2.578842
30
19.783968
11
-18.555452
21
-4.675224
31
19.377266
12
-18.821417
22
-3.738492
32
24.791094
13
-14.301004
23
-2.050752
33
24.486057
0
3DFACE
8
Verriere
62
55.000000
10
-14.301004
20
-2.050752
30
24.486057
11
-18.821417
21
-3.738492
31
24.791094
12
-18.983719
22
-1.293379
32
28.094845
13
-14.392504
23
-0.672299
33
26.348576
0
3DFACE
8
Verriere
62
55.000000
10
-14.392504
20
-0.672299
30
26.348576
11
-18.983719
21
-1.293379
31
28.094845
12
-18.979109
22
1.707122
32
28.000973
13
-14.389904
23
1.019258
33
26.295652
0
3DFACE
8
Verriere
62
55.000000
10
-14.389904
20
1.019258
30
26.295652
11
-18.979109
21
1.707122
31
28.000973
12
-18.809376
22
4.093582
32
24.546017
13
-14.294215
23
2.364644
33
24.347891
0
3DFACE
8
Verriere
62
55.000000
10
-14.294215
20
2.364644
30
24.347891
11
-18.809376
21
4.093582
31
24.546017
12
-18.540678
22
4.935876
32
19.076500
13
-13.072734
23
2.839494
33
19.614407
0
3DFACE
8
Verriere
62
55.000000
10
-18.555452
20
-4.675224
30
19.377266
11
-26.852119
21
-4.288198
31
19.309429
12
-27.096664
22
-3.426909
32
24.287243
13
-18.821417
23
-3.738492
33
24.791094
0
3DFACE
8
Verriere
62
55.000000
10
-18.821417
20
-3.738492
30
24.791094
11
-27.096664
21
-3.426909
31
24.287243
12
-27.245895
22
-1.178718
32
27.324919
13
-18.983719
23
-1.293379
33
28.094845
0
3DFACE
8
Verriere
62
55.000000
10
-18.983719
20
-1.293379
30
28.094845
11
-27.245895
21
-1.178718
31
27.324919
12
-27.241655
22
1.580131
32
27.238609
13
-18.979109
23
1.707122
33
28.000973
0
3DFACE
8
Verriere
62
55.000000
10
-18.979109
20
1.707122
30
28.000973
11
-27.241655
21
1.580131
31
27.238609
12
-27.085592
22
3.774392
32
24.061905
13
-18.809376
23
4.093582
33
24.546017
0
3DFACE
8
Verriere
62
55.000000
10
-18.809376
20
4.093582
30
24.546017
11
-27.085592
21
3.774392
31
24.061905
12
-26.838533
22
4.548850
32
19.032888
13
-18.540678
23
4.935876
33
19.076500
0
3DFACE
8
Verriere
62
55.000000
10
-26.852119
20
-4.288198
30
19.309429
11
-36.802921
21
-0.686725
31
18.957348
12
-36.848141
22
-0.527460
32
19.877823
13
-27.096664
23
-3.426909
33
24.287243
0
3DFACE
8
Verriere
62
55.000000
10
-27.096664
20
-3.426909
30
24.287243
11
-36.848141
21
-0.527460
31
19.877823
12
-36.875736
22
-0.111736
32
20.439533
13
-27.245895
23
-1.178718
33
27.324919
0
3DFACE
8
Verriere
62
55.000000
10
-27.245895
20
-1.178718
30
27.324919
11
-36.875736
21
-0.111736
31
20.439533
12
-36.874954
22
0.398417
32
20.423573
13
-27.241655
23
1.580131
33
27.238609
0
3DFACE
8
Verriere
62
55.000000
10
-27.241655
20
1.580131
30
27.238609
11
-36.874954
21
0.398417
31
20.423573
12
-36.846096
22
0.804168
32
19.836153
13
-27.085592
23
3.774392
33
24.061905
0
3DFACE
8
Verriere
62
55.000000
10
-27.085592
20
3.774392
30
24.061905
11
-36.846096
21
0.804168
31
19.836153
12
-36.800407
22
0.947377
32
18.906212
13
-26.838533
23
4.548850
33
19.032888
0
3DFACE
8
PosCam
62
56.000000
10
-23.513353
20
-0.195883
30
23.751467
11
-24.666647
21
-0.685880
31
23.751467
12
-24.666647
22
1.071480
32
25.019234
13
-24.666647
23
1.071480
33
25.019234
0
3DFACE
8
FuselageAvant
62
57.000000
10
0.069999
20
0.214122
30
13.301463
11
-1.430001
21
0.214122
31
10.941463
12
-1.430001
22
-2.331464
32
11.995876
13
0.069999
23
-0.662692
33
13.664650
0
3DFACE
8
FuselageAvant
62
57.000000
10
0.069999
20
-0.662692
30
13.664650
11
-1.430001
21
-2.331464
31
11.995876
12
-1.430001
22
-3.385882
32
14.541465
13
0.069999
23
-1.025881
33
14.541465
0
3DFACE
8
FuselageAvant
62
57.000000
10
0.069999
20
-1.025881
30
14.541465
11
-1.430001
21
-3.385882
31
14.541465
12
-1.430001
22
-2.331465
32
17.087053
13
0.069999
23
-0.662693
33
15.418280
0
3DFACE
8
FuselageAvant
62
57.000000
10
0.069999
20
-0.662693
30
15.418280
11
-1.430001
21
-2.331465
31
17.087053
12
-1.430001
22
0.214123
32
18.141466
13
0.069999
23
0.214122
33
15.781466
0
3DFACE
8
FuselageAvant
62
57.000000
10
0.069999
20
0.214122
30
15.781466
11
-1.430001
21
0.214123
31
18.141466
12
-1.430001
22
2.759707
32
17.087053
13
0.069999
23
1.090935
33
15.418280
0
3DFACE
8
FuselageAvant
62
57.000000
10
0.069999
20
1.090935
30
15.418280
11
-1.430001
21
2.759707
31
17.087053
12
-1.430001
22
3.814125
32
14.541465
13
0.069999
23
1.454124
33
14.541465
0
3DFACE
8
FuselageAvant
62
57.000000
10
0.069999
20
1.454124
30
14.541465
11
-1.430001
21
3.814125
31
14.541465
12
-1.430001
22
2.759708
32
11.995876
13
0.069999
23
1.090936
33
13.664650
0
3DFACE
8
FuselageAvant
62
57.000000
10
0.069999
20
1.090936
30
13.664650
11
-1.430001
21
2.759708
31
11.995876
12
-1.430001
22
0.214122
32
10.941463
13
0.069999
23
0.214122
33
13.301463
0
3DFACE
8
FuselageAvant
62
57.000000
10
-1.430001
20
0.214122
30
10.941463
11
-6.580001
21
0.214122
31
9.031465
12
-6.580001
22
-3.682038
32
10.645300
13
-1.430001
23
-2.331464
33
11.995876
0
3DFACE
8
FuselageAvant
62
57.000000
10
-1.430001
20
-2.331464
30
11.995876
11
-6.580001
21
-3.682038
31
10.645300
12
-6.580001
22
-5.295883
32
14.541465
13
-1.430001
23
-3.385882
33
14.541465
0
3DFACE
8
FuselageAvant
62
57.000000
10
-1.430001
20
-3.385882
30
14.541465
11
-6.580001
21
-5.295883
31
14.541465
12
-6.580001
22
-3.682040
32
18.437630
13
-1.430001
23
-2.331465
33
17.087053
0
3DFACE
8
FuselageAvant
62
57.000000
10
-1.430001
20
-2.331465
30
17.087053
11
-6.580001
21
-3.682040
31
18.437630
12
-6.580001
22
0.214123
32
20.051466
13
-1.430001
23
0.214123
33
18.141466
0
3DFACE
8
FuselageAvant
62
57.000000
10
-1.430001
20
0.214123
30
18.141466
11
-6.580001
21
0.214123
31
20.051466
12
-6.580001
22
4.110281
32
18.437630
13
-1.430001
23
2.759707
33
17.087053
0
3DFACE
8
FuselageAvant
62
57.000000
10
-1.430001
20
2.759707
30
17.087053
11
-6.580001
21
4.110281
31
18.437630
12
-6.580001
22
5.724125
32
14.541465
13
-1.430001
23
3.814125
33
14.541465
0
3DFACE
8
FuselageAvant
62
57.000000
10
-1.430001
20
3.814125
30
14.541465
11
-6.580001
21
5.724125
31
14.541465
12
-6.580001
22
4.110283
32
10.645300
13
-1.430001
23
2.759708
33
11.995876
0
3DFACE
8
FuselageAvant
62
57.000000
10
-1.430001
20
2.759708
30
11.995876
11
-6.580001
21
4.110283
31
10.645300
12
-6.580001
22
0.214122
32
9.031465
13
-1.430001
23
0.214122
33
10.941463
0
3DFACE
8
FuselageAvant
62
57.000000
10
-6.580001
20
0.214122
30
9.031465
11
-14.000001
21
0.214122
31
8.541467
12
-14.000001
22
-4.028518
32
10.298817
13
-6.580001
23
-3.682038
33
10.645300
0
3DFACE
8
FuselageAvant
62
57.000000
10
-6.580001
20
-3.682038
30
10.645300
11
-14.000001
21
-4.028518
31
10.298817
12
-14.100000
22
-5.785881
32
14.541465
13
-6.580001
23
-5.295883
33
14.541465
0
3DFACE
8
FuselageAvant
62
57.000000
10
-6.580001
20
-5.295883
30
14.541465
11
-14.100000
21
-5.785881
31
14.541465
12
-14.150001
22
-4.028520
32
18.784113
13
-6.580001
23
-3.682040
33
18.437630
0
3DFACE
8
FuselageAvant
62
57.000000
10
-6.580001
20
-3.682040
30
18.437630
11
-14.150001
21
-4.028520
31
18.784113
12
-14.100000
22
0.214123
32
20.641462
13
-6.580001
23
0.214123
33
20.051466
0
3DFACE
8
FuselageAvant
62
57.000000
10
-6.580001
20
0.214123
30
20.051466
11
-14.100000
21
0.214123
31
20.641462
12
-14.150001
22
4.456761
32
18.784113
13
-6.580001
23
4.110281
33
18.437630
0
3DFACE
8
FuselageAvant
62
57.000000
10
-6.580001
20
4.110281
30
18.437630
11
-14.150001
21
4.456761
31
18.784113
12
-14.100000
22
6.214124
32
14.541465
13
-6.580001
23
5.724125
33
14.541465
0
3DFACE
8
FuselageAvant
62
57.000000
10
-6.580001
20
5.724125
30
14.541465
11
-14.100000
21
6.214124
31
14.541465
12
-14.000001
22
4.456764
32
10.298817
13
-6.580001
23
4.110283
33
10.645300
0
3DFACE
8
FuselageAvant
62
57.000000
10
-6.580001
20
4.110283
30
10.645300
11
-14.000001
21
4.456764
31
10.298817
12
-14.000001
22
0.214122
32
8.541467
13
-6.580001
23
0.214122
33
9.031465
0
3DFACE
8
FinAileGauche
62
58.000000
10
-14.612116
20
-19.058945
30
8.397516
11
-15.188317
21
-29.732462
31
9.448766
12
-16.614513
22
-38.034164
32
10.266411
13
-16.614513
23
-38.034164
33
10.266411
0
3DFACE
8
FinAileGauche
62
58.000000
10
-14.612116
20
-19.058945
30
8.397516
11
-16.614513
21
-38.034164
31
10.266411
12
-18.890715
22
-43.964073
32
10.850456
13
-18.890715
23
-43.964073
33
10.850456
0
3DFACE
8
FinAileGauche
62
58.000000
10
-14.612116
20
-19.058945
30
8.397516
11
-18.890715
21
-43.964073
31
10.850456
12
-22.016916
22
-47.522179
32
11.200899
13
-22.016916
23
-47.522179
33
11.200899
0
3DFACE
8
FinAileGauche
62
58.000000
10
-14.612116
20
-19.058945
30
8.397516
11
-22.016916
21
-47.522179
31
11.200899
12
-25.993114
22
-48.708477
32
11.317739
13
-25.993114
23
-48.708477
33
11.317739
0
3DFACE
8
FinAileGauche
62
58.000000
10
-14.612116
20
-19.058945
30
8.397516
11
-25.993114
21
-48.708477
31
11.317739
12
-29.976437
22
-47.522816
32
11.200962
13
-29.976437
23
-47.522816
33
11.200962
0
3DFACE
8
FinAileGauche
62
58.000000
10
-14.612116
20
-19.058945
30
8.397516
11
-29.976437
21
-47.522816
31
11.200962
12
-33.123997
22
-43.965031
32
10.850551
13
-33.123997
23
-43.965031
33
10.850551
0
3DFACE
8
FinAileGauche
62
58.000000
10
-14.612116
20
-19.058945
30
8.397516
11
-33.123997
21
-43.965031
31
10.850551
12
-35.435795
22
-38.035122
32
10.266505
13
-35.435795
23
-38.035122
33
10.266505
0
3DFACE
8
FinAileGauche
62
58.000000
10
-14.612116
20
-19.058945
30
8.397516
11
-35.435795
21
-38.035122
31
10.266505
12
-36.911835
22
-29.733099
32
9.448828
13
-36.911835
23
-29.733099
33
9.448828
0
3DFACE
8
FinAileGauche
62
58.000000
10
-14.612116
20
-19.058945
30
8.397516
11
-36.911835
21
-29.733099
31
9.448828
12
-37.612118
22
-19.078852
32
8.399476
13
-37.612118
23
-19.078852
33
8.399476
0
3DFACE
8
FinAileDroite
62
59.000000
10
-14.430120
20
17.945415
30
7.995247
11
-15.130406
21
28.599665
31
9.044601
12
-16.606447
22
36.901691
32
9.862281
13
-16.606447
23
36.901691
33
9.862281
0
3DFACE
8
FinAileDroite
62
59.000000
10
-14.430120
20
17.945415
30
7.995247
11
-16.606447
21
36.901691
31
9.862281
12
-18.918249
22
42.831600
32
10.446325
13
-18.918249
23
42.831600
33
10.446325
0
3DFACE
8
FinAileDroite
62
59.000000
10
-14.430120
20
17.945415
30
7.995247
11
-18.918249
21
42.831600
31
10.446325
12
-22.065809
22
46.389385
32
10.796739
13
-22.065809
23
46.389385
33
10.796739
0
3DFACE
8
FinAileDroite
62
59.000000
10
-14.430120
20
17.945415
30
7.995247
11
-22.065809
21
46.389385
31
10.796739
12
-26.049131
22
47.575047
32
10.913515
13
-26.049131
23
47.575047
33
10.913515
0
3DFACE
8
FinAileDroite
62
59.000000
10
-14.430120
20
17.945415
30
7.995247
11
-26.049131
21
47.575047
31
10.913515
12
-30.025330
22
46.388744
32
10.796675
13
-30.025330
23
46.388744
33
10.796675
0
3DFACE
8
FinAileDroite
62
59.000000
10
-14.430120
20
17.945415
30
7.995247
11
-30.025330
21
46.388744
31
10.796675
12
-33.151527
22
42.830643
32
10.446233
13
-33.151527
23
42.830643
33
10.446233
0
3DFACE
8
FinAileDroite
62
59.000000
10
-14.430120
20
17.945415
30
7.995247
11
-33.151527
21
42.830643
31
10.446233
12
-35.427731
22
36.900730
32
9.862185
13
-35.427731
23
36.900730
33
9.862185
0
3DFACE
8
FinAileDroite
62
59.000000
10
-14.430120
20
17.945415
30
7.995247
11
-35.427731
21
36.900730
31
9.862185
12
-36.853924
22
28.599026
32
9.044538
13
-36.853924
23
28.599026
33
9.044538
0
3DFACE
8
FinAileDroite
62
59.000000
10
-36.853924
20
28.599026
30
9.044538
11
-37.430122
21
17.925510
31
7.993287
12
-14.430120
22
17.945415
32
7.995247
13
-14.430120
23
17.945415
33
7.995247
0
3DFACE
8
Gouvernail
62
60.000000
10
-47.039967
20
-0.029596
30
18.900167
11
-47.804222
21
-0.029596
31
22.407061
12
-49.739243
22
-0.029596
32
25.429996
13
-49.739243
23
-0.029596
33
25.429996
0
3DFACE
8
Gouvernail
62
60.000000
10
-47.039967
20
-0.029596
30
18.900167
11
-49.739243
21
-0.029596
31
25.429996
12
-52.603943
22
-0.029596
32
27.592373
13
-52.603943
23
-0.029596
33
27.592373
0
3DFACE
8
Gouvernail
62
60.000000
10
-47.039967
20
-0.029596
30
18.900167
11
-52.603943
21
-0.029596
31
27.592373
12
-56.041454
22
-0.029596
32
28.624804
13
-56.041454
23
-0.029596
33
28.624804
0
3DFACE
8
Gouvernail
62
60.000000
10
-47.039967
20
-0.029596
30
18.900167
11
-56.041454
21
-0.029596
31
28.624804
12
-59.623528
22
-0.029596
32
28.398668
13
-59.623528
23
-0.029596
33
28.398668
0
3DFACE
8
Gouvernail
62
60.000000
10
-47.039967
20
-0.029596
30
18.900167
11
-59.623528
21
-0.029596
31
28.398668
12
-62.903915
22
-0.029596
32
26.942139
13
-62.903915
23
-0.029596
33
26.942139
0
3DFACE
8
Gouvernail
62
60.000000
10
-47.039967
20
-0.029596
30
18.900167
11
-62.903915
21
-0.029596
31
26.942139
12
-65.473930
22
-0.029596
32
24.436668
13
-65.473930
23
-0.029596
33
24.436668
0
3DFACE
8
Gouvernail
62
60.000000
10
-47.039967
20
-0.029596
30
18.900167
11
-65.473930
21
-0.029596
31
24.436668
12
-67.013435
22
-0.029596
32
21.194387
13
-67.013435
23
-0.029596
33
21.194387
0
3DFACE
8
Gouvernail
62
60.000000
10
-47.039967
20
-0.029596
30
18.900167
11
-67.013435
21
-0.029596
31
21.194387
12
-67.330605
22
-0.029596
32
17.619223
13
-67.330605
23
-0.029596
33
17.619223
0
3DFACE
8
DeriveDroite
62
61.000000
10
-47.039967
20
2.349929
30
16.267643
11
-47.804222
21
5.589874
31
14.925612
12
-49.739243
22
8.382704
32
13.768785
13
-49.739243
23
8.382704
33
13.768785
0
3DFACE
8
DeriveDroite
62
61.000000
10
-47.039967
20
2.349929
30
16.267643
11
-49.739243
21
8.382704
31
13.768785
12
-52.603943
22
10.380477
32
12.941279
13
-52.603943
23
10.380477
33
12.941279
0
3DFACE
8
DeriveDroite
62
61.000000
10
-47.039967
20
2.349929
30
16.267643
11
-52.603943
21
10.380477
31
12.941279
12
-56.041454
22
11.334320
32
12.546185
13
-56.041454
23
11.334320
33
12.546185
0
3DFACE
8
DeriveDroite
62
61.000000
10
-47.039967
20
2.349929
30
16.267643
11
-56.041454
21
11.334320
31
12.546185
12
-59.623528
22
11.125399
32
12.632725
13
-59.623528
23
11.125399
33
12.632725
0
3DFACE
8
DeriveDroite
62
61.000000
10
-47.039967
20
2.349929
30
16.267643
11
-59.623528
21
11.125399
31
12.632725
12
-62.903915
22
9.779740
32
13.190113
13
-62.903915
23
9.779740
33
13.190113
0
3DFACE
8
DeriveDroite
62
61.000000
10
-47.039967
20
2.349929
30
16.267643
11
-62.903915
21
9.779740
31
13.190113
12
-65.473930
22
7.464989
32
14.148915
13
-65.473930
23
7.464989
33
14.148915
0
3DFACE
8
DeriveDroite
62
61.000000
10
-47.039967
20
2.349929
30
16.267643
11
-65.473930
21
7.464989
31
14.148915
12
-67.013435
22
4.469511
32
15.389683
13
-67.013435
23
4.469511
33
15.389683
0
3DFACE
8
DeriveDroite
62
61.000000
10
-47.039967
20
2.349929
30
16.267643
11
-67.013435
21
4.469511
31
15.389683
12
-67.330605
22
1.166490
32
16.757839
13
-67.330605
23
1.166490
33
16.757839
0
3DFACE
8
DeriveGauche
62
62.000000
10
-47.039967
20
-1.239119
30
16.157644
11
-47.804222
21
-4.479065
31
14.815613
12
-49.739243
22
-7.271894
32
13.658787
13
-49.739243
23
-7.271894
33
13.658787
0
3DFACE
8
DeriveGauche
62
62.000000
10
-47.039967
20
-1.239119
30
16.157644
11
-49.739243
21
-7.271894
31
13.658787
12
-52.603943
22
-9.269669
32
12.831281
13
-52.603943
23
-9.269669
33
12.831281
0
3DFACE
8
DeriveGauche
62
62.000000
10
-47.039967
20
-1.239119
30
16.157644
11
-52.603943
21
-9.269669
31
12.831281
12
-56.041454
22
-10.223511
32
12.436187
13
-56.041454
23
-10.223511
33
12.436187
0
3DFACE
8
DeriveGauche
62
62.000000
10
-47.039967
20
-1.239119
30
16.157644
11
-56.041454
21
-10.223511
31
12.436187
12
-59.623528
22
-10.014588
32
12.522726
13
-59.623528
23
-10.014588
33
12.522726
0
3DFACE
8
DeriveGauche
62
62.000000
10
-47.039967
20
-1.239119
30
16.157644
11
-59.623528
21
-10.014588
31
12.522726
12
-62.903915
22
-8.668931
32
13.080114
13
-62.903915
23
-8.668931
33
13.080114
0
3DFACE
8
DeriveGauche
62
62.000000
10
-47.039967
20
-1.239119
30
16.157644
11
-62.903915
21
-8.668931
31
13.080114
12
-65.473930
22
-6.354179
32
14.038917
13
-65.473930
23
-6.354179
33
14.038917
0
3DFACE
8
DeriveGauche
62
62.000000
10
-47.039967
20
-1.239119
30
16.157644
11
-65.473930
21
-6.354179
31
14.038917
12
-67.013435
22
-3.358701
32
15.279684
13
-67.013435
23
-3.358701
33
15.279684
0
3DFACE
8
DeriveGauche
62
62.000000
10
-47.039967
20
-1.239119
30
16.157644
11
-67.013435
21
-3.358701
31
15.279684
12
-67.330605
22
-0.055680
32
16.647840
13
-67.330605
23
-0.055680
33
16.647840
0
ENDSEC
0
EOF
