0
SECTION
2
ENTITIES
0
3DFACE
8
Verierre
62
1.000000
10
-1.328174
20
0.509639
30
33.485111
11
-1.328174
21
-3.694204
31
33.485111
12
-2.665906
22
-2.643244
32
39.300549
13
-2.665906
23
-0.541322
33
39.300549
0
3DFACE
8
Verierre
62
1.000000
10
-25.617743
20
-1.482137
30
33.040520
11
-20.767771
21
-3.597565
31
42.238441
12
-20.767773
22
-5.602847
32
32.164299
13
-20.767773
23
-5.602847
33
32.164299
0
3DFACE
8
Verierre
62
1.000000
10
-20.767773
20
-5.602847
30
32.164299
11
-20.767771
21
-3.597565
31
42.238441
12
-7.704153
22
-4.690218
32
44.167469
13
-7.117463
23
-7.825570
33
31.313442
0
3DFACE
8
Verierre
62
1.000000
10
-7.117463
20
-7.825570
30
31.313442
11
-7.704153
21
-4.690218
31
44.167469
12
-2.665906
22
-2.643244
32
39.300549
13
-1.328174
23
-3.694204
33
33.485111
0
3DFACE
8
Verierre
62
1.000000
10
-25.617743
20
-1.482137
30
33.040520
11
-20.767771
21
0.412999
31
42.238441
12
-20.767771
22
-3.597565
32
42.238441
13
-20.767771
23
-3.597565
33
42.238441
0
3DFACE
8
Verierre
62
1.000000
10
-20.767771
20
-3.597565
30
42.238441
11
-20.767771
21
0.412999
31
42.238441
12
-7.117463
22
1.524361
32
44.200783
13
-7.704153
23
-4.690218
33
44.167469
0
3DFACE
8
Verierre
62
1.000000
10
-7.704153
20
-4.690218
30
44.167469
11
-7.117463
21
1.524361
31
44.200783
12
-2.665906
22
-0.541322
32
39.300549
13
-2.665906
23
-2.643244
33
39.300549
0
3DFACE
8
Verierre
62
1.000000
10
-25.617743
20
-1.482137
30
33.040520
11
-20.767773
21
2.418282
31
32.164299
12
-20.767771
22
0.412999
32
42.238441
13
-20.767771
23
0.412999
33
42.238441
0
3DFACE
8
Verierre
62
1.000000
10
-20.767771
20
0.412999
30
42.238441
11
-20.767773
21
2.418282
31
32.164299
12
-7.117463
22
4.641006
32
31.313442
13
-7.117463
23
1.524361
33
44.200783
0
3DFACE
8
Verierre
62
1.000000
10
-7.117463
20
1.524361
30
44.200783
11
-7.117463
21
4.641006
31
31.313442
12
-1.328174
22
0.509639
32
33.485111
13
-2.665906
23
-0.541322
33
39.300549
0
3DFACE
8
Bomb3
62
2.000000
10
-12.083206
20
-3.083144
30
12.000310
11
-13.743836
21
-7.945314
31
11.340506
12
-12.328051
22
-5.296115
32
18.458139
13
-11.769526
23
-2.496189
33
13.577289
0
3DFACE
8
Bomb3
62
2.000000
10
-11.769526
20
-2.496189
30
13.577289
11
-12.328051
21
-5.296115
31
18.458139
12
-12.382089
22
2.424425
32
18.186480
13
-11.781499
23
-0.785633
33
13.517099
0
3DFACE
8
Bomb3
62
2.000000
10
-11.781499
20
-0.785633
30
13.517099
11
-12.382089
21
2.424425
31
18.186480
12
-13.831269
22
4.546771
32
10.900954
13
-12.102578
23
-0.315408
33
11.902925
0
3DFACE
8
Bomb3
62
2.000000
10
-12.102578
20
-0.315408
30
11.902925
11
-13.831269
21
4.546771
31
10.900954
12
-14.672873
22
-1.862075
32
6.669916
13
-12.289044
23
-1.735346
33
10.965499
0
3DFACE
8
Bomb3
62
2.000000
10
-12.289044
20
-1.735346
30
10.965499
11
-14.672873
21
-1.862075
31
6.669916
12
-13.743836
22
-7.945314
32
11.340506
13
-12.083206
23
-3.083144
33
12.000310
0
3DFACE
8
Bomb3
62
2.000000
10
-13.743836
20
-7.945314
30
11.340506
11
-27.965221
21
-7.945314
31
14.169314
12
-26.549437
22
-5.296115
32
21.286949
13
-12.328051
23
-5.296115
33
18.458139
0
3DFACE
8
Bomb3
62
2.000000
10
-12.328051
20
-5.296115
30
18.458139
11
-26.549437
21
-5.296115
31
21.286949
12
-26.603474
22
2.424425
32
21.015287
13
-12.382089
23
2.424425
33
18.186480
0
3DFACE
8
Bomb3
62
2.000000
10
-12.382089
20
2.424425
30
18.186480
11
-26.603474
21
2.424425
31
21.015287
12
-28.052654
22
4.546771
32
13.729763
13
-13.831269
23
4.546771
33
10.900954
0
3DFACE
8
Bomb3
62
2.000000
10
-13.831269
20
4.546771
30
10.900954
11
-28.052654
21
4.546771
31
13.729763
12
-28.894260
22
-1.862075
32
9.498725
13
-14.672873
23
-1.862075
33
6.669916
0
3DFACE
8
Bomb3
62
2.000000
10
-14.672873
20
-1.862075
30
6.669916
11
-28.894260
21
-1.862075
31
9.498725
12
-27.965221
22
-7.945314
32
14.169314
13
-13.743836
23
-7.945314
33
11.340506
0
3DFACE
8
Bomb3
62
2.000000
10
-27.965221
20
-7.945314
30
14.169314
11
-28.776884
21
-3.604848
31
15.214648
12
-28.344948
22
-2.796617
32
17.386133
13
-26.549437
23
-5.296115
33
21.286949
0
3DFACE
8
Bomb3
62
2.000000
10
-26.549437
20
-5.296115
30
21.286949
11
-28.344948
21
-2.796617
31
17.386133
12
-28.361435
22
-0.441198
32
17.303251
13
-26.603474
23
2.424425
33
21.015287
0
3DFACE
8
Bomb3
62
2.000000
10
-26.603474
20
2.424425
30
21.015287
11
-28.361435
21
-0.441198
31
17.303251
12
-28.803558
22
0.206297
32
15.080549
13
-28.052654
23
4.546771
33
13.729763
0
3DFACE
8
Bomb3
62
2.000000
10
-28.052654
20
4.546771
30
13.729763
11
-28.803558
21
0.206297
31
15.080549
12
-29.060320
22
-1.748944
32
13.789723
13
-28.894260
23
-1.862075
33
9.498725
0
3DFACE
8
Bomb3
62
2.000000
10
-28.894260
20
-1.862075
30
9.498725
11
-29.060320
21
-1.748944
31
13.789723
12
-28.776884
22
-3.604848
32
15.214648
13
-27.965221
23
-7.945314
33
14.169314
0
3DFACE
8
Bomb3
62
2.000000
10
-28.776884
20
-3.604848
30
15.214648
11
-33.276119
21
-3.287251
31
16.174276
12
-32.916176
22
-2.613727
32
17.983847
13
-28.344948
23
-2.796617
33
17.386133
0
3DFACE
8
Bomb3
62
2.000000
10
-28.344948
20
-2.796617
30
17.386133
11
-32.916176
21
-2.613727
31
17.983847
12
-32.929916
22
-0.650880
32
17.914778
13
-28.361435
23
-0.441198
33
17.303251
0
3DFACE
8
Bomb3
62
2.000000
10
-28.361435
20
-0.441198
30
17.303251
11
-32.929916
21
-0.650880
31
17.914778
12
-33.298351
22
-0.111300
32
16.062529
13
-28.803558
23
0.206297
33
15.080549
0
3DFACE
8
Bomb3
62
2.000000
10
-28.803558
20
0.206297
30
15.080549
11
-33.298351
21
-0.111300
31
16.062529
12
-33.512314
22
-1.740666
32
14.986842
13
-29.060320
23
-1.748944
33
13.789723
0
3DFACE
8
Bomb3
62
2.000000
10
-29.060320
20
-1.748944
30
13.789723
11
-33.512314
21
-1.740666
31
14.986842
12
-33.276119
22
-3.287251
32
16.174276
13
-28.776884
23
-3.604848
33
15.214648
0
3DFACE
8
Bomb3
62
2.000000
10
-12.083206
20
-3.083144
30
12.000310
11
-11.769526
21
-2.496189
31
13.577289
12
-11.781499
22
-0.785633
32
13.517099
13
-11.781499
23
-0.785633
33
13.517099
0
3DFACE
8
Bomb3
62
2.000000
10
-12.083206
20
-3.083144
30
12.000310
11
-11.781499
21
-0.785633
31
13.517099
12
-12.102578
22
-0.315408
32
11.902925
13
-12.102578
23
-0.315408
33
11.902925
0
3DFACE
8
Bomb3
62
2.000000
10
-12.083206
20
-3.083144
30
12.000310
11
-12.102578
21
-0.315408
31
11.902925
12
-12.289044
22
-1.735346
32
10.965499
13
-12.289044
23
-1.735346
33
10.965499
0
3DFACE
8
Bomb3
62
2.000000
10
-33.512314
20
-1.740666
30
14.986842
11
-33.298351
21
-0.111300
31
16.062529
12
-32.929916
22
-0.650880
32
17.914778
13
-32.929916
23
-0.650880
33
17.914778
0
3DFACE
8
Bomb3
62
2.000000
10
-33.512314
20
-1.740666
30
14.986842
11
-32.929916
21
-0.650880
31
17.914778
12
-32.916176
22
-2.613727
32
17.983847
13
-32.916176
23
-2.613727
33
17.983847
0
3DFACE
8
Bomb3
62
2.000000
10
-33.512314
20
-1.740666
30
14.986842
11
-32.916176
21
-2.613727
31
17.983847
12
-33.276119
22
-3.287251
32
16.174276
13
-33.276119
23
-3.287251
33
16.174276
0
3DFACE
8
Bomb3A2
62
3.000000
10
-33.224003
20
-2.594530
30
16.948860
11
-32.768787
21
-6.086705
31
19.237417
12
-30.512980
22
-6.086705
32
18.788710
13
-29.693182
23
-2.594530
33
16.246538
0
3DFACE
8
Bomb3A3
62
4.000000
10
-33.188545
20
-0.325543
30
17.127136
11
-32.609158
21
2.644307
31
20.039923
12
-30.353352
22
2.644307
32
19.591213
13
-29.657719
23
-0.325543
33
16.424814
0
3DFACE
8
Bomb1
62
5.000000
10
-1.420804
20
21.316856
30
15.211726
11
-2.920804
21
16.454685
31
14.240626
12
-2.920804
22
19.103884
32
21.497705
13
-1.420804
23
21.903811
33
16.819599
0
3DFACE
8
Bomb1
62
5.000000
10
-1.420804
20
21.903811
30
16.819599
11
-2.920804
21
19.103884
31
21.497705
12
-2.920804
22
26.824425
32
21.220722
13
-1.420804
23
23.614367
33
16.758230
0
3DFACE
8
Bomb1
62
5.000000
10
-1.420804
20
23.614367
30
16.758230
11
-2.920804
21
26.824425
31
21.220722
12
-2.920804
22
28.946770
32
13.792463
13
-1.420804
23
24.084593
33
15.112432
0
3DFACE
8
Bomb1
62
5.000000
10
-1.420804
20
24.084593
30
15.112432
11
-2.920804
21
28.946770
31
13.792463
12
-2.920804
22
22.537924
32
9.478535
13
-1.420804
23
22.664654
33
14.156642
0
3DFACE
8
Bomb1
62
5.000000
10
-1.420804
20
22.664654
30
14.156642
11
-2.920804
21
22.537924
31
9.478535
12
-2.920804
22
16.454685
32
14.240626
13
-1.420804
23
21.316856
33
15.211726
0
3DFACE
8
Bomb1
62
5.000000
10
-2.920804
20
16.454685
30
14.240626
11
-17.420803
21
16.454685
31
14.240626
12
-17.420803
22
19.103884
32
21.497705
13
-2.920804
23
19.103884
33
21.497705
0
3DFACE
8
Bomb1
62
5.000000
10
-2.920804
20
19.103884
30
21.497705
11
-17.420803
21
19.103884
31
21.497705
12
-17.420803
22
26.824425
32
21.220722
13
-2.920804
23
26.824425
33
21.220722
0
3DFACE
8
Bomb1
62
5.000000
10
-2.920804
20
26.824425
30
21.220722
11
-17.420803
21
26.824425
31
21.220722
12
-17.420803
22
28.946770
32
13.792463
13
-2.920804
23
28.946770
33
13.792463
0
3DFACE
8
Bomb1
62
5.000000
10
-2.920804
20
28.946770
30
13.792463
11
-17.420803
21
28.946770
31
13.792463
12
-17.420803
22
22.537924
32
9.478535
13
-2.920804
23
22.537924
33
9.478535
0
3DFACE
8
Bomb1
62
5.000000
10
-2.920804
20
22.537924
30
9.478535
11
-17.420803
21
22.537924
31
9.478535
12
-17.420803
22
16.454685
32
14.240626
13
-2.920804
23
16.454685
33
14.240626
0
3DFACE
8
Bomb1
62
5.000000
10
-17.420803
20
16.454685
30
14.240626
11
-18.420803
21
20.795151
31
15.107529
12
-18.420803
22
21.603382
32
17.321552
13
-17.420803
23
19.103884
33
21.497705
0
3DFACE
8
Bomb1
62
5.000000
10
-17.420803
20
19.103884
30
21.497705
11
-18.420803
21
21.603382
31
17.321552
12
-18.420803
22
23.958801
32
17.237051
13
-17.420803
23
26.824425
33
21.220722
0
3DFACE
8
Bomb1
62
5.000000
10
-17.420803
20
26.824425
30
21.220722
11
-18.420803
21
23.958801
31
17.237051
12
-18.420803
22
24.606297
32
14.970801
13
-17.420803
23
28.946770
33
13.792463
0
3DFACE
8
Bomb1
62
5.000000
10
-17.420803
20
28.946770
30
13.792463
11
-18.420803
21
24.606297
31
14.970801
12
-18.420803
22
22.651056
32
13.654687
13
-17.420803
23
22.537924
33
9.478535
0
3DFACE
8
Bomb1
62
5.000000
10
-17.420803
20
22.537924
30
9.478535
11
-18.420803
21
22.651056
31
13.654687
12
-18.420803
22
20.795151
32
15.107529
13
-17.420803
23
16.454685
33
14.240626
0
3DFACE
8
Bomb1
62
5.000000
10
-18.420803
20
20.795151
30
15.107529
11
-23.020803
21
21.112747
31
15.170960
12
-23.020803
22
21.786272
32
17.015982
13
-18.420803
23
21.603382
33
17.321552
0
3DFACE
8
Bomb1
62
5.000000
10
-18.420803
20
21.603382
30
17.321552
11
-23.020803
21
21.786272
31
17.015982
12
-23.020803
22
23.749121
32
16.945560
13
-18.420803
23
23.958801
33
17.237051
0
3DFACE
8
Bomb1
62
5.000000
10
-18.420803
20
23.958801
30
17.237051
11
-23.020803
21
23.749121
31
16.945560
12
-23.020803
22
24.288700
32
15.057022
13
-18.420803
23
24.606297
33
14.970801
0
3DFACE
8
Bomb1
62
5.000000
10
-18.420803
20
24.606297
30
14.970801
11
-23.020803
21
24.288700
31
15.057022
12
-23.020803
22
22.659334
32
13.960260
13
-18.420803
23
22.651056
33
13.654687
0
3DFACE
8
Bomb1
62
5.000000
10
-18.420803
20
22.651056
30
13.654687
11
-23.020803
21
22.659334
31
13.960260
12
-23.020803
22
21.112747
32
15.170960
13
-18.420803
23
20.795151
33
15.107529
0
3DFACE
8
Bomb1
62
5.000000
10
-1.420804
20
21.316856
30
15.211726
11
-1.420804
21
21.903811
31
16.819599
12
-1.420804
22
23.614367
32
16.758230
13
-1.420804
23
23.614367
33
16.758230
0
3DFACE
8
Bomb1
62
5.000000
10
-1.420804
20
21.316856
30
15.211726
11
-1.420804
21
23.614367
31
16.758230
12
-1.420804
22
24.084593
32
15.112432
13
-1.420804
23
24.084593
33
15.112432
0
3DFACE
8
Bomb1
62
5.000000
10
-1.420804
20
21.316856
30
15.211726
11
-1.420804
21
24.084593
31
15.112432
12
-1.420804
22
22.664654
32
14.156642
13
-1.420804
23
22.664654
33
14.156642
0
3DFACE
8
Bomb1
62
5.000000
10
-23.020803
20
22.659334
30
13.960260
11
-23.020803
21
24.288700
31
15.057022
12
-23.020803
22
23.749121
32
16.945560
13
-23.020803
23
23.749121
33
16.945560
0
3DFACE
8
Bomb1
62
5.000000
10
-23.020803
20
22.659334
30
13.960260
11
-23.020803
21
23.749121
31
16.945560
12
-23.020803
22
21.786272
32
17.015982
13
-23.020803
23
21.786272
33
17.015982
0
3DFACE
8
Bomb1
62
5.000000
10
-23.020803
20
22.659334
30
13.960260
11
-23.020803
21
21.786272
31
17.015982
12
-23.020803
22
21.112747
32
15.170960
13
-23.020803
23
21.112747
33
15.170960
0
3DFACE
8
Bomb1A2
62
6.000000
10
-23.120804
20
21.805470
30
15.940828
11
-23.120804
21
18.313295
31
18.274221
12
-20.820803
22
18.313295
32
18.274221
13
-19.520805
23
21.805470
33
15.940828
0
3DFACE
8
Bomb1A3
62
7.000000
10
-23.120804
20
24.074457
30
16.122599
11
-23.120804
21
27.044306
31
19.092447
12
-20.820803
22
27.044306
32
19.092447
13
-19.520805
23
24.074457
33
16.122599
0
3DFACE
8
Bomb1A1
62
8.000000
10
-23.120804
20
22.759382
30
14.007524
11
-23.120804
21
22.759382
31
9.807526
12
-20.820803
22
22.759382
32
9.807526
13
-19.520805
23
22.759382
33
14.007524
0
3DFACE
8
Bomb2
62
9.000000
10
-1.420804
20
-28.583141
30
15.211726
11
-2.920804
21
-33.445312
31
14.240626
12
-2.920804
22
-30.796112
32
21.497705
13
-1.420804
23
-27.996187
33
16.819599
0
3DFACE
8
Bomb2
62
9.000000
10
-1.420804
20
-27.996187
30
16.819599
11
-2.920804
21
-30.796112
31
21.497705
12
-2.920804
22
-23.075573
32
21.220722
13
-1.420804
23
-26.285629
33
16.758230
0
3DFACE
8
Bomb2
62
9.000000
10
-1.420804
20
-26.285629
30
16.758230
11
-2.920804
21
-23.075573
31
21.220722
12
-2.920804
22
-20.953226
32
13.792463
13
-1.420804
23
-25.815405
33
15.112432
0
3DFACE
8
Bomb2
62
9.000000
10
-1.420804
20
-25.815405
30
15.112432
11
-2.920804
21
-20.953226
31
13.792463
12
-2.920804
22
-27.362072
32
9.478535
13
-1.420804
23
-27.235344
33
14.156642
0
3DFACE
8
Bomb2
62
9.000000
10
-1.420804
20
-27.235344
30
14.156642
11
-2.920804
21
-27.362072
31
9.478535
12
-2.920804
22
-33.445312
32
14.240626
13
-1.420804
23
-28.583141
33
15.211726
0
3DFACE
8
Bomb2
62
9.000000
10
-2.920804
20
-33.445312
30
14.240626
11
-17.420803
21
-33.445312
31
14.240626
12
-17.420803
22
-30.796112
32
21.497705
13
-2.920804
23
-30.796112
33
21.497705
0
3DFACE
8
Bomb2
62
9.000000
10
-2.920804
20
-30.796112
30
21.497705
11
-17.420803
21
-30.796112
31
21.497705
12
-17.420803
22
-23.075573
32
21.220722
13
-2.920804
23
-23.075573
33
21.220722
0
3DFACE
8
Bomb2
62
9.000000
10
-2.920804
20
-23.075573
30
21.220722
11
-17.420803
21
-23.075573
31
21.220722
12
-17.420803
22
-20.953226
32
13.792463
13
-2.920804
23
-20.953226
33
13.792463
0
3DFACE
8
Bomb2
62
9.000000
10
-2.920804
20
-20.953226
30
13.792463
11
-17.420803
21
-20.953226
31
13.792463
12
-17.420803
22
-27.362072
32
9.478535
13
-2.920804
23
-27.362072
33
9.478535
0
3DFACE
8
Bomb2
62
9.000000
10
-2.920804
20
-27.362072
30
9.478535
11
-17.420803
21
-27.362072
31
9.478535
12
-17.420803
22
-33.445312
32
14.240626
13
-2.920804
23
-33.445312
33
14.240626
0
3DFACE
8
Bomb2
62
9.000000
10
-17.420803
20
-33.445312
30
14.240626
11
-18.420803
21
-29.104845
31
15.107529
12
-18.420803
22
-28.296614
32
17.321552
13
-17.420803
23
-30.796112
33
21.497705
0
3DFACE
8
Bomb2
62
9.000000
10
-17.420803
20
-30.796112
30
21.497705
11
-18.420803
21
-28.296614
31
17.321552
12
-18.420803
22
-25.941196
32
17.237051
13
-17.420803
23
-23.075573
33
21.220722
0
3DFACE
8
Bomb2
62
9.000000
10
-17.420803
20
-23.075573
30
21.220722
11
-18.420803
21
-25.941196
31
17.237051
12
-18.420803
22
-25.293701
32
14.970801
13
-17.420803
23
-20.953226
33
13.792463
0
3DFACE
8
Bomb2
62
9.000000
10
-17.420803
20
-20.953226
30
13.792463
11
-18.420803
21
-25.293701
31
14.970801
12
-18.420803
22
-27.248941
32
13.654687
13
-17.420803
23
-27.362072
33
9.478535
0
3DFACE
8
Bomb2
62
9.000000
10
-17.420803
20
-27.362072
30
9.478535
11
-18.420803
21
-27.248941
31
13.654687
12
-18.420803
22
-29.104845
32
15.107529
13
-17.420803
23
-33.445312
33
14.240626
0
3DFACE
8
Bomb2
62
9.000000
10
-18.420803
20
-29.104845
30
15.107529
11
-23.020803
21
-28.787249
31
15.170960
12
-23.020803
22
-28.113724
32
17.015982
13
-18.420803
23
-28.296614
33
17.321552
0
3DFACE
8
Bomb2
62
9.000000
10
-18.420803
20
-28.296614
30
17.321552
11
-23.020803
21
-28.113724
31
17.015982
12
-23.020803
22
-26.150877
32
16.945560
13
-18.420803
23
-25.941196
33
17.237051
0
3DFACE
8
Bomb2
62
9.000000
10
-18.420803
20
-25.941196
30
17.237051
11
-23.020803
21
-26.150877
31
16.945560
12
-23.020803
22
-25.611298
32
15.057022
13
-18.420803
23
-25.293701
33
14.970801
0
3DFACE
8
Bomb2
62
9.000000
10
-18.420803
20
-25.293701
30
14.970801
11
-23.020803
21
-25.611298
31
15.057022
12
-23.020803
22
-27.240664
32
13.960260
13
-18.420803
23
-27.248941
33
13.654687
0
3DFACE
8
Bomb2
62
9.000000
10
-18.420803
20
-27.248941
30
13.654687
11
-23.020803
21
-27.240664
31
13.960260
12
-23.020803
22
-28.787249
32
15.170960
13
-18.420803
23
-29.104845
33
15.107529
0
3DFACE
8
Bomb2
62
9.000000
10
-1.420804
20
-28.583141
30
15.211726
11
-1.420804
21
-27.996187
31
16.819599
12
-1.420804
22
-26.285629
32
16.758230
13
-1.420804
23
-26.285629
33
16.758230
0
3DFACE
8
Bomb2
62
9.000000
10
-1.420804
20
-28.583141
30
15.211726
11
-1.420804
21
-26.285629
31
16.758230
12
-1.420804
22
-25.815405
32
15.112432
13
-1.420804
23
-25.815405
33
15.112432
0
3DFACE
8
Bomb2
62
9.000000
10
-1.420804
20
-28.583141
30
15.211726
11
-1.420804
21
-25.815405
31
15.112432
12
-1.420804
22
-27.235344
32
14.156642
13
-1.420804
23
-27.235344
33
14.156642
0
3DFACE
8
Bomb2
62
9.000000
10
-23.020803
20
-27.240664
30
13.960260
11
-23.020803
21
-25.611298
31
15.057022
12
-23.020803
22
-26.150877
32
16.945560
13
-23.020803
23
-26.150877
33
16.945560
0
3DFACE
8
Bomb2
62
9.000000
10
-23.020803
20
-27.240664
30
13.960260
11
-23.020803
21
-26.150877
31
16.945560
12
-23.020803
22
-28.113724
32
17.015982
13
-23.020803
23
-28.113724
33
17.015982
0
3DFACE
8
Bomb2
62
9.000000
10
-23.020803
20
-27.240664
30
13.960260
11
-23.020803
21
-28.113724
31
17.015982
12
-23.020803
22
-28.787249
32
15.170960
13
-23.020803
23
-28.787249
33
15.170960
0
3DFACE
8
Bomb2A2
62
10.000000
10
-23.120804
20
-28.094528
30
15.940828
11
-23.120804
21
-31.586702
31
18.274221
12
-20.820803
22
-31.586702
32
18.274221
13
-19.520805
23
-28.094528
33
15.940828
0
3DFACE
8
Bomb2A3
62
11.000000
10
-23.120804
20
-25.825541
30
16.122599
11
-23.120804
21
-22.855690
31
19.092447
12
-20.820803
22
-22.855690
32
19.092447
13
-19.520805
23
-25.825541
33
16.122599
0
3DFACE
8
Bomb2A1
62
12.000000
10
-23.120804
20
-27.140615
30
14.007524
11
-23.120804
21
-27.140615
31
9.807526
12
-20.820803
22
-27.140615
32
9.807526
13
-19.520805
23
-27.140615
33
14.007524
0
3DFACE
8
RoueD
62
13.000000
10
-2.641482
20
14.452275
30
3.712880
11
-2.640310
21
11.413540
31
3.099555
12
1.518675
22
10.909882
32
5.631624
13
1.510868
23
13.949420
33
6.240909
0
3DFACE
8
RoueD
62
13.000000
10
1.510868
20
13.949420
30
6.240909
11
1.518675
21
10.909882
31
5.631624
12
2.093325
22
9.961495
32
10.399489
13
2.084602
23
13.002546
33
11.001168
0
3DFACE
8
RoueD
62
13.000000
10
2.084602
20
13.002546
30
11.001168
11
2.093325
21
9.961495
31
10.399489
12
-1.349082
22
9.282537
32
13.812853
13
-1.352314
23
12.324671
33
14.409086
0
3DFACE
8
RoueD
62
13.000000
10
-1.352314
20
12.324671
30
14.409086
11
-1.349082
21
9.282537
31
13.812853
12
-6.216345
22
9.384275
32
13.301381
13
-6.211812
23
12.426247
33
13.898430
0
3DFACE
8
RoueD
62
13.000000
10
-6.211812
20
12.426247
30
13.898430
11
-6.216345
21
9.384275
31
13.301381
12
-8.843315
22
10.190099
32
9.250222
13
-8.834592
23
13.230785
33
9.853734
0
3DFACE
8
RoueD
62
13.000000
10
-8.834592
20
13.230785
30
9.853734
11
-8.843315
21
10.190099
31
9.250222
12
-7.251829
22
11.093206
32
4.709982
13
-7.245645
23
14.132452
33
5.320738
0
3DFACE
8
RoueD
62
13.000000
10
-7.245645
20
14.132452
30
5.320738
11
-7.251829
21
11.093206
31
4.709982
12
-2.640310
22
11.413540
32
3.099555
13
-2.641482
23
14.452275
33
3.712880
0
3DFACE
8
RoueD
62
13.000000
10
-7.251829
20
11.093206
30
4.709982
11
-8.843315
21
10.190099
31
9.250222
12
-6.216345
22
9.384275
32
13.301381
13
-6.216345
23
9.384275
33
13.301381
0
3DFACE
8
RoueD
62
13.000000
10
-7.251829
20
11.093206
30
4.709982
11
-6.216345
21
9.384275
31
13.301381
12
-1.349082
22
9.282537
32
13.812853
13
-1.349082
23
9.282537
33
13.812853
0
3DFACE
8
RoueD
62
13.000000
10
-7.251829
20
11.093206
30
4.709982
11
-1.349082
21
9.282537
31
13.812853
12
2.093325
22
9.961495
32
10.399489
13
2.093325
23
9.961495
33
10.399489
0
3DFACE
8
RoueD
62
13.000000
10
-7.251829
20
11.093206
30
4.709982
11
2.093325
21
9.961495
31
10.399489
12
1.518675
22
10.909882
32
5.631624
13
1.518675
23
10.909882
33
5.631624
0
3DFACE
8
RoueD
62
13.000000
10
-7.251829
20
11.093206
30
4.709982
11
1.518675
21
10.909882
31
5.631624
12
-2.640310
22
11.413540
32
3.099555
13
-2.640310
23
11.413540
33
3.099555
0
3DFACE
8
RoueD
62
13.000000
10
-2.641482
20
14.452275
30
3.712880
11
1.510868
21
13.949420
31
6.240909
12
2.084602
22
13.002546
32
11.001168
13
2.084602
23
13.002546
33
11.001168
0
3DFACE
8
RoueD
62
13.000000
10
-2.641482
20
14.452275
30
3.712880
11
2.084602
21
13.002546
31
11.001168
12
-1.352314
22
12.324671
32
14.409086
13
-1.352314
23
12.324671
33
14.409086
0
3DFACE
8
RoueD
62
13.000000
10
-2.641482
20
14.452275
30
3.712880
11
-1.352314
21
12.324671
31
14.409086
12
-6.211812
22
12.426247
32
13.898430
13
-6.211812
23
12.426247
33
13.898430
0
3DFACE
8
RoueD
62
13.000000
10
-2.641482
20
14.452275
30
3.712880
11
-6.211812
21
12.426247
31
13.898430
12
-8.834592
22
13.230785
32
9.853734
13
-8.834592
23
13.230785
33
9.853734
0
3DFACE
8
RoueD
62
13.000000
10
-2.641482
20
14.452275
30
3.712880
11
-8.834592
21
13.230785
31
9.853734
12
-7.245645
22
14.132452
32
5.320738
13
-7.245645
23
14.132452
33
5.320738
0
3DFACE
8
PiedRD
62
14.000000
10
-5.089271
20
1.266352
30
16.950890
11
-5.089271
21
4.602172
31
9.927791
12
-4.582091
22
5.823351
32
11.373989
13
-4.582091
23
3.159172
33
16.950890
0
3DFACE
8
PiedRD
62
14.000000
10
-4.582091
20
3.159172
30
16.950890
11
-4.582091
21
5.823351
31
11.373989
12
-3.196451
22
4.929386
32
10.315299
13
-3.196451
23
1.773531
33
16.950890
0
3DFACE
8
PiedRD
62
14.000000
10
-3.196451
20
1.773531
30
16.950890
11
-3.196451
21
4.929386
31
10.315299
12
-5.089271
22
4.602172
32
9.927791
13
-5.089271
23
1.266352
33
16.950890
0
3DFACE
8
PiedRD
62
14.000000
10
-5.089271
20
4.602172
30
9.927791
11
-5.089271
21
10.954766
31
8.040323
12
-4.582091
22
11.470757
32
9.861456
13
-4.582091
23
5.823351
33
11.373989
0
3DFACE
8
PiedRD
62
14.000000
10
-4.582091
20
5.823351
30
11.373989
11
-4.582091
21
11.470757
31
9.861456
12
-3.196451
22
11.093025
32
8.528295
13
-3.196451
23
4.929386
33
10.315299
0
3DFACE
8
PiedRD
62
14.000000
10
-3.196451
20
4.929386
30
10.315299
11
-3.196451
21
11.093025
31
8.528295
12
-5.089271
22
10.954766
32
8.040323
13
-5.089271
23
4.602172
33
9.927791
0
3DFACE
8
RoueG
62
15.000000
10
1.510868
20
-18.216715
30
6.240909
11
1.518675
21
-15.177176
31
5.631624
12
-2.640310
22
-15.680836
32
3.099555
13
-2.641482
23
-18.719570
33
3.712880
0
3DFACE
8
RoueG
62
15.000000
10
2.084602
20
-17.269842
30
11.001168
11
2.093325
21
-14.228790
31
10.399489
12
1.518675
22
-15.177176
32
5.631624
13
1.510868
23
-18.216715
33
6.240909
0
3DFACE
8
RoueG
62
15.000000
10
-1.352314
20
-16.591967
30
14.409086
11
-1.349082
21
-13.549831
31
13.812853
12
2.093325
22
-14.228790
32
10.399489
13
2.084602
23
-17.269842
33
11.001168
0
3DFACE
8
RoueG
62
15.000000
10
-6.211812
20
-16.693541
30
13.898430
11
-6.216345
21
-13.651569
31
13.301381
12
-1.349082
22
-13.549831
32
13.812853
13
-1.352314
23
-16.591967
33
14.409086
0
3DFACE
8
RoueG
62
15.000000
10
-8.834592
20
-17.498081
30
9.853734
11
-8.843315
21
-14.457395
31
9.250222
12
-6.216345
22
-13.651569
32
13.301381
13
-6.211812
23
-16.693541
33
13.898430
0
3DFACE
8
RoueG
62
15.000000
10
-7.245645
20
-18.399748
30
5.320738
11
-7.251829
21
-15.360502
31
4.709982
12
-8.843315
22
-14.457395
32
9.250222
13
-8.834592
23
-17.498081
33
9.853734
0
3DFACE
8
RoueG
62
15.000000
10
-2.641482
20
-18.719570
30
3.712880
11
-2.640310
21
-15.680836
31
3.099555
12
-7.251829
22
-15.360502
32
4.709982
13
-7.245645
23
-18.399748
33
5.320738
0
3DFACE
8
RoueG
62
15.000000
10
-2.640310
20
-15.680836
30
3.099555
11
1.518675
21
-15.177176
31
5.631624
12
2.093325
22
-14.228790
32
10.399489
13
2.093325
23
-14.228790
33
10.399489
0
3DFACE
8
RoueG
62
15.000000
10
-2.640310
20
-15.680836
30
3.099555
11
2.093325
21
-14.228790
31
10.399489
12
-1.349082
22
-13.549831
32
13.812853
13
-1.349082
23
-13.549831
33
13.812853
0
3DFACE
8
RoueG
62
15.000000
10
-2.640310
20
-15.680836
30
3.099555
11
-1.349082
21
-13.549831
31
13.812853
12
-6.216345
22
-13.651569
32
13.301381
13
-6.216345
23
-13.651569
33
13.301381
0
3DFACE
8
RoueG
62
15.000000
10
-2.640310
20
-15.680836
30
3.099555
11
-6.216345
21
-13.651569
31
13.301381
12
-8.843315
22
-14.457395
32
9.250222
13
-8.843315
23
-14.457395
33
9.250222
0
3DFACE
8
RoueG
62
15.000000
10
-2.640310
20
-15.680836
30
3.099555
11
-8.843315
21
-14.457395
31
9.250222
12
-7.251829
22
-15.360502
32
4.709982
13
-7.251829
23
-15.360502
33
4.709982
0
3DFACE
8
RoueG
62
15.000000
10
-7.245645
20
-18.399748
30
5.320738
11
-8.834592
21
-17.498081
31
9.853734
12
-6.211812
22
-16.693541
32
13.898430
13
-6.211812
23
-16.693541
33
13.898430
0
3DFACE
8
RoueG
62
15.000000
10
-7.245645
20
-18.399748
30
5.320738
11
-6.211812
21
-16.693541
31
13.898430
12
-1.352314
22
-16.591967
32
14.409086
13
-1.352314
23
-16.591967
33
14.409086
0
3DFACE
8
RoueG
62
15.000000
10
-7.245645
20
-18.399748
30
5.320738
11
-1.352314
21
-16.591967
31
14.409086
12
2.084602
22
-17.269842
32
11.001168
13
2.084602
23
-17.269842
33
11.001168
0
3DFACE
8
RoueG
62
15.000000
10
-7.245645
20
-18.399748
30
5.320738
11
2.084602
21
-17.269842
31
11.001168
12
1.510868
22
-18.216715
32
6.240909
13
1.510868
23
-18.216715
33
6.240909
0
3DFACE
8
RoueG
62
15.000000
10
-7.245645
20
-18.399748
30
5.320738
11
1.510868
21
-18.216715
31
6.240909
12
-2.641482
22
-18.719570
32
3.712880
13
-2.641482
23
-18.719570
33
3.712880
0
3DFACE
8
PiedRG
62
16.000000
10
-4.582091
20
-7.426467
30
16.950890
11
-4.582091
21
-10.090646
31
11.373989
12
-5.089271
22
-8.869469
32
9.927791
13
-5.089271
23
-5.533647
33
16.950890
0
3DFACE
8
PiedRG
62
16.000000
10
-3.196451
20
-6.040826
30
16.950890
11
-3.196451
21
-9.196681
31
10.315299
12
-4.582091
22
-10.090646
32
11.373989
13
-4.582091
23
-7.426467
33
16.950890
0
3DFACE
8
PiedRG
62
16.000000
10
-5.089271
20
-5.533647
30
16.950890
11
-5.089271
21
-8.869469
31
9.927791
12
-3.196451
22
-9.196681
32
10.315299
13
-3.196451
23
-6.040826
33
16.950890
0
3DFACE
8
PiedRG
62
16.000000
10
-4.582091
20
-10.090646
30
11.373989
11
-4.582091
21
-15.738051
31
9.861456
12
-5.089271
22
-15.222061
32
8.040323
13
-5.089271
23
-8.869469
33
9.927791
0
3DFACE
8
PiedRG
62
16.000000
10
-3.196451
20
-9.196681
30
10.315299
11
-3.196451
21
-15.360320
31
8.528295
12
-4.582091
22
-15.738051
32
9.861456
13
-4.582091
23
-10.090646
33
11.373989
0
3DFACE
8
PiedRG
62
16.000000
10
-5.089271
20
-8.869469
30
9.927791
11
-5.089271
21
-15.222061
31
8.040323
12
-3.196451
22
-15.360320
32
8.528295
13
-3.196451
23
-9.196681
33
10.315299
0
3DFACE
8
Gouv
62
17.000000
10
-27.804640
20
-1.576776
30
34.337315
11
-35.823612
21
-1.576776
31
57.809124
12
-43.597698
22
-1.576776
32
61.057629
13
-43.597698
23
-1.576776
33
61.057629
0
3DFACE
8
Gouv
62
17.000000
10
-27.804640
20
-1.576776
30
34.337315
11
-43.597698
21
-1.576776
31
61.057629
12
-50.152454
22
-1.576776
32
56.819798
13
-50.152454
23
-1.576776
33
56.819798
0
3DFACE
8
Gouv
62
17.000000
10
-27.804640
20
-1.576776
30
34.337315
11
-50.152454
21
-1.576776
31
56.819798
12
-54.623623
22
-1.576776
32
47.814079
13
-54.623623
23
-1.576776
33
47.814079
0
3DFACE
8
Gouv
62
17.000000
10
-27.804640
20
-1.576776
30
34.337315
11
-54.623623
21
-1.576776
31
47.814079
12
-55.617142
22
-1.714411
32
36.835926
13
-55.617142
23
-1.714411
33
36.835926
0
3DFACE
8
Capot
62
18.000000
10
16.115440
20
3.527796
30
31.022007
11
16.115440
21
-6.872205
31
31.022007
12
12.315440
22
-10.612553
32
35.122002
13
12.315440
23
7.268144
33
35.122002
0
3DFACE
8
Capot
62
18.000000
10
16.115440
20
-6.872205
30
31.022007
11
16.115440
21
-6.872205
31
19.622007
12
12.315440
22
-10.612553
32
15.522010
13
12.315440
23
-10.612553
33
35.122002
0
3DFACE
8
Capot
62
18.000000
10
16.115440
20
-6.872205
30
19.622007
11
16.115440
21
3.527796
31
19.622007
12
12.315440
22
7.268144
32
15.522010
13
12.315440
23
-10.612553
33
15.522010
0
3DFACE
8
Capot
62
18.000000
10
16.115440
20
3.527796
30
19.622007
11
16.115440
21
3.527796
31
31.022007
12
12.315440
22
7.268144
32
35.122002
13
12.315440
23
7.268144
33
15.522010
0
3DFACE
8
Capot
62
18.000000
10
12.315440
20
7.268144
30
35.122002
11
12.315440
21
-10.612553
31
35.122002
12
-3.384560
22
-9.335361
32
33.722004
13
-3.384560
23
5.990952
33
33.722004
0
3DFACE
8
Capot
62
18.000000
10
12.315440
20
-10.612553
30
35.122002
11
12.315440
21
-10.612553
31
15.522010
12
-3.384560
22
-9.335361
32
16.922010
13
-3.384560
23
-9.335361
33
33.722004
0
3DFACE
8
Capot
62
18.000000
10
12.315440
20
-10.612553
30
15.522010
11
12.315440
21
7.268144
31
15.522010
12
-3.384560
22
5.990952
32
16.922010
13
-3.384560
23
-9.335361
33
16.922010
0
3DFACE
8
Capot
62
18.000000
10
12.315440
20
7.268144
30
15.522010
11
12.315440
21
7.268144
31
35.122002
12
-3.384560
22
5.990952
32
33.722004
13
-3.384560
23
5.990952
33
16.922010
0
3DFACE
8
Capot
62
18.000000
10
16.115440
20
3.527796
30
19.622007
11
16.115440
21
-6.872205
31
19.622007
12
16.115440
22
-6.872205
32
31.022007
13
16.115440
23
3.527796
33
31.022007
0
3DFACE
8
Cabine
62
19.000000
10
-3.384560
20
-9.335361
30
33.722004
11
-3.384560
21
-9.335361
31
16.922010
12
-23.784559
22
-8.099594
32
16.922007
13
-23.784559
23
-8.099594
33
33.722008
0
3DFACE
8
Cabine
62
19.000000
10
-3.384560
20
-9.335361
30
16.922010
11
-3.384560
21
5.990952
31
16.922010
12
-23.784559
22
4.755186
32
16.922007
13
-23.784559
23
-8.099594
33
16.922007
0
3DFACE
8
Cabine
62
19.000000
10
-3.384560
20
5.990952
30
16.922010
11
-3.384560
21
5.990952
31
33.722004
12
-23.784559
22
4.755186
32
33.722008
13
-23.784559
23
4.755186
33
16.922007
0
3DFACE
8
Cabine
62
19.000000
10
-3.384560
20
5.990952
30
33.722004
11
-3.384560
21
-9.335361
31
33.722004
12
-23.784559
22
-8.099594
32
33.722008
13
-23.784559
23
4.755186
33
33.722008
0
3DFACE
8
Queue
62
20.000000
10
-23.784559
20
-8.099594
30
16.922007
11
-23.784559
21
4.755186
31
16.922007
12
-55.384556
22
-1.644922
32
28.022007
13
-55.384556
23
-1.699486
33
28.022007
0
3DFACE
8
Queue
62
20.000000
10
-23.784559
20
4.755186
30
16.922007
11
-23.784559
21
4.755186
31
33.722008
12
-55.384556
22
-1.644922
32
37.222008
13
-55.384556
23
-1.644922
33
28.022007
0
3DFACE
8
Queue
62
20.000000
10
-23.784559
20
4.755186
30
33.722008
11
-23.784559
21
-8.099594
31
33.722008
12
-55.384556
22
-1.699486
32
37.222008
13
-55.384556
23
-1.644922
33
37.222008
0
3DFACE
8
Queue
62
20.000000
10
-23.784559
20
-8.099594
30
33.722008
11
-23.784559
21
-8.099594
31
16.922007
12
-55.384556
22
-1.699486
32
28.022007
13
-55.384556
23
-1.699486
33
37.222008
0
3DFACE
8
Hel2
62
21.000000
10
21.378027
20
-0.676514
30
28.102488
11
21.378027
21
0.927104
31
36.550816
12
21.378027
22
3.621217
32
40.350876
13
21.378027
23
3.621217
33
40.350876
0
3DFACE
8
Hel2
62
21.000000
10
21.378027
20
-0.676514
30
28.102488
11
21.378027
21
3.621217
31
40.350876
12
21.378027
22
5.698845
32
40.344738
13
21.378027
23
5.698845
33
40.344738
0
3DFACE
8
Hel2
62
21.000000
10
21.378027
20
-0.676514
30
28.102488
11
21.378027
21
5.698845
31
40.344738
12
21.378027
22
6.835608
32
38.580120
13
21.378027
23
6.835608
33
38.580120
0
3DFACE
8
Hel2
62
21.000000
10
21.378027
20
-0.676514
30
28.102488
11
21.378027
21
6.835608
31
38.580120
12
21.378027
22
6.168338
32
36.403809
13
21.378027
23
6.168338
33
36.403809
0
3DFACE
8
Hel2
62
21.000000
10
21.378027
20
-0.676514
30
28.102488
11
21.378027
21
6.168338
31
36.403809
12
21.378027
22
0.751097
32
27.556494
13
21.378027
23
0.751097
33
27.556494
0
3DFACE
8
Hel1
62
22.000000
10
21.378027
20
-3.101498
30
21.730307
11
21.378027
21
-4.102404
31
16.311777
12
21.378027
22
-5.892589
32
10.853846
13
21.378027
23
-5.892589
33
10.853846
0
3DFACE
8
Hel1
62
22.000000
10
21.378027
20
-3.101498
30
21.730307
11
21.378027
21
-5.892589
31
10.853846
12
21.378027
22
-7.399230
32
9.481915
13
21.378027
23
-7.399230
33
9.481915
0
3DFACE
8
Hel1
62
22.000000
10
21.378027
20
-3.101498
30
21.730307
11
21.378027
21
-7.399230
31
9.481915
12
21.378027
22
-9.476857
32
9.488050
13
21.378027
23
-9.476857
33
9.488050
0
3DFACE
8
Hel1
62
22.000000
10
21.378027
20
-3.101498
30
21.730307
11
21.378027
21
-9.476857
31
9.488050
12
21.378027
22
-10.613622
32
11.252668
13
21.378027
23
-10.613622
33
11.252668
0
3DFACE
8
Hel1
62
22.000000
10
21.378027
20
-3.101498
30
21.730307
11
21.378027
21
-10.613622
31
11.252668
12
21.378027
22
-7.780353
32
18.013376
13
21.378027
23
-7.780353
33
18.013376
0
3DFACE
8
Hel1
62
22.000000
10
21.378027
20
-3.101498
30
21.730307
11
21.378027
21
-7.780353
31
18.013376
12
21.378027
22
-4.529108
32
22.276295
13
21.378027
23
-4.529108
33
22.276295
0
3DFACE
8
Moyeux
62
23.000000
10
16.536348
20
-1.889005
30
30.440907
11
16.536348
21
-1.889005
31
30.440907
12
16.536348
22
2.968049
32
24.996458
13
23.336351
23
-1.889006
33
24.996458
0
3DFACE
8
Moyeux
62
23.000000
10
23.336351
20
-1.889006
30
24.996458
11
16.536348
21
2.968049
31
24.996458
12
16.536348
22
-1.889005
32
19.552008
13
16.536348
23
-1.889005
33
19.552008
0
3DFACE
8
Moyeux
62
23.000000
10
16.536348
20
-1.889005
30
30.440907
11
16.536348
21
-1.889005
31
30.440907
12
23.336351
22
-1.889006
32
24.996458
13
16.536348
23
-6.746060
33
24.996458
0
3DFACE
8
Moyeux
62
23.000000
10
16.536348
20
-6.746060
30
24.996458
11
23.336351
21
-1.889006
31
24.996458
12
16.536348
22
-1.889005
32
19.552008
13
16.536348
23
-1.889005
33
19.552008
0
3DFACE
8
Bomb3A1
62
24.000000
10
-34.101173
20
-1.640617
30
18.152706
11
-34.920555
21
-1.640617
31
14.033409
12
-32.664753
22
-1.640617
32
13.584701
13
-30.570351
23
-1.640617
33
17.450380
0
3DFACE
8
AileD
62
25.000000
10
-28.688826
20
5.092241
30
19.763529
11
-23.137011
21
42.300148
31
24.105751
12
-15.163883
22
50.201603
32
26.349213
13
-15.163883
23
50.201603
33
26.349213
0
3DFACE
8
AileD
62
25.000000
10
-28.688826
20
5.092241
30
19.763529
11
-15.163883
21
50.201603
31
26.349213
12
-7.836185
22
49.768185
32
27.131470
13
-7.836185
23
49.768185
33
27.131470
0
3DFACE
8
AileD
62
25.000000
10
-28.688826
20
5.092241
30
19.763529
11
-7.836185
21
49.768185
31
27.131470
12
-1.736548
22
42.300148
32
26.399746
13
-1.736548
23
42.300148
33
26.399746
0
3DFACE
8
AileD
62
25.000000
10
-28.688826
20
5.092241
30
19.763529
11
-1.736548
21
42.300148
31
26.399746
12
1.629386
22
26.411930
32
24.784712
13
1.629386
23
26.411930
33
24.784712
0
3DFACE
8
AileD
62
25.000000
10
-28.688826
20
5.092241
30
19.763529
11
1.629386
21
26.411930
31
24.784712
12
3.208273
22
5.227642
32
22.829075
13
3.208273
23
5.227642
33
22.829075
0
3DFACE
8
AileG
62
26.000000
10
3.208273
20
-8.872357
30
22.829075
11
1.629386
21
-30.241703
31
24.784712
12
-1.736548
22
-46.268715
32
26.399746
13
-1.736548
23
-46.268715
33
26.399746
0
3DFACE
8
AileG
62
26.000000
10
3.208273
20
-8.872357
30
22.829075
11
-1.736548
21
-46.268715
31
26.399746
12
-7.836185
22
-53.801991
32
27.131470
13
-7.836185
23
-53.801991
33
27.131470
0
3DFACE
8
AileG
62
26.000000
10
3.208273
20
-8.872357
30
22.829075
11
-7.836185
21
-53.801991
31
27.131470
12
-15.163883
22
-54.239193
32
26.349213
13
-15.163883
23
-54.239193
33
26.349213
0
3DFACE
8
AileG
62
26.000000
10
3.208273
20
-8.872357
30
22.829075
11
-15.163883
21
-54.239193
31
26.349213
12
-23.137011
22
-46.268715
32
24.105751
13
-23.137011
23
-46.268715
33
24.105751
0
3DFACE
8
AileG
62
26.000000
10
3.208273
20
-8.872357
30
22.829075
11
-23.137011
21
-46.268715
31
24.105751
12
-28.688826
22
-8.975193
32
19.763529
13
-28.688826
23
-8.975193
33
19.763529
0
3DFACE
8
StabG
62
27.000000
10
-35.048527
20
-3.807783
30
31.718798
11
-28.551184
21
-7.326331
31
31.120960
12
-31.004707
22
-18.897253
32
31.667862
13
-31.004707
23
-18.897253
33
31.667862
0
3DFACE
8
StabG
62
27.000000
10
-35.048527
20
-3.807783
30
31.718798
11
-31.004707
21
-18.897253
31
31.667862
12
-38.720470
22
-23.934954
32
32.458736
13
-38.720470
23
-23.934954
33
32.458736
0
3DFACE
8
StabG
62
27.000000
10
-35.048527
20
-3.807783
30
31.718798
11
-38.720470
21
-23.934954
31
32.458736
12
-47.833710
22
-23.856728
32
32.458736
13
-47.833710
23
-23.856728
33
32.458736
0
3DFACE
8
StabG
62
27.000000
10
-35.048527
20
-3.807783
30
31.718798
11
-47.833710
21
-23.856728
31
32.458736
12
-52.973373
22
-18.897253
32
33.377861
13
-52.973373
23
-18.897253
33
33.377861
0
3DFACE
8
StabG
62
27.000000
10
-35.048527
20
-3.807783
30
31.718798
11
-52.973373
21
-18.897253
31
33.377861
12
-54.449879
22
-2.671928
32
33.718735
13
-54.449879
23
-2.671928
33
33.718735
0
3DFACE
8
StabD
62
28.000000
10
-35.278557
20
1.474009
30
32.585049
11
-54.977348
21
-0.593230
31
33.468166
12
-52.973373
22
15.430802
32
33.377861
13
-52.973373
23
15.430802
33
33.377861
0
3DFACE
8
StabD
62
28.000000
10
-35.278557
20
1.474009
30
32.585049
11
-52.973373
21
15.430802
31
33.377861
12
-47.833710
22
20.390274
32
32.458736
13
-47.833710
23
20.390274
33
32.458736
0
3DFACE
8
StabD
62
28.000000
10
-35.278557
20
1.474009
30
32.585049
11
-47.833710
21
20.390274
31
32.458736
12
-38.720470
22
20.468502
32
32.458736
13
-38.720470
23
20.468502
33
32.458736
0
3DFACE
8
StabD
62
28.000000
10
-35.278557
20
1.474009
30
32.585049
11
-38.720470
21
20.468502
31
32.458736
12
-31.004707
22
15.430802
32
31.667862
13
-31.004707
23
15.430802
33
31.667862
0
3DFACE
8
StabD
62
28.000000
10
-35.278557
20
1.474009
30
32.585049
11
-31.004707
21
15.430802
31
31.667862
12
-28.551184
22
3.859879
32
31.120960
13
-28.551184
23
3.859879
33
31.120960
0
ENDSEC
0
EOF
