0
SECTION
2
ENTITIES
0
3DFACE
8
PiedMancheAAir
62
1.000000
10
310.695709
20
143.973465
30
-21.274643
11
309.758209
21
143.676636
31
-21.274643
12
309.758209
22
143.676636
32
17.125357
13
310.695709
23
143.973465
33
17.125357
0
3DFACE
8
PiedMancheAAir
62
1.000000
10
309.758209
20
143.676636
30
-21.274643
11
309.994720
21
144.723679
31
-21.274643
12
309.994720
22
144.723679
32
17.125357
13
309.758209
23
143.676636
33
17.125357
0
3DFACE
8
PiedMancheAAir
62
1.000000
10
309.994720
20
144.723679
30
-21.274643
11
310.695709
21
143.973465
31
-21.274643
12
310.695709
22
143.973465
32
17.125357
13
309.994720
23
144.723679
33
17.125357
0
3DFACE
8
MancheAAir
62
2.000000
10
309.994720
20
144.723679
30
17.125357
11
304.594696
21
144.723679
31
17.747099
12
304.594696
22
142.420517
32
18.856249
13
309.994720
23
141.909088
33
18.480793
0
3DFACE
8
MancheAAir
62
2.000000
10
309.994720
20
141.909088
30
18.480793
11
304.594696
21
142.420517
31
18.856249
12
304.594696
22
141.851669
32
21.348480
13
309.994720
23
141.213943
33
21.526426
0
3DFACE
8
MancheAAir
62
2.000000
10
309.994720
20
141.213943
30
21.526426
11
304.594696
21
141.851669
31
21.348480
12
304.594696
22
143.445511
32
23.347095
13
309.994720
23
143.161697
33
23.968840
0
3DFACE
8
MancheAAir
62
2.000000
10
309.994720
20
143.161697
30
23.968840
11
304.594696
21
143.445511
31
23.347095
12
304.594696
22
146.001846
32
23.347097
13
309.994720
23
146.285660
33
23.968842
0
3DFACE
8
MancheAAir
62
2.000000
10
309.994720
20
146.285660
30
23.968842
11
304.594696
21
146.001846
31
23.347097
12
304.594696
22
147.595688
32
21.348480
13
309.994720
23
148.233414
33
21.526428
0
3DFACE
8
MancheAAir
62
2.000000
10
309.994720
20
148.233414
30
21.526428
11
304.594696
21
147.595688
31
21.348480
12
304.594696
22
147.026840
32
18.856247
13
309.994720
23
147.538269
33
18.480791
0
3DFACE
8
MancheAAir
62
2.000000
10
309.994720
20
147.538269
30
18.480791
11
304.594696
21
147.026840
31
18.856247
12
304.594696
22
144.723679
32
17.747099
13
309.994720
23
144.723679
33
17.125357
0
3DFACE
8
MancheAAir
62
2.000000
10
304.594696
20
144.723679
30
17.747099
11
298.594727
21
144.723679
31
18.347099
12
298.594727
22
142.914047
32
19.218573
13
304.594696
23
142.420517
33
18.856249
0
3DFACE
8
MancheAAir
62
2.000000
10
304.594696
20
142.420517
30
18.856249
11
298.594727
21
142.914047
31
19.218573
12
298.594727
22
142.467102
32
21.176756
13
304.594696
23
141.851669
33
21.348480
0
3DFACE
8
MancheAAir
62
2.000000
10
304.594696
20
141.851669
30
21.348480
11
298.594727
21
142.467102
31
21.176756
12
298.594727
22
143.719391
32
22.747095
13
304.594696
23
143.445511
33
23.347095
0
3DFACE
8
MancheAAir
62
2.000000
10
304.594696
20
143.445511
30
23.347095
11
298.594727
21
143.719391
31
22.747095
12
298.594727
22
145.727951
32
22.747099
13
304.594696
23
146.001846
33
23.347097
0
3DFACE
8
MancheAAir
62
2.000000
10
304.594696
20
146.001846
30
23.347097
11
298.594727
21
145.727951
31
22.747099
12
298.594727
22
146.980255
32
21.176756
13
304.594696
23
147.595688
33
21.348480
0
3DFACE
8
MancheAAir
62
2.000000
10
304.594696
20
147.595688
30
21.348480
11
298.594727
21
146.980255
31
21.176756
12
298.594727
22
146.533310
32
19.218571
13
304.594696
23
147.026840
33
18.856247
0
3DFACE
8
MancheAAir
62
2.000000
10
304.594696
20
147.026840
30
18.856247
11
298.594727
21
146.533310
31
19.218571
12
298.594727
22
144.723679
32
18.347099
13
304.594696
23
144.723679
33
17.747099
0
3DFACE
8
MancheAAir
62
2.000000
10
298.594727
20
144.723679
30
18.347099
11
292.594727
21
144.723679
31
19.347097
12
292.594727
22
143.736603
32
19.822447
13
298.594727
23
142.914047
33
19.218573
0
3DFACE
8
MancheAAir
62
2.000000
10
298.594727
20
142.914047
30
19.218573
11
292.594727
21
143.736603
31
19.822447
12
292.594727
22
143.492828
32
20.890549
13
298.594727
23
142.467102
33
21.176756
0
3DFACE
8
MancheAAir
62
2.000000
10
298.594727
20
142.467102
30
21.176756
11
292.594727
21
143.492828
31
20.890549
12
292.594727
22
144.175888
32
21.747097
13
298.594727
23
143.719391
33
22.747095
0
3DFACE
8
MancheAAir
62
2.000000
10
298.594727
20
143.719391
30
22.747095
11
292.594727
21
144.175888
31
21.747097
12
292.594727
22
145.271469
32
21.747099
13
298.594727
23
145.727951
33
22.747099
0
3DFACE
8
MancheAAir
62
2.000000
10
298.594727
20
145.727951
30
22.747099
11
292.594727
21
145.271469
31
21.747099
12
292.594727
22
145.954529
32
20.890549
13
298.594727
23
146.980255
33
21.176756
0
3DFACE
8
MancheAAir
62
2.000000
10
298.594727
20
146.980255
30
21.176756
11
292.594727
21
145.954529
31
20.890549
12
292.594727
22
145.710754
32
19.822447
13
298.594727
23
146.533310
33
19.218571
0
3DFACE
8
MancheAAir
62
2.000000
10
298.594727
20
146.533310
30
19.218571
11
292.594727
21
145.710754
31
19.822447
12
292.594727
22
144.723679
32
19.347097
13
298.594727
23
144.723679
33
18.347099
0
3DFACE
8
Hangar1
62
3.000000
10
-250.521362
20
-666.591980
30
-19.754217
11
-240.882675
21
-666.591980
31
4.432477
12
-240.882675
22
-378.407684
32
4.432477
13
-250.521362
23
-378.407684
33
-19.754217
0
3DFACE
8
Hangar1
62
3.000000
10
-240.882675
20
-666.591980
30
4.432477
11
-261.002930
21
-666.591980
31
43.383518
12
-261.002930
22
-378.407684
32
43.383518
13
-240.882675
23
-378.407684
33
4.432477
0
3DFACE
8
Hangar1
62
3.000000
10
-261.002930
20
-666.591980
30
43.383518
11
-383.569427
21
-666.591980
31
58.114506
12
-383.569427
22
-378.407684
32
58.114506
13
-261.002930
23
-378.407684
33
43.383518
0
3DFACE
8
Hangar1
62
3.000000
10
-383.569427
20
-666.591980
30
58.114506
11
-505.823120
21
-666.591980
31
43.067795
12
-505.823120
22
-378.407684
32
43.067795
13
-383.569427
23
-378.407684
33
58.114506
0
3DFACE
8
Hangar1
62
3.000000
10
-505.823120
20
-666.591980
30
43.067795
11
-525.405151
21
-666.591980
31
3.920148
12
-525.405151
22
-378.407684
32
3.920148
13
-505.823120
23
-378.407684
33
43.067795
0
3DFACE
8
Hangar1
62
3.000000
10
-525.405151
20
-666.591980
30
3.920148
11
-515.488464
21
-666.591980
31
-20.294304
12
-515.488464
22
-378.407684
32
-20.294304
13
-525.405151
23
-378.407684
33
3.920148
0
3DFACE
8
Hangar1
62
3.000000
10
-515.488464
20
-378.407684
30
-20.294304
11
-250.521362
21
-378.407684
31
-19.754217
12
-240.882675
22
-378.407684
32
4.432477
13
-240.882675
23
-378.407684
33
4.432477
0
3DFACE
8
Hangar1
62
3.000000
10
-515.488464
20
-378.407684
30
-20.294304
11
-240.882675
21
-378.407684
31
4.432477
12
-261.002930
22
-378.407684
32
43.383518
13
-261.002930
23
-378.407684
33
43.383518
0
3DFACE
8
Hangar1
62
3.000000
10
-515.488464
20
-378.407684
30
-20.294304
11
-261.002930
21
-378.407684
31
43.383518
12
-383.569427
22
-378.407684
32
58.114506
13
-383.569427
23
-378.407684
33
58.114506
0
3DFACE
8
Hangar1
62
3.000000
10
-515.488464
20
-378.407684
30
-20.294304
11
-383.569427
21
-378.407684
31
58.114506
12
-505.823120
22
-378.407684
32
43.067795
13
-505.823120
23
-378.407684
33
43.067795
0
3DFACE
8
Hangar1
62
3.000000
10
-515.488464
20
-378.407684
30
-20.294304
11
-505.823120
21
-378.407684
31
43.067795
12
-525.405151
22
-378.407684
32
3.920148
13
-525.405151
23
-378.407684
33
3.920148
0
3DFACE
8
Hangar1
62
3.000000
10
-250.521362
20
-666.591980
30
-19.754217
11
-515.488464
21
-666.591980
31
-20.294304
12
-525.405151
22
-666.591980
32
3.920148
13
-525.405151
23
-666.591980
33
3.920148
0
3DFACE
8
Hangar1
62
3.000000
10
-250.521362
20
-666.591980
30
-19.754217
11
-525.405151
21
-666.591980
31
3.920148
12
-505.823120
22
-666.591980
32
43.067795
13
-505.823120
23
-666.591980
33
43.067795
0
3DFACE
8
Hangar1
62
3.000000
10
-250.521362
20
-666.591980
30
-19.754217
11
-505.823120
21
-666.591980
31
43.067795
12
-383.569427
22
-666.591980
32
58.114506
13
-383.569427
23
-666.591980
33
58.114506
0
3DFACE
8
Hangar1
62
3.000000
10
-250.521362
20
-666.591980
30
-19.754217
11
-383.569427
21
-666.591980
31
58.114506
12
-261.002930
22
-666.591980
32
43.383518
13
-261.002930
23
-666.591980
33
43.383518
0
3DFACE
8
Hangar1
62
3.000000
10
-250.521362
20
-666.591980
30
-19.754217
11
-261.002930
21
-666.591980
31
43.383518
12
-240.882675
22
-666.591980
32
4.432477
13
-240.882675
23
-666.591980
33
4.432477
0
3DFACE
8
Hangar2
62
4.000000
10
164.478638
20
-666.591980
30
-19.754217
11
174.117325
21
-666.591980
31
4.432477
12
174.117325
22
-378.407684
32
4.432477
13
164.478638
23
-378.407684
33
-19.754217
0
3DFACE
8
Hangar2
62
4.000000
10
174.117325
20
-666.591980
30
4.432477
11
153.997086
21
-666.591980
31
43.383518
12
153.997086
22
-378.407684
32
43.383518
13
174.117325
23
-378.407684
33
4.432477
0
3DFACE
8
Hangar2
62
4.000000
10
153.997086
20
-666.591980
30
43.383518
11
31.430578
21
-666.591980
31
58.114506
12
31.430578
22
-378.407684
32
58.114506
13
153.997086
23
-378.407684
33
43.383518
0
3DFACE
8
Hangar2
62
4.000000
10
31.430578
20
-666.591980
30
58.114506
11
-90.823105
21
-666.591980
31
43.067795
12
-90.823105
22
-378.407684
32
43.067795
13
31.430578
23
-378.407684
33
58.114506
0
3DFACE
8
Hangar2
62
4.000000
10
-90.823105
20
-666.591980
30
43.067795
11
-110.405136
21
-666.591980
31
3.920148
12
-110.405136
22
-378.407684
32
3.920148
13
-90.823105
23
-378.407684
33
43.067795
0
3DFACE
8
Hangar2
62
4.000000
10
-110.405136
20
-666.591980
30
3.920148
11
-100.488472
21
-666.591980
31
-20.294304
12
-100.488472
22
-378.407684
32
-20.294304
13
-110.405136
23
-378.407684
33
3.920148
0
3DFACE
8
Hangar2
62
4.000000
10
164.478638
20
-666.591980
30
-19.754217
11
-100.488472
21
-666.591980
31
-20.294304
12
-110.405136
22
-666.591980
32
3.920148
13
-110.405136
23
-666.591980
33
3.920148
0
3DFACE
8
Hangar2
62
4.000000
10
164.478638
20
-666.591980
30
-19.754217
11
-110.405136
21
-666.591980
31
3.920148
12
-90.823105
22
-666.591980
32
43.067795
13
-90.823105
23
-666.591980
33
43.067795
0
3DFACE
8
Hangar2
62
4.000000
10
164.478638
20
-666.591980
30
-19.754217
11
-90.823105
21
-666.591980
31
43.067795
12
31.430578
22
-666.591980
32
58.114506
13
31.430578
23
-666.591980
33
58.114506
0
3DFACE
8
Hangar2
62
4.000000
10
164.478638
20
-666.591980
30
-19.754217
11
31.430578
21
-666.591980
31
58.114506
12
153.997086
22
-666.591980
32
43.383518
13
153.997086
23
-666.591980
33
43.383518
0
3DFACE
8
Hangar2
62
4.000000
10
164.478638
20
-666.591980
30
-19.754217
11
153.997086
21
-666.591980
31
43.383518
12
174.117325
22
-666.591980
32
4.432477
13
174.117325
23
-666.591980
33
4.432477
0
3DFACE
8
Hangar2
62
4.000000
10
-100.488472
20
-378.407684
30
-20.294304
11
164.478638
21
-378.407684
31
-19.754217
12
174.117325
22
-378.407684
32
4.432477
13
174.117325
23
-378.407684
33
4.432477
0
3DFACE
8
Hangar2
62
4.000000
10
-100.488472
20
-378.407684
30
-20.294304
11
174.117325
21
-378.407684
31
4.432477
12
153.997086
22
-378.407684
32
43.383518
13
153.997086
23
-378.407684
33
43.383518
0
3DFACE
8
Hangar2
62
4.000000
10
-100.488472
20
-378.407684
30
-20.294304
11
153.997086
21
-378.407684
31
43.383518
12
31.430578
22
-378.407684
32
58.114506
13
31.430578
23
-378.407684
33
58.114506
0
3DFACE
8
Hangar2
62
4.000000
10
-100.488472
20
-378.407684
30
-20.294304
11
31.430578
21
-378.407684
31
58.114506
12
-90.823105
22
-378.407684
32
43.067795
13
-90.823105
23
-378.407684
33
43.067795
0
3DFACE
8
Hangar2
62
4.000000
10
-100.488472
20
-378.407684
30
-20.294304
11
-90.823105
21
-378.407684
31
43.067795
12
-110.405136
22
-378.407684
32
3.920148
13
-110.405136
23
-378.407684
33
3.920148
0
ENDSEC
0
EOF
